<svg version="1.1" id="prefix__Слой_96" xmlns="http://www.w3.org/2000/svg" x="0" y="0" viewBox="0 0 1125 2436" xml:space="preserve"><style>.prefix__st0,.prefix__st1{fill:none;stroke:#000;stroke-width:5;stroke-linecap:round;stroke-linejoin:round;stroke-miterlimit:10}.prefix__st1{stroke-width:3}</style><path class="prefix__st0" d="M433.31 1699.38c-.86 2.78-3.71 5.03-6.39 4.97-3.25-.07-4.06-3.5-6.98-3.28-2.6.19-2.84 2.98-5.75 3.49-2.71.48-6.22-1.29-7.42-4.24-1.3-3.18.66-6.3 1.26-7.25 3.51-5.61 11.09-5.74 11.9-5.75 4.84-.01 10.89 2.25 12.93 6.98.31.68 1.17 2.76.45 5.08zM699.09 1231.63c-2.4 1.65-6.03 1.64-8.09-.06-2.5-2.07-1.01-5.26-3.44-6.9-2.16-1.46-4.07.57-6.67-.83-2.43-1.31-4.07-4.87-3.19-7.92.95-3.29 4.43-4.53 5.49-4.91 6.23-2.22 12.26 2.37 12.9 2.87 3.8 2.99 7.15 8.52 5.82 13.49-.21.72-.82 2.89-2.82 4.26zM675.03 1169.99c-1.67-2.39-1.69-6.02-.01-8.09 2.05-2.52 5.25-1.06 6.87-3.49 1.44-2.17-.61-4.07.77-6.68 1.29-2.44 4.84-4.11 7.9-3.25 3.3.93 4.57 4.39 4.96 5.44 2.27 6.21-2.27 12.28-2.77 12.92-2.96 3.83-8.46 7.22-13.44 5.93-.72-.19-2.89-.78-4.28-2.78zM1119.92 1556.02c1.46 2.51 1.19 6.14-.66 8.07-2.25 2.34-5.32.62-7.14 2.92-1.61 2.04.27 4.11-1.32 6.59-1.48 2.32-5.16 3.7-8.14 2.6-3.22-1.19-4.19-4.75-4.49-5.83-1.75-6.38 3.27-12.05 3.82-12.65 3.26-3.57 9.03-6.5 13.88-4.8.72.23 2.83 1 4.05 3.1zM582.49 2197.1c1.46 2.52 1.17 6.14-.69 8.06-2.26 2.34-5.33.6-7.15 2.89-1.62 2.04.26 4.11-1.34 6.59-1.49 2.32-5.17 3.68-8.15 2.57-3.21-1.21-4.18-4.77-4.47-5.85-1.73-6.38 3.31-12.04 3.86-12.64 3.27-3.56 9.05-6.47 13.9-4.75.72.24 2.82 1.02 4.04 3.13zM1108.65 2334.54c-2.87.5-6.17-1.01-7.34-3.41-1.42-2.92 1.26-5.21-.26-7.71-1.36-2.22-3.94-1.17-5.73-3.52-1.67-2.2-1.68-6.12.39-8.53 2.24-2.6 5.91-2.29 7.03-2.19 6.59.57 10.17 7.25 10.54 7.97 2.22 4.3 2.97 10.72-.31 14.69-.47.57-1.93 2.28-4.32 2.7zM568.34 2135.28c2.88-.4 6.13 1.22 7.21 3.67 1.32 2.97-1.44 5.16-.01 7.71 1.28 2.27 3.9 1.31 5.6 3.72 1.59 2.25 1.47 6.18-.69 8.51-2.32 2.52-5.99 2.08-7.1 1.94-6.57-.8-9.91-7.6-10.26-8.33-2.07-4.37-2.59-10.82.82-14.67.51-.56 2.03-2.22 4.43-2.55zM73.55 1392.08c-.13 2.91-2.32 5.81-4.92 6.43-3.16.75-4.81-2.36-7.58-1.41-2.46.84-2 3.6-4.68 4.83-2.51 1.15-6.34.32-8.25-2.23-2.06-2.75-.95-6.27-.62-7.34 1.98-6.31 9.28-8.36 10.06-8.57 4.68-1.24 11.11-.57 14.27 3.48.47.6 1.83 2.39 1.72 4.81zM91.82 1338.56c1.97 2.14 2.48 5.74 1.08 8.02-1.7 2.77-5.07 1.74-6.35 4.37-1.14 2.34 1.14 3.95.12 6.72-.95 2.59-4.25 4.72-7.4 4.27-3.4-.48-5.11-3.75-5.63-4.74-3.07-5.86.62-12.47 1.03-13.18 2.42-4.19 7.43-8.28 12.54-7.65.74.1 2.96.4 4.61 2.19zM743.73 1001.46c-2.88.44-6.15-1.14-7.26-3.58-1.35-2.95 1.38-5.18-.09-7.71-1.31-2.25-3.92-1.26-5.65-3.65-1.62-2.23-1.55-6.16.58-8.52 2.29-2.55 5.96-2.15 7.08-2.03 6.58.71 10.01 7.47 10.36 8.2 2.12 4.35 2.73 10.78-.64 14.68-.49.57-1.98 2.25-4.38 2.61zM471.59 879.24c2.72-1.04 6.25-.2 7.86 1.94 1.95 2.59-.24 5.35 1.74 7.51 1.76 1.92 4.1.39 6.3 2.35 2.06 1.84 2.83 5.68 1.26 8.45-1.69 2.98-5.36 3.38-6.48 3.5-6.58.71-11.37-5.15-11.88-5.79-3.01-3.79-4.97-9.95-2.52-14.47.35-.65 1.45-2.61 3.72-3.49zM691.69 546.04c.98 2.74.05 6.25-2.12 7.81-2.64 1.89-5.35-.36-7.55 1.56-1.96 1.71-.49 4.09-2.5 6.24-1.88 2.01-5.75 2.7-8.47 1.06-2.94-1.76-3.25-5.44-3.35-6.56-.56-6.59 5.42-11.25 6.07-11.74 3.86-2.92 10.06-4.74 14.53-2.18.64.38 2.57 1.52 3.39 3.81zM638.33 533.55c-2.24 1.85-5.86 2.17-8.07.66-2.68-1.84-1.47-5.15-4.04-6.57-2.28-1.26-4.01.93-6.72-.23-2.53-1.09-4.49-4.49-3.88-7.61.66-3.37 4.01-4.91 5.03-5.38 6.01-2.76 12.42 1.28 13.1 1.72 4.05 2.64 7.88 7.86 6.99 12.92-.12.74-.54 2.94-2.41 4.49zM748.98 312.09c-2.74.97-6.25.03-7.8-2.14-1.89-2.65.38-5.35-1.54-7.56-1.71-1.97-4.08-.5-6.23-2.52-2.01-1.89-2.68-5.75-1.04-8.48 1.77-2.94 5.45-3.24 6.57-3.33 6.59-.54 11.24 5.45 11.72 6.1 2.91 3.87 4.71 10.08 2.14 14.53-.39.65-1.53 2.58-3.82 3.4zM759.35 14.82c2.7-1.09 6.24-.3 7.89 1.81 2 2.56-.15 5.36 1.86 7.48 1.79 1.89 4.1.32 6.33 2.25 2.09 1.8 2.92 5.64 1.4 8.43-1.64 3.01-5.3 3.47-6.42 3.61-6.56.82-11.46-4.97-11.97-5.6-3.07-3.74-5.14-9.87-2.76-14.43.35-.66 1.42-2.64 3.67-3.55zM778.32 89.9c-2.07 2.04-5.65 2.68-7.98 1.37-2.83-1.6-1.92-5-4.6-6.19-2.38-1.06-3.91 1.28-6.71.36-2.62-.86-4.87-4.08-4.54-7.24.36-3.41 3.56-5.24 4.53-5.8 5.74-3.28 12.49.17 13.2.55 4.27 2.27 8.54 7.13 8.1 12.25-.05.76-.27 2.99-2 4.7zM255.54 433.02c.84 2.79-.28 6.25-2.53 7.69-2.74 1.75-5.32-.64-7.62 1.17-2.05 1.61-.7 4.05-2.82 6.1-1.99 1.91-5.88 2.39-8.52.62-2.85-1.91-2.96-5.6-3-6.72-.21-6.61 6-10.95 6.67-11.41 4.01-2.71 10.3-4.21 14.62-1.42.63.4 2.51 1.64 3.2 3.97zM197.97 381.37c2.67-1.15 6.24-.45 7.93 1.63 2.06 2.52-.03 5.36 2.04 7.44 1.83 1.85 4.11.23 6.38 2.1 2.13 1.75 3.05 5.57 1.59 8.39-1.57 3.05-5.22 3.59-6.33 3.75-6.54.97-11.57-4.7-12.1-5.32-3.15-3.67-5.36-9.75-3.09-14.36.32-.66 1.34-2.67 3.58-3.63zM440.2 1346.28c-8.91 12.88-17.82 25.76-26.73 38.65 4.87.52 9.73 1.05 14.6 1.57l-6.93 27.02 22.04-33.74c-4.28-.85-8.57-1.7-12.85-2.54 3.29-10.33 6.58-20.64 9.87-30.96zM523.22 83.91c-.99 15.63-1.97 31.26-2.96 46.9 4.44-2.06 8.88-4.12 13.31-6.19l8.01 26.72 1.47-40.27c-4.11 1.48-8.21 2.97-12.32 4.45-2.51-10.54-5.01-21.08-7.51-31.61zM1092.54 1764.83c-7.24 13.89-14.47 27.78-21.71 41.67 4.89-.09 9.79-.17 14.68-.26l-3.51 27.67c5.89-12.07 11.78-24.15 17.67-36.22-4.36-.31-8.71-.62-13.07-.92 1.98-10.64 3.96-21.29 5.94-31.94zM1010.61 858.92c-12.96 8.79-25.93 17.58-38.89 26.37 4.35 2.25 8.69 4.49 13.04 6.74-5.41 7.56-10.82 15.12-16.23 22.69 10.92-7.83 21.83-15.66 32.75-23.49-3.69-2.34-7.38-4.68-11.06-7.02 6.79-8.43 13.59-16.86 20.39-25.29zM298.9 1870.29c8.31 13.27 16.63 26.55 24.94 39.82l-14.65.9c1.9 9.1 3.79 18.2 5.69 27.31-6.83-11.57-13.65-23.14-20.48-34.71l12.96-1.95-8.46-31.37zM1056.67 442.74c-2.39-1.66-3.68-5.06-2.82-7.59 1.05-3.08 4.56-2.81 5.23-5.66.6-2.54-1.98-3.61-1.59-6.53.36-2.73 3.11-5.54 6.28-5.79 3.42-.28 5.81 2.53 6.54 3.39 4.29 5.04 2.13 12.3 1.89 13.08-1.44 4.62-5.43 9.71-10.55 10.22-.75.07-2.99.26-4.98-1.12zM1087.79 393.74c2.37-1.69 6-1.75 8.09-.08 2.54 2.03 1.11 5.24 3.56 6.84 2.18 1.42 4.06-.64 6.68.71 2.45 1.26 4.16 4.8 3.33 7.87-.9 3.31-4.35 4.61-5.4 5.01-6.19 2.33-12.3-2.15-12.95-2.64-3.86-2.92-7.3-8.4-6.05-13.39.19-.74.76-2.91 2.74-4.32zM610.82 1820.1c-6.82-3.07-14.17-1.2-17.48 3.68-2.24 3.3-2.53 7.81-.86 11.15 2.87 5.75 11.84 8.7 21.07 5 .75 1.52 2.48 4.48 5.89 6.55 5.53 3.34 11.41 1.88 13.44 1.38 4.05-1.01 6.92-3.06 8.54-4.45 6.92 4 15.03 2.21 18.47-2.95 2.59-3.87 2.25-9.18-.1-12.98-3.08-4.97-9.58-7.32-15.83-5.4.01-.5.11-9.3-6.81-13.67-6.59-4.16-13.93-.78-15.85.11-7.26 3.34-9.93 10.07-10.48 11.58zM700.57 1823.68c-7.32-3.29-14.89-1.67-18.27 3.05-1.66 2.32-2.67 5.88-1.49 8.95 1.97 5.13 9.86 8.35 18.84 5.65 1.35 1.54 4 4.13 8.12 5.9 6.1 2.61 11.56 1.76 13.44 1.38 6.04-1.22 9.87-4.56 11.34-5.99 6.84 2.22 13.5-.27 15.88-5 1.55-3.07 1.12-6.74-.31-9.39-2.6-4.79-9.11-7.25-15.83-5.4 0-.61-.14-8.63-6.91-13.06-7.19-4.69-15.02-.87-15.74-.5-5.36 2.7-8.8 8.24-9.07 14.41z"/><path class="prefix__st0" d="M651.15 1821.67c.17-11.25 9.75-19.96 20.27-19.31 9.73.6 17.81 9.07 17.85 19.44"/><path class="prefix__st0" d="M598.9 1819.32c3.5-41.14 39.7-71.42 78.62-68.24 36.04 2.94 65.59 33.85 66.77 71.95"/><path class="prefix__st0" d="M637.15 1808.4c5.18-15.01 19.57-24.96 35.33-24.48 16.08.49 30.04 11.74 33.99 27.46"/><path class="prefix__st0" d="M617.21 1811.07c5.92-27.45 30.7-46.25 57.04-44.61 23.28 1.45 43.63 18.61 49.61 42.43M717.34 770.56c.72.13 2.63.39 4.07-.75 0 0 1.31-1.03 1.63-3.32 1.33-9.57-23.37-26.3-23.37-26.3-13.85-9.37-25.42-14.93-37.99-20.83-11.09-5.21-24.59-11.44-40.07-18.39a227.974 227.974 0 00-16.48 21.98 227.428 227.428 0 00-15.87 28.31c12.37 14.41 21.15 26.91 26.88 35.65 11.3 17.24 19.43 33.13 27.24 31.58 1.92-.38 3.12-1.68 3.62-2.22 5.5-5.96 1.88-20.2-7.8-35.71 8.37 7.76 15.45 14.28 20.79 19.17 23.08 21.17 16.76 14.97 17.35 15.55 10.7 10.48 15.21 16.83 20.41 15.66 3.42-.77 5.24-4.36 5.4-4.69 6.19-12.63-25.68-40.64-32.19-46.26"/><path class="prefix__st0" d="M680.74 742.62c5.43 3.7 11.48 7.9 18.05 12.57 0 0 13.83 9.86 24.09 21.98 1.47 1.73 4.63 5.63 3.94 9.97-.33 2.05-1.44 3.28-1.67 3.53-2.03 2.22-5.58 2.87-9.2 1.82"/><path class="prefix__st0" d="M675.96 759.87a225.92 225.92 0 0122.59 15.47s14.9 11.61 23.66 25.89c1.46 2.39 3.87 6.71 2.7 11.31-.2.77-.82 3.14-2.94 4.68 0 0-1.67 1.22-4.11 1.37-6.45.41-16.41-10.07-25-18.42-2.58-2.51-6.58-6.32-11.69-10.88M621.6 700.98c-2.47-13.41-8.05-22.44-13.6-22.54-1.91-.03-4.16 1.05-5.63 2.82-3.08 3.72-3.03 10.41.46 16.67-4-7.33-10.64-10.85-15.99-9.2-.52.16-4.01 1.3-5.65 4.74-2.51 5.26.26 13.84 7.88 19.9-6.48-4.39-13.7-4.41-17.85-.45-.45.43-2.78 2.74-3.27 6.48-.78 5.91 3.39 12.56 10.64 15.94-7.4-.12-13.17 3.3-14.49 7.98-.62 2.19-.3 4.77.94 6.65 3.22 4.87 13.03 5.65 24.22 1.28"/><circle class="prefix__st0" cx="625.68" cy="714.47" r="1.18"/><circle class="prefix__st0" cx="614.75" cy="730.98" r="1.24"/><circle class="prefix__st0" cx="604" cy="749.08" r="1.35"/><path class="prefix__st0" d="M240.9 2352.62c1.82 1.66 13.17 11.67 30.04 10.19 17.48-1.53 27.04-14.18 28.44-16.1 2.34.89 11.05 3.87 20.39 0 10.51-4.36 18.64-16.11 16.36-26.02-2.61-11.38-19.04-20.77-37.16-14.79-.73-3.21-2.98-11.04-10.05-16.33-11.83-8.86-31.47-6.37-40.24 5.63-5.39 7.38-4.93 15.98-4.56 19.31-10.07-5.01-21.61-4.02-29.51 2.41-5.48 4.47-10.69 12.78-8.85 20.66 2.47 10.58 17.36 19.17 35.14 15.04zM243.34 2368.92c-.82 1.8-8.65 19.44-3.38 24.85.55.57 2.46 2.53 4.72 2.25 2.13-.26 3.43-2.36 3.96-3.21 4.04-6.49-4.28-22.02-5.3-23.89zM272.7 2380.11c-.82 1.8-8.65 19.44-3.38 24.85.55.57 2.46 2.53 4.72 2.25 2.13-.26 3.43-2.36 3.96-3.21 4.04-6.49-4.28-22.02-5.3-23.89zM303.41 2362.6c-.82 1.8-8.65 19.44-3.38 24.85.55.57 2.46 2.53 4.72 2.25 2.13-.26 3.43-2.36 3.96-3.21 4.05-6.48-4.28-22.02-5.3-23.89zM389.1 1946.9c-6.26 31.14-12.51 62.29-18.77 93.43l146.24 28.26c6.03-31.19 12.05-62.38 18.08-93.56"/><path class="prefix__st0" d="M415.62 1951.06l-3.3 17.1 92.41 17.85c.91-4.94 1.81-9.87 2.72-14.81"/><path class="prefix__st0" d="M381.66 1944.5c13.48 2.6 26.95 5.21 40.43 7.81-4.01-15.75-8.02-31.5-12.04-47.24-9.47 13.14-18.93 26.29-28.39 39.43zM501.56 1967.67c13.48 2.6 26.95 5.21 40.43 7.81-4.01-15.75-8.02-31.5-12.04-47.24-9.46 13.14-18.93 26.28-28.39 39.43zM442.35 1917.82c-3.43 18.05-6.86 36.1-10.28 54.15M496.61 1927.29c-3.43 18.05-6.86 36.1-10.28 54.15M435.81 1914.17c23.01 4.45 46.01 8.89 69.02 13.34l-23.73-64.2c-15.1 16.95-30.2 33.91-45.29 50.86zM424.46 2049.17c1.87-9.7 3.75-19.41 5.62-29.11 3.36-12.52 11.67-21.22 20.76-21.87 4.41-.32 7.8 1.35 8.8 1.88 7.93 4.21 12.05 14.96 10.39 27.17l-6.03 31.19M394.59 2018.95c.99-5.13 1.98-10.27 2.98-15.4 1.72-6.64 5.99-11.27 10.64-11.64 2.24-.18 3.96.68 4.46.96 4.04 2.19 6.11 7.86 5.17 14.31-1.01 5.22-2.02 10.43-3.02 15.65-6.75-1.29-13.49-2.59-20.23-3.88zM482.95 2037.02c.99-5.13 1.98-10.27 2.98-15.4 1.72-6.64 5.99-11.27 10.64-11.64 2.24-.18 3.96.68 4.46.96 4.04 2.19 6.11 7.86 5.17 14.31-1.01 5.22-2.02 10.43-3.02 15.65-6.75-1.3-13.49-2.59-20.23-3.88zM454.27 1958.47c.78-4.01 1.55-8.03 2.33-12.04 1.34-5.19 4.68-8.81 8.31-9.1 1.75-.14 3.09.53 3.49.75 3.16 1.71 4.77 6.14 4.04 11.19-.79 4.08-1.58 8.16-2.36 12.23-5.28-1.01-10.54-2.02-15.81-3.03zM410.24 1905.11c1.12-5.78 2.23-11.55 3.35-17.33-7.6-.16-15.2-.31-22.8-.47 6.97 3.42 13.93 6.85 20.9 10.27M530.24 1927.75c1.12-5.78 2.23-11.55 3.35-17.33-7.6-.16-15.2-.31-22.8-.47 6.97 3.42 13.93 6.85 20.9 10.27M480.86 1863.26l3.87-20.04-26.36-.54c8.06 3.96 16.12 7.92 24.17 11.88M152.1 723.84c2.89-3.49 5.77-6.98 8.66-10.47 4.64.45 9.27.89 13.91 1.34-2.32-3.75-4.64-7.51-6.96-11.26 1.72-3.67 3.44-7.34 5.15-11.01-4.44.84-8.89 1.68-13.33 2.53-3.55-3.34-7.1-6.67-10.65-10.01l-1.86 14.7c-3.77 2.49-7.54 4.98-11.3 7.48 4.31 1.36 8.62 2.72 12.94 4.09 1.14 4.19 2.29 8.4 3.44 12.61zM43.88 1868.01c3.5-2.88 7-5.75 10.5-8.63 4.46 1.32 8.93 2.65 13.39 3.97-1.56-4.13-3.13-8.26-4.69-12.39l7.16-9.83-13.57-.06c-2.85-3.95-5.69-7.91-8.54-11.86-1.54 4.69-3.09 9.38-4.63 14.08-4.17 1.73-8.35 3.46-12.52 5.18 3.97 2.16 7.95 4.32 11.92 6.48.32 4.35.65 8.7.98 13.06zM534.63 1476.58c-1.79-1.14-7.58-4.51-15.18-3.53-.57.07-13.2 1.92-17.47 13.06-3.12 8.15-1.02 19.28 7.59 24.35 8.33 4.91 19.88 2.47 24.71-4.94 2.71-4.16 4.48-11.7 0-16.94-4-4.68-10.85-5-15.35-3.18-.99.4-4.79 1.94-6.35 5.82-.34.85-1.34 3.34-.18 6 .07.17 1.57 3.43 5.04 3.99 1.58.26 4.6.12 5.73-2.05.8-1.55.18-3.27 0-3.71M48 1627.87c-.61-2.03-2.78-8.37-9.17-12.6-.48-.32-11.24-7.19-21.76-1.56-7.69 4.11-13.39 13.91-10.2 23.38 3.08 9.16 13.42 14.88 21.92 12.43 4.77-1.37 11.05-5.92 11.09-12.81.03-6.16-4.93-10.88-9.53-12.45-1.01-.34-4.89-1.67-8.61.25-.82.42-3.2 1.65-4.06 4.42-.05.18-1.06 3.62 1.2 6.31 1.03 1.23 3.4 3.11 5.67 2.2 1.63-.65 2.27-2.35 2.43-2.8M309.56 2213.49c1.39-1.6 5.59-6.82 5.75-14.48.01-.58.07-13.34-10.31-19.22-7.59-4.3-18.91-3.88-25.21 3.88-6.09 7.5-5.4 19.29 1.21 25.17 3.71 3.29 10.91 6.17 16.75 2.52 5.22-3.26 6.56-9.98 5.42-14.71-.25-1.03-1.2-5.03-4.81-7.15-.79-.47-3.11-1.83-5.91-1.07-.18.05-3.62 1.04-4.7 4.39-.49 1.52-.81 4.53 1.17 5.97 1.42 1.03 3.2.66 3.66.55M975.83 295.79c-1.64 1.34-6.65 5.79-8.1 13.31-.11.57-2.31 13.14 6.94 20.68 6.76 5.51 17.99 7 25.5.41 7.27-6.37 8.57-18.11 3.03-25.01-3.1-3.87-9.72-7.92-16.09-5.3-5.7 2.34-8.14 8.74-7.82 13.59.07 1.06.34 5.16 3.54 7.86.7.59 2.76 2.32 5.64 2.04.18-.02 3.75-.42 5.37-3.54.74-1.42 1.56-4.33-.16-6.08-1.22-1.25-3.05-1.19-3.52-1.16M349.52 1011.33c.56-2.04 2.07-8.57-1.11-15.54-.24-.53-5.73-12.04-17.64-12.83-8.7-.58-18.72 4.72-21.02 14.44-2.23 9.41 3.51 19.72 12.02 22.14 4.77 1.36 12.51.82 16.19-5 3.29-5.21 1.57-11.84-1.5-15.61-.67-.82-3.27-4.01-7.44-4.35-.92-.08-3.59-.3-5.78 1.6-.14.12-2.81 2.51-2.33 5.99.22 1.58 1.24 4.43 3.65 4.87 1.72.31 3.17-.8 3.54-1.09M1069.1 539.78c3.6-2.75 7.2-5.49 10.8-8.24 4.41 1.49 8.83 2.97 13.24 4.46-1.41-4.18-2.82-8.37-4.23-12.55 2.5-3.19 5.01-6.37 7.51-9.56-4.52-.19-9.04-.37-13.56-.56-2.7-4.05-5.4-8.11-8.1-12.16-1.71 4.63-3.43 9.26-5.14 13.9-4.23 1.57-8.47 3.15-12.7 4.72 3.89 2.3 7.78 4.61 11.67 6.91l.51 13.08zM379.02 118.03c4.52.29 9.04.58 13.56.88 2.35 4.02 4.71 8.04 7.06 12.05 1.68-4.08 3.36-8.16 5.05-12.24l11.94-2.28c-3.29-3.11-6.57-6.22-9.86-9.32.62-4.83 1.25-9.66 1.87-14.49-4.33 2.37-8.67 4.74-13 7.11-4.23-1.59-8.45-3.19-12.68-4.78 1.42 4.29 2.85 8.58 4.27 12.88-2.73 3.39-5.47 6.79-8.21 10.19zM508.98 1787.16c2.56-3.74 5.12-7.47 7.69-11.21l13.97.09c-2.65-3.53-5.3-7.06-7.94-10.6 1.38-3.81 2.77-7.62 4.15-11.43-4.35 1.24-8.7 2.47-13.05 3.71-3.83-3.01-7.67-6.01-11.5-9.02l-.54 14.81-10.59 8.46 13.25 2.91c1.51 4.1 3.03 8.19 4.56 12.28zM612.33 1380.82c71.58-39.11 123.86-67.53 127.65-69.48 1.26-.65 3.88-1.83 6.23-.89.33.13 1.12.45 1.63 1.15 1.66 2.28-.95 6.88-1.63 8.07-3.22 5.74-31.28 57.64-70.02 129.16"/><path class="prefix__st0" d="M605.83 1457.48c-15.39-1.99-27.97-4.81-37.09-7.21-18-4.73-24.11-8.2-27.65-10.48-1.71-1.1-10.92-7.17-18.25-17.44-13.05-18.27-12.4-38.99-11.61-56.53 1.1-24.4 8.25-63.43 20.83-64.37 4.43-.33 8.08 4.3 13.36 11.53 9.3 12.74 21.67 33.25 30.14 63.12 6.3 24.39 16.08 62.23 37.64 91.1 26.33 35.25 67.03 52.82 100.02 55.02 28.09 1.87 51.38-7.36 52.71-11.37.78-2.35.02-3.96.01-3.96-.94-1.98-3.38-2.62-4.07-2.82-4.24-1.2-26.76-9.42-57.95-20.9-9.24-11.44-18.48-22.89-27.72-34.33-45.2-47.33-90.4-94.66-135.6-142"/><path class="prefix__st0" d="M617.87 1377.8c6.74.31 24.74 2.04 42.32 15.1 17.61 13.08 24.45 29.86 26.69 36.22M644.92 1363.03c5.96 1.3 16.2 4.45 25.8 12.76 19.4 16.81 20.31 41.02 20.39 45.51"/><path class="prefix__st0" d="M680.27 1441.31c-3.08-9.02-8.14-20.82-16.6-33.3a139.839 139.839 0 00-21.94-25.22M784.15 1341.51c6.46-.42 12.93-.84 19.39-1.27-3.56 5.34-7.12 10.67-10.67 16.01 2.77 5.75 5.53 11.5 8.3 17.25-6.24-1.5-12.49-2.99-18.73-4.49-4.84 5.02-9.67 10.05-14.51 15.07-.28-7.34-.56-14.68-.85-22.03-6.39-2.78-12.77-5.55-19.16-8.33l18.9-6.78c1.45-6.99 2.91-13.99 4.36-20.98 4.33 5.18 8.65 10.36 12.97 15.55z"/><path class="prefix__st0" d="M747.84 1311.6c3.16-2.92 5.91-3.32 7.17-3.38 6.55-.31 13.75 6.68 16.17 17.75M71.98 1711.42c-2.14 1.04-4.29 2.07-6.43 3.11 20.87 29.26 41.74 58.52 62.62 87.78 33.29-16.72 66.59-33.44 99.88-50.16 2.15.64 6.29 1.55 11.32.58 5.87-1.13 9.66-4.27 11.95-6.19a31.94 31.94 0 006.96-8.27c28.84-14.64 57.67-29.28 86.51-43.92l-15.66-15.57"/><path class="prefix__st0" d="M310.42 1657.19c4.94 4.55 9.89 9.1 14.83 13.65 3.12 6.41 6.24 12.83 9.36 19.24-27.74 13.6-55.49 27.2-83.23 40.81-.85-1.23-3.99-5.45-9.43-6.39-7.48-1.28-15.07 4.39-16.69 11.17-.71 2.98-.13 5.59.32 7.05-31.91 15.98-63.83 31.95-95.74 47.93-19.29-26.41-38.57-52.82-57.86-79.23l-6.6-34.72c6.8-2.79 13.6-5.58 20.4-8.36"/><path class="prefix__st0" d="M65.37 1676.7l66.97 81.4c4.77.12 12.48-.07 21.53-2.29 21.05-5.15 28.51-16.12 49.79-23.61 6.17-2.17 15.7-4.82 28.35-5.52M238.21 1722.27c4.96-6.32 12.16-13.78 22.35-19.72 16.33-9.52 28.06-7.12 46.05-17.37 8.84-5.03 15.04-10.7 18.64-14.34"/><path class="prefix__st0" d="M234.11 1725.57l-65.37-86.31c-19.39-11.01-33-10.98-41.98-8.75-9.88 2.46-14.06 7.55-26.67 11.1-13.02 3.67-24.72 2.79-32.65 1.45a714.458 714.458 0 0129.04 42.16c9.7 15.23 18.28 29.97 25.87 44 6.43 6.2 16.15 13.41 27.91 13.24 16.11-.23 22.81-14.12 41.65-19.86 9.13-2.78 22.86-4.17 42.2 2.97z"/><path class="prefix__st0" d="M170.29 1641.3c5.78-18.74 14.64-27.21 21.53-31.49 10.8-6.7 19.85-5.02 35.64-13.36 9.56-5.05 16.32-11 20.4-15.03 22.2 22.01 44.4 44.03 66.6 66.04-2.11 6.61-6.27 16.2-15.07 23.73-13.66 11.69-26.78 8.38-41.06 17.4-8 5.05-18.04 15.02-24.22 36.98M225.58 1742.72c2.1.59 5.94 1.37 10.58.49 1.83-.35 5.52-1.09 9.17-4.01 3.73-2.97 5.38-6.57 6.05-8.31"/><path class="prefix__st0" d="M180.74 1617.85c-4.17-2.01-12.67-6.8-19.46-16.53-7.98-11.44-8.9-22.99-9.01-27.58 3.96 2.51 7.91 5.02 11.87 7.53 2.31-5.25 4.63-10.5 6.94-15.75.84 6.42 3.27 17.9 11.42 29.3a63.504 63.504 0 0012.66 13.16M205.68 1602.93c-3.09-4.55-6.19-9.09-9.28-13.64 5.7-1.94 11.4-3.87 17.09-5.81 3.02 4.58 6.03 9.16 9.05 13.74M131.92 1789.61l.42-31.51"/><path class="prefix__st1" d="M192.03 1629.91c2.2-2.76 5.93-6.85 11.54-10.3 6.85-4.22 11.54-4.42 20.04-7.93 4.2-1.74 10.33-4.69 17.3-9.77M201.72 1640.06c2.2-2.76 5.93-6.85 11.54-10.3 6.85-4.22 11.54-4.42 20.04-7.93 4.2-1.74 10.33-4.69 17.3-9.77M212.26 1649.86a52.543 52.543 0 0120.51-13.42M276.18 1628.52c6.84 7.1 13.68 14.21 20.51 21.31-1.36 2.5-4.49 7.41-10.45 11.2-4.83 3.08-9.45 4.1-12.14 4.48-6.42-8.04-12.84-16.09-19.25-24.13 2.66-.42 6.58-1.37 10.82-3.7 5.38-2.97 8.74-6.79 10.51-9.16zM90.06 1653.47c5.55 8.91 11.11 17.82 16.66 26.73 2.66.03 5.65-.12 8.88-.56 6.95-.96 12.67-2.98 16.93-4.91-5.69-8.98-11.38-17.97-17.07-26.95a68.72 68.72 0 01-15.48 4.68c-3.62.63-6.96.92-9.92 1.01zM132.6 1719.48c3.12 2.03 8.02 4.52 13.9 4.29 9.72-.37 14.68-7.83 24.01-13.4 6.22-3.71 16.08-7.6 31.34-7.06M126.35 1706.14c3.46 1.21 8.93 2.56 15.08 1.29 9.31-1.93 12.94-8.38 21.11-13.38 5.38-3.28 14.12-6.79 28.05-6.04M120.06 1692.82c3.81 1.37 9.57 2.78 15.93 1.33 9.37-2.14 12.46-8.76 21.81-13.68 4.86-2.56 12.44-5.19 23.72-4.56M146.72 1670.18c2.05-1.8 5.99-4.77 11.73-6.37 4.44-1.24 8.29-1.2 10.77-.98M140 1658.6c2.4-1.74 6.03-3.96 10.84-5.57 4.97-1.66 9.35-2.05 12.36-2.09"/><path class="prefix__st0" d="M883.66 314.31c7.07-5.73 17.69-14.25 30.75-24.45 15.82-12.35 23.28-17.84 27.29-21.01 25-19.74 22.18-33.16 48.18-63.81 14.71-17.33 62.6-68.6 78.14-77.73.78-.46 3.28-1.87 3.19-3.89-.19-4.49-13.07-10.41-24.63-10.46-8.22-.04-15.37 4.28-29.67 12.47-11.78 6.74-17.05 11.58-18.65 13.08-1.32 1.24-6.25 5.97-11.75 13.99-7.33 10.67-8.83 17.21-18.33 38.96-3.17 7.27-6.23 13.93-7.61 16.8-12.07 25.21-30.19 42.15-59.96 69.53-6.55 6.02-16 14.49-27.82 24.31"/><path class="prefix__st0" d="M1037.95 114.31c-.95.32-4.36 1.59-6.34 5.34-1.38 2.61-2.41 7.09-.41 10.18 3.86 5.97 16.92 3.53 21.88 2.6a49.163 49.163 0 0016.96-6.58M824.77 330.4c1.44-.95 2.89-1.9 4.33-2.85 5.68 1.04 15.19 3.57 24.84 10.44a61.308 61.308 0 0113.27 12.89 27.82 27.82 0 01-6.77 4.35 28.098 28.098 0 01-9.21 2.4 73.25 73.25 0 00-9.78-13.61 73.501 73.501 0 00-16.68-13.62zM824.77 330.4c5.43 12.46 10.85 24.92 16.28 37.39 1.94-1.74 3.93-3.63 5.94-5.66 1.5-1.52 2.91-3.01 4.24-4.49"/><path class="prefix__st0" d="M825.55 332.19c-1.76.1-4.38.46-7.32 1.67-3.19 1.32-5.43 3.1-6.77 4.35a169.159 169.159 0 0026.38 32.14c1.67-1.4 3.35-2.79 5.02-4.19"/><path class="prefix__st0" d="M813.22 340.93c-9.8-.69-30.8-.81-53.07 10.7-5.98 3.09-25.44 13.46-38.44 35.47-17.6 29.8-5.19 50.18-24.05 75.1-8.15 10.77-18.13 17.09-25.33 20.76 9.05-.87 22.48-2.54 38.46-6.05 33.45-7.36 64.05-14.1 88.32-36.26 8.5-7.76 29.52-29.56 36.77-72.19"/><path class="prefix__st1" d="M817.25 346.76c-8.02.34-19.5 1.79-32.24 6.87-19.59 7.82-32 20.16-38.17 27.31M785.09 365.26a134.321 134.321 0 00-26.49 19.6 134.72 134.72 0 00-23.01 28.87M822.15 380.73c-3.97 8.2-9.3 17.36-16.49 26.68-19.28 25-42.32 38.69-57.35 45.86M814.71 361.44c-6 2.85-13.42 7.09-21.07 13.37-5.78 4.74-10.33 9.54-13.83 13.76"/><path class="prefix__st0" d="M864.58 344.3c7.54-5.03 15.08-10.06 22.62-15.1-.76-3.27-5.68-22.98-22.08-29.26-2.24-.86-5.02-1.59-8.34-1.82l-22.28 28.73"/><path class="prefix__st1" d="M861.23 311.17c-5.95 6.93-11.91 13.86-17.86 20.79M884.05 319.83c-6.67 4.88-13.34 9.76-20.02 14.64M861.4 322.89l-12 12.18"/><path class="prefix__st0" d="M918.29 1906.42c.88-2.4 3.19-9.69.13-17.59-1.77-4.59-4.58-7.37-6.04-8.79-9.31-9.04-22.27-8.99-25.99-8.98-.56 0-7.12-.03-13.48 2.13-28.88 9.81-52.45 53.75-43.42 83.66.46 1.53 1.66 5.16 4.2 9.3 9.81 15.97 29.13 21 38.78 19.32 3.9-.68 7.38-2.86 7.38-2.86s4.8-2.62 9.02-7.48c4.93-5.66 14.15-24.96 22.7-52.31"/><path class="prefix__st0" d="M920.03 1897.03c2.42-1.71 6.34-4.03 11.56-5.23 13.17-3.02 27.33 2.74 35.22 12.27 1.61 1.94 7.9 10.01 7.85 28.24-.07 26.93-13.95 69.95-44.1 75.03-12.94 2.18-31.09-2.44-41.1-15.24-3.03-3.87-4.71-7.72-5.68-10.54M894.57 1871.62c-.98-2.69-2.72-6.48-5.92-10.17-10.46-12.06-27.13-12.23-30.31-12.26-33.53-.32-68.45 50.58-58.9 78.43 4.93 14.38 15.92 21 15.92 21 5.04 3.04 9.94 4.12 13.2 4.56"/><path class="prefix__st0" d="M954.08 1894.43c3.09-1.64 8.45-3.94 15.34-4.17 0 0 11.89-.39 22.58 7.19 24.58 17.42 17.13 82.92-6.91 100.43-3.24 2.36-10.56 7.69-20.47 7.15-6.8-.37-11.93-3.35-14.62-5.21M900.17 1872.93c4.13 0 9.97-.7 15.74-3.99 11.46-6.55 17.84-20.59 17.09-36.18-.18-2.44-.03-5.54 1.13-8.85 4.07-11.53 16.9-15.18 18.58-15.63.19 1.35 1.19 9.28-4.39 16.36-5.74 7.28-14 8.02-15.32 8.12"/><path class="prefix__st0" d="M952.71 1808.28c1.49 9.54.82 16.99-.03 21.96-2.29 13.38-9.56 30.11-12.09 44.25-.3 1.66-.86 5.12.46 9.05 1.41 4.22 4.31 6.98 6.28 8.52"/><path class="prefix__st0" d="M942.15 1867.67c.35-1.69 3.86-17.6 18.56-23.88 8.91-3.8 23.73-4.82 30.99 4.69 5.4 7.09 5.47 18.93-.61 25.22-3.43 3.54-10.02 6.58-14.12 3.93-3.43-2.22-3.93-7.66-3.21-11.26 1.86-9.35 14.14-17.36 25.91-15.91 8.84 1.09 18.54 7.65 20.13 17.3 1.57 9.5-5.01 20.13-10.5 20.53-1.17.09-3.64-.19-4.78-1.99-1.33-2.1.02-4.85.17-5.13M933.83 1823.04c-1.84-6.29-6.94-10.91-12.91-11.65-8.09-1-15.77 5.42-16.72 12.54-.59 4.43 1.24 10.57 5.85 12.34 3.33 1.28 7.35-.25 9.51-2.6.68-.74 2.31-2.52 1.72-4.44-.42-1.36-1.9-2.55-3.58-2.48-1.66.07-2.64 1.32-2.79 1.51"/><circle transform="rotate(-45.001 235.619 829.15)" class="prefix__st0" cx="235.63" cy="829.14" r="73.31"/><path class="prefix__st0" d="M257.12 759.05c-.48-3.18-2.94-20.85 4.45-31.26.58-.82 4.61-6.35 7.22-5.26 2.69 1.13 2.15 8.59 2.06 9.89-.92 12.69-10.71 23.48-13.73 26.63z"/><circle class="prefix__st0" cx="210.29" cy="914.23" r="8.54"/><circle transform="rotate(-50.787 263.143 912.163)" class="prefix__st0" cx="263.13" cy="912.14" r="6.66"/><circle transform="rotate(-50.787 166.819 883.244)" class="prefix__st0" cx="166.81" cy="883.22" r="6.66"/><path class="prefix__st0" d="M207.84 922.42c-.85 4.12-2.37 10.68-5.02 18.57-2.78 8.29-4.75 11.92-7.78 20.35-1.71 4.76-4.08 11.95-6.26 21.12"/><path class="prefix__st0" d="M205.77 931.2c-5.52 4.09-37.07 28.16-35.72 61.41.77 19.13 12.33 38.49 19 40.24 2.65.69 4.65-.14 4.65-.14 3.66-1.53 4.77-6.48 5.21-8.41 6.98-30.69 10.56-30.13 11.17-49.98.32-10.43-.21-25.4-4.31-43.12zM164.89 889.6c-3.33 9.78-7.11 19.95-11.42 30.43-2.46 5.97-4.97 11.75-7.5 17.32M261.22 918.52a186.98 186.98 0 01-4.26 24.91c-1.75 7.26-3.8 13.84-5.92 19.71"/><path class="prefix__st0" d="M162.61 897.06c-7.67 3.96-18.56 11.26-25.96 24.06-8.69 15.01-12.94 38.19-4.41 45.21.39.32 1.28 1.18 2.67 1.47 3.15.65 6.83-1.96 13.52-10.52 6.75-8.65 10.12-12.97 12.78-19.57 7.25-17.99 3.11-34.85 1.4-40.65zM260.48 924.68c-6.67 6.3-18.39 19.4-21.31 38.35-2.44 15.86 2.36 28.76 6.33 32.6 1.16 1.12 2.11 1.34 2.65 1.38 3.23.28 6.24-4.23 9.97-11.15 5.59-10.39 8.39-15.58 9.59-20.78 4.42-19.04-4.62-35.87-7.23-40.4z"/><path class="prefix__st1" d="M256.71 758.93c-26.98 13.09-42.6 42.03-38.7 71.39 4.05 30.45 28.26 54.85 59.08 59.29"/><path class="prefix__st1" d="M257.12 759.05c14.1 24.28 13.49 54.04-1.61 75.87-18.31 26.48-54.89 36.91-87.16 23.35"/><path class="prefix__st1" d="M275.47 890.68c8.34-28.5-1.22-59.09-23.85-76.88-25-19.66-61.19-19.97-87.64-.2 16.6 23.76 45.26 36.22 73.95 32.16 28.74-4.07 52.83-24.05 62.15-51.55-28.3-9.82-59.8-1.24-78.95 21.43-19.76 23.4-22.45 57.17-6.59 83.71 28.39-12.45 45.52-42.04 42.18-72.77-3.31-30.46-26.04-55.54-56.11-61.86-7.18 29.08 3.2 59.69 26.45 78.02 22.06 17.4 52.28 21.01 78.18 9.39-11.88-27.38-39.14-44.88-68.52-44.1-31.01.83-58.41 21.86-67.54 52.07M305.24 852.14c-.38-.62-.87-1.39-1.46-2.29"/><path class="prefix__st0" d="M875.23 875.71l34.8 142.4-6.62 1.62-34.81-142.4"/><path class="prefix__st0" d="M850.28 894.04l21.22-19.72c9.67 2.24 19.34 4.48 29.01 6.71-3.86-8.58-7.72-17.17-11.58-25.75 4.65-7.28 9.31-14.56 13.96-21.84l-28.88 1.62c-6.57-8.04-13.14-16.09-19.7-24.13-2.68 10.18-5.36 20.36-8.04 30.55-8.66 4.22-17.32 8.43-25.98 12.65 8.73 4.08 17.47 8.16 26.2 12.24 1.27 9.23 2.53 18.45 3.79 27.67zM876.72 800.86l2.73-17.86M856.94 930.2l3.42-22.35M909.56 900.09c3.86 3.96 7.72 7.91 11.59 11.87M812.08 800.19c4.32 4.43 8.65 8.86 12.97 13.29M908.71 819.71c4.67-4.26 9.34-8.51 14.01-12.77M808.33 911.2c5.25-4.79 10.51-9.58 15.76-14.36M919.89 857.6l18.92.27M787.13 855.7c6.31.03 12.61.07 18.92.1M465.23 2497.1c-31.67-74.63-42.28-136.55-33.83-163.52 6.19-19.75 18.29-31.32 18.29-31.32 12.14-11.61 25.53-15.01 28.78-15.77 5.22-1.22 15.99-3 28.54.2 0 0 16.61 4.24 31.92 20.06 19.19 19.84 39.21 79.33 47.89 160.57-5.25 3.28-13.01 7.78-22.82 12.28-31.6 14.5-58.79 17.14-68.35 17.81-7.49.53-17.92.81-30.42-.31z"/><path class="prefix__st0" d="M583.5 2452.2c1.57 6.2-24.75 18.21-58.78 26.82s-62.9 10.55-64.46 4.35c-1.57-6.2 24.75-18.21 58.78-26.82s62.89-10.55 64.46-4.35zM468.53 2279.54c-9.69-.4-18.37-7.09-20.87-16.97-3.05-12.05 4.25-24.28 16.3-27.33s24.28 4.25 27.33 16.3c2.48 9.79-1.88 19.7-10.06 24.71"/><path class="prefix__st0" d="M472.06 2288.36a275.42 275.42 0 01-2.59-9.37c-.65-2.51-.84-3.42-.4-4.45 1.27-2.97 6.66-4.42 9.2-2.51.93.7 1.24 1.67 1.64 3.04.83 2.76 1.84 6.31 2.9 10.54"/><path class="prefix__st0" d="M475.26 2287.33c-1.19.83-4.48 3.19-7.96 6.83-31.1 32.54-13.38 100.27-1.66 145.07 2.86 10.92 7.63 27.53 15.18 47.48M478.46 2286.48c.06.29 1.56 8.04 1.62 8.33 1.84 9.46 3.71 19.06 3.8 19.53 1.56 8.03 12.84 51.13 43.58 163.98M478.46 2286.48c4.93.55 12.66 1.9 21.13 5.82 34.16 15.82 46.55 57.88 60.33 107.07 4.04 14.42 9.08 34.99 12.83 60.34"/><path class="prefix__st1" d="M496.9 2462.96c-6.43-20.48-11.42-37.75-14.96-50.42-16.44-58.85-18.32-78.22-15.15-98.42a131.37 131.37 0 016.94-26.19M546.93 2449.25c-4.52-26.58-9.83-48.68-14.3-65.19-13.98-51.66-25.42-70.02-34.98-82.17a153.295 153.295 0 00-14.84-16.29"/><ellipse transform="rotate(-14.193 503.76 2395.43)" class="prefix__st0" cx="503.85" cy="2395.71" rx="69.31" ry="8.82"/><ellipse transform="rotate(-14.193 483.637 2311.489)" class="prefix__st1" cx="483.72" cy="2311.76" rx="48.86" ry="4.27"/><path class="prefix__st0" d="M465.2 61.43c-31.67-74.63-42.28-136.55-33.83-163.52 6.19-19.75 18.29-31.32 18.29-31.32 12.14-11.61 25.53-15.01 28.78-15.77 5.22-1.22 15.99-3 28.54.2 0 0 16.61 4.24 31.92 20.06 19.19 19.84 39.21 79.33 47.89 160.57-5.25 3.28-13.01 7.78-22.82 12.28-31.6 14.5-58.79 17.14-68.35 17.81-7.49.53-17.92.81-30.42-.31z"/><path class="prefix__st0" d="M583.47 16.53c1.57 6.2-24.75 18.21-58.78 26.82s-62.9 10.55-64.46 4.35c-1.57-6.2 24.75-18.21 58.78-26.82 34.03-8.6 62.89-10.55 64.46-4.35zM468.51-156.13c-9.69-.4-18.37-7.09-20.87-16.97-3.05-12.05 4.25-24.28 16.3-27.33s24.28 4.25 27.33 16.3c2.48 9.79-1.88 19.7-10.06 24.71"/><path class="prefix__st0" d="M472.03-147.31a275.42 275.42 0 01-2.59-9.37c-.65-2.51-.84-3.42-.4-4.45 1.27-2.97 6.66-4.42 9.2-2.51.93.7 1.24 1.67 1.64 3.04.83 2.76 1.84 6.31 2.9 10.54"/><path class="prefix__st0" d="M475.24-148.34c-1.19.83-4.48 3.19-7.96 6.83-31.1 32.54-13.38 100.27-1.66 145.07 2.86 10.92 7.63 27.53 15.18 47.48M478.44-149.19c.06.29 1.56 8.04 1.62 8.33 1.84 9.46 3.71 19.06 3.8 19.53 1.56 8.03 12.84 51.13 43.58 163.98M478.44-149.19c4.93.55 12.66 1.9 21.13 5.82 34.16 15.82 46.55 57.88 60.33 107.07 4.04 14.42 9.08 34.99 12.83 60.34"/><path class="prefix__st1" d="M496.88 27.29c-6.43-20.48-11.42-37.75-14.96-50.42-16.44-58.85-18.32-78.22-15.15-98.42a131.37 131.37 0 016.94-26.19M546.91 13.58c-4.52-26.58-9.83-48.68-14.3-65.19-13.98-51.66-25.42-70.02-34.98-82.17a153.295 153.295 0 00-14.84-16.29"/><ellipse transform="rotate(-14.193 503.763 -39.947)" class="prefix__st0" cx="503.82" cy="-39.96" rx="69.31" ry="8.82"/><ellipse transform="rotate(-14.193 483.64 -123.89)" class="prefix__st1" cx="483.7" cy="-123.91" rx="48.86" ry="4.27"/><path class="prefix__st0" d="M166.71 219.07c3.82-2.84 8.32-5.84 13.54-8.73a121.78 121.78 0 0115.64-7.28M325.2 298.02c-.73 4.13-2.22 10.15-5.55 16.71-12.47 24.6-38.56 32.66-45.29 34.75-30.49 9.43-56.86-1.77-66.34-5.79-9.52-4.05-36.84-16.13-51.54-45.78-3.66-7.38-16.11-32.5-6.02-57.19 2.31-5.65 5.25-9.93 7.55-12.83M317.29 255.22c1.8 4.33 3.6 9.29 5.17 14.84 1.64 5.8 2.72 11.18 3.45 15.99M301.36 199.01c22.33 14.43 35.03 31.5 30.18 43.24-3.9 9.43-18.25 13.3-37.23 11.58M206.52 214.74c-10.76-10.56-15.77-21.19-12.42-29.29 6.55-15.85 42.63-15.99 80.58-.31 1.24.51 2.47 1.04 3.68 1.57M239.98 237.58c-5.37-2.66-10.4-5.5-15.03-8.46"/><path class="prefix__st0" d="M298.53 212.38c12.53 7.84 19.78 15.19 18.04 19.4-2.86 6.91-28.88 2.72-58.12-9.36s-50.63-27.49-47.78-34.4c1.07-2.58 5.36-3.61 11.85-3.27M163.25 310.63l-15.92 16.34c.33.55.92 1.32 1.88 1.92 1.73 1.09 3.76.87 5.61.47 6.32-1.35 17.66-6.5 18.49-6.88M139.03 203.75c5.86-2.29 21.6 7.2 31.66 23.26 3.28 5.24 11.46 18.29 6.54 27.14-2.6 4.69-7.31 6.14-7.31 6.14-.63.19-5.92 1.74-10.24-1.56-3.39-2.58-4.03-6.5-4.18-7.45-.89-5.97 3.42-7.68 4.15-13.75 1.06-8.81-6.27-19.86-13.2-20.73-2.17-.27-4.76.39-8.02-1.32-1.04-.54-2.73-1.46-3.56-3.47-.08-.2-1.01-2.56.12-4.91 0 .01 1.06-2.19 4.04-3.35z"/><path class="prefix__st0" d="M145.99 217.3c-.76.8-2.21 2.09-4.4 2.74-3.76 1.12-8.48-.01-11.4-3.51-2.75-3.3-3.25-7.92-1.25-11.68 1.61-3.85 3.23-7.7 4.84-11.55.26-.65 1.8-4.34 5.96-5.88.29-.11 5.77-2.03 10.28 1.67 2.94 2.42 4.29 6.27 3.5 9.96-.9 2.42-1.79 4.84-2.69 7.26M152.5 190.92c3.23 1.04 7.45 2.8 11.85 5.84 7.1 4.92 11.21 10.81 13.36 14.48M153.01 202.01c1.86.24 5.55.97 9.18 3.67 5.28 3.92 6.88 9.34 7.31 11.04M263.25 351.95c-.09 7.6-.17 15.2-.26 22.81-.62.15-1.58.28-2.69.04-2.05-.46-3.33-2.11-4.31-3.62-3.49-5.38-7.49-16.1-7.87-17.13M355.85 293.35c-2.54-5.76-20.38-10.15-38.85-5.87-6.02 1.39-21.03 4.87-23.79 14.61-1.46 5.16.84 9.51.84 9.51.31.58 2.96 5.41 8.35 6.12 4.22.56 7.44-1.75 8.22-2.33 4.85-3.6 3-7.86 6.76-12.67 5.47-6.99 18.46-9.64 23.98-5.36 1.73 1.34 3.09 3.63 6.61 4.73 1.12.35 2.97.89 4.97.06.2-.08 2.52-1.1 3.38-3.57.01-.01.82-2.31-.47-5.23z"/><path class="prefix__st0" d="M341.36 298.03c-.03 1.1.09 3.04 1.18 5.05 1.87 3.44 6.01 5.98 10.55 5.56 4.28-.4 7.89-3.32 9.13-7.39 1.58-3.87 3.15-7.73 4.73-11.6.27-.64 1.78-4.34-.07-8.37-.13-.28-2.65-5.52-8.46-6.07-3.79-.36-7.47 1.41-9.52 4.58-1.07 2.35-2.15 4.69-3.22 7.04M355.36 274.76c-3-1.53-7.23-3.27-12.52-4.22-7.86-1.41-14.43-.42-18.39.51M347.17 282.25c-1.42-1.1-4.55-3.22-9.09-3.88-5.46-.8-9.69.99-11.29 1.76"/><circle class="prefix__st0" cx="300.5" cy="133.12" r="9.82"/><circle transform="rotate(-9.25 295.788 182.497)" class="prefix__st0" cx="295.72" cy="182.57" r="17.06"/><path class="prefix__st0" d="M238.55 201.72c.14-.8.84-4.18 3.96-6.51 4.38-3.26 9.47-1.43 9.72-1.33 3.61 1.38 6.04 4.67 6.5 8.29.53 4.13-1.71 7.14-2.19 7.75M244.61 147.85l-5.2 4.93M266 127.58c-1.78 1.68-3.56 3.37-5.33 5.05M255.05 150.25c.76 2.52 1.52 5.03 2.29 7.55M246.75 122.87c.74 2.43 1.47 4.86 2.21 7.28M262.21 142.02l7.71 1.5M234.93 136.7c2.55.5 5.1.99 7.64 1.49"/><path class="prefix__st0" d="M213.3 195.2c.79-.14 1.59-.27 2.41-.37 9.16-1.14 17.44.73 24.14 3.36M259.48 205.28c8.12 2.74 14.72 5.67 19.58 8.05 16.38 8.04 26.54 16.51 29.08 18.67 1.37 1.17 2.47 2.15 3.18 2.8M902.01 2292.46a443.701 443.701 0 00-39.85-75.7c-4.09-.39-15.57-.95-27.61 5.88-11.62 6.58-17.03 16.22-18.88 19.93 17.74 30.99 30.5 56.12 38.85 73.25 12.15 24.94 21.97 46.39 37.62 47.36 7.04.43 13.87-4.35 13.87-4.35 2.99-1.6 5.28-3.34 6.88-4.72"/><path class="prefix__st0" d="M888.19 2350.25c-2.24-4.71-16.49-35.27-7.86-45.54.3-.36 1.01-1.15 1.9-2.01 6.57-6.4 11.33-5.4 19.78-10.24 7.9-4.52 9.7-8.11 16.56-9 2.67-.34 4.98-.13 6.07.06 17.94 3.21 31.14 58.87 42.7 81.11.48.92.82 1.53 1.54 2.05 7.16 5.23 23.92-18.07 48.31-18.33 3.61-.04 8.47-.03 13.12 2.98 8.3 5.36 12.41 17.99 9.9 27.48-3.45 13.04-16.95 10.7-49.32 31.16-18.23 11.51-28.62 21.53-37.89 17.39-4.7-2.1-8.17-7.42-9.63-9.65-2.32-3.55-2.93-6.02-7.23-18.31-1.13-3.22-2.33-6.42-3.44-9.65-2.68-7.8-13.14-28.31-41.74-77.09M835.85 2279.18a77.097 77.097 0 0118.31-16.71c11.15-7.27 21.81-10.09 28.43-11.3"/><path class="prefix__st1" d="M847.49 2301.66c6.02-5.65 14.45-12.41 25.52-18.35 7.73-4.14 14.99-6.94 21.17-8.86M829.2 2244.16c2.82 5.51 5.65 11.01 8.47 16.52M856.47 2228.24c2.69 5.16 5.39 10.32 8.08 15.48M841.78 2234.29l8.73 16.11M877.63 2315.92c-5.29 3.59-10.58 7.18-15.86 10.76M884.58 2346.08c-2.23 3.23-4.46 6.46-6.7 9.7M883.63 2339.65c6.24-3.16 12.49-6.32 18.73-9.49M893.4 2316.79c4.16-4.4 10.05-9.77 17.91-14.73 9.03-5.69 17.5-8.85 23.82-10.67M906.18 2338.72c5.86-4.09 12.4-8.29 19.62-12.42 7.58-4.34 14.85-7.99 21.63-11.08M921.13 2362.01c11.83-6.62 23.67-13.24 35.5-19.86M935.19 2392.29c3.5-2.08 11.35-6.19 20.27-6.16 2.63.01 9.31.57 15.35 5.16 11.16 8.49 10.31 23.7 10.2 25.19M1004.36 2350.67c.97 5.21 2.41 11.06 4.59 17.33 3.75 10.78 8.53 19.49 12.85 26.1M967.34 2364.63c-11.38 6.98-22.76 13.97-34.14 20.95"/><path class="prefix__st1" d="M972.36 2368.81c-.78 5.7-1.89 11.63-3.4 17.76-.24.99-.5 1.97-.76 2.93M986.3 2361.31c.63 6.06 1.79 13.15 3.88 20.91 2.18 8.07 4.87 15.01 7.49 20.72"/><circle class="prefix__st0" cx="640.16" cy="2401.8" r="8.96"/><circle class="prefix__st0" cx="886.14" cy="1671.99" r="8.96"/><circle class="prefix__st0" cx="1021.4" cy="2096.19" r="8.96"/><circle class="prefix__st0" cx="17.57" cy="659.49" r="8.96"/><circle class="prefix__st0" cx="502.28" cy="700.98" r="8.96"/><circle class="prefix__st0" cx="989.57" cy="1111.15" r="8.96"/><circle class="prefix__st0" cx="943.55" cy="1153.49" r="15.26"/><circle class="prefix__st0" cx="851.23" cy="238.88" r="15.26"/><circle class="prefix__st0" cx="974.67" cy="2062.66" r="15.26"/><circle class="prefix__st0" cx="947.53" cy="363.85" r="8.93"/><circle class="prefix__st0" cx="478.17" cy="1092.57" r="8.96"/><circle class="prefix__st0" cx="497.66" cy="1051.24" r="14.44"/><circle class="prefix__st0" cx="597.39" cy="951.19" r="72.97"/><path class="prefix__st0" d="M552.54 917.05c-8.87 12.48-10.92 25.05-11.49 29.73-.78 6.48-.42 11.95.07 15.74M576.94 897.99c-1.88.6-4.05 1.44-6.37 2.63a43.325 43.325 0 00-5.75 3.53M567.69 1017.86l2.31 14.95c6.74 2.58 21.74 7.28 40.69 4.34 17.58-2.73 29.8-10.68 35.54-14.98l-1.74-15.22M578.86 1013.11c7.59-2.63 17.2-5.2 28.5-6.46 7.37-.82 14.08-.94 19.93-.7"/><path class="prefix__st0" d="M636.83 1028.01c1.61 16.71 9.69 28.94 18.79 30.34 7.49 1.15 12.91-3.14 12.91-3.14 1.07-.85 4.25-3.45 5.03-7.91.78-4.47-.92-10.36-5.79-12.8-4.09-2.05-10.34-1.64-12.76 2.32-1.81 2.97-1.61 8.15 1.53 9.86 2.6 1.42 5.8-.32 6.18-.53M580.94 1036.94c3.03 16.51-1.38 30.48-9.75 34.33-6.89 3.16-13.27.52-13.27.52-1.26-.52-5.04-2.15-7.01-6.23-1.98-4.08-1.96-10.21 2.06-13.9 3.37-3.09 9.49-4.41 12.9-1.27 2.56 2.36 3.78 7.4 1.24 9.9-2.11 2.08-5.67 1.29-6.09 1.19M616.03 960.85c1.28 8.7 2.57 17.39 3.85 26.09M607.85 974.86l18.62-2.79M622.96 904.5c1.34 10.02 2.67 20.05 4.01 30.07M614.92 920.97c6.68-.93 13.35-1.87 20.03-2.8M569.35 949.16l3.9 27.88M561.42 963.09c6.81-.95 13.61-1.9 20.42-2.86"/><circle class="prefix__st0" cx="600.75" cy="942.18" r="1.07"/><circle class="prefix__st0" cx="638.95" cy="946.78" r="1.07"/><circle class="prefix__st0" cx="592.93" cy="986.91" r="1.07"/><path class="prefix__st0" d="M518.15 1182.06c-12.49 8.86-24.99 17.72-37.48 26.58l107.51-30.6a59.03 59.03 0 00-28.02-8.07"/><path class="prefix__st0" d="M480.66 1208.63c2.78 13.7 5.57 27.41 8.35 41.11 13.75-3.52 27.81-6.95 42.17-10.26 19.75-4.56 39.1-8.68 57.99-12.4 1.26 0 3.56-.18 5.67-1.64 0 0 1.98-1.37 3.22-4.03 1.93-4.1 2.09-22.97.22-48.43 5.89-1.94 8.97-6.26 8.21-9.24-.61-2.39-3.59-3.57-4.13-3.77-4.32-1.6-8.23 1.39-8.52 1.61-.51-.79-2.8-4.11-7.24-5.18-5.72-1.38-10.12 2.17-10.61 2.58-.49-.58-3.56-4.1-8.79-4.31-5.08-.21-8.38 2.86-8.94 3.4-.43-.47-3.65-3.9-8.45-3.52-2.63.21-4.49 1.47-5.31 2.11"/><path class="prefix__st0" d="M487.29 1241.26c31.6-7.69 63.2-15.39 94.79-23.08 1.61-.56 4.19-1.73 6.02-4.27 2.15-2.98 2.15-6.32 2.12-8.37-.17-11.13-1.71-24.62-2.05-27.5"/><path class="prefix__st1" d="M505.46 1216.84c.33-.08 1.5-.42 2.36-1.58.88-1.21.82-2.48.8-2.81M521.87 1209.94c.11-.78.21-1.56.32-2.34M519.07 1219.58c-.09.35-.17.7-.26 1.05M569.94 1193.83c-.14.11-1.23.99-1.21 2.4.01.73.31 1.27.48 1.52M573.54 1204.54c-.53.54-1.07 1.08-1.6 1.62"/><path class="prefix__st0" d="M529.27 1183.25a9.277 9.277 0 01-7.92 1.54c-1.48-1.15-5.29-4.44-6.06-9.68-.33-2.27.02-4.15.27-5.15 2.21-8.66 12-9.48 14.95-18.25.44-1.3.95-3.43.69-6.39 1.59 5.58 4.18 8.25 6.19 9.64 5.08 3.52 11.12 2.19 17.32 7.53 1.28 1.1 1.76 1.79 1.96 2.1 3.16 4.85.3 11.64-.72 13.81-.79.59-2.38 1.61-4.64 2-2.72.47-4.88-.24-5.81-.61"/><path class="prefix__st0" d="M528.42 1170.75c-.42.9-1.48 3.52-.8 6.79.18.86.75 3.62 2.96 5.4 4.28 3.47 12.63 1.58 14.93-3.14.7-1.44.73-2.92.61-4M200.53 1312.95c1.45 5.4 3.18 13.74 3.06 23.92-.33 26.58-13 34.4-10.3 52.62 2.14 14.46 13.1 30.84 29.11 34.84 14.75 3.68 29.92-4.11 38.35-12.86 12.24-12.7 7.72-24.72 21.19-45.96 6.15-9.69 13.01-16.53 18-20.88"/><ellipse transform="rotate(-71.958 250.3 1328.243)" class="prefix__st0" cx="250.31" cy="1328.21" rx="10.08" ry="52.28"/><path class="prefix__st0" d="M235.71 1277.14c-.02.58-.16 3.35-2.39 5.44-2.48 2.32-5.63 2.04-6.53 1.91-4.64-.65-6.79-5.02-6.96-5.38-2.55-5.44 1.47-11.11 2-11.86 2.99-4.23 8.3-6.67 13.49-6.1 5.18.57 8.88 4.02 10.6 6.46 5.43 7.68 2.15 22.04-9.11 34.76M269.06 1254.96c.08.15 1.7 3.58-.24 6.45-1.76 2.61-5.17 2.84-7.28 2.29-4.23-1.1-5.58-5.94-5.84-6.88-1.19-4.25.26-8.98 3.28-11.99 5.36-5.35 13.43-3.06 14.57-2.72 7.29 2.2 10.34 8.87 11.11 10.77 3.99 9.92-2.11 19.59-2.57 20.31-5.82 8.92-13.83 7.25-20.93 15.57-5.37 6.29-6.68 14.14-6.87 20.15M274.61 1314.29c-.07-3 .1-12.31 6.78-19.87 1.75-1.98 5.3-6 11.36-7.18 1.29-.25 8.06-1.58 13.67 2.9.95.76 5.25 4.19 5.49 9.87.21 5.1-2.89 10.82-8.05 12.3-.27.08-5.82 1.58-9.27-2.09-1.61-1.71-3.21-5.03-1.74-8.03 1.27-2.6 4.06-3.36 4.56-3.49M213.23 1421.74c-4.08 12.42-8.17 24.84-12.25 37.26-6.99.38-16.68 1.72-27.58 5.98-4.81 1.88-5.2 2.51-5.3 3.03-1.64 8.39 63.02 30.57 66.46 23.6.36-.73-.05-1.6-1.2-3.57-3.58-6.14-9.81-15.22-20.37-24.91 4.13-12.4 8.25-24.8 12.38-37.2M271.63 1388.89c2.07-2.97 8.07-10.62 18.97-12.79 3.57-.71 9.5-1.9 15.01 1.31 6.31 3.68 7.58 10.49 7.87 12.05 2.14 11.52-8.59 19.24-9.4 19.79-1.42.98-7.35 5.11-15.04 4.12-1.14-.15-5.51-.82-8.98-3.86-2.15-1.89-2.29-3.23-2.31-3.55-.1-1.55.92-3.26 2.47-3.86 3.21-1.24 6.35 3.15 9.37 2.12 2.47-.85 3.76-4.95 2.25-7.97-1.05-2.1-3.17-3.11-3.91-3.45-5.05-2.32-12.4-.75-16.52 3.33-5.28 5.22-4.75 14.02-.37 19.78 4.69 6.16 12.58 7.26 16.2 7.77 12.91 1.8 22.3-5.14 24.38-6.67 1.73-1.28 10.72-8.19 12.25-20.57.48-3.91 1.61-13.01-5.3-21-6.1-7.07-14.57-8.76-16.46-9.09-13.65-2.41-23.06 6.19-24 7.08M197.34 1364.3c.08-3.62-.27-13.33-7.8-21.51-2.47-2.68-6.56-7.13-12.9-7.78-7.27-.75-12.3 4.01-13.46 5.1-8.51 8.04-4.38 20.61-4.06 21.53.57 1.63 2.93 8.46 9.73 12.19 1.01.55 4.93 2.59 9.53 2.17 2.85-.26 3.75-1.26 3.96-1.51.99-1.19 1.18-3.17.28-4.57-1.86-2.89-6.99-1.19-8.82-3.81-1.5-2.14-.12-6.21 2.88-7.77 2.09-1.08 4.39-.65 5.19-.49 5.45 1.1 10.46 6.7 11.39 12.42 1.19 7.33-4.42 14.13-11.35 16.2-7.42 2.22-14.44-1.54-17.67-3.27-11.49-6.15-14.99-17.29-15.77-19.75-.64-2.05-3.84-12.93 2.22-23.84 1.91-3.45 6.36-11.46 16.65-13.85 9.01-2.1 16.32 1.19 18.66 2.35 12.61 6.26 15.85 19.64 16.32 21.7M245.36 1362.06c-1.78 5.47-5.75 9.09-8.85 8.08-3.11-1.01-4.18-6.27-2.39-11.74 1.78-5.47 5.75-9.09 8.85-8.08s4.18 6.27 2.39 11.74z"/><ellipse transform="rotate(-79.601 217.093 1349.145)" class="prefix__st0" cx="217.07" cy="1349.16" rx="9.04" ry="4.21"/><path class="prefix__st0" d="M262.02 1362.9c-2.16 4.5-2.22 8.97-.12 9.98 2.1 1.01 5.55-1.82 7.72-6.32 2.16-4.5 2.22-8.97.12-9.98s-5.56 1.82-7.72 6.32zM543.11 588.28c2.54-14.81 5.08-29.63 7.61-44.44 6.27-4.8 12.53-9.61 18.8-14.41 2.17 4.66 4.33 9.32 6.5 13.98-1.98 22.38-3.95 44.76-5.93 67.13M505.76 607.42l-14.34-63.48c4.8-21.6 9.6-43.21 14.39-64.81 9.81 8.57 19.63 17.14 29.44 25.71l11.64 61.33"/><path class="prefix__st1" d="M505.41 480.92l17.91 50.1 13.05 55.38"/><path class="prefix__st1" d="M491.42 543.94l33.04-10.23c3.6-9.62 7.2-19.24 10.79-28.87"/><path class="prefix__st0" d="M499.71 623.38l20.97-45.84c13.34 7.54 26.69 15.07 40.03 22.61"/><path class="prefix__st1" d="M560.71 600.15l-20.19 21.42c-13.6.61-27.2 1.21-40.81 1.82"/><path class="prefix__st1" d="M520.68 577.54c6.41 14.17 12.82 28.35 19.23 42.52l.06 25.17"/><path class="prefix__st0" d="M499.8 619.44c-4.57-1.78-9.14-3.56-13.71-5.33-2.64 3.63-5.28 7.27-7.92 10.9l21.15 18.45c1.85-1.13 3.69-2.25 5.54-3.38l36.15 7.14c7.86-5.29 15.71-10.59 23.57-15.88 5.66-4.11 11.32-8.23 16.99-12.34 1.19-3.76 2.38-7.52 3.57-11.29l-23.29 4.38M560.71 600.15c.89 10.66 1.79 21.33 2.68 31.99M499.71 623.38c1.71 5.56 3.43 11.13 5.14 16.69"/><path class="prefix__st0" d="M483.3 617.94c-3.86-8.98-7.73-17.95-11.59-26.93.73-5.95 1.45-11.9 2.18-17.85 4.07.9 8.15 1.81 12.22 2.71 5.97 7.98 11.95 15.95 17.92 23.93M996.43 1641.34a186.912 186.912 0 0047.04-5.36c.59-1.46 1.65-4.63 1.1-8.63-.43-3.14-1.66-5.44-2.47-6.72-7.09.25-14.68.76-22.69 1.64-8.86.98-17.12 2.28-24.72 3.76-.63.93-2.12 3.41-2.06 6.85.09 4.82 3.17 7.87 3.8 8.46zM1018.27 1668.57c-10.16-12.68-26.36-18.31-41.23-14.46-14.08 3.64-23.8 15.19-27.4 26.95-5.45 17.8 2.48 38.4 20.03 50.03 22.46 12.74 44.92 25.47 67.38 38.21 17.72-16.82 35.44-33.64 53.15-50.47 16.48-15.38 20.2-38.68 10.3-55.02-6.89-11.38-20.34-18.86-34.26-18.86-14.98 0-28.87 8.37-36.09 21.76M1004.24 1641.29c.65 5.65 1.31 11.31 1.96 16.96M1036.35 1639.26c.65 5.65 1.31 11.31 1.96 16.96"/><path class="prefix__st0" d="M1011.83 1623.19c-2.66-.82-7.03-2.54-11.29-6.23-3.65-3.16-7.91-6.84-8.04-12.51-.11-4.72 2.64-10.51 7.68-12.22 5.9-2.01 13.8 1.94 16.46 10.04.15-7.47 6.02-13.04 12.14-12.92 6.11.12 10.48 5.88 11.25 10.82.83 5.3-2.5 9.51-5.48 13.29-3.49 4.42-7.46 6.96-10.03 8.32M966.32 1682.31a21.927 21.927 0 00-2.87 6.38c-2.8 10.5 3.32 19.72 4.75 21.77M983.48 1667.18c-1.14.23-2.43.59-3.82 1.13a23.476 23.476 0 00-6.29 3.68M631.08 1610.07c3.27 2.32 10.03 7.77 14.54 17.24a43.527 43.527 0 014.1 22.07s-.23 3.84-.99 7.36c-6.13 28.33-37.31 45.62-69.64 38.62s-53.57-35.63-47.44-63.96c.71-3.3 1.94-6.61 2.14-7.1 6.78-16.92 22.54-25.02 29.73-28.13M580.45 1591.16c4.89-.5 12.28-.68 20.9 1.36 7.91 1.87 14 4.94 18.03 7.38"/><path class="prefix__st0" d="M619.37 1599.9c3.77-4.96 10.12-11.99 19.81-17.81a70.454 70.454 0 0115.69-6.97c2.44 5.96 6.28 17.59 5.24 32.5-1.11 15.95-7.22 27.52-10.64 33.07M580.45 1591.16c-1.94-6.9-5.5-16.38-12.36-26.15-3.8-5.41-7.78-9.73-11.35-13.09-4.45 4.51-12.6 13.96-17.2 28.5-4.81 15.18-3.29 28.12-2.13 34.39"/><path class="prefix__st0" d="M655.64 1581.02c-4.41 2.69-10.84 7.38-16.6 14.95a59.723 59.723 0 00-7.96 14.1M552.67 1556.4c2.77 3.17 7.69 9.65 10.17 19.27 2.3 8.93 1.44 16.45.67 20.52M586.61 1660.58c-1.13-.73-2.2-1.53-2.05-1.88.27-.64 4.64.3 4.62 1 0 .41-1.42.7-2.57.88zM570.93 1667.49c.67.75 2.6 2.71 5.8 3.44 3.97.9 7.11-.73 7.89-1.16.48.7 2.63 3.64 6.69 4.52 3.18.69 5.74-.28 6.66-.67M586.37 1661.69c-.58 2.69-1.16 5.38-1.75 8.08M598.91 1646.26c-.95-13.16 10.01-23.38 21.49-22.77 9.57.52 18.42 8.5 19.79 19.16-.79 9.36-7.83 16.92-16.88 18.48-10.27 1.78-21.03-4.52-24.4-14.87zM620.39 1635.83l-2.91 13.47M582.84 1643.02c6.31-11.59.55-25.43-10.16-29.61-8.92-3.48-20.29.13-25.94 9.27-3.15 8.85.14 18.64 7.74 23.8 8.62 5.85 21.01 4.56 28.36-3.46zM567.59 1624.64l-2.91 13.47"/><path class="prefix__st1" d="M614.4 1671.44c9.52-1.89 23.17-3.48 39.34-1.58a126.29 126.29 0 0129.79 7.26M613.36 1677.49c7.75-.01 19.41.91 32.59 5.69A95.18 95.18 0 01669.9 1696M556.39 1659.11a125.98 125.98 0 00-35.17-17.7c-11.58-3.7-21.98-5.17-30.13-5.7M554.83 1665.05c-7.05-3.21-18.05-7.2-32.02-8.29-11.05-.87-20.39.35-27.11 1.77"/><path class="prefix__st0" d="M988.49 688.58c-20.52-35.18-41.04-70.36-61.57-105.54 27.59-1.51 55.18-3.01 82.76-4.52 23.17 34.17 46.35 68.34 69.52 102.51-30.23 2.52-60.47 5.03-90.71 7.55-4.59-1.14-9.29.22-12.17 3.53-2.15 2.46-4.01 6.81-2.25 10.69 1.94 4.29 7.74 6.72 13.55 4.84 29.52-2.93 59.05-5.85 88.57-8.78"/><path class="prefix__st0" d="M926.92 583.04c-1-.44-3.59-1.42-6.58-.57-4.95 1.4-6.59 6.55-6.85 7.43-.88 2.99-.29 5.57.06 6.74 20.17 35.39 40.34 70.77 60.51 106.16M1079.21 681.03a16.57 16.57 0 00-4.11 8.13c-.89 4.66.5 8.34 1.09 9.7M988.49 688.58c-.96 2.65-1.92 6.03-2.47 10.03-.5 3.63-.53 6.86-.38 9.49M1067.16 699.75c6.87 12.28 13.73 24.56 20.6 36.83l-128.11-5.67a32.233 32.233 0 00-5.64 12.59 32.083 32.083 0 00-.02 12.85l128.43 4.41c-.89-1.47-3.07-5.56-2.55-10.97.77-8.08 6.93-12.54 7.89-13.21M959.64 730.91c-16.79-36.91-33.58-73.81-50.37-110.72-1.15-.22-4.11-.62-7.38.79-1.09.47-4.13 1.84-5.83 5.22-2.2 4.38-.46 8.69-.17 9.37l47.19 112.59"/><path class="prefix__st0" d="M959.64 730.91c-1.11-.39-5.83-1.9-10.43.45-5.75 2.94-8.66 10.57-6.12 16.8 2.76 6.8 10.46 8.12 10.89 8.19M909.28 620.19c6.31.71 12.62 1.43 18.92 2.14"/><path class="prefix__st1" d="M955.86 598.41c6.35 10.51 12.7 21.02 19.06 31.53 16.12-1.67 32.25-3.34 48.37-5.02-6.3-9.83-12.6-19.65-18.9-29.48l-48.53 2.97zM988.47 638.81c11.04-1.29 22.08-2.58 33.13-3.86M985.48 648.65c16.49-2.13 32.98-4.25 49.47-6.38"/><path class="prefix__st0" d="M1056.61 1275.32c-.52 4.56-.62 10.31.67 16.74.38 1.91.85 3.69 1.36 5.34 2.16.71 5.32 1.47 9.16 1.41 2.36-.04 4.4-.37 6.04-.77-.16 2.95-.88 7.42-3.64 11.91-4.67 7.59-13.08 11.77-20.58 12.07-2.86.11-3.43-.43-11.58-1.96a236.3 236.3 0 00-16.64-2.53c4.74-2.4 7.68-5.27 9.35-7.19 1.5-1.73 2.7-3.14 3.21-5.33.97-4.13-1.24-7.74-2.01-8.89"/><path class="prefix__st0" d="M1035.91 1320.68c-5.95 15.48-2.57 30.61 6.46 36.48 6.32 4.11 14.28 2.94 16.27 2.64 1.7-.25 13.59-2.17 18.7-11.52 5.15-9.43 1.79-23.46-9.36-32.65M1096.05 1240.5c-2.38-.61-5.92-1.14-9.77-.07-8.14 2.28-11.99 10.18-15.67 16.36 0 0-11.27 18.94-28.33 31.85-6.75 5.11-17.11 12-31.67 13.23-5.34.45-18.99 1.61-25.43-6.72-.53-.68-4.04-5.36-3.48-11.44.13-1.38.68-4.06 4.22-9.38 5.33-8.01 9.71-8.77 13.36-14.47 1.32-2.06 3.21-5.8 3.61-15.73 1.12-27.69-11.92-39.09-5.01-54.03.89-1.92 3.7-7.77 9.98-10.64 6.65-3.03 13.3-.94 14.53-.53 12.5 4.19 18.28 20.31 21.62 29.65 4.71 13.14 4.9 23.29 12.46 26.18 1.52.58 2.69.62 4.69.69 13.75.45 19.86-10.54 26.41-8.85 6.15 1.58 9.86 13.82 8.74 23.18-1.87 15.54-17.76 28.92-40.02 34.33"/><path class="prefix__st1" d="M1031.08 1184.64c-.81.08-4.71.56-7.48 4.07-.48.61-3.2 4.06-2.29 8.6 1.13 5.66 7.37 7.9 7.73 8.02 6.7 2.24 12.43-2.65 12.72-2.91a73.99 73.99 0 00-2.36-5.46c-.74-1.54-1.62-3.37-2.9-5.43a43.768 43.768 0 00-5.42-6.89zM1023.73 1220.69c-4.37-.11-8.41 2.15-10.64 5.52-3.61 5.46-1.37 12.19 1.34 15.93.49.68 4.97 6.69 10.3 6 7.56-.98 13.57-15.05 8.6-22.48-2.04-3.03-5.85-4.87-9.6-4.97zM998.17 1275.28c-.69 1.42-2.55 5.23-1.05 8.49 1.83 3.99 7.53 4.64 9.35 4.84 7.75.88 18.07-3.15 20.05-11 .3-1.2 1.03-4.95-1.05-7.95-3.99-5.76-15.57-4.74-22.13-.23-3.38 2.32-4.84 5.18-5.17 5.85zM1052.37 1251.06c-3.15-1.99-9.68 1.61-11.93 6.71-1.36 3.08-1.66 7.88.73 9.58 3 2.14 9.74-.95 12.15-5.96 1.67-3.49 1.62-8.7-.95-10.33z"/><path class="prefix__st0" d="M109.36 2138.34c-6.24-3.04-10.24-9.72-9.52-17.03.93-9.39 9.29-16.24 18.67-15.32 9.38.93 16.24 9.29 15.32 18.67-.71 7.16-5.73 12.84-12.24 14.73M58 2180.15a313.988 313.988 0 00104.74 10.36c-1.65-.69-4.39-1.98-7.4-4.11-13.75-9.73-11.78-22.01-24.35-31.64-1.84-1.41-8.17-6.14-17.32-6.93-8.9-.77-15.81 2.58-17.68 3.55-13.71 7.12-13.54 19.87-27.32 26.1-4.34 1.98-8.3 2.51-10.67 2.67z"/><path class="prefix__st0" d="M142.99 2191.85c-2.03 20.55-4.06 41.09-6.08 61.64-9.73.35-20.89.17-33.17-1.07a244.563 244.563 0 01-32.21-5.45c2-20.71 3.99-41.43 5.99-62.14"/><path class="prefix__st0" d="M70.28 2243.71c-8.07 1.23-10.06 2.69-10.17 3.89-.37 4.25 22.71 10.52 42.99 12.59 19.94 2.04 43.32.64 43.79-3.44.13-1.09-1.32-2.84-8.97-5.65"/><path class="prefix__st0" d="M70.94 2253.83c.74.87 1.85 2.18 3.15 3.78 3.66 4.51 5.48 7.18 6.33 8.26 5.83 7.38 20.63 8.88 22.01 9 1.97.18 16.26 1.49 22.82-4.61 1.29-1.2 3.49-3.82 7.97-7.24 1.56-1.2 2.92-2.12 3.82-2.71M106.5 2281.07a5.185 5.185 0 11-10.32-1.02 5.185 5.185 0 0110.32 1.02zM87.8 2174.65c1.4-2.69 2.79-5.38 4.19-8.07M132.34 2170.9l2.76 8.43M112.31 2168.2c-.36 3.23-.72 6.45-1.09 9.68M109.63 2146.43l1.14-13.5c.93-.33 2.83-.86 5.24-.57 2.03.24 3.53.96 4.36 1.43-.45 4.62-.89 9.25-1.34 13.87M94.78 2251.35l2.19-16.34c2.48-.35 5.77-.57 9.61-.17 3.3.34 6.08 1.04 8.24 1.75l-1.05 16.64M106.89 2227.76c-3-.42-5.86-2.31-7.05-4.9-1.57-3.42.25-7.01 3.56-13.28a65.32 65.32 0 016.46-9.92c1.23 2.17 3.01 5.65 4.48 10.16 2.15 6.6 3.7 11.37 1.09 14.77-1.8 2.34-5.26 3.63-8.54 3.17zM107.56 2222.97c-.32 3.95-.65 7.91-.97 11.86M48.04 2242.59c-8.08 2.35-16.16 4.69-24.23 7.04M193.97 2200.21l-30.08 8.73M162.21 2253.86c7.62 4.08 15.24 8.16 22.86 12.23M30.84 2183.56c8.02 4.29 16.04 8.58 24.06 12.88M169.19 2230.11c10.47 1.08 20.95 2.15 31.42 3.23M14.99 2214.28l29.79 3.06"/><circle transform="rotate(-78.744 684.634 167.888)" class="prefix__st0" cx="684.65" cy="167.9" r="42.88"/><path class="prefix__st0" d="M650.07 142.54c-5.31-14.51-10.63-29.03-15.94-43.54 12.84 9.24 25.69 18.48 38.53 27.72 9.91-14.57 19.81-29.14 29.72-43.71 2.92 17.05 5.83 34.1 8.75 51.15 15.11-3.66 30.21-7.32 45.32-10.97-10.11 11.25-20.22 22.51-30.33 33.76M642.99 178.08c-10.08 11.85-20.17 23.69-30.25 35.54 15.64-3.63 31.27-7.25 46.91-10.88 2.99 16.61 5.99 33.23 8.98 49.84 9.09-14.43 18.17-28.86 27.26-43.3 11.86 9.51 23.72 19.03 35.58 28.54-4.4-14.44-8.79-28.88-13.19-43.32M718.28 194.5l50.88-10.62c-14.35-8.97-28.7-17.95-43.04-26.92M642.99 178.08c-14.14-9.25-28.28-18.5-42.41-27.75 16.5-2.6 32.99-5.19 49.49-7.79"/><path class="prefix__st1" d="M676.64 125.76c9.9 4.08 15.56 14.62 13.53 24.94-1.95 9.92-10.57 17.38-20.84 17.92 4.32 1.71 8.65 3.42 12.97 5.14.14 2.31.26 9.21-4.41 14.56-6.22 7.12-18.5 8.68-29.39 2.62"/><circle class="prefix__st0" cx="703.35" cy="162.86" r="4"/><circle class="prefix__st0" cx="667.52" cy="155.73" r="4"/><path class="prefix__st0" d="M664.87 178.71c1.07 1.49 5.73 7.63 14.48 9.54 9.29 2.03 16.44-2.2 17.89-3.1M1102.61 226.38c-4.46 20.46-7.73 35.3-8.5 39.51-.14.76-.5 2.83-2.09 4.6-.31.34-1.74 1.87-4.55 2.61-3.51.93-5.56-.33-9.71-1.05-1.69-.29-8.05-1.33-13.93.91-4.11 1.57-6.6 4.21-7.92 5.61-9.77 10.36-8.88 28.9-8.77 30.84.18 3.08 2.22 29.7 25.23 43.85 3.21 1.97 14.3 8.58 29.42 7.55 25.28-1.72 38.82-23.22 41.15-26.91.93-1.47 10.28-16.71 7.73-31.93-.75-4.45-2.2-7.09-3.63-8.9-4.83-6.16-12.57-7.06-14.85-7.24-1.81-.36-5.33-1.34-8.26-4.34-.81-.83-2.22-2.31-2.96-4.63-.93-2.92-.26-5.52-.02-6.51 1.19-4.82 3.99-18.35 7.9-36.75M1115.01 227.24c-5.58-1.23-11.16-2.45-16.75-3.68a6.028 6.028 0 01-3.14-6.23c.41-2.64 2.54-4.73 5.2-5.06 11.94 2.58 23.88 5.17 35.82 7.75 3.19.77 5.17 4.04 4.43 7.22-.72 3.09-3.77 5.14-6.9 4.58-2.79-.61-5.58-1.23-8.37-1.84"/><circle transform="rotate(-32.603 1123.336 198.202)" class="prefix__st0" cx="1123.25" cy="198.2" r="18.64"/><path class="prefix__st0" d="M1088.86 359.9c4.39-20.05 8.77-40.1 13.16-60.15.58-1 3.54-5.82 9.87-7.43 5.79-1.47 11.8.4 15.58 3.91 4.26 3.95 4.77 9.33 5.09 12.77 1.77 19.14-13.39 34.8-16.85 38.37-3.52 3.63-9.5 8.98-18.51 13.53M1102.02 299.75c-.18-.93-2-9.61-10.06-13.26-.55-.25-6.43-2.8-12.89-.42-9.36 3.44-12.43 14.48-13.72 19.15-3.8 13.69.98 25.79 3.74 32.86a72.98 72.98 0 0011.07 19.15"/><path class="prefix__st0" d="M1078.5 272.19c.37 1.71.72 4.36.28 7.55a21.75 21.75 0 01-2.71 7.88M1134.48 286.87c-.81 1.26-1.68 2.9-2.34 4.91-1.46 4.42-1.14 8.32-.77 10.55M-22.45 226.31c-4.46 20.46-7.73 35.3-8.5 39.51-.14.76-.5 2.83-2.09 4.6-.31.34-1.74 1.87-4.55 2.61-3.51.93-5.56-.33-9.71-1.05-1.69-.29-8.05-1.33-13.93.91-4.11 1.57-6.6 4.21-7.92 5.61-9.77 10.36-8.88 28.9-8.77 30.84.18 3.08 2.22 29.7 25.23 43.85 3.21 1.97 14.3 8.58 29.42 7.55 25.28-1.72 38.82-23.22 41.15-26.91.93-1.47 10.28-16.71 7.73-31.93-.75-4.45-2.2-7.09-3.63-8.9-4.83-6.16-12.57-7.06-14.85-7.24-1.81-.36-5.33-1.34-8.26-4.34-.81-.83-2.22-2.31-2.96-4.63-.93-2.92-.26-5.52-.02-6.51 1.19-4.82 3.99-18.35 7.9-36.75M-10.05 227.17c-5.58-1.23-11.16-2.45-16.75-3.68a6.028 6.028 0 01-3.14-6.23c.41-2.64 2.54-4.73 5.2-5.06 11.94 2.58 23.88 5.17 35.82 7.75 3.19.77 5.17 4.04 4.43 7.22-.72 3.09-3.77 5.14-6.9 4.58-2.79-.61-5.58-1.23-8.37-1.84"/><circle transform="rotate(-32.603 -1.805 198.15)" class="prefix__st0" cx="-1.81" cy="198.14" r="18.64"/><path class="prefix__st0" d="M-36.2 359.83c4.39-20.05 8.77-40.1 13.16-60.15.58-1 3.54-5.82 9.87-7.43 5.79-1.47 11.8.4 15.58 3.91 4.26 3.95 4.77 9.33 5.09 12.77 1.77 19.14-13.39 34.8-16.85 38.37-3.52 3.63-9.5 8.98-18.51 13.53"/><path class="prefix__st0" d="M-23.04 299.69c-.18-.93-2-9.61-10.06-13.26-.55-.25-6.43-2.8-12.89-.42-9.36 3.44-12.43 14.48-13.72 19.15-3.8 13.69.98 25.79 3.74 32.86a72.98 72.98 0 0011.07 19.15"/><path class="prefix__st0" d="M-46.56 272.12c.37 1.71.72 4.36.28 7.55a21.75 21.75 0 01-2.71 7.88M9.43 286.8c-.81 1.26-1.68 2.9-2.34 4.91-1.46 4.42-1.14 8.32-.77 10.55M1080.82 1943.9c-2.5-1.4-5-2.79-7.49-4.19 4.61-3.56 10.74-8.92 16.81-16.45.64-.79 10.72-13.37 8.9-15.2-1.18-1.19-6.88 2.7-9.42 4.43-3.92 2.67-10.58 7.75-19.19 19.12-11.21 14.82-9.59 18.97-9.08 20.03.27.55.69 1.43 1.63 2.01 7.08 4.44 27.55-17.83 30.33-20.86 8.06-8.77 20.28-22.1 16.87-32.67-.32-.99-.98-2.96-2.81-4.23-4.99-3.48-13.91 1.5-22.79 6.61-5.22 3-12.58 7.74-20.66 14.86 3.67 2.5 7.33 5.01 11 7.51M1099.04 1908.06c2.23 2.71 4.47 5.42 6.71 8.13"/><path class="prefix__st0" d="M1108.53 1896.96a713.027 713.027 0 0042.42 58.55 711.425 711.425 0 0075.91 80.54c.81 1.91 1.48 4.22 1.61 6.86.81 16.03-18.67 33.28-37.07 33.86-3.11.1-5.63-.29-7.13-.59a544.217 544.217 0 00-18.26-40.6c-14-28.01-21.54-36.97-28.97-43.75-1.36-1.24-5.96-5.37-15.5-11.56-12.17-7.9-31.39-18.51-58.56-26.62"/><path class="prefix__st0" d="M1133.68 1988.97c2.85-1.1 7-3.2 10.63-7.23 9.3-10.31 7.02-24.17 6.65-26.23M1141.61 1996.36c2.93-.63 9.47-2.46 15.55-8.06 5.87-5.4 8.25-11.48 9.17-14.34M1148.9 2005.53c2.59.95 10.34 3.39 19.74.73 9.58-2.72 14.93-9.07 16.6-11.24"/><path class="prefix__st0" d="M1152.01 1992.18c3.29-.39 8.47-1.44 13.93-4.62 3.17-1.84 5.59-3.91 7.34-5.67M1145.41 2000.82c.27 4.73.37 17.72-8.05 30.38-12.67 19.06-34.18 21.63-37.31 21.96 2.81 1.86 5.63 3.72 8.44 5.58-.16 3.55-.31 7.11-.47 10.66a81.716 81.716 0 0020.17-10.23c3.2-2.24 9.1-6.36 14.06-12.56 9.74-12.2 11.11-26.57 11.2-34.1"/><path class="prefix__st0" d="M1145.35 2007.46c-11.48 8.52-18.84 7.89-21.96 7.19-3.88-.86-12.79-4.41-16.12-5.73-3.5-1.39-3.21-1.37-4.01-1.6-8.04-2.29-15.79 1.65-20.16 3.87-9.28 4.72-15.01 11.61-18.12 16.14l11.03 1.68c-.71 4-1.41 7.99-2.11 11.99 5.85-7.04 11.85-11.11 15.82-13.37 3.61-2.06 7.09-4.05 12.07-4.9 7.7-1.32 11.61 1.33 18.53 1.98 5.13.48 12.82-.07 22.79-5.51M-44.25 1943.9c-2.5-1.4-5-2.79-7.49-4.19 4.61-3.56 10.74-8.92 16.81-16.45.64-.79 10.72-13.37 8.9-15.2-1.18-1.19-6.88 2.7-9.42 4.43-3.92 2.67-10.58 7.75-19.19 19.12-11.21 14.82-9.59 18.97-9.08 20.03.27.55.69 1.43 1.63 2.01 7.08 4.44 27.55-17.83 30.33-20.86 8.06-8.77 20.28-22.1 16.87-32.67-.32-.99-.98-2.96-2.81-4.23-4.99-3.48-13.91 1.5-22.79 6.61-5.22 3-12.58 7.74-20.66 14.86 3.67 2.5 7.33 5.01 11 7.51M-26.03 1908.06c2.23 2.71 4.47 5.42 6.71 8.13"/><path class="prefix__st0" d="M-16.54 1896.96a713.027 713.027 0 0042.42 58.55 711.425 711.425 0 0075.91 80.54c.81 1.91 1.48 4.22 1.61 6.86.81 16.03-18.67 33.28-37.07 33.86-3.11.1-5.63-.29-7.13-.59a544.217 544.217 0 00-18.26-40.6c-14-28.01-21.54-36.97-28.97-43.75-1.36-1.24-5.96-5.37-15.5-11.56-12.17-7.9-31.39-18.51-58.56-26.62"/><path class="prefix__st0" d="M8.61 1988.97c2.85-1.1 7-3.2 10.63-7.23 9.3-10.31 7.02-24.17 6.65-26.23M16.54 1996.36c2.93-.63 9.47-2.46 15.55-8.06 5.87-5.4 8.25-11.48 9.17-14.34M23.83 2005.53c2.59.95 10.34 3.39 19.74.73 9.58-2.72 14.93-9.07 16.6-11.24"/><path class="prefix__st0" d="M26.94 1992.18c3.29-.39 8.47-1.44 13.93-4.62 3.17-1.84 5.59-3.91 7.34-5.67M20.34 2000.82c.27 4.73.37 17.72-8.05 30.38-12.67 19.06-34.18 21.63-37.31 21.96 2.81 1.86 5.63 3.72 8.44 5.58-.16 3.55-.31 7.11-.47 10.66a81.716 81.716 0 0020.17-10.23c3.2-2.24 9.1-6.36 14.06-12.56 9.74-12.2 11.11-26.57 11.2-34.1"/><path class="prefix__st0" d="M20.29 2007.46c-11.49 8.52-18.84 7.89-21.96 7.19-3.88-.86-12.79-4.41-16.12-5.73-3.5-1.39-3.21-1.37-4.01-1.6-8.04-2.29-15.79 1.65-20.16 3.87-9.28 4.72-15.01 11.61-18.12 16.14l11.03 1.68c-.71 4-1.41 7.99-2.11 11.99 5.85-7.04 11.85-11.11 15.82-13.37 3.61-2.06 7.09-4.05 12.07-4.9 7.7-1.32 11.61 1.33 18.53 1.98 5.13.48 12.82-.07 22.79-5.51M362.75 1095.52c.25-10.99-4.01-16.23-5.78-18.08-1.32-1.38-1.91-1.25-12.55-7.3-9.17-5.21-11.74-6.61-13.14-5.55-1.31 1-.64 3.45.58 10.8 1.93 11.61 1.29 11.65 2.04 14.01 3 9.34 14.4 14.22 21.65 16.48M372.81 1098.18c.27-1.6.78-3.84 1.78-6.42 0 0 .22-.59.46-1.12 1.37-3 4.95-8.75 15.42-12.9 4.17 14.88-.14 23.24-1.5 25.57-2.76 4.72-8.25 10.07-11.41 13.14-2.53 2.46-4.75 4.38-6.29 5.66-.58-2.04-1.17-4.09-1.75-6.13M349.21 1116.81c-2.62-.53-6.35-.94-10.72-.35-7.72 1.05-13.14 4.66-15.73 6.67 3.41 1.3 8.53 3.43 14.48 6.66 5.51 2.99 6.79 4.23 9.32 5.14 4.58 1.65 11.95 1.74 23.92-6l-5.1-4.53"/><path class="prefix__st0" d="M367.77 1117.43c6.85 14 13.97 31.83 18.97 53.13 8.33 35.45 7.4 66.17 4.96 87.28"/><path class="prefix__st0" d="M350.26 1166.76c9.36 3.93 19.62 10.02 28.61 19.56 35.72 37.89 20 96.79 18.39 102.46"/><path class="prefix__st0" d="M386.09 1203.15c.52-1.33 2-4.58 5.51-6.81 1.73-1.1 3.4-1.6 4.6-1.85M388.5 1211.13c1.12-1.35 2.92-3.25 5.55-4.96 2.22-1.44 3.88-2 3.78-2.72-.14-1.01-3.6-1.36-5.54-1.37-2.62-.02-4.77.56-6.2 1.07M379.71 1143.76c-.06-2.18.03-5.31.8-8.96.34-1.61 1.54-7.38 4.31-11.22 6.21-8.63 20.38-7.65 21.93-7.53a43.576 43.576 0 01-8.73 15.39c-6.73 7.63-14.44 10.95-18.31 12.32zM350.26 1166.76c-.16-.56-4.27-13.85-17.81-17.22-12.89-3.21-22.43 5.53-23.06 6.13 2 1.38 4.96 3.47 8.47 6.13 5.17 3.93 6.69 5.43 8.17 6.42 3.79 2.53 10.67 3.93 24.23-1.46zM359.8 1171.44c-1.3.03-9.85.34-15.96 7.58-6.42 7.6-4.89 16.62-4.67 17.81 1.9-1.01 4.84-2.54 8.47-4.38 7.44-3.77 8.82-4.26 10.22-5.84 1.44-1.65 4-5.73 1.94-15.17zM372.64 1180.4c-1.13-2.2-3.03-5.72-5.74-9.85-4.21-6.4-6.31-8.11-7.59-11.97-.95-2.85-1.62-7.39.58-14.01 2.73 1.22 7.12 3.7 10.51 8.47 8.29 11.67 2.77 26.04 2.24 27.36z"/><circle class="prefix__st0" cx="366.44" cy="1104.63" r="8.02"/><path class="prefix__st0" d="M365.13 1113.03c.29.46.65 1.12.92 1.97 0 0 .38 1.22.38 2.52 0 4.68-3.8 8.48-8.48 8.48-4.68 0-8.48-3.8-8.48-8.48s3.8-8.48 8.48-8.48M388.5 1169.68c-3.13-8.3-.48-16.97 5.55-20.73 5.47-3.41 11.72-1.53 12.84-1.17-2.57 3.34-5.29 6.76-8.17 10.22-3.45 4.13-6.87 8.02-10.22 11.68zM686.35 2137.54c7.45-2.09 22.01-5.2 33.74-.25 1.56.66 2.79 1.34 3.87 2.57 7.43 8.54-5.22 29.41-6.59 31.62-.41-3.4-2.17-14.21-11.32-23.32-7.57-7.54-16.13-9.86-19.7-10.62zM690.73 2133.87c-.55-1.59-4.91-13.74-14.63-16.15-11.01-2.73-26.53 7.6-30.52 27.07 4.33-2.87 12.99-7.73 24.83-8.61 6.49-.48 11.99.38 15.95 1.35M721.39 2125.87c1.43-2.28 3.34-4.86 5.91-7.39 6.75-6.66 14.32-9.4 18.73-10.59-7.75-1.57-14.21-1.89-18.72-1.88-7.06.02-11.09.07-15.64 2.31-5.75 2.83-8.96 7.51-10.5 10.21-.26-3.34-1.31-10.31-6.69-15.4-1.31-1.24-3.41-2.87-9.65-5.23-4.78-1.81-11.78-3.96-20.76-5.06 3.96 3.53 9.83 9.78 13.74 19.17.87 2.09 1.55 4.12 2.08 6.03"/><path class="prefix__st0" d="M707.87 2134.7c1.75-1.98 5.48-5.63 11.32-7.34 6.74-1.97 12.4-.22 16.56 1.13 11.12 3.61 17.9 11.37 20.97 15.48a97.724 97.724 0 00-32.76-4.1M678.65 2136.26c.27 1.72.7 4.29 1.36 7.39 1.76 8.26 2.69 12.44 5.16 15.08.36.38 5.1 5.28 11.44 4.41 5.62-.77 10.39-5.78 11.74-12.47"/><path class="prefix__st1" d="M708.78 2070.05c-.15 8.14-.77 17.16-2.14 26.89a222.513 222.513 0 01-8.89 38.23c1.13-5.82 2.41-16.4-.66-29.01a67.713 67.713 0 00-11.62-24.62M701.5 2132.49c2.79-5.7 5.92-11.63 9.46-17.73 5.66-9.77 11.48-18.51 17.15-26.22"/><path class="prefix__st0" d="M731.78 2084.71c-1.61 1.81-3.22 3.61-4.83 5.42M709.13 2068.04c-.18 2.6-.35 5.2-.53 7.8M682.92 2078.35c1.35 1.75 2.69 3.51 4.04 5.26M693.04 2163.05a259.478 259.478 0 01-14.56 43.28c-16.59 37.89-39.24 64.89-56.79 82.24M660.79 2243.85c7.51-1.41 20.27-4.84 33.3-14.07a84.036 84.036 0 0019.93-19.92c4.38.41 9.87.45 16.03-.62 14.47-2.53 24.56-9.79 29.63-14.09-3.9-.34-9.33-.81-15.81-1.29-27.67-2.06-32.18-1.36-36.17.01-6.55 2.26-11.18 7-20.17 16.4-7.27 7.59-16.88 18.68-26.74 33.58z"/><path class="prefix__st0" d="M667.14 2229.85c3.8-10.53 9.52-31.14-.12-42.9-3.65-4.45-8.09-5.8-21.58-16.34-6.22-4.86-11.1-9.12-14.23-11.94 1.16 7.12 3.87 17.02 11 26.18 5.63 7.25 9.79 9.09 15.17 15.72 4.24 5.25 9.07 14.09 9.76 29.28zM852.64 1206.99c-17.33-41.71 26.57-73.09 13.66-117.07-1.5-5.11-6.71-22.83-22.9-32.29-8.67-5.06-22.84-9.13-37.12-5.72-1.02.24-1.76.46-2.29.61-17.01 4.81-27.35 16.94-31.15 21.35-18.56 21.48-19.38 56.11-19.44 60.44-.6 45.83 26.74 76.99 30.76 81.43 34.68 38.31 82.08 39.18 92.79 36.3 1.29-.35 4.21-1.14 5.06-3.4 1.78-4.73-9.58-10.29-18.91-22.23 0 .01-5.11-6.54-10.46-19.42z"/><path class="prefix__st0" d="M770.17 1150.29c.09 4.5.71 13.32 4.6 20.42 1.35 2.47 2.8 4.19 4.99 5.01 2.02.76 4.81.8 6.79-.67 2.34-1.73 2.63-4.89 2.8-7.06.65-8.25.86-15.99.93-21.83M821.63 1149.69c-.46 5.47-.85 13.41-.12 21.3.2 2.13.55 5.06 2.4 7.48.6.78 2.64 3.2 5.53 3.17 0 0 1.86-.02 3.8-1.48 3.51-2.65 6.12-11.51 6.77-23.13M840.87 1100.8c0 3.14-2.55 5.69-5.69 5.69-3.14 0-5.69-2.55-5.69-5.69 0-3.14 2.55-5.69 5.69-5.69 3.14-.01 5.69 2.54 5.69 5.69z"/><circle class="prefix__st0" cx="791.44" cy="1095.27" r="5.69"/><path class="prefix__st0" d="M799.46 1112.81c-1.82 7.55 2.86 14.26 7.99 15.18 5.47.98 12.66-4.39 12.78-12.78-2.58.41-6.05.69-10.12.27-4.47-.47-8.09-1.63-10.65-2.67zM66.05-76.4c-.56-2.54-1.13-5.09-1.69-7.63-11.05.58-19.5 3.2-25.06 5.43-9.35 3.75-26.89 12.99-25.48 20.4.1.53.38 1.5 1.63 2.83 9.37 9.97 36.32.9 43.26-1.43 3.73-1.26 28.09-9.45 27.08-15.02-.73-4.02-14.38-4.94-22.64-4.48-16.37.9-31.85 8.35-31.25 11.34.4 2.02 8.17 2.14 12.17 1.7 5.85-.64 9.94-3.18 11.79-4.48l2.85 10.94"/><path class="prefix__st0" d="M85.78-71.82c-.51 11.08-.57 23.08.07 35.86.38 7.49.96 14.66 1.71 21.49M14.57-56.46C25.09-43.48 36.41-26.97 46.22-6.67c3.92 8.11 7.17 15.95 9.88 23.38 3.91 21.85 6.66 46.44 7 73.36.11 8.57-.04 16.87-.38 24.88 2.5 1.58 6.39 3.71 11.48 5.21 3.47 1.03 14.05 3.99 26.21-.15 3.37-1.15 9.74-3.4 15.26-9.57 3.86-4.32 5.73-8.78 6.64-11.55-7.58-19.02-15.15-38.04-22.73-57.05M31.9-64.96c1.47 4.57 2.93 9.14 4.4 13.72"/><path class="prefix__st0" d="M77.49 12.62c-1.09-.96-2.54-2.52-3.45-4.79C71.2.75 76.36-6.37 77.03-7.26c3.79-5.07 10.97-8.79 17.21-7.62 14.37 2.69 24.04 31.38 15.38 47.98-1.02 1.95-3.55 6.65-8.54 8.35-8.12 2.77-18.92-3.68-22.96-12.6-3.17-7-1.39-13.82-.63-16.23zM51.68 5.44c7.3.34 14.61.69 21.91 1.03M60.4 38.67c6.24-2.63 12.48-5.27 18.72-7.9M56.3 17.84l20.17 5.1"/><path class="prefix__st0" d="M85.02 37.49c-2.65 5.18-5.39 11.45-7.71 18.74C75.37 62.34 74.09 68 73.24 73c3.55-2.86 7.11-5.71 10.66-8.57 2.61 4.25 5.21 8.5 7.82 12.75.56-7.59 1.27-15.37 2.16-23.34.41-3.69.86-7.34 1.33-10.93M106.52 37.71c1.7 1.62 7.09 6.74 8.79 8.35 4.09 3.89 10.58 10.06 14.66 13.95.07-3.64.14-7.27.2-10.91 2.85-.94 5.69-1.88 8.54-2.81A66.264 66.264 0 00122.1 35.2a66.05 66.05 0 00-11.56-4.12"/><path class="prefix__st1" d="M94.2-1.9c-1.05-.01-2.54.16-3.86 1.08-.69.48-3.04 2.35-2.92 10.12.06 3.89.26 17.3 7.47 19.71.32.11 3.14 1.01 5.44-.46 3.54-2.25 4.37-9.14 1.11-17.09"/><path class="prefix__st0" d="M66.16 2359.7c-.56-2.54-1.13-5.09-1.69-7.63-11.05.58-19.5 3.2-25.06 5.43-9.35 3.75-26.89 12.99-25.48 20.4.1.53.38 1.5 1.63 2.83 9.37 9.97 36.32.9 43.26-1.43 3.73-1.26 28.09-9.45 27.08-15.02-.73-4.02-14.38-4.94-22.64-4.48-16.37.91-31.84 8.35-31.25 11.35.4 2.02 8.17 2.14 12.17 1.7 5.85-.64 9.94-3.18 11.79-4.48l2.85 10.94"/><path class="prefix__st0" d="M85.89 2364.28c-.51 11.08-.57 23.08.07 35.86.38 7.49.96 14.66 1.71 21.49M14.68 2379.64c10.52 12.98 21.84 29.49 31.65 49.79 3.92 8.11 7.17 15.95 9.88 23.38 3.91 21.85 6.66 46.44 7 73.36.11 8.57-.04 16.87-.38 24.88 2.5 1.58 6.39 3.71 11.48 5.21 3.47 1.03 14.05 3.99 26.21-.15 3.37-1.15 9.74-3.4 15.26-9.57 3.86-4.32 5.73-8.78 6.64-11.55-7.58-19.02-15.15-38.04-22.73-57.05M32.01 2371.15c1.47 4.57 2.93 9.14 4.4 13.72"/><path class="prefix__st0" d="M77.6 2448.72c-1.09-.96-2.54-2.52-3.45-4.79-2.84-7.08 2.32-14.2 2.99-15.09 3.79-5.07 10.97-8.79 17.21-7.62 14.37 2.69 24.04 31.38 15.38 47.98-1.02 1.95-3.55 6.65-8.54 8.35-8.12 2.77-18.92-3.68-22.96-12.6-3.17-7-1.39-13.81-.63-16.23zM51.8 2441.55c7.3.34 14.61.69 21.91 1.03M60.51 2474.78c6.24-2.63 12.48-5.27 18.72-7.9M56.41 2453.94l20.17 5.1"/><path class="prefix__st0" d="M85.13 2473.59c-2.65 5.18-5.39 11.45-7.71 18.74a123.85 123.85 0 00-4.07 16.77c3.55-2.86 7.11-5.71 10.66-8.57 2.61 4.25 5.21 8.5 7.82 12.75.56-7.59 1.27-15.37 2.16-23.34.41-3.69.86-7.34 1.33-10.93M106.63 2473.82c1.7 1.62 7.09 6.74 8.79 8.35 4.09 3.89 10.58 10.06 14.66 13.95.07-3.64.14-7.27.2-10.91 2.85-.94 5.69-1.88 8.54-2.81a65.995 65.995 0 00-16.61-11.09 66.05 66.05 0 00-11.56-4.12"/><path class="prefix__st1" d="M94.31 2434.2c-1.05-.01-2.54.16-3.86 1.08-.69.48-3.04 2.35-2.93 10.12.06 3.89.26 17.3 7.47 19.71.32.11 3.14 1.01 5.44-.46 3.54-2.25 4.37-9.14 1.11-17.09"/><path class="prefix__st0" d="M866.94 98.94c1.33-3.64 2.65-7.28 3.98-10.92-3.25-.76-6.49-1.51-9.74-2.27-.47 3.83-.93 7.67-1.4 11.5 2.39.57 4.77 1.13 7.16 1.69z"/><path class="prefix__st0" d="M870.57 88.49a96.52 96.52 0 0141.83-3.07c.4 1.95.81 5.2 0 9.05-1.17 5.58-4.22 9.22-5.7 10.77-4.8-.29-10.78-1.08-17.42-2.98a81.211 81.211 0 01-19.86-8.72"/><path class="prefix__st0" d="M866.94 98.94c3.69 4.03 8.27 9.96 11.91 17.96 2.05 4.5 3.38 8.71 4.25 12.34l9.12-8.82c-1-3.14-2.61-7.03-5.27-11.09-5.33-8.14-12.1-12.7-16.16-14.97M860.71 86.25c-4.05-3.68-9.4-7.91-16.13-11.86a96.834 96.834 0 00-20.29-8.94 22.141 22.141 0 00-3.9 8.16c-1.35 5.54-.16 10.14.5 12.18a81.172 81.172 0 0017 4.82 81.031 81.031 0 0021.68.69"/><path class="prefix__st0" d="M859.48 97.25c-5.07 2.05-11.76 5.43-18.49 11.07-3.79 3.18-6.8 6.4-9.15 9.3-1.48-3.96-2.95-7.93-4.43-11.89 2.26-2.4 5.39-5.22 9.53-7.73 8.32-5.05 16.39-6.24 21.03-6.55M860.75 97.48c-6.2 27.02-12.41 54.05-18.61 81.07 2.07.47 4.13.94 6.2 1.4 6.15-27.25 12.31-54.51 18.46-81.76M842.16 72.48c-6.06-9.1-8.12-20.3-5.7-30.95 4.84-21.37 26.41-34.97 47.78-30.13s34.97 26.41 30.13 47.78a39.974 39.974 0 01-17.6 24.93"/><path class="prefix__st0" d="M878.01 86.14c1.78-.65 15.26-5.8 19.89-20.06.29-.9 5.8-18.82-5.9-29.32-9.63-8.65-27.29-9.01-35.3 1.41-5.96 7.76-6.38 21.25 1.59 28.11 5.49 4.71 15.14 6.45 21.54 1.49 4.01-3.11 6.74-8.86 5.52-14.42-.21-.95-1.46-6.63-6.52-8.47-3.84-1.4-8.91-.25-11.12 3.27-1.12 1.78-2.19 5.27-.23 7.43 1.77 1.95 5.48 2.21 8.45-.02M839.23 1568.96c5.18-3.07 10.36-6.13 15.54-9.2 9.73-24.43 19.46-48.85 29.18-73.28l-17.76-8.25c-8.14 16.28-16.28 32.57-24.43 48.85-.84 13.96-1.69 27.92-2.53 41.88zM857.46 1484c8.67 6.56 17.34 13.11 26.01 19.67M880.2 1505.99c-8.46-4.93-16.92-9.87-25.38-14.8M851.65 1496.68c8.74 5.08 17.48 10.15 26.22 15.23M875.6 1481.19c3.54-1.84 8.62-4.99 13.53-10.15 3.27-3.43 10.19-10.71 12.05-21.57 1.86-10.87-1.07-27-11.42-31.3-5.23-2.17-13.35-1.75-17.13 3.38-2.65 3.6-3.58 10.07.21 13.75 3.07 2.98 8.66 3.56 11.84.85 1.99-1.7 3.33-4.93 2.33-7.4-.15-.38-.85-2.08-2.59-2.54-1.56-.41-2.88.47-3.12.63M882.05 1494.09c2.62 1.12 10.85 4.22 20.62 1.43 2.37-.68 8.23-2.43 13.01-7.77 7.51-8.39 9.29-22.22 4.44-30.29-1.31-2.18-2.99-3.76-3.59-7.12-.97-5.44 1.86-10.11 2.48-11.12 4.25-6.99 13.66-11.11 22.52-9.68 7.62 1.23 17.53 7.01 18.08 16.02.38 6.23-3.74 13.41-9.83 15.07-3.15.86-8.12.6-10.47-2.7-1.3-1.82-2.08-4.98-.48-7.3 1.21-1.74 3.76-3 5.87-2.22.84.31 1.4.86 1.74 1.27"/><path class="prefix__st1" d="M840.3 1568.32c2.35-6.48 4.69-12.96 7.04-19.44 10.14-21.76 20.29-43.51 30.43-65.27"/><path class="prefix__st1" d="M862.67 1539.92c-5.19 3.2-10.38 6.41-15.57 9.61-1.78-7.48-3.56-14.96-5.34-22.45"/><path class="prefix__st0" d="M27.63 1047.8c5.4 4.04 11.76 8.32 19.1 12.46 6.97 3.93 13.59 7.03 19.58 9.48 1.26-.78 3.81-2.6 5.61-5.95 1.41-2.62 1.75-5.05 1.84-6.46-5.52-3.74-11.57-7.54-18.14-11.3-7.26-4.16-14.26-7.73-20.85-10.81-.99.36-3.5 1.42-5.35 4.07-2.59 3.7-1.94 7.71-1.79 8.51z"/><path class="prefix__st0" d="M44.66 1039.47c1.59-6.34 3.28-10.96 4.21-12.9 1.23-2.57 2.63-3.56 3.2-3.92 0 0 .13-.09.26-.16 6.27-3.38 22.27 5.75 22.56 12.8.01.19-.01.4-.01.4-.1 2.15-1.13 3.76-1.89 4.84-1.25 1.78-4.27 5.73-8.64 10.7M33.3 1051.87c-15.63 27.51-31.26 55.01-46.89 82.52-.65.95-4.25 6.38-2.7 13.35.27 1.19 1.65 7.41 7.56 10.51 5.21 2.73 10.33 1.16 11.76.72 7.12-2.18 10.25-8.35 10.83-9.55 15.61-27.36 31.23-54.73 46.84-82.09"/><path class="prefix__st0" d="M19.05 1092.57l-25.8 45.96c-3.67 4.69-2.11 10.98 1.53 13.04 3.64 2.06 9.83.17 11.98-5.38 8.74-15.24 17.47-30.48 26.21-45.73-4.64-2.62-9.28-5.25-13.92-7.89zM1151.52 1047.8c5.4 4.04 11.76 8.32 19.1 12.46 6.97 3.93 13.59 7.03 19.58 9.48 1.26-.78 3.81-2.6 5.61-5.95 1.41-2.62 1.75-5.05 1.84-6.46-5.52-3.74-11.57-7.54-18.14-11.3-7.26-4.16-14.26-7.73-20.85-10.81-.99.36-3.5 1.42-5.35 4.07-2.59 3.7-1.94 7.71-1.79 8.51z"/><path class="prefix__st0" d="M1168.55 1039.47c1.59-6.34 3.28-10.96 4.21-12.9 1.23-2.57 2.63-3.56 3.2-3.92 0 0 .13-.09.26-.16 6.27-3.38 22.27 5.75 22.56 12.8.01.19-.01.4-.01.4-.1 2.15-1.13 3.76-1.89 4.84-1.25 1.78-4.27 5.73-8.64 10.7M1157.19 1051.87c-15.63 27.51-31.26 55.01-46.89 82.52-.65.95-4.25 6.38-2.7 13.35.27 1.19 1.65 7.41 7.56 10.51 5.21 2.73 10.33 1.16 11.76.72 7.12-2.18 10.25-8.35 10.83-9.55 15.61-27.36 31.23-54.73 46.84-82.09"/><path class="prefix__st0" d="M1142.94 1092.57l-25.8 45.96c-3.67 4.69-2.11 10.98 1.53 13.04 3.64 2.06 9.83.17 11.98-5.38 8.74-15.24 17.47-30.48 26.21-45.73-4.64-2.62-9.28-5.25-13.92-7.89zM1059.43 2207.97c21.38 9.25 34.99 28.14 32.21 47.7-3.51 24.71-31.86 41.13-63.32 36.66-31.46-4.47-54.11-28.13-50.6-52.84 2.96-20.86 23.61-35.8 48.89-37.27M1028.45 2189.44c-.6 4.26-1.2 8.52-1.81 12.78M1061.54 2193.78l-1.98 13.39M1022.24 2187.45c6.87 1.84 14.78 3.55 23.6 4.78a196.39 196.39 0 0022.89 1.83c.92-1.18 2.7-3.8 3.15-7.57.35-2.95-.27-5.35-.74-6.7-6.88-1.51-14.29-2.89-22.2-4.05-8.74-1.27-17-2.1-24.66-2.61-.83.69-2.87 2.58-3.64 5.72-1.08 4.39 1.14 7.91 1.6 8.6z"/><path class="prefix__st0" d="M1076.6 2232.68c3.49 6.1 5.03 12.91 4.05 19.81-2.84 20.02-25.8 33.31-51.28 29.69-25.48-3.62-43.82-22.78-40.98-42.8 1.02-7.19 4.64-13.52 10.04-18.5"/><path class="prefix__st0" d="M1076.22 2233.18c-.65 4.59-18.68 5.82-40.28 2.75-21.59-3.07-38.57-9.27-37.92-13.86.65-4.59 18.68-5.82 40.28-2.75 21.6 3.07 38.58 9.27 37.92 13.86zM1035.63 2173.55c-.94-6.5-1.1-11.42-.96-13.56.19-2.85 1.17-4.27 1.59-4.82 0 0 .1-.13.2-.24 4.81-5.41 24.07-2.63 27.12 3.85.08.18.15.38.15.38.75 2.05.37 3.92.06 5.2-.52 2.11-1.92 6.89-4.25 13.11M216.8 1926.64c-8.89 33.96-45.3 48.42-71.85 42.02-15.37-3.71-25.33-13.89-29.98-19.49 2.97.74 15.98 3.63 29.42-3.76 11.85-6.52 16.61-16.96 17.92-20.12-6.22-4.71-12.45-9.42-18.67-14.13 11.99-2.8 21.13-11.6 22.73-21.77 2.22-14.09-10.1-30.31-29.18-31.96 6.66-2.66 21.29-7.34 37.6-2.63 26.36 7.62 50.88 37.96 42.01 71.84z"/><circle class="prefix__st0" cx="185.35" cy="1901.83" r="6.47"/><path class="prefix__st0" d="M153.02 1938.99c1.95 1.29 6.14 3.66 11.94 4.02 8.16.5 14.03-3.35 15.8-4.62M235.5 2039.5c.48 2.13 5.75 23.99 23.22 29.31 2.54.78 5.98 1.39 10.25 1.04-3.09 2.11-7.04 5.48-10.14 10.61-9 14.89-2.94 31.56-1.94 34.18M294.89 2023.82c.64 1.73 7.94 22.35-3.56 35.71-1.69 1.97-4.28 4.34-8.17 6.28 3.76.2 8.87 1.02 14.21 3.67 15.45 7.69 19.76 24.26 20.49 27.3M227.44 2029.69l2.85 10.2 69.76-19.74c-.99-3.47-1.98-6.94-2.96-10.41l-69.65 19.95zM252.05 2116.13l2.85 10.2 69.76-19.74c-.99-3.47-1.98-6.94-2.96-10.41-23.22 6.66-46.43 13.31-69.65 19.95zM262.83 2104.99c.92-1.88 6.23-12.23 18.68-16.26 13.72-4.44 25.05 2.37 26.64 3.36l-45.32 12.9z"/><path class="prefix__st0" d="M250.47 2053.84c1.41 1.77 3.96 4.5 7.92 6.55 2.09 1.08 8.66 4.49 16.55 2.08 7.73-2.37 11.29-8.67 12.01-10.02 2.07-3.88 2.4-7.52 2.43-9.5-5.37-.07-13 .42-21.7 3.06a70.758 70.758 0 00-17.21 7.83zM274.26 2062.66c1.06 3.92 2.12 7.84 3.18 11.75M279.16 2081.14c.11.4.23.79.34 1.19M384.71 1598.54c.7.46 1.82 1.06 3.31 1.32 1.76.3 3.21-.03 4.04-.29l6.84-71.09c.9-1.58 2.42-3.86 4.81-5.77 3.6-2.88 5.7-2.15 7.88-4.99 2.01-2.63 2.31-5.96 2.52-8.45.22-2.51.51-5.79-.83-8.33-1-1.9-2.83-3.26-15.15-4.45-11.36-1.09-13.47-.29-14.86 1.49-1.45 1.86-1.85 4.46-2.26 7.2-.42 2.75-.83 5.62.2 8.43 1.23 3.36 3.46 3.48 6.48 7.25 2.13 2.66 3.28 5.43 3.9 7.23-1.75 17.37-3.49 34.74-5.24 52.11-2.68-.26-5.37-.51-8.05-.77-.45 4.42-.89 8.83-1.34 13.25 2.74.3 5.48.6 8.22.89-.15 1.66-.31 3.32-.47 4.97z"/><path class="prefix__st0" d="M389.39 1505.39c1.13-2.06 4.34-1.66 9.27-1.04 4.56.57 7.28.91 7.86 2.92.61 2.09-1.44 4.81-2.77 6.04-2.64 2.44-5.76 2.05-6.97 1.9-1.32-.16-4.37-.54-6.26-3.49-.9-1.43-2.17-4.43-1.13-6.33zM427.22 1539.39a42.871 42.871 0 01-9.77 1.53c.3.41 2.23 3.14 1.24 5.25-1.18 2.49-5.58 2.27-7.23 2.18-6.4-.33-11.03-4.81-13.08-7.12 8.62-9.3 17.29-14.63 23.03-17.59 0 0 13.59-7.01 29.25-6.29 1.23.06 2.59.17 3.07 1.05 1.86 3.43-10.87 16.66-26.51 20.99zM398.13 1543.8c.21 4.41 1.39 17.6 11.04 24.13 4.91 3.32 12.03 4.93 13.18 3.12.51-.8.03-2.57-7.44-10.74-4.17-4.57-9.74-10.28-16.78-16.51zM361.92 1533.36c3.97 1.97 7.43 2.91 9.3 3.35-.37.34-2.79 2.67-2.2 4.93.69 2.67 5.06 3.28 6.69 3.5 6.35.88 11.74-2.65 14.19-4.53-6.72-10.76-14.22-17.63-19.3-21.62 0 0-12.03-9.44-27.55-11.69-1.21-.18-2.58-.32-3.21.45-2.47 3.01 7.54 18.4 22.08 25.61zM389.66 1543.16c-1.03 4.29-4.68 17.02-15.39 21.62-5.45 2.34-12.74 2.57-13.53.58-.35-.89.45-2.53 9.33-9.15 4.96-3.7 11.5-8.26 19.59-13.05z"/><circle transform="rotate(-5.902 782.046 1633.19)" class="prefix__st0" cx="782.17" cy="1633.33" r="9.95"/><circle transform="rotate(-5.902 769.59 1651.536)" class="prefix__st0" cx="769.71" cy="1651.69" r="9.22"/><circle class="prefix__st0" cx="802.66" cy="1642.78" r="9.22"/><circle transform="rotate(-15.116 787.165 1651.683)" class="prefix__st0" cx="787.13" cy="1651.72" r="8.1"/><path transform="rotate(-15.116 801.264 1705.927)" class="prefix__st0" d="M797.61 1674.27h7.24v63.4h-7.24z"/><path class="prefix__st0" d="M804.07 1731.64l-13.73 3.71c-.68-2.51-1.36-5.02-2.04-7.54 2.25-.61 4.5-1.22 6.75-1.82-.47-1.72-.93-3.44-1.4-5.15-2.24.61-4.49 1.21-6.73 1.82l-1.47-5.36c4.58-1.24 9.15-2.47 13.73-3.71l4.89 18.05zM787.21 1676.92c-.68-1.92-1.37-3.83-2.05-5.75 4.27-1.17 8.55-2.35 12.82-3.52.32 2.02.65 4.03.97 6.05-3.91 1.07-7.83 2.15-11.74 3.22zM803.75 1652.02c-.77.27-6.1 2.26-8.11 7.88-1.27 3.55-.54 6.68-.18 7.89M770.87 1660.91c1.25-.42 4.45-1.31 8.07-.11 6.56 2.16 8.45 9.12 8.58 9.67M951.48 482.53c2.43 5.86-.85 14.53-7.81 17.57-6.95 3.04-15.6-.37-18.22-6.17-1.03-2.29-.95-4.59-.7-6.18-3.78-.13-6.03-1.35-7.36-2.4-6.58-5.23-6.58-19.28 1.2-34.49 3.55 9.46 7.11 18.92 10.66 28.38.77-.8 2.08-1.97 4.02-2.88 1.93-.91 3.68-1.18 4.78-1.26-4.14-9.1-8.29-18.21-12.43-27.31 15.26 3.56 25.23 12.86 25.14 21.8-.02 1.83-.47 4.8-3.02 8.36 1.23.89 2.82 2.36 3.74 4.58z"/><path class="prefix__st0" d="M952.27 487.22c7.91-8.33 9.58-15.13 9.51-19.95-.09-7.14-3.99-11.16-3.41-20.7.32-5.25 1.81-9.06 2.82-11.65 6.91-17.69 27.91-28.52 31.54-30.35-1.56 2.31-5.91 9.38-5.24 19.05.96 13.77 11.33 21.55 12.87 22.67a19.61 19.61 0 00-13.83 14.44c-1.62 6.98.72 14.32 6.09 19.07-.66 0-11.83.21-17.38 9.43-3.64 6.04-2.62 12.24-2.29 13.91-2.6-.12-8.63-.06-11.06 3.71-.63.97-.81 1.89-.91 2.42-1.2 6.82-.23 24.8-.03 28.47"/><path class="prefix__st0" d="M926.82 497.1c-9.45-.54-14.73-3.68-17.82-6.48-5.58-5.06-5.64-10.61-12.9-16.54-4.08-3.33-7.89-4.82-10.48-5.83-17.69-6.91-39.88 1.17-43.69 2.61 2.75.42 10.91 2.02 17.56 9.07 9.47 10.04 8.16 22.93 7.93 24.83a19.596 19.596 0 0119.99-.38c6.23 3.54 10.03 10.24 9.89 17.41.45-.49 8.18-8.56 18.71-6.39 6.91 1.42 10.77 6.37 11.77 7.75 1.68-1.99 5.81-6.39 10.22-5.61 1.13.2 1.93.68 2.4.98 5.82 3.73 18.02 16.52 20.57 19.21"/><circle class="prefix__st0" cx="944.45" cy="484.68" r=".71"/><path class="prefix__st0" d="M933.33 489.56a.715.715 0 01-1.31.57.715.715 0 011.31-.57zM939.32 489.13c.54 1.23 1.07 2.45 1.61 3.68"/><path class="prefix__st0" d="M938.13 495.34l-.91-.91c2.43-1.06 4.86-2.13 7.29-3.19.03.37.05.74.08 1.11M35.06 870.83c2.89 21.05 5.01 37.64 6.29 47.58.61 4.74 1.03 8.25.67 13.08-.57 7.64-2.42 9.27-1.31 11.57 3.94 8.16 35.62 4.66 37.7-4.29.57-2.43-1.45-3.55-4.09-10.67-1.46-3.94-2.18-7.21-3.37-14.68-2.59-16.16-4.81-35.72-5.2-39.19-.37 4.64 2.04 8.19 4.71 8.63 2.77.46 5.75-2.45 6.62-5.35 1.32-4.39-3.01-6-5.77-15.06-2.06-6.77-1.22-11.07-5.05-13.93-.56-.42-1.88-1.38-3.78-1.64-5.75-.78-7.56 6.13-12.69 6.31-5.43.19-7.59-7.38-16.97-9.85-1.22-.32-2.55-.55-3.76.08-2.4 1.26-1.48 4.45-3.41 9.41-2.09 5.37-4.68 5.51-5.12 9.7-.08.73-.47 4.4 1.89 7.11 2.83 3.27 8.61 3.93 12.64 1.19 3.89-2.65 5.44-8.01 3.45-12.74"/><path class="prefix__st0" d="M49.78 853.21c.05-3.01-.06-6.38-.44-10.03a83.93 83.93 0 00-2.1-11.83"/><path class="prefix__st0" d="M35.22 772.76c-1.6 1.87-1.19 4.22-1.05 5.01.85 4.84 6.79 6.95 12.81 10.97 1.17.78 9.21 6.24 13.07 12.89 6.94 11.96 2.34 31.23-8.24 35.21-2.57.97-4.83.78-6.1.68-9.42-.77-16.53-9.95-17.72-18.41-.14-.99-.37-2.72-.04-5.01 1.39-9.68 10.39-12.39 12.17-19.72.69-2.87.51-7.4-4.75-13.87"/><path class="prefix__st1" d="M40.54 825.6a12.18 12.18 0 01-1.25-3.81c-1.05-6.98 4.59-12.51 5.5-13.37 1.09.72 7.2 4.88 7.6 11.69.09 1.47-.11 2.8-.42 3.97"/><path class="prefix__st0" d="M583.61 358.84c3.07-.01 6.39-1.62 8.03-4.15 1.97-3.05.85-6.4.08-11.14-.26-1.57-1.94-11.93-.06-19.45 1.9-7.56 8.64-17.17 17.94-17.64 4.51-.23 9.21 1.71 12.23 5.05 6.75 7.45 2.99 19.45 2.25 21.63-.1.28-.09.25-7.87 15.68-.57 1.13-2.38 4.83-2.29 9.62.04 1.98.06 2.98.69 3.74 2.37 2.85 8.28-1.75 15.78.29.76.21 7.49 2.13 8.65 7.14.52 2.25-.12 4.97-1.74 6.85-3.68 4.29-10.32 1.79-20.63 2.34-12.71.68-12.06 4.98-21.88 4.97-11.82-.02-24.21-6.27-28.85-15.87-.34-.71-3.98-8.42-.89-11.7 2.04-2.18 6.23-1.55 7.82-1.31 5.57.83 6.44 3.96 10.74 3.95z"/><path class="prefix__st0" d="M590.99 384.8c-.3 1.09-.96 2.9-2.53 4.53-3.46 3.6-8.34 3.28-9.1 3.21-.02.75-.07 4.67 2.63 6.65 1.91 1.4 4.28 1.16 6.47.94 4.76-.48 5.76-2.51 8.27-1.76 2.42.72 2.02 2.74 5.08 4.26 3.28 1.62 6.63.74 7.27.56 3.61-1.02 5.49-3.65 5.97-4.39-.73-.13-6.65-1.29-9.63-6.97-2.49-4.75-1.17-9.33-.89-10.25"/><path class="prefix__st0" d="M590.05 399.89a74.82 74.82 0 01-3.57 9.2c-2.54 5.46-4.03 6.93-3.72 9.7.38 3.35 3.19 6.74 7.03 7.88 4.41 1.31 9.24-.62 11.01-3.73 1.49-2.62.05-4.73-.37-11.59-.24-3.98 0-7.26.24-9.42"/><path class="prefix__st1" d="M592.16 322.41c1.66-5.35 8.03-8.51 12.48-6.75 5.47 2.17 7.41 11.54 2.99 16.2-2.69 2.84-7.85 4.04-11.81 1.47-3.82-2.47-4.79-7.3-3.66-10.92zM616.86 347.54c-.87-4.44-5.32-7.2-9.48-6.13-4.57 1.18-6.75 6.46-5.18 10.24 1.66 3.98 7.37 5.99 12.01 3.14M589.92 365.02c-2.48-.56-6.64-.34-8.17 2.44-.81 1.47-.73 3.38 0 4.8 2.24 4.36 11.19 5.16 13.57 1.76 1.29-1.84.34-4.48.23-4.75-1.23-3.26-4.86-4.07-5.63-4.25zM618.04 363.95c-.57.18-2.37.83-3.6 2.7-.4.61-1.45 2.19-1.05 3.45.93 2.95 10.18 5.31 14.4.85 2.5-2.63 2.16-6.5 2.05-7.51"/><path class="prefix__st0" d="M415.61 1013.29l-7.83 1.78-16.03-70.56 7.83-1.78 9.36 41.19 14.91-3.27c.68 3 1.36 6 2.05 9.01l-3.43.78c-1.5-1.08-3.45-1.23-5.04-.4-1.71.9-2.83 2.86-2.46 4.9.39 2.12 2.27 3.54 4.23 3.71 1.93.18 3.81-.87 4.74-2.64 1.08-.25 2.16-.49 3.24-.74.66 2.89 1.31 5.77 1.97 8.66-4.96 1.13-9.92 2.25-14.89 3.38.45 2.01.9 4 1.35 5.98z"/><path class="prefix__st0" d="M391.75 944.52c-4.08-2.53-8.59-5.67-13.27-9.53-4.74-3.92-8.72-7.82-12-11.39 1.58-4.27 3.85-9.36 7.14-14.77a85.212 85.212 0 0110.78-14.15c4.07 1.75 8.86 4.19 13.91 7.58 5.45 3.66 9.77 7.47 13.07 10.79-1.36 4.56-3.01 9.43-5.02 14.53-2.18 5.55-4.49 10.61-6.78 15.17"/><path class="prefix__st1" d="M395.76 944.09c-.02-6.56-.05-13.13-.07-19.69l15.69-11.37c-6.11.38-12.21.76-18.32 1.15-2.88-6.5-5.77-13.01-8.65-19.51-.18 7.16-.37 14.32-.55 21.48l-17.37 7.44c6.78.99 13.56 1.99 20.34 2.98 2.98 5.84 5.95 11.68 8.93 17.52z"/><path class="prefix__st0" d="M315.91 515.01c4.72-8.18-9.29-47.44 2.22-71.07.86-1.77 6.31-12.57 18.16-17.59 13.3-5.63 28.84-1.51 38.59 6.12 19.87 15.54 15.56 45.51 14.42 53.46-.89 6.2-4.98 34.38-28.77 48.66-27.72 16.64-65.95 4.3-68.71-4.94-.2-.66-.85-2.85.24-4.47 2.03-3.04 7.81-.54 14.12-2.59.26-.07 3-.78 5.53-2.71-.01 0 2.48-1.9 4.2-4.87z"/><path class="prefix__st0" d="M378.32 493.72c-.52 2.86-1.81 8.41-5 12.53-1.11 1.43-2.21 2.38-3.68 2.68-1.36.28-3.14.02-4.25-1.11-1.31-1.34-1.18-3.38-1.07-4.78.43-5.32 1.08-10.26 1.63-13.99M342.95 489.91c-.22 3.46-.73 8.44-2.03 13.27-.35 1.3-.89 3.09-2.43 4.39-.5.42-2.17 1.69-4.2 1.35 0 0-1.31-.22-2.52-1.35-2.2-2.04-3.16-7.85-2.46-15.15M334.06 453.99c-.34 2.11 1.1 4.1 3.22 4.44 2.11.34 4.1-1.1 4.44-3.22.34-2.11-1.1-4.1-3.22-4.44-2.11-.34-4.1 1.1-4.44 3.22z"/><circle class="prefix__st0" cx="367.9" cy="455.58" r="3.88"/><path class="prefix__st0" d="M359.5 467.49c-1.16 1.96-3.25 3.17-5.46 3.12-2.58-.05-4.92-1.8-5.78-4.37M1014.05 979.32c1.81 1.81 1.5 3.72 4 5.41 3.75 2.53 10.08 2.06 12.94-1.18 2.37-2.68.61-5.27 2.35-8 3.16-4.94 14.66-5.43 21.18-1.88 13.7 7.46 20.16 40.84 2.59 59.53-12.43 13.23-33.95 15.96-49.41 7.53-23.44-12.79-27.64-48.34-16.71-58.82 5.6-5.37 18.4-7.26 23.06-2.59z"/><path class="prefix__st0" d="M1056.52 974.99c10.47-1.22 18.37-7.84 19.88-15.91.93-5-.7-10.01-3.38-13.36-6.13-7.68-19.95-9.38-33.57-2.87-.63-1.49-1.25-2.98-1.88-4.47-2.75 1.1-5.49 2.2-8.24 3.29-.71-1.41-1.41-2.82-2.12-4.24 2.92-2.61 13.76-11.65 29.41-11.29 4.5.1 16.78.38 25.41 10.12 1.23 1.39 8.12 9.44 7.29 21.18-.73 10.39-7.03 16.9-9.41 19.29-5.94 5.95-12.6 8.1-15.77 8.9M1026.75 1014.32l2.46 14.98c2.32-.35 4.63-.69 6.95-1.04-.82-5.06-1.65-10.12-2.47-15.18.26-.22 3.8-3.31 3.18-7.76-.57-4.08-4.36-7.38-8.71-7.24-4.28.14-8.16 3.58-8.24 8-.06 3.8 2.76 7.33 6.83 8.24zM172.83 1139.51c1.83-1.28 4.85-3.06 8.96-4.08 3.51-.87 6.54-.88 8.61-.71M167.02 1155.46c.55 2.84 1.53 6.09 3.28 9.44 6.77 12.95 19.93 17.61 24.07 18.89 2.81-3.22 11.45-13.98 10.5-28.52-.26-4-1.2-7.46-2.27-10.26M190.4 1134.71c-.27-1.06-2.78-11.8 4.05-18.89.96-1 4.35-4.52 9.47-4.67 6.21-.18 11.03 4.75 13.13 9.03 3.95 8.04-.66 15.85-1.03 16.45-4.46 7.27-12.44 8.27-13.41 8.37"/><path class="prefix__st0" d="M194.82 1153.24c.13.46-.18.95-.69 1.09-.51.14-1.02-.12-1.15-.58-.13-.46.18-.95.69-1.09.51-.14 1.02.12 1.15.58zM211.84 1113.85c-1.34-.03-6.05.02-10.23 3.44-3.9 3.2-4.92 7.35-5.28 8.89-2.27 9.82 5.5 18.02 6.27 18.81M172.27 1139.98c-.31-1.05-3.64-11.57-13.13-14.17-1.33-.37-6.05-1.66-10.52.82-5.43 3.02-7.06 9.71-6.68 14.47.71 8.93 8.67 13.29 9.29 13.62 7.55 3.97 14.92.75 15.81.34M176.26 1159.37a1.726 1.726 0 103.33-.91 1.726 1.726 0 00-3.33.91z"/><path class="prefix__st0" d="M143.19 1132.99c1.14-.71 5.21-3.07 10.55-2.26 4.98.76 7.99 3.81 9.08 4.95 6.97 7.29 4.48 18.3 4.22 19.38M187.35 1180.98c.27-.49 1.93-3.35 5.51-4.22 3.06-.74 5.5.46 6.1.78"/><path class="prefix__st1" d="M198.41 1178.41c2.35-2.51 6.4-6.22 12.39-9.06 5.1-2.42 9.73-3.32 12.91-3.68M197.52 1179.74c3.12-1.29 7.71-2.79 13.45-3.27 4.93-.41 9.12.07 12.17.65M186.81 1181.52a41.02 41.02 0 00-15.28-1.46c-5.61.53-10.06 2.12-12.98 3.43M188.25 1182.21a44.71 44.71 0 00-23.36 10.84"/><path class="prefix__st0" d="M503.27 232.58l14.1-4.8 2.07 5.76c-2.2.79-4.39 1.58-6.59 2.37.68 1.94 1.36 3.89 2.04 5.83 2.2-.77 4.41-1.54 6.61-2.31.8 2.42 1.61 4.84 2.41 7.26-4.76 1.71-9.53 3.41-14.29 5.12.48 1.49.96 2.99 1.44 4.48-.74.79-2.56 2.5-5.46 3.26-2.18.57-4.03.36-5.06.17-5.66-16.37-11.31-32.74-16.97-49.11-15.37-.84-26.06-8.95-26.4-16.48-.48-10.51 19.31-17.31 20.82-17.81 1.99-.66 21.11-6.8 27.02 1.71 4.32 6.23.88 19.11-10.7 28.92 2.98 8.53 5.97 17.08 8.96 25.63z"/><path class="prefix__st0" d="M492.49 186.06c3.17 3.67.75 12.9-5.34 15.53-6.71 2.9-15.61-3.2-15.61-8.09 0-4.83 8.7-7.96 9.08-8.09.76-.26 8.71-3.02 11.87.65zM644.79 1982.39l18.64 1.65c-4.17 4.56-8.34 9.11-12.52 13.67 1.79 5.88 3.58 11.76 5.36 17.64-5.72-2.34-11.44-4.69-17.17-7.03-5.34 4.07-10.68 8.14-16.03 12.21.81-7.03 1.62-14.06 2.44-21.09-5.67-3.58-11.34-7.17-17.01-10.75 6.33-1.23 12.66-2.45 18.99-3.68 2.41-6.44 4.83-12.89 7.24-19.33 3.36 5.57 6.71 11.14 10.06 16.71z"/><path class="prefix__st0" d="M639.17 1973.05c3.62-9.14 12.2-27.26 30.81-43.19 19.02-16.29 38.72-21.91 48.35-24a96.414 96.414 0 00-13.06 12.35 95.778 95.778 0 00-9.18 12.35l10.59 1.41c-4.82 5.06-9.65 10.12-14.47 15.18 4.67-.87 10.13-1.56 16.24-1.76 7.26-.24 13.7.28 19.06 1.06a1614.84 1614.84 0 00-24.71 10.59c-19.95 8.75-25.49 11.66-29.29 13.76a200.46 200.46 0 00-19.64 12.39M465 790.45c-6.82 2.55-13.64 5.1-20.46 7.66 6.11 3.83 12.22 7.65 18.33 11.48l-.54 21.51 17.12-13.25c7.27 2.91 14.55 5.83 21.82 8.74-3.1-7.65-6.2-15.31-9.3-22.96l15.79-17.38-22.5 1.77c-4.72-6.5-9.44-12.99-14.16-19.49-2.03 7.3-4.06 14.61-6.1 21.92z"/><path class="prefix__st0" d="M468.42 778.2c-6.91-9.16-22.2-26.86-48.1-39-26.47-12.4-50.37-12.6-61.85-11.95 5.43 2.26 11.81 5.41 18.53 9.83a111.88 111.88 0 0114.16 11.04c-3.82 1.63-7.65 3.25-11.47 4.88l21 12.57c-5.52.48-11.88 1.39-18.81 3.07-8.25 1.99-15.32 4.58-21.11 7.12 12.73 1.62 23.33 3.1 31.08 4.22 25.16 3.63 32.29 5.18 37.23 6.37 11.2 2.69 20.15 5.7 25.95 7.83M775.61 587.39c12.8 11.21 17.76 29.71 11.02 46.37-8.52 21.06-32.5 31.23-53.56 22.72-21.06-8.52-31.23-32.5-22.71-53.56 7.19-17.78 25.39-27.79 43.56-25.37M761.17 560.07c-2.42 5.82-4.84 11.65-7.27 17.47M782.97 569.49c-2.45 5.97-4.91 11.93-7.36 17.9M756.21 556.42c4.63 2.6 10.03 5.28 16.19 7.74 5.84 2.34 11.32 4.08 16.25 5.37.9-.74 2.7-2.42 3.76-5.22.83-2.19.84-4.12.77-5.23a223.832 223.832 0 00-32.69-13.22c-.73.38-2.58 1.47-3.75 3.72-1.66 3.17-.73 6.23-.53 6.84z"/><path class="prefix__st0" d="M780.97 613.18c.97 5.84.39 12.01-1.99 17.89-6.9 17.06-26.32 25.3-43.38 18.4-17.06-6.9-25.3-26.32-18.4-43.38a33.13 33.13 0 0111.6-14.68"/><ellipse transform="rotate(-67.983 754.536 602.661)" class="prefix__st0" cx="754.58" cy="602.68" rx="7.64" ry="28.24"/><path class="prefix__st0" d="M768.63 548.17c.59-5.11 1.43-8.89 1.95-10.49.69-2.13 1.68-3.05 2.09-3.39l.19-.15c4.54-3.28 17.97 2.19 18.92 7.65.03.15.04.32.04.32.15 1.69-.49 3.05-.97 3.97-.79 1.52-2.74 4.91-5.64 9.24"/><circle transform="rotate(-65.014 347.442 1809.84)" class="prefix__st0" cx="347.49" cy="1809.87" r="11.65"/><path class="prefix__st0" d="M356.75 1802.81c1.41-1.08 21.41-16.19 27.77-10.98 1.75 1.43 2.16 4.15 2.18 4.3.87 6.31-7.24 11.49-7.92 11.92-8.27 5.14-18.05 1.53-19.68.9M353.04 1799.13c.9-1.68 2.3-4.44 3.74-7.99 3.08-7.61 5.27-13.2 2.69-16.23-1.56-1.83-4.15-1.91-4.59-1.93-2.14-.07-7.46 3.53-9.77 8.99-2.99 7.07.44 14.05 1.1 15.34M360.09 1810.4c8.54 4.54 13.89 9.65 12.94 12.95-.44 1.53-2.23 2.65-3.6 3.06-3.59 1.08-6.96-1.89-7.85-2.67-3.25-2.87-3.87-6.74-4.02-8.03"/><circle class="prefix__st0" cx="892.81" cy="1333.39" r="11.65"/><path class="prefix__st0" d="M898.22 1323.08c.82-1.58 12.57-23.72 20.53-21.69 2.19.56 3.71 2.85 3.79 2.98 3.45 5.35-1.71 13.48-2.15 14.15-5.32 8.15-15.71 9.01-17.46 9.13M893.3 1321.31c.1-1.9.21-5 .01-8.82-.42-8.2-.8-14.19-4.42-15.85-2.18-1-4.57.02-4.97.19-1.97.84-5.27 6.35-5.06 12.27.28 7.67 6.33 12.55 7.48 13.44M904.45 1328.55c9.66.51 16.67 2.87 17.2 6.27.25 1.57-.9 3.34-1.97 4.3-2.8 2.5-7.11 1.23-8.24.9-4.16-1.23-6.36-4.48-7.04-5.58M833.71 681.84c-8.71 16.24-17.41 32.47-26.12 48.71 18.59-.24 37.18-.47 55.76-.71l-29.64-48z"/><path class="prefix__st0" d="M820.74 706.02c9.09-.34 18.19-.68 27.28-1.01-4.3 8.39-8.59 16.79-12.89 25.18-4.8-8.05-9.59-16.11-14.39-24.17z"/><circle transform="rotate(-64.519 450.557 387.483)" class="prefix__st0" cx="450.53" cy="387.47" r="11.48"/><path class="prefix__st0" d="M450.08 376c-.06-1.76-1.12-26.44-9.08-28.01-2.19-.43-4.51.96-4.64 1.04-5.35 3.3-4.2 12.72-4.09 13.5 1.28 9.51 10.16 14.69 11.67 15.53M455.21 376.51c.71-1.74 1.93-4.54 3.73-7.85 3.85-7.12 6.73-12.29 10.65-12.23 2.37.04 4.06 1.96 4.34 2.28 1.4 1.59 1.99 7.89-.71 13.07-3.5 6.71-10.96 8.48-12.36 8.79M442.21 378.22c-8.81-3.65-16.06-4.51-17.97-1.71-.89 1.29-.62 3.36-.07 4.66 1.43 3.41 5.8 4.11 6.96 4.29 4.22.67 7.56-1.29 8.63-1.99"/><circle class="prefix__st0" cx="413.24" cy="2157.54" r="18.29"/><path class="prefix__st0" d="M426.71 2143.36c-.91-1.25-3.3-4.87-3.29-10.02.01-6.58 3.93-10.85 4.82-11.78.69.13 1.82.45 2.89 1.33 2.42 1.99 2.39 5.11 2.37 5.57.39-.07 3.85-.61 6.51 1.89 2.06 1.94 2.83 4.96 1.99 7.77.67.06 1.65.23 2.68.77 2.23 1.15 3.16 3.15 3.45 3.83-1.04.93-4.64 3.9-10.15 4.21-6.06.35-10.24-2.76-11.27-3.57zM399.08 2172.46c.92 1.14 3.53 4.64 3.77 9.85.26 5.73-2.51 9.73-3.34 10.84-.65.02-2.06-.03-3.5-.91-2.45-1.49-2.93-4.15-3-4.58-.39.09-3.82.79-6.59-1.58-2.15-1.84-3.06-4.82-2.36-7.67-.68-.03-1.66-.15-2.71-.64-2.28-1.04-3.31-3-3.63-3.66 1-.98 4.45-4.12 9.94-4.69 6.03-.63 10.36 2.28 11.42 3.04z"/><circle class="prefix__st0" cx="1068.73" cy="60.29" r="18.29"/><path class="prefix__st0" d="M1084.7 71.58c1.1-1.08 4.34-3.97 9.44-4.7 6.51-.94 11.31 2.32 12.35 3.07-.03.7-.18 1.87-.9 3.05-1.62 2.68-4.72 3.1-5.17 3.15.12.38 1.16 3.73-.93 6.71-1.63 2.32-4.5 3.52-7.41 3.09.04.68.01 1.66-.37 2.76-.82 2.37-2.66 3.59-3.29 3.96-1.07-.9-4.53-4.03-5.63-9.44-1.22-5.93 1.26-10.52 1.91-11.65zM1051.93 48.42c-.99 1.08-4.09 4.16-9.21 5.15-5.63 1.08-9.98-1.08-11.21-1.74-.11-.64-.26-2.05.39-3.59 1.12-2.64 3.69-3.5 4.1-3.63-.14-.37-1.33-3.67.62-6.75 1.51-2.39 4.33-3.73 7.25-3.44-.07-.67-.09-1.66.24-2.78.7-2.41 2.49-3.71 3.1-4.11 1.11.85 4.72 3.81 6.07 9.16 1.5 5.87-.76 10.58-1.35 11.73zM121.06 612.92c1.91 1.05 5.02 2.43 8.98 2.63 9.72.49 16.47-6.49 18.33-8.42 7.28-7.53 8.08-16.8 8.31-19.94.74-10.29-3.32-18.1-6.66-24.32-9.67-18.01-20.07-19.3-28.65-37.49-2.07-4.4-1.25-3.86-5.11-15.22-10.68-31.39-17.2-49.83-31.25-54.37-4.8-1.55-11.34-1.77-17.15.83-6.67 2.98-10.04 8.62-11.15 10.52-8.77 15.12.65 31.5 1.7 67.48.11 3.82.1 6.97-.86 10.93-3.09 12.7-11.53 15.38-17.4 26.12-.71 1.3-8.13 15.42-3.48 30.98 2.78 9.32 10.8 22.19 22.99 23.64 3.79.45 7.09-.31 9.44-1.14"/><path class="prefix__st0" d="M65.68 579.53c-1.75 2.31-7.2 10.09-6.69 21.06.13 2.82.64 11.13 6.99 18.31 5.69 6.43 12.75 8.21 16.09 9 11.18 2.66 26.4.37 34.51-9.92 4.21-5.34 5.53-11.61 6.01-13.85 1.21-5.72.84-10.58.37-13.67M115.8 566.51a86.472 86.472 0 01-9.2-14.79c-1.87-3.81-3.63-8.13-5.91-15.8-2.21-7.45-4.83-17.79-6.75-30.69M75.04 531.33c1.34 6.23 1.7 11.5 1.75 15.32.03 2.47.06 5.6-.55 9.7-.66 4.45-1.79 8.08-2.76 10.67M62.63 459.93c.44-.99 5.73-13.36-1.33-23.96-1.3-1.96-6.45-8.93-15.37-9.7-1.36-.12-9.69-.84-14.61 5.48-3.53 4.53-4.43 11.59-.97 16.62 2.09 3.03 6.43 6.32 11.18 5.35 2.69-.55 6.11-2.58 6.85-6.06.63-2.99-.7-7.13-3.36-7.62-2.01-.37-3.85 1.52-4.2 1.89M82.11 453.05C76 434.9 69.62 428.76 64.78 426.61c-1.51-.67-6.4-2.51-10.05-7.33-1.88-2.49-2.83-4.97-3.33-6.63"/><path class="prefix__st0" d="M49.03 426.8c-.41-.75-2.44-4.63-.97-9.15.85-2.62 2.49-4.25 3.35-5M146.61 557.2c-.61-14.1 6.32-27 17.66-32.75 1.07-.54 14.39-7.04 27.49-.59 4.24 2.09 7.12 4.88 8.84 6.85M156.69 587.2c4.05 2.71 10.83 6.26 19.64 6.66 2.41.11 21.52.61 30.48-14.16 5.75-9.48 3.92-19.63 3.22-22.75"/><path class="prefix__st0" d="M208.53 579.82c2.82.25 6.6.15 10.51-1.47 14.13-5.87 20.15-27.64 15.69-44.24-.64-2.37-5.53-20.59-20.11-24.16-8.5-2.09-16.29 1.8-17.18 2.25-5.62 2.9-8.69 7.14-9.97 9.18M162.32 524.21c-1.29-2.02-4.79-6.92-11.37-9.57-10-4.03-18.93.43-20.22 1.1-5.4 2.81-8.36 6.96-9.64 9.03"/><path class="prefix__st0" d="M192.52 515.53c-3.83-.26-11.7-1.41-17.93-7.43-9.76-9.44-10.07-25.56-6-29.26 2.23-2.02 4.36-1.78 4.36-1.78.3.03 1.92.22 2.84 1.61.59.88.6 1.8.59 2.19"/><path class="prefix__st0" d="M159.26 518.24c1.72-.68 5.46-2.43 5.96-5.47.34-2.06-.95-3.84-1.56-4.68-3-4.22-8.53-13.01-10.03-18.61-1.55-5.8-.32-13.96 5.23-18.95 5.97-5.37 13.97-4.4 15.41-4.2 3.05 1.41 5.06 4.28 5.17 7.43.12 3.38-2 5.66-2.44 6.11"/><path class="prefix__st0" d="M139.18 513.17c2.03-2.22 6.42-6.35 13.27-8.31 3.24-.93 6.14-1.12 8.35-1.07M173.23 504.51c1.82-1.55 6.94-5.48 14.4-5.86 12.4-.64 20.2 9.11 20.97 10.11M1072.93 1458.31c11.72.79 29.81 3.41 49.59 12.58 27.31 12.67 43.11 31.01 55.48 45.35 10.01 11.61 23.48 29.67 34.79 54.73-.91-2.37-2.72-6.12-6.25-9.64a27.334 27.334 0 00-6.15-4.61c1.21-1.06 2.42-2.13 3.62-3.19"/><path class="prefix__st0" d="M1191.39 1533.43c-2.23-4.78-5.81-12.06-10.73-20.61-17.8-30.91-36.69-63.7-70.98-75.74-3.64-1.28-39.08-13.15-64.86 5.68-2.47 1.8-23.37 17.07-19.53 35.84 1.92 9.39 9.51 17.14 17.91 20.02 14.41 4.94 33.41-3.71 42.87-22.66-3.94 7.8-7.89 15.59-11.83 23.39 3.34-1.07 7.7-2.89 12.25-6.02 2.8-1.93 5.06-3.95 6.84-5.77l-2.76 9.27c1.55.17 3.8.24 6.42-.27 2.72-.53 4.83-1.5 6.22-2.27l.18 5.16c11.38-.33 31.9.62 54.44 10.98 15.43 7.09 26.49 16.15 33.56 23zM-51.33 1458.31c11.72.79 29.81 3.41 49.59 12.58 27.31 12.67 43.11 31.01 55.48 45.35 10.01 11.61 23.48 29.67 34.79 54.73-.91-2.37-2.72-6.12-6.25-9.64a27.334 27.334 0 00-6.15-4.61c1.21-1.06 2.42-2.13 3.62-3.19"/><path class="prefix__st0" d="M67.57 1533.43c-2.23-4.78-5.81-12.06-10.73-20.61-17.8-30.91-36.69-63.7-70.98-75.74-3.64-1.28-39.08-13.15-64.86 5.68-2.47 1.8-23.37 17.07-19.53 35.84 1.92 9.39 9.51 17.14 17.91 20.02 14.41 4.94 33.41-3.71 42.87-22.66-3.94 7.8-7.89 15.59-11.83 23.39 3.34-1.07 7.7-2.89 12.25-6.02 2.8-1.93 5.06-3.95 6.84-5.77l-2.76 9.27c1.55.17 3.8.24 6.42-.27 2.72-.53 4.83-1.5 6.22-2.27l.18 5.16c11.38-.33 31.9.62 54.44 10.98 15.42 7.09 26.49 16.15 33.56 23z"/><circle class="prefix__st0" cx="283.96" cy="643.96" r="26.27"/><circle transform="rotate(-69.39 359 632.294)" class="prefix__st0" cx="358.98" cy="632.28" r="26.27"/><path class="prefix__st0" d="M314.34 644.31c-1.2-3.68-.14-7.63 2.63-9.96.16-.13 3.61-2.93 7.84-1.72 3.72 1.06 6.41 4.75 6.46 9.07M862.53 2084.17s1.04-2.09 1.64-4.29c2.62-9.56-7-22.82-4.17-33.99.34-1.33 1.07-3.5 2.98-5.19 1.75-1.55 4.66-2.85 7.33-2.07.85.25 2.6.97 4.26 3.66 6.28 10.19 3.29 35.7 12.07 40.72 6.2 3.55 16.59-4.06 20.89.94.89 1.04 1.23 2.27 1.27 2.41 1.04 3.97-2.42 7.91-4.28 10.03-1.47 1.67-6.29 7.16-14.53 8.65-5.98 1.09-6.63-1.23-13.4-.42-7.2.86-7.43 3.6-14.86 5.05-2.74.54-13.28 2.6-19.12-3.4-1.54-1.58-4.36-5.37-3.16-8.11 1.84-4.18 10.76-.7 17.68-6.85 3.32-2.96 5.4-7.14 5.4-7.14zM892.34 2135.23c.82-.87 2.11-2.06 3.95-3 2.23-1.14 3.44-.99 4.93-1.85 1.37-.79 3-2.45 3.93-6.31"/><path class="prefix__st0" d="M908.45 2107.5c1.57-2.54 1.66-4.18 2.34-5.96 1.07-2.8 3.79-6.45 6.95-6.57 1.36-.05 3.04.53 4.12 1.8 3.65 4.26-2.9 12.37.35 15.98 2.29 2.54 7.2.39 8.93 3.42.88 1.54.33 3.34.24 3.62-1.45 4.74-10.1 6.77-16.36 6.51-6.41-.26-15.5-3.13-17.79-9.64-.62-1.77-1.17-5.02.36-6.33 2.12-1.83 6.72 1.42 9.59-1.05.38-.34.67-.82 1.27-1.78z"/><path class="prefix__st0" d="M913.68 2127.2c-1.34 4.3-.83 7.13-.11 8.91.73 1.81 1.81 2.91 1.65 4.78-.19 2.21-1.95 3.73-2.68 4.36-5.54 4.78-20.14-.54-20.78-.78-.9.65-6.46 4.57-12.68 2.72-.87-.26-4.05-1.21-6.11-4.09-4.54-6.34 2.01-14.1-.01-27.19-.57-3.71-1.64-6.64-2.43-8.49"/><path class="prefix__st0" d="M883.68 2105.8c-.08 13.47 1.97 18.59 4.07 20.6.07.07.29.27.62.58 2.67 2.61 4.32 5.15 5.32 6.97M741.81 2385.99c-3.9 2.82-8.93 3.23-12.9 1.07-3.49-1.89-5.62-5.47-5.95-8.94-.75-7.98 8.25-13.25 9.27-13.83 8.18-4.64 20.02-3.13 26.56 4.17.38.42 7.92 9.1 4.26 17.24-.23.51-2.9 6.19-8.9 7.03-4.78.68-9.73-1.98-12.34-6.74z"/><ellipse transform="matrix(.00929 -1 1 .00929 -1612.58 3062.844)" class="prefix__st0" cx="739.42" cy="2345.23" rx="9.18" ry="7.32"/><ellipse transform="rotate(-65.203 762.386 2349.768)" class="prefix__st0" cx="762.43" cy="2349.8" rx="9.18" ry="7.32"/><ellipse transform="rotate(-17.312 720.004 2355.032)" class="prefix__st0" cx="720.16" cy="2354.96" rx="5.12" ry="6.62"/><ellipse transform="rotate(-47.305 775.318 2367.394)" class="prefix__st0" cx="775.19" cy="2367.36" rx="6.62" ry="5.12"/><path class="prefix__st0" d="M71.49 1279.44c-1.86 4.44-5.94 7.4-10.46 7.63-3.97.2-7.64-1.74-9.73-4.54-4.79-6.42.15-15.61.72-16.63 4.57-8.22 15.47-13.09 24.85-10.25.54.16 11.5 3.65 12.6 12.51.07.55.74 6.79-3.95 10.64-3.72 3.04-9.33 3.34-14.03.64z"/><ellipse transform="rotate(-30.818 48.205 1245.798)" class="prefix__st0" cx="48.24" cy="1245.88" rx="7.32" ry="9.18"/><ellipse transform="rotate(-6.552 70.218 1237.34)" class="prefix__st0" cx="70.27" cy="1237.8" rx="7.32" ry="9.18"/><ellipse transform="rotate(-48.653 36.885 1264.296)" class="prefix__st0" cx="36.86" cy="1264.2" rx="5.12" ry="6.62"/><ellipse transform="rotate(-78.656 90.288 1246.101)" class="prefix__st0" cx="90.31" cy="1246.16" rx="6.62" ry="5.12"/><path class="prefix__st0" d="M1072.52 827.31c-2.84 2.05-6.5 2.35-9.39.78-2.54-1.38-4.09-3.98-4.33-6.5-.54-5.81 6-9.65 6.74-10.07 5.95-3.38 14.57-2.28 19.33 3.04.28.31 5.76 6.62 3.1 12.55-.17.37-2.11 4.5-6.48 5.12-3.46.47-7.07-1.46-8.97-4.92z"/><ellipse transform="matrix(.00929 -1 1 .00929 263.228 1860.975)" class="prefix__st0" cx="1070.78" cy="797.65" rx="6.68" ry="5.33"/><ellipse transform="rotate(-65.203 1087.5 800.968)" class="prefix__st0" cx="1087.53" cy="800.97" rx="6.68" ry="5.33"/><ellipse transform="rotate(-17.312 1056.718 804.806)" class="prefix__st0" cx="1056.77" cy="804.73" rx="3.72" ry="4.82"/><ellipse transform="rotate(-47.305 1096.886 813.724)" class="prefix__st0" cx="1096.82" cy="813.75" rx="4.82" ry="3.72"/><path class="prefix__st0" d="M264.21 59.03c-1.49 4.37-5.2 7.48-9.52 8-3.79.45-7.44-1.17-9.62-3.71-5.01-5.84-.89-14.96-.41-15.98 3.84-8.18 13.96-13.56 23.13-11.46.53.12 11.26 2.74 12.9 11.15.1.52 1.16 6.46-3.08 10.45-3.36 3.17-8.71 3.83-13.4 1.55z"/><ellipse transform="rotate(-34.748 239.723 28.404)" class="prefix__st0" cx="239.73" cy="28.41" rx="7.03" ry="8.81"/><ellipse transform="rotate(-10.486 260.35 19.246)" class="prefix__st0" cx="260.3" cy="19.22" rx="7.03" ry="8.81"/><ellipse transform="rotate(-52.591 230.024 46.721)" class="prefix__st0" cx="230.03" cy="46.72" rx="4.91" ry="6.35"/><ellipse transform="rotate(-82.588 280.06 25.908)" class="prefix__st0" cx="280.05" cy="25.91" rx="6.35" ry="4.91"/></svg>