<svg version="1.1" id="prefix__Слой_1" xmlns="http://www.w3.org/2000/svg" x="0" y="0" viewBox="0 0 1125 2436" xml:space="preserve"><style>.prefix__st0,.prefix__st1{stroke-linecap:round;stroke-linejoin:round}.prefix__st0{fill:none;stroke:#000;stroke-width:4}.prefix__st1{stroke-width:3}.prefix__st1,.prefix__st2,.prefix__st4,.prefix__st8{fill:none;stroke:#000}.prefix__st2{stroke-width:4;stroke-miterlimit:10}.prefix__st4,.prefix__st8{stroke-width:7;stroke-linecap:round;stroke-linejoin:round}.prefix__st8{stroke-width:4;stroke-miterlimit:10}</style><g id="prefix__Слой_4"><path class="prefix__st0" d="M250.4 533.9c-196 201.8 4.9 353.6 131 330.2 145.1-27 108.8-186.3 13.5-173.8-167 21.9-198.9 523.3 300.6 388.5M720.8 2190.9v-24.5c0-10.2-8.3-18.5-18.5-18.5H642c-10.2 0-18.5 8.3-18.5 18.5v24.5c0 10.2 8.3 18.5 18.5 18.5h54.3l20 23.5-5.4-25.6c6.1-3.2 9.9-9.5 9.9-16.4z"/><circle class="prefix__st0" cx="647" cy="2176.4" r="5.5"/><circle class="prefix__st0" cx="671.9" cy="2176.4" r="5.5"/><circle class="prefix__st0" cx="696.8" cy="2176.4" r="5.5"/><path class="prefix__st0" d="M1043.3 1200.8c6.3-1.8 12.9 1.9 14.7 8.2l21.4 74.7c1.8 6.3-1.9 12.9-8.2 14.7-6.3 1.8-12.9-1.9-14.7-8.2l-21.4-74.7c-1.7-6.3 1.9-12.9 8.2-14.7zM1046.4 1198.3l4-22.8-10.5 6.9-11.9-1.5-6.2 11.3 15.9 10.8"/><path class="prefix__st0" d="M1065.6 1300l-5.1 14.8 10.9 4.4 3.2-6.2 12.3.4 4.7-8.7-13.4-10.5"/><path d="M1040.3 1233.4l17.8-24.4 5 20.4-17 23.5zM1052.6 1273.9l17.8-24.4 5 20.4-17.1 23.6z"/><path class="prefix__st0" d="M123.4 1970.8c4 5.2 2.9 12.7-2.3 16.7l-61.9 46.9c-5.2 4-12.7 3-16.7-2.3-4-5.2-3-12.7 2.3-16.7l61.9-46.9c5.3-4 12.8-2.9 16.7 2.3zM126.8 1972.7l22.7-4.5-10.2-7.3-2.9-11.7-12.7-1.6-4.4 18.7"/><path class="prefix__st0" d="M39 2027.3l-15.7.7-.1 11.7 6.9.8 4.1 11.6 9.8 1.2 4.9-16.3"/><path d="M91.9 1979.7l29.2 7.7-17.3 12.1-28-7.4zM58.5 2005.8l29.2 7.7-17.2 12.1-28.1-7.4z"/><circle class="prefix__st0" cx="356.8" cy="180.5" r="34.3"/><path class="prefix__st1" d="M359.1 214.6c16.2-4.6 25.6-21.6 20.9-37.8-1.7-6.1-5.3-11.4-10.2-15.4-2.3-2-5.1-3.4-8-4.2-6-1.5-12.3.1-16.9 4.2-4.5 4.2-7 10-6.9 16.1-.1 3.1.9 6.2 2.7 8.8 3.6 4.4 10.9 4.8 15.5 1.3 2.1-1.5 3.5-3.8 3.9-6.4.3-2.6-1-5.2-3.3-6.4"/><path class="prefix__st0" d="M401 226l-17.8-20.2-3.8 3.5 17.3 19.6M407.8 240.6l22.1 25c1 1.1 2.6 1.1 3.6.2 1.1-.9 1.2-2.6.2-3.6l-21.9-24.4M395.9 231.4s-17.9-6.8-18.5 3.1 22.2 33.8 25.4 21.8 1.8-14.8 1.8-14.8M405.2 225.2s-4-19.9 5.8-18.7 29.4 27.9 17 28.9-15.2-.8-15.2-.8"/><path class="prefix__st0" d="M398.5 228.9l2.9-2.4c1.8-1.5 4.4-1.3 5.9.5l3.9 4.7c1.5 1.8 1.3 4.4-.5 5.9l-2.9 2.4c-1.8 1.5-4.4 1.3-5.9-.5l-3.9-4.7c-1.5-1.8-1.3-4.4.5-5.9z"/><ellipse transform="rotate(-32.435 58.42 120.03)" class="prefix__st0" cx="58.4" cy="120" rx="29.5" ry="8.1"/><path class="prefix__st0" d="M50.9 102.5c-12 7.9-42.7 28.1-43.2 52.6s13.4 38.8 23.2 21.1 17.2-.6 26.5-8.3 6-21.4 18.4-22.4 26.1 5.2 33.6-16.6 5.4-12.4 15.7-17.7-16.5-46.8-74.2-8.7z"/><path class="prefix__st0" d="M25.9 182.1s11.7 28.2 62.3-2.7c64.7-39.5 35.3-67.4 35.3-67.4"/><path class="prefix__st1" d="M82 119.5l9.8-1.2c1.5-.2 2.9.9 3.1 2.4.2 1.5-.9 2.9-2.4 3.1l-9.8 1.2c-1.5.2-2.9-.9-3.1-2.4-.2-1.5.9-2.9 2.4-3.1zM47.4 143.2l9.8-1.2c1.5-.2 2.9.9 3.1 2.4.2 1.5-.9 2.9-2.4 3.1l-9.8 1.2c-1.5.2-2.9-.9-3.1-2.4-.2-1.6.9-2.9 2.4-3.1zM22.9 158.7l3.9-9.1c.6-1.4 2.2-2.1 3.6-1.5 1.4.6 2.1 2.2 1.5 3.6l-3.9 9.1c-.6 1.4-2.2 2.1-3.6 1.5-1.4-.6-2.1-2.2-1.5-3.6zM6.5 92l3.8-9.1c.6-1.4 2.2-2.1 3.6-1.5h.1c1.4.6 2.1 2.2 1.5 3.6l-3.9 9.1c-.6 1.5-2.2 2.1-3.6 1.5-1.4-.6-2.1-2.2-1.5-3.6zM90.5 102.6l3.9-9.1c.6-1.4 2.2-2.1 3.6-1.5 1.4.6 2.1 2.2 1.5 3.6l-3.9 9.1c-.6 1.4-2.2 2.1-3.6 1.5-1.4-.6-2.1-2.2-1.5-3.6z"/><circle class="prefix__st1" cx="24" cy="138" r="3.9"/><circle class="prefix__st1" cx="71" cy="136.2" r="3.5"/><circle class="prefix__st1" cx="40.7" cy="98.4" r="3.5"/><circle class="prefix__st1" cx="81.1" cy="95.6" r="3"/><ellipse transform="rotate(-76.09 736.375 1521.17)" class="prefix__st0" cx="736.4" cy="1521.2" rx="8.1" ry="29.5"/><path class="prefix__st0" d="M743.9 1503.8c-14-3.2-49.8-11.4-67.9 5.1s-18.8 36.5.8 31.3 12.3 12.1 24.3 13.4 19.6-10.4 28.9-2.1 14.2 22.5 35.2 12.9 12.7-4.7 23.6-.9 22.6-44.3-44.9-59.7z"/><path class="prefix__st0" d="M669.1 1540.7s-12.3 27.9 45 43.2c73.2 19.6 73.2-21 73.2-21"/><path class="prefix__st1" d="M753.1 1538.1l7.6 6.2c1.2 1 1.4 2.7.4 3.9-1 1.2-2.7 1.4-3.9.4l-7.6-6.2c-1.2-1-1.4-2.7-.4-3.9.9-1.2 2.7-1.4 3.9-.4zM712.1 1529.3l7.6 6.2c1.2 1 1.4 2.7.4 3.9-1 1.2-2.7 1.4-3.9.4l-7.6-6.2c-1.2-1-1.4-2.7-.4-3.9 1-1.2 2.7-1.3 3.9-.4zM684 1522.3l9.2-3.5c1.4-.5 3 .2 3.6 1.6.5 1.4-.2 3-1.6 3.6l-9.2 3.5c-1.4.5-3-.2-3.6-1.6-.6-1.4.2-3 1.6-3.6zM720.9 1464.4l9.2-3.5c1.4-.5 3 .2 3.6 1.6.5 1.4-.2 3-1.6 3.6l-9.2 3.5c-1.4.5-3-.2-3.6-1.6-.6-1.5.1-3.1 1.6-3.6zM771.3 1532.5l9.2-3.5c1.4-.5 3 .2 3.6 1.6.5 1.4-.2 3-1.6 3.6l-9.2 3.5c-1.4.5-3-.2-3.6-1.6-.6-1.5.1-3.1 1.6-3.6z"/><circle class="prefix__st1" cx="699.7" cy="1508.8" r="3.9"/><circle class="prefix__st1" cx="733.5" cy="1541.6" r="3.5"/><circle class="prefix__st1" cx="739.9" cy="1493.6" r="3.5"/><circle class="prefix__st1" cx="769.8" cy="1520.8" r="3"/><ellipse transform="rotate(-60.071 194.91 268.846)" class="prefix__st0" cx="194.9" cy="268.8" rx="11.5" ry="48.5"/><path class="prefix__st0" d="M237 292.8c-15.1 26.2-47.2 39.4-70.5 26s-29.2-47-14.1-73.1M233.8 298.8c29.2 8.1-11.7 45-30.3 23.2M228.9 304.9c17.9 4.5-5.9 25.3-16.2 13.2"/><ellipse transform="rotate(-60.071 169.863 279.25)" cx="169.9" cy="279.2" rx="5.7" ry="3.6"/><ellipse transform="rotate(-60.071 193.646 292.542)" cx="193.6" cy="292.5" rx="5.7" ry="3.6"/><path class="prefix__st1" d="M165.2 293.2s1 14.7 18.1 11.3"/><path d="M175.5 269.3s29.9 21.8 41.1.9c10.4-19.4-7.4-33.8 1.4-37.1 11.2-4.2 5.4 20.2 13.8 21s12.5-23.4 19.1-13.3c7.7 11.8-14.9 19.7-7.3 27.3 5.5 5.5 15.1-.4 16 6.9 1.6 13.8-19.7 3.4-24.9 19.7-7.3-.9-18.2-2.8-28.5-6.9-11.1-4.5-21.5-10.7-30.7-18.5z"/><circle cx="269.9" cy="274.6" r="5"/><path class="prefix__st0" d="M187.8 324.5c2.1 3.3 2.6 5.5 1.4 7.7-3 5.2-15.8 3.4-28.7-4s-20.9-17.6-17.9-22.8c1.3-2.3 3.5-3.4 7.8-3.1"/><path class="prefix__st1" d="M219.3 223.7c-6.9-18.7-26.6-19.1-33.3-17.9M156.1 188.5c-2.7 10.9 8.9 16.8 13 17.1M240.9 210.1c1.9 6.7.8 16.3-2.2 21.6M238.5 203.4c-1.7-6.5-6.7-13-9.6-16.4M225.5 180.7c-16.1-43.7 17.3-57.6 31.2-54.1 21.3 5.3 12.9 26.5.5 23.9M261.2 113.8c8.3-2.9 15.2-8.8 19.4-16.5"/><circle cx="178.1" cy="206" r="2.2"/><path class="prefix__st0" d="M212.5 94l-8.4-1.9c-.7-.2-1.5 0-2 .5l-6.3 5.9c-.9.8-2.3.8-3.1-.1-.3-.4-.5-.8-.6-1.3l-.9-8.6c-.1-.7-.5-1.4-1.1-1.7l-7.6-4.2c-1.1-.6-1.5-1.9-.9-3 .3-.4.6-.8 1.1-1l7.9-3.5c.7-.3 1.1-.9 1.3-1.6l1.6-8.5c.3-1.2 1.4-2 2.6-1.7.5.1.9.3 1.2.7l5.7 6.5c.5.5 1.2.8 1.9.7l8.6-1.1c1.2-.1 2.3.7 2.5 1.9.1.5-.1 1-.3 1.4l-4.3 7.4c-.4.6-.4 1.4-.1 2l3.7 7.9c.5 1.1.1 2.4-1 3-.5.4-1 .4-1.5.3zM778.8 865.2l-14-3.1c-1.2-.3-2.4.1-3.3.9l-10.5 9.8c-1.5 1.4-3.8 1.3-5.2-.2-.6-.6-.9-1.3-1-2.1l-1.4-14.2c-.1-1.2-.8-2.3-1.9-2.8l-12.5-6.9c-1.8-1-2.4-3.2-1.4-5 .4-.7 1-1.3 1.7-1.6l13.1-5.7c1.1-.5 1.9-1.5 2.1-2.7l2.7-14c.4-2 2.3-3.3 4.3-2.9.8.2 1.5.6 2 1.2l9.5 10.7c.8.9 2 1.3 3.2 1.2l14.2-1.8c2-.2 3.8 1.2 4.1 3.2.1.8-.1 1.6-.5 2.3l-7.2 12.3c-.6 1-.7 2.3-.2 3.4l6.1 13c.8 1.8 0 4-1.8 4.8-.5.3-1.3.4-2.1.2zM471.9 2100.7l-14-3.1c-1.2-.3-2.4.1-3.3.9l-10.5 9.8c-1.5 1.4-3.8 1.3-5.2-.1-.6-.6-.9-1.4-1-2.2l-1.4-14.2c-.1-1.2-.8-2.3-1.9-2.8l-12.5-6.9c-1.8-1-2.4-3.2-1.4-5 .4-.7 1-1.3 1.7-1.6l13.1-5.7c1.1-.5 1.9-1.5 2.1-2.7l2.7-14.1c.4-2 2.3-3.3 4.3-2.9.8.2 1.5.6 2 1.2l9.5 10.7c.8.9 2 1.3 3.2 1.2l14.2-1.8c2-.2 3.8 1.2 4.1 3.2.1.8-.1 1.6-.5 2.3l-7.2 12.4c-.6 1-.7 2.3-.2 3.4l6.1 13c.8 1.8 0 4-1.9 4.8-.5.3-1.3.4-2 .2z"/><path d="M1125.1 2182.5l-2.3-.5c-1.8-.4-3.7.1-5.1 1.4l-10.5 9.8c-.7.6-1.7.6-2.3-.1-.3-.3-.4-.6-.4-1l-1.4-14.3c-.2-1.8-1.3-3.5-2.9-4.4l-12.5-6.9c-.4-.2-.7-.6-.8-1-.1-.4-.1-.9.2-1.3.2-.3.5-.6.8-.7l13.1-5.7c1.7-.7 2.9-2.3 3.3-4.1l2.7-14c.2-.8.8-1.3 1.6-1.3h.3c.4.1.7.3.9.5l9.5 10.7c1.2 1.4 3.1 2.1 4.9 1.9l.9-.1v-4l-1.4.2c-.5.1-1.1-.1-1.4-.6l-9.5-10.7c-2.1-2.3-5.6-2.6-8-.5-.9.8-1.6 1.9-1.8 3.2l-2.7 14.1c-.1.5-.5 1-1 1.2l-13.1 5.7c-2.9 1.2-4.2 4.6-2.9 7.5.5 1.1 1.4 2.1 2.4 2.7l12.5 6.9c.5.3.8.8.9 1.3l1.4 14.3c.3 3.1 3 5.4 6.1 5.1 1.2-.1 2.4-.6 3.3-1.5l10.5-9.8c.4-.4.9-.5 1.5-.4l3.2.7v-4.3z"/><path class="prefix__st0" d="M58.6 843.6l-14-3.1c-1.2-.3-2.4.1-3.3.9l-10.5 9.8c-1.5 1.4-3.8 1.3-5.2-.2-.6-.6-.9-1.3-1-2.2l-1.4-14.2c-.1-1.2-.8-2.3-1.9-2.8L9 824.9c-1.8-1-2.4-3.2-1.4-5 .4-.7 1-1.3 1.7-1.6l13.1-5.7c1.1-.5 1.9-1.5 2.1-2.6l2.7-14.1c.4-2 2.3-3.3 4.3-2.9.8.2 1.5.6 2 1.2l9.5 10.7c.8.9 2 1.3 3.2 1.2l14.2-1.8c2-.2 3.8 1.2 4.1 3.2.1.8-.1 1.6-.5 2.3l-7.2 12.3c-.6 1-.7 2.3-.2 3.4l6.1 13c.8 1.9-.1 4-2 4.8-.6.4-1.4.4-2.1.3zM455.5 970l-14-3.1c-1.2-.3-2.4.1-3.3.9l-10.5 9.8c-1.5 1.4-3.8 1.3-5.2-.2-.5-.6-.9-1.3-1-2.1l-1.4-14.3c-.1-1.2-.8-2.3-1.9-2.8l-12.5-6.9c-1.8-1-2.4-3.2-1.4-5 .4-.7 1-1.3 1.7-1.6l13.1-5.7c1.1-.5 1.9-1.5 2.1-2.7l2.7-14.1c.4-2 2.3-3.3 4.3-2.9.8.2 1.5.6 2 1.2l9.5 10.7c.8.9 2 1.3 3.2 1.2l14.2-1.8c2-.2 3.8 1.2 4.1 3.2.1.8-.1 1.6-.5 2.3l-7.2 12.3c-.6 1-.7 2.3-.2 3.4l6.1 13c.8 1.8 0 4-1.9 4.8-.5.5-1.3.6-2 .4zM977.7 339l-8.9-2c-.7-.2-1.5 0-2.1.6l-6.7 6.3c-.9.9-2.4.8-3.3-.1-.3-.4-.6-.9-.6-1.4l-.9-9.1c-.1-.8-.5-1.4-1.2-1.8l-8-4.4c-1.1-.6-1.5-2-.9-3.2.3-.4.6-.8 1.1-1l8.4-3.7c.7-.3 1.2-.9 1.4-1.7l1.7-9c.3-1.3 1.5-2.1 2.8-1.8.5.1.9.3 1.2.7l6.1 6.8c.5.6 1.2.9 2 .8l9.1-1.1c1.3-.2 2.4.7 2.6 2 .1.5 0 1-.3 1.5l-4.6 7.9c-.4.7-.4 1.5-.1 2.2l3.9 8.3c.5 1.2 0 2.6-1.2 3.1-.6.1-1 .2-1.5.1zM340.5 293l-8.8-1.9c-.7-.2-1.5 0-2.1.6l-6.6 6.1c-.9.9-2.4.8-3.3-.1-.3-.4-.6-.8-.6-1.4l-.9-9c-.1-.8-.5-1.4-1.2-1.8l-7.9-4.4c-1.1-.6-1.5-2-.9-3.1.2-.4.6-.8 1.1-1l8.3-3.6c.7-.3 1.2-.9 1.3-1.7l1.7-8.8c.2-1.3 1.4-2.1 2.7-1.9.5.1 1 .4 1.3.8l6 6.7c.5.6 1.2.9 2 .8l8.9-1.1c1.3-.1 2.4.8 2.6 2 .1.5 0 1-.3 1.4l-4.6 7.8c-.4.7-.4 1.5-.1 2.1l3.8 8.2c.6 1.1.1 2.5-1 3.1-.3.3-.9.4-1.4.2zM1065.8 2393l-8.8-1.9c-.7-.2-1.5.1-2.1.6l-6.6 6.1c-.9.9-2.4.8-3.3-.1-.3-.4-.6-.8-.6-1.4l-.9-9c-.1-.8-.5-1.4-1.2-1.8l-7.9-4.4c-1.1-.6-1.5-2-.9-3.1.2-.4.6-.8 1.1-1l8.3-3.6c.7-.3 1.2-.9 1.3-1.7l1.7-8.8c.2-1.2 1.4-2.1 2.7-1.9.5.1 1 .4 1.3.8l6 6.7c.5.6 1.2.9 2 .8l8.9-1.1c1.3-.1 2.4.8 2.6 2 .1.5 0 1-.3 1.4l-4.6 7.8c-.4.7-.4 1.5-.1 2.1l3.8 8.2c.5 1.2 0 2.5-1.2 3-.3.3-.7.4-1.2.3zM66.8 271.2l-4.2-7.5c-.4-.6-1-1-1.7-1.1l-8.6-.8c-1.2-.1-2.1-1.2-2-2.4 0-.5.2-.9.6-1.3l5.9-6.3c.5-.5.7-1.3.5-2l-1.9-8.4c-.3-1.2.5-2.4 1.7-2.6.5-.1 1-.1 1.4.2l7.8 3.6c.7.3 1.4.3 2.1-.1l7.4-4.3c1-.6 2.4-.3 3 .8.2.4.4.9.3 1.4l-1 8.6c-.1.7.2 1.4.7 1.9l6.5 5.7c.9.8 1 2.2.2 3.1-.3.4-.7.6-1.2.7l-8.5 1.7c-.7.1-1.3.6-1.6 1.3l-3.4 7.9c-.5 1.1-1.7 1.7-2.9 1.2-.5-.4-.9-.8-1.1-1.3zM607.9 2383.3c3.8-13.5 15.8-23.1 29.8-23.9 9-.4 83.3 18 89.9 19.6 3.6.9 5.9 4.2 5.1 7.4-.8 3.2-4.4 5.1-8 4.2-18.5-4.6-78.3-19.6-85.9-19.2-9.1.5-16.2 8-18.1 16.2-3.3 14.4 10.1 20.3 14.6 22.1 3 1.2 4.7 4.2 4.1 7-.9 3.6-5.2 5.5-9.1 3.9-6.5-2.5-29.1-12.8-22.4-37.3z"/><path d="M709.5 2375.3l7.8 13-14.5-3.6-7.9-13.1s14.3 3.9 14.6 3.7zM678.7 2367.7l7.8 13-14.6-3.6-7.9-13.1c.1 0 14.3 3.9 14.7 3.7zM649.8 2361.8l7.8 13-14.5-3.6-6.3-11.6c0 .1 12.6 2.5 13 2.2zM615.1 2370l17 2.7-9.3 9-14-.7s6.2-10.6 6.3-11zM619.4 2393.7l-11.5 7c1.2 2.8 2.8 5.4 4.7 7.8 1.8 2.1 3.9 4 6.2 5.5 1.5-4 3-8 4.4-12l-3.8-8.3zM632.3 2409c-.1.6-2.1 11.8-2.1 11.8s8.1.9 9.1-3.9-7-7.9-7-7.9z"/><path class="prefix__st0" d="M324.1 26.9c-6.1 13.7-2.8 29.7 8.2 39.9 7.1 6.4 80.6 42.1 87.1 45.2 3.6 1.7 7.7.6 9.3-2.6 1.5-3.2-.1-7.2-3.7-8.9-18.3-8.8-77.6-37.4-83.5-42.9-7.1-6.6-7.8-17.6-3.8-25.7 7.1-14.1 22.1-9.7 27-8.2 3.3 1 6.8-.2 8.1-3 1.8-3.5-.5-8.1-4.8-9.4-7.1-2-32.8-9-43.9 15.6z"/><path d="M401.9 102.9l15.3-5.3-14.4-7-15.4 5.4s14.4 6.4 14.5 6.9zM371.5 88.1l15.3-5.3-14.4-7-15.4 5.3s14.3 6.5 14.5 7zM343.7 73.1l15.3-5.3-14.4-7-13 5.2s12 6.7 12.1 7.1zM320.8 42.8l15.8 9.4-1.5-13.7-12-8.9c.1 0-2 12.8-2.3 13.2zM340.6 26.3l-4.7-13.6c5.5-2.9 11.8-4.1 18-3.5l-4.6 12.9-8.7 4.2zM361.6 22.6c.3-.6 6.3-11.1 6.3-11.1s7.2 4.8 4.8 9.4-11.1 1.7-11.1 1.7z"/><path class="prefix__st0" d="M343.7 1146.8c12.5 10.1 18.5 28.3 12.1 44.8-3.9 10.2-60.4 84.1-65.4 90.6-2.8 3.6-7.6 4.6-10.7 2.1-3.2-2.4-3.5-7.3-.8-11 14-18.3 59.7-77.7 62.9-86.3 3.9-10.4-1-21.9-9.3-28-14.4-10.7-27.5 1.4-31.7 5.5-2.9 2.8-7 3.2-9.8 1.1-3.6-2.7-3.6-8.5.1-12 6.2-5.9 28.7-26 52.6-6.8z"/><path d="M303.5 1264l-18.2 2.4 11-14.4 18.4-2.5s-11.3 13.9-11.2 14.5zM326.9 1233.3l-18.2 2.5 11-14.4 18.4-2.5c-.1-.1-11.3 13.9-11.2 14.4zM347.4 1203.9l-18.2 2.5 11-14.4 15.9-1.4c0-.1-8.7 12.8-8.7 13.3zM355.2 1161.3l-11.3 17.7-5.5-14.7 7.6-15.2s8.7 12 9.2 12.2zM326.6 1154.7l-2.2-16.2c-7.1-.1-14.1 1.9-20.1 5.7l11.3 10.7 11-.2zM303.4 1161.7c-.6-.4-12.1-8.1-12.1-8.1s-4.9 8.6-.1 12 12.2-3.9 12.2-3.9z"/><circle class="prefix__st0" cx="617.1" cy="68.6" r="8.6"/><circle class="prefix__st0" cx="316" cy="113.3" r="6.5"/><path class="prefix__st1" d="M489.8 445.2s12.2.4 12.6 5.4M494 438.2s13.5.3 13.8 7.9"/><path class="prefix__st0" d="M190.6 365.9l176.2-40.3c6.6-1.5 13.1 2.6 14.6 9.2l25.3 110.4c1.5 6.6-2.6 13.1-9.2 14.6l-176.2 40.3c-6.6 1.5-13.1-2.6-14.6-9.2l-25.3-110.4c-1.5-6.6 2.6-13.1 9.2-14.6zM475.9 499.9l-175 40c-6.9 1.6-15.8 1.2-19.8-.8L217 507.5c-4-2-1.7-4.9 5.2-6.5l175-40c6.9-1.6 15.8-1.2 19.8.8l64.1 31.6c4 2 1.7 4.9-5.2 6.5z"/><path class="prefix__st0" d="M483.1 495.3c4.1 3 3.9 13.8-4.5 16l-175 40c-6.9 1.6-15.8 1.2-19.8-.8l-64.1-31.6c-6.5-3.1-7.2-14.1-2.5-16.8M201.9 375.2l158.8-36.3c5.8-1.3 11.5 2.3 12.9 8.1l20.7 90.6c1.3 5.8-2.3 11.5-8.1 12.9l-158.8 36.3c-5.8 1.3-11.5-2.3-12.9-8.1l-20.7-90.6c-1.3-5.8 2.3-11.6 8.1-12.9z"/><path class="prefix__st1" d="M241.3 505.9l163-37.3M332.9 493.3c27.4-6.6 55-12.9 82.4-18.8M252.3 511.7c14.9-3.7 29.2-7 44.6-10.2M392.9 488.8c11.9-2.8 24.2-5.6 36.4-8.3M266.4 517.8c33.1-7.6 64.8-14.9 97.7-22.3M395.3 509.1l-42 9.6c-1.6.4-3.2.3-4.8-.2l-15.4-7.6c-1-.5-.4-1.2 1.2-1.5l42-9.6c1.6-.4 3.2-.3 4.8.2l15.4 7.6c1 .4.4 1.1-1.2 1.5zM268.8 405.8l55.3-35.2-3.7 55.2-23.7-10.8 9.3-20.8-20.2 16z"/><path class="prefix__st1" d="M286 409.7l8.5 19.3 2.2-14.3M302.8 418.4l-8.3 10.6M271.2 417.5l-20.5 24.2M278 436.6l-16.1 25M308.8 428.3L296 454.8"/><path class="prefix__st0" d="M432.3 325.1s6.9-20.1 15-18.1 13.5 30.3 13.5 30.3M402.6 335.2s-19.7-24.1-23.4-6.2"/><path class="prefix__st1" d="M412 383.6s-2.2-6.6 3.6-9.2c5-2.2 7.7 3.5 7.7 3.5M443.4 369.4s-.8-6.8 5.1-8.6 7.9 4.6 7.9 4.6M421.7 386.2s4.6 8 12 4.1c8.3-4.3 2.9-11.9 2.9-11.9s-5.4-.1-4-1.6 4.9-2.5 4.9-1c0 1-.3 1.9-.9 2.6M438.8 384.5c3 1.4 6.5 1.5 9.5.3 5.2-2.1 4.8-7.6 4.1-10.4M469 366.2l-9.3 5.4M460.2 376l8.6-1.3M460.8 380.2l6.2 2M405.5 388.5l10.7-.3M418.1 392.2l-7.9 3.4M419.9 396l-4.1 5"/><path class="prefix__st0" d="M431.9 440.3s51 9.6 47.6 25.1-41.4 6.4-41.4 6.4"/><path class="prefix__st1" d="M457.8 462.6s16 1.5 16.3 9.1M466 457.5s12 2.3 12.3 9.9"/><path class="prefix__st0" d="M470.7 453.2s39.6 5.4 39.3-10.5c-.3-18.1-62.3-14.2-62.3-14.2s11.7-10.9 9.4-22.8M413.9 446s16.3-.3 27.1-13.9"/><path class="prefix__st0" d="M396.4 401.6c13.3 11.7 33.5 14.9 50.1 8.9 24.8-9.1 33.8-35.8 23.6-58.7-8-17.9-21-20.5-27.5-21.8"/><path class="prefix__st0" d="M411.2 349.4s1.2 8.8 7.9 4.8c7.6-4.5-.4-8.3-.4-8.3s13.2 7.7 15.5-2.4c1.9-8.3-13.3-8.3-13.3-8.3s16.2-2 9.9-10.7c-7.6-10.4-18.3 7-18.3 7-11.2 3.7-20.5 11.7-26 22.1M200.7 469.6s-37.7 3.6-38.3 44.4c-.6 42.8 47 52.7 55.7 37.1 11.4-20.4-32.9-18.6-34.7-39.5-2.2-25.6 23.2-21.2 23.2-21.2"/><ellipse class="prefix__st0" cx="54.1" cy="335.1" rx="28.7" ry="16"/><path class="prefix__st0" d="M27.5 326.3s-11.6-21.2-17.4-14.7 5.1 9.5-1 14 6.5 12.6-.3 15.7-3.1 9.2 3.8 9.9 14-9.2 14-9.2M79.6 325.9s10.4-21.8 16.5-15.6-4.6 9.8 1.8 13.9-5.8 13 1.2 15.6 3.6 9-3.2 10.1-14.5-8.4-14.5-8.4"/><path class="prefix__st1" d="M41.2 321.5s-8.5 10.2-2 27M66.4 321.2s10.6 13.6-1 28"/><path d="M53.1 330.7s-3.1-4.8-6.8.3 7.8 11.3 7.8 11.3 13.7-8.2 8.2-13.3c-5.1-4.8-9.2 1.7-9.2 1.7z"/><ellipse transform="rotate(-78.381 326.513 613.101)" class="prefix__st0" cx="326.5" cy="613.1" rx="16" ry="28.7"/><path class="prefix__st0" d="M302.2 599s-7.1-23.1-14.1-17.9 3.1 10.4-3.8 13.5 3.8 13.7-3.5 15.3-4.9 8.4 1.7 10.5 15.6-6.2 15.6-6.2M353.4 609.1s14.5-19.2 19.4-12-6.5 8.7-1 14-8.2 11.5-1.9 15.6 1.7 9.6-5.1 9.2-12.5-11.2-12.5-11.2"/><circle cx="319.5" cy="604.9" r="3.2"/><circle cx="336.4" cy="608.8" r="3.2"/><path d="M323.6 615.5l3.8-2-2.1-.5 2.8 3.7c1.1 1.5 3.8 0 2.6-1.5l-2.8-3.7c-.4-.7-1.3-.9-2-.5l-3.8 2c-1.7.8-.2 3.3 1.5 2.5z"/><ellipse transform="rotate(-58.062 494.065 67.923)" class="prefix__st0" cx="494.1" cy="67.9" rx="16.1" ry="28.7"/><path class="prefix__st0" d="M477.8 48.6s1.5-24.1-6.9-21.7-.8 10.8-8.3 11.3-1.3 14.1-8.6 13.1-7.5 6.2-2.1 10.4 16.8-.3 16.8-.3M522.1 76.1s20.4-12.9 22.3-4.4-9.1 5.9-5.9 12.7-11.8 7.9-7.3 13.9-1.8 9.5-8.1 6.8-7.8-14.8-7.8-14.8"/><path class="prefix__st1" d="M491.9 51.9s-12.7 4.1-16.1 21.7M513.5 65s1.7 17.2-15.8 23.1"/><path d="M497.1 66s0-5.7-6-3.3.6 13.7.6 13.7 15.9.4 14-6.9c-1.7-6.8-8.6-3.5-8.6-3.5z"/><ellipse transform="rotate(-81.952 1002.882 797.274)" class="prefix__st0" cx="1002.9" cy="797.2" rx="16" ry="28.7"/><path class="prefix__st0" d="M980.4 784.8s-8.8-20.6-15.5-15 3.7 10.2-3 13.7 4.6 13.4-2.6 15.5-4.3 8.7 2.3 10.3 15.2-7.1 15.2-7.1M1030.8 792.4s14.3-18.7 19.5-11.7-5.9 9.1-.2 14-7.5 12-1 15.7 2.3 9.4-4.6 9.5-17.1-12.2-17.1-12.2"/><path class="prefix__st1" d="M993.5 781.4s-9.2 11.5-5.1 29M1019.3 787.3s8.2 11.8-5.3 24.4"/><path d="M1004.8 794.8s-2.4-5.2-6.8-.6 6.2 12.3 6.2 12.3 14.7-6.2 10-12c-4.4-5.5-9.4.3-9.4.3z"/><path class="prefix__st0" d="M546.2 192.7h-1.8c.6 1.1 1.1 2.2 1.5 3.4 3.8 11.6-3.8 24.6-15.9 23.6-2.9 4.1-7.3 6.8-12.3 7.3-2 .3-4 .2-5.9-.1-4.5 4.9-11.4 7.9-18.1 6.7-7.3 29 10.3 58.5 39.4 65.7 29 7.3 58.5-10.3 65.7-39.4s-10.3-58.5-39.4-65.7c-4.3-.9-8.8-1.5-13.2-1.5z"/><circle class="prefix__st0" cx="546.2" cy="246.9" r="18.8"/><path class="prefix__st1" d="M590.4 236.7c-4.2-3.7-12.1-3.7-11.2-15.5.8-10.5-9-23-20.2-18.3-6.4 2.6-8.6 6.4-13.2 5.9-2.3 6.7-8.2 11.6-15.8 11-2.3 3.3-5.6 5.7-9.5 6.7-.8 10.1-21.9 6.5-23.3 17.6-1.6 12.7 15.1 7.8 16.5 22.9.9 10.2 4.6 24 19.2 17.5 24.3-10.8 7.5 14.6 30.5 7.1 21.2-6.9 3.1-26.8 17.2-29.3 15.3-2.6 19.7-16.8 9.8-25.6z"/><path class="prefix__st1" d="M554.9 274.6l8.4-1c1.3-.2 2.5.8 2.7 2.1.2 1.3-.8 2.5-2.1 2.7l-8.4 1c-1.3.2-2.5-.8-2.7-2.1-.1-1.3.8-2.5 2.1-2.7zM558.6 220.2l8.4-1c1.3-.2 2.5.8 2.7 2.1.2 1.3-.8 2.5-2.1 2.7l-8.4 1c-1.3.2-2.5-.8-2.7-2.1-.1-1.3.8-2.5 2.1-2.7zM524.8 268.6l7.8 3.2c1.2.5 1.8 1.9 1.4 3.1-.5 1.2-1.9 1.8-3.1 1.3L523 273c-1.2-.5-1.8-1.9-1.3-3.1.5-1.2 1.9-1.8 3.1-1.3zM570.3 240.6l3.3-7.8c.5-1.2 1.9-1.8 3.1-1.3 1.2.5 1.8 1.9 1.3 3.1l-3.3 7.8c-.5 1.2-1.9 1.8-3.1 1.3-1.2-.5-1.8-1.9-1.3-3.1z"/><circle transform="rotate(-45.001 514.983 243.721)" class="prefix__st1" cx="515" cy="243.7" r="3"/><circle class="prefix__st1" cx="582.2" cy="250.3" r="3"/><circle class="prefix__st1" cx="555" cy="213.7" r="2.6"/><circle class="prefix__st0" cx="492.6" cy="210.4" r="7.4"/><circle class="prefix__st0" cx="524.9" cy="200.4" r="3.8"/><circle class="prefix__st0" cx="527.4" cy="157.6" r="5.8"/><circle cx="8.5" cy="461.1" r="6.9"/><path d="M121.9 412.8c-.4-.7-1.2-1.1-2-.7-.7.4-1.1 1.2-.7 2 0 .1.1.1.1.2 5.4 9.4 6 22 4.3 34.8 0 0 0-.1-.1-.1-1.7-2-17.1-19.5-30.1-15.1-8.1 2.7-12.6 12.6-13.6 30.3-1 16.5-6.9 25-11.6 27.4-1.6 1-3.6.9-5.1-.1-2.5-1.8-4.9-7.1-4-16.7 1.2-12-2.6-22-10.1-26.8-4.8-3.3-11-3.5-16.1-.7-6.8 3.9-10.4 12.8-9.9 24.4.7 14.5-2.5 17.8-3.9 18.6-2.1 1.2-5.6-.7-6.6-1.4-1.6-1.1-3.7-.8-4.9.8-.5.7-.7 1.4-.6 2.2-3-2.7-5.4-5.9-7.3-9.5v5.8c5.9 8.2 15.5 14.3 28.7 18.4.1 0 .3.1.4.1.8 0 1.5-.7 1.5-1.5 0-.7-.4-1.3-1.1-1.5-5.3-1.5-10.4-3.7-15.1-6.6 2.8.8 5.7.6 8.3-.7 5.7-3.1 8.2-11.3 7.6-25.1-.4-8.9 1.9-15.5 6.4-18 2.8-1.5 6.2-1.3 8.8.5 2 1.3 8.3 6.5 7 20.3-1.1 10.9 1.5 19.3 6.9 23.1 1.9 1.3 4.2 2.1 6.5 2 2 0 3.9-.5 5.7-1.4 3.3-1.6 14.1-8.7 15.6-33.3.8-13.9 3.9-22.4 8.8-24.1 7.2-2.4 19 8.9 22.5 13 1.2 1.4 3.1 1.6 4.6.6-4.2 24.2-15.5 48-17.6 52.3-2 .3-4 .6-6.1.8 3.4-2 4.6-6.5 2.6-9.9-2-3.4-6.5-4.6-9.9-2.6s-4.6 6.5-2.6 9.9c.9 1.5 2.3 2.6 3.9 3.2-6.3.6-12.6.9-18.9 1-.8 0-1.5.7-1.5 1.5s.7 1.5 1.5 1.5c10.8-.1 21.5-1 32.2-2.5.5-.1.9-.4 1.1-.8 5.6-11.5 10.3-23.4 13.9-35.7 7.9-26.4 8-46.6.5-59.9z"/><path d="M-.3 447.6c1.6-2.5 3.6-4.7 6.1-6.5 17.1-12 50.1-1.3 50.4-1.2h.5c.2 0 .3 0 .5-.1h.1c.1-.1.3-.1.4-.2.1-.1.2-.2.3-.4.1-.2.1-.3.2-.5 0-.3 3.1-26.6 18.7-36.6 6.9-4.4 15.3-5 25-1.7.8.3 1.6-.1 1.9-.9.3-.8-.1-1.6-.9-1.9-10.6-3.6-19.9-2.9-27.6 2-7 4.5-12.7 12.6-16.5 23.5-1.5 4.4-2.6 8.9-3.4 13.5-5.8-1.7-11.7-2.9-17.8-3.6-14.6-1.7-25.9.3-33.6 5.7-1.6 1.1-3.1 2.4-4.4 3.9l.1 5z"/><path d="M134.4 410c-4.5-11.1-12.8-18.8-24.7-22.8-13.4-4.5-25.6-4-36.3 1.6-17.2 9-24.9 28.4-27 34.3-5.7-1-11.4-1.4-17.2-1.4-11.7.1-21.8 2.5-29.6 7v4.7c9.1-6.1 20.9-7.6 30.5-7.6 5.8 0 11.6.5 17.2 1.6 1 .2 2.1-.4 2.3-1.4.1-.2 7-23.9 25.5-33.6 9.6-5 20.8-5.5 33.1-1.3 10.7 3.6 18.2 10.5 22.2 20.5 13.9 34.1-14.5 94.3-18.4 102.5-9.4 1.4-81.1 10.8-112.5-15.8v5.1c14.8 11 37.9 16.9 68.8 17.4h4.2c13.8 0 27.6-1 41.2-3 .6-.1 1.2-.5 1.5-1.1 1.5-2.8 34.7-68.6 19.2-106.7z"/><circle cx="107.3" cy="462.4" r="6.1"/><path d="M95.9 412.7c0 2.8 2.3 5.2 5.2 5.2s5.2-2.3 5.2-5.2-2.3-5.2-5.2-5.2c-2.9.1-5.2 2.4-5.2 5.2zM48.8 488.8c-2.7 0-4.9 2.2-4.9 4.9s2.2 4.9 4.9 4.9 4.9-2.2 4.9-4.9c-.1-2.7-2.2-4.9-4.9-4.9z"/><path class="prefix__st2" d="M650.7 1067.8c3.7 5.8 2.1 13.5-3.7 17.2-5.8 3.7-13.5 2.1-17.2-3.7-.1-.1-.1-.2-.2-.3-3.7-5.8-11.1-28.2-5.3-31.8s22.8 12.8 26.4 18.6z"/><path d="M642.1 1086.8c.1.3.3.6.4.8 1.8 2.6 5.4 3.1 7.9 1.3 2.3-1.7 3-4.8 1.7-7.3-.2-.3-.4-.5-.6-.7l-9.4 5.9z"/><path class="prefix__st2" d="M326 966.5c-5 4.8-12.8 4.6-17.6-.3-4.8-5-4.6-12.8.4-17.6l.4-.3c5-4.7 25.7-16.1 30.3-11.1s-8.5 24.7-13.5 29.3z"/><path d="M305.6 961.5c-2.6 1.7-3.4 5.2-1.7 7.8.2.3.4.5.6.8 2.1 2.3 5.7 2.4 8 .3.2-.2.4-.4.6-.7l-7.5-8.2z"/><path class="prefix__st2" d="M383 701.2c3-6.2 10.5-8.7 16.7-5.7 6.2 3 8.7 10.5 5.7 16.7-3 6.2-18.1 24.3-24.3 21.3s-1.1-26.2 1.9-32.3z"/><path d="M403.7 698.5c.2-.3.3-.5.5-.8 1.3-2.9.1-6.2-2.8-7.6-2.8-1.3-6.1-.2-7.5 2.6l-.3.9 10.1 4.9z"/><path class="prefix__st2" d="M313.7 787.8c-6-3.4-8.1-11-4.7-17 3.4-6 11-8.1 17-4.7 6 3.4 23.2 19.6 19.8 25.5s-26.1-.4-32.1-3.8z"/><path d="M312.3 767c-.2-.2-.5-.4-.8-.5-2.8-1.5-6.2-.4-7.7 2.4-1.4 2.7-.5 6 2.1 7.5.3.2.6.3.9.4l5.5-9.8z"/><path class="prefix__st2" d="M180.4 703.1c-6-3.4-8.1-11-4.7-17 3.2-5.6 10.1-7.9 16-5.2 6.1 3.1 24 18.5 20.9 24.6s-26 .8-32.2-2.4z"/><path d="M178.1 682.4c-.2-.2-.5-.4-.8-.5-2.8-1.3-6.2-.1-7.6 2.7-1.3 2.7-.2 5.9 2.4 7.4.3.1.6.3.9.3l5.1-9.9z"/><path class="prefix__st2" d="M241.3 803.5c-2.2 6.5-9.3 9.9-15.8 7.7s-9.9-9.3-7.7-15.8 15-26.3 21.5-24.1 4.2 25.7 2 32.2z"/><path d="M221.1 808.8c-.1.3-.3.6-.4.8-1 3 .6 6.2 3.5 7.2 3 1 6.2-.6 7.2-3.5.1-.3.2-.6.2-.9l-10.5-3.6z"/><path class="prefix__st2" d="M164.1 754.3c6.9-.3 12.7 5 13 11.9.3 6.4-4.3 11.9-10.6 12.8-6.8.6-30.2-2.8-30.8-9.6s21.5-14.5 28.4-15.1z"/><path d="M177.2 770.5h.9c3.1-.3 5.4-3.1 5.1-6.2s-3.1-5.4-6.2-5.1c-.3 0-.6.1-.9.2l1.1 11.1z"/><path class="prefix__st2" d="M440 865.3c-4.2-5.4-3.3-13.2 2.1-17.5 5.4-4.2 13.2-3.3 17.5 2.1.1.1.2.2.3.4 4.1 5.5 13.5 27.2 8 31.3s-23.8-10.8-27.9-16.3z"/><path d="M447 845.6c-.1-.3-.3-.5-.5-.8-2-2.4-5.6-2.8-8-.8-2.3 1.9-2.8 5.2-1.1 7.6.2.3.4.5.6.7l9-6.7z"/><path class="prefix__st2" d="M483.6 715.7c-5.1 4.6-13 4.1-17.6-1.1-4.4-5-4.1-12.6.7-17.2 5-4.7 25.7-16.1 30.3-11.1s-8.4 24.8-13.4 29.4z"/><path d="M463.3 710.8c-.3.2-.5.4-.7.6-2.2 2.2-2.2 5.8 0 8 2.1 2.1 5.5 2.3 7.7.3.2-.2.4-.4.6-.7l-7.6-8.2z"/><path class="prefix__st2" d="M375.8 849.7c-.8 6.8-7 11.7-13.8 10.9-6.8-.8-11.7-7-10.9-13.8 0-.2 0-.3.1-.5.9-6.8 9.6-28.8 16.4-27.8s9.1 24.4 8.2 31.2z"/><path d="M356.9 858.7c-.9 3 .7 6.2 3.8 7.1 3 .9 6.2-.7 7.1-3.8.1-.3.2-.6.2-.9v-.9l-11.1-1.5z"/><path class="prefix__st2" d="M461.9 756.5c6.8.6 12 6.6 11.4 13.4s-6.6 12-13.4 11.4l-.7-.1c-6.8-.7-29-8.7-28.3-15.5s24.2-9.9 31-9.2z"/><path d="M471.5 775.1c.3.1.6.1.9.2 3.1.7 6.1-1.3 6.8-4.3.7-3.1-1.3-6.1-4.3-6.8-.3-.1-.6-.1-.9-.1h-1.3l-1.2 11z"/><path class="prefix__st2" d="M572.6 1115.2c2.1-6.6 9-10.2 15.6-8.2 6.5 2 10.1 8.8 8.2 15.3-2 6.6-13.9 26.9-20.5 24.9s-5.2-25.4-3.3-32z"/><path d="M592.7 1109.2c.1-.3.3-.6.3-.9.9-3-.7-6.2-3.7-7.1s-6.2.7-7.1 3.7c-.1.3-.2.7-.2 1l10.7 3.3z"/><path class="prefix__st2" d="M407.3 1086.5c5.6-3.9 13.4-2.5 17.3 3.1 3.9 5.6 2.5 13.4-3.1 17.3l-.4.3c-5.7 3.8-27.9 11.9-31.7 6.2s12.2-23.1 17.9-26.9z"/><path d="M426.6 1094.5c.3-.1.6-.3.8-.4 2.6-1.7 3.3-5.3 1.6-7.9-1.7-2.6-5.3-3.3-7.9-1.6-.3.2-.5.4-.7.6l6.2 9.3z"/><path class="prefix__st2" d="M321.8 1030.8c5.7-3.8 13.4-2.3 17.3 3.4 3.8 5.7 2.3 13.4-3.4 17.3-5.7 3.8-27.9 11.9-31.7 6.2s12.1-23.1 17.8-26.9z"/><path d="M341.1 1038.9c.3-.1.6-.3.8-.4 2.6-1.8 3.1-5.4 1.3-7.9-1.7-2.4-5.1-3.1-7.6-1.5-.3.2-.5.4-.7.6l6.2 9.2z"/><path class="prefix__st2" d="M272.1 870.8c6.4 2.5 9.5 9.8 7 16.2-2.5 6.4-9.8 9.5-16.2 7-6.4-2.5-25.6-16.2-23.1-22.5s25.9-3.2 32.3-.7z"/><path d="M276.4 891.3c.3.2.5.3.8.4 3 1 6.2-.5 7.2-3.5 1-2.8-.4-5.9-3.1-7.1l-.9-.3-4 10.5z"/><path class="prefix__st2" d="M172.2 604.4c6.4 2.4 9.7 9.5 7.4 16-2.4 6.4-9.5 9.7-16 7.4-.2-.1-.4-.1-.6-.2-6.4-2.5-25.6-16.2-23.1-22.5s25.9-3.2 32.3-.7z"/><path d="M176.5 624.9c.3.2.5.3.8.4 3 1 6.2-.5 7.2-3.5 1-2.8-.4-5.9-3.1-7.1l-.9-.3-4 10.5z"/><path class="prefix__st2" d="M348.6 684.8c4.2 5.4 3.3 13.2-2.1 17.5-5.3 4.2-12.9 3.4-17.2-1.8-4.3-5.3-14.4-26.7-9.1-31s24.1 10 28.4 15.3z"/><path d="M342.3 704.7c.2.3.3.5.5.8 1.7 2.6 5.3 3.3 7.9 1.6 2.6-1.7 3.3-5.3 1.6-7.9-.1-.2-.3-.4-.5-.6l-.2-.2c-.2-.2-.4-.5-.6-.7l-8.7 7z"/><path class="prefix__st2" d="M496.9 1076.4c2 6.6-1.8 13.5-8.4 15.5-6.6 2-13.5-1.8-15.5-8.4-.1-.2-.1-.4-.2-.6l-.1-.4c-1.7-6.7-2-30.2 4.6-31.9s17.8 19.2 19.6 25.8z"/><path d="M482.8 1091.9c0 .3.1.6.1.9.5 3.1 3.4 5.2 6.5 4.7s5.2-3.4 4.7-6.5c0-.1 0-.2-.1-.3 0-.2-.1-.5-.2-.7l-.3-.9-10.7 2.8z"/><path class="prefix__st0" d="M583.4 388.9c-7.4 7.8-16.9 5.2-24.7-2.1s-11-16.7-3.6-24.5 29.9-19.1 37.7-11.7-2.1 30.5-9.4 38.3z"/><path class="prefix__st0" d="M553.1 380.4c-5.3-.7-8.8 2.9-9.6 3.7 1.9 3 5.9 3.2 6.8 3.4-2.2 2.5-2.1 5.5-1 8.7 2.6-.5 5-1.3 7.3-2.6-.2.7-.3 5.8 2.6 8.3 1-.5 6.1-4.4 6.5-9.1"/><path d="M588.2 359.6c-1.7 1.6-3.8 2-4.8 1s-.4-3.1 1.3-4.7 4.8-.9 4.8-.9.3 3.1-1.3 4.6zM569.1 384.5c-1.7 1.6-3.8 2-4.8 1s-.4-3.1 1.3-4.7 4.8-.9 4.8-.9.4 3.1-1.3 4.6zM582.1 383.8c-1.6 1.7-3.7 2.2-4.7 1.3s-.6-3.1 1-4.8 4.7-1.3 4.7-1.3.6 3.1-1 4.8zM576.6 366.8c-1.3 1.4-3 1.8-3.8 1s-.5-2.5.8-3.9 3.9-1 3.9-1 .4 2.5-.9 3.9zM560.7 370.6c-1.5 1.2-3.3 1.4-4.1.5s-.1-2.6 1.4-3.8 4-.5 4-.5.2 2.6-1.3 3.8z"/><path class="prefix__st0" d="M168.5 51.5c-7.4 7.8-16.9 5.2-24.7-2.1s-11-16.7-3.6-24.5 29.9-19 37.7-11.7-2 30.5-9.4 38.3z"/><path class="prefix__st0" d="M138.3 43c-5.3-.7-8.8 2.9-9.6 3.7 1.9 3 5.9 3.2 6.8 3.4-2.2 2.5-2.1 5.5-1 8.7 2.6-.5 5-1.3 7.3-2.6-.2.7-.4 5.8 2.6 8.3 1-.5 6.1-4.4 6.4-9.1"/><path d="M154.2 47.2c-1.7 1.6-3.8 2-4.8.9s-.4-3.1 1.3-4.7 4.8-.9 4.8-.9.4 3.1-1.3 4.7zM167.3 46.4c-1.6 1.7-3.7 2.2-4.7 1.3s-.6-3.1 1-4.8 4.7-1.3 4.7-1.3.5 3.2-1 4.8zM161.7 29.4c-1.3 1.4-3 1.8-3.9 1s-.5-2.5.8-3.9 3.9-1 3.9-1 .5 2.5-.8 3.9zM145.8 33.2c-1.5 1.2-3.3 1.4-4.1.5s-.1-2.6 1.4-3.8 4.1-.5 4.1-.5.1 2.7-1.4 3.8z"/><path d="M156.7 14.4s-5.4 9.5 5 9.7c18.6.4 2.3 13.4 12.4 14 6.7.4 12.4-24.8.4-26.6s-17.8 2.9-17.8 2.9z"/><path class="prefix__st0" d="M45.8 1960.5c-10.4 2.5-17-4.9-19.5-15.3s0-20 10.4-22.5 35.4.4 38 10.9-18.4 24.4-28.9 26.9z"/><path class="prefix__st0" d="M25.2 1936.8c-4.1-3.5-8.9-2.4-10.1-2.2-.1 3.6 3.2 5.9 3.9 6.6-3.2.9-4.8 3.4-5.6 6.8 2.4 1 4.9 1.6 7.5 1.8-.6.5-3.4 4.6-2.4 8.4 1.1.1 7.5-.3 10.4-4"/><path d="M36.3 1949c-2.3.4-4.3-.4-4.5-1.8s1.4-2.8 3.7-3.2 4.5 1.8 4.5 1.8-1.4 2.8-3.7 3.2zM47.6 1955.6c-2.2.5-4.3-.1-4.6-1.5s1.2-2.9 3.5-3.5 4.6 1.5 4.6 1.5-1.3 2.9-3.5 3.5zM52.3 1938.3c-1.8.4-3.5-.1-3.8-1.2s1-2.4 2.8-2.8 3.8 1.2 3.8 1.2-1 2.3-2.8 2.8zM36.9 1932.8c-1.9.2-3.5-.7-3.6-1.8s1.4-2.3 3.3-2.4 3.6 1.8 3.6 1.8-1.4 2.2-3.3 2.4z"/><path d="M56.3 1923s-9.7 5-1.2 10.8c15.3 10.5-5.5 12.5 2.7 18.5 5.4 4 23.9-13.9 14.9-22s-16.4-7.3-16.4-7.3z"/><path class="prefix__st0" d="M897.9 2137.2c-9 9.6-20.6 6.4-30.2-2.6s-13.4-20.4-4.4-30 36.6-23.3 46.1-14.3-2.5 37.4-11.5 46.9z"/><path class="prefix__st0" d="M860.9 2126.7c-6.5-.8-10.7 3.6-11.8 4.5 2.3 3.7 7.2 3.9 8.4 4.2-2.7 3-2.6 6.7-1.2 10.7 3.1-.6 6.1-1.6 8.9-3.2-.3.9-.4 7 3.2 10.1 1.2-.6 7.4-5.3 7.9-11.1"/><path d="M880.4 2131.9c-2.1 1.9-4.7 2.4-5.9 1.2s-.5-3.9 1.6-5.8 5.9-1.1 5.9-1.1.5 3.8-1.6 5.7zM896.3 2131c-1.9 2.1-4.5 2.8-5.8 1.6s-.7-3.8 1.2-5.9 5.8-1.6 5.8-1.6.8 3.9-1.2 5.9zM889.6 2110.2c-1.6 1.7-3.7 2.2-4.7 1.3s-.6-3.1 1-4.8 4.7-1.3 4.7-1.3.5 3.1-1 4.8zM870.1 2114.8c-1.8 1.4-4.1 1.7-5 .6s-.1-3.2 1.7-4.7 5-.6 5-.6.2 3.3-1.7 4.7z"/><path d="M883.4 2091.8s-6.6 11.6 6.1 11.9c22.7.5 2.8 16.4 15.2 17.2 8.2.5 15.1-30.3.5-32.6s-21.8 3.5-21.8 3.5z"/><path class="prefix__st0" d="M1079.2 677c4.2-13.2 5-28.6-2.4-40.8-4.1-6.8-10.5-12.6-18.7-13-8.8-.4-16.2 6.4-16.6 15.2v.9c.1 4.1 2.4 9.5 6.8 10.7 4 1 7.6-3 4.7-6.4M999.2 707.3c16.8 8.2 37.5 13.5 54.8 3.6 4.2-2.4 8.1-5.5 11.4-9.1M969.5 690.5c3.6 2 7.2 4.1 10.7 6.2M912.5 709.3c3.8-16.4 18.6-31.2 36.5-28M942.7 593.3c-33.3-2-34.1 37.7-14.4 42"/><path class="prefix__st0" d="M905.9 705.8s-7.3-49.1 33.1-51.3c48.7-2.6 56.4-44.6 19.5-57.7"/><path d="M74.3 583.8c-.7-.6-1.8-.6-2.6 0-8.5 7.2-19.1 11.3-30.1 11.8-6.4.3-12.8-1-18.6-3.8-.9-.4-2-.1-2.5.7-.4.7-.9 1.4-1.3 2.1L0 630.9v8.5l22.7-42.8c.1-.1.2-.3.2-.4 5.9 2.5 12.4 3.7 18.9 3.5 11.4-.5 22.3-4.6 31.2-11.7 10.6 9.9 13.3 25.8 6.6 38.7l-27.8 52.6C43.6 695 24.2 701 8.5 692.8c-3.1-1.7-6-3.8-8.4-6.4v5.5c15.3 12.9 38.1 11 50.9-4.3 1.7-2 3.1-4.2 4.4-6.5l27.8-52.6c7.8-15.1 4.1-33.7-8.9-44.7z"/><path d="M30.8 704.9c-5.5 0-10.9-1.2-15.9-3.5-.5.4-1 .5-1.6.4-1.1-.2-1.8-1.2-1.6-2.3l.2-1.2c.2-1.1 1.3-1.8 2.3-1.6.2 0 .4.1.6.2 16.1 8.5 35.2 3.2 43.3-12.3L85.9 632c8.7-16.5 4.9-30.8-11.1-42.4-.9-.7-1-1.9-.3-2.8.6-.8 1.8-1 2.7-.4 22.3 16.1 19 34.7 12.3 47.5l-27.8 52.6c-6.1 11.4-18 18.5-30.9 18.4zM1.9 689.9c-.6-.3-1.3-.3-1.9.1v7.9l2.8-5.3c.5-.9.1-2.1-.9-2.7z"/><path d="M12.7 695.3c-1-.5-2.2-.1-2.7.9L0 715.9v8.8L13.6 698c.5-1 .1-2.2-.9-2.7zM45.9 661.5c-.7 0-1.3-.1-1.9-.3-1.6-.4-2.8-1.5-3.4-3-1.5-4 2.3-10.1 6.8-17.3 3.6-5.8 8.1-13 7.2-16.1-.2-.6-.6-1-1.2-1.2-.7-.4-1.6-.5-2.3-.2-2.1 1-3.7 6-4.9 10-1.6 5.2-3.1 10.1-6.5 11.5-1.6.6-3.4.5-4.9-.4-1.4-.7-2.4-2-2.9-3.5-1.1-4.5 3.2-11 7.8-17.9 3.2-4.8 7.5-11.3 6.7-13.5 0-.1-.1-.4-.8-.6-5.8-2-11.2 13.2-15.5 25.4-4.2 11.7-7.8 21.9-12.9 24.3-1.4.7-3 .7-4.4.2-1.8-.6-3.2-2-3.8-3.8-1.6-4.9 3.2-12 8.2-19.4 2.6-3.8 8-11.9 6.5-12.9-.6-.4-.9-.3-1-.3-1.4.3-3.1 3.7-4.6 6.4-2.6 4.9-5.6 10.4-10.8 10-1.7 0-3.3-1-4.2-2.5-2.8-5.2 3.4-17.1 4.7-19.5.5-1 1.7-1.4 2.7-1s1.4 1.7 1 2.7c0 .1-.1.2-.1.2-3.2 5.8-5.9 13.5-4.7 15.6.1.2.2.4 1 .5 2.6.2 4.9-4.1 6.9-7.9s4.1-7.6 7.2-8.4c1.5-.3 3 0 4.2.9 4.7 3.2 0 10.3-5.5 18.4-3.9 5.7-8.7 12.9-7.7 15.9.1.4.4.9 1.4 1.3.4.2.9.2 1.3-.1 3.6-1.7 7.5-12.5 10.8-22 5.5-15.3 11.1-31.2 20.6-27.9 1.5.5 2.8 1.6 3.3 3.1 1.4 4.1-2.6 10.1-7.2 17-3.5 5.3-7.9 11.9-7.2 14.7.1.4.4.8.8 1 1 .5 1.4.3 1.5.3 1.7-.7 3.1-5.3 4.2-9 1.6-5.3 3.3-10.8 7.1-12.5 1.8-.8 3.9-.7 5.6.3 1.6.7 2.8 2.1 3.3 3.7 1.4 4.8-3 11.9-7.6 19.3-3.1 4.9-7.2 11.6-6.4 13.7 0 .1.1.3.8.5 3.5 1 6.7-7.8 9.5-15.6 3.8-10.5 7.6-21.4 15.5-21.4h.1c4.1 0 7 1.4 8.5 4 3.2 5.4-.9 13.8-1.4 14.7-.5 1-1.7 1.4-2.7.9s-1.4-1.7-.9-2.7c1-1.9 3.3-7.9 1.6-10.8-.8-1.3-2.5-2-5.1-2-5.1 0-8.6 10-11.8 18.8-3.4 9.5-6.6 18.4-12.5 18.4z"/><path class="prefix__st0" d="M843.1 1062.9c-27.9-14.2-101.1 9.7-128.1 38.6l-43.9-147.6c1.4-2 3-3.8 4.6-5.6"/><path class="prefix__st0" d="M843.3 1062.4c-21.2-20.6-97-13.3-126.8 20.7l-43.9-147.6c46.7-44.9 113.2-34.1 126.3-22.4l44.4 149.3zM908.4 876.7c7-.3 14-.1 21 .5l43.9 147.6c-19.3-5.1-93.5 6.2-128.7 38.3"/><path class="prefix__st0" d="M944.2 998.3c-61.4.9-94.5 43.9-99.7 64.8l-44.4-149.2c3.8-13.7 18.4-56.4 100.2-63.1l43.9 147.5z"/><path class="prefix__st1" d="M814.7 905.1c10.3-15 33.1-35.7 71.6-38.9M819.4 923.6c10.3-15 33.1-35.7 71.6-38.9M882.4 906.1c5-1.1 10-1.9 15.1-2.3M825.9 942.7c9.2-13.5 22.7-23.9 37.6-30.5M832.9 962.7c10.3-15 33.1-35.7 71.6-38.9M838.2 980.7c10.3-15 33.1-35.7 71.6-38.9M843 1003.5c10.3-15 33.1-35.7 71.6-38.9M877.4 997.5c13.1-7.2 27.6-11.6 42.5-12.7M848.3 1023.7c4.8-6.9 10.6-13 17.2-18.2"/><path class="prefix__st0" d="M888.8 1052.6l-44.3 10.5c-.4.1.4-.1 0 0l-128.6 46.5c-4.8 1.7-10-.5-11.3-5l-38-127.6c-1.2-4 1.3-8.5 5.7-10M935.2 888.8c4.6-1.1 9 1.2 10.2 5.3l37.9 127.6c1.3 4.4-1.8 9.2-6.8 10.4l-65 15.2"/><path class="prefix__st1" d="M688.7 938.5s43.2-38.1 99.2-19.2M727.5 941.3c21.5-8.2 45.2-8.6 67-1.2M695.3 959.4c4.1-3.5 8.6-6.5 13.3-9.2M700.6 978.7s43.2-38.1 99.2-19.3M707.2 999.5s43.2-38.1 99.2-19.3M784.2 996.5c9.7.3 19.4 2.1 28.6 5.2M713.6 1021c9.5-8.2 21.2-14.2 33-18.3 6.1-2.2 12.4-3.8 18.9-4.9M718.6 1039.6s43.2-38.1 99.2-19.2M724.2 1057.3s43.2-38.1 99.2-19.3"/><path class="prefix__st0" d="M592.3 954c16.1 11.5 16 29.5 11.7 38.7-5.4 11.8-27 10.4-47.6.8s-32.5-23.7-27.1-35.4c4.3-9.2 20.2-22.2 35.9-16.2"/><path class="prefix__st0" d="M600.5 996.8s-19.6 24.7-24.1 29.4c-3.7 3.8-18.3 4.3-30.8-1.4s-22.3-15.7-22.5-20.9c-.5-9.1 4.9-38.3 4.9-38.3"/><ellipse transform="rotate(-61.19 580.684 942.539)" class="prefix__st0" cx="580.7" cy="942.5" rx="13.4" ry="15.8"/><path class="prefix__st0" d="M621.3 907.7c-20.6 2-37 27.9-37 27.9M566.5 903.8s9-22.9 31.3-17.2c21.3 5.4 23.9 21.3 23.9 21.3s-8.5-3.7-26 2.4c-14.9 5.2-29.2-6.5-29.2-6.5zM581.5 933.4s-1.3 3 5.4 4.5M577.9 900.7s16.1-13.2 43.8 7.2M589.6 890.7l4.5 5M585.3 902.8l3.7-6.1"/><path d="M534.9 951c8.5-8.1 21.6-4.2 14.1 5.1-9.8 12.3 6.4 19.9 14.2 5.7s33.6-4.5 28.3 13.4c-6.1 20.8 16.3 13.6 14.7 4.6" fill="none" stroke="#000" stroke-width="8" stroke-linecap="round" stroke-linejoin="round"/><path class="prefix__st0" d="M533.5 990.1c-.3.7-4.7 22.2-4.7 22.2M558.8 1002.1l-4.3 9.3M552 1016.2l-4 9.5M568.5 1014.7l-7.1 13.3M543.7 1004.6l-5.3 16"/><circle cx="581.4" cy="976.9" r="3.2"/><circle cx="566.2" cy="970.6" r="3.2"/><path class="prefix__st0" d="M564 979.3c-4.3 5.3 5.3 15.9 12.8 5.9"/><ellipse transform="rotate(-80.822 709.33 729.479)" class="prefix__st0" cx="709.4" cy="729.5" rx="30.3" ry="23"/><path class="prefix__st0" d="M702.1 759l56.6 10.4c12 1.1 23.6-10.4 26.1-26.3s-2.6-29.7-14.3-32.5l-54.9-10.5"/><path class="prefix__st4" d="M689.6 722s6.7-15.2 21.2-11.1c16.8 4.8 5.6 40.6-8.9 37.1-14.9-3.7-7.6-25.5 3.5-21.6"/><circle cx="741.4" cy="731.7" r="4.7"/><circle cx="770.9" cy="736.4" r="4.7"/><path class="prefix__st1" d="M751.7 736.9s2 6.1 9.1 2.2"/><ellipse transform="rotate(-2.278 465.029 1624.373) scale(.99999)" class="prefix__st0" cx="465" cy="1624.4" rx="22.9" ry="30.2"/><path class="prefix__st0" d="M466.4 1654.6l-57.9 2.2c-12.1-.4-22.2-13.2-22.8-29.2s6.1-29.2 18.1-30.5l59.3-2.7"/><path class="prefix__st4" d="M484.1 1617.7s-6.2-15.6-21-13.3c-17.2 2.8-10.4 39.7 4.4 37.8 15.2-1.8 10.6-24.4-.9-21.9"/><circle cx="430.2" cy="1621.4" r="4.7"/><circle cx="400.3" cy="1622.6" r="4.7"/><path class="prefix__st1" d="M419.3 1625.3s-2.7 5.8-9.3 1"/><circle class="prefix__st1" cx="1092.3" cy="741.2" r="11.1"/><path class="prefix__st1" d="M501.3 1026.5c14.2 12.2 15.8 33.6 3.6 47.8M453.5 1030.1c8.5-9.9 21.9-14 34.5-10.6M457.1 1077.8c-9.9-8.5-14-21.9-10.6-34.5M525.9 690c.7 18.7-13.9 34.4-32.6 35.1M490.8 657.4c13-.5 25.1 6.5 31.2 18M458.2 692.5c-.5-13 6.6-25.2 18.1-31.3M268.1 1050.4c3.5-18.4 21.2-30.5 39.6-27M295.1 1090c-12.8-2.4-23.1-11.9-26.4-24.5M334.7 1063c-2.4 12.8-12 23.1-24.6 26.4M109.3 753.2c8.9-16.4 29.5-22.5 45.9-13.6h.1M122.9 799.1c-11.4-6.2-18.3-18.4-17.6-31.4M168.8 785.6c-6.2 11.5-18.5 18.3-31.5 17.6M554.5 1174.3c-12.9-13.6-12.3-35 1.3-47.9M602.4 1175.6c-9.4 9-23.2 11.7-35.3 7.1M603.6 1127.7c9 9.5 11.7 23.2 7.1 35.4"/><path class="prefix__st0" d="M680.2 526.6c6.2-8.8 16-7.5 24.7-1.3s13.2 15 7 23.8-27 23-35.7 16.8-2.2-30.6 4-39.3z"/><path class="prefix__st0" d="M711.3 531c5.4-.1 8.3-4.1 9-5-2.3-2.8-6.3-2.3-7.2-2.4 1.8-2.8 1.3-5.7-.2-8.8-2.5.8-4.8 2-6.9 3.6.1-.7-.4-5.8-3.7-7.9-.9.7-5.4 5.2-5.2 9.9"/><path d="M694.9 529c1.5-1.8 3.5-2.5 4.6-1.6s.8 3.1-.7 4.8-4.6 1.6-4.6 1.6-.7-3 .7-4.8zM682.1 531.5c1.3-1.9 3.3-2.7 4.5-1.9s1 3-.3 4.9-4.5 1.9-4.5 1.9-1-3 .3-4.9zM690 547.6c1.1-1.5 2.7-2.2 3.7-1.6s.8 2.5-.3 4-3.7 1.6-3.7 1.6-.8-2.5.3-4zM705.2 541.6c1.3-1.4 3.1-1.8 4-1s.5 2.6-.9 4-4 1-4 1-.5-2.6.9-4z"/><path d="M697 561.8s4-10.1-6.2-8.9c-18.5 2.1-4.1-13-14.2-12.2-6.7.5-8.9 26.2 3.2 26.4s17.2-5.3 17.2-5.3z"/><path class="prefix__st0" d="M669.9 554.9c-36.8 23-85.3 66.4-78.2 72.9 3.8 3.5 31.7-1.9 63.2-10.4M708.5 601.3c24.2-8.2 43-16.1 44.6-20.2 3.8-9.5-18.5-30.9-37.5-37.9"/><path class="prefix__st0" d="M591.6 628.7s6.5 27.6 15.4 23.9c7.5-3.1-2.3-16 6.1-17.6 9.2-1.8 6.4 35 20.2 31.4s-10.5-35.3-2.4-37.7 1.6 22.7 17 18.3-5.3-17 10.5-23.5 10.5 29.2 22.3 23.5-1.8-19.2 7.7-23.9c14.6-7.3 11.3 31.3 26 22.3 10.5-6.5-13.4-28 8.5-36.1s10.5 31.2 23.9 20.3-10.5-31.2-1.6-37.3c7.4-5 8.1 19.1 14.2 14.6s-5.7-27.6-5.7-27.6"/><path class="prefix__st0" d="M607 652.6s6.1 21.5 10.2 23.9 52.8 2 98.6-14.6 49.9-32.5 49.9-32.5l-6.1-22.7"/><circle class="prefix__st0" cx="599.5" cy="694.1" r="7"/><circle class="prefix__st0" cx="747.9" cy="548.8" r="7.3"/><circle cx="657" cy="594.7" r="6.3"/><path d="M704.9 576.8c1.1 3.3-3.3.8-6.6 1.9s-4.2 5.4-5.3 2.1c-1-3.3.8-6.8 4.2-7.8 3.1-1 6.5.7 7.7 3.8z"/><path class="prefix__st1" d="M671.6 596.4s4.1 6.5 10-2.7M682.3 592.6s9.8 4.7 10.1-2.7"/><path class="prefix__st0" d="M869.4 1704.1c-42.1-10.9-117.6-20.4-117.4-10.7.1 5.2 23.2 21.7 51 38.7M851.6 1759.8c22.6 11.9 41.2 20.1 45.3 18.5 9.5-3.8 8.9-37.8.9-56.4"/><path class="prefix__st0" d="M751.3 1693.8s-15.6 23.7-6.8 27.7c7.4 3.3 10-12.7 17-7.6 7.6 5.5-21 28.8-8.8 36.3s18.3-31.9 25.7-27.7-15.4 16.8-1.5 24.9 8.7-15.6 24.3-8.5-13.9 27.8-1.7 32.4 12.7-14.5 22.7-10.9c15.3 5.6-15 29.8 1.7 34.2 12 3.2 11.1-29 32.1-18.7s-15.4 29.2 1.8 31.3 15.4-29.2 26-26.9c8.8 1.9-8.2 19-.8 20.4s16.2-23.1 16.2-23.1"/><path class="prefix__st0" d="M744.5 1721.4s-11.4 19.2-10.4 23.8 34.9 39.7 78.5 61.5 57.9 13.9 57.9 13.9l12.3-20.1"/><circle class="prefix__st0" cx="709.3" cy="1744.6" r="7"/><circle class="prefix__st0" cx="916.8" cy="1752.3" r="7.3"/><ellipse transform="rotate(-45.001 880.64 1717.003)" class="prefix__st0" cx="880.7" cy="1717" rx="16.6" ry="17"/><path class="prefix__st0" d="M884.8 1707.7s17.5-24 10.6-46.7M879.5 1706.1c2.4 2.6 5.9 3.6 9.3 2.8M825.1 1714.2c.8 1.2 4.5 9.8 4.5 9.8h-9.8M860 1731.7l-10.5 2 3.6 7.3M207.8 1140.4l-27.7 10.3-46.5-82 56.1-20.8zM118 1037.8s-26.8-16.2 12-56M108.8 1010.3c-5.7 3.1-42.8-19.3 12.2-60.6M177.6 1014.7s12-19-4.7-30.9"/><path class="prefix__st0" d="M103.9 964.6s-16.5-15.7.9-27.3c26-17.4 6.3-37.6 6.3-37.6s13.5-5 25.3 7.2c3.7 3.6 5.8 8.6 5.8 13.8-.1 4.6-1.5 9.1-3.9 12.9M160.8 997.5s34-25.6-4.6-47.1M143.5 964s30.3-24.2-.6-41.3M132.2 1000.6s-11.5-2.2-12.5 5.5c-1.2 9.7 20.3 6.9 20.3 6.9s11.4-19.8-.5-23c-7.9-2.1-7.3 10.6-7.3 10.6z"/><path class="prefix__st0" d="M134.5 943s-4.3-8.8-11.1-4.1c-8.5 5.9 5.1 17.4 5.1 17.4s22-6.3 18.3-16c-2.4-6.3-12.3 2.7-12.3 2.7z"/><ellipse transform="rotate(-20.311 156.77 970.248)" class="prefix__st0" cx="156.8" cy="970.2" rx="4.4" ry="3.7"/><ellipse transform="rotate(-20.311 119.34 978.085)" class="prefix__st0" cx="119.3" cy="978.1" rx="5.2" ry="4.4"/><ellipse transform="rotate(-20.311 96.22 916.094)" class="prefix__st0" cx="96.2" cy="916.1" rx="6.3" ry="5.4"/><path class="prefix__st0" d="M162.9 1021.6l3 8.2c1.3 3.4-1 7.4-5 8.9s-8.3-.1-9.6-3.5l-3-8.2-1.5.6 5.6 15.2c1.3 3.4-1 7.4-5 8.9s-8.3-.1-9.6-3.5l-5.6-15.1-22 8.1L122 1073l79.4-29.4-11.8-31.8-26.7 9.8z"/><ellipse transform="rotate(-68.304 896.958 697.867)" class="prefix__st0" cx="897" cy="697.9" rx="9.8" ry="49.1"/><path class="prefix__st0" d="M851.5 681.7l-12.8 16.2c-2.3 5.7 18.8 19.4 47 30.7s52.9 15.9 55.2 10.2l1.8-20.3"/><path class="prefix__st0" d="M844.3 707l-23.4 107c15.4 13 34.6 20.7 54.8 21.9 19.5-32.3 38.2-62.3 57.7-94.7M839.2 730.9s26.5 28.5 80.7 32.6M831.5 767.7s19.9 22.8 68.5 28.8"/><path d="M874.4 771.5c.8 3.8 2.7 7.2 1.9 11.2 2.3-1.7 4.1-4 5.2-6.7 2.2-5.6 1-11.5-2.7-14.4-5.3.1-5.3 6.1-4.4 9.9zM867.2 784c1.2.5 2.5.7 3.8.6.3-.5.6-1.1.8-1.6 1.6-4.2-1.4-8.4-1.9-12.6s.4-8.2 2.9-10.6c-4.2.4-8.4 3.6-10.4 8.6-2.7 6.5-.5 13.5 4.8 15.6z"/><path class="prefix__st0" d="M727.5 2344.7l32.2-129.3c1.6-6.5 8.2-10.5 14.8-8.9l191.9 47.8c6.5 1.6 10.5 8.2 8.9 14.8L943 2398.4c-1.6 6.5-8.2 10.5-14.8 8.9l-191.9-47.8c-6.4-1.6-10.4-8.2-8.8-14.8zM727.6 2340.8l-50.6-66.3c-2.9-3.9.7-5.6 8.1-3.7l56.6 13.7"/><path class="prefix__st0" d="M738.4 2360c-7.4-1.8-15.1-7.4-18.1-11.3l-46.5-61.9c-4.8-6.1-.1-17.1 5.8-17.4"/><path class="prefix__st1" d="M835.8 2283.9l70.6-6.9-30.5 51.4-17.7-22 19.2-15.5-27.4 5.5z"/><path class="prefix__st1" d="M850.5 2296.1l-1.3 22.8 9.2-12.7M862.5 2312.7l-13.3 6.2M832.4 2296.4l-31.7 13.4M829.6 2318.1l-27.8 16.3M863.4 2325.2l-25.2 19.4"/><path class="prefix__st0" d="M955.4 2348.8s110.6-.6 86-117c-18.3-86.6-186.3 5.4-222.6-90.4-24.4-64.4 58.8-60.1 56.3-134.1"/><path d="M731.5 1961.8c-6.2-32.2 14.9-63.2 47.1-69.4 32.2-6.2 63.2 14.9 69.4 47.1" fill="none" stroke="#000" stroke-width="9" stroke-linecap="square" stroke-linejoin="round"/><path class="prefix__st0" d="M724.3 1968l13.2-2.5c4.1-.8 8.1 1.9 8.9 6l10.3 53.8c.8 4.1-1.9 8.1-6 8.9l-13.2 2.5c-4.1.8-8.1-1.9-8.9-6l-10.3-53.8c-.9-4.1 1.8-8.1 6-8.9zM843.1 1945.2l13.2-2.5c4.1-.8 8.1 1.9 8.9 6l10.3 53.8c.8 4.1-1.9 8.1-6 8.9l-13.2 2.5c-4.1.8-8.1-1.9-8.9-6l-10.3-53.8c-.9-4.1 1.9-8.1 6-8.9zM868.3 1956.4c5.6-1.1 11 2.6 12.1 8.2l3.7 19.3c1.1 5.6-2.6 11-8.2 12.1l-.5.1M725.7 2020.7c-5.6 1.1-11-2.6-12.1-8.2l-3.7-19.3c-1.1-5.6 2.6-11 8.2-12.1l.5-.1M935 260.4l-66.7-19.2c-4.8-1.4-7.5-6.4-6.2-11.1l25.6-88.9M1001.7 259.2l-2.9 10.1c-1.4 4.8-6.3 7.5-11.1 6.2l-22.3-6.1M1024.1 181l-16.8 56M948.2 157.8l-69.7-20L886 112c1.4-4.8 6.4-7.5 11.1-6.2l137.9 39.7c4.8 1.4 7.5 6.4 6.2 11.1l-7.4 25.8-69.7-20.4"/><path transform="rotate(-73.961 946.971 192.06)" class="prefix__st0" d="M877.1 184.1h139.7v15.8H877.1z"/><path class="prefix__st0" d="M972.5 117.8s25.3-51.4 55-41.7-55 41.7-55 41.7z"/><path class="prefix__st0" d="M978 129.1s15.3 2.1 39.1-7 22.8-23.7 22.8-23.7l-6.3-17.8M992.5 109s11.6-20.4 30.8-16.7M954.5 116s-53.2-36.1-41.3-65 41.3 65 41.3 65z"/><path class="prefix__st0" d="M964 114s1.6-24.9-5.8-49.2-21.9-24.5-21.9-24.5l-18 5.2M943.7 87S923.9 75.2 929 56.3M953.8 120.9s-1.5-6.5 9-5.6c18.1 1.5 14.1 12.8 14.1 12.8M918 80.4c-16-6.8-36-5.9-57.8 16.8-52.7 55-81.4-11.1-81.4-11.1l4.5 24.4-15-.7s45.1 51.4 78.6 19.2c44.7-42.9 62.7-49.7 90.9-12M1016.7 210.8s29.3 15-10.5 28.8-122.7 21.1-113.3 98.8c10.2 84.3 111.4 65.4 111.4 65.4l-16.1-11.5 16.1-8.4s-79.6 9.2-86.9-44.7c-6.1-45.2 20-67.4 95.7-82.7 66.3-13.4 34.4-61.8 9.2-65.8M650.4 1981.9l37.1 40M650.4 1981.9s13.2 14.4 22.4 7.6c12.3-9.1 21.6.5 21.6.5s-12.4-19.4-22.6-12c-14.9 10.8-21.4 3.9-21.4 3.9z"/><ellipse transform="rotate(-62.502 683.704 2034.406)" class="prefix__st0" cx="683.7" cy="2034.4" rx="13.3" ry="8.9"/><path class="prefix__st0" d="M931.5 1838.2l-21.3 42M931.5 1838.2s-7.7 15.1.6 20.5c11.1 7.3 6.1 17.6 6.1 17.6s12-15.9 2.9-22c-13.2-8.8-9.6-16.1-9.6-16.1z"/><ellipse transform="rotate(-82.912 898.764 1880.718)" class="prefix__st0" cx="898.9" cy="1880.8" rx="7.7" ry="11.5"/><path class="prefix__st0" d="M781.8 1932.1l15.4 44.6M781.8 1932.1s5.5 16 15.1 13.8c12.9-2.9 16.9 7.9 16.9 7.9s-3.1-19.7-13.8-17.4c-15.5 3.4-18.2-4.3-18.2-4.3z"/><ellipse transform="rotate(-38.871 789.87 1985.15)" class="prefix__st0" cx="789.9" cy="1985.3" rx="11.5" ry="7.7"/><circle class="prefix__st0" cx="880.1" cy="1921" r="7.1"/><path class="prefix__st0" d="M656.7 1926.3l30.2 21.4M736.6 2053l-11.9 42.8M897 2008.2l26.8 25M898.8 1979.7l52.6 1.8M894.4 1948.6l25.8-14.3M667.1 805.8c5.7-.6 9.8-5.7 9.2-11.4-.6-5.7-5.7-9.8-11.4-9.2-1.5.2-3 .7-4.3 1.5l-.7-1.2c4.1-4 4.1-10.6.1-14.7-4-4.1-10.6-4.1-14.6-.1l-.5.5c-1.1-.6-2.1-1.1-3.2-1.6 2.5-5.2.3-11.4-4.9-13.8-5.2-2.5-11.4-.3-13.8 4.9-.7 1.4-1 2.9-1 4.5 0 .4 0 .7.1 1.1-.7 0-1.4.1-2.1.2-1.8-5.4-7.6-8.4-13.1-6.7-5.4 1.8-8.4 7.6-6.7 13.1.1.4.3.8.5 1.2-.5.3-.9.7-1.4 1.1-4-4-10.6-4-14.7 0-4 4-4.1 10.5-.1 14.6.7.7 1.5 1.3 2.3 1.8-.2.4-.3.8-.5 1.2-5.6-1.4-11.2 1.9-12.6 7.5-1.4 5.6 1.9 11.2 7.5 12.6.8.2 1.7.3 2.6.3h.2v.4c-5.7.2-10.2 5-10 10.8.2 5.7 5 10.2 10.8 10 2.4-.1 4.7-1 6.5-2.7.2.2.3.5.5.7-3.8 4.3-3.4 10.8.9 14.6 4.3 3.8 10.8 3.4 14.6-.9.2-.3.5-.6.7-.8h.1c-.3.9-.4 1.9-.4 2.8 0 5.7 4.6 10.4 10.4 10.4 4.8 0 9-3.3 10.1-8 2.4 5.2 8.6 7.5 13.8 5.1 5-2.3 7.3-8.1 5.3-13.2.1-.1.2-.2.3-.2 4.2 3.8 10.8 3.5 14.6-.7 3.8-4.2 3.5-10.8-.7-14.6l.4-.8c5.5 1.6 11.2-1.6 12.8-7.2.3-.9.4-1.9.4-2.8-.1-5-3.3-9.1-8-10.3z"/><path class="prefix__st0" d="M606.9 802.3l11.3 3.5-8.8 8.4M638.9 791l-6.6 10.9 10.9 1.4M621.3 817s9.8 6 14.4-3.5M553.7 577.1c4.1-4 4.2-10.5.3-14.6-1-1.1-2.3-1.9-3.7-2.5-2.1 1.1-4.4 1.7-6.8 1.7-4.2 0-8.3-1.9-11-5.2-.7-.6-1.3-1.2-1.8-1.9-1.3.4-2.5.5-3.8.6-7.7-.1-14-6.2-14.5-13.9-.5.1-1 .1-1.5.1-.9 0-1.7-.1-2.6-.3-2.6 2.5-6.1 3.9-9.7 3.9-8-.1-14.4-6.5-14.5-14.5 0-1 .1-1.9.3-2.9-5.4-2-11.3.7-13.3 6-1.4 3.8-.5 8.1 2.3 11l.2.2-.2.3c-4.1-4-10.7-3.9-14.7.2s-3.9 10.7.2 14.7c1.8 1.7 4.1 2.7 6.6 2.9 0 .3-.1.6-.1.9-5.7.1-10.3 4.8-10.2 10.5.1 5.7 4.8 10.3 10.5 10.2.6 0 1.2-.1 1.7-.2v.1c-.8.4-1.6 1-2.3 1.7-4.1 4-4.2 10.5-.2 14.7 3.4 3.5 8.7 4.2 12.8 1.7-2.2 5.3.3 11.4 5.6 13.6 5.3 2.2 11.4-.3 13.6-5.6l.4.1c.2 5.7 5 10.2 10.7 10 5.7-.2 10.2-5 10-10.7l.9-.3c.4.8 1 1.6 1.7 2.3 4 4.1 10.6 4.2 14.7.2 3.4-3.3 4.1-8.6 1.7-12.7 4.4 3.6 11 3 14.6-1.5 3.3-4.1 3.1-9.9-.5-13.7-1.3-1.4-3-2.4-4.9-2.8.1-.4.2-.9.3-1.3 2.5 0 5.2-1 7.2-3z"/><path class="prefix__st0" d="M497.4 553.7l5.3 10.5-12.2-.4M527.8 568.8l-12.5 2.9 6.6 8.8M496.8 574.4s10.4-3.1 12.6 7.9"/><circle class="prefix__st0" cx="539.9" cy="545.1" r="2.9"/><circle class="prefix__st0" cx="529.4" cy="529.6" r="8.3"/><circle class="prefix__st0" cx="555.5" cy="516.5" r="5.4"/><path class="prefix__st1" d="M881.9 1039.9s10 1.7 7.8 16.8-7.8 36.9 20.7 40.8 38-23.5 38-23.5l-15.1 3.3 1.1-15.7s-14.5 27.4-25.7 15.7 10.1-30.7-1.1-44.7"/><path d="M1125 950.1c-21.8 14.1-49.9 23.7-56 25.7-6.3-6.9-45.4-51-42.3-82.3.7-8.5 5.3-16.2 12.3-21 5.1-3.6 10.2-5.4 15.2-5.4 1.9 0 3.9.3 5.7.8 17.3 4.9 28.4 30.3 28.5 30.5.2.6.8 1 1.4 1.2.6.2 1.3 0 1.7-.4.2-.1 16.8-13.4 33.4-12.1v-4c-7.2-.5-15.2 1.3-23.5 5.3-3.6 1.8-7.1 3.8-10.4 6.1-3.3-6.7-14-26-30-30.5-8-2.3-16.2-.5-24.3 5.2-8 5.4-13.2 14.2-14 23.8-1.5 15.1 5.5 34.2 20.9 56.9 7 10.4 14.8 20.2 23.3 29.5.4.4.9.6 1.4.6.2 0 .4 0 .6-.1 12.8-4.2 25.3-9.2 37.4-15 6.3-3 12.5-6.4 18.5-10.1v-4.7z"/><path class="prefix__st0" d="M1066.3 976l-6.6 25.3M1064.5 1003.3l6.8-26.1M1056.1 1017l-8.5 32.3c-.4 1.4.5 2.8 1.9 3.1 1.4.3 2.8-.5 3.1-1.9l8.1-31.8M1057.1 1002.1s-4.3-18.7-12.8-13.6-15.7 37.3-4 33.3 13.3-6.7 13.3-6.7M1067.4 1006.2s14.3-14.4 18.8-5.6-6.8 39.9-14.5 30.2-7.8-13-7.8-13"/><path class="prefix__st0" d="M1053.9 1011.4l1.7-5.8c.6-2.2 3-3.5 5.2-2.9l3.6 1c2.2.6 3.5 3 2.9 5.2l-1.7 5.8c-.6 2.2-3 3.5-5.2 2.9l-3.6-1c-2.3-.6-3.6-2.9-2.9-5.2z"/><circle cx="1061.4" cy="911.8" r="5.8"/><circle cx="1105.9" cy="924" r="5.8"/><path d="M1081.4 924c1.2.2 4.9 1.1 4 3.2-.6 1.4-3.2 1.2-4.4 1.2-1.6 0-2.1 2.6-.4 2.9.7 0 1.3.2 1.9.4.7.1.9.6.7 1.5.7 1 .5 1.5-.4 1.6-1.6.7-3.4.6-4.8-.3-1.6-1.2-3 1.5-1.5 2.6 2.6 1.9 8.4 1.5 10.4-1.3 2.8-4-2.2-6.8-5.4-7.3l-.4 3c3 0 7.1-.7 7.6-4.4s-3.5-5.3-6.4-6c-2-.4-2.8 2.5-.9 2.9z"/><path class="prefix__st0" d="M245.2 1440.8v-24.5c0-10.2 8.3-18.5 18.5-18.5H324c10.2 0 18.5 8.3 18.5 18.5v24.5c0 10.2-8.3 18.5-18.5 18.5h-54.3l-20 23.5 5.4-25.6c-6-3.2-9.9-9.5-9.9-16.4z"/><path d="M262.1 1430.4v3.2h1.6l-.8 4.1h3.3l.8-4.1h2.5l-.8 4.1h3.3l.8-4.1h3.5v-3.2h-2.8l.6-2.9h2.2v-3.2h-1.6l.8-4.1h-3.3l-.8 4.1h-2.5l.8-4.1h-3.3l-.8 4.1h-3.5v3.2h2.9l-.6 2.9h-2.3zm6.1-2.9h2.5l-.6 2.9h-2.5l.6-2.9zM278.5 1429.5h4.1l2.3-5.7 2.2 5.7h4.1l-4.7-9.4h-3.2l-4.8 9.4zM307.2 1430.7c-.9-.7-1.8-1.5-2.6-2.3.7-.5 1.4-.9 2.1-1.5.4-.4.8-.8 1-1.3.3-.5.4-1.1.4-1.7 0-1-.5-2-1.3-2.7-1.2-.8-2.7-1.2-4.2-1.1-1.5-.1-3 .3-4.2 1.2-.9.7-1.4 1.8-1.4 3 0 .6.1 1.2.4 1.7.3.7.7 1.4 1.3 2-1.2.4-2.3 1.2-3.2 2.2-.6.8-1 1.7-1 2.7 0 1.3.6 2.6 1.6 3.4 1.5 1 3.2 1.5 5 1.4 1.3 0 2.6-.2 3.9-.5.9-.3 1.7-.7 2.5-1.2.4.2.8.5 1.3.8s1 .6 1.4.9l2.5-2.9-.8-.5-1.8-1.2c.3-.5.5-1 .8-1.4.2-.5.4-1.1.6-1.6l-3.7-.8c-.2.4-.4.9-.6 1.4zm-2.6 3c-.8.6-1.8.9-2.8 1-.7 0-1.4-.2-1.9-.7-.5-.4-.7-.9-.7-1.5 0-.4.1-.7.3-1 .4-.5.8-.9 1.3-1.2 1.5 1.5 2.8 2.6 3.8 3.4zm-3.5-9.6c0-.4.2-.7.5-1 .7-.5 1.6-.5 2.3 0 .3.2.4.6.4.9 0 .4-.2.8-.5 1.1-.4.4-.9.8-1.4 1.1-.6-.6-1.1-1.3-1.3-2.1zM319.2 1421.9c.1.5.1 1 .3 1.4-.7-.4-1.1-.6-1.3-.7l-1.6-.7-.8 2.4 1.8.3c.6.1 1 .2 1.4.2-.4.3-.7.6-1.1.9l-1.3 1.3 2.1 1.6.9-1.6c.1-.2.3-.6.6-1.3.3.7.5 1.1.6 1.3l.9 1.6 2.1-1.6-1.2-1.3c-.3-.3-.6-.6-1-.9.5 0 1-.1 1.4-.1l1.8-.4-.8-2.4-1.6.8-.7.4-.6.3c.1-.5.2-1 .3-1.4l.2-1.8H319l.2 1.7zM328.4 1424.3l1 7.8h3.1l1-7.8v-3.9h-5l-.1 3.9zm.1 13.1h4.7v-4.2h-4.7v4.2z"/><path class="prefix__st0" d="M136.8 1459l56.2-19.7c12.4-4.4 26 2.2 30.4 14.6l45.7 130.1c4.4 12.4-2.2 26-14.6 30.4l-56.2 19.7c-12.4 4.4-26-2.2-30.4-14.6l-45.7-130.1c-4.3-12.4 2.2-26.1 14.6-30.4z"/><path class="prefix__st0" d="M139.2 1464.3l55.3-19.4c9.3-3.3 19.5 1.6 22.8 10.9l45.5 129.6c3.3 9.3-1.6 19.5-10.9 22.8l-55.3 19.4c-9.3 3.3-19.5-1.6-22.8-10.9l-45.5-129.6c-3.3-9.3 1.6-19.5 10.9-22.8z"/><circle class="prefix__st0" cx="218" cy="1604.4" r="10.6"/><path class="prefix__st1" d="M152.6 1549.6l50.9-105.8M170.2 1603.1l57.3-119.3"/><path class="prefix__st0" d="M630 1549.3v-24.5c0-10.2-8.3-18.5-18.5-18.5h-60.3c-10.2 0-18.5 8.3-18.5 18.5v24.5c0 10.2 8.3 18.5 18.5 18.5h54.3l20 23.5-5.4-25.6c6.1-3.2 9.9-9.5 9.9-16.4z"/><circle class="prefix__st2" cx="581.9" cy="1536.5" r="19.7"/><circle cx="573.7" cy="1532.9" r="2.7"/><circle cx="589.4" cy="1532.9" r="2.7"/><path d="M589.4 1540c-8.7 8.2-14.5-.5-14.5-.5l14.5.5z"/><ellipse transform="rotate(-16.307 240.015 1849.857)" class="prefix__st0" cx="239.9" cy="1849.6" rx="51.5" ry="8.7"/><path class="prefix__st0" d="M190.8 1864.2s26.3 92.4 26.4 92.7c1.3 4.6 24.4 1.9 51.5-6s47.9-18.1 46.6-22.7c-.1-.2-26-93.1-26-93.1"/><path d="M209.1 1864c21-10.6 43.9-17.1 67.3-19.4-10.8 5.8-22.2 10.4-34.1 13.4-11.3 3-33.2 6-33.2 6z"/><path class="prefix__st2" d="M293.2 1848c30.3-20.3 62.9 31.3 17 60.2M295.5 1858.8c11.9-14.4 46.3 10.9 10.9 40.2M216.8 1862.9s-18.1-68.4-49.9-26.8c-36 47.2-59.9 9.8-59.9 9.8"/><path transform="rotate(-38.602 100.086 1832.532)" class="prefix__st2" d="M86.5 1819.3h27.3v26.7H86.5z"/><path class="prefix__st2" d="M245.9 1783s1.1 14.1 19.6 18.1 111.6-27.6 122.6-45.1 1-24.8 1-24.8"/><path class="prefix__st2" d="M251.4 1753c-13.9 13.4-15.2 33.3.1 29.1s29.9-29.6 47.8-27.1 27.3 24.1 44 1.6 43-5.5 47.1-28.8c5.2-30.2-98-14.4-139 25.2z"/><path class="prefix__st2" d="M268.4 1750.3l10.6-5.3c1.5-.8 3.4-.1 4.1 1.4.8 1.5.1 3.4-1.4 4.2l-10.6 5.2c-1.5.8-3.4.1-4.1-1.4-.7-1.5-.1-3.3 1.4-4.1zM348.6 1727.7l10.6-5.2c1.5-.8 3.4-.1 4.1 1.4.8 1.5.1 3.4-1.4 4.1l-10.6 5.2c-1.5.8-3.4.1-4.1-1.4-.8-1.5-.1-3.3 1.4-4.1zM320.5 1744.7l11.7-1.8c1.7-.3 3.3.9 3.5 2.6.3 1.7-.9 3.3-2.6 3.5l-11.6 1.8c-1.7.3-3.3-.9-3.5-2.6-.4-1.6.8-3.2 2.5-3.5zM311.8 1734.6l6.9-9.5c1-1.4 2.9-1.7 4.3-.7s1.7 2.9.7 4.3l-6.9 9.5c-1 1.4-2.9 1.7-4.3.7-1.4-.9-1.7-2.9-.7-4.3z"/><circle class="prefix__st0" cx="245.2" cy="1240.5" r="14.5"/><circle transform="rotate(-21.901 199.61 1377.86)" class="prefix__st0" cx="199.6" cy="1377.9" r="18.5"/><circle transform="rotate(-45.001 25.044 1183.763)" class="prefix__st0" cx="25.1" cy="1183.8" r="15"/><path class="prefix__st0" d="M198.8 1304.5c18.2-13 22.5-38.4 9.4-56.6-.8-1.2-1.7-2.3-2.7-3.4 15.7-11.5 19.1-33.6 7.6-49.3-11.1-15.1-32.1-18.9-47.7-8.6-.8-8.2-8.1-14.3-16.4-13.5-5.2.5-9.8 3.7-12.1 8.4h-1.7c-1.9-14.3-15-24.3-29.3-22.4-14 1.9-24 14.6-22.5 28.7.1.7.2 1.3.3 2-14.4-1.3-27.1 9.2-28.4 23.6-.7 7.7 2 15.2 7.4 20.7-13.3 3.8-21.1 17.6-17.7 31-12.6 5.9-18 20.8-12.1 33.4 3.3 7 9.5 12 17 13.8-13.5 14.1-13 36.4 1.1 49.9 12.4 11.9 31.6 13.1 45.4 2.9 10.1 19.1 33.8 26.4 52.9 16.3 7.9-4.2 14.2-11 17.7-19.3 1.5-3.5 2.5-7.2 2.9-11 18.1-.5 32.4-15.7 31.8-33.8 0-4.6-1-8.9-2.9-12.8zM21.3 1304.6c-5.9-2.5-12.7.2-15.2 6.1s.2 12.7 6.1 15.2 12.7-.2 15.2-6.1c2.6-5.9-.2-12.7-6.1-15.2z"/><path class="prefix__st0" d="M96.4 1364.9l-19.1 69.7 10.5 2.3 14-63.1M174.6 1259.3c5.5-9.4 2.4-21.5-7-27-5.1-3-11.2-3.5-16.7-1.5-1.5-11.8-12.2-20.2-24-18.7-10.1 1.3-18 9.5-18.8 19.7-5.7-5.6-14.3-6.1-20-1.8-4.5 3.7-6.5 9.6-5.2 15.2"/><circle cx="101.3" cy="1276.3" r="5.4"/><circle cx="152.1" cy="1289.9" r="5.4"/><circle transform="rotate(-87.515 123.212 1296.773) scale(1.00004)" class="prefix__st0" cx="123.2" cy="1296.8" r="8.2"/><path class="prefix__st0" d="M156.3 1290.2l6.8-1.4M92.3 1267.6l9 8.7M477.7 1947.1v-33.5c0-14 11.3-25.3 25.3-25.3h82.4c14 0 25.3 11.3 25.3 25.3v33.5c0 14-11.3 25.3-25.3 25.3h-74.3l-27.4 32.1 7.4-35c-8.2-4.4-13.4-13-13.4-22.4z"/><path d="M500.8 1932.8v4.4h2.2l-1.1 5.6h4.5l1.1-5.6h3.5l-1.1 5.6h4.5l1.1-5.6h4.7v-4.4h-3.9l.8-4h3.1v-4.4H518l1.1-5.7h-4.5l-1.1 5.7H510l1.1-5.7h-4.5l-1.1 5.7h-4.7v4.4h3.9l-.8 4h-3.1zm8.3-4h3.5l-.8 4h-3.5l.8-4zM523.2 1931.6h5.6l3.1-7.8 3 7.8h5.6l-6.5-12.9h-4.4l-6.4 12.9zM562.4 1933.1c-1.2-1-2.4-2-3.5-3.1 1-.6 1.9-1.3 2.8-2 .6-.5 1-1.1 1.3-1.8.4-.7.6-1.5.6-2.3 0-1.4-.7-2.8-1.8-3.6-1.2-1-3.1-1.5-5.7-1.5s-4.5.5-5.7 1.6c-1.2 1-1.9 2.5-1.9 4.1 0 .8.2 1.6.5 2.3.4 1 1 1.9 1.7 2.7-1.7.6-3.2 1.6-4.3 3-.9 1.1-1.3 2.4-1.3 3.7 0 1.8.8 3.5 2.3 4.7 1.5 1.3 3.8 1.9 6.9 1.9 1.8 0 3.6-.2 5.3-.7 1.2-.4 2.3-.9 3.3-1.6.5.3 1.2.7 1.8 1.1.7.4 1.3.8 2 1.2l3.5-4c-.5-.3-.8-.5-1.1-.7l-2.4-1.7c.8-1.3 1.4-2.7 1.8-4.2l-5-1.1c-.4.7-.7 1.4-1.1 2zm-3.6 4.1c-1.1.8-2.5 1.3-3.9 1.3-.9 0-1.9-.3-2.6-.9-.6-.5-1-1.3-1-2.1 0-.5.2-1 .4-1.4.5-.6 1.1-1.2 1.8-1.6 2.2 2.1 4 3.7 5.3 4.7zm-4.7-13.1c0-.5.2-1 .6-1.3.9-.7 2.2-.8 3.2-.1.4.3.6.8.6 1.3 0 .6-.3 1.1-.7 1.5-.6.6-1.2 1.1-1.9 1.5-1.2-1.3-1.8-2.2-1.8-2.9zM578.9 1921.1c0 .4.2 1.1.4 2-.9-.6-1.5-.9-1.7-1l-2.2-1-1.1 3.3 2.5.4c.6.1 1.3.2 1.9.3-.5.4-1 .8-1.5 1.3l-1.8 1.8 2.9 2.1 1.2-2.1c.3-.6.6-1.2.8-1.8.4.9.7 1.5.8 1.8l1.2 2.1 2.8-2.1-1.6-1.8c-.4-.5-.9-.9-1.4-1.3.7 0 1.3-.1 2-.2l2.4-.5-1.1-3.3-2.2 1.1-1 .5-.8.4c.2-.7.3-1.3.4-2l.3-2.4h-3.5l.3 2.4zM591.4 1924.4l1.3 10.6h4.3l1.3-10.6v-5.3h-6.9v5.3zm.2 17.9h6.4v-5.7h-6.4v5.7z"/><circle class="prefix__st0" cx="564.8" cy="1627.8" r="7.2"/><circle class="prefix__st0" cx="1064.5" cy="1965.7" r="7.2"/><circle class="prefix__st0" cx="996.8" cy="1122.7" r="7.2"/><circle class="prefix__st0" cx="524" cy="2027.2" r="9.4"/><circle class="prefix__st0" cx="562.5" cy="1440.5" r="9.4"/><circle class="prefix__st0" cx="1072.5" cy="511.8" r="9.4"/><circle class="prefix__st0" cx="1090.8" cy="171.9" r="9.4"/><circle class="prefix__st0" cx="212.9" cy="2389.9" r="9.4"/><circle class="prefix__st0" cx="308.9" cy="1626.5" r="9.4"/><path transform="rotate(-23.109 590.661 1740.226)" class="prefix__st0" d="M537 1677.9h107.3v124.7H537z"/><path transform="rotate(-23.109 586.454 1730.39)" class="prefix__st1" d="M542.1 1689.5h88.8v81.7h-88.8z"/><path class="prefix__st1" d="M567.9 1770.4l6.5-43.8 30.2 16.6 6.3-17.4 20.6 16.4z"/><circle class="prefix__st1" cx="594.3" cy="1706.6" r="10.6"/><path transform="rotate(-63.878 452.25 1440.31)" class="prefix__st0" d="M389.9 1386.7h124.7V1494H389.9z"/><path transform="rotate(-63.878 456.97 1430.698)" class="prefix__st1" d="M416.1 1386.4h81.7v88.8h-81.7z"/><path class="prefix__st1" d="M414.4 1442.8l37.4-23.6 7.2 33.6 17.2-6.6 1.1 26.4z"/><circle class="prefix__st1" cx="479.9" cy="1421.1" r="10.6"/><path class="prefix__st0" d="M894.1 584.5c-4.3-20.3-24.2-33.3-44.5-29-20 4.2-33 23.7-29.2 43.7 4 20.3 22.2 25.6 42.6 21.5s35.2-15.9 31.1-36.2z"/><path class="prefix__st4" d="M861.2 576.3s-6.3 13.4-16.8 5.3 1.5-21.4 18.5-19 25.9 24.2.5 34.4c-32.5 13-40.5-14.3-40.5-14.3"/><ellipse transform="rotate(-80.52 827.576 1119.82)" class="prefix__st0" cx="827.5" cy="1119.8" rx="25.2" ry="50.1"/><path class="prefix__st0" d="M877.8 1129c5.7 3.6 3.8 21.1-4.3 18.5s-5 13.6-13.6 4.8-15.2 10.6-23.5 1.6-16.5 7.6-23.2-2-21 3.2-25.2-8.5-7.3-5.8-12.2-10.9c-6.1-6.3 1.2-18.4 1.2-18.4"/><path class="prefix__st0" d="M874.5 1149c-.7 16.7-28 27.1-67.2 14.7s-29.9-29.4-29.9-29.4"/><path d="M80.3 1054.9c-5-9.7-13.9-19.4-25-27.4-20.9-15.2-43.3-19.8-54.4-12.1v5.4c2.8-3.4 7.5-5 13.5-5 10.7 0 25.2 5.3 38.6 14.9 10.6 7.7 19 16.9 23.7 26 4.5 8.7 5.1 16.1 1.6 20.9s-10.7 6.6-20.4 5c-10.2-1.6-21.6-6.8-32.2-14.4s-19-16.9-23.7-26c-.4-.8-.8-1.5-1.1-2.3v8.4c5.2 8.2 13 16.3 22.5 23.2 11.1 8 23.1 13.4 33.9 15.1 2.3.4 4.7.6 7 .6 7.8 0 13.8-2.5 17.3-7.2 4.4-6 3.9-15-1.3-25.1z"/><path d="M82 1079.2c-.6-.9-1.9-1.2-2.8-.5-.9.6-1.1 1.7-.6 2.6 1.5 2.5-.9 8.9-4.5 11.8-2.7 2.2-4 .8-4.5.4-4-3.9-7.8-1-10 .7-.7.6-1.4 1.1-2.2 1.4 0 0-.7-.3-1.6-3.1-2.4-7.4-8.7-6.5-13.2-5.8-5.3.8-7.4.7-8.5-3.1-2.1-7.3-8.1-7.4-12.5-7.6-4.7-.1-6.8-.3-7.3-4.3-1-6.8-6.7-8.8-11.3-10.5-.7-.3-1.4-.5-2-.8v4.3l.6.2c5 1.8 8.1 3.2 8.7 7.3 1.1 7.5 6.9 7.6 11.2 7.7 4.8.1 7.5.4 8.7 4.7 2.2 7.5 8.4 6.6 12.9 5.9 4.9-.7 7.5-.9 8.8 3.1 1.1 3.3 2.4 5.1 4.2 5.6.4.1.8.2 1.2.2 1.7 0 3.3-1.2 4.7-2.2 2.6-2 3.5-2.3 4.8-1 2.7 2.6 6.4 2.6 9.8-.2 4.7-3.7 8.2-12.1 5.4-16.8z"/><path d="M69.4 1094.9c-1-.5-2.2-.2-2.7.8-2.2 4-6.2 6.5-11.6 7.3-11.1 1.7-30.6-3.8-52-24.5-.8-.7-1.5-1.4-2.2-2.1v5.6c16.8 16 35.5 25.4 50.1 25.4 1.6 0 3.1-.1 4.7-.3 6.7-1 11.7-4.3 14.5-9.4.6-1.1.2-2.3-.8-2.8z"/><g id="prefix__Слой_6"><path class="prefix__st0" d="M1003.3 539.6l8.2-20.2c-7.6-8.8-15.5 7-22.5-.9s-12.5 8.2-20.8-.3-12.7 9.4-25.3-.9c-9.8-8.1-9.3 8.9-20.3 1.2s-12.5 5.2-12.5 5.2l9.8 18.6s12.2 10.4 41.9 9.8c38.1-.8 41.5-12.5 41.5-12.5z"/><circle class="prefix__st0" cx="968.5" cy="439.5" r="9.8"/><path class="prefix__st0" d="M971.6 439.5l-4.3-3.6M966.1 439.2l5.1-3.3"/><circle class="prefix__st0" cx="945.8" cy="499.3" r="9.8"/><path class="prefix__st0" d="M946.7 496.5l-4.8 2.9M944.7 501.6l-1.6-6"/><circle class="prefix__st0" cx="964.9" cy="485.3" r="9.8"/><path class="prefix__st0" d="M967.8 484.2l-5.4-1.8M962.6 486l3.5-5.1M953.7 482.9c-38.3 3.2-44.1 29.9-37.4 32.6M975.4 483.8s36.6 8.7 29.7 32.8"/></g><path class="prefix__st0" d="M929.5 529.7l4.3 13.6M951.2 532.2l1.2 13.6M971.7 531.5l-1.9 15.5M991.5 529.7l-3.7 13"/><circle class="prefix__st0" cx="971.3" cy="505.1" r="4.4"/><g id="prefix__Слой_6-2"><path class="prefix__st0" d="M621.6 2095l1.5-21.8c-10-6-12.5 11.5-21.7 6.2s-9.3 11.8-19.8 6.2-9.1 13-24.4 7.1c-11.8-4.6-6 11.3-18.9 7.5s-10.2 8.8-10.2 8.8l15.1 14.6s14.8 6 42.9-3.9c35.9-12.5 35.5-24.7 35.5-24.7z"/><circle class="prefix__st0" cx="554.3" cy="2074.8" r="9.8"/><path class="prefix__st0" d="M554.3 2071.8l-3.6 4.2M554 2077.2l-3.3-5.1"/><circle class="prefix__st0" cx="568.2" cy="2055.5" r="9.8"/><path class="prefix__st0" d="M570.5 2053.5h-5.7M566.1 2056.8l1.8-5.9M556.7 2056.8c-35.3 15-32.5 42.2-25.3 42.6M577.6 2050.8s37.4-3.2 38.5 21.9"/></g><path class="prefix__st0" d="M548.4 2108.7l8.4 11.6M569.8 2104.3l5.4 12.5M589 2097.3l3.1 15.3M607.3 2089.3l.5 13.5"/><circle class="prefix__st0" cx="580.4" cy="2072.2" r="4.4"/><path class="prefix__st1" d="M717.3 1855.1c-10.6 10.7-27 13.1-40.9 5.7-13.4-7.2-20.7-22.2-17.9-37.2M660.8 1816.1c.4-.9.8-1.7 1.2-2.6 9.3-16.9 30.5-23.1 47.4-13.8 16.7 9.1 23 29.9 14.2 46.7-.5.9-1 1.8-1.6 2.6"/><path class="prefix__st1" d="M715.9 1825l-17.6 3.1 9.9 11.3M682.8 1807.3l7.3 16.4-14.9-2M672 1827.5l34.2 18.3s-10.2 10.7-22.6 3.9c-14.7-8.1-11.6-22.2-11.6-22.2zM669.5 1820.2s-20-10.2-20.5-1 20.5 1 20.5 1zM713.6 1843.8s19.6 11 12.2 16.5-12.2-16.5-12.2-16.5zM369.8 947c.2-1-2.1-36.7-35-35 33-.6 35-32.7 35-35 .8 20 8.4 32.7 35 35-19.7-.5-30.3 9.6-35 35zM439.5 1189.1c.2-.8-1.7-30.4-29-29 27.3-.5 29-27.1 29-29 .6 16.5 7 27 29 29-16.3-.5-25 7.9-29 29zM605.9 2282.9c.2-.8-1.7-30.4-29-29 27.3-.5 29-27.1 29-29 .7 16.5 7 27 29 29-16.3-.4-25 8-29 29zM150.5 1921.4c.1-.7-1.3-23.4-22.4-22.3 21-.4 22.3-20.9 22.4-22.3.5 12.8 5.4 20.8 22.4 22.3-12.7-.4-19.4 6-22.4 22.3z"/><path class="prefix__st0" d="M617.9 519.2c.2-.8-1.7-30.4-29-29 27.3-.5 29-27.1 29-29 .7 16.5 7 27 29 29-16.4-.5-25.1 7.9-29 29zM726.2 1199.8c.2-.8-1.7-30.4-29-29 27.3-.5 29-27.1 29-29 .7 16.5 7 27 29 29-16.4-.5-25.1 7.9-29 29zM587.4 158.1c.2-.9-1.7-30.4-29-29 27.3-.5 29-27.1 29-29 .7 16.5 7 27 29 29-16.4-.5-25.1 7.9-29 29z"/><circle class="prefix__st0" cx="356.2" cy="1324.3" r="37.8"/><path class="prefix__st0" d="M334.1 1337.2c-2.6-2.5-2-6.9.6-9.7 3-3.2 9-4.3 11.8-.8M359 1316c-2.6-2.5-2-6.9.6-9.7 3-3.2 9-4.3 11.8-.8M360.3 1329.6c1.7-1.5 3.7-1.8 4.6-1s1.1 3.5-1 5.5c1.1-1.7 3.4-2.1 5.1-1 1.7 1.1 2.1 3.4 1 5.1-.3.4-.7.7-1.1 1"/><circle class="prefix__st0" cx="734.3" cy="49.8" r="37.8"/><path class="prefix__st0" d="M712.2 62.7c-2.6-2.5-2-6.9.6-9.6 3-3.2 9-4.3 11.8-.8M737.1 41.5c-2.6-2.5-2-6.9.6-9.6 3-3.2 9-4.3 11.8-.9M738.4 55.1c1.7-1.5 3.7-1.8 4.6-1s1.1 3.5-1 5.5c1.1-1.7 3.4-2.1 5.1-1s2.1 3.4 1 5.1c-.3.4-.7.7-1.1 1M440.7 1313.4c2.4-6.3 18.6-.8 21.4-15.9 3-16.1-13.5-13.8-17.7-3.3.2-11.3-13.7-20.3-17.2-4.2-3 13.7 11.9 16.1 13.5 23.4zM1061.2 1134.1c3.1-8.1 23.8-1.1 27.3-20.3 3.8-20.6-17.2-17.6-22.6-4.2.2-14.4-17.5-25.8-21.9-5.4-3.8 17.5 15.2 20.6 17.2 29.9zM26.8 1855c2.4-6.3 18.6-.8 21.4-15.9 3-16.1-13.5-13.8-17.7-3.3.2-11.3-13.7-20.2-17.2-4.2-2.9 13.7 11.9 16.1 13.5 23.4zM203.3 2127.9c2.4-6.3 18.6-.8 21.4-15.9 3-16.1-13.5-13.8-17.7-3.3.2-11.3-13.7-20.2-17.2-4.2-2.9 13.6 11.9 16.1 13.5 23.4zM183.9 1715.8s-21.9-5.7-21.3 6 30.5 36.9 32.7 22.3.3-17.6.3-17.6M194 1707.3s-7.3-22.8 4.4-22.7 38.1 28.9 23.7 31.7-17.9 1.1-17.9 1.1"/><path class="prefix__st0" d="M186.2 1712.9l4.1-4.3c1.6-1.7 4.3-1.7 6-.1l6.3 6c1.7 1.6 1.7 4.3.1 6l-4.1 4.3c-1.6 1.7-4.3 1.7-6 .1l-6.3-6c-1.7-1.6-1.8-4.3-.1-6zM152.2 2054.5s6.5-21.7-5.2-21.5-38 29.1-23.5 31.8 17.6.9 17.6.9M160.3 2064.9s23.1-6.4 22.6 5.3-30.3 37-32.6 22.5-.4-18-.4-18"/><path class="prefix__st0" d="M142.8 2062.8l6.3-6.1c1.7-1.6 4.3-1.6 6 .1l4.1 4.3c1.6 1.7 1.6 4.3-.1 6l-6.3 6.1c-1.7 1.6-4.3 1.6-6-.1l-4.1-4.3c-1.6-1.7-1.6-4.3.1-6zM410.6 1692.1c-20.9-7.3-43.2-10-65.3-7.8M512.2 1888.4c7-19 10.5-38.6 7.9-59.3-6.5-49.6-34.5-93.8-76.5-120.9M159.1 2061.1c21-136.5 229.5-19.8 316.8-114.3M1021.8 599.2c.8 3.8 2.7 7.2 1.9 11.2 2.3-1.7 4.1-4 5.2-6.7 2.2-5.6 1-11.5-2.7-14.4-5.2.1-5.2 6-4.4 9.9zM1011.6 611.7c1.2.5 2.5.7 3.8.6.3-.5.6-1.1.8-1.6 1.6-4.2-1.4-8.4-1.9-12.6s.4-8.2 2.9-10.6c-4.2.4-8.4 3.6-10.4 8.6-2.6 6.5-.5 13.5 4.8 15.6z"/><path d="M990.3 1346.9c-9.6-7.8-24.5-9.4-38-4.1-11.5 4.5-26 19-37.2 56.5-16 53.1-43 52-44.3 52.2 11.9-6.3 21-14.9 25.5-24.7 23.5-51.5-41.4-121.6-41.4-121.6s9.8-17.3 9-29.2c-.5-8.1-3.3-15.9-7.9-22.5-1.5-11.6-2.1-43.7-10.9-44.4-10.5-.8-22.3 22.7-22.3 22.7l.3.2h0c-8.6-1.8-17.4-1.6-25.9.5-.9-3.5-13.2-20.6-23-19.8-9.6.7-9.5 36.3-10.4 44.2-4.7 7.9-6.9 17-6.3 26.1.9 13.2 14.3 29.1 14.3 29.1s-84.3 141.1 49.9 149.6c31.8 30.8 96.5 16.6 109.9-41.3 16.8-72.9 51.4-56 51.3-55.2-.7 4.4 2.2 8.5 6.6 9.2 4.4.7 8.5-2.2 9.2-6.6 1.2-8-1.8-15.6-8.4-20.9z" fill="none" stroke="#000" stroke-width="4" stroke-linejoin="round"/><path class="prefix__st0" d="M757.1 1271.1l-12.6-5.7M756.3 1281.6l-15-1.2M758.7 1293l-11.3 4.8M864.6 1268.6l12.5-5.7M865.4 1279.2l15-1.2M862.9 1290.5l11.4 4.9M797.3 1306.7s15-13.8 34.4-2.4"/><path d="M874.4 771.5c.8 3.8 2.7 7.2 1.9 11.2 2.3-1.7 4.1-4 5.2-6.7 2.2-5.6 1-11.5-2.7-14.4-5.3.1-5.3 6.1-4.4 9.9zM867.2 784c1.2.5 2.5.7 3.8.6.3-.5.6-1.1.8-1.6 1.6-4.2-1.4-8.4-1.9-12.6s.4-8.2 2.9-10.6c-4.2.4-8.4 3.6-10.4 8.6-2.7 6.5-.5 13.5 4.8 15.6z"/><path class="prefix__st0" d="M115.5 2245.7c-3.1 20 25.4 73 67.2 57 18-6.9 7.7-23.7 7.7-23.7"/><path class="prefix__st0" d="M156.4 2275.8c-1.3-1.9-14.1-28.2 6.4-35.8s56.3 21.1 43.5 33.9-33.3-4.5-33.3-4.5M226.8 2238.7c-8 11.1-58.2-11.5-51.2-29.4s64.6 10.8 51.2 29.4zM157.7 2186.2c6.2-10.8 79.2-7.4 67.8 36M171.8 2305.9s71 60.8 115.2 10.9"/><path class="prefix__st0" d="M290.1 2292.4c17.9-9-11.1-39.4 1.9-33.3 17.8 8.4 27.5.6 14.7-36.5s-27.5-55-35.2-46.1 9 48 9 48c-35.8-28.2-49.9 7.7-49.9 7.7M222.3 2304.6s-4.7-10.4 12.6-14.3"/><path class="prefix__st0" d="M248.6 2296.3c-1.9-.6-32-11.5-25-26.2 9.1-19.1 85.7 28.8 76.8 41.6s-26.9-.6-26.9-.6M120.7 2152.6l5.7.9s-22.6-25.5-31.6-22.9-6.5 26.5-6.5 26.5l6.6-2.6c-14.5 5.2-25.8 16.9-30.3 31.6l.1-3.9s-23.4-5-26.1 4 27 33.3 27 33.3l-1.7-7c1.1 4.5 2.9 8.9 5.3 12.9 13.7 23.3 41.3 25.4 64.6 11.7s33.4-38 19.6-61.3c-7-12.1-18.9-20.5-32.7-23.2z"/><path class="prefix__st0" d="M87.8 2210.2s-4.7-6.3.5-11.1c4.5-4.1 9.5.9 9.5.9M116.1 2183.9s-3.3-6.9 2.4-10.9 10 2.1 10 2.1M99 2209.6s7.7 6.9 14.3.1c7.3-7.5-1.2-13.7-1.2-13.7s-5.8 1.8-4.8-.3 4.3-4.4 4.9-2.8c.3 1 .3 2.1 0 3.1M116.6 2201.7c3.7.4 7.4-.7 10.2-3.1 4.8-4.1 2.4-9.8.7-12.5M142.3 2171.4l-8 9.1M136.9 2185.4l9-2.4M136.4 2191.6l7 1.5M82.5 2217.8l11.4-4.2M97.6 2216.7l-8.1 4.7M100 2220.5l-3.9 6M296 2315.9s74.4 26.1 71.8-52.5 11-74 33.4-58.4c13 9.1 19.9 1.2 18.8-9-1.4-13.2-22.6-32.6-52.1-16.5-39.8 21.8 6.8 89.2-35 111-23.2 12.1-37.1-2.9-37.1-2.9"/><g id="prefix__HBLGgD_tif"><path class="prefix__st2" d="M394.8 1545c-2.3-6.5-7.7-7.7-14.2-8.2-3.3-.1-6.6-.6-9.8-1.3-2.6-.7-5.1-2.2-8-1.6-5.5 1.1-8 6-7.9 10.6.2 11.4-6.7 26.6 7.3 31.2 6.3 2.1 10.2-.2 13.3-5.8 1.5-2.7 3.7-5 6.4-6.7 2-1.2 6.7-1.2 8.2-2.9 5-3.5 6.4-10.3 4.7-15.3zm-33 11c-2.9-4.4 2-8.9 6.6-7.2-.2-4.7 4.7-8.7 8.5-5.1s1 11.5.2 16c-4.4-.5-12.5.4-15.3-3.7zM352.6 1525.2c-3.2-4.4-6.3-10.9-4.8-16.8 1.9-7.7 9.2-4.8 12.5-1 3.6 4 6.8 11.1 5.5 17-1.9 8-9.7 5-13.2.8zM325.5 1554.1c-4.2-4.9-1.8-11.8 5.7-11.6 6.2.2 13.4 4.1 16.3 9.2 2.7 4.6.4 9.8-5.6 10.2-6.5.3-12.4-3.7-16.4-7.8zM332.5 1534.2c-2.5-3.3-7.1-10.8-.7-14 6-3.1 13.5 3.3 16.6 6.9s6.5 11.6-.9 13.9c-6 1.9-11.4-3.6-15-6.8zM375.4 1527.7c-3.3-4.6-5.5-11.1-4.1-17.2 1.5-7.1 8-7 11.7-2.6 3.7 4.7 5.2 10.8 4.2 16.7-1.6 7.7-7.4 6.6-11.8 3.1z"/></g><g id="prefix__HBLGgD_tif-2"><path class="prefix__st2" d="M957.5 1273c5.5-4.2 4.8-9.8 3.2-16.1-.9-3.2-1.6-6.4-1.9-9.7-.2-2.7.5-5.5-1-8.1-2.8-4.9-8.2-5.6-12.5-4.1-10.8 3.8-27.3 2.2-27.2 16.9 0 6.6 3.5 9.6 9.8 10.7 3.1.6 6 2 8.4 4 1.8 1.5 3.3 6 5.4 6.8 4.7 3.7 11.6 2.9 15.8-.4zm-21-27.7c3.2-4.2 9.1-1 9 3.9 4.4-1.7 9.8 1.6 7.6 6.4-2.1 4.7-10.6 4.6-15.1 5.4-1.1-4.4-4.6-11.8-1.5-15.7zM962.6 1226.7c3.2-4.4 8.3-9.5 14.4-10 7.9-.7 7.5 7.2 5 11.5-2.7 4.7-8.3 10-14.3 10.6-8.2.9-7.9-7.5-5.1-12.1zM926.6 1210.3c3.3-5.6 10.6-5.5 12.8 1.7 1.8 5.9.4 14-3.5 18.4-3.5 4-9.1 3.6-11.4-2-2.4-6.1-.5-13 2.1-18.1zM947.7 1210.5c2.3-3.5 7.9-10.1 13.1-5.2 4.8 4.6 1.3 13.9-1.2 18s-8.8 9.9-13.5 3.7c-3.7-5.1-.3-12 1.6-16.5zM967.6 1249c3.3-4.6 8.7-8.7 15-9.4 7.2-.8 9.2 5.4 6.2 10.3-3.3 5-8.5 8.4-14.4 9.4-7.9.9-8.7-4.9-6.8-10.3z"/></g><g id="prefix__HBLGgD_tif-3"><path class="prefix__st2" d="M352.3 2057.3c-4-5.6-9.5-5.2-15.9-3.9-3.2.8-6.5 1.3-9.8 1.5-2.7.1-5.5-.7-8.1.7-5 2.6-6 8-4.6 12.4 3.4 10.9 1 27.4 15.7 27.9 6.6.2 9.8-3 11.1-9.3.7-3.1 2.2-5.9 4.3-8.2 1.6-1.7 6.1-3.1 7-5.1 3.9-4.8 3.4-11.7.3-16zm-28.6 19.8c-4-3.4-.6-9.1 4.3-8.8-1.5-4.5 2-9.7 6.8-7.3s4.1 10.8 4.7 15.3c-4.5.8-12 4-15.8.8zM306.3 2050.1c-4.3-3.3-9.1-8.7-9.4-14.8-.3-7.9 7.5-7.2 11.7-4.5 4.6 2.9 9.6 8.7 10 14.7.5 8.4-7.8 7.7-12.3 4.6zM288.3 2085.5c-5.4-3.6-5-10.8 2.2-12.8 6-1.6 14 .2 18.2 4.2 3.9 3.7 3.2 9.3-2.5 11.3-6.1 2.3-12.9 0-17.9-2.7zM289.4 2064.4c-3.4-2.5-9.8-8.4-4.6-13.3 4.8-4.6 13.9-.7 17.9 2s9.5 9.3 3.1 13.6c-5.2 3.5-12-.2-16.4-2.3zM328.8 2046.1c-4.5-3.5-8.3-9.1-8.8-15.3-.5-7.2 5.8-8.9 10.6-5.8 4.9 3.5 8 8.9 8.7 14.8.6 7.9-5.3 8.5-10.5 6.3z"/></g><path class="prefix__st2" d="M468.1 1871.6c0 28.2-22.8 51-51 51s-51-22.8-51-51 22.8-51 51-51 51 22.8 51 51zm-41.9.4c0-2-.8-4-2.2-5.4-1.5-1.4-3.4-2.2-5.4-2.2h-.5c-2 0-4 .8-5.4 2.2-.7.7-1.3 1.5-1.6 2.5-.5.9-.7 2-.6 3 0 2 .8 4 2.2 5.4 1.5 1.4 3.4 2.2 5.4 2.2h.5c2 0 4-.8 5.4-2.2.7-.7 1.3-1.5 1.6-2.5.5-.9.7-1.9.6-3z"/><path d="M460.2 1866.7c0 1.3-1 2.3-2.3 2.3h-31.5c-.3 0-.6-.1-.9-.2-.3-.7-.8-1.4-1.4-2-.1-.8.3-1.5.9-2l25.6-18.4c.5-.4 1.1-.5 1.7-.4.6.1 1.1.4 1.5.9 4.2 5.7 6.4 12.6 6.4 19.8zm-4.6-2.3c-.2-2.3-.6-4.5-1.3-6.7-.7-2.2-1.6-4.2-2.8-6.2l-17.9 12.9h22zM460 1874.5c-.4 7.1-3.1 13.8-7.6 19.3-.8 1-2.2 1.1-3.2.3l-23.5-19.3c.4-.9.6-1.8.6-2.8 0-.7-.1-1.3-.3-2h.5l31.5 2c1.1.1 2.1 1.2 2 2.5zm-4.8 2l-22-1.4 17.1 14c1.3-1.9 2.4-3.9 3.2-6 .8-2.2 1.4-4.4 1.7-6.6zM445.7 1843.7l-22.5 22.1-.1.1c-1.1-.8-2.4-1.3-3.7-1.5v-.7l5.4-31c.2-1.2 1.4-2.1 2.6-1.9 7 1.2 13.4 4.6 18.3 9.6.9 1 .9 2.4 0 3.3zm-4.9-1.6c-3.5-3-7.6-5.2-12-6.3l-3.8 21.8 15.8-15.5zM410.7 1870.2c-.4.1-.8.1-1.2-.1l-29.8-10.2c-1.2-.4-1.8-1.7-1.4-2.9 2.3-6.7 6.6-12.5 12.4-16.6 1-.7 2.4-.5 3.2.5l18.3 25.7c.1.1.1.3.2.4-.5.6-1 1.3-1.2 2.1-.3.3-.4.7-.5 1.1zm-6.4-6.7l-12.8-18c-3.5 2.9-6.3 6.6-8.1 10.8l20.9 7.2zM411 1875c-.3.4-.6.7-1 .8l-29.5 11.3c-1.2.4-2.5-.1-2.9-1.3-2.5-6.6-2.9-13.8-1.1-20.7.3-1.2 1.6-1.9 2.8-1.6l30.5 8c.2.1.5.2.7.3v.2c0 1.1.2 2.1.5 3zm-9.2-.9l-21.4-5.6c-.4 2.2-.6 4.5-.4 6.8.1 2.3.5 4.5 1.2 6.7l20.6-7.9zM414.2 1865.5l-17.7-26.1c-.7-1-.4-2.5.6-3.2 5.9-4 12.8-6 19.9-5.8 1.3 0 2.2 1.1 2.2 2.3l-.9 31.5v.1h-.3c-1.2.1-2.6.5-3.8 1.2zm-.2-8.5l.6-22.1c-2.3.1-4.5.5-6.7 1.1-2.2.6-4.3 1.5-6.3 2.7L414 1857zM424.9 1913.7c-6.9 1.7-14.1 1.2-20.7-1.4-.6-.2-1-.7-1.2-1.2-.2-.6-.2-1.2 0-1.7l11.6-29.3c.1-.3.4-.6.6-.9.9.4 1.9.6 2.9.6h.6c.1.2.2.4.2.6l7.6 30.6c.3 1.1-.4 2.4-1.6 2.7zm-3.4-4l-5.3-21.4-8.2 20.6c2.2.7 4.4 1.1 6.7 1.2 2.3.1 4.6 0 6.8-.4zM449.4 1898.6c-4.2 5.7-10 10-16.8 12.2-1.2.4-2.5-.3-2.9-1.4l-9.7-29.8c1.5-.3 2.9-1 4-2.1.1 0 .1-.1.2-.2l24.8 18.1c1 .8 1.2 2.2.4 3.2zm-5.1-.9l-17.8-13 6.9 21c4.2-1.8 7.9-4.5 10.9-8z"/><path d="M412.6 1877.3c.1.5.1 1-.1 1.5l-12.3 29c-.5 1.2-1.8 1.7-3 1.2-6.5-2.8-12-7.5-15.6-13.6-.6-1.1-.3-2.5.8-3.1l26.9-16.4c.7-.5 1.6-.5 2.4 0 .1.6.5 1 .9 1.4zm-7.1 6.3l-18.9 11.5c2.7 3.7 6.2 6.7 10.2 8.8l8.7-20.3z"/><path class="prefix__st0" d="M137 1718.1c4.6 16.2-6.2 37.1-25.5 42.6s-39.6-6.4-44.2-22.5 7.2-33.7 26.4-39.3 38.7 3 43.3 19.2zM110.5 1671s-2.6 15.8-13 21.1-24.7-2-24.7-2 2.6-15.8 13-21.1 24.7 2 24.7 2zM85.2 1711.2s6.5 2.2 13-3.3"/><path class="prefix__st0" d="M92.2 1710.5c-2.3-11-19.4-19.1-19.4-19.1l37.8-20.4"/><circle cx="108" cy="1714.1" r="2.6"/><circle cx="119.3" cy="1713.3" r="3.7"/><circle cx="110.4" cy="1707.3" r="2.4"/><path class="prefix__st1" d="M85.8 1669l.6 13.5 11.1 9.6M95.9 1667.2l-.6 11.9 6.3 4.9"/><path class="prefix__st0" d="M719.6 299.5c-7.1 15.2-29 23.9-47.2 15.5s-25.7-30.8-18.7-46 27.5-20.8 45.7-12.4 27.3 27.7 20.2 42.9zM730.3 246.6s-12.3 10.2-23.7 7.4-17.4-17.7-17.4-17.7 12.3-10.3 23.7-7.4 17.4 17.7 17.4 17.7zM684.9 260.4s3.5 5.9 12 6"/><path class="prefix__st0" d="M690.6 264.4c5.5-9.8-2.2-27.2-2.2-27.2l41.9 9.4"/><circle cx="700.3" cy="277.5" r="2.6"/><circle cx="709.3" cy="284.3" r="3.7"/><circle cx="706.5" cy="273.9" r="2.4"/><path class="prefix__st1" d="M713 228.9l-8.4 10.6 2.1 14.5M721.8 234.1l-8.3 8.6 1.6 7.9"/><path class="prefix__st0" d="M64.4 1650.3s-41.9-34.8-41.9-48.3 12.4-24 19.8-22.9c7.5 1.1 20.7 18.7 15 27.2-3.4 5.1-8.8 8.4-14.9 9.2l29.8 29.8-7.8 5zM101.4 1545.7s-14.6-52.4-26.9-58-27 1.5-29 8.7c-2 7.3 8.6 26.5 18.7 24.8 6-1 11.3-4.6 14.5-9.8l15 39.4 7.7-5.1zM831.2 1731.3s2 7.3 8.9 6.9M676.7 1659.3s7.4 16.8 33.3 8.4 17.7-33 17.7-33"/><path class="prefix__st0" d="M811.9 1595.8c-9.3-16-71.6 30-90.8 33.6-6.4-3-16.1-2.8-25.8.9-14.5 5.7-23.5 17.3-20.1 26.1s18 11.3 32.5 5.7 23.5-17.4 20.1-26.1c-.1-.3-.3-.6-.4-.9 21.8-12 93.1-24.5 84.5-39.3zM632 418s7.4 16.8 33.3 8.4 17.7-33 17.7-33"/><path class="prefix__st0" d="M767.2 354.5c-9.3-16-71.6 30-90.8 33.6-6.4-3-16.1-2.9-25.8.9-14.5 5.6-23.5 17.4-20.1 26.1s18 11.3 32.5 5.7 23.5-17.4 20.1-26.1c-.1-.3-.3-.7-.4-1 21.9-11.8 93.2-24.3 84.5-39.2zM686 1307.1s-17.3-16.1-35-9.2-15.8 31.7-37.4 28.3-31.3-20.2-48.4 18.6c0 0 20.3-13.8 30.8 5.8 9.9 18.4 17.9 64.3 57.1 49.8 44.3-16.3-8.4-75 32.9-93.3zM644.9 1404.2s11.2 12.1 3.5 18.2-24.9 21.9 10.4 9.9 29.2-18.6 15.4-17.7c-18.9 1.3-13.5-15.6-13.5-15.6"/><path class="prefix__st0" d="M651 1297.8c1.8-.7 3.7-1.2 5.7-1.5l-.3-.9c-4.5-13.9-19.4-21.6-33.4-17.1s-21.6 19.4-17.1 33.4c2 6.2 6.2 11.4 11.8 14.7 17.4-.2 16.8-22.1 33.3-28.6z"/><path class="prefix__st0" d="M613.7 1326.2c.3 0 .6.1.9.1.4-.4.7-.8 1-1.2-11.8-8.6-14.5-25.1-5.9-37 .1-.2.3-.4.4-.6-11.8-8.4-28.1-5.6-36.5 6.2-7.1 10-6.3 23.7 2 32.8 11.7-13.7 21.2-2.9 38.1-.3z"/><path class="prefix__st0" d="M599 1283l9.7-77.5 12.5 1.8-11.2 77.9"/><path d="M606.4 1223.1l13.3-13.2-4.1 25.2-12.3 11.3zM601.5 1260.3l13.3-13.1-4.1 25.1-12.3 11.4z"/><path class="prefix__st0" d="M611.5 1271.1l33.1-50.9 10.5 7-32.2 50.5"/><path d="M635.1 1235.2l17.5-6.3-14.4 21-15.9 5z"/><circle class="prefix__st0" cx="655.7" cy="1263.2" r="6.4"/><circle class="prefix__st0" cx="578.3" cy="1262.6" r="7.7"/><path class="prefix__st1" d="M502.7 1219.1l-.6 51.2M485.1 1229.3l33.9 34M485.1 1263.3l33.9-34M478 1246.3h48.1M490 1235l-5.1 11.1 5.1 11.5 11.1 5.1 12.4-3.2 6.4-12.1-4.2-15-13.6-4.4z"/><path class="prefix__st1" d="M514.2 1221.6c0 1.3 1.6 10.8 1.6 10.8l7.6.6-3.5 14.3 4.8 8.3-9.2.9-5.4 11.1-8.9-5.1-8.6 5.7-2.5-10.8-9.5-2.9 4.5-8.6-5.4-11.4 10.5.3.6-13.4 11.5 6.4 11.9-6.2zM801.8 491l-.6 51.2M784.2 501.3l34 33.9M784.2 535.2l34-33.9M777.2 518.2h48M789.1 507l-5.1 11.1 5.1 11.4 11.2 5.1 12.4-3.2 6.3-12.1-4.1-14.9-13.7-4.4z"/><path class="prefix__st1" d="M813.3 493.6c0 1.3 1.6 10.8 1.6 10.8l7.6.6-3.5 14.3 4.8 8.3-9.2 1-5.4 11.1-8.9-5.1-8.6 5.7-2.5-10.8-9.5-2.9 4.5-8.6-5.4-11.5 10.5.3.6-13.4 11.5 6.4 11.9-6.2z"/><path class="prefix__st0" d="M602.6 1362.3s11.4-40.3 30.2-7.4c22.7 39.5 36.3-7.4 36.3-7.4M557.1 2293.7s-5.7-22.9-24.3-26.8-30.5 17.9-46.8 3.3-15.2-34-50.6-10.9c0 0 24.5-.5 22.7 21.7-1.8 20.8-20.1 63.6 20.6 72.9 45.8 10.5 33.8-67.5 78.4-60.2zM469.5 2352.6s2.7 16.2-7.1 17.1-32.9 4.7 3.3 14 34.6.4 22.6-6.4c-16.5-9.3-2.8-20.4-2.8-20.4M456.6 2248.6c-7.6-39.1 53.3-13.3 85.5-31.9"/><path class="prefix__st0" d="M469.3 2224.4c1.7-28.2 29.8-24.2 37.5-23.9s15.6.8 23.1-.8c12.9-2.8 14.4-18.7 10.7-21.6 0 0 21.1 14.6 6.4 32"/><path class="prefix__st0" d="M550.9 2204.6c8.8 6.4 10.7 18.7 4.4 27.4-1.8 2.5-4.3 4.6-7.1 6M548.8 2238.9c5.5 4.8 16.1 25.4-.5 37.6"/><circle cx="478.6" cy="2291.5" r="4.2"/><circle cx="505.5" cy="2299.2" r="4.2"/><path d="M485.9 2298.3s3.4 10.4 10.1 2.4" fill="none" stroke="#000" stroke-width="4" stroke-linecap="round" stroke-miterlimit="10"/><path class="prefix__st0" d="M525.8 2229.8l2.2 1.9c.4.3.9.4 1.4.3l2.8-.8c.8-.2 1.7.3 1.9 1.1.1.3.1.7-.1 1l-1.1 2.7c-.2.5-.1 1 .2 1.4l1.6 2.4c.5.7.3 1.7-.4 2.2-.3.2-.6.3-1 .3l-2.9-.2c-.5 0-1 .2-1.3.6l-1.8 2.3c-.5.7-1.5.8-2.2.2-.3-.2-.4-.5-.5-.8l-.7-2.8c-.1-.5-.5-.9-1-1.1l-2.7-1c-.8-.3-1.2-1.2-.9-2 .1-.3.3-.6.6-.8l2.4-1.5c.4-.3.7-.7.7-1.2l.1-2.9c0-.9.7-1.6 1.6-1.6.4-.1.8.1 1.1.3zM500.1 2243.7l-.1 2.9c0 .5.2 1 .6 1.3l2.3 1.7c.7.5.8 1.5.3 2.2-.2.3-.5.5-.8.6l-2.8.8c-.5.1-.9.5-1 1l-.9 2.7c-.3.8-1.2 1.3-2 1-.3-.1-.6-.3-.8-.6l-1.6-2.4c-.3-.4-.8-.7-1.3-.7h-2.9c-.9 0-1.6-.7-1.5-1.6 0-.3.1-.7.3-.9l1.8-2.3c.3-.4.4-.9.3-1.4l-.9-2.8c-.3-.8.2-1.7 1-1.9.3-.1.7-.1 1 0l2.7 1c.5.2 1 .1 1.4-.2l2.4-1.7c.7-.5 1.7-.4 2.2.3.2.3.3.7.3 1z"/><circle class="prefix__st0" cx="519.1" cy="2253.2" r="3.5"/><path class="prefix__st0" d="M847.3 1580.4l19.8-58.8c2.4-7.2 10.2-11 17.3-8.6l54.3 18.3c7.2 2.4 11 10.2 8.6 17.3l-19.8 58.8c-2.4 7.2-10.2 11-17.3 8.6l-54.3-18.3c-7.1-2.4-11-10.2-8.6-17.3z"/><path class="prefix__st0" d="M944.7 1534.7c7.9 4.6 8.8 16 6.5 22.6l-20.8 60.5c-2.3 6.6-9.4 10.1-16 7.8l-56.1-19.2c-6.6-2.2-15.9-12-12.3-22.9M873 1532.7l2.7-7.7c1.1-3.1 4.5-4.8 7.6-3.7l7.7 2.7c3.1 1.1 4.8 4.5 3.7 7.6l-2.7 7.7c-1.1 3.1-4.5 4.8-7.6 3.7l-7.7-2.7c-3.1-1.1-4.8-4.4-3.7-7.6zM895.5 1540.4l2.7-7.7c1.1-3.1 4.5-4.8 7.6-3.7l7.7 2.7c3.1 1.1 4.8 4.5 3.7 7.6l-2.7 7.7c-1.1 3.1-4.5 4.8-7.6 3.7l-7.7-2.7c-3.1-1.1-4.8-4.4-3.7-7.6z"/><path class="prefix__st0" d="M918 1548.2l2.7-7.7c1.1-3.1 4.5-4.8 7.6-3.7l7.7 2.7c3.1 1.1 4.8 4.5 3.7 7.6l-2.7 7.7c-1.1 3.1-4.5 4.8-7.6 3.7l-7.7-2.7c-3.1-1.1-4.8-4.5-3.7-7.6zM864.6 1557.2l2.7-7.7c1.1-3.1 4.5-4.8 7.6-3.7l7.7 2.7c3.1 1.1 4.8 4.5 3.7 7.6l-2.7 7.7c-1.1 3.1-4.5 4.8-7.6 3.7l-7.7-2.7c-3.1-1.1-4.7-4.5-3.7-7.6zM887.1 1564.9l2.7-7.7c1.1-3.1 4.5-4.8 7.6-3.7l7.7 2.7c3.1 1.1 4.8 4.5 3.7 7.6l-2.7 7.7c-1.1 3.1-4.5 4.8-7.6 3.7l-7.7-2.7c-3.1-1.1-4.8-4.5-3.7-7.6zM909.6 1572.6l2.7-7.7c1.1-3.1 4.5-4.8 7.6-3.7l7.7 2.7c3.1 1.1 4.8 4.5 3.7 7.6l-2.7 7.7c-1.1 3.1-4.5 4.8-7.6 3.7l-7.7-2.7c-3.1-1.1-4.8-4.5-3.7-7.6zM856.4 1581.2l2.7-7.7c1.1-3.1 4.5-4.8 7.6-3.7l7.7 2.7c3.1 1.1 4.8 4.5 3.7 7.6l-2.7 7.7c-1.1 3.1-4.5 4.8-7.6 3.7l-7.7-2.7c-3.1-1.1-4.8-4.5-3.7-7.6zM878.9 1588.9l2.7-7.7c1.1-3.1 4.5-4.8 7.6-3.7l7.7 2.7c3.1 1.1 4.8 4.5 3.7 7.6l-2.7 7.7c-1.1 3.1-4.5 4.8-7.6 3.7l-7.7-2.7c-3.1-1.1-4.8-4.5-3.7-7.6zM901.4 1596.6l2.7-7.7c1.1-3.1 4.5-4.8 7.6-3.7l7.7 2.7c3.1 1.1 4.8 4.5 3.7 7.6l-2.7 7.7c-1.1 3.1-4.5 4.8-7.6 3.7l-7.7-2.7c-3.1-1.1-4.8-4.5-3.7-7.6zM18.3 2361.7l26.9-50.5c3.5-6.7 11.8-9.2 18.5-5.6l54.6 29.1c6.7 3.5 9.2 11.8 5.6 18.5L97 2403.7c-3.5 6.7-11.8 9.2-18.5 5.6L24 2380.1c-6.7-3.5-9.2-11.8-5.7-18.4z"/><path class="prefix__st0" d="M48.6 2306.1c5.8-7.1 16.7-5.8 22.8-2.6l56.5 30.1c6.1 3.3 8.4 10.9 5.2 17l-27.9 52.4c-3.3 6.1-13.1 13.2-23.3 7.9M25.1 2364.7l3.8-7.2c1.5-2.9 5.2-4 8.1-2.5l7.2 3.8c2.9 1.5 4 5.2 2.5 8.1l-3.8 7.2c-1.5 2.9-5.2 4-8.1 2.5l-7.2-3.8c-2.9-1.6-4-5.2-2.5-8.1zM36.3 2343.7l3.8-7.2c1.5-2.9 5.2-4 8.1-2.5l7.2 3.8c2.9 1.5 4 5.2 2.5 8.1l-3.8 7.2c-1.5 2.9-5.2 4-8.1 2.5l-7.2-3.8c-2.9-1.5-4-5.1-2.5-8.1z"/><path class="prefix__st0" d="M47.5 2322.8l3.8-7.2c1.5-2.9 5.2-4 8.1-2.5l7.2 3.8c2.9 1.5 4 5.2 2.5 8.1l-3.8 7.2c-1.5 2.9-5.2 4-8.1 2.5l-7.2-3.8c-3-1.6-4.1-5.2-2.5-8.1zM48 2376.9l3.8-7.2c1.5-2.9 5.2-4 8.1-2.5l7.2 3.8c2.9 1.5 4 5.2 2.5 8.1l-3.8 7.2c-1.5 2.9-5.2 4-8.1 2.5l-7.2-3.8c-3-1.6-4.1-5.2-2.5-8.1zM59.1 2355.9l3.8-7.2c1.5-2.9 5.2-4 8.1-2.5l7.2 3.8c2.9 1.5 4 5.2 2.5 8.1l-3.8 7.2c-1.5 2.9-5.2 4-8.1 2.5l-7.2-3.8c-2.9-1.6-4-5.2-2.5-8.1zM70.3 2334.9l3.8-7.2c1.5-2.9 5.2-4 8.1-2.5l7.2 3.8c2.9 1.5 4 5.2 2.5 8.1l-3.8 7.2c-1.5 2.9-5.2 4-8.1 2.5l-7.2-3.8c-2.9-1.6-4-5.2-2.5-8.1zM70.3 2388.8l3.8-7.2c1.5-2.9 5.2-4 8.1-2.5l7.2 3.8c2.9 1.5 4 5.2 2.5 8.1l-3.8 7.2c-1.5 2.9-5.2 4-8.1 2.5l-7.2-3.8c-2.9-1.6-4-5.2-2.5-8.1zM81.5 2367.8l3.8-7.2c1.5-2.9 5.2-4 8.1-2.5l7.2 3.8c2.9 1.5 4 5.2 2.5 8.1l-3.8 7.2c-1.5 2.9-5.2 4-8.1 2.5l-7.2-3.8c-2.9-1.6-4-5.2-2.5-8.1zM92.7 2346.8l3.8-7.2c1.5-2.9 5.2-4 8.1-2.5l7.2 3.8c2.9 1.5 4 5.2 2.5 8.1l-3.8 7.2c-1.5 2.9-5.2 4-8.1 2.5l-7.2-3.8c-3-1.6-4.1-5.2-2.5-8.1zM814.7 405.6l48-31c6.3-4.1 14.8-2.3 18.9 4.1l33.5 52c4.1 6.3 2.3 14.8-4.1 18.9l-48 31c-6.3 4.1-14.8 2.3-18.9-4.1l-33.5-52c-4-6.4-2.2-14.8 4.1-18.9z"/><path class="prefix__st0" d="M868.4 371.6c8.5-3.4 17.4 3 21.1 8.9l34.7 53.8c3.8 5.8 2.1 13.6-3.8 17.4l-49.8 32.2c-5.8 3.8-17.9 5.2-24.2-4.4M819.1 411.5l6.9-4.4c2.8-1.8 6.5-1 8.2 1.8l4.4 6.9c1.8 2.8 1 6.5-1.8 8.2l-6.9 4.4c-2.8 1.8-6.5 1-8.2-1.8l-4.4-6.9c-1.7-2.7-.9-6.4 1.8-8.2zM839.1 398.6l6.9-4.4c2.8-1.8 6.5-1 8.2 1.8l4.4 6.9c1.8 2.8 1 6.5-1.8 8.2l-6.9 4.4c-2.8 1.8-6.5 1-8.2-1.8l-4.4-6.9c-1.7-2.7-1-6.4 1.8-8.2z"/><path class="prefix__st0" d="M859.1 385.8l6.9-4.4c2.8-1.8 6.5-1 8.2 1.8l4.4 6.9c1.8 2.8 1 6.5-1.8 8.2l-6.9 4.4c-2.8 1.8-6.5 1-8.2-1.8l-4.4-6.9c-1.8-2.8-1-6.5 1.8-8.2zM833.2 433.3l6.9-4.4c2.8-1.8 6.5-1 8.2 1.8l4.4 6.9c1.8 2.8 1 6.5-1.8 8.2l-6.9 4.4c-2.8 1.8-6.5 1-8.2-1.8l-4.4-6.9c-1.8-2.8-1-6.5 1.8-8.2zM853.1 420.4l6.9-4.4c2.8-1.8 6.5-1 8.2 1.8l4.4 6.9c1.8 2.8 1 6.5-1.8 8.2l-6.9 4.4c-2.8 1.8-6.5 1-8.2-1.8l-4.4-6.9c-1.7-2.8-.9-6.4 1.8-8.2zM873.1 407.5l6.9-4.4c2.8-1.8 6.5-1 8.2 1.8l4.4 6.9c1.8 2.8 1 6.5-1.8 8.2l-6.9 4.4c-2.8 1.8-6.5 1-8.2-1.8l-4.4-6.9c-1.8-2.8-1-6.4 1.8-8.2zM846.9 454.6l6.9-4.4c2.8-1.8 6.5-1 8.2 1.8l4.4 6.9c1.8 2.8 1 6.5-1.8 8.2l-6.9 4.4c-2.8 1.8-6.5 1-8.2-1.8l-4.4-6.9c-1.7-2.8-.9-6.5 1.8-8.2zM866.9 441.7l6.9-4.4c2.8-1.8 6.5-1 8.2 1.8l4.4 6.9c1.8 2.8 1 6.5-1.8 8.2l-6.9 4.4c-2.8 1.8-6.5 1-8.2-1.8l-4.4-6.9c-1.8-2.8-1-6.4 1.8-8.2zM885.7 430.7l6.9-4.4c2.8-1.8 6.4-1 8.2 1.8l4.4 6.9c1.8 2.8 1 6.4-1.8 8.2l-6.9 4.4c-2.8 1.8-6.4 1-8.2-1.8l-4.4-6.9c-1.8-2.8-1-6.5 1.8-8.2zM1026 1656.8s13.6-7.2 19.9 13.8c6.5 21.5-7 22-7 22s-34.4 9.6-41.1-6.7 29.6-29.6 29.6-29.6"/><path class="prefix__st0" d="M1020.2 1657.5c-7.6-11.1 26.6-23.6 42.8-23.6 28.3 0 29 33.8 26.8 43.9-4.3 19.9-51.5 28.3-54.7 17.4"/><path class="prefix__st0" d="M1045.6 1634s-5.8-19.6 26.1-26.1c41-8.3 44.2 34.4 35.9 53.6s-19.2 20.3-19.2 20.3"/><path class="prefix__st0" d="M1096.7 1609c-12.7-18.8-31.2-25.2-42.8-19.6-14.1 6.9 4 21 4 21"/><circle class="prefix__st0" cx="1081.4" cy="1619.5" r="2.9"/><circle class="prefix__st0" cx="1053.9" cy="1651.7" r="2.2"/><circle class="prefix__st0" cx="1070.2" cy="1652.8" r="1.8"/><circle class="prefix__st0" cx="1064.2" cy="1626.5" r="1.6"/><circle class="prefix__st0" cx="1093.6" cy="1634.5" r="2"/><circle class="prefix__st0" cx="328.5" cy="2387.7" r="30.4"/><path class="prefix__st0" d="M316.9 2360.8s-13.7 24.1 6.2 27.2c26.9 4.3 23.2 21 16.5 26.4"/><path class="prefix__st0" d="M346.2 2364.4s-27.7-.2-20.7 18.7c9.4 25.6-7 30.5-15 27.2"/><path class="prefix__st0" d="M357.4 2391.3s-13.8-24-26.6-8.5c-17.4 21-29.9 9.4-31.1.8"/><circle class="prefix__st0" cx="1084.6" cy="43.1" r="30.4"/><path class="prefix__st0" d="M1073 16.1s-13.7 24.1 6.2 27.2c26.9 4.2 23.2 21 16.4 26.4"/><path class="prefix__st0" d="M1102.3 19.8s-27.7-.2-20.7 18.7c9.4 25.6-7 30.5-15 27.2"/><path class="prefix__st0" d="M1113.4 46.6s-13.8-24-26.6-8.5c-17.3 21-29.9 9.4-31.1.8"/><path transform="rotate(-73.28 669.482 129.8)" class="prefix__st0" d="M661.4 100.5h16.2V159h-16.2z"/><path class="prefix__st0" d="M693.6 128.5c-.2-13.2-11.1-23.7-24.3-23.4-7.7.1-14.9 4-19.2 10.3l43.5 13.1zM646 131.1c1.2 13.1 12.8 22.8 25.9 21.6 6.5-.6 12.4-3.8 16.5-8.9L646 131.1z"/><path transform="rotate(-73.28 652.054 187.827)" class="prefix__st0" d="M615.1 184.6h73.8v6.4h-73.8z"/><circle class="prefix__st0" cx="1009.9" cy="1806.1" r="25"/><path class="prefix__st0" d="M1000.2 1830.7s-35.4 25.9-24.9 37 25.4-11.1 25.4-11.1l8.6 31.7s-28.9 25.5-12.1 34.5 35.7-27.9 35.7-27.9M1029 1822.9s43.6 4.5 40.2 19.4-27.5 3.3-27.5 3.3l8.6 31.7s37.9 7.4 27.8 23.7-44.9-6-44.9-6"/><circle class="prefix__st0" cx="1020.8" cy="1845.4" r="4.7"/><circle class="prefix__st0" cx="1025.9" cy="1864.4" r="4.7"/><path class="prefix__st0" d="M1008.7 1882.3s4.4 8.4 8.6 1.7 7.5 5.7 12.5-1 8.8 1.5 11.1-3.4c3.5-7.6 8-2.2 8-2.2M1002.7 1815.5s9.2 5.6 18-4.7"/><circle cx="997.8" cy="1804.7" r="4"/><circle cx="1018.8" cy="1799" r="4"/><circle cx="234.7" cy="1891.1" r="6.2"/><circle cx="272" cy="1880.6" r="6.2"/><ellipse transform="rotate(-10.454 257.977 1900.26)" class="prefix__st2" cx="257.8" cy="1899.8" rx="5.3" ry="6.3"/><path class="prefix__st0" d="M835.6 267.5l-11.7-24.8c-1.7-4.2 0-8.9 3.8-11.2 8.2-4.9 20.5-14.1 16.7-22.6-3.6-8-19.5-2.3-30.5 2.9 6.9-10.6 4-24.8-6.6-31.7s-24.8-4-31.7 6.6c-6.5 9.9-4.4 23 4.8 30.4-12.1-1.3-28.3-1.4-29.1 7.1-.9 9.3 13.7 14 23 16.1 4.4 1 7.4 4.9 7.2 9.4l-3.3 27.2s-12.3 7-13 13.8 28.6 14.6 31.1 3.4c8.3-37.2 15.2-34 27.7-4.5 4.5 10.6 31.2-6.9 28.3-13.2s-16.7-8.9-16.7-8.9z"/><circle cx="785.3" cy="196.3" r="3.4"/><circle cx="803.6" cy="192.3" r="3.4"/><path class="prefix__st0" d="M790.8 201.4s6.1 4.3 10.5-1.5"/><circle class="prefix__st0" cx="799.3" cy="224.6" r="3.2"/><circle class="prefix__st0" cx="802.7" cy="237.4" r="3.2"/><circle class="prefix__st0" cx="805.7" cy="251.7" r="3.2"/><path class="prefix__st0" d="M775.3 217.6s3.8 5.1-3 7.1-2 7 .9 9.8-2.8 4.7-2.8 4.7M824 207.8s5.8 2.7.7 7.7.8 4.9 4.7 5.9.3 8.9.3 8.9M770.3 283.3s8.8-3.2 7.1 5.6 5 4.1 9.8.9 8.2 4.3 8.2 4.3M823.7 285.8s1-5.6 8.9-1.6 8.3-3.5 7.2-6.7c-2-5.4 8.9-5 8.9-5M1042.4 1394.8l-11 31.7c-2.1 5.1-7.7 7.8-13 6.5-11.4-2.7-30-5.3-33.9 5.4-3.7 10 15 18.7 29.1 23.6-15.1 3.3-24.6 18.3-21.3 33.4 3.3 15.1 18.3 24.6 33.4 21.3 14-3.1 23.5-16.3 21.8-30.6 9.4 11.5 23.5 25.4 31.5 18.7 8.8-7.3.1-23.9-6.4-33.8-3-4.6-2.3-10.7 1.8-14.4l26.2-21s16.7 4.5 23.2-.9-12.4-37.2-24.2-29.6c-39.1 25.4-42.3 16.7-28.1-19.7 5.1-13.1-33.1-20.6-36-12.8s6.9 22.2 6.9 22.2z"/><path d="M1025.3 1495.8c2.3 0 4.2 1.9 4.2 4.2 0 2.3-1.9 4.2-4.2 4.2s-4.2-1.9-4.2-4.2c.1-2.3 1.9-4.2 4.2-4.2z"/><circle cx="1006" cy="1487.8" r="4.2"/><path class="prefix__st0" d="M1024.9 1490.9s-1.6-9-10.5-7.7"/><circle class="prefix__st0" cx="1037.4" cy="1463.3" r="3.9"/><circle class="prefix__st0" cx="1045.4" cy="1449.2" r="3.9"/><circle class="prefix__st0" cx="1055" cy="1434.2" r="3.9"/><path class="prefix__st0" d="M1052.3 1490s1-7.7 8.7-3.6 7.7-4.3 7.6-9.3 6.4-1.7 6.4-1.7M1001.4 1456.8s-2.7-7.3 6-7.3 3.5-4.9 1-9.2 7.3-8 7.3-8M1113 1436.9s-10.3-4.7-1.4-10.9-.8-7.8-7.8-9.1-3.5-10.8-3.5-10.8M1068.5 1389s-5.7 4.1-9.1-6.2-10.3-4-12-.3c-2.9 6.4-12-3.3-12-3.3"/><ellipse class="prefix__st1" cx="1053.8" cy="324.2" rx="4.6" ry="9.1"/><ellipse class="prefix__st1" cx="1053.8" cy="359.9" rx="4.6" ry="9.1"/><ellipse transform="rotate(-45.001 1066.652 329.434)" class="prefix__st1" cx="1066.7" cy="329.4" rx="9.1" ry="4.6"/><ellipse transform="rotate(-45.001 1041.411 354.668)" class="prefix__st1" cx="1041.4" cy="354.7" rx="9.1" ry="4.6"/><ellipse class="prefix__st1" cx="1072.1" cy="342.2" rx="9.1" ry="4.6"/><ellipse class="prefix__st1" cx="1036.4" cy="342.2" rx="9.1" ry="4.6"/><ellipse transform="rotate(-45.001 1066.873 355.054)" class="prefix__st1" cx="1066.9" cy="355" rx="4.6" ry="9.1"/><path class="prefix__st1" d="M1079.1 367.5s-10.3 0-17.2-6.1c-.6 9.2-7.9 16.5-7.9 16.5s-7.3-7.3-7.9-16.5c-6.9 6.1-17.2 6.1-17.2 6.1s0-10.3 6.1-17.2c-9.2-.6-16.5-7.9-16.5-7.9s7.3-7.3 16.5-7.9c-6.1-6.9-6.1-17.2-6.1-17.2s10.3 0 17.2 6c.6-9.2 7.9-16.5 7.9-16.5s7.3 7.3 7.9 16.5c6.9-6.1 17.2-6 17.2-6s0 10.3-6 17.2c9.2.6 16.4 7.9 16.4 7.9s-7.3 7.3-16.4 7.9c6 6.8 6 17.2 6 17.2zm-25.1-25l.2.1v-.2h.2l-.2-.1.2-.1h-.2v-.2l-.2.1-.1-.1v.2h-.2l.2.1-.2.1h.2v.2l.1-.1z"/><ellipse transform="rotate(-45.001 1041.624 329.804)" class="prefix__st1" cx="1041.6" cy="329.8" rx="4.6" ry="9.1"/><path d="M1108.4 1753.2c-3.5 0-6.1-4.5-6.1-10.6s2.6-10.6 6.1-10.6 6.1 4.5 6.1 10.6-2.7 10.6-6.1 10.6zm0-18.1c-1.3 0-3.1 3-3.1 7.6s1.8 7.6 3.1 7.6 3.1-3 3.1-7.6-1.9-7.6-3.1-7.6zM1108.4 1788.9c-3.5 0-6.1-4.5-6.1-10.6s2.6-10.6 6.1-10.6 6.1 4.5 6.1 10.6-2.7 10.6-6.1 10.6zm0-18.1c-1.3 0-3.1 3-3.1 7.6s1.8 7.6 3.1 7.6 3.1-2.9 3.1-7.6-1.9-7.6-3.1-7.6z"/><path d="M1125.1 1748.1c-.5.7-1 1.3-1.7 1.9-3.3 3.3-6.6 4-7.5 3.2s-.1-4.3 3.2-7.5c1.6-1.8 3.7-3 6-3.5v-3c-2.5.2-5.5 1.7-8.2 4.4-4.2 4.3-5.6 9.3-3.2 11.8.9.8 2 1.3 3.2 1.2 2.4 0 5.4-1.4 8.1-4l.1-4.5zM1091.7 1781.7c-1.2 0-2.4-.4-3.2-1.2-2.5-2.4-1.1-7.5 3.2-11.8s9.3-5.6 11.8-3.2 1.1 7.5-3.2 11.8c-2.9 2.9-6 4.4-8.6 4.4zm8.5-14.3c-1.5 0-4 1.1-6.4 3.5-3.3 3.3-4 6.6-3.2 7.5s4.3.1 7.5-3.2 4-6.6 3.2-7.5c-.3-.3-.7-.4-1.1-.3z"/><path d="M1125.1 1763.6c-3.7-.4-6-1.9-6-3s2.3-2.7 6-3v-3c-5.2.4-9 2.9-9 6s3.8 5.6 9 6v-3zM1090.9 1766.7c-6 0-10.6-2.6-10.6-6.1s4.5-6.1 10.6-6.1 10.6 2.6 10.6 6.1-4.6 6.1-10.6 6.1zm0-9.2c-4.6 0-7.6 1.8-7.6 3.1s3 3.1 7.6 3.1 7.6-1.8 7.6-3.1-3-3.1-7.6-3.1z"/><path d="M1125.1 1779.1c-2.2-.5-4.3-1.7-5.8-3.4-3.3-3.3-4-6.6-3.2-7.5.3-.2.7-.4 1.1-.3 1.5 0 4 1 6.4 3.5.5.5 1 1.1 1.4 1.7v-4.4c-4.1-3.8-8.8-4.8-11.1-2.5s-1.1 7.5 3.2 11.8c2.6 2.6 5.5 4.1 7.9 4.3l.1-3.2z"/><path d="M1125.1 1782.8c-2.8-.9-5.4-2.3-7.7-4.1-.4-.4-1-.5-1.6-.2-.5.2-.9.7-.9 1.3-.4 6.4-4.4 12-6.4 14.3-2-2.3-6-7.8-6.4-14.3 0-.6-.4-1.1-.9-1.3-.2-.1-.4-.1-.6-.1-.4 0-.7.1-1 .4-4.8 4.2-11.6 5.3-14.6 5.6.3-3 1.3-9.8 5.5-14.7.5-.6.5-1.6-.1-2.1-.2-.2-.5-.3-.9-.4-6.4-.4-12-4.4-14.3-6.4 2.3-2 7.8-6 14.3-6.4.6 0 1.1-.4 1.3-.9.2-.5.1-1.1-.3-1.6-4.2-4.8-5.3-11.6-5.6-14.6 3 .3 9.8 1.3 14.7 5.6.6.5 1.6.5 2.1-.1.2-.2.3-.5.4-.9.4-6.4 4.4-12 6.4-14.3 2 2.3 6 7.9 6.4 14.3.1.8.8 1.4 1.6 1.4.3 0 .6-.2.9-.4 2.2-1.9 4.9-3.3 7.7-4.2v-3.2c-2.7.8-5.2 1.9-7.5 3.4-1.6-8.3-7.7-14.5-8-14.7-.6-.6-1.5-.6-2.1 0-.3.3-6.4 6.4-8 14.8-7-4.7-15.7-4.8-16.1-4.8-.8 0-1.5.7-1.5 1.5 0 .4 0 9.1 4.7 16.1-8.3 1.6-14.5 7.7-14.7 8-.6.6-.6 1.5 0 2.1.3.3 6.4 6.4 14.8 8-4.7 7-4.8 15.7-4.8 16.1 0 .8.7 1.5 1.5 1.5.4 0 9 0 16.1-4.7 1.6 8.3 7.7 14.5 8 14.7.6.6 1.5.6 2.1 0 .3-.3 6.4-6.4 8-14.8 2.3 1.5 4.8 2.7 7.5 3.4v-3.3z"/><path d="M1109.2 1759c-.2-.1-.5-.1-.7-.1-.2 0-.5 0-.7.1-.4.2-.8.6-1 1-.1.2-.1.5-.1.7 0 .2 0 .5.1.7.1.2.2.4.4.6.2.2.4.3.6.4.2.1.5.1.7.1h.2c.2 0 .4 0 .6-.1.4-.2.8-.6 1-1 .1-.2.1-.5.1-.7 0-.2 0-.5-.1-.7-.1-.2-.2-.4-.4-.6-.2-.2-.4-.3-.7-.4zM1100.4 1756.9c-2.5 0-5.7-1.6-8.6-4.4-1.8-1.7-3.1-3.8-3.9-6.1-.8-2.4-.5-4.4.8-5.7 1.3-1.3 3.3-1.6 5.7-.8 2.3.8 4.4 2.2 6.1 4 4.3 4.2 5.6 9.3 3.2 11.8-.9.8-2.1 1.2-3.3 1.2zm-8.5-14.4c-.4 0-.8.1-1.1.3-.4.4-.4 1.4 0 2.6.7 1.8 1.8 3.5 3.2 4.9 3.3 3.3 6.6 4.1 7.5 3.2s.1-4.3-3.2-7.5c-1.4-1.4-3-2.5-4.9-3.2-.4-.2-.9-.3-1.5-.3zm-2.1-.7zM1125.6 483.6c-3.5-6.3-5.2-13.4-4.8-20.6.2-6.7 1.8-12.2 4.8-16.5v-4.7c-4.9 5.1-7.6 12.1-7.8 21.1-.3 10.3 2.3 19 7.8 26.2v-5.5z"/><path d="M1125.6 498.8c-.4-.4-.9-.7-1.3-1.1-9.8-8.5-14.5-20-14.1-34.1.4-12.8 4.6-22.4 12.7-28.8.9-.7 1.7-1.3 2.7-1.9v-4.7c-1.8 1-3.5 2.1-5.1 3.4-9.1 7.1-13.9 17.8-14.3 31.8-.4 15.4 4.8 27.9 15.5 37.2 1.2 1.1 2.6 2.1 3.9 3.1v-4.9zM1125.1 686.2c-9.4-10-11.5-24.9-5.1-37.1l5.1-9.6V631l-8.6 16.3c-7.9 15-4.3 33.5 8.6 44.5v-5.6z"/><path d="M1125.1 716l-10.3 20.2c-1.7 3.2-4.6 4.6-6.1 3.8l-1.4-.7c-.6-.4-1-.9-1.2-1.6-.4-1.9-.1-3.9.9-5.6l18.1-34.1v-8c-.3.2-.5.4-.7.7l-20.9 39.4c-1.5 2.6-1.9 5.8-1.2 8.7.5 1.7 1.6 3.1 3.1 3.9l1.4.7c.9.5 1.9.7 2.8.7 3.2 0 6.6-2.3 8.7-6.2l6.8-13.2V716zM1125.1 1037.6c-2.3-6.2-2.3-11.6 0-15.4v-6c-1 .8-1.9 1.8-2.7 2.8-4.4 6.1-4 15 1.3 25.1.4.9.9 1.7 1.4 2.6v-9.1z"/><path d="M1125.1 1060c-3.2-1.4-4.9-3-4.4-6.6 1-8.1-.8-10.3-3.5-12.4-1.3-.9-2.2-2.1-2.7-3.6-2.2-6.8 8.4-13.6 8.5-13.7.9-.6 1.2-1.8.6-2.8s-1.8-1.2-2.8-.6c-.6.3-13.2 8.6-10.2 18.3.7 2.2 2.1 4.2 4 5.5 1.7 1.3 2.8 2.3 2.1 8.8-.8 7.1 3.9 9.6 8.4 11.4v-4.3z"/><path d="M1125.1 1075.3c-12.2-12.6-14.5-21.1-14.2-26.1.1-2.8 1.3-5.4 3.4-7.3.9-.6 1.1-1.9.5-2.8s-1.9-1.1-2.8-.5c-3.1 2.5-4.9 6.2-5.1 10.1-.7 9 5.4 19.9 18.1 32.2l.1-5.6zM18.9 2154.1c1.4-2.4.8-5.6-1.4-7.3-1.2-.9-2.7-1.3-4.2-1.1l-13.7 1.7v4l14.2-1.8c.9-.1 1.7.5 1.9 1.4 0 .4 0 .7-.2 1.1l-7.2 12.4c-.9 1.6-1 3.6-.2 5.2l6.1 13c.2.4.2.9.1 1.3-.2.4-.5.8-.9.9-.3.1-.7.2-1.1.1l-12.6-2.7v4.1l11.7 2.6c2.8.6 5.6-.9 6.5-3.6.5-1.4.5-3-.2-4.3l-6.1-13c-.2-.5-.2-1.1.1-1.5l7.2-12.5zM4.1 1740.3c-1.1-1-2.7-1.4-4.1-1.1v3c.3-.1.6-.1.9-.1.4 0 .8.1 1.1.3.8.8.3 3.4-2 6.3v4.3c.3-.3.6-.6 1-.9 4.2-4.2 5.6-9.3 3.1-11.8zM2.1 1754.5c-.7 0-1.4 0-2.1.1v3c.7-.1 1.4-.1 2.1-.1 4.6 0 7.6 1.8 7.6 3.1s-3 3.1-7.6 3.1c-.7 0-1.4 0-2.1-.1v3c.7.1 1.4.1 2.1.1 6 0 10.6-2.6 10.6-6.1s-4.6-6.1-10.6-6.1zM5.1 1775.2c-.8-2.3-2.2-4.4-3.9-6.1-.4-.4-.8-.7-1.2-1.1v4.2c1 1.1 1.8 2.4 2.3 3.8.4 1.2.4 2.2 0 2.6-.7.4-1.5.5-2.2.2v3.1c.4.1.8.1 1.1.1 1.2 0 2.4-.4 3.2-1.2 1.2-1.2 1.5-3.2.7-5.6z"/><path d="M20.5 1759.7c-.3-.3-6.4-6.3-14.8-8 4.7-7 4.8-15.7 4.8-16.1 0-.8-.7-1.5-1.5-1.5-3.1.1-6.1.6-9.1 1.5v3.2c2.4-.8 4.9-1.3 7.5-1.6-.3 3-1.3 9.8-5.6 14.6-.5.6-.5 1.6.1 2.1.2.2.5.3.9.4 6.4.4 12 4.4 14.3 6.4-2.3 2-7.9 6-14.3 6.4-.8.1-1.4.8-1.4 1.6 0 .3.2.6.4.9 4.3 4.8 5.3 11.6 5.6 14.6-2.5-.2-5-.7-7.5-1.5v3.2c2.9.9 6 1.4 9.1 1.5.8 0 1.5-.7 1.5-1.5 0-.4 0-9-4.8-16.1 8.3-1.6 14.5-7.7 14.8-8 .6-.6.6-1.6 0-2.1z"/><circle class="prefix__st0" cx="815.1" cy="2415.9" r="7.9"/><path d="M28 903c-5.9-10.9-13.9-17.4-23.6-19.3-1.4-.3-2.9-.4-4.4-.5v4c1.2.1 2.4.2 3.6.5 8.5 1.7 15.6 7.5 20.9 17.3 3.5 5.9 3.9 13.1 1.2 19.4-3.9 9.6-13.9 18.5-25.7 26v4.8c15.5-9.6 25.3-19.4 29.4-29.2 3.1-7.5 2.6-16-1.4-23zM0 1421.9v14.6c.1-.1.2-.2.3-.2 3.1-2.6 2.4-8.3-.3-14.4z"/><path class="prefix__st8" d="M1051.3 2085.1l-9.9-59.6c-2.1 1.1-4.4 1.9-6.7 2.3-11.3 2-21.4-4.4-27-13.6-9.3 6.3-22-.6-27.4-10.1l-21.8 3.6c-4.8.8-8.1 5.4-7.3 10.2l14.6 88M968.6 2130.5l3.6 18c.8 4.8 5.5 8.1 10.5 7.3l71.3-11.8c5-.8 8.4-5.4 7.6-10.3l-4.1-19.4"/><path class="prefix__st8" d="M977.3 2037.6l-12 2c-1.6.3-3.2-.8-3.5-2.5l-3.1-18.5c-.3-1.6.8-3.2 2.5-3.5l12-2c1.6-.3 3.2.8 3.5 2.5l3.1 18.5c.2 1.7-.9 3.2-2.5 3.5zM986.4 2011.3c-1.2.7-1.9 2.1-1.6 3.6l2.9 17.4c.3 1.9 2.2 3.3 4.1 2.9l10.9-1.8c2-.3 3.3-2.2 2.9-4.1l-2.2-13.2c-5.7 1.5-12.1-.7-17-4.8zM1011 2018.6l1.6 9.6c.3 1.9 2.2 3.3 4.1 2.9l10.9-1.8c.9-.1 1.6-.6 2.1-1.2-7.4-.3-14-4.1-18.7-9.5zM982.6 2070l-12 2c-1.6.3-3.2-.8-3.5-2.5L964 2051c-.3-1.6.8-3.2 2.5-3.5l12-2c1.6-.3 3.2.8 3.5 2.5l3.1 18.5c.3 1.6-.8 3.2-2.5 3.5zM1008.6 2065.7l-12 2c-1.6.3-3.2-.8-3.5-2.5l-3.1-18.5c-.3-1.6.8-3.2 2.5-3.5l12-2c1.6-.3 3.2.8 3.5 2.5l3.1 18.5c.2 1.7-.9 3.2-2.5 3.5zM1033.5 2061.5l-12 2c-1.6.3-3.2-.8-3.5-2.5l-3.1-18.5c-.3-1.6.8-3.2 2.5-3.5l12-2c1.6-.3 3.2.8 3.5 2.5l3.1 18.5c.2 1.7-.9 3.3-2.5 3.5z"/><g><path class="prefix__st8" d="M987.9 2102l-12 2c-1.6.3-3.2-.8-3.5-2.5l-3.1-18.5c-.3-1.6.8-3.2 2.5-3.5l12-2c1.6-.3 3.2.8 3.5 2.5l3.1 18.5c.3 1.6-.8 3.2-2.5 3.5zM1013.9 2097.7l-12 2c-1.6.3-3.2-.8-3.5-2.5l-3.1-18.5c-.3-1.6.8-3.2 2.5-3.5l12-2c1.6-.3 3.2.8 3.5 2.5l3.1 18.5c.2 1.6-.9 3.2-2.5 3.5zM1038.8 2093.5l-12 2c-1.6.3-3.2-.8-3.5-2.5l-3.1-18.5c-.3-1.6.8-3.2 2.5-3.5l12-2c1.6-.3 3.2.8 3.5 2.5l3.1 18.5c.2 1.7-.9 3.3-2.5 3.5z"/></g><path class="prefix__st8" d="M968.4 2129.5c-2.5-1.4-23.3-16.1-23.3-16.1l10.9-9.9 30.2 8.7 54-12.6 23-28.5 5.1 23.9-12 21.2-87.9 13.3z"/></g></svg>