<svg version="1.1" id="prefix__Слой_3" xmlns="http://www.w3.org/2000/svg" x="0" y="0" viewBox="0 0 1125 2436" xml:space="preserve"><style>.prefix__st0{fill:none;stroke:#000;stroke-width:4;stroke-linecap:round;stroke-linejoin:round;stroke-miterlimit:10}</style><linearGradient id="prefix__SVGID_1_" gradientUnits="userSpaceOnUse" x1="0" y1="0" x2=".707" y2=".707"><stop offset="0" stop-color="#dedfe3"/><stop offset=".178" stop-color="#dadbdf"/><stop offset=".361" stop-color="#cecfd3"/><stop offset=".546" stop-color="#b9bcbf"/><stop offset=".732" stop-color="#9ca0a2"/><stop offset=".918" stop-color="#787d7e"/><stop offset="1" stop-color="#656b6c"/></linearGradient><path d="M1124.5 634.7c-1.1-.2-2.1.4-2.4 1.5-.2 1.1.4 2.1 1.5 2.4.5.1.9.2 1.3.3v-4.1c-.1 0-.2 0-.4-.1z"/><path d="M1109.3 621.4c-.9 0-1.7.7-1.9 1.6-.2.9-5 23.1 5.2 36 3.1 3.9 7.3 6.6 12.4 7.9v-4.2c-3.8-1.2-7-3.2-9.3-6.2-7.6-9.6-5.6-26-4.7-31.1 5.1 0 9.8.2 14 .8v-4c-4.7-.7-10-.9-15.7-.8z"/><path class="prefix__st0" d="M186 1181.3c-19.4-4.3-34.2-16.7-39.3-40.2-8.5-38.9 16.2-77.3 55.1-85.7s77.3 16.2 85.7 55.1c5.1 23.4-3 40.7-18.8 52.7M241.1 1176.9c-3.9 1.2-8 2.3-12.2 3.2-4.9 1.1-9.8 1.9-14.5 2.4"/><path class="prefix__st0" d="M215.8 1127.7c-12.7 2.8-20.8 15.3-18 28.1 2.8 12.7 14.2 15.5 26.9 12.8 12.7-2.8 21.9-10.1 19.2-22.8-2.8-12.8-15.4-20.9-28.1-18.1z"/><path class="prefix__st0" d="M217.3 1134.5c-5.4 1.2-9.5 3.3-8.6 7.5s6.5 8.7 11.9 7.5c5.4-1.2 8.6-7.6 7.7-11.8s-5.6-4.3-11-3.2zM189.6 1117.3c-2.4.5-3.4 4.9-2.3 9.8s3.9 8.5 6.2 8c2.4-.5 3.4-4.9 2.3-9.8-1-5-3.8-8.5-6.2-8zM235.5 1107.3c-2.4.5-3.4 4.9-2.3 9.8s3.9 8.5 6.2 8c2.4-.5 3.4-4.9 2.3-9.8-1-5-3.8-8.5-6.2-8zM231.7 1150.6c1.2 5.7-2.4 11.4-8.1 12.6-5.7 1.2-11.4-2.4-12.6-8.1M220.6 1149.5l3 13.7M143.5 1126.5c-13.8-.2-26.3-9.8-29.3-24-3.6-16.4 6.8-32.6 23.3-36.2 10.2-2.2 20.2.9 27.3 7.6"/><path class="prefix__st0" d="M144.6 1114.8c-8.3-.1-15.7-5.9-17.5-14.3-2.1-9.8 4.1-19.4 13.9-21.6 6.1-1.3 12.1.6 16.3 4.5M279 1084.6c7.4-3.5 11.7-11.8 9.9-20.2-2.1-9.8-11.8-16-21.5-13.9-6 1.3-10.7 5.5-12.9 10.8"/><path class="prefix__st0" d="M283.2 1096.1c12.3-5.9 19.5-19.8 16.4-33.9-3.6-16.4-19.6-26.9-35.8-23.3-10 2.2-17.8 9.2-21.3 18.1M216.5 1259c9.1 3.1 13.9 6.4 25.1 7.2M232.2 1200.1c-2.1-1.2-24.9-37.1-54.4-13.7-9.7 7.7-12.7 18.5-9.8 29.6M260.8 1250.7c-3.1 4.3-14.3 13-18.4 15.3M232.2 1200.1c1.3-2 6.9-44 42.6-34.8 12.7 3.3 20.1 13 21.7 25.6M162.5 1217.9s42.3-13.3 41.5 31.7M174.4 1177.5s-64.8 46.5-23.5 85.2M206.7 1252.5c-4.1-2.3-8.6-3.8-13.1-4.7-12.2-2.3-24.9.5-33.6 8.4-15.1 13.7-12.5 37.2 3.4 54.7s41 20.7 56.1 7.1 14.4-38.9-1.5-56.5c-3.3-3.8-7.2-6.8-11.3-9z"/><path class="prefix__st0" d="M172.7 1270.7c-9.1 8.2-7.5 22.3 2 32.9 9.5 10.5 24.6 12.4 33.7 4.2 9.1-8.2 8.7-23.4-.9-33.9-9.5-10.5-25.7-11.4-34.8-3.2zM300.5 1191.2s-44.4 1-29 43.4M276.2 1156.8s76.3 23.1 49.7 73M315.2 1226.6c-10.8-4.6-23.7-3.3-34.5 2.9-4 2.3-7.7 5.2-10.8 8.7-3.2 3.5-5.9 7.6-7.9 12.2-9.4 21.7-1.8 45.9 16.9 53.9s41.4-3 50.8-24.8c9.3-21.7 4.1-44.9-14.5-52.9z"/><path class="prefix__st0" d="M307.9 1244.5c-11.2-4.8-26.3 1.2-31.9 14.3s-1.1 27.6 10.1 32.4c11.2 4.8 24.9-1.8 30.5-14.9 5.6-13.1 2.5-27-8.7-31.8zM230.4 1293.6s18.1 2.2 31.2-6.8M812.5 527.2c-28.2-8-48.1 5.1-55.9 20-6.7 12.6-1.9 26.1-15.9 35.1-27.4 17.6-39.3-11.7-39.3-11.7-16.9 53.7 27.8 86.3 62.5 90.8 27.2 3.6 48.7-7.1 62.3-22.4 9.8-11 23-43.5 19.5-71.6.5 6.8-11.1-34-33.2-40.2z"/><path class="prefix__st0" d="M845.6 567.2c-.1-.6-.2-1.6-.4-3.1.2 1.1.3 2.1.4 3.1zM801 604.1c12.5 13.2-8.8 45.4-47 21-18.3-11.7 16.2-7.3 16.2-7.3M768.5 606.9c-1.9.6-26.4.2-17.7 10.8M766.8 599.1c-.8.3-20.1 3.3-14.5 10.6M804.1 567.8c1.2-5.7 6.8-9.2 12.5-8s9.2 6.8 8 12.5M769.4 661.8l-4.5 20.6 12.5 2.7"/><path class="prefix__st0" d="M768.7 695c-.5-1.3-3.8-12.6-3.8-12.6l11.4 10.3M748.1 657.2l-4.5 20.6 12.5 2.7"/><path class="prefix__st0" d="M747.4 690.4c-.5-1.3-3.8-12.6-3.8-12.6l11.4 10.3M845.9 569.2l17.7 6.2s-6.6 14.8-17.7 13.7M978.8 633.3c-9.1-13.9.8-24.2-.1-38.5-1.1-16.8-13.9-36.8-42.9-41.1-18.4-2.7-35.8 6.7-45 20.4-16.3 24.2-17.7 61.4-13.2 75.9 6.1 19.5 21.3 38.1 47.6 46 33.5 10 87.6-1.4 94.2-57.3 0-.1-22.9 21.8-40.6-5.4z"/><path class="prefix__st0" d="M914.8 628.6c-16.8 6.9-10.6 45 34.3 38.4 21.5-3.2-11.8-13.3-11.8-13.3M943.3 644.5c1.5 1.3 23.9 11 11.7 17.1M948 638c.6.5 17 11.2 8.9 15.6M926.8 594.1c1.2-5.7-2.4-11.2-8.1-12.4s-11.2 2.4-12.4 8.1M920 694.2l-4.3 20.6-12.5-2.6M907.1 724.8c1-1 8.6-9.9 8.6-9.9l-14.6 4.8M941.3 698.6l-4.3 20.7-12.6-2.6M928.3 729.2c1-1 8.6-9.9 8.6-9.9l-14.6 4.8M888.1 578.3l-18.6-1.6s0 16.2 10.5 19.7M877.6 533.5s-5.9-14.2-17.7-7.2c-11.5 6.8-2.2 23.1 12 30.1M877.6 533.5s10.2-10.6 17.8 0c7.8 10.8-6.9 22.1-22.6 23.1M997.8 834.2c-3.3-4.4-23.2-7.2-27.6-23.7s-28.7-22.7-40-5.3c-1.9 2.9-3.5 8.9-3.5 8.9l-14.4 6.5 16.5 7.9s3.4 7.5 4.4 10.4c3.8 11-14.6 124.1 113.2 75.3 0 0 30.2 12.6 48.3-4.4"/><path class="prefix__st0" d="M1046.4 861.2s10.2 10.9 12.9 21.4c2.7 10.4 51.8 9 57.3 8 5.5-1.1-13.2 27.4-40.6 14.3M992.7 854.9c0-2.2 2.7-24.1 18.6-46.1 15.9-21.9 26.3-53.7 13.7-72.9-12.6-19.2 43.3-1.1 21.4 44.4M1050.3 750.3s35.1 10.3 7.7 50.8M1066.4 785s20.9 22.6-11.2 45.3"/><path class="prefix__st0" d="M1015.7 876.7c.8-3.3 17.6-13 35.9-18.9 31.8-10.3 30.3-43.9 17.6-41.7M946.6 808.9c-1.7 0-3.2 2.5-3.2 5.5s1.4 5.5 3.2 5.5 3.2-2.5 3.2-5.5c-.1-3-1.5-5.5-3.2-5.5zM992.7 926.3s2.3 11.9 15.4 10M1003.5 926.3s1.1 8.1 14.9 5.1M744.2 96s33.6 17.7 43.2-14.3"/><path class="prefix__st0" d="M749.2 99.4c-2.4 2-29.5 29.5-50.5 21.8 0 0 17.4-31.1 27.5-42.4s24-5 34-5.5c10-.6 9.7-20.4 31.5-17.2 21.8 3.2 48.8 15.1 48.8 15.1S826 94.7 785.9 85.8M708.5 133.2s25.8-15.1 32-14.4c6.2.7 28.3 4.8 39.4-.6 11.2-5.4 24.1-22.1 28.1-23.1s31.4-7.4 31.4-7.4 3.6 49.9-45.9 66.8c-48.8 16.7-80.9-8.5-85.2-20.3M195.9 193.3s62.2-57.2 96.3-20.6-14.6 124-120.1 137.2"/><path class="prefix__st0" d="M196.4 193.4s-34.2-77.2-80.2-57.2-36 119.5 55.5 173.6M183.3 299.2c-3.4.6-6.8 1.2-10.2 1.6M275.3 246.2c-14.6 18.5-37.3 35.7-66.1 46M231 178.2c18.4-9.6 40.1-15 54.5.4 11.3 12.1 10.7 31.4.5 51M196.4 202.4s3.4-3.2 9-7.5M101.6 210.8c7.9 31.2 31.2 66.2 71.5 90"/><path class="prefix__st0" d="M187 195.1s-27.7-66.3-67.2-49.1c-14.8 6.5-22.1 23.3-21.3 44.3M217.2 214.7l-9.4-1.9c-3.1-.6-6.2 1.4-6.8 4.5l-1.9 9.4c-.6 3.1 1.4 6.2 4.5 6.8l9.4 1.9c3.1.6 6.2-1.4 6.8-4.5l1.9-9.4c.6-3.1-1.4-6.1-4.5-6.8z"/><path class="prefix__st0" d="M220.9 217.6s27.4-21.1 37.1-6.7c8.4 12.5-7.8 20.2-7.8 20.2s13.6 18.1-.1 23.5c-13.7 5.4-32.5-20.3-32.5-20.3M201.8 213.1c2.6 3.3-15.2-27.9-31.6-20.6-13.8 6.1-.7 21.6-.7 21.6s-19.5 11.4-9.1 21.7c10.5 10.3 37.9-6 37.9-6"/><path class="prefix__st0" d="M200 232.8s-15.4 24-19.8 35.5c0 0-12.3-5.6-18.4-17.3 0 0 3.8-7.2 8.6-11.8M216.3 237.2s4.3 28.1 3.6 40.5c0 0 13.5-.1 23.9-8.3 0 0-.5-8.1-3-14.3M197 237.5l-14.4 70.8M208 183.5l-5.8 28.9M216.9 245.3L205.3 302M232.5 168.6l-9.5 46.5M258 224.7l37.4 7.7M91 190.7l74 15.1M255.6 242.1l28.8 5.9M92.2 208.8l66.4 13.6M186.1 219.4c1.6 7.7 13.9 0 13.9 0s-15.6-7.6-13.9 0zM222.5 225s9.9 11.8 14.2 5.2c4.3-6.6-14.2-5.2-14.2-5.2zM1071.7 2118.6c-4.7-12.8-23.4-13.6-27.4-2.8-9 24.7 30.1 30.4 30.1 30.4"/><path class="prefix__st0" d="M1071.7 2118.6c1.9-13.5 18.9-17.9 24.6-8 13.1 22.5-21.9 35.6-21.9 35.6M601.2 2274.7c1.4-13.6-15.1-22.5-23.4-14.5-18.9 18.3 13.8 40.5 13.8 40.5M601.2 2274.7c7.6-11.3 24.8-7.8 25.7 3.6 1.9 26-35.2 22.4-35.2 22.4M1080.7 2254.1c1.4-13.6-15.1-22.5-23.4-14.5-18.9 18.3 13.8 40.5 13.8 40.5M1080.7 2254.1c7.6-11.3 24.8-7.8 25.7 3.6 1.9 26-35.2 22.4-35.2 22.4M537.8 1866.7c-4.8-12.8-23.5-13.4-27.4-2.5-8.8 24.8 30.4 30.1 30.4 30.1M537.8 1866.7c1.7-13.5 18.7-18 24.6-8.2 13.3 22.4-21.5 35.8-21.5 35.8M578.9 1923.9c2.7-10.2-8.7-19-16-13.9-16.7 11.6 5.5 32.5 5.5 32.5M578.9 1923.9c7.1-7.7 19.9-2.9 19.1 5.9-1.7 20-29.6 12.7-29.6 12.7M366.9 68c-7.2-7.7-20.7-2.5-20.2 6.4 1.1 20.3 30.6 12.3 30.6 12.3"/><path class="prefix__st0" d="M366.9 68c-2.8-10.1 7.9-18.4 15-13.2 16.1 12-4.6 31.9-4.6 31.9M1047.6 1851.9c2.7-10.2-8.7-19-16-13.9-16.7 11.6 5.5 32.5 5.5 32.5M1047.6 1851.9c7.1-7.7 19.9-2.9 19.1 5.9-1.7 20-29.6 12.7-29.6 12.7M987 1655.1c-3.1-10.1-17.5-11.4-21-3.1-7.9 18.7 22.1 24.5 22.1 24.5"/><path class="prefix__st0" d="M987 1655.1c1.9-10.3 15.2-13.1 19.3-5.2 9.2 17.8-18.2 26.6-18.2 26.6M477.5 977.8c-3.1-10.1-17.5-11.4-21-3.1-7.9 18.7 22.1 24.5 22.1 24.5"/><path class="prefix__st0" d="M477.5 977.8c1.9-10.3 15.2-13.1 19.3-5.2 9.2 17.8-18.2 26.6-18.2 26.6M413 1498.3c2.7-10.2-8.7-19-16-13.9-16.7 11.6 5.5 32.5 5.5 32.5M413 1498.3c7.1-7.7 19.9-2.9 19.1 5.9-1.7 20-29.6 12.7-29.6 12.7M1099.6 1430.3c2.7-10.2-8.7-19-16-13.9-16.7 11.6 5.5 32.5 5.5 32.5M1099.6 1430.3c7.1-7.7 19.9-2.9 19.1 5.9-1.7 20-29.6 12.7-29.6 12.7M812.1 1575.6c-4.8-12.8-23.5-13.4-27.4-2.5-8.8 24.8 30.4 30.1 30.4 30.1M812.1 1575.6c1.7-13.5 18.7-18 24.6-8.2 13.3 22.4-21.5 35.8-21.5 35.8M606.9 1285.7c-4.8-12.8-23.5-13.4-27.4-2.5-8.8 24.8 30.4 30.1 30.4 30.1M606.9 1285.7c1.7-13.5 18.7-18 24.6-8.2 13.3 22.4-21.5 35.8-21.5 35.8M69.8 831.1c-4.8-12.8-23.5-13.4-27.4-2.5-8.8 24.8 30.4 30.1 30.4 30.1M69.8 831.1c1.7-13.5 18.7-18 24.6-8.2 13.3 22.4-21.5 35.8-21.5 35.8M354.4 759.1c-4.8-12.8-23.5-13.4-27.4-2.5-8.8 24.8 30.4 30.1 30.4 30.1M354.4 759.1c1.7-13.5 18.7-18 24.6-8.2 13.3 22.4-21.5 35.8-21.5 35.8M1001 985.5c-4.8-12.8-23.5-13.4-27.4-2.5-8.8 24.8 30.4 30.1 30.4 30.1M1001 985.5c1.7-13.5 18.7-18 24.6-8.2 13.3 22.4-21.5 35.8-21.5 35.8M853.2 1632.8c2.7-10.2-8.7-19-16-13.9-16.7 11.6 5.5 32.5 5.5 32.5M853.2 1632.8c7.1-7.7 19.9-2.9 19.1 5.9-1.7 20-29.6 12.7-29.6 12.7M662 1361.8c2.7-10.2-8.7-19-16-13.9-16.7 11.6 5.5 32.5 5.5 32.5M662 1361.8c7.1-7.7 19.9-2.9 19.1 5.9-1.7 20-29.6 12.7-29.6 12.7M832.5 738.7c2.7-10.2-8.7-19-16-13.9-16.7 11.6 5.5 32.5 5.5 32.5"/><path class="prefix__st0" d="M832.5 738.7c7.1-7.7 19.9-2.9 19.1 5.9-1.7 20-29.6 12.7-29.6 12.7M57.4 518.5c2.7-10.2-8.7-19-16-13.9-16.7 11.6 5.5 32.5 5.5 32.5"/><path class="prefix__st0" d="M57.4 518.5c7.1-7.7 19.9-2.9 19.1 5.9-1.7 20-29.6 12.7-29.6 12.7M923.9 56.8c2.7-10.2-8.7-19-16-13.9-16.7 11.6 5.5 32.5 5.5 32.5"/><path class="prefix__st0" d="M923.9 56.8c7.1-7.7 19.9-2.9 19.1 5.9-1.7 20-29.6 12.7-29.6 12.7M638.8 318.2c-5.8-8.8-20-6-21 2.9-2.3 20.2 28.1 17.3 28.1 17.3"/><path class="prefix__st0" d="M638.8 318.2c-1-10.4 10.9-16.8 17-10.4 13.9 14.5-10 30.6-10 30.6M1073.2 998.9c2.7-10.2-8.7-19-16-13.9-16.7 11.6 5.5 32.5 5.5 32.5"/><path class="prefix__st0" d="M1073.2 998.9c7.1-7.7 19.9-2.9 19.1 5.9-1.7 20-29.6 12.7-29.6 12.7M727.8 1010.7c2.7-10.2-8.7-19-16-13.9-16.7 11.6 5.5 32.5 5.5 32.5"/><path class="prefix__st0" d="M727.8 1010.7c7.1-7.7 19.9-2.9 19.1 5.9-1.7 20-29.6 12.7-29.6 12.7M264.2 2109.6c-4.8-12.8-23.5-13.4-27.4-2.5-8.8 24.8 30.4 30.1 30.4 30.1M264.2 2109.6c1.7-13.5 18.7-18 24.6-8.2 13.3 22.4-21.5 35.8-21.5 35.8M305.3 2166.8c2.7-10.2-8.7-19-16-13.9-16.7 11.6 5.5 32.5 5.5 32.5"/><path class="prefix__st0" d="M305.3 2166.8c7.1-7.7 19.9-2.9 19.1 5.9-1.7 20-29.6 12.7-29.6 12.7M248.5 2241.6c-5.8-8.8-20-6-21 2.9-2.3 20.2 28.1 17.3 28.1 17.3"/><path class="prefix__st0" d="M248.5 2241.6c-1.1-10.4 10.9-16.8 17-10.4 13.9 14.5-10 30.6-10 30.6M54.9 2220c-1.1-10.5-14.9-14.6-19.9-7.2-11.4 16.8 16.8 28.4 16.8 28.4"/><path class="prefix__st0" d="M54.9 2220c3.9-9.7 17.5-9.8 19.9-1.3 5.5 19.3-23.1 22.5-23.1 22.5M524.9 2289.3c-5.8-8.8-20-6-21 2.9-2.3 20.2 28.1 17.3 28.1 17.3"/><path class="prefix__st0" d="M524.9 2289.3c-1.1-10.4 10.9-16.8 17-10.4 13.9 14.5-10 30.6-10 30.6M609.4 1571.3c-1.9-13.5-20-18.2-26.2-8.4-14 22.3 23.1 36 23.1 36M609.4 1571.3c4.6-12.8 22.2-13.5 25.8-2.7 8.1 24.8-28.8 30.3-28.8 30.3M733.2 296c-1.9-13.5-20-18.2-26.2-8.4-14 22.3 23.1 36 23.1 36M733.2 296c4.6-12.8 22.2-13.5 25.8-2.7 8.1 24.8-28.8 30.3-28.8 30.3M71 25.6c-1.9-13.5-20-18.2-26.2-8.4-14 22.3 23.1 36 23.1 36M71 25.6c4.6-12.8 22.2-13.5 25.8-2.7C104.9 47.7 68 53.2 68 53.2M307.5 949.3c-1.9-13.5-20-18.2-26.2-8.4-14 22.3 23.1 36 23.1 36M307.5 949.3c4.6-12.8 22.2-13.5 25.8-2.7 8.1 24.8-28.8 30.3-28.8 30.3M68.4 1167c-1.9-13.5-20-18.2-26.2-8.4-14 22.3 23.1 36 23.1 36M68.4 1167c4.6-12.8 22.2-13.5 25.8-2.7 8.1 24.8-28.8 30.3-28.8 30.3M399.6 1198.8c-1.9-13.5-20-18.2-26.2-8.4-14 22.3 23.1 36 23.1 36M399.6 1198.8c4.6-12.8 22.2-13.5 25.8-2.7 8.1 24.8-28.8 30.3-28.8 30.3M554.6 1625.1c-5.8-8.8-20-6-21 2.9-2.3 20.2 28.1 17.3 28.1 17.3"/><path class="prefix__st0" d="M554.6 1625.1c-1.1-10.4 10.9-16.8 17-10.4 13.9 14.5-10 30.6-10 30.6M580 555.8c-5.8-8.8-20-6-21 2.9-2.3 20.2 28 17.3 28 17.3"/><path class="prefix__st0" d="M580 555.8c-1.1-10.4 10.9-16.8 17-10.4 13.9 14.5-10 30.6-10 30.6M35.3 118.9c-5.8-8.8-20-6-21 2.9-2.3 20.2 28 17.3 28 17.3M35.3 118.9c-1.1-10.4 10.9-16.8 17-10.4 13.9 14.5-10 30.6-10 30.6M212.4 990.6c-5.8-8.8-20-6-21 2.9-2.3 20.2 28.1 17.3 28.1 17.3"/><path class="prefix__st0" d="M212.4 990.6c-1.1-10.4 10.9-16.8 17-10.4 13.9 14.5-10 30.6-10 30.6M377.8 1314.1c-5.8-8.8-20-6-21 2.9-2.3 20.2 28.1 17.3 28.1 17.3"/><path class="prefix__st0" d="M377.8 1314.1c-1.1-10.4 10.9-16.8 17-10.4 13.9 14.5-10 30.6-10 30.6M200.9 1638.2c-5.8-8.8-20-6-21 2.9-2.3 20.2 28.1 17.3 28.1 17.3"/><path class="prefix__st0" d="M200.9 1638.2c-1.1-10.4 10.9-16.8 17-10.4 13.9 14.5-10 30.6-10 30.6M125.4 1929.1c.9-10.5-11.9-17.2-18.2-10.9-14.4 14.3 11.1 31.1 11.1 31.1M125.4 1929.1c5.7-8.8 19.1-6.3 19.8 2.5 1.7 20-26.9 17.7-26.9 17.7M1018 2210.5c-6.9-7.9-20.6-3.3-20.5 5.6.4 20.3 30.1 13.5 30.1 13.5"/><path class="prefix__st0" d="M1018 2210.5c-2.4-10.2 8.7-18.1 15.5-12.6 15.6 12.6-5.9 31.7-5.9 31.7M369.9 2384.6c1.3-10.4-11.2-17.6-17.7-11.6-15 13.7 9.8 31.5 9.8 31.5"/><path class="prefix__st0" d="M369.9 2384.6c6.1-8.6 19.3-5.5 19.7 3.3.9 20.1-27.6 16.6-27.6 16.6M796.3 2385.5c-5.8-8.8-20-6-21 2.9-2.3 20.2 28.1 17.3 28.1 17.3"/><path class="prefix__st0" d="M796.3 2385.5c-1.1-10.4 10.9-16.8 17-10.4 13.9 14.5-10 30.6-10 30.6M785.6 1884.8c-4.9-9.3-19.3-8-21.2.6-4.4 19.8 26.1 20.2 26.1 20.2"/><path class="prefix__st0" d="M785.6 1884.8c0-10.5 12.6-15.6 18-8.6 12.3 15.9-13.1 29.4-13.1 29.4M60.5 2011.6c-4.9-9.3-19.3-8-21.2.6-4.4 19.8 26.1 20.2 26.1 20.2"/><path class="prefix__st0" d="M60.5 2011.6c0-10.5 12.6-15.6 18-8.6 12.3 15.9-13.1 29.4-13.1 29.4M76.8 1858.4c-7.9-11.2-26.1-7-27.1 4.5-2.2 26.2 37 21.4 37 21.4M76.8 1858.4c-1.7-13.5 13.6-22.2 21.7-14.2 18.5 18.3-11.8 40.1-11.8 40.1M181.1 2261c-2.7-6-9.8-8.8-15.8-6.1l-109.9 48.5c-6 2.7-8.8 9.8-6.1 15.8l31.6 71.5c2.7 6 9.8 8.8 15.8 6.1l109.9-48.5c6-2.7 8.8-9.8 6.1-15.8l-31.6-71.5z"/><path class="prefix__st0" d="M130.9 2325.2c-5.5-7-17.3-3.7-17.6 3.8-.6 17.2 24.9 12.8 24.9 12.8M130.9 2325.2c-1.6-8.8 8.1-15 13.7-10 12.7 11.4-6.4 26.6-6.4 26.6M149.1 2328.2l62.9 12M51.4 2309.5l65.9 12.6M138.3 2313.2l34.8-57.5M89 2394.5l32.5-53.6M58.9 2317.2l10.6 24.2M65.7 2317.8l4.7 10.7M158.4 2267l-17.8 7.8M472.8 840.2s9.3-44.5 39.2-38.8c29.9 5.7 26.5 72.6-22.1 104M451.8 895.3c10.8 5.7 23.5 9.6 37.3 10.4M471.8 840.4s-30.1-34.1-53.3-14.3c-15.2 12.9-5 41.6 20 60.7M527.6 813.7l8.2-7.2M474.4 873.8l-57.9 50.5c-2.3 2-5.9 1.8-8-.5-2-2.3-1.8-5.9.5-8l57.8-50.4M542.4 815.4l-11.7 10.2"/><path class="prefix__st0" d="M411.9 913.4l-18.3-6.7 24.3-21.2 18 6.9M401.5 899.8l18 6.9M410.4 891.9l17.2 7.8M420 922.6l4.1 19.1 24.4-21.1-4.4-18.8M432 934.9l-4.3-18.9M441.1 927.1l-5.3-18.1M562.2 784.6c-9 .9-24.6 2.4-33.8 3.4-3.2.3-4.7 4.1-2.6 6.5l27.6 32.2c1.6 1.9 4.7 1.2 5.3-1.2l8.7-34.8c.8-3.3-1.9-6.4-5.2-6.1zM467.5 864.8s7.7-2 7.8 8.2M419.7 848.2s-2.5-21.7 19.6-19.5M340.6 2315.4l4.4 22.5 29.2-24.2-4.7-22.3M354.5 2330.1l-4.7-22.3M365.3 2321.1l-5.8-21.4M403.6 2226.4s10.2-44.3 40-38 25 73.1-24.1 103.5M381.4 2281c10.7 5.9 23.3 10 37.1 11.1M402.6 2226.6s-29.4-34.7-53-15.4c-15.4 12.6-5.9 41.5 18.8 61.1"/><path class="prefix__st0" d="M445.2 2170.4s13.6-59.2 53.5-50.7c39.8 8.5 33.5 97.7-32.3 138.3M452.4 2256.6c4.2.8 8.4 1.3 12.8 1.7M443.8 2170.7s-39.3-46.4-70.8-20.6c-14.4 11.7-12.5 34 1 55.2M522.1 2144.4l15.1-12.6M457.3 2198.7l5-4.2M405.8 2259.3l-69.3 58.1c-2.8 2.4-7 2-9.4-.8-2.4-2.8-2-7 .8-9.4l69.2-58M471.5 2204.2l-9.8 8.2M545.8 2142l-22.3 18.7"/><path class="prefix__st0" d="M331.3 2304.4l-21.4-8.4 29.1-24.4 21.1 8.7M319.3 2288.1l21.1 8.6M330.1 2279l20 9.6M568.8 2106.6c-10.6.8-29 2.3-39.8 3.2-3.7.3-5.6 4.7-3.2 7.6l31.7 38.5c1.8 2.2 5.5 1.5 6.2-1.3l11.1-40.8c1-3.8-2-7.5-6-7.2zM397.9 2248.5s9.1-2.2 9 9.9M462.9 2194s9.1-2.2 9 9.9M350.4 2233.3s-2-21.8 20-19.1M373.3 2175s.5-29 33.8-20.9M420.4 1083.9s4.9-26.3-18.6-34.7c-26.4-9.4-55 38.2-12.4 78.8"/><path class="prefix__st0" d="M420.3 1084s22.9-13.7 39 5.3c18.1 21.4-16.6 64.8-69.6 39.1M376.9 1056.8s-9.8-32.6-35.3-12.2c0 0 .1 8.8 13.2 5.4M345.9 1050.1s-1 12.9 14.4 7.9M371.3 1065.8s-19.8 5.4-18.1-6.7"/><path class="prefix__st0" d="M460.6 1116.4s33.9-1.3 23 29.4c0 0-8.3 2.7-9.3-10.7M476.9 1143.6s-11.8 5.1-12.2-11M453.8 1124.6s1.3 20.5 12.2 14.9M384 1059.9s15.9-13.5 26.4 6M297.2 799.7c-1.6-5.7-8.5-8.9-15.3-7l-56.8 15.6-36.9 10.1c-6.8 1.9-11.1 8.1-9.6 13.9l21.6 78.9c1.6 5.7 8.5 8.9 15.3 7l93.7-25.7c6.8-1.9 11.1-8.1 9.6-13.9l-21.6-78.9zM224.6 808.4l27.4 99.8M242.9 803.3l27.4 99.8M255.3 843.6l50.2-13.8M186.9 862.4l48.1-13.2M259.7 859.5l50.2-13.8M191.3 878.2l48-13.1M221.1 806.9c-1.8-6.5 2-13.1 8.5-14.9s13.1 2 14.9 8.5"/><path class="prefix__st0" d="M237.7 792.6s8.4-42.5 27.7-34.1c17.3 7.5 2.9 29.2 2.9 29.2M283.9 792.2s7.6-15.1-10.3-18.3M223.2 795.1s-29.2-32-41.3-14.9c-10.9 15.3 12.7 26.5 12.7 26.5M183.5 818.7s-14.3-9-.7-21M539.8 1470.5c-6.9 4.5-14.4 8.7-22.6 12.4M507.3 1383.6s35.6-61.3 72-40.5c16.1 9.2 21.7 30.3 16 54.1M598.4 1432s51.5-12.6 59.2 17.8-45.5 63.8-107.5 39.1"/><path class="prefix__st0" d="M598.6 1432.2s4.6-52.8-26.7-55.7c-31.3-2.9-56 54.8-22 112.2M507.8 1383.7s-46.6-53.3-78.4-25.9.8 104.7 87.6 125.2l8.3 17c-8.9 8.2-21.2-.7-21.2-.7l10.2-16.6"/><path class="prefix__st0" d="M548.4 1486.2l-14.2 4.6s0 9.4 11.7 11.9l6.1-12.3M485.4 1486c-4.4 13 21.7 5.2 26.9-2 .2-.3-22.5-11-26.9 2z"/><path class="prefix__st0" d="M498.1 1504.8c6.7 11.9 18.3-12.7 16.4-21.4 0-.3-23.1 9.5-16.4 21.4zM550.6 1490c0 7.4 13 24.5 16 13.4 3.1-11.1-16-13.6-16-13.4z"/><path class="prefix__st0" d="M549.5 1488.6c-5.1 5.3-8.7 27.9.8 22.5 9.6-5.4-.6-22.6-.8-22.5zM511.3 1504.9s-12.8 14.8-2.2 26.5c10.6 11.7 22.2 19.7 5.9 40"/><path class="prefix__st0" d="M544.1 1502.2s7.5 20.1-9.4 24.9c-16.9 4.8-33.2 5.8-24.2 32.6M426.9 1391.9s-2.7-35.4 32.8-31.4M554.3 1391.4s24.6-19.7 34.3 12.5M682.7 2202.6s26.4-46 53.8-30.5 14.7 77-46 104.8"/><path class="prefix__st0" d="M683 2202.6s-35.1-39.8-58.8-19.1c-23.7 20.6 1 78.4 66 93.4"/><path class="prefix__st0" d="M687.4 2276.2l-6.5 13.4s6.8 6.5 16.7-.2l-4.7-12.9"/><path class="prefix__st0" d="M691.7 2277.2c5.4 5.1 26.7 7.5 20.8-2.4-6-9.8-21 2.2-20.8 2.4z"/><path class="prefix__st0" d="M689.9 2277.1c.3 7.3 14.1 25.6 16.8 14.9 2.7-10.7-16.8-15.2-16.8-14.9z"/><path class="prefix__st0" d="M696 2290.3s19.7 8.4 11.5 23.9-18.7 28 6.9 40.1M622.9 2206.5s2.8-31.4 32.8-16.2M834.9 1983.5c-6.7 8.5-16.2 16.4-28.7 22.1M800.9 1955.2s17.9-31.2 36.5-20.7c.5.3.9.5 1.3.8"/><path class="prefix__st0" d="M801.1 1955.2s-23.8-27-39.9-13c-16.1 14 .7 53.2 44.8 63.4M760.3 1957.9s1.9-21.3 22.3-11M871.9 1959.2s25.1-25.8 40.5-11c15.4 14.8-3.3 53.1-47.9 61.2"/><path class="prefix__st0" d="M872.1 1959.2s-16.4-32.1-35.5-22.5-12.5 51.7 27.7 72.6M891.6 1952.2s18.9-10 21.3 12.7M625.5 451.1c-2.5.9-17.3 20.3-11.4 42.3 4.5 16.7 17.2 31.6 35.8 45l7.7-21.1c-18.6-13.4-30.6-28-35.1-44.7-5.9-21.9 9.2-31.2 25.5-22.4 0 0-32-25.8-5.6-45.7 21.7-16.4 61.3-13.8 61.3-13.8M657.8 517.4c22.8 2 41.5-1.4 55.8-11.1 18.8-12.8 13.3-29.7-4.8-33.6 0 0 41.1 1.3 34-31.1-5.8-26.6-38-50.6-38-50.6"/><path class="prefix__st0" d="M725.2 488c1.3 2.3-.1 26.7-18.9 39.5-14.3 9.7-33.6 12.8-56.4 10.8M631.3 471.9s31.8 32.6 74.3 27M634.4 412.4s17.6-46.2 74.2-34.6c0 0 44 19.5 34.9 74.2"/><path class="prefix__st0" d="M688.1 408.7l-18.7 5.5 10.7 13.7 19 7 16.3-4-10.4-16.1z"/><path class="prefix__st0" d="M688.1 408.7l-8 19.2 2.2 22.4 16.8-15.4 5.9-20.1"/><path class="prefix__st0" d="M669.4 414.2l12.7 36.7 33.3-20M686 414.8l16.6 6.1M687 448.5c13.3 6.8 19.7 22.6 14.5 37-2.1 5.8-5.9 10.6-10.5 14M643.9 482c-1.3-5.5-1-11.3 1-17 5.2-14.4 20.3-22.4 34.9-19.1"/><path class="prefix__st0" d="M657.6 489.4c-5.1-5.6-7-13.8-4.2-21.4 4-10.9 16.1-16.6 27-12.6 10.9 4 16.6 16.1 12.6 27-2.7 7.4-9.6 13-16.8 14.2M659.1 860.6l-21.1-2.5c-5.4-.6-9.2-5.6-8.6-10.9l2.3-19.5c.6-5.4 5.6-9.2 10.9-8.6l31.2 3.8M743.9 870.8l-54.9-6.6M767.8 834l29.5 3.5c5.4.6 9.2 5.6 8.6 10.9l-2.3 19.5c-.6 5.4-5.6 9.2-10.9 8.6l-17.7-2.1M704 826.4l33.4 4M789.9 876.5L779.5 963c-.6 5.4-5.6 9.2-10.9 8.6l-128.8-15.5c-5.4-.6-9.2-5.6-8.6-10.9l10.4-86.4M735.2 830.1c1-8.1-4.8-15.5-13-16.5s-15.5 4.8-16.5 13"/><path class="prefix__st0" d="M728.1 815.6s19.7-31 42.5-35.4c22.9-4.4 24.7 11.6 20.2 25 0 0 23.8 21.4-7.5 30.7"/><path class="prefix__st0" d="M733.6 821.6s38.5-17.2 36.4-6.2c-2.2 10.9-22.9 8.9-22.9 8.9M713.1 814s-11.5-34.9-32.6-44.7c-21.1-9.8-26.8 5.3-25.7 19.3 0 0-28.3 15-.2 31.6"/><path class="prefix__st0" d="M706.3 818.4s-33.2-26-33.8-14.9c-.6 11.1 19.7 13.9 19.7 13.9"/><path class="prefix__st0" d="M656.5 846c3.3 30.3 26.8 47.5 26.8 47.5 4.5-51.5 22.9-71.4 22.9-71.4-28.8-18.2-49.7 23.9-49.7 23.9z"/><path class="prefix__st0" d="M674 839.1c-.3.8-1.3 7.4 4.5 2.9s6.9-22.4 27.7-19.9M736.4 826.2s14 23.2 7.9 74.6c0 0 26.4-12 35.8-41.1.1.1-11.8-45.5-43.7-33.5z"/><path class="prefix__st0" d="M764 853c.1.9-.2 7.5-5 1.9-4.8-5.7-2.2-23.3-23.1-25.1M699.3 865.6l-11.6 96.2M731.2 869.5l-11.6 96.2M694.9 864.3l3.5-29.3M736.7 868.3l3.7-30.1M638.8 676.1l16.9 7.2-25.3 59.5c-2.8 6.5-10.4 9.6-16.9 6.8L520.2 710c-6.5-2.8-9.6-10.4-6.8-16.9l25.3-59.5 15 6.4"/><path class="prefix__st0" d="M558.9 630.9l-20.2 2.7 84.1 114.6M624 637.9l-10.1-14.3-19.7 2.6"/><path class="prefix__st0" d="M513.2 702.6l142.5-19.3-12.6-18.1"/><path class="prefix__st0" d="M550.8 650.1l15.2-35.9 83.2 35.3-15.7 37.1"/><path class="prefix__st0" d="M596.8 656.9c-.1-7.5-7.9-18.5-16.2-11-11.2 10.1 9.2 27.4 9.2 27.4M597.2 656.7c5.4-5.2 18.7-7.4 19.2 3.7.7 15.1-25.9 12.8-25.9 12.8M95.5 1323.1l12.6-3.6M45.7 1337.6l18.5-5.4M107.2 1319.7l17.6-5.1 18 62.1c2 6.8-2 14-8.8 16l-97.4 28.2c-6.8 2-14-2-16-8.8l-18-62.1 10.5-3"/><path class="prefix__st0" d="M21.1 1330.5L2.7 1350l137.6 35.7M49.6 1300.1l-17.7 18.7M93.2 1305l-21.7-5.8"/><path class="prefix__st0" d="M26.6 1419.6l98.2-105-14.1-4"/><path class="prefix__st0" d="M69.2 1346.3c-4.8-5.7-17.8-9.3-19.5 1.7-2.2 14.9 24.5 15.4 24.5 15.4M69.3 1345.9c.9-7.4 9.8-17.6 17.2-9.3 10.1 11.2-12 26.3-12 26.3M29.5 1335.9c-7.2-2.1-20 2.3-15.2 12.3 6.5 13.6 28.9-.9 28.9-.9M29.3 1335.5c-3.4-6.6-1.7-20.1 9.1-17.3 14.6 3.7 4.8 28.5 4.8 28.5"/><path class="prefix__st0" d="M76.1 1318.6c-2.8-7-14-14.4-19-4.5-6.8 13.5 17.1 21.8 17.1 21.8M76.3 1318.2c3.2-6.8 14.8-13.6 19.3-3.4 4 9.2-6 15.6-13.2 18.8M60.2 1289.8c-2.8-5.5-12.5-10.9-16-2.4-4.7 11.5 16.6 17.1 16.6 17.1M60.4 1289.4c2.1-5.8 11.2-12.2 15.6-4.2 5.9 10.9-14.7 18.8-14.7 18.8M29.3 1280.2c-4.3-2.7-13.6-2.2-12.3 5.2 1.7 10.1 19.1 4.8 19.1 4.8M29.3 1279.9c-1-5 2.6-13.5 9.2-9.7 8.9 5.2-2.2 19.6-2.2 19.6M77 1272.8c-.6-5.1-6.6-12-11.7-6.4-4.2 4.7-.3 10.3 3.4 14.1M77.2 1272.6c3.3-3.9 12.2-6.3 13.3 1.2 1.1 7.8-9.2 9.8-14.2 10.3M17.2 1316.4c-5.8-2.4-16.9 0-13.8 8.9 4.2 12 24.2 1.9 24.2 1.9M17.1 1316c-2.3-5.9.4-16.9 9.2-13.6 6.9 2.6 6.2 10.3 4.5 16.4M104.5 1296.5c.5-6.3-5.3-16-12.7-10.4-10.1 7.7 5.7 23.6 5.7 23.6M104.8 1296.3c4.9-4 16.2-4.8 15.8 4.5-.5 12.6-22.6 8.8-22.6 8.8M1052.7 1321.5c-12.6-1.7-22.6-12.3-23-25.4-.5-14.6 11-26.9 25.6-27.4s26.9 11 27.4 25.6c.4 12.9-9 24.3-21 27.2"/><circle transform="rotate(-32.499 1056.183 1295.804)" class="prefix__st0" cx="1056.2" cy="1295.8" r="17.6"/><path class="prefix__st0" d="M1053.8 1343.5l-.7-21.8M1062 1351.4l.3 8.7c.1 2.2-1.7 4.1-3.9 4.1-2.2.1-4.1-1.7-4.1-3.9l-.3-8.7M1061 1321.5l.7 21.8M1053.8 1343.5l-8.7.3c-2.3.1-4 2-4 4.2.1 2.3 2 4 4.2 4l8.7-.3M1061.8 1343.2l8.7-.3c2.3-.1 4.2 1.7 4.2 4 .1 2.3-1.7 4.2-4 4.2l-8.7.3M128.9 1728.6c-9.5-8.7-11.5-23.3-4.1-34.3 8.2-12.2 24.6-15.4 36.8-7.3 12.2 8.2 15.4 24.6 7.3 36.8-7.4 11.1-21.4 15-33.1 9.4"/><circle transform="rotate(-8.726 146.344 1709.145)" class="prefix__st0" cx="146.4" cy="1709.6" r="17.6"/><path class="prefix__st0" d="M116.6 1746.8l12.2-18M123.3 1751.3l12.1-18.1M116.4 1747.2l-6.1-4 .6 19.2 18.7-6.3-6.6-4.4M704.6 1656.9c-3.6-21.9-35.3-35.6-53.1-18.4-36.5 35.4 19.9 81 52.6 84M704.6 1656.9c3.9-21.9 35.7-35.2 53.3-17.8 36.1 35.8-20.8 80.8-53.6 83.3"/><path class="prefix__st0" d="M660.5 1615.5c-3.2 1.3-6.1 3.2-8.8 5.7-10.6 10.3-15.4 27.8-11.8 46.6M704.7 1639.7c-2.2-13.6-15.3-24-29.1-25.9M749.6 1616.2c3 1.3 5.9 3.2 8.4 5.7 11.5 11.4 14.4 29.7 11.6 48.3M704.7 1639.7c2.5-13.9 16.2-24.4 30.4-25.7M699 1686c-3.3-2-5.6-5.6-5.6-9.7 0-6.2 5-11.3 11.3-11.3 6.2 0 11.3 5 11.3 11.3 0 4.4-2.6 8.3-6.3 10.1M699 1686l-5.5 14.4H716l-6.3-14"/><path class="prefix__st0" d="M704.7 1570c-47.2 3.2-42.9 51.3-42.9 51.3s6.1 8.8 13 0c0 0-3.4-34.9 29.9-37.3M705.6 1570.1c47.2 3 43 51.1 43 51.1s-6.1 8.9-13 0c0 0 3.3-34.9-30-37.2M540.2 347c-10-7.1-32.3-7.4-30.5 10.7 2.5 24.7 41 15.4 41 15.4M540.2 346.3c-1.7-12.2 8.5-32 23.7-22 20.7 13.7-5.8 44.4-5.8 44.4"/><path class="prefix__st0" d="M543.9 355c-13.3-7.5-27.4-7.8-26.3 3.4 1.5 15.1 33.1 8.2 33.1 8.2"/><path class="prefix__st0" d="M544.8 354.7c.3-14.4 6.3-28.2 15.6-22 12.7 8.4-9.7 33.9-9.7 33.9M558.1 368.8l22.9 38.6c1.2 2 .5 4.7-1.5 5.9-2 1.2-4.7.5-5.9-1.5l-22.9-38.6"/><path class="prefix__st0" d="M577.1 400.8l7-4.2c2.1-1.3 4.9-.6 6.2 1.6 1.3 2.1.6 4.9-1.6 6.2l-7 4.2M571.3 391l7-4.2c2.1-1.3 4.9-.6 6.2 1.6 1.3 2.1.6 4.9-1.6 6.2l-7 4.2M675.6 1846.1c4.2 25 25.1 1.5 25.1 1.5s-29.3-26.5-25.1-1.5z"/><path class="prefix__st0" d="M686.4 1837.4c15.9-18.7-3.5-30.4-23.4-19.6-19.9 10.8 10.6 23 10.6 23-14.6 4-22.5 21.9-2.7 31.9s21.7-14.1 21.7-14.1 15.4 14.5 19.2-9.2-25.4-12-25.4-12zM680 1813.7s40.6-17 31.3 26.9M656.7 1828.1s-33.4 9.6 4 35.5M682.8 1874.7c18.1 14.4 33.1 8.1 26.1-16"/><path class="prefix__st0" d="M694.6 1810.5s-10.2-18.6-29.8-11.1c-19.6 7.4-21.9 21.2-17.2 32.8M712.4 1824.9s23.4 5.2 17.9 27.6c-5.5 22.4-19.6 17.6-19.6 17.6M648.9 1855s-10.6 15.9 10.6 32.2c21.2 16.3 33.2-6.6 33.2-6.6"/><path class="prefix__st0" d="M680.5 1798.7s21.4-16.1 36.9-4.8c20.5 14.8 14.9 34 10 39.3M647.4 1813.4s-25.6 5.5-27.1 26.3c-1.6 20.8 20.4 25.5 26 27M725.9 1863.3s10.3 23.7-8.4 33.7c-14 7.5-28.5 7.7-35-6M624.3 1855.9s-2.9 44.7 42 36.5"/><path class="prefix__st0" d="M697.5 1902c-2.7 2.1-21.6 27.9-46.5-8.7 0 0-15.7 19.3-15.9 51s-38.4 52.3-38.4 52.3M732 1819.1s18.9 7.3 15 24.2-16.9 14.3-16.9 14.3M728.2 1882.9s26.3-7.3 16.4-33.1M632.5 1820.1s-9.3-31.4 31.1-21.5M694.4 1788.6s-22-22.5-47.1 8.1"/><path class="prefix__st0" d="M637.1 1940.7c.6-.9 20.9-29.4 51.8 12.4 0 0-33.2 39.1-51.5-11 0 0 16.8-7.1 33.9 7.4M634.5 1901c1.2.9 7.8 5.8 7.8 5.8M638.4 1920.2l10.6.4M623.9 1930.2c.3 1 10.4 7.7 10.4 7.7M619.1 1961.4l9.8 4.6M619.8 1978.4l11.2 6.6M67.7 683.8c4.6 27.5 27.5 1.6 27.5 1.6s-32.2-29.1-27.5-1.6z"/><path class="prefix__st0" d="M79.4 674.2c17.5-20.5-3.8-33.4-25.7-21.6-21.9 11.8 11.7 25.3 11.7 25.3-16 4.4-24.7 24.1-2.9 35.1s23.8-15.5 23.8-15.5 17 16 21-10.1c4.1-26.2-27.9-13.2-27.9-13.2zM72.5 648.1s44.6-18.7 34.4 29.6M46.9 664s-36.7 10.6 4.4 39M75.5 715.1c19.9 15.8 36.4 8.8 28.7-17.6"/><path class="prefix__st0" d="M88.5 644.6s-11.2-20.4-32.7-12.2-24.1 23.3-18.9 36.1M108.1 660.4s25.7 5.7 19.7 30.3-21.6 19.3-21.6 19.3M38.3 693.5S26.6 711 49.9 728.9c23.3 17.9 36.5-7.2 36.5-7.2"/><path class="prefix__st0" d="M73 631.7s23.5-17.7 40.5-5.3c22.5 16.3 16.4 37.3 11 43.2"/><path d="M36.3 645.8c-.3.1-29.6 6.6-31.4 30.7-1.7 23.4 21.4 29.5 29 31.5.4.1.8.2 1.1.3.2 0 .4.1.5.1.9 0 1.7-.6 1.9-1.5.3-1.1-.3-2.2-1.4-2.5-.3-.1-.7-.2-1.1-.3-7.5-2-27.5-7.2-26-27.3 1.6-21.1 27.9-27.1 28.2-27.1 1.1-.2 1.8-1.3 1.5-2.4s-1.3-1.7-2.3-1.5z"/><path class="prefix__st0" d="M122.9 702.7s11.3 26-9.3 37c-15.4 8.2-31.3 8.4-38.5-6.6M11.3 694.5s-3.2 49.1 46.2 40.1M129.6 654.1s20.7 8.1 16.4 26.5-18.5 15.8-18.5 15.8M125.4 724.2s28.9-8 18-36.4M20.3 655.1s-10.2-34.5 34.2-23.7M88.3 620.5s-24.2-24.8-51.7 9M81.2 741c5.1 4.7 6.6 8.5 6.6 17"/><path class="prefix__st0" d="M97.7 745.8c2 6.8 2.9 15.9 1.9 27.9 0 0-49.9 7.4-37.4-38.1M54.7 736.5c-5.8 4.8-14.3 11.2-23.5 15.4"/><path class="prefix__st0" d="M58.8 752.7c-6 7.5-18.4 13.4-43.5 10.9 0 0-3-23 9.1-33.6M119.8 629.3c2.2-5 5.8-10.4 11.7-15.5"/><path class="prefix__st0" d="M109.2 622.4c3-8.3 11.3-17.7 29.5-26.9 0 0 30.5 36.4-9.1 50.5"/><path d="M17.6 648c.5 0 1.1-.2 1.5-.7.7-.8.7-2.1-.1-2.8-5.2-4.7-11.5-7.9-19-9.7v4.1c6.3 1.6 11.8 4.5 16.3 8.5.3.4.8.6 1.3.6zM7.8 667.8c1.1 0 2-.9 2-2s-.9-2-2-2c-2.9 0-5.5-.4-7.8-1.1v4.2c2.4.5 5 .9 7.8.9zM21.1 634.7c.8.7 2.1.7 2.8-.2s.7-2.1-.2-2.8c-5.5-5-13.5-8.1-23.8-9.5v4c9.3 1.3 16.4 4.2 21.2 8.5z"/><path class="prefix__st0" d="M131.2 653.4c7.1 2.4 16.6 6.3 24.8 11.8M142.1 641.3c9.5 1.2 21 8.7 32 31.4 0 0-14.3 11.5-28.3 10.7M904.8 253.1c13.8 17.4 19.9-9.4 19.9-9.4s-33.7-8.1-19.9 9.4z"/><path class="prefix__st0" d="M909.3 241.8c4.4-21.1-15.5-21.9-26.2-5.3s17.9 13.2 17.9 13.2c-9.5 9.2-8.1 26.3 11.4 25.7 19.5-.7 10.7-19.9 10.7-19.9s18 4.7 10.8-15.1c-7.1-19.9-24.6 1.4-24.6 1.4zM894.5 226.3s24-30.1 35.4 7.6M882.6 247.2s-21.6 21.4 18 25.6M922.3 272c20 3.5 28.9-7.7 13.4-23.3"/><path class="prefix__st0" d="M904.4 217.7s-15.6-10-27.6 4-8 25.5.5 32.5M924.1 221.2s20.2-5.9 25.4 13.7-7.7 21.8-7.7 21.8M888 271.1s-1.5 16.7 21.7 20.3 22.8-19 22.8-19"/><path class="prefix__st0" d="M888.6 214.5s9.7-21.3 26.3-19.2c22 2.8 25.8 19.8 24.2 26M869.4 239.7s-17.3 15-9.8 31.6c7.6 16.7 26.4 11 31.3 9.8M950.7 245.1s17.9 13.9 7.7 29.5c-7.6 11.6-18.7 17.9-29.4 10.1M869.4 282.1s16.6 35.6 47.6 10.4"/><path class="prefix__st0" d="M945 286.8c-1.2 2.7-4.9 30.5-39.4 12.8 0 0-4 21.4 9.2 45.8s-7.6 56.3-7.6 56.3M936.8 208.6s17.6-2.3 21.7 12.3c4.1 14.6-6.9 18.1-6.9 18.1M960.6 259.2s17.2-16.6-1.3-32.4M860.7 251.1s-20.3-20.3 14.9-29.6M895 200.9s-26.4-8.1-32.8 26"/><path class="prefix__st0" d="M914.9 342c.1-.9 3.7-31.4 45-12.2 0 0-9.1 44-44.2 13.2 0 0 10-12.5 29.2-8.6M896.2 312.5c1.3.2 8.4 1.1 8.4 1.1M907.3 325.6l8.3-4.1M900.3 339.4c.7.7 11.2 1.5 11.2 1.5M910.1 362.3l9.3 1.4"/><ellipse transform="rotate(-82.334 897.319 399.14)" class="prefix__st0" cx="897.4" cy="399.1" rx="31.2" ry="96.2"/><ellipse transform="rotate(-82.334 897.946 396.349)" class="prefix__st0" cx="898" cy="396.4" rx="18.6" ry="78"/><path class="prefix__st0" d="M802.4 383.5l20.1-149.3c6.9-51.4 55.5-87.8 108-80.7 52.5 7.1 89.7 54.9 82.8 106.4l-20.1 149.3M848.9 197.8s20.9-27.8 52.9-29.5M995.5 303l-8.1 59.6M112.4 1546.4c-5.2-4.6-17.6-6.2-17.7 4.1-.1 14 24.5 10.9 24.5 10.9M112.5 1546c-.2-6.9 6.7-17.4 14.6-10.8 10.7 9-7.5 25.7-7.5 25.7M136.4 1477.7c-5.2-4.6-17.6-6.2-17.7 4.1-.1 14 24.5 10.9 24.5 10.9M136.4 1477.4c-.2-6.9 6.7-17.4 14.6-10.8 10.7 9-7.5 25.7-7.5 25.7M86.4 1611c-5.2-4.6-17.6-6.2-17.7 4.1-.1 14 24.5 10.9 24.5 10.9M86.5 1610.6c-.2-6.9 6.7-17.4 14.6-10.8 10.7 9-7.5 25.7-7.5 25.7M132.8 1591.4c-5.2-4.6-17.6-6.2-17.7 4.1-.1 14 24.5 10.9 24.5 10.9M132.9 1591c-.2-6.9 6.7-17.4 14.6-10.8 10.7 9-7.5 25.7-7.5 25.7M60.9 1491.8c1.5 3.2 60.2 133 60.2 133M105.7 1471.5c1.5 3.2 60.2 133 60.2 133M170.4 1496c-3.2 1.5-133.2 59.7-133.2 59.7M190.7 1540.9c-3.2 1.5-133.2 59.7-133.2 59.7M164 1568.2l33 12.4M186.7 1557.9l-12.4 33M30 1516.5l33 12.4M52.7 1506.2l-12.5 33M143.4 1522.8l33 12.4M166.1 1512.5l-12.4 33"/><path d="M705.6 2417.9c.1-1-.6-1.9-1.6-2.1-1.1-.2-2.1.5-2.4 1.5-.1.4 0 .8 0 1.3.1 1.1.4 3.2-.9 4.5-1.2 1.3-3.8 1.9-7.4 1.8-1.1 0-2 .8-2.1 1.9s.8 2 1.9 2.1h1.2c4.2 0 7.4-1 9.2-3.1 2.5-2.7 2.1-6.2 1.9-7.7.2 0 .2-.1.2-.2zm-.1.3z"/><path class="prefix__st0" d="M587.2 2390.3c-1.8-11.1-16-25.8-26.6-12.8-14.3 17.6 19.9 38.8 19.9 38.8M587.6 2389.8c6.8-9 26.2-15.3 29.5 1.1 4.4 22.3-35.7 25-35.7 25"/><path d="M716.6 2432.2c-.7-2.8-4.6-5.2-10.9-8.9-1-.6-2.2-.2-2.7.7-.6 1-.2 2.2.7 2.7 2.9 1.7 8.3 4.9 9 6.3-.6 1-1.3 2-2.1 2.9h4.9c.2-.3.4-.6.7-1 .5-.7.7-1.7.4-2.7zM630.9 2409.6c2.7-19.4 14.6-26.3 25-26.3h.3c10.5.1 22.5 7.3 24 20.3.2 1.6.7 3.2 1.4 4.8.5 1 1.7 1.4 2.7.9 1-.5 1.4-1.7.9-2.7-.6-1.2-.9-2.3-1.1-3.4-1.5-13.4-13.5-23.7-27.9-23.9-12.2-.1-26.2 7.6-29.3 29.8-1.5 11 2 20 7.9 26.9h5.5c-6.7-6.5-10.9-15.3-9.4-26.4z"/><path class="prefix__st0" d="M633.1 2395.5l-14.1 2.3 9.8 12.7M656.8 2396c-1.7-.4-3.7 2.1-4.7 5.7-.9 3.5-.3 6.8 1.4 7.2 1.7.4 3.7-2.1 4.7-5.7.9-3.6.3-6.8-1.4-7.2z"/><path d="M707 2408.2c-16.3-4.4-27.6-4-33.8 1.3-5.1 4.4-4.5 10.5-4.5 10.7.1 1 1 1.8 2 1.8h.2c1.1-.1 1.9-1.1 1.8-2.2 0 0-.4-4.2 3.1-7.2 3.4-2.9 11-5.4 28.4-.9-.5 1.8-1.9 4.6-5.5 5.4-1.1.2-1.8 1.3-1.5 2.4.2 1.1 1.3 1.8 2.4 1.5 6.7-1.5 8.8-7.7 8.9-10.7 0-1-.6-1.8-1.5-2.1zM698.7 2428.6v-.1s0 .3-.4.5c-.8.6-3.5 1.6-11.8-.3-1.1-.2-2.2.4-2.4 1.5-.2 1.1.4 2.2 1.5 2.4 3.4.8 6.4 1.2 8.8 1.2 3 0 5.2-.6 6.7-1.9 1.4-1.2 1.8-2.7 1.7-3.6l-4.1.3z"/><path class="prefix__st0" d="M494.7 2360.7c1.2-.9 2.2-1.9 3-3 15-21.9 58.3-8.2 44.2 30.1-14.2 38.7-84.4 22.2-87.2-18.3-.2-2.7 5.5-3 12.8-3.4"/><path class="prefix__st0" d="M544.7 2373.7l11.5 8.5-14.7 6.7M523.5 2363c-1.7-.4-3.7 2.2-4.6 5.7-.9 3.6-.2 6.8 1.5 7.2s3.7-2.2 4.6-5.7c.9-3.6.2-6.8-1.5-7.2zM500 2377.7s11.5-16.8-27-25.4c0 0-3.1 6.6 2.4 11.3M471.1 2359.7c-.2.8-7.1 7.3 4.7 13M469.6 2371.2s-3 4.9 12 8.8M503.4 2410.6s-3 6.2-9.3 6M493.1 2408.2s-3 6.2-9.3 6M1007.5 1461.8c20.3 9.5 32.9 25.3 30.1 40.6-3.7 20.4-33.2 32.1-66 26.2s-56.3-27.3-52.6-47.7c3.7-20.4 33.2-32.1 66-26.2 1.7.3 3.4.7 5 1"/><path class="prefix__st0" d="M1003.7 1467.6c17.2 8.2 27.8 21.7 25.5 34.8-3.2 17.6-28.7 27.8-57 22.6s-48.7-23.6-45.5-41.2 28.7-27.8 57-22.6c1.8.3 3.6.7 5.4 1.1M1004.9 1566.1c-7.5 8.5-24.5 12.5-41.8 9.3-16.3-3-29.3-11.5-34.1-21.4"/><path class="prefix__st0" d="M1014.3 1558c.1 1.7.1 3.4-.2 5.1-2.9 16.2-26.5 25.6-52.6 20.9s-44.9-21.7-41.9-38M906.5 1526.9c3.3-2.9 7.2-5.4 11.6-7.5"/><path class="prefix__st0" d="M1025 1538.9c9.2 9.6 13.8 20.8 11.9 31.7-4.4 24.3-39.6 38.2-78.5 31.2s-67-32.5-62.6-56.7c.7-4 2.3-7.8 4.6-11.2M918.9 1480.9s-6.3 50.1 10.7 74.4M1037.6 1502.4s-9.4 44-32.7 63.8M978.8 1488.4c-1-10.2-19.9-23.8-29.7-8.1-13.6 21.7 24.5 37.3 24.5 37.3M978.8 1488.5c4.4-9.3 26.8-15.7 30.7 2.4 5.5 25-35.6 26.9-35.6 26.9M944.7 1472.3c-.1 1.1-13.5 8.3-4.7 25.7M1015.4 1484.2c1 1.9 10.8 13.5-3.6 28.5"/><path class="prefix__st0" d="M923.7 1543.5c-2.2.1-4.4-.1-6.7-.5-15.4-2.8-25.9-16.6-23.3-30.9 2.1-11.4 11.7-19.6 23.3-21.1"/><path class="prefix__st0" d="M921.2 1535.3c-.7-.1-1.3-.1-2-.3-10.3-1.9-17.3-11.1-15.5-20.7 1.3-7.1 7-12.4 14.1-13.8M1000.8 1373.5c7-8.5-52.8 35.3-28.3 59.2 23.6 23 22.6 31.4 10.3 39.9 0 0 26.2.8 27.9-22.5 2-25.9-48.6-30-9.9-76.6zM948.1 1854.9c-20.3 21.6-51.9 31-82.1 21.5-30-9.5-50.5-35.1-54.9-64.3M809.7 1812.1c-18.8-4.8-23.6-20.4-20.4-30.6 3.2-10.2 15.2-15.5 26.7-11.9M949.4 1856.2c18.1 6.9 31.1-3.1 34.3-13.3 3.2-10.2-3.5-21.4-15.1-25.1M875.3 1797c-2.2 6.9-9.5 10.7-16.3 8.5s-10.7-9.5-8.5-16.3M929 1817c-2.2 6.9-9.5 10.7-16.3 8.5-6.9-2.2-10.7-9.5-8.5-16.3"/><path class="prefix__st0" d="M895.8 1835.7c-2.2 6.9-11.1 10.1-20.1 7.3-8.9-2.8-14.4-10.7-12.2-17.5M816.1 1770.2s-3.7 15.7 1.2 17.8 12.7-17.3 12.7-17.3 55.9 8.7 108-18.2c0 0 8.6 39.2 20.6 56.8 0 0-4.3 15.6-2.5 20 4.6 11.3 11.6-11.8 11.6-11.8"/><path class="prefix__st0" d="M807 1768.6c.4-.7-1.9-62.3 60.8-77.3 61.2-14.6 90.2 28.2 93.3 33.2 0 0 18.9 8.5 26.8 29.7 9.4 25.1-2.8 56.4-11.1 66.2M837.6 1801.8c-7.1-2.2-14-.5-15.4 3.9-1.4 4.4 3.3 9.7 10.4 12 7.1 2.2 14 .5 15.4-3.9s-3.3-9.8-10.4-12zM934 1834c-7.1-2.2-14-.5-15.4 3.9s3.3 9.7 10.4 12c7.1 2.2 14 .5 15.4-3.9s-3.2-9.8-10.4-12zM595.4 183.5c-5.9 29.1-27.9 53.7-58.6 61.4-30.5 7.7-61.4-3.3-80.5-25.8M455.2 219.9c-18.5 5.8-30.8-4.9-33.5-15.3-2.6-10.4 4.8-21.2 16.5-24.2M593.3 141.2c11.7-3 23.4 3 26 13.4s-3.1 25.7-22.2 29.3M501.1 173c1.8 7-2.5 14-9.4 15.8-7 1.8-14-2.5-15.8-9.4M557.3 161.8c1.8 7-2.5 14-9.4 15.8-7 1.8-14-2.5-15.8-9.4"/><path class="prefix__st0" d="M538.9 195.2c1.8 7-4.2 14.5-13.2 16.8s-17.9-1.5-19.6-8.5"/><ellipse transform="rotate(-14.211 473.848 203.35)" class="prefix__st0" cx="473.8" cy="203.3" rx="13.5" ry="8.3"/><ellipse transform="rotate(-14.211 572.862 180.032)" class="prefix__st0" cx="572.8" cy="180" rx="13.5" ry="8.3"/><path class="prefix__st0" d="M436.1 181.4s62.9-15.1 83.4-75.6c0 0 37.7 50.6 73.8 35.4"/><path class="prefix__st0" d="M427.5 183.2s-24.5-43.3 14-86.3 77.9-19.7 77.9-19.7 17.7-9.6 45.8 3.1c25.1 11.3 35.5 40.5 35.5 59.5M438.3 222.7s-11.5 7.6-5.1 25.2c6.5 17.6 23.9-17.9 17.5-26.8M466.7 230.5s1.7 29.4-25.9 21.6"/><path class="prefix__st0" d="M430.1 248.9s-13.2.7-10.9 19.3c2.3 18.6 27.6-8.1 23.3-18.1M456.5 252.2s5.1 37.5-30.6 25.9"/><path class="prefix__st0" d="M398.6 284.7c-3.4 11.8-13.1 8.6-13.1 8.6s5.4 23.3 29.3 17.6c22.1-5.3 10.7-32 10.7-32s-20.6-15.8-26.9 5.8zM398.2 298.2s23.5 12.8 27.3-19.2M613.3 176.7s17.7 8.5 15.4 27.3-29.8-10.7-25.4-21M590 200.8s4.8 24.7 31.9 9.5"/><path class="prefix__st0" d="M632.3 204.2s14.1-3 16.5 15.6-31.2-.1-29.3-10.9M605.7 217s8.4 33.9 38.6 14.3"/><path class="prefix__st0" d="M674.8 230c-12.2-19.1-29.9 2-29.9 2s-5.1 29 19.6 27.9c26.6-1.2 26.3-25.2 26.3-25.2s-9.4 5.7-16-4.7zM678.7 242.9s-21.5 18.9-33.8-10.9M453.4 1564.3l-5.9 5.7c-1.3 1.3-3.3 1-4.5-.5l-7.9-10.5c-1.6-2.1-4.5-1.7-5.3.8l-4.1 12.4c-.5 1.6-2.1 2.5-3.6 2.1l-10.7-3.1c-2.4-.7-4.4 1.8-3.7 4.4 2.7 9.8 10.6 27.5 31.7 23.5 19.8-3.8 20.4-22.3 19.2-32.3-.3-2.9-3.3-4.4-5.2-2.5zM496 1639.8c-1.6-1.3-40.7 8.6-58.2-39.9"/><path class="prefix__st0" d="M408.8 1633.3c14.5 22.9 56.3 11.3 40.8-10.4s-40.8 10.4-40.8 10.4zM416.5 1632.6c.5 0 23.9 2.7 32.7-8M892.7 957.9c-19.1 6.5-17.1 24.9-14.5 34.7.8 2.8 3.9 3.8 5.6 1.7l5-6.4c1.1-1.4 3.1-1.5 4.5-.1l9.3 9.3c1.9 1.9 4.7 1 5.2-1.6l2.3-12.8c.3-1.7 1.7-2.8 3.3-2.6l11 1.6c2.5.4 4.1-2.4 3-4.9-4.1-9.4-14.4-25.8-34.7-18.9zM830.9 925.6c1.8 1 39.1-14.2 63.2 31.3"/><path class="prefix__st0" d="M879.2 935.7c18.4 19.3 38.9-16 38.9-16-17.6-20.7-57.3-3.3-38.9 16zM910.6 921.5c-.5 0-24.1.6-31.2 12.5M70.8 2103.9c-12.6-3.2-23.2 11.1-16.8 20 14.6 20.3 40-7.5 40-7.5"/><path class="prefix__st0" d="M70.8 2103.9c-9.6-8.6-3.9-24.4 6.9-23.6 24.7 1.8 16.3 36.2 16.3 36.2M186.8 2167.9c10.3 9.3 4.3 26-7.3 25.2-26.5-2-17.6-38.7-17.6-38.7M186.8 2167.9c13.3 3.8 23.6-9.5 16.4-18.5-16.4-20.5-41.3 5-41.3 5M154.2 2127l-33.4-18.2c-9.2-5-20.9-1.6-26 7.6l-1.3 2.5c-5 9.2-1.6 20.9 7.6 26l33.4 18.2c9.2 5 20.9 1.6 26-7.6l1.3-2.5c5.1-9.2 1.7-20.9-7.6-26zM96.5 2140.7l37.1-24.2M156.7 2129.9l-35.6 24.5M99.3 413.8c-2.2-8.7-14.4-10.4-17.6-3.5-7.5 15.5 17.6 21.7 17.6 21.7M99.3 413.8c2.1-8.7 13.5-10.4 16.6-3.6C123 425.7 99.4 432 99.4 432"/><path class="prefix__st0" d="M101 363.8s-22 10.3-27 29.4c0 0-9.7-11.8-34.7-8.8 0 0 .3 33.3 18.3 57 0 0 42.8 27.1 84.6.8M142.2 442.2c18.5-23.2 19.7-56.5 19.7-56.5-22.6-.8-34.6 7.9-34.6 7.9-4.6-19.3-26.3-30.1-26.3-30.1M50.2 429.4s49 32 99.8.6"/><ellipse transform="matrix(.9995 -.0312 .0312 .9995 -12.848 2.085)" class="prefix__st0" cx="60.4" cy="412.8" rx="5.3" ry="5.7"/><ellipse transform="matrix(.9995 -.03122 .03122 .9995 -12.875 4.56)" class="prefix__st0" cx="139.6" cy="414.6" rx="5.3" ry="5.7"/><path d="M1122.7 301.4c-4.1-3.5-6.2-8.2-6.5-13.9-.2-5.4 3.9-9 7.7-10.6.3-.1.7-.3 1-.4v-4.2c-.9.2-1.7.5-2.6.9-6.6 2.7-10.5 8.2-10.2 14.4.3 6.8 2.9 12.5 7.8 16.7 1.5 1.3 3.2 2.4 4.9 3.4V303c-.6-.4-1.4-.9-2.1-1.6zM1053.2 99.7c-1.1-2-2.9-3.5-5.2-4.1-2.2-.6-4.6-.4-6.6.7s-3.5 2.9-4.1 5.2c-.6 2.2-.4 4.6.7 6.6l86.9 157.4v-8.3l-83.4-151.1c-.6-1.1-.7-2.3-.4-3.5.3-1.2 1.1-2.2 2.2-2.8 1.1-.6 2.3-.7 3.5-.4 1.2.3 2.2 1.1 2.8 2.2L1125 238v-8.3l-71.8-130z"/><path class="prefix__st0" d="M1050.8 99.7l7.1-24.7 22.1 40-7 24.4M1057.1 110.8l6.7-23.4M1065.3 124.1l6.8-23.5M1039.1 106.4l-24.7-7.5 21.5 40.3 24.3 7.4M1044.9 117.7l-23.3-7.1M1051.5 131.8l-23.3-7.1M226.7 47.6c-9.6-12.1-30-6.3-30.4 6.8-.9 29.8 43.3 21.9 43.3 21.9"/><path class="prefix__st0" d="M226.7 47.6c-2.6-15.3 15.8-26.8 25.9-18.4 23.1 19.1-13.1 47.1-13.1 47.1"/><path class="prefix__st0" d="M259.8 48.6c6.6 3.6 12.1 9.3 15.6 16.6 8.8 18.5.9 40.7-17.6 49.5s-40.7.9-49.5-17.6c-3.7-7.8-4.5-16.3-2.7-24.2"/><path class="prefix__st0" d="M256.9 58.1c3.9 2.6 7.2 6.3 9.4 10.9 6.5 13.6.7 29.9-12.9 36.3-13.6 6.5-29.9.7-36.3-12.9-2.5-5.3-3.2-11-2.2-16.4M99.7 943.5s22.4 13.4 25.1-29.4c0 0-75.1 61.7-83.8 163.7M95.8 940.3s-11.6-19.9 28.9-26.2"/><path class="prefix__st0" d="M82 965s10 31.1 37 1.4c0-.1-23.7-24.8-37-1.4zM83.3 964.9s11.9-2.5 35.7 1.4M66.9 992s-6 32.1 31.8 18.8c.1 0-8.9-33-31.8-18.8zM68.1 992.6s11.7 3.5 30.7 18.2M55.4 1021s-13.7 29.7 26.3 26c0 0-.7-34.2-26.3-26zM56.4 1021.8s10.5 6.2 25.3 25.2M66.1 924.5c-21.1 34.8 12.5 38.2 12.5 38.2 18.9-19.1-12.5-38.2-12.5-38.2zM78.2 961.4s-1.1-13-12.1-36.9M41.5 961.4c-7 41.9 24.2 32.2 24.2 32.2 10.4-25.9-24.2-32.2-24.2-32.2zM64.9 992.5s-5.4-12.2-23.4-31.1M17.3 1004.1c12.2 41.6 35.3 18.4 35.3 18.4-2.2-28.4-35.3-18.4-35.3-18.4zM51.4 1021.8s-10.1-8.6-34.1-17.7M879.8 2334.4c5.9 4.1 14 5.5 14 5.5M892.6 2321.8c-1.2-3.7-4.3-6-7.5-6.7M892.6 2321.8c1.5-8.8 12.7-11.3 16.3-4.7 8.1 15-15 22.8-15 22.8M847.8 2305.7c3.8-8.1-4.4-17.2-11.3-14-15.7 7.2-.3 28-.3 28M847.8 2305.7c7.1-5.3 17 .6 15.1 7.8-4.5 16.4-26.6 6.2-26.6 6.2M858.7 2293c-1.3 8.7 6.6 19.5 6.6 19.5M876.9 2298.5c2.8-5.9-.9-12.4-5.7-14.2"/><path class="prefix__st0" d="M876.9 2298.5c7.1-5.3 17 .6 15.1 7.8-4.5 16.4-26.6 6.2-26.6 6.2M853 2322.9c2 5.2 5.1 9.4 5.1 9.4M869.7 2318.3c.5-1 .7-1.9.9-2.9"/><path class="prefix__st0" d="M869.7 2318.3c7.1-5.3 17 .6 15.1 7.8-4.5 16.4-26.6 6.2-26.6 6.2M817.8 2297.9c.5-8.9-10.5-14.3-15.7-8.8-11.9 12.5 10.2 26.1 10.2 26.1M830.7 2310.4c-6.5 5.4-18.4 4.8-18.4 4.8M817.8 2297.9c1.4-2.3 3.4-3.7 5.5-4.4M816.6 2269.1c-11.9 12.5 10.2 26.1 10.2 26.1M832.3 2277.9c.2-2.9-.9-5.5-2.6-7.4M831.4 2294.6c-3.2.3-4.7.5-4.7.5M832.3 2277.9c4.6-7.6 16-5.8 16.9 1.6.7 6-2 9.8-5.7 12.1"/><path class="prefix__st0" d="M855.3 2275.2c2.5-8.6-7.1-16.3-13.3-12.1-4.4 2.9-5.7 6.6-5.4 10.3M855.3 2275.2c6.2-6.4 16.9-2.1 16.1 5.3-1.8 16.9-25.3 10.3-25.3 10.3M892.1 2308.1c1.1 1.3 1.9 2 1.9 2M903.2 2294.5c2.5-8.6-7.1-16.3-13.3-12.1-5.5 3.7-6.2 8.6-4.9 13.3M903.2 2294.5c6.2-6.4 16.9-2.1 16.1 5.3-1.8 16.9-25.3 10.3-25.3 10.3M868.3 2262.8c-2.3 2.3-3.1 5-3.1 7.7M884 2272.9c.4-1.4.5-2.7.3-4M884.1 2289.8c-5-.1-7.1-.5-7.1-.5M884 2272.9c1.1-1.1 2.3-1.9 3.5-2.4M895.5 2271.7c-1.1 2.8-.9 5.8 0 8.7M929.8 2284.5c-.8 7.7-6.3 9.8-11.8 10.6M826.5 2252.9c-2-8.7-14.1-10.8-17.5-4.1-7.9 15.3 17.1 22.2 17.1 22.2M844.3 2254.1c1 12.4-18.3 17-18.3 17M826.5 2252.9c.5-2 1.5-3.5 2.8-4.7M862.6 2179.5c-2-8.7-13.6-11.5-17.1-4.8M862.6 2179.5c2.3-8.6 13.7-10 16.7-3.1 1.9 4.5 1.3 8.1-.5 11.1M927.6 2203.2c3-8.4-6-16.7-12.6-12.9-3.3 1.9-5 4.3-5.7 7M927.6 2203.2c6.6-6 17-1 15.7 6.3 0 .2-.1.3-.1.5"/><path class="prefix__st0" d="M891.9 2183.2c3-8.4-6-16.7-12.6-12.9-1.1.6-2 1.3-2.8 2.1M891.9 2183.2c6.6-6 17-1 15.7 6.3-.5 2.9-1.6 5-3 6.6M885.9 2218.7c1-13-15-21-22.7-13.2-17.6 18 14.3 38.3 14.3 38.3"/><path class="prefix__st0" d="M885.9 2218.7c6.9-11 23.5-8.1 24.6 2.7 2.5 24.7-33 22.4-33 22.4"/><path class="prefix__st0" d="M955.5 2140.3l-74.6-26.9c-15.2-5.5-32.2 2.5-37.7 17.7l-53.9 149.2c-5.5 15.2 2.5 32.2 17.7 37.7l74.6 26.9c15.2 5.5 32.2-2.5 37.7-17.7l53.9-149.2c5.5-15.2-2.5-32.2-17.7-37.7zM829.3 2169.6l130 46.9M804.3 2238.8l130 47M964 2107.2l-68.7-24.8c-3.5-1.3-7.5.6-8.8 4.1l-.3.9c-1.3 3.5.6 7.5 4.1 8.8L959 2121c3.5 1.3 7.5-.6 8.8-4.1l.3-.9c1.3-3.6-.5-7.5-4.1-8.8zM892.1 2097.6l-6.3 17.5M957.1 2120.7l-6.3 17.5M853.6 2136.7s9.7-21.4 30.8-12M1055.3 468.5c-6.2-13.1-28.6-16.1-36.7-2.1-16.6 28.8 27 47.4 48.1 43.3M1055.3 468.5c-1.5-14.4 16.1-28.5 30.3-20.7 29.1 16 1.4 54.5-18.8 62"/><path class="prefix__st0" d="M1071.3 508.5l16.7 59.9c.6 2.3-.7 4.6-3 5.2-2.3.6-4.6-.7-5.2-3l-16.7-59.9M1035.2 529.2c5.4 17 31.7-.5 26.6-18 0-.1-33.5-3.5-26.6 18zM1053.6 545.8c-.2-.7-6.4-20.1 8.1-34.7M1072.5 507.9c4.5 17.7 36 19.4 32 2-5-21.9-32-2-32-2zM1097.2 533.6c-.2-.7-4.7-20.6-24.7-25.7M1064.7 515s4.1 3 8.8-2.4M1023.5 478.5s1.2-17 17.7-11.9M297.2 372.7c20.9 2.2 35.9 13.1 45.5 26.5M258.4 475.4c-18.6-11.3-30-31.5-27.8-53.2 2-19 13-34.7 29.9-43.1M339.3 463c-5.2 6.9-11.7 12.3-19.1 15.9"/><path class="prefix__st0" d="M347 473.3c-3.1-3-5.7-6.4-7.8-10.3-14.4-27.2-8.6-62.4 20.6-79.2 14.2-8.2 36.9-11.3 51.3-8.3M439.4 390.4c3.1 3.1 6 6.6 8.2 10.7 15.9 29.5 12.6 54.2-8.7 70.9"/><path class="prefix__st0" d="M408.8 378.5c5.4-7.8 15-15.7 25.8-18.4 10.8-2.8 7.1 31.8 1.5 36.5M344.7 394.1c-1.9-1.7-7.6-33 2.3-33.7 9.8-.7 20.6 16.9 20.6 16.9M260.4 382.3s7-36.7 16.6-37.3c9.6-.6 18.7 23.1 18 30.6M334.5 389.6s2.1-2.7 7.7-4.1M379.5 430c.1-5.7 4.6-10.3 9.9-10.1 5.3.1 9.6 4.9 9.4 10.6M341.7 427.9c.1-5.7 3.6-10.3 7.6-10.2 4.1.1 8.9 6.4 7.5 13.8M359.8 443.9c.9 1.6 3.8 3.7 3.8 3.7l5.6-3.5M364.4 460.5c-.3-.8-1-8.4-.8-12.9"/><path class="prefix__st0" d="M386.9 453.4c-.6 6.4-9.4 10.8-19.6 9.9-10.3-.9-18.1-6.8-17.6-13.2M304.9 422c1.3-5.6-2.3-11.3-8-12.8-5.7-1.4-11.3 1.9-12.6 7.5M333.7 416.4c-3.1.8-7.2 3.4-7.7 11M319.8 440.4c-1.3 1.3-4.9 2.5-4.9 2.5l-5-5.1M310.8 455.2c.5-.7 3.1-7.9 4.1-12.2"/><path class="prefix__st0" d="M288.8 441.6c-1 6.4 7.2 13.2 18.3 15.4 11.1 2.1 20.9-1.3 21.9-7.7M350.1 473c.3-5.8 6.4-12.3 22.6-9.7 0 0-7.3 2.7-6.9 11 .1 1.4-.2 2.6-.6 3.7M303.8 456.6s5.4 5.4 1.7 12.8 4.1 13.5 11.2 9.1c5.6-3.6 7.6-16.6-12.9-21.9zM354 517c6.4 3.7 13.7 8.7 20.2 10.5 20.4 5.7 18 4.2 19.9 8.5M277.7 514.5s17.1 38.8 60.4 38.7"/><path class="prefix__st0" d="M410.9 517.7c.6 3.5-9.1 23.1-39.5 25.2 0 0-29.9-13-34.4 14.1-2.6 16.1 9.1 15 9.1 15s2-3.5 12.2 0 17.2-1.7 17.2-1.7 61.7.1 73.2-29.1c5.2-13.2 2.7-27.6-1.7-39.4M306.3 622.5c13.6-1.6 23.3-4.6 23.3-4.6M252.1 471s-44.7 52.4-27.7 110.3c3 10.1 7.7 18 13.5 24"/><path class="prefix__st0" d="M430.5 472.3c-6 3.6-9 14.3-4.2 22.3s15.6 10.4 21.6 6.8c6-3.6 5-11.9.2-19.9-4.8-8.1-11.6-12.8-17.6-9.2zM332.5 487.6s-27.3-18.7-33.1 6.2c-6.3 27.2 40.3 32.4 40.3 32.4M333.3 487.4s19-27.3 33.4-6.2c15.8 23.1-26.3 44.8-26.3 44.8M342.5 543.6l-3.8-16.9M355.8 571.6l3.7 16.4c.3 1.4-.6 2.8-2 3.1l-1.6.4c-1.4.3-2.8-.6-3.1-2l-4.2-18.8M345.3 525.1l3.2 14.8M306 498.2s1.5-13.4 14.1-9.7M429.7 375.4c-2.6-1.8-9.1 3-11.8 6.8-2.7 3.7-.4 4.9 2.2 6.7 2.6 1.8 4.4 3.6 7.1-.2 2.6-3.7 5-11.5 2.5-13.3zM279.1 362.6c-3.1.2-5.2 8.1-4.9 12.7s2.8 4.1 5.9 3.9 5.6-1.4 5.3-6c-.3-4.6-3.2-10.8-6.3-10.6zM347.5 388.2c-1.5-4.3-1.6-12.5 1.4-13.5s7.9 5.5 9.3 9.9M451.7 515.6c8.4 13.4 14 30 16.7 47.6 5.3 35-10.4 60.9-38.3 71.8M360.3 635.1c-33.2-11.5-45.6-39.2-41.7-72.9.4-3.5.9-6.8 1.6-10.1"/><path class="prefix__st0" d="M376.6 599.9s-19.7 18.2-15.9 41.5c2.9 18 10.1 33.4 3.3 43.2-2.4 3.5-8.4 8.4-8.3 10.4.6 7.2 12.5 8.8 22.4 3.8 14.1-7.2 1.5-42.8 60.9-68M341.1 626.8s2.6 27 25.4 42.4"/><path class="prefix__st0" d="M398 660.6s12.8 8.4 13.8 18.7c.9 9.9-4.5 17-9.9 18.9-7.2 2.5-14.6-.3-12-7.1 2.6-6.8 5.3-8.5-1.4-12M239.1 606.4s29.6 86.7 71.2 89.6c26.8 1.8 15.2-12.1 9.6-15.3-6.6-3.9-35.9-20.9-8.7-67.8M335 619.7s-25.8 39.9-19.3 56.5M465.5 605.1c13.8 4.5 78.4-16.6 73.9-85.5-3.4-51.9-55.3-49.9-59.4-31.5-2.9 13 19.6 10.9 29.1 30.2 9.5 19.3 5 64.8-40.4 67.9M231.9 597.6c-18 .2-85.1-5-83.5-80.3.9-42 48-67.1 57.3-48.6 6.6 13.2-19.8 22.3-26.2 43.9-4.7 16.1-2.1 56.8 43.1 61.6M895.7 1069.3c7.4 8.5 11.9 19 12.2 30.4.6 17.8-8.9 33.9-24 44.1M816 1055.8c8.5-4.4 18.4-7 29-7.4 10.5-.3 20.4 1.6 29.1 5.4M802.7 1139.2c-10.3-9.2-16.7-21.6-17.2-35.5-.3-9.7 2.3-18.8 7.3-26.8M864.7 1095.5c.1 5 4.2 8.9 9.1 8.7 4.9-.2 8.7-4.4 8.6-9.3M823.6 1096.9c.1 5 4.2 8.9 9.1 8.7 4.9-.2 8.7-4.4 8.6-9.3M862.3 1112.9l-5.2 4.4-4.5-4.5M857.1 1117.3l-.2 16.2M832.1 1119.4c.1 8.6 10.3 15.4 22.8 15.2 12.5-.2 21.1-7.5 21-16.1M895.7 1069.3c13.4-21.9 7.4-35.7-3.1-30.3-8.3 4.3-18.4 14.8-18.4 14.8"/><path class="prefix__st0" d="M816.2 1055.7s-10.1-13-18.9-18.8c-7.1-4.6-14.2 16.7-4.6 40M900.4 1127s53-21.7 61.9-1.2M824.2 1179.1c-.9-4.6-1.5-15.1 1.3-21.7M811 1221.8c12.5 8.1 29.4 12.2 51.4 8.3 0 0 7.3-1.6 4.4-5.4-.9-1.2-6.8-4.6-14-9.7M780.8 1168.3c.3 8.3 2.8 18.8 8 28.8M726.2 1193.9s-34 11-32.5 46 4.8 42.1-1.4 47.2c-5.2 4.3-19.8 9.8-13 17.6s31 4.8 36.5-6.3 13.9-50.2 28.7-46.3c2.6.7 4.7 1.3 6.5 1.8M734.3 1175.8c-3.9 5.9-6.4 11.3-8.1 18.1M793.1 1129.3s-16.2 7.1-32.8 19.7M836.9 1289.9c4.7 6.6 12.9 10.9 21.1 11.1 14 .4 14-5.9 11.6-8.6-2.4-2.7-18.9-4.9-12.8-19.3 2.4-5.7 4.8-10.7 6.4-15.5"/><path class="prefix__st0" d="M728.7 1186.3s-70.8-35-28.7-77.2c35.9-36 11.2-42.6-.8-38.3-13.8 4.9-56.6 38-35.9 87.4 12.7 30.3 38.2 37.3 49.7 42.7M894.5 1048.3c-2.6-1.7-8.5 2.1-11 5.9-2.5 3.8-.5 4.8 2.1 6.5 2.6 1.7 4.3 4.8 6.8 1s4.7-11.7 2.1-13.4zM798.4 1048.5c-2.5 1.9-2.1 11.6.7 15.2 2.8 3.6 4.6 1.8 7.1-.2 2.5-1.9 4.7-3.2 1.8-6.8-2.8-3.7-7.1-10.2-9.6-8.2zM976.8 1206.4c2.4-10.6 1.4-21.8-3.6-32.2-7.6-16.1-23.1-26.4-40.5-29.1 0 0-23.2-4.2-43.3 9.7M915.6 1251.9c9.2.3 18.8-1.5 27.9-5.6 9-4.1 16.5-10 22.2-17M866.3 1183.4c-4.5 12.5-4.3 26.2 1.7 38.7 4.2 8.7 10.6 15.8 18.4 20.8"/><path class="prefix__st0" d="M942.4 1202c-2.2-4.5-.5-9.7 3.7-11.6 4.2-1.9 9.4.2 11.5 4.7M907 1218.1c-2.2-4.5-.5-9.7 3.7-11.6 4.2-1.9 9.4.2 11.5 4.7M932.4 1187.5l-6.4-1.7-1.8 5.9M926 1185.8l-7.6-14.3M903.8 1194.5c-3.8-7.7 1.7-18 12.4-23.1 10.7-5 21.3-2.2 25.1 5.5M976.8 1206.4c21.3 13.8 22.6 28.7 11.2 28.3-8.9-.3-22.3-5.4-22.3-5.4M915.8 1251.9s-2.6 15.8-7.4 24.6c-3.8 7.1-19.7-8.8-22.2-33.6"/><path class="prefix__st0" d="M977.5 1214.5c-3.9-2.3-3.9 1.1-5.3 3.7s-2.7 4.4 1.2 6.7 10.6 3.3 12 .6c1.4-2.6-4.1-8.6-7.9-11zM903.8 1249.2c-3-.7-5.3-1.6-6.1 2.8s3.3 13.1 6.3 13.8 3.7-6.9 4.4-11.3-1.6-4.6-4.6-5.3zM824.2 1168.1s30.9-18.5 69.8-16.1M921.4 1144.5s30.1-24.5 44-16.5c13.8 8.1-12.5 13.2-12.2 24.3M842.7 1173.9s-64.8 12.8-74.1 51.4c-7.4 30.8 38.8-17.1 91.7-10"/><path class="prefix__st0" d="M876.8 1235s-18.4 55-75.4 35.7c0 0-9.3 5.8-8 20.7 1.2 14.9-2.2 33.3-31.2 28.4-29-4.9 2.6-11.5 3.1-15.8.6-5.2-29.5-58.9-5.3-90.6 7.5-9.9 13.9-15.4 13.9-15.4"/><path class="prefix__st0" d="M782 1177.9s-9.2-30.5-42.4-38.6c-40.7-9.9-51.4 13.7-37 17 14.6 3.3 37 7.3 52.8 64.5M838.2 1273s-11 41.2 27.7 45.2 42.5-1.9 45.2 9.8c3 13.4-31.4 33.4-66 14.7-34.6-18.6-36.4-62.1-28.8-68.5M1084.9 1623.7c-2-8.7-14.1-10.7-17.5-4-7.9 15.3 17.1 22.2 17.1 22.2"/><path class="prefix__st0" d="M1084.9 1623.7c2.3-8.6 13.7-10.1 16.6-3.2 6.7 15.7-17.1 21.4-17.1 21.4"/><path d="M1104.1 1782.7c-12.3 1.8-25.9-2.5-36.6-11.6-23.2-19.8-22.7-35.1-19.7-46.2 3.7-13.3 29.4-50.2 43.2-70 5.4-7.7 11.2-7.8 14.5-5.6 3.6 2.4 5.2 7.9 1.4 13.8-3.3 5.2-31.3 54.9-32.5 57-.5 1-.2 2.2.8 2.7s2.2.2 2.7-.8c.3-.5 29.1-51.7 32.4-56.8 5.1-8 2.5-15.9-2.5-19.2-5.2-3.5-13.4-2.8-20 6.6-14 20-40 57.3-43.8 71.3-3.1 11.3-4.3 28.8 20.9 50.3 9.8 8.3 22 13 33.7 13 2.1 0 4.1-.1 6.1-.4 8-1.2 15.1-4.8 20.3-10.2v-6.3c-4.8 6.7-12 11-20.9 12.4z"/><path d="M1111.9 1741.4c-.6.9-.4 2.1.5 2.8.4.2.8.4 1.2.4.6 0 1.2-.3 1.6-.8.9-1.3 6-8.7 9.8-16.7v-12c-1.5 8.4-9.6 21.3-13.1 26.3zM1110.1 1696.6c-1.1.2-1.9 1.2-1.7 2.3.2 1.1 1.2 1.8 2.3 1.7 5.8-.8 12.6 1.4 14.3 10.2v-9.1c-3.5-4-8.8-6-14.9-5.1z"/><path class="prefix__st0" d="M1094.7 1731.5s19.5-25.3 15.1-35.5-14.3-8-14.3-8M1084.2 1660.5c.1-.2-10.3-22.2-22-14.3-9.9 6.7 7.5 20.3 2.9 41.8M571.6 1064.8c-2-6.1-10.7-6.7-12.7-1.7-4.6 11.4 13.6 14.6 13.6 14.6"/><path class="prefix__st0" d="M571.6 1064.8c1.1-6.3 9.1-8.1 11.6-3.4 5.8 10.7-10.7 16.3-10.7 16.3"/><path class="prefix__st0" d="M597.9 1031.4c12.8 6.3 21.8 17.4 23.1 30.7 2.1 22.4-18.4 42.7-45.8 45.2-27.4 2.6-51.3-13.5-53.4-35.9-1.3-14.3 6.6-27.8 19.6-36.3"/><circle transform="rotate(-45.001 571.293 1066.745)" class="prefix__st0" cx="571.3" cy="1066.7" r="25.2"/><path class="prefix__st0" d="M595.1 1103.9c.4 4.8-3.1 9.1-7.9 9.5l-22.1 2.1c-4.8.4-9.1-3.1-9.5-7.9M582.4 986.5c-.4-4.5-4.4-7.8-8.9-7.4L553 981c-4.5.4-7.8 4.4-7.4 8.9l.1 1.2c.4 4.5 4.4 7.8 8.9 7.4l20.5-1.9c4.5-.4 7.8-4.4 7.4-8.9l-.1-1.2z"/><path class="prefix__st0" d="M553 981.1l-.9-9.7c-.5-5 3.3-9.5 8.3-10l3.9-.4c5-.5 9.5 3.3 10 8.3l.9 9.7M555.2 998.5s5.7 25-14.9 37.2M576.2 996.6s0 24.3 23.2 35.4M1109.3 1932.2c-1.2-6.5-7.6-10.8-14-9.5l-117.9 22.7c-6.5 1.2-10.8 7.6-9.5 14l11.2 58.1c1.2 6.5 7.6 10.8 14 9.5l117.9-22.7c6.5-1.2 10.8-7.6 9.5-14l-11.2-58.1z"/><path class="prefix__st0" d="M1052.5 1972.6c-.7-3.8-4.5-6.4-8.3-5.7l-3.1.6c-3.8.7-6.4 4.5-5.7 8.3l.2 1c.7 3.8 4.5 6.4 8.3 5.7l3.1-.6c3.8-.7 6.4-4.5 5.7-8.3l-.2-1z"/><path class="prefix__st0" d="M1047.6 1966.3s13.5-24 25.4-13c9.3 8.6-.9 17-.9 17s5.5 3 6.8 8.8-10.4 25.5-28.6 1.2"/><path class="prefix__st0" d="M1052.6 1973.2s10.8-8.5 11.9-2.3c1 6.2-7.3 3-7.3 3M1036.3 1968.7s-21.4-17.3-28.4-2.6c-5.5 11.4 7.1 15.4 7.1 15.4s-4 4.8-3.1 10.7 19.1 19.9 27-9.5"/><path class="prefix__st0" d="M1034.1 1976.9s-13.2-3.9-11.9 2.3c1.4 6.1 7.9.1 7.9.1M1039.1 1983l6.4 33.1M1029.9 1935.2l6.3 32.5M1050.5 1981.4l6.4 33.3M1041.3 1933.8l6.1 31.8M1077 1960.7l36.4-7M971.9 1980.9l35-6.7M1075.8 1973l40.4-7.8M974.7 1992.4l38-7.3"/><path d="M1021.3 2410.5c-3.7-.9-7.5.6-9.5 3.6-1.8 2.9-2.3 5.8-1.4 8.7 2.2 7 12 11.1 12.4 11.3.2.1.5.2.8.2.8 0 1.5-.5 1.8-1.2.4-1-.1-2.2-1.1-2.6-2.4-1-8.8-4.4-10.1-8.8-.5-1.7-.2-3.5 1-5.3 1.2-1.9 3.5-2.3 5.2-1.9.9.2 3.2 1.1 3.5 4.2.1 1.1 1.1 1.9 2.2 1.8 1.1-.1 1.9-1.1 1.8-2.2-.4-4-2.9-6.9-6.6-7.8z"/><path d="M1035.5 2411.8c-3.8-.5-8.8 1.1-11.4 5.6-.5 1-.2 2.2.8 2.7s2.2.2 2.7-.8c1.6-2.9 5-3.9 7.4-3.6.9.1 3.1.6 3.7 2.6.6 2.3.4 4.1-.8 5.8-3 4.3-11.4 5.8-14.5 6.1-1.1.1-1.9 1.1-1.8 2.2.1 1 1 1.8 2 1.8h.2c.5 0 12.7-1.1 17.4-7.8 1.8-2.6 2.3-5.7 1.4-9.1-.9-3-3.5-5-7.1-5.5z"/><path d="M1075.8 2323.5c-.3-3.4-3-6.1-6.4-6.3l-85.2-6.6c-1.9-.1-3.8.5-5.2 1.9-1.4 1.3-2.1 3.2-2 5.1.7 13.5 2.2 82.4-36.7 112.8-1.5 1.2-2.2 3.1-1.8 4.9.1.3.2.6.3.8h8.5c-1.6-.4-3-.7-4.2-1-.5-.1-.6-.5-.7-.7 0-.2-.1-.6.3-.9 39.4-30.8 39.2-96.7 38.3-116.1 0-.8.2-1.5.8-2 .6-.5 1.3-.8 2.1-.7l85.2 6.6c1.4.1 2.6 1.2 2.7 2.7 5.3 60.5-16.4 98-26.8 112.2h4.9c4.5-6.4 10.1-15.9 15.1-28.6 9.9-25.4 13.5-53.6 10.8-84.1z"/><path class="prefix__st0" d="M993.1 2331.1l66.2 5.7M993.1 2340.7l66.2 5.7M993.1 2351.8l66.2 5.6M992 2362.8l66.2 5.6M989.9 2373.3l66.2 5.7M1020.2 2387.7c.8.1 32.1 2.8 32.1 2.8M565 1723.2c-17.2 0-31.1 7.8-31.1 26.3s13.9 40.6 31.1 40.6 31.1-22.1 31.1-40.6-14-26.3-31.1-26.3z"/><path class="prefix__st0" d="M559.9 1723.2s-7.8-12.3 5-22.1c0 0 12.9 7.5 6.3 22.5"/><path class="prefix__st0" d="M550.7 1725.4s-16.1-6.9-8.7-20.2c0 0 16.2 1.1 14.7 17.4M572.9 1723.1s-1.9-13.4 13.1-16.5c0 0 8.4 9.9-8 17.7M590.7 1712.9h5.3c-.1.1 2 11.4-12.4 14.3"/><path class="prefix__st0" d="M538.7 1712.9h-7.5s-1.5 13 14.4 14.8"/><path d="M542.4 1735c-1.3 0-2.4 2-2.4 4.6 0 2.5 1.1 4.6 2.4 4.6 1.3 0 2.4-2 2.4-4.6 0-2.5-1-4.6-2.4-4.6zM547.2 1760.5c-1.3.2-2 2.4-1.6 4.9.4 2.5 1.9 4.3 3.2 4.1 1.3-.2 2-2.4 1.6-4.9-.5-2.5-1.9-4.3-3.2-4.1zM553.2 1774.4c-1.2.7-1.1 3 .2 5.2s3.2 3.4 4.4 2.8 1.1-3-.2-5.2-3.3-3.5-4.4-2.8zM557.2 1732.6c-1.3 0-2.4 2-2.4 4.6 0 2.5 1.1 4.6 2.4 4.6s2.4-2 2.4-4.6c0-2.6-1.1-4.6-2.4-4.6zM559 1757.9c-1.3.2-2.1 2.4-1.8 4.9.3 2.5 1.7 4.4 3 4.2 1.3-.2 2.1-2.4 1.8-4.9-.3-2.5-1.7-4.4-3-4.2zM552.3 1745.8c-1.3 0-2.4 2-2.4 4.6s1.1 4.6 2.4 4.6 2.4-2 2.4-4.6-1-4.6-2.4-4.6z"/><ellipse cx="565.8" cy="1749.7" rx="2.4" ry="4.6"/><path d="M566.2 1770.2c-1.3 0-2.4 2-2.4 4.6s1.1 4.6 2.4 4.6 2.4-2 2.4-4.6-1-4.6-2.4-4.6zM578 1774.1c-1.2-.5-3 1-3.9 3.4-.9 2.3-.7 4.6.5 5.1s3-1 3.9-3.4c1-2.3.7-4.6-.5-5.1zM539.6 1749.8c-1.3.2-2 2.4-1.6 4.9.4 2.5 1.9 4.3 3.2 4.1 1.3-.2 2-2.4 1.6-4.9-.5-2.5-1.9-4.3-3.2-4.1zM591.4 1751.4c-1.3-.4-2.9 1.3-3.6 3.7-.7 2.4-.2 4.7 1 5.1 1.3.4 2.9-1.3 3.6-3.7.7-2.4.2-4.7-1-5.1zM580.2 1747c-1.3-.4-2.9 1.3-3.6 3.7s-.2 4.7 1 5.1c1.3.4 2.9-1.3 3.6-3.7.7-2.5.3-4.7-1-5.1z"/><ellipse cx="573.9" cy="1738" rx="2.4" ry="4.6"/><path d="M572 1757.8c-1.3 0-2.4 2-2.4 4.6 0 2.5 1.1 4.6 2.4 4.6 1.3 0 2.4-2 2.4-4.6 0-2.5-1-4.6-2.4-4.6z"/><ellipse cx="587.2" cy="1742.1" rx="2.4" ry="4.6"/><path d="M583.8 1761.7c-1.2-.5-3 .9-4.1 3.2s-.9 4.6.3 5.2 3-.9 4.1-3.2c1-2.3.9-4.6-.3-5.2z"/><path class="prefix__st0" d="M772.9 1468.4c-2.4-10.4-16.9-12.9-21-4.8-9.4 18.4 20.5 26.6 20.5 26.6"/><path class="prefix__st0" d="M772.9 1468.4c2.7-10.3 16.4-12.1 20-3.8 8 18.8-20.5 25.6-20.5 25.6"/><path class="prefix__st0" d="M833 1410.7H713.7c-6.6 0-12 5.4-12 12v91.2c0 6.6 5.4 12 12 12H833c6.6 0 12-5.4 12-12v-91.2c0-6.6-5.4-12-12-12z"/><circle transform="rotate(-80.781 773.382 1471.72)" class="prefix__st0" cx="773.4" cy="1471.7" r="42.1"/><circle class="prefix__st0" cx="773.4" cy="1471.7" r="31.9"/><path class="prefix__st0" d="M823.7 1412.1v113.8M735.8 1421.7h-16.5c-2 0-3.6 1.6-3.6 3.6v3.2c0 2 1.6 3.6 3.6 3.6h16.5c2 0 3.6-1.6 3.6-3.6v-3.2c0-1.9-1.6-3.6-3.6-3.6zM793.3 1373.8h-34.7c-4.7 0-8.6 3.9-8.6 8.6v7.7c0 4.7 3.9 8.6 8.6 8.6h34.7c4.7 0 8.6-3.9 8.6-8.6v-7.7c0-4.8-3.9-8.6-8.6-8.6zM714.4 1408.3v-6.4c0-3.8 5.9-6.9 13.2-6.9 7.2 0 13.2 3.1 13.2 6.9v6.4M760.1 1398.4c.7 1.5 0 12.3 0 12.3M792.8 1398.4c.7 1.5 0 12.3 0 12.3M703.3 2106.2c13 3.1 37 4.9 57.9-15.9 0 0-9.3-2.1-15.4-27.8-1.7-7.2-4.1-12.5-6.9-16.4M701.8 2096.8s24.3 10.1 53-12.1"/><path class="prefix__st0" d="M739.4 2107.3c.5 5.1-3.2 9.6-8.2 10.1-5.1.5-9.6-3.2-10.1-8.2M702.9 2040.8c5.3 3.8 14.7 14.2 4.7 37-10.6 24.2-4.4 31.4-4.4 31.4s-40.2 7.1-61.7-30c0 0 9.5.5 22.2-22.7 2.4-4.4 4.9-7.8 7.3-10.5M700.6 2100.9s-29.5 3.5-51.3-25.5"/><path class="prefix__st0" d="M658.2 2101.3c-1.8 4.7.5 10.1 5.3 11.9 4.7 1.8 10.1-.5 11.9-5.3M707.2 2025.7l-3.2.1c-3.9.1-7 3.4-6.9 7.3v1c.1 3.9 3.4 7 7.3 6.9l3.2-.1c3.9-.1 7-3.4 6.9-7.3v-1c-.1-3.9-3.4-7-7.3-6.9z"/><path class="prefix__st0" d="M710.6 2025.6s17.3-21.4 27.2-8.7c7.8 10-3.7 16.6-3.7 16.6s5 3.8 5.3 9.7c.3 5.9-14.5 23.5-28.4-3.5"/><path class="prefix__st0" d="M714.5 2033.1s12.1-6.6 12.1-.3-7.7 1.8-7.7 1.8M699.2 2026s-18.3-20.5-27.6-7.3c-7.3 10.4 4.5 16.4 4.5 16.4s-4.8 4.1-4.8 10 15.6 22.7 28.2-5"/><path class="prefix__st0" d="M695.7 2033.8s-12.4-6-12.1.3 7.7 1.4 7.7 1.4"/><ellipse class="prefix__st0" cx="288.7" cy="1574.4" rx="13.7" ry="6.2"/><path class="prefix__st0" d="M303.6 1649.3c0 3.4-6.1 6.2-13.7 6.2s-13.7-2.8-13.7-6.2M275 1574.4l1.4 76M302.4 1574.4l1.2 74.9"/><path class="prefix__st0" d="M303.6 1637.5c14.5 8.9 16.7 13.6 16.7 13.6-36.9 28.4-60.7 17.5-61.8 7.9-1.1-9.6 8.4-11.8 8.4-11.8s-5.8-15.6 8.9-17.1"/><path class="prefix__st0" d="M258.4 1659.1s-.8 13.8 20 18.2 40.4-11.6 41.8-26.1M283.7 1560.9c9.9 9.9 21-8.2 8.8-23.9-.1-.1-18.7 14-8.8 23.9zM288.7 1555.2s-2 14.8 0 18.1M1045.7 1085.3c-7.3-10.9-24.9-7.5-26.2 3.6-1.6 14.1 9.7 19.2 19.8 20.9M1045.7 1085.3c-1.3-13 13.6-21 21.2-13 10.6 11.1 3.5 23-3.6 30.5M1074.1 1075.5c-4.1-12.5-20.8-12.9-24.9-2.6M1074.1 1075.5c2.3-12.9 16.4-14.7 21.5-5 7.5 14-4.4 20.9-10.1 27.1"/><path class="prefix__st0" d="M1046.3 1068.8c-9.1-9.5-25.9-3-25.2 8.1.1 2 .5 3.8 1 5.4M1046.3 1068.8c-3.5-12.6 9.8-23 18.7-16.5 7.2 5.3 8.6 11.9 7.3 18.2M1055.7 1131.8c.5 1.4 32.9 40.7 32.9 40.7l-3.4-63.9"/><path class="prefix__st0" d="M1039.3 1109.8c.4.8 9.5 12.9 8.1 19.8s8.7 8.9 7.9 1c-.9-7.9-7.8-17-1-15.9 6.8 1.1 5.9 2.2 10.6.9 6-1.6 3.5-14.3 9.3-10.4 5.8 3.8 13 4.7 13.7.7.7-4-2.3-8.2-2.3-8.2M352.1 1417.5c-5.4-.1-8.4 6.6-5 9.7 7.8 6.9 15.6-6.7 15.6-6.7"/><path class="prefix__st0" d="M352.1 1417.5c-4.7-2.6-3.8-9.6.7-10.2 10.2-1.5 9.9 13.3 9.9 13.3M270 1429.8c-2.2 3.5-5.4 6.4-9.3 8.4-11.7 6-26.1 1.3-32-10.5-4.9-9.7-2.6-21.2 5-28.2"/><path class="prefix__st0" d="M268.5 1409.3c1.9 8.5-7.6 18.3-12.1 20.6-7.1 3.6-15.8.8-19.4-6.3-3.6-7.1-.8-15.8 6.3-19.4 3.1-1.6 6.6-1.9 9.7-1.2M275.7 1377.2c11.7-6 24.4-1.6 30.3 10.1 6 11.7 1.3 26.1-10.5 32-4 2-7.9 2.9-11.7 2.7"/><path class="prefix__st0" d="M270.4 1392.8c1.3-2.2 7.1-6 9.6-7.3 7.1-3.6 14.5-.8 18.1 6.3s.2 14.9-6.3 19.4c-7.5 5.1-18.1 1-22.3-2M233.2 1398.7c-6-11.7-1.3-26.1 10.5-32 11.7-6 26.1-1.3 32 10.5"/><path class="prefix__st0" d="M252 1402.2c-4.3-.8-8.2-3.5-10.4-7.7-3.6-7.1-.8-15.8 6.3-19.4 7.1-3.6 24.6-2.7 22.5 17.7M283.9 1422l46.7 80.8c2.5 4.4 1.6 9.8-2 11.9-3.7 2.1-8.8.3-11.3-4.2l-46.7-80.8M322.9 1489.3l16.4-9.5c4-2.3 9.5-.4 12.2 4.2 2.7 4.7 1.6 10.4-2.4 12.7l-16.4 9.5M312.3 1471.1l16.4-9.5c4-2.3 9.5-.4 12.2 4.2 2.7 4.7 1.6 10.4-2.4 12.7l-16.4 9.5M376 1405.3l-45.8-16.2c-3-1.1-6.4.5-7.5 3.6l-9.2 26c-1.1 3 .5 6.4 3.6 7.5l45.8 16.2c3 1.1 6.4-.5 7.5-3.6l9.2-26c1.1-3.1-.5-6.4-3.6-7.5z"/><path class="prefix__st0" d="M327.8 1405.2c-2.1 1.2-2.8 3.9-1.6 6 1.2 2.1 3.9 2.8 6 1.6 2.1-1.2 2.8-3.9 1.6-6-1.2-2.1-3.9-2.8-6-1.6zM297.7 1395.6s-5.8 23.4 31.6 12.3M320.5 1399l-12.6-6.7M472.4 1254.4c-2-8.7-14.1-10.7-17.5-4-7.9 15.3 17.1 22.2 17.1 22.2"/><path class="prefix__st0" d="M472.4 1254.4c2.3-8.6 13.7-10.1 16.6-3.2 6.7 15.7-17.1 21.4-17.1 21.4M538.5 1213.3c-.9-1.1-1.6-2.4-2.1-3.7-8.7-25.1-54.1-23.2-50.6 17.4 3.5 41 75.6 43.7 88.9 5.3.9-2.6-4.5-4.4-11.5-6.6"/><path class="prefix__st0" d="M486.8 1212.6l-13.2 5.3 12.4 10.2M510.1 1207.9c-1.7-.1-3.2 2.9-3.3 6.5-.1 3.7 1.2 6.7 2.9 6.7 1.7.1 3.2-2.9 3.3-6.5.1-3.7-1.2-6.7-2.9-6.7zM529 1228.3s-6.7-19.2 32.7-17.4c0 0 1.2 7.2-5.3 10.3M561.6 1218.6c0 .9 4.9 8.9-8 11.2M560 1230s1.7 5.5-13.9 5.4M517 1259.2s1.3 6.8 7.4 8.2M527.5 1259.5s1.3 6.8 7.4 8.2M473.6 1217.9l-1.8 34.8M241.6 1852c-11.1-5.3-20.2-13.9-25.5-25.4-2.4-5.2-3.9-10.6-4.4-16.1M304.7 1747.2c11.7 5.2 21.3 14.1 26.8 26 8.8 19 3.1 43.2-10 60.1M216.5 1781.7c6.2-13.8 17.9-26 33.5-33.2 6.9-3.2 14-5.2 21.1-6M216.5 1781.7s-12.2-4-31.3 3.2c-2.3.9-3 3.7-1.4 5.6 5.1 5.7 12.1 15.7 27.8 20M271.1 1742.5s1.3-13.1 11.8-24.6c1.4-1.5 3.8-1.6 5.3-.1 4.7 4.5 13.9 15 16.4 29.5"/><path class="prefix__st0" d="M287.2 1732.2c-2.3-.2-4.1 5.4-4.4 8.5-.3 3 1.6 3 4 3.2s4.2.6 4.5-2.4c.3-3.1-1.7-9.1-4.1-9.3zM443.5 1761.9c-1.6 2.8-1 3.5.6 5.3s2.7 3.6 5.2 1.5 4.5-10 2.9-11.9c-1.6-1.8-7.5 3.1-8.7 5.1zM367.3 1745.9c0-2.3-2.6-9.6-5.1-8.7-2.4.9-4.9 8.9-3.8 11.9M209.8 1790.1c-3.5-.8-9.8-.2-10.3 2.1-.5 2.4 4.9 5.6 8.3 6.4 3.5.8 3.6-1.2 4.2-3.6.6-2.3 1.3-4.1-2.2-4.9zM258.7 1802.6c2.7 4.1 1.6 9.7-2.6 12.4-4.1 2.7-9.7 1.6-12.4-2.6M296.9 1777.5c2.7 4.1 1.6 9.7-2.6 12.4-4.1 2.7-9.7 1.6-12.4-2.6M375.9 1790.7c-.8 4.9-5.4 8.2-10.3 7.4-4.9-.8-8.2-5.4-7.4-10.3M417.1 1797.4c-.8 4.9-5.4 8.2-10.3 7.4-4.9-.8-8.2-5.4-7.4-10.3M294 1826.2c-.4.3-.7.5-1.1.7-10.9 7.1-22.9 8-27 1.8M305.3 1802.9c.6.9 1 1.9 1.2 3M277.9 1813l6.8.9 1.6-6.1M284.7 1813.9l6.5 10.3M376 1808.2l4.7 5 5.2-3.8M380.7 1813.2l-1.9 16M295.9 1813.9c3.9 6-.3 11.3-.3 11.3 11.3-5 14.6-14.6 9.2-19.5-5.5-4.9-12.9 2.1-8.9 8.2zM368.6 1843.1c3.9 6.2 12.6 4.5 12.6-2.7s6.4-9.3 6.4-9.3c-18.6-3.9-22.2 7-19 12zM245.1 1851.3s-15.5.5-25.4 20.2c-9.9 19.7-7.5 37.8-.2 42.1s39 6 61.2-18.7c0 0 10.2 4.8 21.8-5.3 6.3-5.4 6.3-11.9 5.3-16.4-.7-2.8-3.6-4.5-6.4-3.7-6 1.8-16.6 4.3-21.2 1.2-6.5-4.4-5.2-7.2-5.2-7.2s-7.5 2.4-5.7 11.6c0 0-22.5 1.4-35.8 6"/><path class="prefix__st0" d="M321 1833.2s15.5 2.2 21.7 12.9c6.7 11.6 8.6 19.6 11.4 36.7 2.6 15.5-4 27-16.3 30.6-6.4 1.9-27.7-4.3-37.5-10.5-6-3.8-14 1-20.3-5.8M331.4 1879.9c-3.7-1.7-15-4.3-22.1 0M347.1 1909.1c4.6 11.2 5 18.2 3.9 30.3-1.2 12.8-6.3 24.3-14.3 33.7M224.5 1974.2c-12-12.9-18.6-29.9-16.9-47.8.7-7.9 2.9-15.2 6.4-21.9M289.9 1997.5c-2.2.3-4.4.4-6.7.5M224.5 1974.2s20.8 75.9 79 86.4c0 0 16.4.5 11.4-9-5-9.6-32.1-22.1-31.8-53M303.9 2040c22.1-25.9 32.8-66.9 32.8-66.9"/><path class="prefix__st0" d="M268.7 2044.4c-1.8 2.2-3.3 4.2-4 6.1-3.7 9.3 8.4 9.5 8.4 9.5 4.6-.9 8.9-2.5 13-4.8M289.9 1997.5c.1 7.7-1.2 14.2-3.3 19.9M211.7 1954.1s-68.2 13.7-53.5 69.3c14.8 55.6 79.4 44.5 79.8 28.4.4-16.2-26.8-9.8-40.1-19.8-12.9-9.7-40.8-39.3 21.1-64.5M473.9 1947.9s49.1 31.7 27.6 84-76.5 48.2-74.2 32.2c2.3-16 18.9-10.7 31.6-18.3 12.3-7.4 53.8-46.9 7.7-82.3M278 1899.2l2.9 21.5 10.6-18.3M275 1845.2s-14.7 9.6-1.1 12c0 0 7.5 14 17.6 1.6 0 0 6.8 18.8 15.3 2 0 0 5.1 5.7 7.6-.7 2.4-6.5-.9-11.8-6.9-13.6 0 0 .5-5.4-2.6-8.2s-8.6.7-8.6.7-3.6-5.8-11.7-3.4-11.4 5.1-9.5 8.6M380.9 1845.4c2-.4 4.6-.3 7.6 1.2 7.7 3.9 10.5 7.1 7.9 10.2M396.4 1857.8s12.9 12.1-1.1 12c0 0-10.1 12.4-17.9-1.6 0 0-10.3 17.3-15.6-.8 0 0-6.2 4.7-7.4-2.1s3.1-11.5 9.3-12.1c0 0 .5-5.4 4.1-7.6.4-.3.9-.4 1.3-.5M454.6 1785.2c1.9 6.4 2.7 13.3 2 20.3-1.2 13.6-7.5 25.6-16.9 34.7M335.5 1783.9c7.7-26.1 34.6-44 64.8-41.2 13.9 1.3 26.4 6.7 36.1 14.9M355.6 1837.2c-9.7-6-18.6-17.6-21.4-30.9"/><path class="prefix__st0" d="M348.2 1761.8s-2.2-17.5 10.7-36c1-1.4 2.9-1.5 4-.2 3.5 4 10.1 12.5 11.6 19.8M436.3 1757.6s17.1-18.1 26-14.7c9.5 3.6-7.7 42.4-7.7 42.4M405.6 1818.5c-1.3 8.5-12.4 13.8-24.9 12s-20.2-10.1-19-18.5M440.3 1839.6s14.5 1.2 21.9 16.8c4.6 9.7 8.4 44.5-3.4 58-11.9 13.5-62-.5-62-.5s-32.5 5.6-34.3-18.8c-1.6-22.2 9.8-4.7 19.7-5 9.9-.3 16.7-6.1 17.6-8.4.9-2.3 8.3 6.2 5.4 11.4 0 0 11-6 28.4-7.2M394.9 1885.9l3.7-16.4"/><path class="prefix__st0" d="M379.1 1913.4l6.3 15.2 3.2-14.1M360.4 1868.2l6.6 15.9M352.6 1836.9s-9.6 2.8-10.9 7.6M464.8 1901.8c6.8 10.8 10.2 23.4 9 36.5-2.1 23.3-18.1 42.4-40.1 51.2"/><path class="prefix__st0" d="M390.2 1961.6s-27.3 11.7-23 45.1c4 31.2 6.7 28.3.3 34.8-4.3 4.4-15.3 7.3-11.7 17.4s19.4.2 30.3-10.2c14.4-13.9-3.2-36.4 55.8-63.1M344.8 1961s-8.8 43.6 25.8 75.2"/><path class="prefix__st0" d="M388.6 2048.7s12.5 6.7 22.5 4-16.6-24.4-14.1-30.3M428.2 1873.5l-2.4 12.9"/><path d="M812.8 2062.5h-15.1c-1.1 0-2 .9-2 2s.9 2 2 2h15.1c-.3-.6-.4-1.3-.4-2s.1-1.3.4-2zM836.2 2062.5h-14.5c.3.6.4 1.3.4 2s-.2 1.4-.4 2h14.5c1.1 0 2-.9 2-2s-.9-2-2-2zM817 2044.2c-1.1 0-2 .9-2 2v14c.7-.4 1.5-.6 2.3-.6.6 0 1.2.1 1.7.3v-13.7c0-1.1-.9-2-2-2zM815 2068.9v15.9c0 1.1.9 2 2 2s2-.9 2-2v-15.6c-.5.2-1.1.3-1.7.3-.9 0-1.6-.3-2.3-.6zM544.7 2041.3h-15.1c-1.1 0-2 .9-2 2s.9 2 2 2h15.1c-.3-.6-.4-1.3-.4-2-.1-.7.1-1.4.4-2zM568.1 2041.2h-14.5c.3.6.4 1.3.4 2s-.2 1.4-.4 2h14.5c1.1 0 2-.9 2-2s-.9-2-2-2zM548.8 2022.9c-1.1 0-2 .9-2 2v14c.7-.4 1.5-.6 2.3-.6.6 0 1.2.1 1.7.3v-13.7c0-1.1-.9-2-2-2zM546.8 2047.6v15.9c0 1.1.9 2 2 2s2-.9 2-2v-15.6c-.5.2-1.1.3-1.7.3-.8 0-1.6-.2-2.3-.6zM997.3 2063.6h-15.1c-1.1 0-2 .9-2 2s.9 2 2 2h15.1c-.3-.6-.4-1.3-.4-2s.2-1.4.4-2zM1020.8 2063.6h-14.5c.3.6.4 1.3.4 2s-.2 1.4-.4 2h14.5c1.1 0 2-.9 2-2 0-1.2-.9-2-2-2zM1001.5 2045.3c-1.1 0-2 .9-2 2v14c.7-.4 1.5-.6 2.3-.6.6 0 1.2.1 1.7.3v-13.7c0-1.1-.9-2-2-2zM999.5 2069.9v15.9c0 1.1.9 2 2 2s2-.9 2-2v-15.6c-.5.2-1.1.3-1.7.3-.8 0-1.6-.2-2.3-.6zM162.9 1846.9h-15.1c-1.1 0-2 .9-2 2s.9 2 2 2h15.1c-.3-.6-.4-1.3-.4-2-.1-.8.1-1.4.4-2zM186.3 1846.8h-14.5c.3.6.4 1.3.4 2s-.2 1.4-.4 2h14.5c1.1 0 2-.9 2-2s-.9-2-2-2zM167 1828.5c-1.1 0-2 .9-2 2v14c.7-.4 1.5-.6 2.3-.6.6 0 1.2.1 1.7.3v-13.7c0-1.1-.9-2-2-2zM165 1853.2v15.9c0 1.1.9 2 2 2s2-.9 2-2v-15.6c-.5.2-1.1.3-1.7.3-.8 0-1.6-.3-2.3-.6zM368.2 1664.9h-15.1c-1.1 0-2 .9-2 2s.9 2 2 2h15.1c-.3-.6-.4-1.3-.4-2s.1-1.4.4-2zM391.7 1664.9s-.1 0 0 0h-14.5c.3.6.4 1.3.4 2s-.2 1.4-.4 2h14.5c1.1 0 2-.9 2-2-.1-1.1-.9-2-2-2zM372.4 1646.6c-1.1 0-2 .9-2 2v14c.7-.4 1.5-.6 2.3-.6.6 0 1.2.1 1.7.3v-13.7c0-1.1-.9-2-2-2zM370.4 1671.2v15.9c0 1.1.9 2 2 2s2-.9 2-2v-15.6c-.5.2-1.1.3-1.7.3-.8 0-1.6-.2-2.3-.6zM604.9 1176.2h-15.1c-1.1 0-2 .9-2 2s.9 2 2 2h15.1c-.3-.6-.4-1.3-.4-2 0-.8.1-1.4.4-2zM628.3 1176.1h-14.5c.3.6.4 1.3.4 2s-.2 1.4-.4 2h14.5c1.1 0 2-.9 2-2s-.9-2-2-2zM609.1 1157.8c-1.1 0-2 .9-2 2v14c.7-.4 1.5-.6 2.3-.6.6 0 1.2.1 1.7.3v-13.7c0-1.1-.9-2-2-2zM607.1 1182.5v15.9c0 1.1.9 2 2 2s2-.9 2-2v-15.6c-.5.2-1.1.3-1.7.3-.9 0-1.6-.3-2.3-.6zM564.5 896.5h-15.1c-1.1 0-2 .9-2 2s.9 2 2 2h15.1c-.3-.6-.4-1.3-.4-2s.1-1.4.4-2zM587.9 896.5h-14.5c.3.6.4 1.3.4 2s-.2 1.4-.4 2h14.5c1.1 0 2-.9 2-2s-.9-2-2-2zM568.7 878.2c-1.1 0-2 .9-2 2v14c.7-.4 1.5-.6 2.3-.6.6 0 1.2.1 1.7.3v-13.7c0-1.1-.9-2-2-2zM566.7 902.8v15.9c0 1.1.9 2 2 2s2-.9 2-2v-15.6c-.5.2-1.1.3-1.7.3-.9 0-1.7-.2-2.3-.6zM1060.1 359.4H1045c-1.1 0-2 .9-2 2s.9 2 2 2h15.1c-.3-.6-.4-1.3-.4-2-.1-.7.1-1.4.4-2zM1083.5 359.3H1069c.3.6.4 1.3.4 2s-.2 1.4-.4 2h14.5c1.1 0 2-.9 2-2s-.9-2-2-2zM1064.2 341.1c-1.1 0-2 .9-2 2v14c.7-.4 1.5-.6 2.3-.6.6 0 1.2.1 1.7.3v-13.7c0-1.1-.9-2-2-2zM1062.2 365.7v15.9c0 1.1.9 2 2 2s2-.9 2-2V366c-.5.2-1.1.3-1.7.3-.8 0-1.6-.2-2.3-.6zM854.9 854.2h-15.1c-1.1 0-2 .9-2 2s.9 2 2 2h15.1c-.3-.6-.4-1.3-.4-2s.1-1.4.4-2zM878.3 854.1h-14.5c.3.6.4 1.3.4 2s-.2 1.4-.4 2h14.5c1.1 0 2-.9 2-2s-.9-2-2-2zM859.1 835.8c-1.1 0-2 .9-2 2v14c.7-.4 1.5-.6 2.3-.6.6 0 1.2.1 1.7.3v-13.7c0-1.1-.9-2-2-2zM857.1 860.5v15.9c0 1.1.9 2 2 2s2-.9 2-2v-15.6c-.5.2-1.1.3-1.7.3-.9 0-1.6-.2-2.3-.6zM798.5 459.6h-15.1c-1.1 0-2 .9-2 2s.9 2 2 2h15.1c-.3-.6-.4-1.3-.4-2s.1-1.4.4-2zM822 459.6h-14.5c.3.6.4 1.3.4 2s-.2 1.4-.4 2H822c1.1 0 2-.9 2-2s-.9-2-2-2zM802.7 441.3c-1.1 0-2 .9-2 2v14c.7-.4 1.5-.6 2.3-.6.6 0 1.2.1 1.7.3v-13.7c0-1.1-.9-2-2-2zM800.7 465.9v15.9c0 1.1.9 2 2 2s2-.9 2-2v-15.6c-.5.2-1.1.3-1.7.3-.8 0-1.6-.2-2.3-.6zM756.2 212.2h-15.1c-1.1 0-2 .9-2 2s.9 2 2 2h15.1c-.3-.6-.4-1.3-.4-2s.1-1.4.4-2zM779.6 212.2h-14.5c.3.6.4 1.3.4 2s-.2 1.4-.4 2h14.5c1.1 0 2-.9 2-2 0-1.2-.9-2-2-2zM760.4 193.9c-1.1 0-2 .9-2 2v14c.7-.4 1.5-.6 2.3-.6.6 0 1.2.1 1.7.3v-13.7c0-1.1-.9-2-2-2zM758.4 218.5v15.9c0 1.1.9 2 2 2s2-.9 2-2v-15.6c-.5.2-1.1.3-1.7.3-.9 0-1.6-.2-2.3-.6zM355.6 149.7h-15.1c-1.1 0-2 .9-2 2s.9 2 2 2h15.1c-.3-.6-.4-1.3-.4-2 0-.8.2-1.4.4-2zM379.1 149.6h-14.5c.3.6.4 1.3.4 2s-.2 1.4-.4 2h14.5c1.1 0 2-.9 2-2s-.9-2-2-2zM359.8 131.3c-1.1 0-2 .9-2 2v14c.7-.4 1.5-.6 2.3-.6.6 0 1.2.1 1.7.3v-13.7c0-1.1-.9-2-2-2zM357.8 156v15.9c0 1.1.9 2 2 2s2-.9 2-2v-15.6c-.5.2-1.1.3-1.7.3-.8 0-1.6-.3-2.3-.6zM206.8 707.6h-15.1c-1.1 0-2 .9-2 2s.9 2 2 2h15.1c-.3-.6-.4-1.3-.4-2s.1-1.4.4-2zM230.2 707.5h-14.5c.3.6.4 1.3.4 2s-.2 1.4-.4 2h14.5c1.1 0 2-.9 2-2s-.9-2-2-2zM211 689.2c-1.1 0-2 .9-2 2v14c.7-.4 1.5-.6 2.3-.6.6 0 1.2.1 1.7.3v-13.7c0-1.1-.9-2-2-2zM209 713.9v15.9c0 1.1.9 2 2 2s2-.9 2-2v-15.6c-.5.2-1.1.3-1.7.3-.9 0-1.6-.3-2.3-.6zM958.1 1304H943c-1.1 0-2 .9-2 2s.9 2 2 2h15.1c-.3-.6-.4-1.3-.4-2 0-.8.1-1.4.4-2zM981.5 1303.9H967c.3.6.4 1.3.4 2s-.2 1.4-.4 2h14.5c1.1 0 2-.9 2-2s-.9-2-2-2zM962.3 1285.6c-1.1 0-2 .9-2 2v14c.7-.4 1.5-.6 2.3-.6.6 0 1.2.1 1.7.3v-13.7c0-1.1-.9-2-2-2zM960.3 1310.3v15.9c0 1.1.9 2 2 2s2-.9 2-2v-15.6c-.5.2-1.1.3-1.7.3-.9 0-1.6-.3-2.3-.6zM175.6 2419.3h-15.1c-1.1 0-2 .9-2 2s.9 2 2 2h15.1c-.3-.6-.4-1.3-.4-2-.1-.7.1-1.4.4-2zM199 2419.3h-14.5c.3.6.4 1.3.4 2s-.2 1.4-.4 2H199c1.1 0 2-.9 2-2s-.9-2-2-2zM179.7 2401c-1.1 0-2 .9-2 2v14c.7-.4 1.5-.6 2.3-.6.6 0 1.2.1 1.7.3V2403c0-1.1-.8-2-2-2zM180.1 2426.2c-.8 0-1.6-.2-2.3-.6v10.4h4v-10.1c-.6.2-1.1.3-1.7.3zM777.2 2153.2h-11.3c-.8 0-1.5.7-1.5 1.5s.7 1.5 1.5 1.5h11.3c-.2-.5-.3-1-.3-1.5-.1-.6 0-1.1.3-1.5zM794.8 2153.1h-10.9c.2.5.3 1 .3 1.5s-.1 1-.3 1.5h10.9c.8 0 1.5-.7 1.5-1.5s-.7-1.5-1.5-1.5zM780.3 2139.4c-.8 0-1.5.7-1.5 1.5v10.5c.5-.3 1.1-.5 1.7-.5.4 0 .9.1 1.3.2v-10.3c0-.7-.7-1.4-1.5-1.4zM778.8 2157.9v11.9c0 .8.7 1.5 1.5 1.5s1.5-.7 1.5-1.5v-11.7c-.4.1-.8.2-1.3.2-.6.1-1.2-.1-1.7-.4zM116.8 2051.2h-11.3c-.8 0-1.5.7-1.5 1.5s.7 1.5 1.5 1.5h11.3c-.2-.5-.3-1-.3-1.5 0-.6.1-1.1.3-1.5zM134.5 2051.1h-10.9c.2.5.3 1 .3 1.5s-.1 1-.3 1.5h10.9c.8 0 1.5-.7 1.5-1.5s-.7-1.5-1.5-1.5zM120 2037.4c-.8 0-1.5.7-1.5 1.5v10.5c.5-.3 1.1-.5 1.7-.5.4 0 .9.1 1.3.2v-10.3c0-.7-.7-1.4-1.5-1.4zM118.5 2055.9v11.9c0 .8.7 1.5 1.5 1.5s1.5-.7 1.5-1.5v-11.7c-.4.1-.8.2-1.3.2-.6.1-1.2-.1-1.7-.4zM43.3 1779.5H32c-.8 0-1.5.7-1.5 1.5s.7 1.5 1.5 1.5h11.3c-.2-.5-.3-1-.3-1.5 0-.6.1-1.1.3-1.5zM60.9 1779.4H50c.2.5.3 1 .3 1.5s-.1 1-.3 1.5h10.9c.8 0 1.5-.7 1.5-1.5s-.6-1.5-1.5-1.5zM46.5 1765.7c-.8 0-1.5.7-1.5 1.5v10.5c.5-.3 1.1-.5 1.7-.5.4 0 .9.1 1.3.2v-10.3c0-.7-.7-1.4-1.5-1.4zM45 1784.2v11.9c0 .8.7 1.5 1.5 1.5s1.5-.7 1.5-1.5v-11.7c-.4.1-.8.2-1.3.2-.6.1-1.2-.1-1.7-.4zM351 1562.1h-11.3c-.8 0-1.5.7-1.5 1.5s.7 1.5 1.5 1.5H351c-.2-.5-.3-1-.3-1.5-.1-.6.1-1.1.3-1.5zM368.6 1562h-10.9c.2.5.3 1 .3 1.5s-.1 1-.3 1.5h10.9c.8 0 1.5-.7 1.5-1.5s-.7-1.5-1.5-1.5zM354.1 1548.3c-.8 0-1.5.7-1.5 1.5v10.5c.5-.3 1.1-.5 1.7-.5.4 0 .9.1 1.3.2v-10.3c0-.7-.7-1.4-1.5-1.4zM352.6 1566.8v11.9c0 .8.7 1.5 1.5 1.5s1.5-.7 1.5-1.5V1567c-.4.1-.8.2-1.3.2-.6 0-1.2-.1-1.7-.4zM738.3 1753.6H727c-.8 0-1.5.7-1.5 1.5s.7 1.5 1.5 1.5h11.3c-.2-.5-.3-1-.3-1.5s.1-1 .3-1.5zM755.9 1753.6H745c.2.5.3 1 .3 1.5s-.1 1-.3 1.5h10.9c.8 0 1.5-.7 1.5-1.5s-.7-1.5-1.5-1.5zM741.4 1739.9c-.8 0-1.5.7-1.5 1.5v10.5c.5-.3 1.1-.5 1.7-.5.4 0 .9.1 1.3.2v-10.3c0-.8-.6-1.4-1.5-1.4zM739.9 1758.4v11.9c0 .8.7 1.5 1.5 1.5s1.5-.7 1.5-1.5v-11.7c-.4.1-.8.2-1.3.2-.6 0-1.2-.1-1.7-.4zM889.9 1419.9h-11.3c-.8 0-1.5.7-1.5 1.5s.7 1.5 1.5 1.5h11.3c-.2-.5-.3-1-.3-1.5 0-.6.1-1.1.3-1.5zM907.5 1419.8h-10.9c.2.5.3 1 .3 1.5s-.1 1-.3 1.5h10.9c.8 0 1.5-.7 1.5-1.5s-.7-1.5-1.5-1.5zM893 1406.1c-.8 0-1.5.7-1.5 1.5v10.5c.5-.3 1.1-.5 1.7-.5.4 0 .9.1 1.3.2v-10.3c0-.8-.7-1.4-1.5-1.4zM891.5 1424.6v11.9c0 .8.7 1.5 1.5 1.5s1.5-.7 1.5-1.5v-11.7c-.4.1-.8.2-1.3.2-.6 0-1.2-.1-1.7-.4zM1124.1 1146.7h-11.3c-.8 0-1.5.7-1.5 1.5s.7 1.5 1.5 1.5h11.3c-.2-.5-.3-1-.3-1.5s.1-1 .3-1.5zM496.5 1321.1h-11.3c-.8 0-1.5.7-1.5 1.5s.7 1.5 1.5 1.5h11.3c-.2-.5-.3-1-.3-1.5 0-.6.1-1.1.3-1.5zM514.1 1321h-10.9c.2.5.3 1 .3 1.5s-.1 1-.3 1.5h10.9c.8 0 1.5-.7 1.5-1.5s-.7-1.5-1.5-1.5zM499.6 1307.3c-.8 0-1.5.7-1.5 1.5v10.5c.5-.3 1.1-.5 1.7-.5.4 0 .9.1 1.3.2v-10.3c0-.7-.7-1.4-1.5-1.4zM498.1 1325.8v11.9c0 .8.7 1.5 1.5 1.5s1.5-.7 1.5-1.5V1326c-.4.1-.8.2-1.3.2-.6.1-1.2-.1-1.7-.4zM386 992.4h-11.3c-.8 0-1.5.7-1.5 1.5s.7 1.5 1.5 1.5H386c-.2-.5-.3-1-.3-1.5s.1-1 .3-1.5zM403.6 992.4h-10.9c.2.5.3 1 .3 1.5s-.1 1-.3 1.5h10.9c.8 0 1.5-.7 1.5-1.5s-.7-1.5-1.5-1.5zM389.1 978.7c-.8 0-1.5.7-1.5 1.5v10.5c.5-.3 1.1-.5 1.7-.5.4 0 .9.1 1.3.2v-10.3c0-.8-.6-1.4-1.5-1.4zM387.6 997.2v11.9c0 .8.7 1.5 1.5 1.5s1.5-.7 1.5-1.5v-11.7c-.4.1-.8.2-1.3.2-.6 0-1.1-.2-1.7-.4zM1070.6 679.6h-11.3c-.8 0-1.5.7-1.5 1.5s.7 1.5 1.5 1.5h11.3c-.2-.5-.3-1-.3-1.5s.1-1 .3-1.5zM1088.3 679.6h-10.9c.2.5.3 1 .3 1.5s-.1 1-.3 1.5h10.9c.8 0 1.5-.7 1.5-1.5s-.7-1.5-1.5-1.5zM1073.8 665.9c-.8 0-1.5.7-1.5 1.5v10.5c.5-.3 1.1-.5 1.7-.5.4 0 .9.1 1.3.2v-10.3c0-.8-.7-1.4-1.5-1.4zM1072.3 684.4v11.9c0 .8.7 1.5 1.5 1.5s1.5-.7 1.5-1.5v-11.7c-.4.1-.8.2-1.3.2-.6 0-1.2-.1-1.7-.4zM710 722.6h-11.3c-.8 0-1.5.7-1.5 1.5s.7 1.5 1.5 1.5H710c-.2-.5-.3-1-.3-1.5 0-.6.1-1.1.3-1.5zM727.6 722.5h-10.9c.2.5.3 1 .3 1.5s-.1 1-.3 1.5h10.9c.8 0 1.5-.7 1.5-1.5s-.7-1.5-1.5-1.5zM713.1 708.8c-.8 0-1.5.7-1.5 1.5v10.5c.5-.3 1.1-.5 1.7-.5.4 0 .9.1 1.3.2v-10.3c0-.7-.6-1.4-1.5-1.4zM711.6 727.3v11.9c0 .8.7 1.5 1.5 1.5s1.5-.7 1.5-1.5v-11.7c-.4.1-.8.2-1.3.2-.6.1-1.1-.1-1.7-.4zM936.3 484.8H925c-.8 0-1.5.7-1.5 1.5s.7 1.5 1.5 1.5h11.3c-.2-.5-.3-1-.3-1.5s.1-1 .3-1.5zM953.9 484.8H943c.2.5.3 1 .3 1.5s-.1 1-.3 1.5h10.9c.8 0 1.5-.7 1.5-1.5s-.6-1.5-1.5-1.5zM939.5 471.1c-.8 0-1.5.7-1.5 1.5v10.5c.5-.3 1.1-.5 1.7-.5.4 0 .9.1 1.3.2v-10.3c0-.8-.7-1.4-1.5-1.4zM938 489.6v11.9c0 .8.7 1.5 1.5 1.5s1.5-.7 1.5-1.5v-11.7c-.4.1-.8.2-1.3.2-.6 0-1.2-.1-1.7-.4zM511.6 24.1h-11.3c-.8 0-1.5.7-1.5 1.5s.7 1.5 1.5 1.5h11.3c-.2-.5-.3-1-.3-1.5s.1-1 .3-1.5zM529.2 24.1h-10.9c.2.5.3 1 .3 1.5s-.1 1-.3 1.5h10.9c.8 0 1.5-.7 1.5-1.5s-.7-1.5-1.5-1.5zM514.7 10.4c-.8 0-1.5.7-1.5 1.5v10.5c.5-.3 1.1-.5 1.7-.5.4 0 .9.1 1.3.2V11.9c0-.9-.7-1.5-1.5-1.5zM513.2 28.9v11.9c0 .8.7 1.5 1.5 1.5s1.5-.7 1.5-1.5V29.1c-.4.1-.8.2-1.3.2-.6 0-1.2-.1-1.7-.4zM628.6 66.2h-11.3c-.8 0-1.5.7-1.5 1.5s.7 1.5 1.5 1.5h11.3c-.2-.5-.3-1-.3-1.5 0-.6.1-1.1.3-1.5zM646.2 66.1h-10.9c.2.5.3 1 .3 1.5s-.1 1-.3 1.5h10.9c.8 0 1.5-.7 1.5-1.5s-.6-1.5-1.5-1.5zM631.8 52.4c-.8 0-1.5.7-1.5 1.5v10.5c.5-.3 1.1-.5 1.7-.5.4 0 .9.1 1.3.2V53.9c0-.8-.7-1.5-1.5-1.5zM630.2 70.9v11.9c0 .8.7 1.5 1.5 1.5s1.5-.7 1.5-1.5V71.1c-.4.1-.8.2-1.3.2-.5.1-1.1-.1-1.7-.4zM950.4 116.1h-11.3c-.8 0-1.5.7-1.5 1.5s.7 1.5 1.5 1.5h11.3c-.2-.5-.3-1-.3-1.5 0-.6.1-1.1.3-1.5zM968.1 116h-10.9c.2.5.3 1 .3 1.5s-.1 1-.3 1.5h10.9c.8 0 1.5-.7 1.5-1.5s-.7-1.5-1.5-1.5zM953.6 102.3c-.8 0-1.5.7-1.5 1.5v10.5c.5-.3 1.1-.5 1.7-.5.4 0 .9.1 1.3.2v-10.3c0-.7-.7-1.4-1.5-1.4zM952.1 120.8v11.9c0 .8.7 1.5 1.5 1.5s1.5-.7 1.5-1.5V121c-.4.1-.8.2-1.3.2-.6.1-1.2-.1-1.7-.4zM498.3 422.9H487c-.8 0-1.5.7-1.5 1.5s.7 1.5 1.5 1.5h11.3c-.2-.5-.3-1-.3-1.5s.1-1 .3-1.5zM515.9 422.9H505c.2.5.3 1 .3 1.5s-.1 1-.3 1.5h10.9c.8 0 1.5-.7 1.5-1.5s-.6-1.5-1.5-1.5zM501.5 409.2c-.8 0-1.5.7-1.5 1.5v10.5c.5-.3 1.1-.5 1.7-.5.4 0 .9.1 1.3.2v-10.3c0-.8-.7-1.4-1.5-1.4zM500 427.7v11.9c0 .8.7 1.5 1.5 1.5s1.5-.7 1.5-1.5v-11.7c-.4.1-.8.2-1.3.2-.6 0-1.2-.2-1.7-.4zM198 346.7h-11.3c-.8 0-1.5.7-1.5 1.5s.7 1.5 1.5 1.5H198c-.2-.5-.3-1-.3-1.5-.1-.5.1-1 .3-1.5zM215.6 346.7h-10.9c.2.5.3 1 .3 1.5s-.1 1-.3 1.5h10.9c.8 0 1.5-.7 1.5-1.5 0-.9-.7-1.5-1.5-1.5zM201.1 332.9c-.8 0-1.5.7-1.5 1.5V345c.5-.3 1.1-.5 1.7-.5.4 0 .9.1 1.3.2v-10.3c0-.8-.7-1.5-1.5-1.5zM199.6 351.4v11.9c0 .8.7 1.5 1.5 1.5s1.5-.7 1.5-1.5v-11.7c-.4.1-.8.2-1.3.2-.6.1-1.2-.1-1.7-.4zM78 576.9H66.7c-.8 0-1.5.7-1.5 1.5s.7 1.5 1.5 1.5H78c-.2-.5-.3-1-.3-1.5s.1-1 .3-1.5zM95.7 576.9H84.8c.2.5.3 1 .3 1.5s-.1 1-.3 1.5h10.9c.8 0 1.5-.7 1.5-1.5 0-.9-.7-1.5-1.5-1.5zM81.2 563.1c-.8 0-1.5.7-1.5 1.5v10.5c.5-.3 1.1-.5 1.7-.5.4 0 .9.1 1.3.2v-10.3c0-.7-.7-1.4-1.5-1.4zM79.7 581.7v11.9c0 .8.7 1.5 1.5 1.5s1.5-.7 1.5-1.5v-11.7c-.4.1-.8.2-1.3.2-.6 0-1.2-.2-1.7-.4zM85.3 290.6H74c-.8 0-1.5.7-1.5 1.5s.7 1.5 1.5 1.5h11.3c-.2-.5-.3-1-.3-1.5s.1-1 .3-1.5zM103 290.6H92.1c.2.5.3 1 .3 1.5s-.1 1-.3 1.5H103c.8 0 1.5-.7 1.5-1.5 0-.9-.7-1.5-1.5-1.5zM88.5 276.8c-.8 0-1.5.7-1.5 1.5v10.5c.5-.3 1.1-.5 1.7-.5.4 0 .9.1 1.3.2v-10.3c0-.7-.7-1.4-1.5-1.4zM87 295.3v11.9c0 .8.7 1.5 1.5 1.5s1.5-.7 1.5-1.5v-11.7c-.4.1-.8.2-1.3.2-.6.1-1.2-.1-1.7-.4zM445.3 743.1H434c-.8 0-1.5.7-1.5 1.5s.7 1.5 1.5 1.5h11.3c-.2-.5-.3-1-.3-1.5 0-.6.1-1.1.3-1.5zM463 743h-10.9c.2.5.3 1 .3 1.5s-.1 1-.3 1.5H463c.8 0 1.5-.7 1.5-1.5s-.7-1.5-1.5-1.5zM448.5 729.3c-.8 0-1.5.7-1.5 1.5v10.5c.5-.3 1.1-.5 1.7-.5.4 0 .9.1 1.3.2v-10.3c0-.7-.7-1.4-1.5-1.4zM447 747.8v11.9c0 .8.7 1.5 1.5 1.5s1.5-.7 1.5-1.5V748c-.4.1-.8.2-1.3.2-.6.1-1.2-.1-1.7-.4zM133.9 866.7h-11.3c-.8 0-1.5.7-1.5 1.5s.7 1.5 1.5 1.5h11.3c-.2-.5-.3-1-.3-1.5 0-.6.1-1.1.3-1.5zM151.5 866.6h-10.9c.2.5.3 1 .3 1.5s-.1 1-.3 1.5h10.9c.8 0 1.5-.7 1.5-1.5s-.6-1.5-1.5-1.5zM137.1 852.9c-.8 0-1.5.7-1.5 1.5v10.5c.5-.3 1.1-.5 1.7-.5.4 0 .9.1 1.3.2v-10.3c0-.7-.7-1.4-1.5-1.4zM135.6 871.4v11.9c0 .8.7 1.5 1.5 1.5s1.5-.7 1.5-1.5v-11.7c-.4.1-.8.2-1.3.2-.6.1-1.2-.1-1.7-.4zM1100.8 1524.8h-11.3c-.8 0-1.5.7-1.5 1.5s.7 1.5 1.5 1.5h11.3c-.2-.5-.3-1-.3-1.5s.1-1 .3-1.5zM1118.4 1524.8h-10.9c.2.5.3 1 .3 1.5s-.1 1-.3 1.5h10.9c.8 0 1.5-.7 1.5-1.5s-.7-1.5-1.5-1.5zM1103.9 1511.1c-.8 0-1.5.7-1.5 1.5v10.5c.5-.3 1.1-.5 1.7-.5.4 0 .9.1 1.3.2v-10.3c0-.8-.6-1.4-1.5-1.4zM1102.4 1529.6v11.9c0 .8.7 1.5 1.5 1.5s1.5-.7 1.5-1.5v-11.7c-.4.1-.8.2-1.3.2-.6 0-1.2-.1-1.7-.4zM72.4 1680.3H61.1c-.8 0-1.5.7-1.5 1.5s.7 1.5 1.5 1.5h11.3c-.2-.5-.3-1-.3-1.5s.1-1.1.3-1.5zM90.1 1680.2s-.1 0 0 0H79.2c.2.5.3 1 .3 1.5s-.1 1-.3 1.5h10.9c.8 0 1.5-.7 1.5-1.5s-.7-1.5-1.5-1.5zM75.6 1666.5c-.8 0-1.5.7-1.5 1.5v10.5c.5-.3 1.1-.5 1.7-.5.4 0 .9.1 1.3.2V1668c0-.8-.7-1.5-1.5-1.5zM74.1 1685v11.9c0 .8.7 1.5 1.5 1.5s1.5-.7 1.5-1.5v-11.7c-.4.1-.8.2-1.3.2-.6.1-1.2-.1-1.7-.4zM234.8 1501.2h-11.3c-.8 0-1.5.7-1.5 1.5s.7 1.5 1.5 1.5h11.3c-.2-.5-.3-1-.3-1.5s.1-1 .3-1.5zM252.5 1501.2h-10.9c.2.5.3 1 .3 1.5s-.1 1-.3 1.5h10.9c.8 0 1.5-.7 1.5-1.5s-.7-1.5-1.5-1.5zM238 1487.5c-.8 0-1.5.7-1.5 1.5v10.5c.5-.3 1.1-.5 1.7-.5.4 0 .9.1 1.3.2V1489c0-.9-.7-1.5-1.5-1.5zM236.5 1506v11.9c0 .8.7 1.5 1.5 1.5s1.5-.7 1.5-1.5v-11.7c-.4.1-.8.2-1.3.2-.6 0-1.2-.1-1.7-.4zM352.7 2104.4h-11.3c-.8 0-1.5.7-1.5 1.5s.7 1.5 1.5 1.5h11.3c-.2-.5-.3-1-.3-1.5 0-.6.1-1.1.3-1.5zM370.3 2104.3h-10.9c.2.5.3 1 .3 1.5s-.1 1-.3 1.5h10.9c.8 0 1.5-.7 1.5-1.5s-.6-1.5-1.5-1.5zM355.9 2090.6c-.8 0-1.5.7-1.5 1.5v10.5c.5-.3 1.1-.5 1.7-.5.4 0 .9.1 1.3.2V2092c0-.7-.7-1.4-1.5-1.4zM354.4 2109.1v11.9c0 .8.7 1.5 1.5 1.5s1.5-.7 1.5-1.5v-11.7c-.4.1-.8.2-1.3.2-.6.1-1.2-.1-1.7-.4zM953.9 1899.6h-11.3c-.8 0-1.5.7-1.5 1.5s.7 1.5 1.5 1.5h11.3c-.2-.5-.3-1-.3-1.5s.1-1 .3-1.5zM971.5 1899.6h-10.9c.2.5.3 1 .3 1.5s-.1 1-.3 1.5h10.9c.8 0 1.5-.7 1.5-1.5 0-.9-.6-1.5-1.5-1.5zM957.1 1885.8c-.8 0-1.5.7-1.5 1.5v10.5c.5-.3 1.1-.5 1.7-.5.4 0 .9.1 1.3.2v-10.3c0-.7-.7-1.4-1.5-1.4zM955.6 1904.3v11.9c0 .8.7 1.5 1.5 1.5s1.5-.7 1.5-1.5v-11.7c-.4.1-.8.2-1.3.2-.6.1-1.2-.1-1.7-.4zM880.9 2402.3h-11.3c-.8 0-1.5.7-1.5 1.5s.7 1.5 1.5 1.5h11.3c-.2-.5-.3-1-.3-1.5s.1-1 .3-1.5zM898.5 2402.3h-10.9c.2.5.3 1 .3 1.5s-.1 1-.3 1.5h10.9c.8 0 1.5-.7 1.5-1.5 0-.9-.7-1.5-1.5-1.5zM884 2388.5c-.8 0-1.5.7-1.5 1.5v10.5c.5-.3 1.1-.5 1.7-.5.4 0 .9.1 1.3.2V2390c0-.8-.6-1.5-1.5-1.5zM882.5 2407v11.9c0 .8.7 1.5 1.5 1.5s1.5-.7 1.5-1.5v-11.7c-.4.1-.8.2-1.3.2-.6.1-1.2-.1-1.7-.4zM262.8 2349.6h-11.3c-.8 0-1.5.7-1.5 1.5s.7 1.5 1.5 1.5h11.3c-.2-.5-.3-1-.3-1.5 0-.6.1-1.1.3-1.5zM280.4 2349.5h-10.9c.2.5.3 1 .3 1.5s-.1 1-.3 1.5h10.9c.8 0 1.5-.7 1.5-1.5s-.6-1.5-1.5-1.5zM265.9 2335.8c-.8 0-1.5.7-1.5 1.5v10.5c.5-.3 1.1-.5 1.7-.5.4 0 .9.1 1.3.2v-10.3c.1-.7-.6-1.4-1.5-1.4zM264.4 2354.3v11.9c0 .8.7 1.5 1.5 1.5s1.5-.7 1.5-1.5v-11.7c-.4.1-.8.2-1.3.2-.6.1-1.1-.1-1.7-.4z"/><circle class="prefix__st0" cx="190.8" cy="1365" r="11"/><circle transform="rotate(-67.5 175.275 1424.472)" class="prefix__st0" cx="175.3" cy="1424.5" r="4.9"/><path class="prefix__st0" d="M321.5 1337.6c-4 0-7.3 3.3-7.3 7.3s3.3 7.3 7.3 7.3 7.3-3.3 7.3-7.3c0-4.1-3.2-7.3-7.3-7.3z"/><circle transform="rotate(-9.213 475.804 1691.092)" class="prefix__st0" cx="475.7" cy="1691.3" r="8.8"/><circle class="prefix__st0" cx="628.7" cy="2140.3" r="8.4"/><circle transform="rotate(-67.5 560.424 2207.382)" class="prefix__st0" cx="560.4" cy="2207.4" r="5"/><path class="prefix__st0" d="M756.5 2332.3c-5.4 0-9.7 4.4-9.7 9.7 0 5.4 4.4 9.7 9.7 9.7s9.7-4.4 9.7-9.7c0-5.3-4.3-9.7-9.7-9.7z"/><circle transform="rotate(-67.5 980.876 2272.742)" class="prefix__st0" cx="980.9" cy="2272.8" r="6.2"/><circle transform="rotate(-9.213 932.173 2024.017)" class="prefix__st0" cx="932.1" cy="2024.3" r="8.2"/><path class="prefix__st0" d="M1092.1 2056.5a6.7 6.7 0 100 13.4 6.7 6.7 0 000-13.4z"/><path d="M1121.2 1882.8c-3 0-5.5-2.5-5.5-5.5s2.5-5.5 5.5-5.5c1.5 0 2.8.6 3.8 1.6v-4.8c-1.2-.5-2.5-.8-3.8-.8-5.2 0-9.5 4.3-9.5 9.5s4.3 9.5 9.5 9.5c1.4 0 2.7-.3 3.8-.8v-4.8c-1 1-2.3 1.6-3.8 1.6z"/><circle class="prefix__st0" cx="1094.3" cy="1820" r="5.2"/><path class="prefix__st0" d="M917.3 1632.6c-4.6 0-8.3 3.7-8.3 8.3 0 4.6 3.7 8.3 8.3 8.3s8.3-3.7 8.3-8.3c.1-4.6-3.7-8.3-8.3-8.3zM802.9 1678a6.7 6.7 0 100 13.4 6.7 6.7 0 000-13.4zM638 1737.6c-2.3 0-4.1 1.8-4.1 4.1s1.8 4.1 4.1 4.1 4.1-1.8 4.1-4.1-1.9-4.1-4.1-4.1z"/><circle class="prefix__st0" cx="511.7" cy="1810.8" r="6.8"/><path class="prefix__st0" d="M654.7 1508c-3.9 0-7.1 3.2-7.1 7.1 0 3.9 3.2 7.1 7.1 7.1 3.9 0 7.1-3.2 7.1-7.1 0-4-3.2-7.1-7.1-7.1zM1052.8 1195.9c-3.6 0-6.4 2.9-6.4 6.4s2.9 6.4 6.4 6.4c3.6 0 6.4-2.9 6.4-6.4s-2.9-6.4-6.4-6.4z"/><circle class="prefix__st0" cx="971.9" cy="1058.9" r="11.6"/><circle transform="rotate(-45.001 820.804 994.052)" class="prefix__st0" cx="820.8" cy="994" r="9.9"/><circle transform="rotate(-67.5 645.437 1009.527)" class="prefix__st0" cx="645.4" cy="1009.5" r="5.7"/><circle transform="rotate(-9.213 470.263 1047.396)" class="prefix__st0" cx="470.2" cy="1047.5" r="6"/><circle class="prefix__st0" cx="331.6" cy="1132.4" r="6"/><circle class="prefix__st0" cx="539.8" cy="1156.9" r="6.3"/><circle transform="rotate(-67.5 644.273 1236.068)" class="prefix__st0" cx="644.3" cy="1236.1" r="4.5"/><circle transform="rotate(-67.5 93.32 1230.712)" class="prefix__st0" cx="93.3" cy="1230.7" r="9.9"/><circle class="prefix__st0" cx="19.7" cy="1228.3" r="4.5"/><path class="prefix__st0" d="M71.6 1102.8c-4.1 0-7.4 3.3-7.4 7.4s3.3 7.4 7.4 7.4 7.4-3.3 7.4-7.4-3.4-7.4-7.4-7.4z"/><circle class="prefix__st0" cx="145.8" cy="1014.2" r="7.2"/><circle class="prefix__st0" cx="304" cy="1017.7" r="3.7"/><circle class="prefix__st0" cx="171.5" cy="945.8" r="6.8"/><circle transform="rotate(-67.5 27.023 899.233)" class="prefix__st0" cx="27" cy="899.3" r="7.3"/><circle transform="rotate(-45.001 366.981 842.281)" class="prefix__st0" cx="367" cy="842.3" r="9.6"/><circle transform="rotate(-13.286 475.847 657.253)" class="prefix__st0" cx="476" cy="657.4" r="6.6"/><circle class="prefix__st0" cx="76.4" cy="1445.1" r="7.1"/><circle transform="rotate(-13.286 642.28 579.775)" class="prefix__st0" cx="642.4" cy="579.9" r="9.2"/><circle class="prefix__st0" cx="840.9" cy="683.7" r="4.1"/><circle transform="rotate(-16.843 1031.475 595.883)" class="prefix__st0" cx="1031.5" cy="595.9" r="9.4"/><path class="prefix__st0" d="M1057.8 247.4c-4.2 0-7.5 3.4-7.5 7.5s3.4 7.5 7.5 7.5c4.2 0 7.5-3.4 7.5-7.5s-3.3-7.5-7.5-7.5z"/><circle transform="rotate(-13.286 491.653 292.244)" class="prefix__st0" cx="491.8" cy="292.3" r="9.2"/><circle class="prefix__st0" cx="586" cy="271.5" r="5.3"/><circle transform="rotate(-67.5 667.494 157.345)" class="prefix__st0" cx="667.5" cy="157.4" r="5.7"/><circle transform="rotate(-13.286 874.35 111.013)" class="prefix__st0" cx="874.5" cy="111" r="5.1"/><circle class="prefix__st0" cx="1090.9" cy="39.9" r="7.3"/><circle class="prefix__st0" cx="819.7" cy="15.5" r="5.2"/><circle transform="rotate(-13.286 738.751 31.148)" class="prefix__st0" cx="738.9" cy="31.1" r="8.7"/><circle class="prefix__st0" cx="132.1" cy="77.6" r="6.7"/><circle class="prefix__st0" cx="34.2" cy="199.9" r="6"/><circle class="prefix__st0" cx="336.4" cy="280.7" r="11.6"/><circle transform="rotate(-45.001 113.937 491.977)" class="prefix__st0" cx="113.9" cy="492" r="6.3"/><circle transform="rotate(-13.286 387.473 216.328)" class="prefix__st0" cx="387.6" cy="216.4" r="5.6"/><circle class="prefix__st0" cx="305.5" cy="22" r="6.7"/><circle transform="rotate(-45.001 430.626 26.239)" class="prefix__st0" cx="430.6" cy="26.2" r="5.5"/><circle class="prefix__st0" cx="599.1" cy="19.1" r="3.8"/><circle transform="rotate(-9.213 886.284 457.572)" class="prefix__st0" cx="886.3" cy="457.7" r="5.7"/><circle class="prefix__st0" cx="10.9" cy="1611.7" r="8.1"/><circle transform="rotate(-67.5 938.323 1375.791)" class="prefix__st0" cx="938.3" cy="1375.8" r="5.9"/><path class="prefix__st0" d="M849.6 1372.4c-2.6 0-4.7 2.1-4.7 4.7s2.1 4.7 4.7 4.7 4.7-2.1 4.7-4.7-2.1-4.7-4.7-4.7zM1033.4 1392.3c-2.2 0-3.9 1.7-3.9 3.9s1.7 3.9 3.9 3.9 3.9-1.7 3.9-3.9-1.7-3.9-3.9-3.9z"/><circle transform="rotate(-13.286 967.204 745.362)" class="prefix__st0" cx="967.4" cy="745.5" r="5.2"/><circle transform="rotate(-67.5 563.819 450.15)" class="prefix__st0" cx="563.8" cy="450.2" r="5"/><path class="prefix__st0" d="M203.7 139.1c-2.1 0-3.8 1.7-3.8 3.8s1.7 3.8 3.8 3.8 3.8-1.7 3.8-3.8-1.7-3.8-3.8-3.8zM608.6 775.7c-2 0-3.7 1.6-3.7 3.7 0 2 1.6 3.7 3.7 3.7 2 0 3.7-1.6 3.7-3.7 0-2-1.7-3.7-3.7-3.7z"/><circle class="prefix__st0" cx="413.5" cy="1266.6" r="4"/><circle class="prefix__st0" cx="1105.5" cy="775.7" r="6.4"/><path class="prefix__st0" d="M1015.3 1716.7c-2.9 0-5.3 2.4-5.3 5.3s2.4 5.3 5.3 5.3 5.3-2.4 5.3-5.3-2.4-5.3-5.3-5.3z"/><circle class="prefix__st0" cx="1093" cy="1248" r="5.1"/><path d="M35.3 313.6c1.1-.1 1.9-1.1 1.8-2.2-.1-1.1-1.1-1.9-2.2-1.8-.2 0-22.2 2.1-34.9-6.4v4.7c9.2 5.1 21.2 6 28.6 6 3.8 0 6.4-.3 6.7-.3zM16.2 280.5c.7.8 2 .9 2.8.1.8-.7.9-2 .1-2.8-4.8-5.3-12.1-7.3-19.1-5.4v4.2c4.7-1.6 11.3-1.4 16.2 3.9z"/><path class="prefix__st0" d="M17.7 279.2C14 264.9 29.2 253.6 39 261.1c22.3 17.1-3.9 50.6-3.9 50.6"/><path d="M6.4 274.9c.3 0 .7-.1 1-.2 1-.5 1.3-1.8.8-2.7L0 257.2v8.3l4.6 8.4c.4.6 1.1 1 1.8 1zM16.3 267.4c.5 1 1.8 1.3 2.7.8 1-.5 1.3-1.8.8-2.7L0 229.7v8.3l16.3 29.4zM16.5 1717.7c-1.8-3-5.6-6.4-13.4-5.7-1.1.1-1.9 1.1-1.8 2.2.1 1.1 1.1 1.9 2.2 1.8 4.7-.4 7.8.8 9.6 3.8 5.5 9.1-2.2 33.4-12.5 49.5-.2.3-.4.5-.5.8v6.3c1.4-1.5 2.8-3.2 3.9-4.9 9.3-14.6 19.8-41.8 12.5-53.8z"/><path d="M4.1 1710.7c-.6-3.6-2-6.7-4.1-9v9.1c0 .2.1.4.1.6.2 1.1.1 2.3-.1 3.7v12c2.8-5.8 4.8-12 4.1-16.4zM16.7 1146.7H5.8c.2.5.3 1 .3 1.5s-.1 1-.3 1.5h10.9c.8 0 1.5-.7 1.5-1.5s-.7-1.5-1.5-1.5zM2.2 1133c-.8 0-1.5.7-1.5 1.5v10.5c.5-.3 1.1-.5 1.7-.5.4 0 .9.1 1.3.2v-10.3c0-.8-.6-1.4-1.5-1.4zM.7 1151.5v11.9c0 .8.7 1.5 1.5 1.5s1.5-.7 1.5-1.5v-11.7c-.4.1-.8.2-1.3.2-.6 0-1.2-.1-1.7-.4zM5.6 1877.3c0-3.9-2.3-7.2-5.6-8.7v4.8c1 1 1.6 2.4 1.6 3.9s-.6 2.9-1.6 3.9v4.8c3.3-1.5 5.6-4.8 5.6-8.7zM656.5 14.4c6.6 2.4 13.9 3.7 21.1 3.7 14.8 0 29.5-5.4 37.9-18.1h-4.9c-12 15.2-35 17-52.7 10.6-6.3-2.3-12.6-5.8-17.5-10.6h-5.5c5.7 6.7 13.7 11.5 21.6 14.4z"/><path class="prefix__st0" d="M652.3 11.5s-.2 6.9 5.4 9.6M662.6 14.2s-.2 6.9 5.4 9.6"/><path d="M942.2 2.9c15.2 3.6 47.4 10.4 73.8 10.4 8.5 0 16.4-.7 22.9-2.4 1.9-.5 3.5-1.5 4.8-3 1.4-1.6 3.6-4.2 6.1-7.9h-4.9c-1.8 2.5-3.3 4.2-4.2 5.3-.8.9-1.7 1.5-2.8 1.8-24.9 6.5-71.4-2.7-90.6-7.1h-8.5c.6 1.5 1.8 2.5 3.4 2.9zM179.7 7.5c1.1 0 2-.9 2-2V0h-4v5.5c0 1.1.9 2 2 2z"/></svg>