<svg version="1.1" id="prefix__Layer_1" xmlns="http://www.w3.org/2000/svg" x="0" y="0" viewBox="0 0 1125 2436" xml:space="preserve"><style>.prefix__st0,.prefix__st1{fill:none;stroke:#000;stroke-width:3.1181;stroke-linecap:round;stroke-linejoin:round;stroke-miterlimit:10}.prefix__st1{stroke-width:2.5512}.prefix__st2{fill:#000}.prefix__st3{fill:none}</style><g id="prefix__Layer_2"><path class="prefix__st0" d="M360.8 36.3s0-30.6-26.7-31.7-46.9 20.7-38.2 54.6c8.7 33.8 39.8 72 43.1 99.3 3.3 27.3-2.7 27.8-6.5 27.8s-10.9-44.2-60.6-38.2-84.6 28.4-114.6 66-30.6 58.9-25.1 60.6c5.5 1.6 25.6-37.1 25.6-37.1s-5.5 12 0 12.6c5.5.5 13.6-13.6 13.6-13.6s-11.5 40.4-1.6 41.5 14.7-30.6 26.7-47.5c0 0-5.5 17.5 2.7 16.9 8.2-.5 19.6-18 19.6-18s-10.4 15.3-1.6 14.7c8.7-.5 19.6-14.7 19.6-14.7s-5.5 14.2.5 14.7 14.2-12.6 14.2-12.6-1.6 9.8 3.3 9.8 16.9-13.1 16.9-13.1"/><path class="prefix__st0" d="M281.1 209.8s-14.2 15.8-7.6 21.8c6.5 6 18.6-15.3 18.6-15.3s-6 11.5 1.1 13.6c7.1 2.2 11.5-11.5 11.5-11.5"/><path class="prefix__st0" d="M348.2 54.8s-11.5-2.2-19.6-7.1c-8.2-4.9-10.9-13.6-14.7-10.9-3.8 2.7 2.7 26.7 24 66.6s37.7 81.3 3.8 115.7-105.3 51.3-142.4 28.4"/><path class="prefix__st0" d="M270.7 256.8l-2.2 63.3s-4.9 5.5-4.4 12.6 6 9.8 6 9.8 3.8 102.6 5.5 115.1-.5 19.6 12 21.8c12.6 2.2 46.9 4.4 46.9 4.4s-8.7-1.6-6-7.1 15.8-3.8 15.8-3.8-14-4.5-9.3-7.6c3.3-2.2 7.1-1.1 7.1-1.1s-20.2-4.4-37.7-2.2c-17.5 2.2-22.9 7.1-24.6-38.7-1.6-45.8-1.6-81.1-1.6-81.1s5.2-3.3 4.9-11.6c-.2-5.8-6-10.6-6-10.6s2.2-48.4 7.1-66.9"/><path class="prefix__st0" d="M219.4 256.8s-21.3 28.9-29.5 34.9c0 0-14.7 2.2-13.6 10.4 1.1 8.2 12 7.1 12 7.1l82.4 62.4"/><path class="prefix__st0" d="M237.6 258s-39.5 37.8-37.8 43.3c1.6 5.5 37.1 37.8 69.9 56.9M278.4 362.8s11.3 1.8 13.1 15.1c.8 6.2-11.6 19.1-11.6 19.1M271.3 379s-19.5 8.9-18 19.8l12-2.2s-6.9 10.4-5.8 14.2 12.7-6.9 12.7-6.9"/><circle class="prefix__st0" cx="342.8" cy="30.3" r="10.9"/><circle cx="342.6" cy="30.8" r="3.1"/><path class="prefix__st0" d="M349 45.8s3.8-7.9 12.3-7.9 19.9 19.4 22.9 31.7-4.6 25.9-18.3 38.2c0 0 3.5-15.8-1.4-27.3C359.7 69 345.2 60 349 45.8z"/><path class="prefix__st0" d="M351 46.6s12.6 14.2 18.3 26.5c5.7 12.3 1.9 26.2-1.1 30.6"/><path class="prefix__st1" d="M485.8 71.7c4-3.3-16-18.8-18.8-12.6s13.2 17.3 18.8 12.6zM532.2 148.5c-4.4-5.3 10.8-21.5 18.5-16.8 7.6 4.7-13.2 23.2-18.5 16.8z"/><path class="prefix__st0" d="M476.8 22.9s13.9 37 25.8 76.1c10.2 33.5 13.7 51.4 13.7 51.4"/><path class="prefix__st0" d="M530.7 117c8.8-9.9 29.2-20.7 28.9-30.6s-10-22.5-18.7-27.4c0 0 .4 20.8-7.8 31.1-8.2 10.2-19.9 12.5-18 3.3s24.2-22.9 21.2-36.8S517 38 511 39.9c0 0 4.1 14.4.2 24.7-3.9 10.3-11.6 11.3-11.7 2.3s8.8-20.4 5.3-26.9-23.3-8.8-28.6-19.5c0 0-1 11.8-9.1 21s-18.5 16.8-13.3 25.7 28 11.6 33.4 18 1.9 8.9-4.7 9.1-27.7-3.1-39-22.4c0 0-7 19.9 6.4 33.7 13.5 13.8 46 5.4 45.8 15-.3 9.6-36.6 7.8-51.1-9.5 0 0-3.8 15 7.5 20.5s41.2 3.6 40.2 12.5-41.6-6.3-41.6-6.3 4.3 21 21.5 33.2c15.7 11.1 35.7 3.8 44.5-6.9.7 2.9 3.7 16.2 2.1 27.3-1.9 12.5-11.1 20.2-10.3 23.4.8 3.2 7.4 5.5 10.7 1.4 3.3-4 14.2-21.6 3.4-53.2 4.6 2.1 13.2 4.3 25.4-.5 18.6-7.4 25.2-37.6 13.4-62.9 0 0-6.8 14.6-17.6 22.7-10.7 8.3-21.8 4.7-13.1-5.3z"/><path class="prefix__st1" d="M484.2 161.8c-2.6-4.8 16.7-10.5 20-5.4 3.3 5.2-15.9 13.2-20 5.4z"/><path class="prefix__st0" d="M395 226.1s6.2 49 39 85.3M401.2 251.8s4.1-8.2 16.1-6.5 20.5 11 18.5 32.2c-2.1 21.2-3.8 30.5.3 37 0 0-14.1-6.8-28.1-7.9-17.5-1.4-33.9-12-30.5-36.3 2.9-20.4 23.7-18.5 23.7-18.5z"/><path class="prefix__st1" d="M402.9 258.6s-15.4 14.4-11.3 43.1M407 268.6s-7.2 14-2.4 37.3M406 263.1s19.2-1.7 29.4 10.6M413.2 281.2s11.6-1.7 20.5 5.5"/><path class="prefix__st0" d="M543.2 1495.1s-24.1 30.9-63.5 41.4M528.3 1510s.1-7.5-9.6-11.5c-9.8-4.1-20-1.5-26.8 14s-9.2 22.6-15 25.3c0 0 13.4 1.5 24.5 6.9 13.8 6.7 30.5 6.7 37.6-11.5 5.9-15.4-10.7-23.2-10.7-23.2z"/><path class="prefix__st1" d="M524.3 1514s6 16.7-8.6 34.6M517.3 1519s-.1 12.8-13 26.7M520.2 1515.7s-13.9-9.6-26.6-5.7M507.5 1525s-8.2-6.3-17.8-5.3"/><path class="prefix__st0" d="M167 383.2s-4.9 5.5-16.5 4.9-24.1-1.8-24.7 5.2 5.2 22.3-2.4 23.5-4.6-23.5-4.6-23.5-15.9.3-20.4 8.2c-4.6 7.9 11.6 26.5 3.7 32.9S86.7 417.1 88.3 407c0 0-22.9 12.2-27.1 37.8s4.3 42.7 31.4 40.9c0 0-11.6 15.6-18 27.8s-2.4 20.7-2.4 20.7 6.4 2.7 11.6-1.5c0 0-4.9-4-1.8-15.6 3.1-11.6 16.2-27.8 16.2-27.8s-4 19.8 20.1 26.2 51.2-8.5 61.6-36.9c0 0-6.4 3.4-25.6 0s-24.4-6.7-21-11.6 28.4 6.7 44.2 3.1 17.4-25 13.1-31.7c0 0-4.3 10.1-15.9 11.9s-28.7.9-28.4-5.2 33.9-5.8 36.6-18.6c2.7-12.8-8.5-18.9-12.5-28.1-4.1-9.1-3.4-15.2-3.4-15.2z"/><path class="prefix__st0" d="M165.1 386.6S147 407.9 128.8 434c-10.4 14.9-24.1 33.9-36.3 52M164.5 426.9s-17.7 6.1-34.2 5.8M112.7 425.9s.3 13.1 7.3 19.2M74.8 446.7s.6 22 23.2 29.3M105.9 472.9s10.1 15.9 45.1 18M491.4 453c-5 9.4-10 18.2-14.8 26.5-51.6 88.6-90.2 117.3-90.2 117.3M502.1 418s-12.7 13.7-9.9 33c0 .1 11.8-6.8 9.9-33z"/><path class="prefix__st0" d="M473.9 425.1s-3.5 21.1 11.3 37.7c0 0 7-13.9-11.3-37.7zM521.3 445.5s-21.4.4-35.1 18c0-.1 14.9 4.3 35.1-18zM477.8 481.5s15.2-14.3 46.6-1.6c0-.1-26.4 11.8-46.6 1.6zM462.6 501.7s27.6-14.7 60.6 2.5c0-.1-33.9 8.9-60.6-2.5zM451.2 519.8s15.9-4.9 42.5 4.1 33.9 7.8 33.9 7.8-22.5 8.2-42.9 4.5c-20.4-3.8-20.8-12-33.5-16.4zM456.1 438.7s17.8 7.7 20.5 40.8c0 0-19.3-10.5-20.5-40.8zM462.6 501.7s1.4-29.6-22.8-51.1c.1 0-2.5 28.9 22.8 51.1zM451.2 518.6s1.8-15.9-14.4-36.8C420.5 461 421.2 457 421.2 457s-3.4 11.6 5.8 33.1 24.2 28.5 24.2 28.5zM437.1 540.4s-3.7-27.6-29.1-52.1c0 0 1.8 30.6 29.1 52.1zM424.8 554.8s-7-27.9-33.4-41.1c0 0 3.7 22.7 33.4 41.1zM417.2 563.4s-8.9-16.9-31.3-12c0 0 11.7 14.4 31.3 12zM437.3 540.2s27.6-3.2 57.6 15.5c0 0-30.2 5.7-57.6-15.5zM425.1 556.8s28.1-6.2 51.7 11.4c0-.1-21.9 6.9-51.7-11.4zM418.5 565.6s19 .4 24.7 22.5c0 .1-18.1-3.8-24.7-22.5zM979.3 249.5c2.4-.4 3.1 11.8-1 12.2-4.2.3-22.2-3.1-28.5-24.3 0 0 3.8 28.5-4.5 35.1-8.3 6.6-23.3 2.8-19.8-.7s17.7-12.8 9-19.8c-8.7-6.9-15.3 20.5-27.4 20.1-12.2-.3-27.1-8.3-30.9-19.8 0 0 14.9.7 29.2-6.3 14.2-6.9 11.1-12.8-2.4-8.3s-30.6 12.5-39.9 2.8c0 0-13.9-18.8-12.2-40.6 0 0 13.2 9 22.9 9s9.7-7.6 1-10.1c-8.7-2.4-23.6-1-24.3-8-.7-6.9-.7-26 7.3-38.2 0 0 11.8 18.8 23.6 15.6 11.8-3.1-11.8-10.1-17.7-22.6 0 0 5.2-6.9 15.3-12.2 5.6-2.9 6.8-6.3 6.8-8.7 0-1.9-.9-3.1-.9-3.1s2.8 5.2 14.6 3.1 25-2.8 39.6 4.9c0 0-9.4 18.1 0 21.2 9.4 3.1 10.1-13.5 8.3-20.5 0 0 10.8 1.7 16 14.9s-17.7 25-8.3 33.7 16.7-27.1 16.7-27.1 10.4 5.9 13.9 19.8-14.6 17-15.6 25 13.9 1 18.4-6.9c0 0 10.1 21.9-1.4 35.4s-31.9 9-31.9 9 5 18.5 24.1 15.4z"/><path class="prefix__st0" d="M946.6 228.3s-20.1-13.2-31.9-44.8-19.1-48.6-28.8-60.1M885.9 222.8c-1.3-7 28.1-13.9 31.6-4.2 3.4 9.7-29.9 13.2-31.6 4.2zM926.1 181.8c6.6 3.9 13.9-15.6 8-20.8s-13.9 17.3-8 20.8zM946.8 214c3.1 2.6 17.4-12 10.7-17.8-4.2-3.7-19.2 10.7-10.7 17.8zM614 557.6s-13.2.2-23.9-3.4c-7.3-2.4-14.8-4.5-19.3-.1-2.1 2.1-3.6 5.5-4 11.1-1.5 17.3 10.5 37.7 26.9 46.8 0 0 14.7 1.7 24.4-3.4 0 0-4.8 11.1-15.2 13.7 0 0 12.7 6.6 20.6 17.3 8 10.7 17.3 16.1 17.3 16.1s17.1 1.9 30.6-4.6c0 0-5.6 12.7-18 14.2 0 0 9.4 1.4 18.4 9.1s13.1 16.4 27.1 14.7 28-2.5 28-2.5 27.2 17.3 29.2 30.9c0 0 5.2-.3 9.9-9.4 0 0-6.2-12.3-34.3-26 0 0 10.3-26.4-6-45.4-16.2-19-21.8-39.1-44.6-49.5 0 0-1.7 16.7-12.8 24.5 0 0 8.6-23.2 2.8-33.3 0 0-30.8-18.1-48-19 0 0-1.8 14.1-9.5 20.2 0-.1 2.8-15.2.4-22z"/><path class="prefix__st0" d="M572.3 555.5s2.2 8.2 26.3 22.8 90.7 71.2 109.8 86.6c12.4 10 16.3 15.1 16.3 15.1M700.6 602.9s.1 19.2-10.6 33.7M707.4 613s1 20.2-15.6 36.6M655.1 621.4s-8.1 15.4-34 14M663.2 629.1s-4.4 11.3-18.4 13M645.9 614s-6 10.5-17.9 10.3M638.6 563.4s4.2 21.8-5.3 39M610.3 586.9s-12.5 9.6-36.8 4.9M703.7 661.4s-8.3 15.8-30.4 13.8M651.1 569.4s4.3 14.8-3.9 28.7M126 677.9c-59.2 0-36.8-51.2-36.8-51.2-12.3-33.6 19.7-45.9 19.7-45.9l.5 9.1c13.9-15.5 21.9-7.5 21.9-7.5-12.8-.5-14.4 10.7-16.5 25.6-2.1 14.9-16 12.3-20.8 20.8 0 0-10.6 36.8 18.7 36.8 15.5 0 25.1-6.4 25.1-6.4s17.1-33.1 45.4-42.2c28.3-9.1 90.2-9.1 104.6-4.8 14.4 4.3 46.4 3.2 65.1 2.7s48.6 7.5 63.5 27.8 27.8 21.3 27.8 21.3 13.3-8 19.7-26.7c6.4-18.7 25.1-26.2 29.9-23.5s2.1 26.7-11.7 38.4c-13.9 11.7-22.4 19.7-21.3 25.1s47.5 28.8 52.3 29.4c4.8.5 16.5-18.7 18.7-35.2 2.1-16.5-6.4-24.6-6.4-24.6s29.9 17.1 24.6 47-17.6 26.2-10.7 41.1 10.7 39.5-2.7 48.6c-13.3 9.1-27.8.5-30.4 4.8-2.7 4.3 10.5 0 10.5 0"/><path class="prefix__st0" d="M413.1 675.8s-19.2-40.6-56-33.6c0 0-4.3 31.5 44.3 47.5M382.2 751.6s11.5-.5 52.3 30.4c21.1 16 43.8 15.5 60.3 12.8 0 0 2.7 6.4 15.5 5.3 12.8-1.1 16.5-11.2 16.5-11.2M130.3 671.8s-14.9 32.8-6.9 60.6 17.1 40.6 16 45.9 6.4-4.3 25.1 0c17.3 4 25.5 15.8 31.3 17.8.4.2.9.3 1.3.3 5.9.5 28.3-23.8 5.9-63.8"/><path class="prefix__st0" d="M194.3 798S182 814.5 181 829c-1.1 14.4 7.5 35.8 2.7 42.2s-50.7 12.8-60.3-8 .3-63 20-83.8M210.3 781.4s20.3 1.1 41.6 6.9c21.3 5.9 51 1.3 51 1.3"/><path class="prefix__st0" d="M295.5 724.6s-8.5 18.4-2.7 40.3 11.5 28.3 19.5 30.4c8 2.1 20.3-9.6 36.3-9.1s22.9 4.8 25.6-.5-12.8-17.6-10.7-38.4M403.8 760.9s-2.9 16.8-29.1 21.6"/><path class="prefix__st0" d="M312.3 795.3s12.8 17.6 11.2 31-2.1 41.1 16 47.5 43.8 1.1 46.4-7.5c2.7-8.5-7.5-26.7-6.9-43.2.5-16.5-3.2-22.4-8.5-34.2"/><path class="prefix__st0" d="M402.8 788.9s3.9 13.3-.9 24.6c-4.8 11.2-20.3 25.1-20.3 25.1M321.9 816.7s-20.3 10.7-19.2 23.5 19.2 27.8 24.6 25.1M232.8 784.1s6.4 51.2 19.2 67.8c12.8 16.5-3.2 18.7-17.1 19.2-13.9.5-33.6.5-41.6-15.5s-9.3-39-9.3-39M355 876.4s-3.2-11.5 3.7-13.6c6.9-2.1 10.4 12 10.4 12M377.7 871.9s-5.3-12 1.3-15.7c6.7-3.7 7.2 3.2 7.2 3.2M317.6 860.2c-.8-.5 3.3-5.2 6.8-5.4"/><path class="prefix__st0" d="M222.3 870.6s-4.5-11.2 2.9-13.3c7.5-2.1 12.3 13.6 12.3 13.6M247.4 869s-7.7-12 2.4-17.9M134.7 873.2s1.1-12.1 7.8-11.4c6.8.7 6.8 14.6 6.8 14.6M158.6 877.2s-2.8-13.5 4.3-14.9 10 12.5 10 12.5M178.5 872.9s-1.8-11 5.3-13.9M109.5 589.8s2.5 16.2-11 22.9"/><path d="M514.7 744.4c2.8-2.6-8.9-12.1-14.2-7.5-5.3 4.7 9.6 11.8 14.2 7.5z"/><path class="prefix__st0" d="M482 691.8s6.9-6.9 17.1-1.1c5 2.8 6.8 7.8 6 12.8M448.9 669.7s8.2 8.2 16 11.7"/><path class="prefix__st0" d="M477.4 642s-.4 7.1-11 14.2c-10.7 7.1-11.4 18.5-11.4 18.5M404.8 680.8s-10.7-22.4-31.3-24.6"/><circle class="prefix__st0" cx="439.7" cy="725" r="16.3"/><circle cx="446.2" cy="727.9" r="4.6"/><path class="prefix__st0" d="M509.6 731.8s-7.3-5.3-14.2-2.7c-6.9 2.7-8.2 14.8 1.2 17.8M513.3 706.5c-2.7.7-5 10.3 4.1 17.1s19 8.2 19.6 3.4M374.4 786.8s10.3 8.3 28.8 2.1c3.2-1.1 3.4-2.7 2.1-10.3-1.2-7.6-3.9-11.7-3.9-11.7"/><path class="prefix__st1" d="M141.8 707.5c-4.7-1-4 12.5.5 12.5s4.5-11.4-.5-12.5zM154.3 693.9c-4.2-2.3-7.7 5.3-3.2 6.9s6.7-5 3.2-6.9zM158.8 709.7c-3.6-.2-4 8.3 1.1 8.5s4.5-8.3-1.1-8.5zM322.9 758.9c3.6 3.2 9.8-8.8 5.9-11.1-3.9-2.3-9.8 7.6-5.9 11.1zM305.1 764.2c2.5 4.1 9.4-.7 6.3-4.4s-8.3 1-6.3 4.4zM309.2 748.3c3 2 7.6-5.1 3.4-7.9-4.2-2.8-8.1 4.9-3.4 7.9zM324 815.8s3.6-2.8 10-1.4M323.5 821.5s4.4-1.4 9.8 1.4M217.5 813.1s13.1 6.9 19.5-1.8M220.2 805.7s2.7-3.7 10.1-1.9M388.1 813.5s2.8 5.7 9.6 6.4M156.8 819.5s7.1 8.9 19.6 3.9M162.1 812.8s7.1-3.2 13.2 1.8M213.5 732.9s5.9 9.1-.5 24.6M282.4 730.7s-2.1 12.8 8.5 25.6M108 582.6s-9.6 9.3-11.7 22.4"/><path class="prefix__st0" d="M723.6 210.1s-3.1-14.4-13.4-15.4l5.1 14.9s-11.8-14.4-21.1-11.3c0 0 8.7 7.2 12.3 14.4 0 0-17.5-4.6-34.9-1.5-17.5 3.1-32.9 8.7-40.6 2.6 0 0 2.6 9.2 12.8 9.2 0 0-6.2 8.7-19.5 13.9-13.4 5.1-18.5 13.9-19 20.5 0 0 5.6-4.6 10.3-4.6 0 0-27.2 21.6-23.6 69.8 0 0 2.6-6.2 9.8-11.8 0 0-10.8 25.2 7.2 41.6 0 0-.5-5.6 1.5-9.8 0 0-.5 26.7 15.4 35.9 0 0-1.5-5.1.5-9.2 0 0 5.1 38 53.9 50.8 0 0-1-7.2 0-10.8 0 0 6.2 12.3 18 13.9 0 0-1.5-4.6 1-7.7 0 0 4.1 8.7 10.8 10.8l8.2-5.6 1.5 5.1s19-2.6 26.2-15.4c0 0 1 4.6-1.5 9.2 0 0 22.6-5.6 37.5-25.2 14.9-19.5 14.9-31.8 14.9-31.8s3.1 4.1 3.1 8.2c0 0 12.8-12.8 14.4-29.3 0 0 2.1 3.6 2.1 6.7 0 0 18-17.5 2.6-50.8 0 0 7.2 2.1 8.2 6.7 0 0-5.6-38-29.3-53.4 0 0 8.7 1.5 14.4-4.6 0 0-12.3 1.5-22.1-7.7s-27.7-29.3-51.4-25.7c0 0 7.7-4.1 8.7-9.8.1 0-12.7-2.6-24 7.2z"/><path class="prefix__st0" d="M657.1 264.1s-.6-16.4-16.4-15.8c-15.8.6-20.9 15.8-14.7 27.2 6.2 11.3 17.5 5.1 17.5 5.1M676.2 383.8c-33.9-5.8-37.2-37.2-37.2-37.2l-4.9 4.6s-6.5-38.3 13.2-64c23.4-30.5 52.3-27.1 52.3-27.1-3.7-2.5-14.2-3.7-14.2-3.7s1.8-4.3 12.9-3.7c14.7.8 22.2 9.2 22.2 9.2s8.6-7.4 23.4-6.2l-7.4 7.4s40.4 1.5 50.5 46.2c7.4 32.6-3.1 44.9-3.1 44.9l-4.9-8s.6 17.2-4.9 22.2l-4.9-8s1.8 18.5-32 24.6"/><path class="prefix__st0" d="M707 333.3c-23.4-.7-33.9 14.8-33.2 35.7.6 20.9 12.9 27.7 35.7 27.1s33.9-12.9 32-33.9-13.6-28.2-34.5-28.9z"/><circle class="prefix__st0" cx="745.8" cy="316.7" r="14.8"/><circle cx="751.3" cy="315.8" r="4.2"/><circle class="prefix__st0" cx="667" cy="316.7" r="14.8"/><circle cx="672.5" cy="316.1" r="4.2"/><path class="prefix__st0" d="M652.4 315.3s12.9-8 29.1-1.4M731.3 314.9s14.5-6.5 28.8-1.4M765.8 265.7s2.3-17.2 21.1-12.7 13.5 33.8-5.9 30.1M657.1 293.9s4-12.6 16.9-8.3M738.7 285s12.9-5.5 17.9 6.2"/><path class="prefix__st0" d="M775.9 269.1s5.1-10.1 12.7-4.5c4.3 3.2.6 7.3.6 7.3M647 267.3s-2-8.2-9.3-6.8c-7.4 1.4-4.5 8.8-2.5 9.6M687.8 354.5c0-8.7 35.1-9.7 36.9-2 1.7 7.7-11 5.8-12.4 9-1.4 3.1-1.4 7.3-5.6 7.3s-3.5-5.6-7-8-11.9 2.1-11.9-6.3z"/><path class="prefix__st0" d="M686.1 366.9s-1.2 16.3 22.2 14.8C731.9 380.1 727 365 727 365M707.3 369.7l.3 9.8M642.4 399.2s-1.7 7.5-8.2 13.7-25 34.9-.7 53.4M720.9 459.1s17.8 3.4 18.1 13.4c.3 9.9-7.9 14.7-15.1 12-7.2-2.7-23.6-27.7-39-30.5 0 0 13.7-9.2 30.5-12.7s40.4.6 47.6 11c6.2 8.9 2.1 20.2-7.9 20.2"/><path class="prefix__st0" d="M738.3 451.9c1 0 12.7 2.4 15.1 11 2.4 8.6-1 17.5-14.4 15.4M684.9 454s-16.4-7.2-30.1-3.8-21.8 14.5-18.5 26.4c1.7 6.2 11 5.5 11 5.5"/><path class="prefix__st0" d="M658.2 460.2s-13 2.7-13.4 11.6c-.3 8.9 4.5 15.1 16.1 13"/><path class="prefix__st0" d="M671.9 464.3s-9.6 1.7-11.3 10.6 1.7 16.1 21.6 13.7 19.9-9.2 32.9-10.3M802.7 417.4s17.8 21.9 7.2 40.4-47.9 13.4-47.9 13.4M659.9 433.8s2.4 11.6 12.3 16.1M756.5 428.3s3.1 9.6-10.3 13.4M809.5 459.5l16.5.3M878.7 400.6s-3.8 22.9 16.8 39.4c20.5 16.4 38.3 12 38.3 12"/><path class="prefix__st0" d="M870.5 455.4s-9.9-1.4-12 8.9 6.5 10.3 27.7 9.2c25-1.2 76.7-2.4 101.3-3.8s64.4-19.9 60.6-57.5c-3.8-37.7-27.4-39-43.8-50.7s-17.8-32.9.7-39.7 31.5 15.4 31.5 15.4"/><path class="prefix__st0" d="M908.5 448.9s-13 1-30.8-3.8-46.2-5.5-49.6 10.6c-3.4 16.1 10.3 14.4 10.3 14.4"/><path class="prefix__st0" d="M848.9 451.6s-8.9 1-10.3 9.6 3.8 15.7 21.9 11.3M823.9 336.9s18.7 8.4 25.8 31M848 362.9s13.5 1.8 34.8-.2"/><path class="prefix__st0" d="M882.3 367.9s-.5-20.7 26.5-30.6 63-5.5 76.3 27c13.4 32.5 7.5 81.5 12 84.6s30.1-1 38.7-20.2-2.1-42.1-18.8-50.7c-16.8-8.6-38.7-21.7-30.1-49 6.8-21.9 39.7-21.6 50.3-1.7"/><path class="prefix__st0" d="M1055.4 322.5c9 6.7 6 10.6 16 12.3 9.9 1.7 11.7-4.8 11.7-4.8s1.9 7.3-5.2 10.9c0 0 8.1 2.8 14.5-7.2 0 0-8.4 31.6-37.2 22.9-32.4-9.7-15.2-45.5.2-34.1zM1037.4 334.1s8.5 18.7 29.5 16.9M1038.1 331.3s12.1-3.9 20.8 9M893.6 581.7s29.1-15.7 65.1-13c0 0 3.4-6.8 0-13.7s-3.1-9.6 1.7-8.6 7.2 10.6 7.2 10.6-.7-7.2 3.1-7.2 7.9 14 2.4 22.9c0 0 21.6 11.3 24 36.6s-14 43.5-46.9 51.4-65.4 4.2-78.4-26.7c-9.9-23.6 10.3-44.9 10.3-44.9s-6.5-2.4-6.8-12 7.2-14 7.2-7.2c0 0 0-6.8 5.1-7.2 5-.2-2.9 13.8 6 19z"/><path class="prefix__st0" d="M988.1 586.8s-5.8-8.2-26.7-4.1-20.5 25-20.5 25-13-17.1-38.7-9.6-30.2 20.5-30.5 35.9M935.5 623.4s.3-4.3 6.1-7.5c4.1-2.3 9.1-2.4 13.3-.4 4 1.9 8.7 4.8 10.1 8.7-.1 0-15.5 5.3-29.5-.8z"/><path class="prefix__st0" d="M935.5 623.4c0 12.8 15 14 15 14s3.9-.7 1.3-10"/><circle class="prefix__st0" cx="907.2" cy="618.9" r="15.7"/><circle cx="904" cy="619.8" r="5.3"/><circle class="prefix__st0" cx="967.6" cy="604.7" r="15.7"/><circle cx="964.5" cy="605.6" r="5.3"/><path class="prefix__st0" d="M896.7 660.1s.7 13.4-8.9 25.3c-9.6 12-19.9 49 1 74.6 20.9 25.7 72.9 21.9 88-6.2 15.1-28.1 6.2-56.5 1.4-79.1s-2.4-24.7-2.4-24.7M878.3 645.9s-7.7-8.1-37.8-9.8-49-9.6-58.5-16.1c-9.6-6.5-11.3 22.6 22.3 30.8"/><path class="prefix__st0" d="M789.8 645.3s-10.3 2.1-2.4 11.6c8.5 10.3 28.1 17.1 28.1 17.1s-18.8-2.7-18.1 2.7c.9 7.5 24.3 11.3 24.3 11.3s-13 .3-14 5.5c-1 5.1 15.4 9.2 23.6 8.9 0 0-7.5 6.2-3.8 12 3.8 5.8 18.5-1.7 18.5-1.7s-2.1 8.9 2.4 11.6 13.7-6.5 13.7-6.5-.7 7.9 3.4 9.9 11.3-3.8 11.3-3.8M991.5 635.8s5.5-8.6 28.8-10.3 45.5-5.1 54.1-9.2 12.7 5.5 5.5 12-24.7 10.6-24.7 10.6 15.1-1.7 16.1 5.1-18.8 10.6-18.8 10.6 21.2 6.5 18.5 13.4-24.3-1-24.3-1 16.4 10.6 14 15.7c-2.4 5.1-21.6-5.1-21.6-5.1s8.6 12.3 5.1 15.4c-3.4 3.1-18.5-6.5-18.5-6.5s12.3 18.1 8.2 23.3c-4.1 5.1-25.3-6.2-25.3-6.2s4.5 9.9-.7 13.4c-5.1 3.4-21.6-2.7-23.6-10.6M891.5 678.2s-4.5-15.4-32.5-24c-28.1-8.6-41.1-7.2-41.1-7.2"/><path class="prefix__st0" d="M977.8 669s4.5-14.7 25.3-24c20.9-9.2 36.3-8.6 36.3-8.6M913.6 775.7s-8.2 8.6-.8 17.2c3.3 3.9 1.8-7.7 1.8-7.7s2.6 10.8 6.9 9.8c4.4-1-1.3-11.6-1.3-11.6s5.1 8.7 8.2 6.7c3.2-2.1-7.6-17-14.8-14.4zM953.7 774.4s8.2 8.6.8 17.2c-3.3 3.9-1.8-7.7-1.8-7.7s-2.6 10.8-6.9 9.8c-4.4-1 1.3-11.6 1.3-11.6s-5.1 8.7-8.2 6.7c-3.2-2.1 7.6-17 14.8-14.4zM899.2 733.3s-.3 6.7 2.1 10.3M915.9 733.1s2.1 5.4.3 11.8M934.4 733.1s1 6.4-.8 11.6M950.1 732.3s1.5 5.9.5 10.8M964.5 733.1s1.3 5.4.5 8.7M908.7 751.6s-.8 4.4 1.8 8M925.2 751.6s1.3 4.1-.3 7.7M942.4 751.1s1.5 4.6-.8 7.7M957.8 750.3s1 3.9-1.3 7.2M887.2 724.1s-2.3 4.4-.8 8.7M972.2 721.8s3.3 4.6 2.3 9.2M827.6 668.4s5.6 1.5 9.8-.3M843.8 677.1s-6.7 1.3-9.2 5.1M843.5 694s5.6.5 9.8-4.4M858.1 695.8s-2.8 3.3-2.3 9M993.2 689.7s1.3 4.9 4.4 6.7M1003.5 679.9s6.9 1.3 8.5 5.6M1016.3 668.9s2.6 5.9 8.7 5.4M1035.7 647.7s4.4 3.3 8.7.3M1028.1 660.7s5.9-.5 7.7 4.4M351.5 970.4s36.6-4.7 59.3-9.1c13.2-2.5 20.3 2.5 18.7 10l-21.9 52 31.9-6.1c5.2 1.5 11.6 28.6 8.1 32l-73.3 12.6c-12.6-4.5 18.2-66.2 18.2-66.2l-32.5 9.3c-2.4.7-10.9-33.8-8.5-34.5zM501.1 950.8c9.6 5.9 16 14.5 19.2 25.8s2.4 22-2.6 32c-5 10.1-12.6 16.6-22.9 19.5-10.3 3-20.3 1.5-29.8-4.4-9.6-5.9-16-14.5-19.2-25.8s-2.4-22 2.6-32.1 12.7-16.6 23-19.5c10.2-2.8 20.2-1.3 29.7 4.5zM590.5 930.6c9.3 7.1 15 16.7 17.2 28.8 2.2 12 .1 23-6.1 33-6.2 9.9-14.8 15.9-25.8 17.9s-21.2-.6-30.5-7.7c-9.3-7.1-15-16.7-17.2-28.8s-.1-23.1 6.1-33c6.2-9.9 14.9-15.9 25.9-17.8 10.9-2.1 21.1.4 30.4 7.6z"/><path class="prefix__st0" d="M563 948.9c-7.6 1.8-11.3 11.6-8.8 22.3s9.1 16.6 16.6 14.8c7.6-1.8 11-11 8.1-23.5s-9.7-15.1-15.9-13.6zM487.8 1003.2c6.7-2.5 9.1-12 5.6-21.5s-10.2-14.2-17-11.7c-6.7 2.5-8.9 11.4-4.7 22.5 4.1 11.1 10.5 12.8 16.1 10.7zM927.9 788.8c4-.7 8-.9 11.9-.7M953.9 792.1c9.6 4.5 16.4 12.4 16.7 23.4 1 33.9-38.5 29.8-38.5 12.3s19.5-11.3 15.9-2.6M942.3 908c-56.3-10.2-67.1-65.2-53.3-93.5 4.3-8.9 11.1-15.4 18.8-19.8"/><path d="M1088.2 861.6c-4 0-9.3-.5-13.5-2.6-4.7-2.4-5.9-7.9-4.3-11.9 1.3-3.2 4.8-6.2 10.6-4.4 10.4 3.3 14.2 15.9 14.4 16.5.1.4.1.9-.2 1.3-.2.4-.6.6-1.1.7-.2.1-2.6.4-5.9.4zm-10.5-16.2c-2.8 0-4 2-4.4 3-1.1 2.7-.3 6.3 2.8 7.9 5 2.5 12.2 2.3 15.6 2.1-1.4-3.4-5-10.4-11.7-12.6-.9-.3-1.7-.4-2.3-.4z"/><path d="M1100.5 884.1c-.8 0-1.7-.1-2.6-.3-2.8-.6-4.9-2.1-6.2-4.5-3.7-6.8.6-18.4.7-18.9.3-.7 1.1-1.2 1.8-1 .5.1 11.6 2.9 14.2 10 1.6 4.3 1 8.9-1.5 11.8-1.5 1.9-3.8 2.9-6.4 2.9zm-5.6-21.2c-.9 3.1-2.8 10.6-.5 14.9.9 1.6 2.2 2.5 4.1 2.9 2.6.6 4.7 0 6-1.5 1.7-2 2.1-5.5.9-8.7-1.3-3.9-7.2-6.5-10.5-7.6z"/><path class="prefix__st0" d="M1048.7 887.4s-6.2-16.4-16.9-15.9c-10.8.5-7.7 10.8-1 13.9 6.6 3.1 17.9 2 17.9 2zM1048.2 888s-5.3 7.2-4.6 16.9c1 14.9 20.5 5.5 14.9-5.6-4.7-9.3-10.3-11.3-10.3-11.3zM908.8 894.3s4.1-12.3 9.2-18.5c5.1-6.2 15.4-1.5 9.2 7.7s-18.4 10.8-18.4 10.8z"/><path class="prefix__st0" d="M909 894s-13 .7-20.3 4.1-5.5 14.5 5 10.9c10.6-3.5 15.3-15 15.3-15zM888.2 864.8s5.7-11.2 11.4-16.4c5.8-5.2 15 .7 7.8 8.7s-19.2 7.7-19.2 7.7zM886.9 864.6s-11.2-5.8-18.9-6.6-11.7 9.3-1.2 11.6c10.5 2.2 20.1-5 20.1-5zM886.8 825.9s7.7-8.3 14-11.3c6.2-3 12.4 4.8 4.2 9.8s-18.2 1.5-18.2 1.5zM883.8 825.9s-4.5-10.6-9.4-15.6-13.2 0-7.2 7.7c6 7.6 16.6 7.9 16.6 7.9zM646.8 870.7c-21.2-1.7-21.2-22.7-16-37s3.8-22.4 3.8-22.4c-30 .9-35.8-15.7-36.4-23.3s9.6-24.7 26.2-33.5c16.6-8.7 34.9 1.7 34.9 1.7s16.6-18 35.2-12.2c0 0 3.2 15.1-27.4 27.7 0 0 5.2 24.2-15.4 32.3 0 0 1.7 7.6 12.5 15.4 10.8 7.9 18 21 15.7 34.9"/><path class="prefix__st0" d="M627.3 751s1.7-22.1 26.5-24.5c0 0 5.2 13.4-8.4 25M678.5 838.1s3.8-46.6 40.5-54.4c36.7-7.9 69.9 23.3 48.3 49.5 0 0 .3-15.1-11.4-13.7-11.6 1.5.3 24.7-18 43.1-18.3 18.3-48.7 14.7-59.2 6.8"/><path class="prefix__st0" d="M677.4 865.9s3.1 7-2.7 8.2c-7 1.4-18 1.6-18 1.6-6.5.4-10.5-1.2-10.5-1.2-1.2-8.3 12.8-9.3 12.8-9.3s-6.5-3.2-6.7-14.3c-.1-5.5 2-8.6 2-8.6"/><path class="prefix__st1" d="M630.6 862.7s-9.4.4-9 8.4c.1 2.9 18.6-1.2 18.6-1.2"/><path class="prefix__st0" d="M633.2 823.1s-7.1-.7-12.5 3.2c-7.6 5.5-7.3 10.3-4.9 11.6s5.8-6.1 15.1-4.9M647.2 828s-6.4.7-10.2 10.8c-2.3 6.1 3.1 7.4 4.7 4.9s4.7-7.6 9.9-8.3"/><path class="prefix__st1" d="M604.3 783s.4 7.3 5 9.9c0 0 2.4-7.1 8.9-8"/><path class="prefix__st1" d="M609.2 792.7s-1 7.9 10.5 8.2c6.7.1 10-5.4 10-5.4M599.8 795.3s3.6 6.4 10 2.3"/><circle transform="matrix(.07902 -.9969 .9969 .07902 -180.372 1353.21)" class="prefix__st1" cx="642.2" cy="774.2" r="9.5"/><circle transform="matrix(.07902 -.9969 .9969 .07902 -181.65 1347.694)" cx="638.5" cy="772.2" r="2.7"/><circle transform="matrix(.07902 -.9969 .9969 .07902 -205.641 1306.52)" cx="604.3" cy="764.6" r="2.7"/><path class="prefix__st1" d="M738.2 783.4s-15.5.4-14.6 9.5c.4 3.7 11.1 4.1 11.1 4.1s-8.5 4.9-7.2 8.9c1.4 4.1 12.6.8 12.6.8s-10.4 9.5-5.2 14.2c2.1 1.9 10.3-3.3 10.3-3.3s-2.9 7.8 0 9.5 5.4-2.1 5.4-2.1M614.4 760.9s-6.4-5-12.6-.8-6 13.4-.4 15.9M696.2 734l-1.5 9.5 9.3-4.5M695.5 746.2l11.4.6M653 715.5l-1 11.3 9.7-8.2M654.7 728.5l11.3-2.7M664 765s5.8-11.8 19.6-11.6"/><circle class="prefix__st0" cx="283.9" cy="951.6" r="37.7"/><circle class="prefix__st1" cx="283.9" cy="951.6" r="31.7"/><path class="prefix__st1" d="M268.8 924.2l30.8 54.4M294.1 921.6L271 980.4M254.2 940.9l59.9 18.6M254.5 961.6l57.9-23.2"/><path class="prefix__st0" d="M900.8 1153.9c36.7-35.3 35.8-60.4 35.8-60.4s12.6 7.7 26.1 1c23.2-11.6 17.9-38.2 17.9-38.2 13.1-3.4 28.5 16 30.9 12.1s-9.2-11.6-9.2-11.6 18.9 7.3 18.9 1.9c0-5.3-16.9-7.3-16.9-7.3s21.8-1 20.3-5.8-22.2-1-22.2-1c8.7-2.9 19.3-12.1 12.6-12.1-6.8 0-19.8 8.7-32.4 12.6s-10.6 4.4-12.1 16-33.4 14-37.2 1.9c-3.9-12.1-12.6-16.9-12.6-16.9 30-25.1 12.6-54.1 10.6-89.9-1.9-35.8 22.2-45.4 36.7-48.3 14.5-2.9 38.4 6.2 34.8 22.2-2.9 13.1-9.7 14-17.4 13.5s-13.5 7.7-8.2 16.9 26.6 5.3 38.2-14c11.6-19.3-3.9-57.5-44.5-48.3s-49 28.2-49.6 59.2c-.6 30.3 18.7 56.7-12.7 79.1 0 0-30.9-8.7-48.8 14 0 0-17.4-1-16-16.4 1.5-15.5 16.9-16.9 15.5-23.2-1.5-6.3-8.2-10.6-8.7-24.2-.5-13.5.5-22.7-3.4-22.2s-4.4 17.9-4.4 17.9-2.9-20.8-7.7-19.8 1.5 20.8 1.5 20.8-6.3-18.4-10.6-16.9 4.4 18.9 4.4 18.9-8.2-12.6-10.6-7.7 7.3 23.2 23.2 31.9c0 0-22.2 12.1-22.2 36.3 0 24.2 20.8 30 28 29.5"/><path class="prefix__st0" d="M854.4 1058.1s-7.7 14-5.8 31.9 8.4 36.9-3.2 50M798.9 1187.5c.6-21.2 20-47.4 56-46.9 36 .6 61.8 15.4 62.9 48.6 1.1 33.2-23.9 53.8-60 53.8-32.6 0-60-16-58.9-55.5z"/><path class="prefix__st0" d="M859 1174.6s14.5-17.8 32.6-9.4c21.7 10 12.3 38.6-10.9 37.7 0 0 1.4 28.3-20.9 28.9-23.7.6-27.7-17.4-27.2-31.7 0 0-22.3-1.7-16.9-22 4.6-17.1 26.1-23.2 43.3-3.5zM914.7 1172.9s12-8.7 19.7 5.4c6.9 12.6 1.1 24.6-5.7 30.3-6.3 5.3-13.2-.6-13.2-.6M801.8 1170.9s-6.9-8.6-17.7.6c-10.9 9.2-6.2 31.3 1.1 35.5 9.2 5.1 15.4-.6 15.4-.6M891.1 1236.1s15 11.1 10.2 38.2c0 0-6.3 4.4-13.5 5.3-7.3 1-12.1 4.8-8.7 8.7s21.8-6.3 21.8-6.3-4.8 28 4.8 29.5 1.5-26.6 1.5-26.6 8.7 24.2 16.9 22.2c8.2-1.9-12.6-24.7-12.6-24.7s18.9 7.7 20.8 1c1.9-6.8-22.2-2.9-22.7-7.7-.5-4.8 11.1-21.8-1.5-50.8M806.7 1223.3s-8.2 20.3-2.9 37.7c5.3 17.4 14 22.2 13.5 25.1s-19.3 18.4-14 26.6 14-17.4 14-17.4-5.3 21.3 2.4 25.6c7.7 4.4 3.4-26.6 3.4-26.6s6.3 24.7 13.5 22.2c7.3-2.4-9.2-24.2-8.7-29.5s17.4-1 16.9-9.2-19.8 2.4-19.8 2.4-14.7-27.3-.2-44.7"/><path class="prefix__st1" d="M849.2 1194.9s3.4 8 8 8 8.2-7.2 8.2-7.2M844.7 1208.1s0 14.3 12.6 14.9 12.6-14.3 12.6-14.3M857.2 1202.9l.6 18.9M923.6 1182.9s5.7.6 6 7.7c.3 7.4-6 8.3-6 8.3M791.8 1181.5s-6.9 2-5.7 8.3c1.1 6.3 6.9 6.9 6.9 6.9"/><circle class="prefix__st0" cx="836.4" cy="1181.6" r="12.6"/><circle class="prefix__st0" cx="883.7" cy="1181.6" r="11.9"/><circle cx="841.1" cy="1181.6" r="4.8"/><circle cx="887.4" cy="1181.7" r="4.5"/><path class="prefix__st1" d="M824.1 1160s5.7-8.3 13.4-4.3M880.7 1156.3s9.2-3.1 12.9 4M877.1 1068.9s-.6-5.2 3.5-9M860.4 1076.5s-2.2-4.7.7-9.7M904.5 1064.4s-3.5 6.1-2.6 9.3M925.5 1076.7s-.6 5.8-3.5 7.4M878.9 1086.1s-.4-3.6 2.5-6.3M867.4 1091.3s-1.5-3.3.5-6.7M897.9 1082.9s-2.5 4.2-1.8 6.5M912.5 1091.4s-.4 4-2.5 5.1"/><path class="prefix__st0" d="M205.5 1240.4s-2.3 3.3-9.3 6.9c-8.7 4.4-19.6-.5-32.8 6.4s-84.9 17.2-102.7-45c-15.9-55.6 23.2-79.8 37.6-85.2 16.9-6.4 31.8-3.2 33.4 4.2 1.6 7.4-6.9 9-7.9 10.6 0 0 11 18.8-2.1 20.6-3.7.5-4.2-12.7-18-10.6-10.6 1.6-27.5 26.5-8.5 51.9s49.8 3.2 61.4-12.7c11.6-15.9 29.1-47.7 61.9-49.8s45.5 2.6 45.5 2.6M200.5 1227.1s2.1 15.9 15.4 21.2"/><path class="prefix__st0" d="M255 1150.9s18-29.7 46.1-40.2 59.8-19.1 82.1 20.1c22.2 39.2 42.4 129.7-31.8 156.2-74.1 26.5-57.7-49.2-63-70.9M248.2 1137.1s-7.4-38.1-38.7-37.6c-31.2.5-44.5 52.9-41.8 70.9M110 1211.8s2.6 9.5-3.2 15.4M121.1 1211.3s5.3 6.4 2.6 17.5M133.8 1207s8.5 4.2 6.9 14.8M288.4 1179s24.4-13.8 45 4.2M292.6 1185.3s28.1 3.2 29.1 33.4M152.3 1257.9s10.1 8.5 23.8 7.9 24.4 9 38.1 13.2c13.8 4.2 29.7-3.7 29.7-3.7M210 1279s-2.6 24.4 11.6 38.7c14.3 14.3 21.7 15.9 18 46.6s-4.8 52.9-11.1 57.7-27 21.2-21.7 32.3c.6 1.3 1.7 2.4 3.1 3.4 11.2 7.8 45.1 7.5 57.8-2.3 13.3-10.4 27.1-55.1 31.9-95.4.4-3 .7-10.5.9-13.4"/><path class="prefix__st0" d="M210 1298.6s-37.1-1.1-47.1 14.8-14.8 41.8-21.7 49.2c-6.9 7.4-9.5 24.9 13.2 31.8s33.9-2.1 36-9.5 5.3-39.7 16.4-41.3c11.1-1.6 32.3-1.1 32.3-1.1M377.9 1360s-39.4 9.8-78.2-.1"/><path class="prefix__st0" d="M384.2 1312.9s-13.1 27.3-2.6 61.4c5.8 19.1 23.3 39.7 20.6 52.4-2.6 12.7-15.9 26.5-4.8 36s48.7 6.4 56.1-11.1-4.8-50.3-8.5-68.3 22.8-56.1 29.1-87.9c6.4-31.8-9.1-94.3-36.5-103.8-13.8-4.8-36.2-6.5-36.2-6.5M309 1363.2s-10.6 25.9 1.6 65.1c0 0-15.9 22.8-9.5 31.2 6.4 8.5 49.2 5.8 51.9-4.2 2.6-10.1-3.7-68.3 16.9-93.7"/><circle class="prefix__st0" cx="225.4" cy="1196.1" r="15.9"/><path class="prefix__st0" d="M119.1 1132.9s-6.4 4.2-1.1 10.6M166.8 1172.4s-11.3-4.2-18 4.2c-6.7 8.5-2.5 16.9-.4 19.4"/><circle cx="231" cy="1197.5" r="4.4"/><path d="M154.1 1181.5c1.4-2 4.1-2.6 6.1-1.2s.9 3-.4 5c-1.4 2-2.5 3.6-4.5 2.3-2-1.4-2.5-4.1-1.2-6.1z"/><path class="prefix__st0" d="M220.4 1460.9s5.2-14.7.8-15.6c-5-1.1-11.2 12.4-11.2 12.4M231.2 1462s3.2-13.8 10.1-14.6c6.9-.8 1.6 15.4 1.6 15.4M139.9 1384.9s4-15.6 9.5-13.5-.6 20.2-.6 20.2M158.7 1395.3s-.5-16.7 5-17.5c5.6-.8 7.7 18.3 7.7 18.3M303.7 1442.6c.8 0 8.7-.3 5.3 20.1M318.8 1463.6s-1.1-16.4 5.3-16.4 7.1 16.4 7.1 16.4M402 1464.6s1.1-16.7 6.6-16.4c5.6.3 6.9 19.3 6.9 19.3M426.6 1466.5s-6.4-16.9.3-18.8c6.6-1.9 11.9 15.1 11.9 15.1M475.6 1290s15.9 12.7 42.7 1.4c21.2-8.9 26.5-34.7 27.8-45 .7-5.5 2.4-10.9 5.3-15.7 1.6-2.7 4.3-5.2 6.4-8.8 13.1-22.6 0-33.5 10.9-52.2 0 0-8.8 2.5-14.5 18 0 0 .7-12.4 7.1-22.9 0 0-11.1 3-20.8 19.4-7.8 13.1-8.5 30.7-3.5 38.5 5.3 8.3 4.6 18 4.6 18s-2.8 35.7-27.9 42.4c-25.1 6.7-38.1-9.5-38.1-9.5M675 1365.1s-11.6-28.8-38.3-36.3-45.5-1-44.5 16.4c1 17.5 15.4 13.7 39.7 14.7s34.2 13.7 34.2 13.7-13.4 17.5-5.5 41.1 37 32.9 58.5 20.9c21.6-12 20.9-39.4 5.1-56.8-15.7-17.4-35.5-19.8-49.2-13.7z"/><path class="prefix__st0" d="M699.6 1362.4s7.5-18.5 1.4-42.1c-6.2-23.6-25.3-33.9-38.3-27.7-13 6.2-10.3 19.5 3.4 30.1s21.6 24.7 21.2 38.7M665 1425.1s-3.8 4.5-12.7 7.2-41.9 7.5-35.3 44.5c2.4 13.4 7.5 15.7 7.5 15.7s-2.7 4.1 3.4 6.5 38.7 5.1 40.7.3c2.1-4.8-6.5-10.6-21.6-7.2"/><path class="prefix__st0" d="M645.5 1458.9s13 1.4 14.4 17.2c.8 8.6-3.8 14.7-3.8 14.7M705.8 1441.2s1.7 15.4-6.8 28.4c-8.6 13-.3 24.3-4.8 27.4s-9.6-.2-9.6-.2"/><path class="prefix__st0" d="M670.6 1471.9c-7.8 26.3 2.9 29.5 8.9 28.9 5.4-.6 5.8-3 3.8-13.7-2.4-12.2 2.8-18.6 2.8-18.6s4.9.1 6.8-2.1M617.8 1480.1s-4.6-10.5-16.4-7.7c-11.8 2.8-1.3 32.1 22.1 23.4M637.1 1360.2s-28.2-2.8-23.6-12.8c4.6-10 42-2.1 54.2 20.5 1.8 3.3-1.8 6.4-1.8 6.4M671.2 1326.8s-6.9-12.1 2.8-14.9 17.5 17.5 18.2 30.6c.8 13.1-.8 19-.8 19"/><ellipse transform="rotate(-60 684.608 1411.553)" class="prefix__st0" cx="684.6" cy="1411.5" rx="10.1" ry="11.9"/><ellipse transform="rotate(-11.536 719.034 1394.282)" class="prefix__st0" cx="719.1" cy="1394.2" rx="8.6" ry="10.2"/><circle cx="689.2" cy="1412.3" r="3.1"/><circle cx="720" cy="1397.4" r="3.1"/><path class="prefix__st0" d="M704.3 1418.5s5.1 4.9 10.5 4.1c0 0 3.4-2.1 2.7-10M704.3 1428s2.3 5.9 7.4 3.9c5.1-2.1 3.1-9.2 3.1-9.2"/><path class="prefix__st0" d="M724.1 1419.5s1.5 5.6-2.1 8-6.7-1.8-6.7-1.8M670.2 1396.6s-1.3-4.6 2.3-6.4M707.7 1376.9s4.1-2.3 8 1.3"/><g><path class="prefix__st0" d="M890.4 1388s-1.1-11.3 6.5-16.4c0 0 14.6 12.9 23.2 12 0 0 7.2.7 26.6-1.7 19.3-2.4 47.9-27.7 39.7-66.5 0 0 2.9-4.6 7.4-2.6 0 0 47 40.2-3.1 84.3-32.1 28.3-68-.2-77.6-5.4-9.7-5.3-22.7-3.7-22.7-3.7zM935.5 1395.4s49.7 10.3 63-43"/></g><g><path class="prefix__st0" d="M707.3 1123.6c-20.6 6.7-49.4-6.6-49.4-6.6-6.3-6.9 2.9-21.5 2.9-21.5-5.3-3.4-14.4.7-14.4.7s-5.8 12.3 5.9 23.9c0 0-4.8 26.3 24.7 36.1 21 7 35.2 2.5 35.2 2.5"/><path class="prefix__st0" d="M718.6 1144.9c-3.3 19.5-30.9 41.6-30.9 41.6 25.1 4.4 38.1-14.7 38.3-19.5s-.5-19.2-5.4-23.7-18.7-6.6-18.7-6.6 10.8-2.2 14.6-5.5 7.8-15.7 4.5-19.6c-3.3-3.8-29.2-19.6-50.3-5.8 0 0 33.1 5.9 43 24.8"/><path class="prefix__st0" d="M722.4 1122.6s22-4.3 33-14.4 13.6-13.3 18.9-9.9 2.6 42.2-48 56M661.7 1128.4s16.1 12.9 40.1 8.2"/></g><g><path class="prefix__st0" d="M828 1483.1s13.9-2.5 23.5-21.6c9.5-19.1 7.7-24.8 13.1-21.8 5.4 3-4.1 20.8-4.1 20.8s9.8-18.4 19.2-17.4-13.6 22.9-13.6 22.9 16.7-7.4 21.9.3c5.2 7.8-19.9 7.9-19.9 7.9s21.3 3.1 16.8 13.4-16-21-52.1 3.1"/><path class="prefix__st0" d="M734.4 1539.3c-2.8-3.9 60-56.6 78.4-60.9s30.9 23.2 6 36.9c-24.8 13.7-80.5 29.3-84.4 24z"/><path class="prefix__st1" d="M807.2 1481.5s.2 8 4.2 12.8M796.1 1488.9s-.2 6 2.8 9.2M790.7 1514.1s.9 6.5 4.9 11.3M761.7 1513.2s1 4.7 3.5 8.9M807.6 1503.3s-1.2 3.8 3.2 8.1M778.4 1506.7s.2 4.4 2.9 8M752.9 1528.3s.4 5.3 2.9 8.4"/></g><path class="prefix__st0" d="M765.7 937.8l-17.8-.3c-11.6 8.9-39.4 8.2-53.4 27s-7.2 39.7-7.2 39.7l-4.8 3.1s-14-3.8-18.5-26.4c-4.5-22.6 6.5-47.6 37.7-58.5s44.2 2.7 49 6.5 20.2 2.7 20.2 2.7l11-6.8c7.2 6.5 5.1 18.1 5.1 18.1s-3.1-1.7-8.9-1c-5.8.7-14.7 8.6-14.7 8.6s-2.4 9.2-12.3 21.2-19.5 23.3-16.1 40.7c3.4 17.5 12.7 24.7 12.7 24.7l-3.4 5.8s-15.4 1.4-24.3-7.2"/><path class="prefix__st0" d="M762.6 943.6l-11 3.1s-5.1 6.8-17.5 16.1c-12.3 9.2-26.7 25.3-22.6 44.5 4.1 19.2 10.3 25.3 10.3 25.3l-5.8 5.8s-22.6-3.1-31.2-33.2M674.3 974.4s.7-40.1 47.9-44.5M702.4 973.7s-16.8 34.6 16.4 63.3M722.2 992.6s-6.2 34.2 22.9 47.6M993.7 1198.2c3.2-3.6 9.8-9.1 14.9-10 19.3-3.7 31.6 4.5 35.1 17.9s-4.2 28.9-17.9 30.6c-19.7 2.3-30.3-7.1-33.8-20.5"/><path class="prefix__st0" d="M988.5 1207.7c.1-5.3 4-9.4 8.7-9.4s7.2 4.4 7.1 9.7c-.1 5.3-2.8 9.4-7.5 9.3-4.6 0-8.4-4.3-8.3-9.6z"/><circle transform="rotate(-14.613 1029.097 1210.592)" class="prefix__st0" cx="1029.1" cy="1210.7" r="9.5"/><circle transform="rotate(-14.613 992.513 1207.897)" cx="992.6" cy="1208" r="3.6"/><circle transform="rotate(-14.613 1024.416 1210.201)" cx="1024.5" cy="1210.3" r="4.1"/><circle transform="rotate(-14.613 1063.21 1222.286)" cx="1063.3" cy="1222.3" r="4.7"/><circle transform="rotate(-14.613 1081.203 1216.685)" cx="1081.3" cy="1216.7" r="4.7"/><circle transform="rotate(-14.613 1093.613 1231.802)" cx="1093.7" cy="1231.9" r="4.7"/><circle transform="rotate(-14.613 1089.513 1196.197)" cx="1089.6" cy="1196.3" r="4.1"/><circle transform="rotate(-14.613 1069.302 1195.203)" cx="1069.4" cy="1195.3" r="4.1"/><path class="prefix__st0" d="M1007.1 1220.5s.9 7.3 5.5 7.1c4.6-.2 5-6.5 5-6.5M1014.9 1187.1s4.1-10.9-.8-21c-5-10.1-15.4-7.4-15.6-1.4-.2 6 7.6 5.3 7 2.1M1030.4 1189.1s.9-16.3 9.3-21.8c8.4-5.6 16.3.9 13.7 5.8s-7.7 1.2-6.6-1.6M1043.2 1220.9s12.9-22 40.5-16.5 30.1 42.1 30.1 42.1-45.2-.6-70.6-25.6z"/><path class="prefix__st0" d="M1044.6 1210.7s.7-17 23.6-24.8c22.8-7.8 40.1 9 40.1 9s-1.1 7.5-15.4 12.3M1037.5 1230.2s-5.1 27.2 25.2 34.1 42.8-17.4 42.8-17.4M1053.7 1229.6s.9 15.5-6.8 26.4M1069.7 1238.4s2.2 11.6-5 25.4M1086.9 1243.7s2.5 9.5-3 19.4M1021.8 1252.1s6-9.8 15.6-9.5M1029.2 1260.6s2.8-8 11.2-10.7M1050.1 1278.2s-1.8-8.9 4.5-16.4M1060 1278.4s-3.2-4.3 1-14M1089.3 1262s.8 10.1 10.1 13.9M1095.9 1258.2s1.2 7.7 11.7 10.1"/><circle class="prefix__st0" cx="1020" cy="1482.7" r="10.5"/><path class="prefix__st0" d="M1053.2 1547.1c-1.7-4.5-3.1-8.6-3.7-12.5-3.1-19.3 4.6-23.9 3.1-38.8-2.5-23.8-16.7-35.4-37.5-36.2-20.8-.8-30.6 10.3-34.7 18s-9.2 7.4-18.5 11.8c-9.2 4.4-11.3 13.9-11.3 13.9s16.1-8.1 30.8-5.4c8.5 1.5 16.4-2.6 16.4-2.6"/><path class="prefix__st0" d="M971.7 1497.6c1.8 6.4 8 5.1 15.2 9.2s2.3 8.5-12.3 34.4-22.3 58.8-16.9 103.7c5.4 44.9 36.5 51.9 64.7 48.8 28.2-3.1 40.1-8.7 45.2-63.2 1.9-19.6.7-32.3-2.1-44.9M996.3 1488.6s-1 5.6 4.9 8.7"/><path class="prefix__st0" d="M972 1543.3s-9.5-3.9-30.3 3.9-41.3 20.9-51.4 41.1c-3.6 7.2 9.8-5.4 21.6-6.2 11.8-.8 32.9 5.9 48.5-5.6M979.1 1686.8s-11.6 2.1-16.9 7.4c-2.6 2.6 9.2.8 10.8 3.1s-5.1 8.5-3.9 11.3c1.3 2.8 12.3-3.9 14.9-2.6 2.6 1.3.8 8 3.6 9s13.6-15.7 14.4-20.3M1027.4 1693.5s-11.2 15.5-8 20.8c1.3 2.1 7.2-5.1 10-4.9 2.8.3 6.7 11.3 9.8 11.6 3.1.3 3.3-11.3 5.9-12.6 2.6-1.3 8.7 4.9 11.3 4.4 2.6-.5-1.3-15.4-11.3-24.1"/><path class="prefix__st0" d="M976.6 1537.4s8.5-13.9 32.1-11c23.6 2.8 47.4 31.1 45.4 99.6-2.1 68.6-41.8 67.8-41.8 67.8M986.6 1468.5s-6.9-3.9-11.8 2.6 1 11.8 1 11.8"/><circle cx="1021" cy="1482.9" r="3.3"/><path d="M977.5 1474.6c1-1.5 3.1-1.9 4.6-.9s.4 2.1-.6 3.6-1.6 2.9-3.1 1.9-1.9-3.1-.9-4.6z"/><path class="prefix__st0" d="M988.6 1548.9s-1.8 3.1-1.8 7.4M1004.3 1548.4s.3 5.1-1 9.5M1021 1549.9s2.3 3.9 1.5 8.7M1012 1564.8s-1 5.4-.3 8.5M992.8 1563.6s-1.8 5.1-1.3 8.2M975.5 1560.2s-2.3 4.6-1.5 8M1032 1562.5s2.1 4.1 1.3 7.4M973.8 1460.1s2.3-5.4 8.2-3.9M1024.3 1464.9s5.6-.3 6.7 5.9M1036.9 1691.7l.3 15.1M979.1 1699.6l9-8.2M541.3 1673.2c-15.4-43.1 11.3-70.4 11.3-70.4s-13.4-8.7-10.8-24.7 22.3-19.3 31.8-8.7c4.6 5.1 5.6 14.9 5.6 14.9s31.8-13.4 60.6-3.1c0 0 3.1-20.5 22.1-16.9s17.5 28.2-.5 36.5c0 0 16.9 19 16.4 53.9s-18.5 53.9-18.5 53.9 3.1 35.9-5.1 64.7-26.7 75-23.1 83.2c0 0 21.1 3.1 22.6 18s-13.7 17.8-13.7 17.8"/><path class="prefix__st0" d="M630.6 1875.5s14.8 3.8 8.7 17.5c-2.1 4.6-15.4 5.1-15.4 5.1M576.2 1804.7s0 46.7 18 65.7"/><path class="prefix__st0" d="M586 1871.4s18.3-1.5 30.1 6.8c10.4 7.4 13 20.4-.3 26"/><path class="prefix__st0" d="M607.5 1885.8s6.5 2.6 8.2 6.4 1.3 10.3-4.1 13.6c-7.8 4.8-15.9 1-15.9 1"/><path class="prefix__st0" d="M590.1 1890.4s8.2 2.6 8.2 9.8-6.7 10.8-16.4 9.8c-9.8-1-26.7-4.1-49.8-44.7-23.1-40.6-29.8-62.7-29.8-62.7M443.7 1817.3s31.5 23.6 75.2 24.1M580.3 1836s19 1 38.5-18M447.3 1820.6s3.1 57 22.1 75c14.1 13.4 37 12.6 37 4.1 0-8.2-9.8-9.8-9.8-9.8"/><path class="prefix__st0" d="M508.4 1841.1s-4.6 28.8 1 32.4 21.3 4.6 21.6 19.5c.2 10.3-9.2 9.8-9.2 9.8"/><path class="prefix__st0" d="M514.3 1887.6s7.2 1 7.4 8.5c.3 7.3-4.1 12.3-18.5 9.2M446.8 1768.7c.1.1 7.9 36.2-10.3 63.2-18.3 27.2-35.4 32.4-34.9 38s1.5 8.7 6.7 9.2 17.5 5.6 16.9 15.4c-.5 9.8-6.2 9.8-6.2 9.8"/><path class="prefix__st0" d="M409.3 1889.9s13.4 5.6 7.2 16.9c-3.1 5.6-11.3 2.6-11.3 2.6"/><path class="prefix__st0" d="M397.5 1894.5s8.7.5 8.7 8.2-4.1 10.8-18 8.2c-13.9-2.6-39.6-37.3-43.7-61.1-3.6-21.1 13.4-19.5 8.7-36.5-4.6-16.9-26.7-64.7 12.3-117.1s112.5-57.5 149.4-49.8M505.8 1659.3s10.3-20 30.8-23.6"/><circle class="prefix__st0" cx="590.8" cy="1623.2" r="15.4"/><circle cx="589.5" cy="1623.4" r="5"/><path class="prefix__st0" d="M662.5 1614.4c2.9 7 0 16.5-7.4 17.9-4.4.8-10.7-.9-15.2-9.4-3.5-6.7-2.2-13 4.8-15.9 6.9-2.9 14.9.4 17.8 7.4z"/><circle cx="648.1" cy="1619.8" r="4.4"/><path class="prefix__st0" d="M630.1 1638.3c.3-3.8 33.2-6.5 34.6-1.7 1.4 4.8-12 13.7-17.1 14-5.2.3-17.8-8.2-17.5-12.3zM652 1591.7s-3-14.8 8.9-13c4.5.7 3.8 5.5 3.8 5.5M563.7 1592.1s3.1-9.2-4.5-12-8.6 5.8-8.6 5.8M610.3 1654.7s-.7 14 17.1 14.7 20.2-18.8 20.2-18.8M642.4 1664.3s1 3.4 8.9 3.8c7.9.3 13.7-11 12.7-16.1M615.7 1676.3s.3 7.2 8.6 8.2c8.2 1 11.3-5.5 11.3-5.5M577.7 1602.3s2.1-7.4 9.5-6.9M638.1 1593.1s5.9-1.5 9 3.3M48.8 1357.9s11-12.7 26-6.5c15.1 6.2 15.1 32.5 4.8 46.6s-22.3 11.3-22.3 11.3-8.2 6.8-19.9 1.7c-11.6-5.1-30.5-29.1-20.2-44.5 10.3-15.5 31.6-8.6 31.6-8.6zM54.2 1339.2s-8.6 11.6-4.5 26M43.9 1365.2s4.3 4.3 12.3-3"/><path class="prefix__st0" d="M48.4 1356.7s-3.1-22.9-24-21.2c.1-.1-2.3 21.2 24 21.2z"/><g><path class="prefix__st0" d="M508.2 846.5s-9.2-.7-17.4 4.1c-8.3 4.8-18.3 21.8-16.6 28.6 1.8 7.1 13.5 15.6 24.5 16.7 11.7 1.2 24.3-4 24.3-4"/><path class="prefix__st0" d="M541.3 860.1c-5.3-14.6-13.1-24.9-23.3-23.5-11.2 1.5-9.8 14.1-4 33.6s12.8 27.6 21.2 25.6c8.4-2 10.8-22.8 6.1-35.7zM523.7 837.7l-13.2 16.1M533.8 845.6L514 870.2M539.8 858.7l-20 25.1M543.2 874.6l-15.3 19.1M511.3 844.1l24.5 4.3M510.1 852.6l29.8 6.4M513 865.4l30.2 6.1M518 879.2c.7.2 23.7 5.9 23.7 5.9M523.6 890.1l14.6 4.1M551.2 847.8s3.5 12.6-8.1 15.2"/></g><g><path class="prefix__st1" d="M121.7 987c21.9 17 27.6 39-.4 75.1s-47 44.6-74.4 23.4-22.5-42.2 2.7-74.8 49.5-41.2 72.1-23.7z"/><path class="prefix__st1" d="M124.3 989.6s26.1-32.4 64.2-16.3c0 0-37.5 5-54.5 24.4"/><path class="prefix__st1" d="M115.6 982.9s13.8-28.5-2.4-48.8c0 0 19.2 4.2 21.6 29.8.4 4.7.3 10.1-.6 16.4M148.4 971.1s16.2-18.9 40.3-19.4c0 0-24.4-15-53.9 12"/><path class="prefix__st1" d="M133.7 953.5s11.2-12.5 13.4-31.9c0 0 12.2 11.5 3 30.7"/><path class="prefix__st1" d="M164.3 947.3s11.4-13.4 11.7-24.5c0 0-12.8 2.5-22.1 13.8M39.8 1079s-3.2-10.2 2.4-15.1 13.7-1.7 13.7-1.7 5.4 9.3 2.7 15.5-9 9.6-9 9.6M60.2 1074.9s9.5-1.6 16.4 1.1c0 0 1.7 8.5-1.6 13.4s-7.8 6.4-7.8 6.4M78.4 1082.8s7.1-1.5 15.6 6.2"/><path class="prefix__st1" d="M45.5 1061.7s-2.7-6.5-7.8-10.2c0 0-6.6 3.9-7.2 13M40.9 1053s2.8-12.6 6.3-14.8c3.5-2.2 17.1 2.6 17.1 2.6s6 11.6 2.7 16.8c-3.3 5.2-8.2 8.6-8.2 8.6M68.6 1051.5s5.4-.7 9.2.4c0 0 6.2 8.7 4.4 15-1.8 6.3-5.5 9.1-5.5 9.1M83.8 1065.6s9.5-.9 10.4-.7c.9.2 3.5 9.2 3.1 12.7s-7.5 8.4-7 8M98.8 1073.8l7-1-.3 6M44.8 1039.2s-2.7-7.2-7.6-9.2"/><path class="prefix__st1" d="M41 1023.1s9.5-7.6 17.3-4.7c0 0 5.9 10.7 2.2 21.1M62.6 1029.3s6.7-3.3 12.9-2.4c0 0 7.1 8.8 8 15.3"/><path class="prefix__st1" d="M75.1 1050.8s6.5-8.7 10.6-9.3c4.1-.7 10.3 0 10.3 0s5.6 9.5 5.3 13.1c-.3 3.7-5.7 11-5.7 11M105.1 1072l6.8-7.1s1.6-9.1-.6-10.3c-2.2-1.2-9.1.1-9.1.1M119.3 1064.4l-7.4.5M75.5 1026.9l3.6-8-6.6-13.1c-8.1-1.9-18.8.9-18.8.9M80.4 1019l14.6.8 6 14.2-5 7.5M102.5 1034.1h13.6l1.2 12.8-4.7 7.4M95 1019.8c.6-.8 5.2-5.8 5.2-5.8s11.9-1.4 16.9 1.5c0 0 3.5 9.4 2.2 13.5l-2.6 4.4M120.9 1029s7.3-3.4 11.7-1.5c0 0 2.4 7.3.5 15.3M118.1 1047.5s6.5-2.4 11.4.3"/><path class="prefix__st1" d="M72.6 1005.8s5.3-5.2 7.8-5.8 13.5-1.4 13.5-1.4 5.7 8 6.3 15.5M71.4 988.9s3.6 4.6 3.1 14.3M86.1 980.6s5.7 8.6 3.4 18.6M89.8 986.1s7.8-2.7 12.6-1.6c0 0 4.7 7.3 4.2 14.9l-6.6 10.1M108.2 998.8l9.6.5 4 11.9-2.9 5.7M123 1011.3l8.7.1s4.7 6.2 4.3 8.8c-.4 2.5-2.6 9.1-2.6 9.1"/><path class="prefix__st1" d="M106.3 989.6s8.3-1.1 10.6.7c2.3 1.7 6.5 10.2 6.5 10.2l-2.9 5.5M124.6 1000.2l6.4.5 5.2 3.6M113.9 982.4l1.5 7M102.7 978.8l-.3 5.7"/><path class="prefix__st0" d="M89.1 1006.5s-3.8 1.5-5 5.8M109.9 1021.4s-1.3 4.7-3.7 5.5M90.3 1027.8s-2.2 4-2.5 6.1M66.2 1011.8s-3.1 2.1-3.6 3.9M52.7 1025.8c-1.1-.1-4 5.2-4 5.2M90.5 1050s-1.2 4.4-3.9 6.4M71.4 1036s-2.7 3.2-2.9 5.4M109.3 1041.8s-2 3.9-4.2 4.7M77.5 992.4s2.5-3.9 4.2-4.2M97.4 992.3s-1.3 4.1-2.5 5M126.8 1035.4s-2.9 5.2-4.4 5.9M127.2 1018.1s-.8 4.4-2.3 5.2M112.5 1005.8s-2.8 3.3-3.4 5.3M55 1047.8s-3.5 3-4.1 5.5M71.4 1061.4s-1.7 4.8-3.8 6.1M88.3 1073s-1.9 4.4-3.3 5M105.3 1061.8s-2.6 3.6-3.9 4.2M121.1 1055.1l-2.8 3.8M35.7 1041.4s-1.8 3.5-1.7 4.8M49.2 1071.1s-3.3 3.8-2.9 5.9M67.3 1083.6s-1.7 3.2-4.4 3.7"/></g><g><path class="prefix__st0" d="M253.2 550.5s16-36.2-5.9-36.2c-21.9.1-15.2 27 5.9 36.2z"/><path class="prefix__st0" d="M252.6 551s-31.4-24-36.5-2.7 22.6 21 36.5 2.7zM254.7 552.5s7.9 38.7 25.7 26.1c17.8-12.7-3.2-30.8-25.7-26.1z"/><path class="prefix__st0" d="M254.1 553.1s-35.5 17.4-18.8 31.5 29-10.9 18.8-31.5zM255 551.4s39.5 1.3 31.4-19c-8.2-20.2-30.6-3.9-31.4 19z"/><path class="prefix__st1" d="M245.9 570.4s6.7-10.1 7-15.7M269.7 539.3s-10.9 5.9-14.9 10.9M247 531.5s2.2 13.2 6.2 17.1M234.9 551.4l18.3-.9M256.2 553.6l10.4 8.4"/></g><g><path class="prefix__st0" d="M79.7 2255.4s16-36.2-5.9-36.2-15.1 27 5.9 36.2z"/><path class="prefix__st0" d="M79.2 2255.9s-31.4-24-36.5-2.7c-5.2 21.3 22.6 21 36.5 2.7zM81.2 2257.4s7.9 38.7 25.7 26.1-3.2-30.8-25.7-26.1z"/><path class="prefix__st0" d="M80.7 2258s-35.5 17.4-18.8 31.5 28.9-10.9 18.8-31.5zM81.6 2256.3s39.5 1.3 31.4-19-30.7-4-31.4 19z"/><path class="prefix__st1" d="M72.4 2275.3s6.7-10.1 7-15.7M96.3 2244.2s-10.9 5.9-14.9 10.9M73.6 2236.4s2.2 13.2 6.2 17.1M61.5 2256.3l18.2-.9M82.8 2258.5l10.4 8.4"/></g><g><path class="prefix__st0" d="M1074.7 996.5s29.3-3 21.3-17.2-23 .1-21.3 17.2z"/><path class="prefix__st0" d="M1074.2 996.3s3.9-29.2-11.7-24.7c-15.7 4.6-5.3 22.4 11.7 24.7zM1074 998.1s-22.2 19.4-7.4 26.3c14.8 6.9 18.7-13.4 7.4-26.3z"/><path class="prefix__st0" d="M1073.4 998s-24.4-16.6-27.3-.6c-2.9 16.1 17.7 14.8 27.3.6zM1074.9 998s13.7 26.1 23.9 13.3c10-12.8-8.8-21.3-23.9-13.3z"/><path class="prefix__st1" d="M1059.1 999.1s9 .6 12.8-1.3M1088.1 1003s-7.9-4.9-12.6-5.6M1084.8 985.4s-7.7 6.3-8.8 10.3M1067.5 985l7.2 11.5M1073.9 999.6l-1.6 9.8"/></g><g><path class="prefix__st0" d="M629.4 1227.7s-16.4 29.7 2.3 31.4c18.8 1.6 15-21.9-2.3-31.4z"/><path class="prefix__st0" d="M630 1227.3s25.1 22.9 31.1 5c5.9-17.7-17.9-19.6-31.1-5zM628.3 1225.9s-3.9-33.7-20.1-24.2.5 26.5 20.1 24.2z"/><path class="prefix__st0" d="M628.8 1225.4s31.7-12.2 18.4-25.5c-13.2-13.3-25.5 7.1-18.4 25.5zM627.9 1226.8s-33.7-4.1-28.2 13.9c5.4 17.9 25.9 5.7 28.2-13.9z"/></g><g><path class="prefix__st0" d="M608.6 2196.9s-16.4 29.7 2.3 31.4c18.8 1.6 15-21.9-2.3-31.4z"/><path class="prefix__st0" d="M609.2 2196.6s25.1 22.9 31.1 5c5.9-17.8-17.9-19.6-31.1-5zM607.5 2195.2s-3.9-33.7-20.1-24.2.5 26.5 20.1 24.2z"/><path class="prefix__st0" d="M608 2194.7s31.7-12.2 18.4-25.5c-13.2-13.3-25.5 7.1-18.4 25.5zM607.1 2196s-33.7-4.1-28.2 13.9 25.8 5.7 28.2-13.9z"/></g><g><path class="prefix__st0" d="M770.3 557.8s-13.9 25.2 2 26.6 12.7-18.6-2-26.6z"/><path class="prefix__st0" d="M770.7 557.5s21.3 19.4 26.3 4.3c5.1-15.1-15-16.7-26.3-4.3zM769.3 556.3s-3.3-28.6-17-20.5c-13.7 8 .4 22.4 17 20.5z"/><path class="prefix__st0" d="M769.8 555.9s26.8-10.3 15.6-21.6-21.7 6-15.6 21.6zM769 557s-28.6-3.5-23.9 11.8S767 573.6 769 557z"/></g><g><path class="prefix__st0" d="M46 860.6s28.4-2.9 20.6-16.6-22.3.1-20.6 16.6z"/><path class="prefix__st0" d="M45.5 860.4s3.8-28.3-11.4-23.9-5.1 21.7 11.4 23.9zM45.3 862.2s-21.5 18.8-7.2 25.5 18.2-13 7.2-25.5z"/><path class="prefix__st0" d="M44.7 862.1s-23.6-16.1-26.5-.5 17.2 14.3 26.5.5zM46.1 862.1s13.3 25.3 23.1 12.9-8.4-20.6-23.1-12.9z"/></g><g><path class="prefix__st0" d="M745.7 1676.1s9.3-14.5 31.3-20.8c7.9-2.3 17.4-3.5 28.7-2.7 42.9 3.2 62.1 31.7 62.1 31.7s-8.2 24.3-62.2 22.6c-50.7-1.5-59.9-30.8-59.9-30.8z"/><path class="prefix__st0" d="M777.7 1656.9s7 7.6 6.8 21.6c-.1 14-8.1 23.6-8.1 23.6M865.8 1681.5s3.9-16.7 23-20.9c10.5-2.3 19.4 2.3 19.4 2.3s-15.6 18.8-32.2 21.7c0 0 20.7 4.6 26.6 24 0 0-26.1 5.4-36.2-21"/><path class="prefix__st1" d="M786.9 1653.9s8.6 4.1 8.6 11.8c0 7.6-9.8 9.7-9.8 9.7s10.7 2.4 10 10.3c-.8 7.9-13.4 8.6-13.4 8.6s10.9 5.4 9.9 10.7"/><path class="prefix__st1" d="M795.8 1663.9s11.6 1.8 11.1 10.2-11.2 11.6-11.2 11.6 9.4 6 9.2 12.7c-.2 6.8-9.5 8-9.5 8"/><path class="prefix__st1" d="M805.8 1653.1s9.9 4.4 9.4 10.9-8 10.2-8 10.2 9.9 3.3 9.7 10.4c-.2 8.9-11 11.9-11 11.9s9.9 1.8 9.8 10.3"/><path class="prefix__st1" d="M816.2 1663.1s12.1 4.3 10.9 10.9-10.1 10.9-10.1 10.9 10 2.7 10.4 10-8.8 11.8-8.8 11.8M829 1657.6s7.3 8.3-.7 13.7"/><path class="prefix__st1" d="M827.1 1674s9.1 1.7 9.8 9c.7 7.4-9.5 11.9-9.5 11.9M841.6 1663.6s4.6 8.8-4.3 15.7M834.5 1690.7s7 1.7 4.3 12.7M842.4 1676.4s7.6 3.9 6.8 10.2c-.8 6.2-8.9 9-8.9 9M853.4 1671.2s2.9 6.9-4.2 9.4M849.1 1690.8s4.5 2.1 3.9 7.1M854.4 1677.3s6.3 3.4 5.9 8.2c-.6 6.3-8.2 7.5-8.2 7.5"/><ellipse transform="rotate(-79.66 769.71 1672.481)" cx="769.7" cy="1672.6" rx="3.8" ry="3.1"/><path class="prefix__st1" d="M772.8 1683.5s-3.9 8.5-15.7 6.2M799.8 1652.6s8.4-13.3 18.7-12.5 3.5 9.4 3.5 9.4 7.6-5.6 13.8-2.2c6.2 3.5 1.3 6.4 1.3 6.4s10.7.5 6.2 8.1M802.8 1707.8s5.8 9.6 11.5 10.6 5.7-3.3 5.7-3.3 5.4 5.8 10 5.3 4.6-5.8 4.6-5.8 6.3 2.3 8 .2c4-5.1-2.5-9.8-2.5-9.8"/></g><g><path class="prefix__st0" d="M732.7 52c-2.3 3-2.2 10.6 5.3 12.3 7.5 1.7 11.7-3.1 10.6-8.9s-11.1-9.5-15.9-3.4z"/><path class="prefix__st0" d="M735.5 64.3s-9.9 15.9-8.7 33c.6 7.9 3.3 14.1 5.9 15s10.3-15 11.2-28.1-1.8-19.4-1.8-19.4"/><path class="prefix__st0" d="M748.5 54.4s16.4-28.3 40.9-15.5-2.9 39.7-29.7 41.5c0 0 37.7 2.9 29.2 28.6s-46.8 8.4-46.6-16.5M731.9 53.1s-5-27.9-29.7-24.7-19.6 46.1 15.8 49.7c0 0-37.9-1.1-37.9 21.4s32.9 24.2 46.4-1.9M731.8 71.9s5.4 2.5 11.8 1.8M728.8 80.6s5.4 3.6 14.9 3M727 89.4s7 4.4 15.5 3.3M739 48.6s-2.3-28.1-6.3-31.6-6.8 2.7-5 4.3M744.3 49.4s7.7-25.5 11.5-29.1 8.1 2.4 6 3.9"/><circle class="prefix__st0" cx="777.2" cy="53.4" r="10.7"/><circle class="prefix__st0" cx="705.6" cy="47.1" r="10.3"/><circle cx="705.6" cy="47" r="4.1"/><circle cx="777.2" cy="53.6" r="4.1"/><circle cx="697.1" cy="99.6" r="4.7"/><circle cx="768.9" cy="102.4" r="4"/></g><g><path class="prefix__st0" d="M533.3 1082.4c-.9 2.9 1.3 8.8 7.6 7.9s8.2-5.7 5.6-9.9-11.3-4.1-13.2 2z"/><path class="prefix__st0" d="M538.9 1091.1s-3.1 15.1 2.7 27.9c2.7 5.9 6.6 9.9 8.8 9.9s3.7-14.5.6-24.8-6.9-14.4-6.9-14.4"/><path class="prefix__st0" d="M546.1 1079.7s4.6-26.5 27.1-23.5c22.5 2.9 9.1 31.3-11 40.4 0 0 30.1 7.2 26.8 20-4.4 16.9-29.9 10.1-36.8-5.8M532.9 1083.5s-11.8-20-29.8-10.6c-18.1 9.5-2 41.1 26.2 33.8 0 0-25.8 22-16.5 33.9 6.7 8.5 23.8-2.7 28.6-21.3M538.2 1098s4.8.4 9.6-2M538.4 1105.5s5.1 1.2 12.3-1.9M539.5 1112.8s6.7 1.4 12.9-1.8M536.5 1078.3s-8.8-20.9-12.9-22.5c-4.1-1.6-4.4 4-2.6 4.7M540.9 1077.1s-1.6-20.3.3-24.1 6.9-.5 5.7 1.3"/><circle transform="rotate(-20.265 509.283 1085.79)" cx="509.3" cy="1085.7" r="6"/><circle transform="rotate(-20.265 569.476 1070.284)" cx="569.5" cy="1070.2" r="6.1"/><circle transform="rotate(-20.265 523.961 1127.878)" cx="524" cy="1127.8" r="3.9"/><circle transform="rotate(-20.265 574.07 1114.666)" cx="574.1" cy="1114.6" r="3.3"/><circle transform="rotate(-20.265 561.664 1081.463)" cx="561.7" cy="1081.4" r="3.3"/><circle transform="rotate(-20.265 520.957 1091.286)" cx="521" cy="1091.2" r="3.3"/></g><g><path class="prefix__st0" d="M518.2 342.6s-11.6-22.6 11-35.6c-.1-.1 15 21.2-11 35.6z"/><path class="prefix__st0" d="M555.1 345.1s-17.1 19.6-37.2-2.3c0 0 19.2-16.6 37.2 2.3M517 341.4s-25.3 6.2-29.1-23.3c0 0 25.3-2.5 29.1 23.3"/><path class="prefix__st0" d="M523 379.7s-22.6-12.9-5.1-36.9c0 0 20.1 15.6 5.1 36.9"/><path class="prefix__st0" d="M485.5 362.7s2.4-25.9 31.5-19.9c-.1 0-5.9 24.7-31.5 19.9"/></g><g><path class="prefix__st0" d="M527.6 1396.7s-11.6-22.6 11-35.6c0 0 15 21.2-11 35.6z"/><path class="prefix__st0" d="M564.5 1399.2s-17.1 19.6-37.2-2.3c0 0 19.3-16.6 37.2 2.3M526.5 1395.5s-25.3 6.2-29.1-23.3c0 .1 25.3-2.5 29.1 23.3"/><path class="prefix__st0" d="M532.5 1433.8s-22.6-12.9-5.1-36.9c0 0 20.1 15.6 5.1 36.9"/><path class="prefix__st0" d="M494.9 1416.8s2.4-25.9 31.5-19.9c0 0-5.9 24.7-31.5 19.9"/></g><path class="prefix__st0" d="M833 1579c9.9-9.1 2.2-20.1 2.2-20.1-9 5.2-9.8 12.7-9 17.9-4.7-11.7-18-10.4-18-10.4 1.4 10.5 6.8 14.1 11.5 15.3-11.4 1.8-12.5 13.6-12.5 13.6 9.3 1.7 14.6-2.3 17.6-6.4-3.8 11.6 7 17.7 7 17.7 6.3-9 3.2-16.5.1-20.7 11.4 8.1 20.5-2.3 20.5-2.3-7.1-7.5-14.6-6.6-19.4-4.6zM1064.7 163.3c5-12.5-6.7-19-6.7-19-5.9 8.6-3.4 15.7-.4 20-9.3-8.5-20.7-1.6-20.7-1.6 5.7 8.8 12.2 9.8 17 8.8-9.5 6.5-5.4 17.7-5.4 17.7 9.1-2.4 12.2-8.4 13.1-13.4 1.6 12.1 14 12.9 14 12.9 1.8-10.9-4.2-16.3-8.8-18.8 13.8 2.4 17.5-10.9 17.5-10.9-9.8-3.6-16.1.5-19.6 4.3zM96.3 2357.2c6.7-16.8-8.9-25.5-8.9-25.5-7.9 11.5-4.5 21-.6 26.8-12.5-11.4-27.7-2.2-27.7-2.2 7.7 11.8 16.3 13.2 22.8 11.8-12.7 8.7-7.2 23.6-7.2 23.6 12.2-3.3 16.3-11.3 17.5-17.9 2.1 16.1 18.7 17.3 18.7 17.3 2.4-14.6-5.6-21.8-11.8-25.1 18.5 3.2 23.4-14.6 23.4-14.6-13.1-4.8-21.5.7-26.2 5.8z"/><g><path class="prefix__st0" d="M265.8 1051.9s-21.9 3.2-26.2-19.2c0 .1 21.8-6.3 26.2 19.2z"/><path class="prefix__st0" d="M278.4 1022.2s11.3 19.7-12.5 30c.1.1-8.2-20.5 12.5-30M264.6 1052.6s-2.1 22.6-27.5 17.4c0-.1 5.1-21.6 27.5-17.4"/><path class="prefix__st0" d="M297.9 1058.5s-17 15-31.9-6.3c0 0 18.5-12.1 31.9 6.3"/><path class="prefix__st0" d="M273.2 1084.7s-20.7-9.3-7.5-31.6c0-.1 18.7 11.8 7.5 31.6"/></g><g><path class="prefix__st0" d="M972.2 34.3c12.4-2.6 12.8 5.6 17.1 18.4s16.7 21.8 40.7 22.7c24 .9 36 16.3 36 16.3s-24-3.4-35.5-.9c-11.6 2.6-23.1 7.3-31.3 2.6-8.1-4.7-21 4.7-28.7-.9-7.8-5.5-18.4-54 1.7-58.2zM964 21.1s-1.3 9 2.6 15M982 19.8s-3.4 7.7-1.7 14.6"/><circle cx="964.4" cy="14.6" r="6"/><circle cx="985" cy="13.8" r="6"/><path class="prefix__st0" d="M967.9 45.9s1.3 5.1 5.1 6c3.9.9 6-6 6-6M989.7 50.6c1.3 0 7.7-4.3 11.1-13.7 3.4-9.4 11.6-26.1 36.4-24.8 24.8 1.3 30.4 21.8 30.8 37.7S1057.8 78 1031.7 75s-24-33-9.4-40.3 27.8-.4 28.3 11.6c.4 12-14.6 18.4-19.7 9.8s5.1-13.7 8.1-8.6"/></g><g><path class="prefix__st0" d="M428.5 1610.2c3.8 14.4-9 6.4-21.4 9.6-12.3 3.2-19.5 16.5-23.3 2.1s7.5-29.8 15.5-31.9c8.1-2.1 25.4 5.8 29.2 20.2zM405.7 1579.8c4.5 0 8.1-5 8.2-11.1 0-6.2-3.6-11.2-8-11.2-4.5 0-8.1 5-8.1 11.1-.1 6.1 3.5 11.1 7.9 11.2zM389 1584.2c3.9-2.2 4.5-8.3 1.5-13.7-3.1-5.4-8.7-7.9-12.6-5.7-3.9 2.2-4.5 8.3-1.5 13.7 3.1 5.3 8.7 7.9 12.6 5.7zM377.7 1589.2c-3.8-3.9-9.2-4.8-12-2s-2 8.2 1.9 12.1 9.2 4.8 12 2c2.8-2.8 1.9-8.2-1.9-12.1zM427.6 1570.9c-3.8-1-8.1 2.4-9.5 7.7-1.4 5.3.5 10.4 4.3 11.4s8.1-2.4 9.5-7.7c1.4-5.2-.5-10.3-4.3-11.4z"/></g><g><path class="prefix__st0" d="M1073.4 564.8c-3.4 16.3-12.2 1.9-26.2-1s-27.8 6.8-24.4-9.5c3.4-16.3 22.4-26.1 31.4-24.2 9.2 1.8 22.6 18.4 19.2 34.7zM1065.8 523c4.5 2.2 10.6-.9 13.7-7.1 3.1-6.2 2-13-2.4-15.2-4.5-2.3-10.6.9-13.7 7.1-3.2 6.1-2.1 12.9 2.4 15.2zM1046.9 519c5-.3 8.7-6.1 8.3-13-.4-6.9-4.7-12.3-9.7-12s-8.7 6.1-8.3 13c.3 6.9 4.7 12.3 9.7 12zM1033 518.4c-1.9-5.8-6.9-9.4-11.1-8-4.2 1.4-6 7.2-4.1 13s6.9 9.4 11.1 8c4.2-1.3 6-7.2 4.1-13zM1092.1 525c-3.3-2.9-9.3-1.6-13.3 2.9-4.1 4.6-4.7 10.6-1.4 13.6 3.3 2.9 9.3 1.6 13.3-2.9 4-4.6 4.7-10.6 1.4-13.6z"/></g><path class="prefix__st2" d="M1035.2 810.6c-1.9 2.6-4.4 5.2-6.8 7.9-1.1-5.9-2.6-12.6-3.6-17.2-1.4-6.4-2.2-14.7-3.9-16.1l-1.8.3c-1.6 1.5.8 11.8 2 19.2.7 4.6.7 9.9 1.1 15-3.8-2.4-7.9-4.8-10.8-6.7-4.3-2.8-9-7.1-10.8-6.9l-.9 1.2c-.1 1.7 7.1 6.2 11.8 9.6 4 2.9 7.8 7.4 12.2 10.2.4.2.8.3 1.2.4.6.2 1.2.4 1.8.3.7-.1 1.3-.4 1.8-.9.3-.2.6-.4.8-.7 3.2-4.4 6.6-11 9.3-15.2 2.8-4.3 7.6-9.3 7.4-11l-1.2-.9c-1.7-.2-6.2 6.9-9.6 11.5zM1081.9 763.6c-3 1.2-6.5 2-9.9 3.1 2.2-5.6 4.4-12 6.1-16.5 2.3-6.1 6-13.7 5.3-15.7l-1.7-.7c-2.1.4-5.6 10.5-8.5 17.3-1.8 4.3-4.7 8.8-7.1 13.3-1.9-4-4.2-8.3-5.6-11.4-2.2-4.6-3.9-10.9-5.4-11.6l-1.4.5c-1 1.4 2.7 9 4.8 14.4 1.8 4.6 2.7 10.4 4.9 15.1.2.4.5.7.8.9.3.5.8 1 1.4 1.2.7.3 1.4.3 2 .2.4 0 .7 0 1.1-.1 5-2 11.4-5.9 15.9-8 4.6-2.2 11.4-3.8 12.2-5.4l-.6-1.4c-1.4-.9-8.9 2.7-14.3 4.8z"/><g><path class="prefix__st0" d="M49.9 279.6c4.5 10.4 2.3 28.7-8.1 33.1-4.2 1.8-8.7 2.1-12.8 1.1 0 0 31.1 48.9 52.6 39.7 21.5-9.2 7.5-65.5 7.5-65.5-2.1 3.7-5.4 6.7-9.6 8.5-10.4 4.6-25.1-6.5-29.6-16.9z"/><path class="prefix__st0" d="M61.9 307.7l15.1 36 3-33.4M50.9 325.1L77 343.7"/></g><g><path class="prefix__st0" d="M996.4 1776.8c-1.4 7.8-9.6 17.6-17.4 16.2-3.1-.6-5.8-2.1-7.9-4.3 0 0-.6 40.4 15.5 43.3 16 2.8 29.4-35.3 29.4-35.3-2.6 1.3-5.7 1.9-8.9 1.3-7.7-1.4-12-13.4-10.7-21.2z"/><path class="prefix__st0" d="M992.7 1797.7l-5 26.7 14.5-18.3M979.7 1803.6l8 20.8"/><g><path class="prefix__st0" d="M1088.3 1747.8c-4.1 6.8-15.3 13-22 9-2.7-1.6-4.7-4.1-5.8-6.8 0 0-14.9 37.6-.9 45.9 14 8.4 40.1-22.5 40.1-22.5-2.9.3-6-.3-8.7-1.9-7-4.1-6.8-16.9-2.7-23.7z"/><path class="prefix__st0" d="M1077.4 1766l-14.2 23.2 20.1-11.9M1063 1766.9l.2 22.3"/></g><g><path class="prefix__st0" d="M1036.9 1862.2c-4.1 6.8-15.3 13-22 9-2.7-1.6-4.7-4.1-5.8-6.8 0 0-14.9 37.6-.9 45.9 14 8.4 40.1-22.5 40.1-22.5-2.9.3-6-.3-8.7-1.9-7-4.1-6.8-16.9-2.7-23.7z"/><path class="prefix__st0" d="M1026 1880.4l-14.2 23.2 20.1-11.9M1011.7 1881.3l.1 22.3"/></g></g><g><path class="prefix__st0" d="M754.1 1814.4c-6.4-3.9-10-10.4-17.8-8-7.5 2.3-6.7 9.5-9.7 16-2.7 5.8-10.3 9.3-7.7 17.6 3.1 9.9 16.3 12.1 30.4 7.7 14.1-4.4 23.7-13.8 20.6-23.6-2.4-7.7-10.7-6.6-15.8-9.7zM758 1800.2c-.7 5.1.9 8.8 5.5 7.4 4.5-1.4 7.1-6.3 5.6-10.8-1.4-4.5-3.9-13.4-8.5-19.7 3.6 12.1-2 18.4-2.6 23.1zM715.5 1813.7c-2.8-3.8-14.5-7.6-16.4-17.3-1.3 5.1 2.8 16.5 4.2 21s6.3 7.1 10.8 5.7c4.6-1.5 4.2-5.6 1.4-9.4zM744.7 1794.3c4.5-1.4 4.6-5.3 3.2-9.8-1.4-4.5-10.4-16.6-13.2-18.3 6 13.1 1.3 16.6 1.4 21.3.1 5.1 4.1 8.2 8.6 6.8zM723.2 1801.2c4.5-1.4 6.1-6.7 3.6-9.9-2.9-3.8-12.4-5-12.5-18.6-3.8 5.1-2.3 18.3-.9 22.8s5.3 7.1 9.8 5.7z"/></g><g><path class="prefix__st0" d="M417.2 918.9c0 4.5-5.1 6.3-11.3 6.3-6.2 0-11.3-1.8-11.3-6.3s5.1-8.2 11.3-8.2 11.3 3.7 11.3 8.2zM437 899.1c0 3-2.6 3.4-5.8 3.4s-5.8-.4-5.8-3.4 2.6-5.5 5.8-5.5 5.8 2.5 5.8 5.5z"/></g><g><path class="prefix__st0" d="M48.5 596.9c0 4.5-5.1 6.3-11.3 6.3s-11.3-1.8-11.3-6.3 5.1-8.2 11.3-8.2 11.3 3.7 11.3 8.2zM68.4 577.1c0 3-2.6 3.4-5.8 3.4s-5.8-.4-5.8-3.4 2.6-5.5 5.8-5.5 5.8 2.5 5.8 5.5z"/></g><g><path class="prefix__st0" d="M285 1830.2c0 4.5-5.1 6.3-11.3 6.3-6.2 0-11.3-1.8-11.3-6.3s5.1-8.2 11.3-8.2 11.3 3.6 11.3 8.2zM304.9 1810.3c0 3-2.6 3.4-5.8 3.4-3.2 0-5.8-.4-5.8-3.4s2.6-5.5 5.8-5.5 5.8 2.5 5.8 5.5z"/></g><g><path class="prefix__st0" d="M38.5 952c0 4.5-5.1 6.3-11.3 6.3s-11.3-1.8-11.3-6.3 5.1-8.2 11.3-8.2 11.3 3.7 11.3 8.2zM58.4 932.2c0 3-2.6 3.4-5.8 3.4s-5.8-.4-5.8-3.4 2.6-5.5 5.8-5.5 5.8 2.4 5.8 5.5z"/></g><g><path class="prefix__st0" d="M248 104.7c0 4.5-5.1 6.3-11.3 6.3s-11.3-1.8-11.3-6.3 5.1-8.2 11.3-8.2 11.3 3.6 11.3 8.2zM267.9 84.8c0 3-2.6 3.4-5.8 3.4-3.2 0-5.8-.4-5.8-3.4s2.6-5.5 5.8-5.5 5.8 2.5 5.8 5.5z"/></g><g><path class="prefix__st0" d="M902.8 67.7c0 4.5-5.1 6.3-11.3 6.3s-11.3-1.8-11.3-6.3 5.1-8.2 11.3-8.2 11.3 3.7 11.3 8.2zM922.7 47.9c0 3-2.6 3.4-5.8 3.4s-5.8-.4-5.8-3.4 2.6-5.5 5.8-5.5c3.1 0 5.8 2.4 5.8 5.5z"/></g><g><path class="prefix__st0" d="M482.8 1975.7c0 4.5-5.1 6.3-11.3 6.3-6.2 0-11.3-1.8-11.3-6.3s5.1-8.2 11.3-8.2c6.3 0 11.3 3.7 11.3 8.2zM502.7 1955.9c0 3-2.6 3.4-5.8 3.4s-5.8-.4-5.8-3.4 2.6-5.5 5.8-5.5 5.8 2.5 5.8 5.5z"/></g><g><path class="prefix__st0" d="M1072.9 1353.3c0 4.5-5.1 6.3-11.3 6.3s-11.3-1.8-11.3-6.3 5.1-8.2 11.3-8.2 11.3 3.7 11.3 8.2zM1092.7 1333.5c0 3-2.6 3.4-5.8 3.4-3.2 0-5.8-.4-5.8-3.4s2.6-5.5 5.8-5.5 5.8 2.4 5.8 5.5z"/></g><g><path class="prefix__st0" d="M780.3 1453.9c0 4.5-5.1 6.3-11.3 6.3s-11.3-1.8-11.3-6.3 5.1-8.2 11.3-8.2 11.3 3.7 11.3 8.2zM800.2 1434.1c0 3-2.6 3.4-5.8 3.4s-5.8-.4-5.8-3.4 2.6-5.5 5.8-5.5c3.2 0 5.8 2.5 5.8 5.5z"/></g><g><path class="prefix__st0" d="M810.1 867c0 4.5 5.1 6.3 11.3 6.3s11.3-1.8 11.3-6.3-5.1-8.2-11.3-8.2-11.3 3.7-11.3 8.2zM779 883.8c0 3 2.6 3.4 5.8 3.4s5.8-.4 5.8-3.4-2.6-5.5-5.8-5.5-5.8 2.5-5.8 5.5z"/></g><g><path class="prefix__st0" d="M316.8 2380.9c0 4.5 5.1 6.3 11.3 6.3s11.3-1.8 11.3-6.3-5.1-8.2-11.3-8.2-11.3 3.7-11.3 8.2zM285.6 2397.7c0 3 2.6 3.4 5.8 3.4 3.2 0 5.8-.4 5.8-3.4s-2.6-5.5-5.8-5.5c-3.1 0-5.8 2.4-5.8 5.5z"/></g><path class="prefix__st0" d="M868.4 535.1c0 4.5-5.1 6.3-11.3 6.3s-11.3-1.8-11.3-6.3 5.1-8.2 11.3-8.2c6.3 0 11.3 3.7 11.3 8.2zM888.3 515.3c0 3-2.6 3.4-5.8 3.4s-5.8-.4-5.8-3.4 2.6-5.5 5.8-5.5 5.8 2.5 5.8 5.5z"/><g><path class="prefix__st0" d="M388 410.6c0 5 5.5 6.9 12.4 6.9s12.4-2 12.4-6.9-5.5-9-12.4-9-12.4 4-12.4 9zM411.8 384.1c0 2.5 2.8 3.5 6.2 3.5s6.2-1 6.2-3.5-2.8-4.5-6.2-4.5-6.2 2-6.2 4.5zM373.6 380.3c0 3.8 3.3 4.4 7.4 4.4s7.4-.5 7.4-4.4c0-3.8-3.3-7-7.4-7s-7.4 3.2-7.4 7z"/></g><g><path class="prefix__st0" d="M881 1793.1c0 5 5.5 6.9 12.4 6.9s12.4-2 12.4-6.9-5.5-9-12.4-9-12.4 4.1-12.4 9zM904.8 1766.6c0 2.5 2.8 3.5 6.2 3.5s6.2-1 6.2-3.5-2.8-4.5-6.2-4.5-6.2 2-6.2 4.5zM866.6 1762.8c0 3.8 3.3 4.4 7.4 4.4 4.1 0 7.4-.5 7.4-4.4s-3.3-7-7.4-7c-4.1.1-7.4 3.2-7.4 7z"/></g><g><path class="prefix__st0" d="M130.7 1467.5c0 5 5.5 6.9 12.4 6.9 6.8 0 12.4-2 12.4-6.9s-5.5-9-12.4-9-12.4 4-12.4 9zM154.5 1440.9c0 2.5 2.8 3.5 6.2 3.5s6.2-1 6.2-3.5-2.8-4.5-6.2-4.5-6.2 2-6.2 4.5zM116.3 1437.2c0 3.8 3.3 4.4 7.4 4.4s7.4-.5 7.4-4.4c0-3.8-3.3-7-7.4-7s-7.4 3.1-7.4 7z"/></g><g><path class="prefix__st0" d="M755.2 2414.5c0 5 5.5 6.9 12.4 6.9 6.8 0 12.4-2 12.4-6.9 0-5-5.5-9-12.4-9s-12.4 4-12.4 9zM779 2387.9c0 2.5 2.8 3.5 6.2 3.5s6.2-1 6.2-3.5-2.8-4.5-6.2-4.5-6.2 2-6.2 4.5zM740.8 2384.2c0 3.8 3.3 4.4 7.4 4.4s7.4-.5 7.4-4.4c0-3.8-3.3-7-7.4-7s-7.4 3.1-7.4 7z"/></g><g><path class="prefix__st0" d="M729 1624.1c0 5 5.5 6.9 12.4 6.9s12.4-2 12.4-6.9-5.5-9-12.4-9-12.4 4-12.4 9zM752.8 1597.5c0 2.5 2.8 3.5 6.2 3.5s6.2-1 6.2-3.5-2.8-4.5-6.2-4.5-6.2 2-6.2 4.5zM714.6 1593.8c0 3.8 3.3 4.4 7.4 4.4 4.1 0 7.4-.5 7.4-4.4s-3.3-7-7.4-7c-4.1 0-7.4 3.1-7.4 7z"/></g><g><path class="prefix__st0" d="M152.6 1722s3.7-30.1-14.7-28.1c-9.2 1-4.1 18.8-4.1 18.8s-6.5-10.3-13-4.5 1.7 14 1.7 14-7.9-4.5-11.6 3.1c-3.8 7.5 9.1 15.2 9.1 15.2"/><path class="prefix__st0" d="M168.6 1733.8s-11.6-17.7-30.3-10-22.3 20.3-21.3 56.5"/><path class="prefix__st0" d="M125.4 1813.4s3.9-20.8-15.9-41.3-29.3-34.7-36.2-30.6c-6.9 4.1 19.8 35.2 19.8 35.2s-11-13.1-16.7-11c-5.6 2.1 15.2 25.7 15.2 25.7s-13.6-8.7-17.2-5.6 13.6 17.7 13.6 17.7-10.3-2.1-10 4.6 18.2 9.5 18.2 9.5-4.9 4.9-2.3 9.2c2.6 4.4 13.9 3.6 16.2-2.8"/><path class="prefix__st0" d="M182.2 1773.6s3.1 9.8 13.1 22.1 20.5 59.6-20 78.1c-40.6 18.5-89.6 2.1-116.3-55.5 0 0-32.1-7.4-30.8-16.7 1.3-9.2 22.3 3.1 22.3 3.1s-31.3-23.9-24.9-30.8 31.6 23.4 31.6 23.4-28-32.1-20.3-38.5 27.2 33.9 27.2 33.9-11.3-28-3.3-30c8-2.1 12.6 23.9 12.6 23.9"/><path class="prefix__st0" d="M203.8 1817.5s12.3-4.1 19.3-16.9c6.9-12.8 2.1-16.9-5.6-8.7 0 0 16-17.7 10.3-24.4-4.4-5.1-17.2 11-17.2 11s17.7-20.3 10-25.9c-8.3-6.1-25.9 16.9-30.6 35.4M96 1866.3s-4.3 9.9-15.1 21.2c0 0 18 4.2 21.3 18.1l-17.7-10.5s7.7 17.3 1.4 22.8l-8.7-22.2s-4 14.5-10.3 13.7c0 0-1.2-11 7.9-24.7s14.5-23.3 14.5-23.3M140.9 1881.3s1.8 18.4 1.1 26.4 1.9 11.2 7 13.8c5.2 2.7 13 10.5 15.3 8.9s-3.5-10.3-11.7-13.8c0 0 23.8 5.8 24 .6s-15.3-8.6-24.5-7c0 0 16.4-6.4 14.9-9.3s-9.9-2-17.2 4.5c0 0-2.2-17-.8-23.5M150.6 1736.9s.8 8.2-6.9 9.2-8.2-4.4-8.2-4.4M165.8 1746.6s-.9 7.5-2.7 17.1 1.2 12.2 4.6 11.8 7.7-4.6 5.8-13.5c0 0 3.3 14.2 9.6 10.6s1.4-16.3-6.3-21.7M167 1741.3c-1.6-3.2.7-7 11.3-13.2s19-7.7 19-7.7-5.5 12.1-19.7 18.7c-8.9 4.1-9.8 3.9-10.6 2.2z"/><path class="prefix__st0" d="M174.1 1741c8.9-.3 17.1 7.7 16.6 8.6 0 0-5.2 1.7-18.7.2-6-.7-7.2-3.6-5.8-7.7M192.2 1792.3s2.6 6.7-3.3 10-12.8-9.2-12.8-9.2.3 16.2-6.7 16.9c-6.9.8-7.7-12.1-7.7-12.1s-2.1 10.5-8.7 10.8c-6.7.3-7.2-10-7.2-10s-3.1 9.2-10.5 10c-7.4.8-11-12.2-11-12.2M188.7 1831.2s-3.1 4.6-8.7 1.7M168.3 1833.1s-3.3 4.5-10.1 1M146.2 1832.9s-5.3 5.5-10.1-.5M182 1847.8s-2.9 6.5-9.4.9M155.1 1847.5s-4.3 6.3-9.9.2"/></g><g><path class="prefix__st0" d="M343.7 1982.8c-2.2-1.3-6.4-19.6-18.5-10.9-15.3 10.9 2.4 19.6.5 22.2-1.8 2.6-9.9 7.7-6.5 16.2s13.5 5.6 13.8 10.5-6.2 14.9.8 20.9 14.1.8 16.8 5.1-.3 17.7 11.4 23.5c11.7 5.8 24.2-3.5 24.2-3.5s16.8-17.2 12-26.5-13.6-5.9-15.4-12.3 7-13.2-2.3-20.5c-9.2-7.3-17.3.3-19.9-5.3-2.6-5.5 5.9-9.8-1.3-17.9-7.4-8.2-15.6-1.5-15.6-1.5zM325.1 1974s40.8 83.5 80.1 102.2"/><path class="prefix__st0" d="M353.8 1982.1s-6.2 18.6-4.2 33c0 0-17.7-10.2-30.7-7.6M376.7 2006.2s-8.5 15.7-7.7 37.5c0 0-17.6-12.1-37-6.7M391.6 2034.7s-8.6 10.2-10 22.3c0 0-19.8-1.3-26.6 5"/></g><g><path class="prefix__st0" d="M211.9 1580.3c-1.2-1-7.2 5.4-11 4.4-3.9-1-11.8-4.6-13.4-2.1-1.5 2.6 8.2 22.3 31.3 17.7 0 0 3.6-11.8-6.9-20z"/><path class="prefix__st0" d="M210.6 1579.8s1.2-19.7 19-24.4c11.6-3.1 16.4 0 16.4 0s-3.6-9.5 0-11.8 4.9 6.9 4.9 6.9-.3-9 3.9-9.8c4.1-.8.3 15.2 4.9 19 4.6 3.9 21.8 19 10 41.9s-49.8 16.7-55 0"/><path class="prefix__st0" d="M242.2 1616.8s-2.8 29 32.1 30.6c34.9 1.5 40.1-23.9 37.7-37 0 0 10-9.8 6.7-16.2-3.3-6.4-8 5.6-8 5.6s-.3-9.5-4.4-9.2-2.6 12.3-2.6 12.3-19 4.1-34.2-1.3"/><path class="prefix__st0" d="M266.6 1628.6s5.4 9 20 8.2 10.5-10 3.9-9.5c0 0 6.7-2.6 4.1-6.7s-13.4 0-13.4 0M290.4 1647.5l1 9.7s-18.9-4.1-21.1 1.1 11.7 4.2 11.7 4.2-13.3 5.7-10.7 10c2.6 4.3 14.1-3.7 14.1-3.7s-8.1 9.4-3.1 10.6c5 1.3 15.6-14.6 16.1-18.9s-2.2-15.2-2.2-15.2M256.2 1644.8l-5.5 14.5s-12-13.7-15.8-9.9c-3.9 3.8 6 9.7 6 9.7s-13-2.5-13.3 2.6 14.4 4 14.4 4-7.3 6.6-3.5 9.4c3.7 2.8 16.6-7.8 18.5-11.3 1.9-3.4 6.2-16.9 6.2-16.9"/><circle transform="rotate(-70.931 241.867 1582.883)" class="prefix__st0" cx="241.9" cy="1582.8" r="10.5"/><circle transform="rotate(-70.931 239.268 1582.328)" cx="239.3" cy="1582.3" r="3.3"/></g><g><path class="prefix__st0" d="M71.1 1549.7c-2.7-3.1 6.7-14.9 11.6-13.6s7.2 7.7 13.9 7.7 10 5.1 7.7 10c-2.4 4.9-22.2 8.5-33.2-4.1z"/><path class="prefix__st0" d="M98.8 1542.5s8.1-19.2-8.5-30c-8.2-5.4-17.7-7.7-17.7-7.7s6.7-2.6 4.6-5.6c-2.1-3.1-9.5.8-9.5.8s5.9-3.9 2.3-6.9-14.4 5.1-17.2 13.1c0 0-24.7 8.5-21.3 33.9 3.3 25.4 35.9 25.4 51.1 18"/><path class="prefix__st0" d="M55.7 1563s-5.9 33.4 33.1 37.2c39 3.9 43.4-32.6 43.4-32.6s12.1-3.9 11-7.7c-1-3.9-5.9-1-5.9-1s8.2-4.6 5.6-8.7-8.5 3.1-8.5 3.1 4.4-10.5.5-12.6-3.6 9-9.5 11.8-21.3 1.3-21.3 1.3"/><path class="prefix__st0" d="M71.1 1596.2l-5.9 7.7s-11-15.9-16.2-13.6c-5.1 2.3 5.6 11 5.6 11s-13.6-4.9-14.6 0 12.8 6.9 12.8 6.9-12.3 1.3-9.5 5.6c2.8 4.4 21.3 0 24.7-2.8s8.7-12.6 8.7-12.6M104 1600.5l5.1 14.6s-18-2.8-18.5 2.6 10.8 3.6 10.8 3.6-11.6 6.4-8.5 10.5 13.6-6.2 13.6-6.2-1.3 9.8 3.3 9.5c4.6-.3 7.7-16.7 6.9-20.5-.8-3.9-6.2-16.9-6.2-16.9M87.5 1575.6s13.1 10.3 20 5.6c6.9-4.6-6.9-8-6.9-8s12.3 5.1 15.9 1.5-6.2-7.7-6.2-7.7 9 1.8 9.2-2.3-8.2-3.9-8.2-3.9"/><circle transform="rotate(-70.44 53.598 1535.118)" class="prefix__st0" cx="53.6" cy="1535.1" r="10.5"/><circle transform="rotate(-70.44 56.116 1536.794)" cx="56.1" cy="1536.8" r="3.3"/><circle transform="rotate(-70.44 88.935 1528.264)" class="prefix__st0" cx="88.9" cy="1528.3" r="9.5"/><circle transform="rotate(-70.44 91.276 1529.768)" cx="91.3" cy="1529.8" r="3"/></g><g><path class="prefix__st0" d="M695.2 2292.9s-4.1-9.5 5.4-11.1 8.7 13 2.2 14.6"/><path class="prefix__st0" d="M665.9 2390.3s11.4 23.1 16.5 26.3c5.2 3.3 14.6 2.7 16-2.4 1.4-5.2-10-4.6-10-4.6s-1.1-2.4-11.4-23.6-5.2-42.9 1.1-46.4c6.2-3.5 6.2-9.2 6.2-9.2-9.2-2.7-7.9-12.5-7.9-12.5 6.8 5.4 17.1 2.2 17.1 2.2s6.2-8.4 8.1-18.2-7.9-8.1-7.9-8.1-9.8 4.1-19.8-.5-21.9-5.8-31.2 2.2c-7.6 6.5-7.6 21.2-7.6 21.2M665.7 2382.4s1.1 23.9-12.8 36.9"/><path class="prefix__st0" d="M639.3 2414.4s15.5 8.1 23.9 9c0 0 1.9-9 7.1-9.2s6.5 12.2 3 17.4-45.3-4.6-45.3-4.6M638.8 2319.2s-12.2-7.6-15.5 2.2 13.3 7.3 13.3 7.3"/><path class="prefix__st0" d="M633.4 2330.1s-1.1 7.1-9 21.2-11.1 26.6-7.9 34.5c0 0-4.9 1.1-6.2-3.8 0 0 0 21.7 16.8 35.8 0 0-4.6 2.7-9.8 1.6 0 0 6 6.5 12.8 8.4 0 0-13.6 6-23.3-1.4 0 0 1.6 5.7 3.3 7.3 0 0-11.7 1.1-16.5-6.2l-1.9 5.7s-16.5 2.4-26-13.6l-3 5.2s-3.5-4.6-4.1-10.9l-4.3 3.3s1.6-2.2-2.2-11.7-6-21.2-6-21.2l-5.7 4.6s-2.2-10.9 4.6-20.6l-7.6.8s4.3-35.8 32.6-54.5c0 0-6.5.3-7.9-1.6-1.4-1.9 14.4-6.8 14.4-6.8s-7.1-2.2-6.2-4.3c.8-2.2 19.8-4.9 19.8-4.9s9.2-10 25.5-18.4c0 0-6-1.9-5.4-4.1s9.8-1.4 9.8-1.4-6.5-5.4-4.6-6.2 10.3-.8 17.4 3.5c0 0 1.1-5.4 0-9 0 0 5.4 3.8 6.5 6.8l.8-7.9s8.1 4.1 10 10.6l4.3-9.5s3.3 3.5 3.3 9l5.4-7.1s2.7 7.6-1.6 15.5c0 0 5.4-5.7 13-4.1 0 0-8.7 5.7-8.4 14.6M593.8 2353.1l-.6 6.8M577.2 2363.1l-.8 7.1M569.1 2347.7l-6.3 6.2M599.7 2317l-8.6 2.7M601.1 2300.5l8.7 1.3M622.8 2283.9l2.2 6.5M564.5 2394.9l-3 6M577.5 2400.9v7.8M591.6 2400l1.9 7.4M611.4 2347.4l-2.4 8.4"/><circle class="prefix__st0" cx="658.6" cy="2309.2" r="9.5"/><path class="prefix__st0" d="M644.2 2301.6s-3.8 3.5-1.6 8.1M629.3 2323s4.9-2.4 7.9.5"/><circle cx="660.6" cy="2305.8" r="3.1"/></g><g><path class="prefix__st0" d="M744 1942.7c-10.4-6.3-27.8-13.3-34.6 4.4s-4.7 41.1 2.6 44.3c7.3 3.2 32.7 1.4 45-24.4 5.9-12.4-13-24.3-13-24.3z"/><path class="prefix__st0" d="M733.5 1937.6c-8.6-4.2-9.8-13.2-9.8-13.2 11.2.4 18.6 9.3 18.6 9.3 1.4-7.6 10.7-10.6 10.7-10.6s1.8 6.8-1.9 13.4c0 0 9.6-1.2 17.5 4.3 0 0-3 4.2-11.6 4.1 0 0 8.2 4.8 8.6 10.9 0 0-7.1-.4-12.4-5.1M720.7 1943.4l-.9 2.7M740.1 1956.5l-1.8 2.8M730.5 1950.2l-1.9 2.9M749 1962.5l-1.9 2.9M715.8 1957.7l-1 3M737.9 1971.6l-1.8 2.2M728 1964.6l-1.8 2.2M725.2 1978.2l-1.7 2.9M715.6 1972.8l-1.7 2.9"/></g><g><path class="prefix__st0" d="M349.5 2245.6c3.6 22.1 27.8 39.9 27.8 39.9 2.9 25 23.5 44.9 27.8 54.9s-15 48.5-15 48.5c-13.6 6.4-20 21.4-19.3 27.1s36.4 5 42.1-1.4 0-17.8 0-17.8c2.9-15 23.5-45.7 16.4-59.9-7.1-14.3-12.8-32.1-1.4-60.6s17.8-77-5-104.9c-22.8-27.8-42.8-26.4-81.3-23.5s-94.2.7-102-4.3c0 0-62.1-72-98.4-97.7 0 0 6.3-34-5.7-40.7-6.4-3.6-15.7 20-14.3 30M122 2126.5s23.1 33 37.8 82c2.1 7.1-2.6 41.5 35.7 60.6 4.3 2.1 27.4 69.5 37.3 127.1 0 0-12.8 20-8.6 27.8 4.3 7.8 32.1.7 35.7-8.6s-4.3-25-4.3-25-7.9-77.9-15.9-122.5c-.5-2.6-.9-5-1.4-7.4"/><path class="prefix__st0" d="M358.1 2269.2s-20.7 14.3-57.1 15-60.6-13.6-60.6-13.6M180.4 2259.5s14.4 72.8 9.4 130.2c0 0-12.1 10.7-12.1 23.5s28.5 7.8 34.2-4.3 1.8-50.1 4.7-81.5M432.3 2262s-.7 24.3 16.4 37.1 17.1 33.5 15.7 84.2c0 0 6.3 12.6 2.1 25-1.4 4.3-35 5-39.2.7-4.3-4.3 17.8-25 17.8-25s-.7-35.7-7.8-52.8c0 0-15-15.7-15.7-22.1M80.6 2050.2s-16.1 20.7-17.5 37.5-26.4 43.9-23.5 56.7 23.2 26.8 38.2 21.8 32.8-35 49.6-42.1 29.2-21.8 28.5-36M142.6 2042.3s20.4-6.9 28.9-1.4c5 3.2-8.6 4.3-12.5 6.8 0 0 11.2-2 20.3 7.1 3.6 3.6-11.4 2.5-11.4 2.5s12.8 2.1 22.1 10.7-4.6 6.1-4.6 6.1 14.3 2.1 24.6 17.5-5.7 2.9-5.7 2.9 13.1 5.9 21.4 22.5c2.9 5.7-2.9 2.5-2.9 2.5s12.5 5 16.8 14.3 1.4 10.7 1.4 10.7M123.7 2038.4s-6.4-12.5-20-12.5-22.4 6.7-25.7 15c-1.4 3.6 16.4-8.9 26.8-8.2"/><path class="prefix__st0" d="M118.7 2041.6s-9.3-2.1-15 5.7-9.6 21.4-13.6 21.4-2.5-26 15.3-31.4"/><path class="prefix__st0" d="M92 2035.5s-13.6 7.1-11.4 23.2c1 7.4 7.7-7.5 13.4-12.8M86.1 2030.2s-10.2-20.7-23-20.7c-1.8 0-10 22.8 15.2 43.3M50.4 2115.8s10-15.2 18.2-12.7 2.1 26.6 9.1 28.9c7 2.3 21-4.5 20.7 17.5"/><path d="M58 2149.7c1.5 2.7 14.4-6.3 9.5-11.7-5-5.4-12.9 5.6-9.5 11.7z"/><path class="prefix__st0" d="M83.3 2147.2s-1.9 13.4-20.1 18.7"/><circle class="prefix__st0" cx="113.8" cy="2080.3" r="12.6"/><path class="prefix__st0" d="M58.4 2134.1s6.4-6.2 11.5-1.9 3.7 10.2 3.7 10.2M68.3 2070.5s-8.3-.9-11 9.3 4.7 12.5 4.7 12.5M189.7 2389.7s0 6.5 8.3 7 16.3-4.5 16.3-4.5M232.8 2396.3s1.3 4.5 8.3 4.2 14.7-8.6 14.7-8.6M390.2 2389s-.1 4.5 6.1 6.4 16.8 1.4 16.8 1.4M445.1 2384s1.4 3.4 8.1 3.1c6.7-.3 11.1-3.8 11.1-3.8M417.6 2165.4s13.9-13.9 31-10.2 43.9 23 65.3 13.9 21.4-27.8 17.1-36.4c0 0 20.9 25.7-10.2 54.6"/><path class="prefix__st0" d="M426.2 2174.5s19.8-3.7 27.8 7.5 24.1 47.1 61.5 32.6c37.5-14.4 30-52.4 30-52.4s2.1 10.7-15.5 16.6"/><path class="prefix__st0" d="M423 2171.4s20.9-11.9 37.5 3c16.6 15 21.9 36.9 49.8 31 27.8-5.9 34.8-36.4 34.8-36.4"/><circle cx="117.7" cy="2080.3" r="3.9"/><path class="prefix__st0" d="M292.1 2284.1s-6.8-20 7.5-50.6c0 0-4.6 29.6 7.8 50.3M303.9 2149.7s-7.1 8.2-5.7 23.2 3.9 35.7-3.6 49.6c0 0 0-20.7-5.7-37.5s-2.1-36.4-2.1-36.4M323.8 2149.7s-15.7 24.6-15.3 66.3c0 0 12.1-51.4 35.7-68.5M267.8 2148.2s-8.2 21.4-.4 36.4c7.8 15 14.3 28.9 10 48.5s-4.3 34.2 0 41.7c0 0-16.3-6.6-12.1-42.8 1.8-15.3-9.3-31.7-14.3-48.5s-3.6-31.7-.7-36.7M372.7 2146.8s-30.3 7.8-43.5 43.2c-13.2 35.3-10 61.3-8.2 63.8s6.8-50.6 39.6-78.1 41-22.1 41-22.1M415.1 2163.9s-48.5 15-58.5 67.8c0 0 34.6-58.1 69.9-53.5M354.9 2262s15.7-51.4 81.7-56M360.2 2267.4s20.3-47.1 78.1-48.2M369.5 2278.1s11.1-33.2 66.3-31M373.1 2280.9s18.9-22.8 60.3-20.3M378.8 2290.2s16.4 5.4 46-5.7M380.2 2299.5s19.6 6.8 41.4-2.5M396.2 2325.5s11.4-4.6 26.4-4.3M403.4 2335.5s8.9-5.4 23.9-3.2M330.6 2279.9c-5-26.8 6.8-42.1 6.8-42.1s-2.9 23.5 3.9 38.5M243.2 2145.7s-8.6 29.2-2.1 49.6c6.4 20.3 14.1 27.2 10 57.1-1.4 10.3 3.6 18.5 3.6 18.5s-11.8-5-11.4-30.3-12.1-31.7-13.2-54.6c-1.1-22.8 6.8-44.9 6.8-44.9M173.7 2251.3s1.4-12.5 20-30.3c18.5-17.8 19.3-25 25-22.8 5.7 2.1 4.3 41.7 13.9 53.1 0 0-11.4-5.4-16.4-22.5s-29.6 10.7-32.8 32.1M162.6 2221.7s40.3-18.2 69.2-86M222.5 2125.4s-10.7 51.7-61.3 91M201.9 2102.6s1.1 51-44.9 94.5M194.7 2095.1s-8.9 54.6-41.4 92M184 2084.8s-10 48.5-44.2 71.3M179.4 2079.4s-17.8 44.2-44.9 65.6"/><path class="prefix__st0" d="M195.8 2253.8c-2.4-2.7 8.9-12.8 13.2-12.8s12.1 13.9 11.1 16.1c-1.1 2.1-7.5-3.6-12.8-3.9s-9 3.5-11.5.6zM205.4 2272.4c-.6-2.8 25.3-3.6 26.8 2.5 1.4 6-25.7 2.5-26.8-2.5zM208.6 2297s21.8-7.1 35-1.8M211.5 2307s16.1-5.4 33.9-2.5M215.4 2319.1s15.7 4.3 31.4 0M222.2 2339.1s17.5 1.1 26.4-7.1M224.7 2352.3s15 3.9 26.4-.4M228.6 2370.1s14.2 5 24.2-1.4M188.3 2312.3s14.3-.4 24.3 2.1M185.8 2290.2s9.6 2.1 19.3.7M190.1 2330.1s14.6-1.1 25 2.9M191.2 2341.6s14.6 2.9 24.3 0M191.2 2365.1s12.8 5 23.5-.7M404.8 2354.4s11.8 3.9 24.6-1.4M402.3 2360.5s8.9 5.4 24.6 1.1M427.3 2317.7s6.8-15 22.8-16.4M430.1 2322.3s13.2-10 29.6-8.6M442.3 2349.4s12.5 2.1 22.8-3.2M443.3 2358.7s12.1 3.6 21.8-.4M421.9 2168.2s11.1-10.3 27.8-5.4 24.3 16.6 42.1 28.2c8.2 5.4 17.8 2.5 17.8 2.5M131.2 2039.5s-2.9-9.3 3.2-22.5M79 2039.5s-.9-5.4-8.7-13.6"/></g><path class="prefix__st0" d="M849 2205.4s-19.9 16.7-39.8 28.5-15.6 23.1-12.4 29.6c3.2 6.5 28.5 45.7 29.6 58.7 1.1 12.9.8 25.6 8.3 28.8 0 0 19.1-9.7 15.9-26.4 0 0-4.3-7.3-10.8-11.6 0 0-21-37.7-23.1-46.3 0 0 5.4-5.9 4.8-16.1 0 0 33.4-6.5 46.3-2.7M907.2 2402.9s7.5 7 19.4-1.6M826.4 2322.2s7.5 7.5 13.5-9.1M931.4 2252.2s33.7 13.3 69.8-2.9"/><path class="prefix__st0" d="M897.1 1971.9s-6.1 56.5 16 106 42 62.4 42 62.4 81.3 10.2 95.3 46.8 0 73.7 7.5 94.7 16.7 16.7 14.5 31.8-7.5 84-5.4 93.6c2.2 9.7 4.8 19.9-4.8 22.1-9.7 2.2-22.1-1.1-22.1-1.1s.5-10.2 8.1-21c0 0 13.5-78-14.5-107.6s-38.7-68.9-38.7-68.9"/><path class="prefix__st0" d="M964.7 2257.9s12.9 31.5 31.8 51.9c18.8 20.4 4.3 97.9 4.3 97.9s-8.1 7.5-8.6 19.4c0 0 18.8 4.8 26.9-3.2l-.5-15.6s11.3-77.5 5.4-93.6-14.5-19.9-8.6-37.7M1000.8 2407.8s3.2 5.9 17.8.5M1048.1 2407.2s5.7 5.7 18.8 0M861.9 1948.2c2.7 8.6 19.9 24.2 43.1 23.7 23.1-.5 44.7 8.6 53.3 4.8 8.6-3.8 16.7-14.5 12.4-23.7-4.3-9.1-47.4-45.6-59.7-53.3l-8.6-5.4s-2.7-13.5 0-21 9.7-12.4 4.3-19.9-20.4-4.3-21 4.3c-.5 8.6 4.8 8.6 4.3 15.6s-1.6 18.3-1.6 18.3-8.6-1.1-17.8 2.7c0 0-3.8-16.1-1.6-22.6s5.9-11.8 3.2-16.7c-2.7-4.8-22.6-4.8-21 7.5 1.6 12.4 4.8 7.5 5.9 16.7s0 22.6 0 22.6-8.1-12.4-22.1-18.3-23.7-3.8-23.7-3.8 0 23.1 15.6 31.8 21 3.8 21 3.8-26.9 46.3-21.5 127.5c5.4 81.3 11.3 80.2 10.2 87.2s-10.2 53.8 23.1 85c0 0 3.3 36.5 35 84 3.2 4.8 15.1 71 12.4 103.9 0 0-9.4 17.2-5.9 23.1 3.4 5.8 27.4 2.4 29.1-5.1 1.6-7.5-3.8-19.6-3.8-19.6s-2.7-61.9 2.2-98.5c4.8-36.6 1.1-68.9 1.1-68.9"/><path class="prefix__st0" d="M903.4 1891.2s11.8-19.9 39.3-17.2c0 0 0 19.4-23.7 30.1M821.6 1893.3s18.8 0 28 15.1M913.1 1901.4s3.2-10.8 18.3-16.7M948.6 1953s2.2 7.5 13.5 9.7c0 0 8.6-2.7 8.6-9.7M956.1 1977.3s8.1-5.9 5.9-14.5M928.7 1959s-2 14.4 11.5 17M850.6 2038.6c6.1-2.2 20.4 4.3 22.1 10.8 1.7 6.5 1.1 24.2-2.7 28s-26.9-2.7-28.5-13.5c-1.6-10.8 3.2-23.1 9.1-25.3zM858.4 2015.3c4.6 4.6 15.1 11.8 20.4 7 5.4-4.8 6.5-25.8 2.7-29.1-3.8-3.2-16.1-7.5-19.4-3.8-3.2 3.8-5.9 23.7-3.7 25.9zM837.7 1961.1c6.3-3.1 14 1.6 16.1 4.8 2.2 3.2 0 18.3-4.3 21s-15.1-4.3-15.1-8.1 2.3-17.2 3.3-17.7zM887.8 2090.8c3.8-1.1 21 15.1 21.5 18.8s.5 21-2.2 24.2-18.8 6.5-23.7 4.3c-4.8-2.2-9.1-18.8-9.1-24.2 0-5.3 9.7-22 13.5-23.1zM832.9 2104.8c2.2 0 17.2 2.7 19.9 7.5s5.9 23.1 3.2 25.8-20.1 2-20.1 2M902.3 2046.7s-11.8 5.9-12.9 9.7 4.8 19.9 7.5 22.6 17.8 3.8 17.8 3.8M867.9 2157.5c5.5-1.8 21 1.6 23.7 5.9 2.7 4.3 6.5 23.1 4.3 26.4-2.2 3.2-19.9 7.5-24.8 5.4-4.8-2.2-13.5-15.6-14-20.4-.5-4.9 7.5-16.2 10.8-17.3zM921.1 2157c3.2-4 19.9 0 23.1 4.3 3.2 4.3 5.4 27.4 2.7 30.1s-19.9 6.5-22.6 3.2c-2.7-3.2-15.1-18.3-14-22.1 1.2-3.7 8.7-12.8 10.8-15.5zM972.8 2183.4c2.6-3.9 20.4 4.3 22.1 8.6 1.6 4.3-1.6 13.5-5.4 13.5-3.8 0-20.4-2.7-21-7.5-.5-4.9 3.2-13 4.3-14.6zM894.8 2209.7c5.5 0 15.1 26.9 11.3 29.6-3.8 2.7-18.8 3.8-19.4-.5-.5-4.3-4.3-19.9-2.7-22.1 1.6-2.1 9.2-7 10.8-7zM976 2144.6s-2.2 15.6 1.1 18.8 16.1 5.9 20.4 4.3c4.3-1.6 10.2-14 10.2-14M1008.9 2179.1c3.8-3.2 18.8-5.4 21.5-1.6 2.7 3.8 6.5 14 4.8 17.2-1.6 3.2-11.3 9.1-16.1 8.6s-11.3-5.4-12.9-9.1 2.7-15.1 2.7-15.1zM1014.2 2225.3c3.8-3.2 19.4-2.7 21 .5s5.9 17.2 2.7 19.4-13.5 8.6-16.7 7.5-12.4-10.2-12.4-13.5c.1-3.1 5.4-13.9 5.4-13.9zM936.8 2210.8c4.8-3.2 17.2-5.4 19.4-1.6s5.9 16.1 2.7 17.8c-3.2 1.6-16.1-1.1-18.3-3.2s-3.8-13-3.8-13zM931.4 2114.5s-7 13.5-4.8 18.3 8.1 9.1 11.8 9.7c3.8.5 9.7-7 9.7-7M826.4 1998.6c4.8 3.2 14.5 7.7 16.1 10.9 1.6 3.2.5 12.9-.5 15.1s-15.6 7.5-15.6 7.5M882.9 2258.2c5.4-2.2 14.5-.5 16.7 1.6 2.2 2.2 4.3 12.9.5 14.5s-12.9 1.1-14.5-2.2c-1.6-3.2-2.7-13.9-2.7-13.9zM909.3 2252.8c-1.3-3.9 10.8-4.3 12.4-2.2 1.6 2.2.5 12.4-2.2 13.5-2.7 1.1-9.7-9.7-10.2-11.3zM1036.3 2261.4c2.2-2.7 9.1 2.7 10.2 5.9s-10.2 10.8-12.9 8.6c-2.7-2.1 2.7-14.5 2.7-14.5zM1042.2 2202.7c-2.2-2.2-5.9 5.9-3.8 9.1 2.2 3.2 7.5 1.6 9.7 1.1 2.2-.5-3.7-8-5.9-10.2zM862.5 2224.1s9.7 2.2 11.1 5.4c1.4 3.2 1.4 8.6.7 10.4-.7 1.8-6.5 4.3-6.5 4.3M975.9 2218c-2.4 0-3.9 7.5-2.2 10.4 1.8 2.9 9.7-.7 11.1-2.9s-7.1-7.5-8.9-7.5z"/><circle transform="rotate(-77.83 885.049 1925.389)" class="prefix__st0" cx="885" cy="1925.3" r="15.4"/><circle transform="rotate(-77.83 882.56 1930.32)" cx="882.5" cy="1930.3" r="5"/><path class="prefix__st0" d="M965.5 2235.6c1.6-.4 6.2 8.1 5.7 10.2s-11 1.1-11.6-1.6c-.5-2.7 4.9-8.4 5.9-8.6zM843.4 2222.1c0-2.5 10.5 4.8 11 6.7s-7.8 7.8-10 7c-2.1-.8-1-12.9-1-13.7zM828.9 2229.6s5.9 0 5.9 4.8-6.7 6.7-8.3 4.6c-1.7-2.1 2.4-9.4 2.4-9.4zM982.2 2267.6c-.7-3.6 11.6-4 13.2-4 1.6 0 2.4 7.8 0 10.8-2.4 2.9-12.6-4.1-13.2-6.8zM992.5 2287.2c1.6-2.2 9.1-3.8 10.2-3.5s.5 8.6-.5 10-9.7-6.5-9.7-6.5z"/><g><path class="prefix__st0" d="M738.2 2108.6s-19-36.9 17.9-58.2c0 0 24.6 34.7-17.9 58.2z"/><path class="prefix__st0" d="M798.5 2112.7s-27.9 32.1-60.8-3.7c0 0 31.5-27.2 60.8 3.7M713.7 2088.3s11 15.4 22.7 18.4c0 0-41.3 10.2-47.6-38 0 0 41.3-4.2 47.6 38"/><path class="prefix__st0" d="M746.2 2169.3s-37-21-8.4-60.3c0 0 32.8 25.4 8.4 60.3"/><path class="prefix__st0" d="M684.8 2141.5s3.9-42.4 51.4-32.6c0 .1-9.6 40.5-51.4 32.6M746.1 2080.1s-9.8 14.8-7.6 27.1M741.1 2110.1s16.1-5 28.4 2.2M737 2111s7.6 18.3 3.2 30.9M733.2 2109.7s-13.9 13.9-25.6 15.1"/></g><g><path class="prefix__st0" d="M294.4 1883.2s-3.5 17.4-21.1 22.7c-17.6 5.3-40.9 23.9-18.8 44.1 22 20.2 44.7.4 45.3-19.7.4-20.1-9.9-34.6-5.4-47.1z"/><path class="prefix__st0" d="M290.8 1895.1s-1.2 17.3-18.8 35.6c-17.6 18.4-31 28.4-28.7 49.8M265.7 1939.3s19.3 5.5 32.4-1.7M279.9 1923.3s7.7 2.4 18.9-.6M260.6 1911.9s-3.8 12.7 3.8 26.3"/></g><g><path class="prefix__st0" d="M1101.8 1092.2s-7.1 7.1-17 4c-9.9-3-26.7-1.6-22.7 14.8s20.9 14.2 27.5 4.9 6.2-19.2 12.2-23.7z"/><path class="prefix__st0" d="M1096.4 1096.6s-6 7.7-20 10.9c-14 3.1-23.5 3.6-29.1 14.4M1070.7 1109.5s6.4 7.6 17.3 6.8M1079.1 1095.9s-8 3.9-8.7 12.7"/></g><path class="prefix__st0" d="M1009.3 2013.6c-4.3-9.2 10.9-20.4 20.4-10.4 9.4 10-12.8 26.5-20.4 10.4z"/><path class="prefix__st0" d="M1023.3 2020.1s4.9 21.8 14.1 18.7-1-17.5-8.7-22.6"/><path class="prefix__st0" d="M1042 2035.3s20.7 10.9 21.3 46.7c0 0-27.8-6.9-29-41.4M1024 2025s-39.6-.5-51.9 5.3c-15.7 7.5-8.9 25 7.7 21.7 19.3-3.8 46.6-22.1 45.7-21.9M1036.5 2022.9s35.7-17.2 44-27.9c10.7-13.8-3.2-26.3-16.6-16-15.5 12-31.9 40.6-31.1 40"/><path class="prefix__st0" d="M1040 2028.6s37.8 2.8 50.4-2.3c16.2-6.5 7.1-23.3-9.8-22.9-6.7.2-12.7 2.1-12.7 2.1M1028.8 2035.4s-17.4 33.7-28.3 41.7c-14 10.4-25.1-7.3-14.3-20.4 7.3-8.9 12.4-11.1 12.4-11.1M1037.6 2054.9s8.5.3 14.1-7.6M1042 2066.1s6.9 1.3 16.7-8M1019.9 1999.1s-6.9-12.6-.5-17.7 11 2.1 7.7 6.2M1010.7 2003.7s-4.6-9.2-12.1-10.3c-7.4-1-11 11-4.6 11.8"/><circle cx="1015.6" cy="2009.9" r="2"/><circle cx="1022.6" cy="2006.6" r="2"/><path class="prefix__st0" d="M969.1 2090.4s2.7 11.1 16.9 7M963.9 2100s3.1 10.1 15.2 7.2"/><g><path class="prefix__st0" d="M1091.3 1963.9s-1.2-11.4-15.8-9.3M1097.7 1955.1s-1.7-10.4-14.1-9.2"/></g><g><path class="prefix__st0" d="M822.8 77.6s8.6-7.5-1.5-18.3M833.6 77.8s7.6-7.4-.6-16.8"/></g><g><path class="prefix__st0" d="M665.3 54.3s-9.4 6.6-.5 18.3M654.5 53s-8.3 6.5-1.2 16.8"/></g><g><circle class="prefix__st0" cx="602.7" cy="2050.3" r="12.6"/><path class="prefix__st0" d="M595.2 2062.1s-8.2 10.7-31.3 17.7-33.8-3.3-31.3-7.8c2-3.6 24-2.2 44.4-8.7 5.1-1.6 10-3.7 14.5-6.5"/><path class="prefix__st0" d="M580.9 2062s17.1-19.8 16.1-48-43.4-22.3-40.6 4.6"/><path class="prefix__st0" d="M572.8 2064.1s-18.9 3.7-42.4-13.9c-19.7-14.8-15.7-33.9-.3-41.1s24.7 7.4 24.7 7.4c10.6 13.9 16.2 32.7 18 47.6z"/><path class="prefix__st0" d="M521.3 2041c-5.4-1.3-13.9.3-15.2 11.6-1.3 11.3 15.4 17.7 40.8 16.2M535 2023.3c-5.6 4.3 2.9 17.6 9.9 13.9 7-3.8-1.5-20.4-9.9-13.9zM576.2 2010.1c9.8-.2 9.8 19.5 0 18.5s-10.6-18.3 0-18.5zM610.1 2039.9s4.5-16.8 17-20.6c12.4-3.7 11.6 16.5-.2 12.3M601.8 2036.9s-2.1-8.2 2.6-24c5-17 20.2-4.6 13 1.7M543.9 2082.4s-.3 9.5-9.8 9.5M553.9 2082.6s4.9 9-2.3 13.6M577.8 2074.9s5.6 6.7 1 13.9M586.3 2070.6s7.4 3.1 6.2 9.8M598.3 2048.5l.3 1.3M606.4 2047.1l.2 1.3M540.2 2029l.5 1.2M575.9 2019l-.1 1.3"/></g><path class="prefix__st0" d="M752.1 1267.8c0 4.4-4.5 6.1-10.1 6.1s-10.1-1.7-10.1-6.1 4.5-7.9 10.1-7.9 10.1 3.5 10.1 7.9zM187.4 1062.1c0 4.4-4.5 6.1-10.1 6.1s-10.1-1.7-10.1-6.1 4.5-7.9 10.1-7.9c5.6-.1 10.1 3.5 10.1 7.9zM466.8 2078.9c0 4.4-4.5 6.1-10.1 6.1s-10.1-1.7-10.1-6.1 4.5-7.9 10.1-7.9 10.1 3.5 10.1 7.9zM504.8 1596.9c0 4.4-4.5 6.1-10.1 6.1s-10.1-1.7-10.1-6.1 4.5-7.9 10.1-7.9 10.1 3.5 10.1 7.9zM594 436.4c0 4.4-4.5 6.1-10.1 6.1s-10.1-1.7-10.1-6.1 4.5-7.9 10.1-7.9 10.1 3.5 10.1 7.9zM746 2222.8c0 4.4-4.5 6.1-10.1 6.1s-10.1-1.7-10.1-6.1 4.5-7.9 10.1-7.9c5.6-.1 10.1 3.5 10.1 7.9zM503.8 2278.2c0 4.4-4.5 6.1-10.1 6.1s-10.1-1.7-10.1-6.1c0-4.4 4.5-7.9 10.1-7.9s10.1 3.5 10.1 7.9zM1091.2 2143.5c0 4.4-4.5 6.1-10.1 6.1s-10.1-1.7-10.1-6.1 4.5-7.9 10.1-7.9c5.5 0 10.1 3.5 10.1 7.9zM158.7 1982.4c0 4.4-4.5 6.1-10.1 6.1s-10.1-1.7-10.1-6.1 4.5-7.9 10.1-7.9c5.5-.1 10.1 3.5 10.1 7.9zM647.1 1041.3c0 3.3-3.4 4.6-7.6 4.6s-7.6-1.3-7.6-4.6 3.4-5.9 7.6-5.9 7.6 2.6 7.6 5.9zM573 477.3c0 3.3-3.4 4.6-7.6 4.6s-7.6-1.3-7.6-4.6 3.4-5.9 7.6-5.9 7.6 2.6 7.6 5.9zM1107.7 441.7c0 3.3-3.4 4.6-7.6 4.6s-7.6-1.3-7.6-4.6 3.4-5.9 7.6-5.9 7.6 2.6 7.6 5.9zM717.4 1238.7c0 3.3-3.4 4.6-7.6 4.6s-7.6-1.3-7.6-4.6 3.4-5.9 7.6-5.9 7.6 2.7 7.6 5.9zM556.5 1325.7c0 3.3-3.4 4.6-7.6 4.6s-7.6-1.3-7.6-4.6 3.4-5.9 7.6-5.9 7.6 2.6 7.6 5.9zM25.1 1136c0 3.3-3.4 4.6-7.6 4.6s-7.6-1.3-7.6-4.6 3.4-5.9 7.6-5.9 7.6 2.6 7.6 5.9zM805.1 174.2c0 3.3-3.4 4.6-7.6 4.6s-7.6-1.3-7.6-4.6 3.4-5.9 7.6-5.9 7.6 2.6 7.6 5.9zM619.8 19.8c0 3.3-3.4 4.6-7.6 4.6-4.2 0-7.6-1.3-7.6-4.6s3.4-5.9 7.6-5.9c4.2 0 7.6 2.7 7.6 5.9zM61.5 228.7c0 3.3-3.4 4.6-7.6 4.6s-7.6-1.3-7.6-4.6 3.4-5.9 7.6-5.9 7.6 2.6 7.6 5.9zM219.5 62.7c0 3.3-3.4 4.6-7.6 4.6s-7.6-1.3-7.6-4.6 3.4-5.9 7.6-5.9 7.6 2.6 7.6 5.9z"/><path d="M433.6 1962.7c0 3.3-3.4 4.6-7.6 4.6s-7.6-1.3-7.6-4.6 3.4-5.9 7.6-5.9 7.6 2.6 7.6 5.9zM285 1754.9c0 3.3-3.4 4.6-7.6 4.6s-7.6-1.3-7.6-4.6 3.4-5.9 7.6-5.9c4.2-.1 7.6 2.6 7.6 5.9zM829.4 1798c0 3.3-3.4 4.6-7.6 4.6s-7.6-1.3-7.6-4.6 3.4-5.9 7.6-5.9 7.6 2.6 7.6 5.9zM652.4 1960c0 3.3-3.4 4.6-7.6 4.6s-7.6-1.3-7.6-4.6 3.4-5.9 7.6-5.9 7.6 2.6 7.6 5.9zM709.2 1734.1c0 2.4-2.5 3.3-5.5 3.3s-5.5-.9-5.5-3.3 2.5-4.3 5.5-4.3 5.5 1.9 5.5 4.3zM691.5 2028.7c0 2.4-2.5 3.3-5.5 3.3s-5.5-.9-5.5-3.3 2.5-4.3 5.5-4.3 5.5 1.9 5.5 4.3zM980.4 1268.6c0 2.4-2.5 3.3-5.5 3.3s-5.5-.9-5.5-3.3 2.5-4.3 5.5-4.3 5.5 1.9 5.5 4.3zM882.1 952.6c0 2.4-2.5 3.3-5.5 3.3s-5.5-.9-5.5-3.3 2.5-4.3 5.5-4.3 5.5 2 5.5 4.3zM453.6 838.8c0 2.4-2.5 3.3-5.5 3.3s-5.5-.9-5.5-3.3 2.5-4.3 5.5-4.3 5.5 1.9 5.5 4.3zM520 1233.2c0 2.4-2.5 3.3-5.5 3.3s-5.5-.9-5.5-3.3 2.5-4.3 5.5-4.3c3.1 0 5.5 1.9 5.5 4.3zM719.4 2251.2c0 2.4-2.5 3.3-5.5 3.3s-5.5-.9-5.5-3.3 2.5-4.3 5.5-4.3 5.5 1.9 5.5 4.3zM426.7 193.7c0 2.4-2.5 3.3-5.5 3.3s-5.5-.9-5.5-3.3 2.5-4.3 5.5-4.3 5.5 2 5.5 4.3zM437 10.3c0 2.4-2.5 3.3-5.5 3.3s-5.5-.9-5.5-3.3 2.5-4.3 5.5-4.3 5.5 1.9 5.5 4.3zM870.4 24.3c0 2.4-2.5 3.3-5.5 3.3s-5.5-.9-5.5-3.3 2.5-4.3 5.5-4.3 5.5 1.9 5.5 4.3zM767.2 161.4c0 2.4-2.5 3.3-5.5 3.3s-5.5-.9-5.5-3.3 2.5-4.3 5.5-4.3 5.5 1.9 5.5 4.3zM16.1 221.5c0 2.4-2.5 3.3-5.5 3.3s-5.5-.9-5.5-3.3 2.5-4.3 5.5-4.3 5.5 1.9 5.5 4.3zM362.9 544.5c0 2.4-2.5 3.3-5.5 3.3s-5.5-.9-5.5-3.3 2.5-4.3 5.5-4.3 5.5 1.9 5.5 4.3zM590 666.7c0 2.4-2.5 3.3-5.5 3.3s-5.5-.9-5.5-3.3 2.5-4.3 5.5-4.3 5.5 1.9 5.5 4.3zM45 1688.3c0 3.3-3.4 4.6-7.6 4.6s-7.6-1.3-7.6-4.6 3.4-5.9 7.6-5.9 7.6 2.6 7.6 5.9zM786.6 1059.8c0 3.3-3.4 4.6-7.6 4.6s-7.6-1.3-7.6-4.6 3.4-5.9 7.6-5.9 7.6 2.6 7.6 5.9zM603.8 692c0 3.3-3.4 4.6-7.6 4.6s-7.6-1.3-7.6-4.6 3.4-5.9 7.6-5.9 7.6 2.7 7.6 5.9zM347 565.6c0 3.3-3.4 4.6-7.6 4.6s-7.6-1.3-7.6-4.6 3.4-5.9 7.6-5.9 7.6 2.6 7.6 5.9zM690.7 536.2c0 3.3-3.4 4.6-7.6 4.6s-7.6-1.3-7.6-4.6 3.4-5.9 7.6-5.9 7.6 2.6 7.6 5.9zM538 263.6c0 3.3-3.4 4.6-7.6 4.6s-7.6-1.3-7.6-4.6 3.4-5.9 7.6-5.9 7.6 2.7 7.6 5.9zM879.7 310.2c0 3.3-3.4 4.6-7.6 4.6s-7.6-1.3-7.6-4.6 3.4-5.9 7.6-5.9 7.6 2.6 7.6 5.9zM504.2 1200.4c0 3.3-3.4 4.6-7.6 4.6s-7.6-1.3-7.6-4.6 3.4-5.9 7.6-5.9 7.6 2.6 7.6 5.9zM316.9 2345.5c0 3.3-3.4 4.6-7.6 4.6s-7.6-1.3-7.6-4.6 3.4-5.9 7.6-5.9 7.6 2.6 7.6 5.9zM38.2 1970c0 3.3-3.4 4.6-7.6 4.6s-7.6-1.3-7.6-4.6 3.4-5.9 7.6-5.9 7.6 2.7 7.6 5.9zM694.8 2228.9c0 3.3-3.4 4.6-7.6 4.6s-7.6-1.3-7.6-4.6 3.4-5.9 7.6-5.9 7.6 2.6 7.6 5.9zM1114.3 2178.2c0 3.3-3.4 4.6-7.6 4.6s-7.6-1.3-7.6-4.6 3.4-5.9 7.6-5.9 7.6 2.7 7.6 5.9zM108.7 1302.1c0 3.3-3.4 4.6-7.6 4.6s-7.6-1.3-7.6-4.6 3.4-5.9 7.6-5.9c4.2-.1 7.6 2.6 7.6 5.9zM214.5 2013.9c0 3.3-3.4 4.6-7.6 4.6s-7.6-1.3-7.6-4.6 3.4-5.9 7.6-5.9 7.6 2.6 7.6 5.9z"/><g><path class="prefix__st0" d="M807.5 1363.5c4.1-3.2 6.9-7.5 2.5-11.9-6.6-6.7-12.9-1-14 7.4-2-5.4-5.6-10.4-11.5-6.9-8.5 5-3.9 12.9 4.7 15.8-6.1.5-12.7 2.6-10.6 9.7 2.7 9 10.9 7 15.8.1-1.6 5.7-1.7 12 5.3 12.6 9.2.8 10.5-7.3 6.2-14.3 4.9 2.5 10.5 3.6 12.6-2.7 2.7-8.2-3.7-11.5-11-9.8z"/><circle cx="798.8" cy="1368.9" r="3.2"/></g><g><path class="prefix__st0" d="M328.1 1517c-.2-4.8-1.9-9.2-7.6-8.2-8.6 1.5-7.7 9.2-1.9 14.5-5.1-1.4-10.7-1.3-11.3 5-.8 9 7.6 9.8 14.4 4.9-2.9 4.9-4.8 11 1.7 13.1 8.2 2.7 11.1-4.5 8.4-11.9 3.4 4.2 8.1 7.7 12.3 2.7 5.5-6.5.1-11.8-7.5-12.2 4.5-2.4 8.3-6 4.7-10.9-4.7-6.5-10.6-3.4-13.2 3z"/><circle transform="rotate(-54.783 327.608 1526.368)" cx="327.6" cy="1526.4" r="2.9"/></g><g><path class="prefix__st0" d="M259.9 2077.7c-.2-4.8-1.9-9.2-7.6-8.2-8.6 1.5-7.7 9.2-1.9 14.5-5.1-1.4-10.7-1.3-11.3 5-.8 9 7.6 9.8 14.4 4.9-2.9 4.9-4.8 11 1.7 13.1 8.2 2.7 11.1-4.5 8.4-11.9 3.4 4.2 8.1 7.7 12.3 2.7 5.5-6.5.1-11.8-7.5-12.2 4.5-2.4 8.3-6 4.7-10.9-4.8-6.5-10.6-3.4-13.2 3z"/><circle transform="rotate(-54.783 259.336 2087.113)" cx="259.3" cy="2087.2" r="2.9"/></g><g><path class="prefix__st0" d="M30.3 1266.2c-.2-4.8-1.9-9.2-7.6-8.2-8.6 1.5-7.7 9.2-1.9 14.5-5.1-1.4-10.7-1.3-11.3 5-.8 9 7.6 9.8 14.4 4.9-2.9 4.9-4.8 11 1.7 13.1 8.2 2.7 11.1-4.5 8.4-11.9 3.4 4.2 8.1 7.7 12.3 2.7 5.5-6.5.1-11.8-7.5-12.2 4.5-2.4 8.3-6 4.7-10.9-4.7-6.5-10.6-3.4-13.2 3z"/><circle transform="rotate(-54.783 29.755 1275.626)" cx="29.8" cy="1275.7" r="2.9"/></g><g><path class="prefix__st0" d="M75 768.6c-.2-4.8-1.9-9.2-7.6-8.2-8.6 1.5-7.7 9.2-1.9 14.5-5.1-1.4-10.7-1.3-11.3 5-.8 9 7.6 9.8 14.4 4.9-2.9 4.9-4.8 11 1.7 13.1 8.2 2.7 11.1-4.5 8.4-11.9 3.4 4.2 8.1 7.7 12.3 2.7 5.5-6.5.1-11.8-7.5-12.2 4.5-2.4 8.3-6 4.7-10.9-4.8-6.5-10.6-3.4-13.2 3z"/><circle transform="rotate(-54.783 74.45 778.002)" cx="74.5" cy="778" r="2.9"/></g><g><path class="prefix__st0" d="M816 762.4c-.2-4.8-1.9-9.2-7.6-8.2-8.6 1.5-7.7 9.2-1.9 14.5-5.1-1.4-10.7-1.3-11.3 5-.8 9 7.6 9.8 14.4 4.9-2.9 4.9-4.8 11 1.7 13.1 8.2 2.7 11.1-4.5 8.4-11.9 3.4 4.2 8.1 7.7 12.3 2.7 5.5-6.5.1-11.8-7.5-12.2 4.5-2.4 8.3-6 4.7-10.9-4.7-6.5-10.6-3.4-13.2 3z"/><circle transform="rotate(-54.783 815.486 771.749)" cx="815.5" cy="771.8" r="2.9"/></g><g><path class="prefix__st0" d="M1051.8 244.8c-.2-4.8-1.9-9.2-7.6-8.2-8.6 1.5-7.7 9.2-1.9 14.5-5.1-1.4-10.7-1.3-11.3 5-.8 9 7.6 9.8 14.4 4.9-2.9 4.9-4.8 11 1.7 13.1 8.2 2.7 11.1-4.5 8.4-11.9 3.4 4.2 8.1 7.7 12.3 2.7 5.5-6.5.1-11.8-7.5-12.2 4.5-2.4 8.3-6 4.7-10.9-4.8-6.5-10.7-3.4-13.2 3z"/><circle transform="rotate(-54.783 1051.217 254.14)" cx="1051.3" cy="254.1" r="2.9"/></g><g><path class="prefix__st0" d="M626.5 147.7c-.2-4.8-1.9-9.2-7.6-8.2-8.6 1.5-7.7 9.2-1.9 14.5-5.1-1.4-10.7-1.3-11.3 5-.8 9 7.6 9.8 14.4 4.9-2.9 4.9-4.8 11 1.7 13.1 8.2 2.7 11.1-4.5 8.4-11.9 3.4 4.2 8.1 7.7 12.3 2.7 5.5-6.5.1-11.8-7.5-12.2 4.5-2.4 8.3-6 4.7-10.9-4.7-6.5-10.6-3.4-13.2 3z"/><circle transform="rotate(-54.783 625.98 157.059)" cx="626" cy="157.1" r="2.9"/></g><g><path class="prefix__st0" d="M22.1 393.8c-4.1-2.5-8.7-3.5-11.1 1.8-3.5 7.9 3.4 11.5 11 9.6-4 3.5-7.1 8.2-2.1 12.2 7.1 5.6 12.4-.9 12-9.2 2.5 5.1 6.5 10.1 11.8 5.9 6.8-5.3 2.4-11.7-5.2-13.6 5.4-.5 10.9-2.5 9.1-8.7-2.4-8.2-9.7-6.7-14.3-.6.6-5.1-.4-10.2-6.5-9.9-7.9.2-8.6 6.8-4.7 12.5z"/><circle transform="rotate(-20.997 29.5 399.516)" cx="29.5" cy="399.5" r="2.9"/></g><g><path class="prefix__st0" d="M456.5 1127.2c5.1-5.1 8.3-11.5 1.5-16.8-10.3-8.1-18 .7-18 12.5-3.7-7.1-9.4-13.3-17-7.5-10.8 8.3-3.2 18.4 9.1 20.9-8.3 1.7-17.1 5.8-13 15.1 5.3 11.9 16.2 7.8 21.8-2.5-1.2 8.1-.4 16.8 9.4 16.5 12.8-.4 13.3-11.8 6.1-20.7 7.2 2.7 15.1 3.2 16.9-5.8 2.4-11.8-7-15.3-16.8-11.7z"/><circle transform="rotate(-6.915 445.491 1136.102)" cx="445.5" cy="1136.1" r="4.4"/></g><g><path class="prefix__st3" d="M1121.9 573.2c0 .9 0 1.7 3.1 1.8v-5.6c-1.8.5-3.1 2-3.1 3.8zM6.7 1902.4c4.4-.1 7.3-1.7 8.6-4.4 1.6-3.6.2-9-3.6-13.8-.4-.5-.5-1.3 0-1.9.4-.6 1.1-.8 1.8-.5 5 1.9 9 2.1 11.4.7 1.7-1 2.8-2.7 3.4-5.4.8-4.1.1-7.3-2-9.2-2.7-2.3-7.5-2.5-12.6-.7-.7.3-1.5 0-1.9-.6s-.3-1.4.2-1.9c3.4-3.4 5.1-6.5 4.9-9.2-.1-1.9-1.2-3.7-3.3-5.3-3.5-2.7-6.7-3.5-9.4-2.2-1.7.8-3.1 2.3-4.1 4.3v18.4c.4-.2.9-.4 1.4-.4 2.4-.3 4.6 1.4 4.9 3.8s-1.4 4.6-3.8 4.9c-.9.1-1.7-.1-2.5-.4v20.9c.2.3.4.6.6.8 1.3 1.5 3.3 2.2 6 2.1zM0 1429.9v12.1c4.7-1.4 8.3-4.2 9.9-5.8-3.3-3.3-6.6-5.2-9.9-6.3zM1114.6 1691.2c0 4.1 6 4.6 8.6 4.6.5 0 1.2 0 1.9-.1V1685c-.6-.1-1.3-.2-1.9-.2-4.8 0-8.6 2.9-8.6 6.4zM13.2 1602c.1-.3.2-1.1 0-2.4-.9-4.9-4.9-12.4-13.1-20.8v16.8c3.6 1.4 6.5 3 8.8 4.3 1.6.9 3.5 2 4.3 2.1zM1113.5 1416.3c1.6-7.1-1.4-13.5-2.8-16.1-16.3 10.3-11.8 26-9.8 31.1.8-.5 1.8-1.2 3-1.8 5.2-3.8 8.4-8.2 9.6-13.2zM6.7 1691.2c0-3-2.9-5.6-6.7-6.2v10.7c2.9-.3 6.7-1.3 6.7-4.5zM1106 1431.8c-1.1.8-2.2 1.6-3.5 2.3.6.5 1.2 1.2 1.9 2 5 4.4 10.2 6.6 15.5 6.6 1.8 0 3.5-.3 5.1-.8v-12.1c-7.6-2.6-14.6-.3-19 2zM8.4 2306.2c-2.5-1.1-5.3-1.9-8.4-2.3v3.6c1.2-.2 2.4-.4 3.5-.6 1.7-.3 3.3-.5 4.9-.7zM0 2298.5v2.3c2.9.3 5.7 1 8.1 1.9-2.5-1.6-5.3-3.1-8.1-4.2zM1097.3 1431.2c-3.6-19.2-20.2-20.6-25.5-20.5 1.3 8 4.5 13.8 9.5 17.2 6 4.2 13 3.7 16 3.3zM1113.3 694c3.5 5 7.5 8.1 11.8 9.4v-11.9c-5.2-.2-9.6 1.5-11.8 2.5zM1095.3 1455.3c1.5 7.1 6.9 11.6 9.4 13.4 8.8-13.7 2.6-24.6-2-29.9-.8-.7-1.7-1.5-2.5-2.4-.3.4-.5.8-.8 1.2-.6 1.5-1.5 3.4-2.8 5.5-1.7 4.2-2.1 8.3-1.3 12.2zM155.9 53.2c-9.9 7.4-34.1 27.9-58 67.1 12.2-9 40.7-32.4 58-67.1zM0 2292.1v3c3 1.2 6.2 2.8 9.1 4.6-2.4-2.7-5.5-5.4-9.1-7.6zM1097 1435.1c-1.5-.2-2.9-.4-4.3-.5h-.8c-5.8-.2-10.6 1.1-14.4 3.9-5.8 4.3-7.7 11.1-8.3 14.1 13.1 1.9 20.4-4.5 24.3-10.4.8-2 1.8-4.1 3.1-6.1.2-.4.3-.7.4-1zM86.9 116.4c-1.2-5.3-2.3-10.4-3.2-15.4-7-25.4-20.8-65.3-45.4-101h-.6c4 17.4 16.5 60.8 49 116.2.1 0 .1.1.2.2z"/><path class="prefix__st3" d="M75.4 102.5C48.6 53.4 38.1 15.6 34.5 0H0v33.9c13.6 9 42.5 30.4 75.4 68.6zM76.4 0H42c17.7 26.2 29.8 54.6 37.7 77.7-5.1-36.3-4.4-63.3-3.3-77.7z"/><path class="prefix__st3" d="M85 119.3c-.3-.5-.6-.9-.8-1.4C48.3 73.2 15.7 48.2 0 37.6v3c29.2 40.6 68.5 68.2 85 78.7zM86.6 130.9c-10.9 2.5-35.9 10.2-67.1 31.1 13.3-3 42.3-11.3 67.1-31.1zM126.6 12.3c-7.1 13.2-24 49.4-32.4 106.4 8.7-16.1 29.1-58.3 32.4-106.4zM86.7 100.4c1.7 6.3 3 11.7 4 15.9 2-20.5 4.6-68.5-9.4-116.3h-1.8c-1.3 17-2.1 52.3 7.2 100.4zM149 110.5c-10.6 1-30.6 4.2-49.5 14.8 9-.9 26.7-4.1 49.5-14.8zM0 706.6v7.5c.8-2.4 2.1-4.7 4.1-6.9-1.3 0-2.7-.2-4.1-.6zM1109.4 814.5c-.3 0-.6 0-1 .1-3.3.4-5.5 1.9-5.8 4.1-.3 2.2 1.4 5.2 5.6 6.7 6 2.1 11.2-.3 13.4-1.6-1.5-2.8-5.9-9.3-12.2-9.3zM5.4 573.2c0-2.2-1.9-3.9-4.3-3.9-.4 0-.8.1-1.2.2v5.6h1.2c4.3 0 4.3-.9 4.3-1.9zM1121.3 1863c-.7.2-1.4-.2-1.8-.8-2.7-5.1-5.6-8.2-8.5-8.9-2-.4-4 .2-6.2 1.8-3.6 2.7-5.1 5.8-4.4 8.8 1 4.2 6.1 8 12.9 9.4.7.1 1.2.8 1.2 1.5s-.5 1.4-1.2 1.5c-6.5 1.3-10.7 3.6-12.2 6.5-.9 1.8-.8 3.9.3 6.5 1.8 4 4.3 6.2 7.3 6.3 4.1.2 8.6-3.4 11.7-9 .3-.5.8-.8 1.4-.8.2 0 .3 0 .5.1.7.2 1.2 1 1 1.7-.9 5.9-.3 10.2 1.6 12.5v-21.4c-1.5-.5-2.7-1.9-2.9-3.6-.3-2.1 1-4 2.9-4.7v-19.1c-1.6 2.5-2.5 6.1-2.5 10 .1.9-.4 1.5-1.1 1.7z"/><path class="prefix__st3" d="M8.5 703.7h.3c.6 0 1.2.4 1.4.9.3.7.1 1.5-.6 1.9-9.4 6.4-7.9 16.7-7 20.4 8.4-2.7 13.4-8.1 14.9-16.2.1-.8.8-1.3 1.6-1.3s1.4.6 1.5 1.4c1.6 12.1 12 15.1 15.8 15.8 1.5-12.3-5.2-18.7-11.2-22-.7-.4-1-1.2-.7-1.9.2-.7 1-1.2 1.7-1 14.1 2.4 19.6-8.2 21.2-12.1-11.2-3.7-18.7 1-23 5.8-.5.6-1.3.7-2 .3-.6-.4-.9-1.2-.6-1.9 5.1-12.8-3.7-20.4-7-22.7-6.3 10.1-3.4 18.4.2 23.7.4.7.3 1.5-.3 2.1-.6.5-1.5.5-2.1 0-4.1-3.8-8.6-5.1-12.7-5.3v11.9c2.8.7 5.6.8 8.6.2zM1125 109.4v-7.3c-9.2-1.3-16.3-1.7-20.9-1.9 6.9 3.5 14 6.6 20.9 9.2zM0 46v53c19.6 2.7 48.9 9 84.2 23.6C68.6 112.7 29.8 85.8 0 46zM1125 40.7v-3c-1.5-1-2.8-1.9-3.9-2.6 1.3 1.9 2.6 3.7 3.9 5.6z"/><path class="prefix__st3" d="M0 102.1v7.3c34.7 13.1 68.2 15.5 82.8 16-34.7-14.5-63.4-20.7-82.8-23.3z"/><path d="M93.3 129.4c-.3.2-.5.5-.8.7 5 6.9 14.5 24.3 5.6 47.8-.3.8.1 1.7.9 2 .2.1.4.1.6.1.6 0 1.2-.4 1.5-1 9.1-24.1-.2-42.4-5.7-50.2h-1.7c-.1.2-.2.4-.4.6zM86.7 116.2C54.1 60.8 41.7 17.4 37.7 0h-3.2c3.6 15.6 14.1 53.4 40.9 102.5 3.7 4.3 7.5 8.9 11.3 13.7zM90.5 118.2c.1-.6.1-1.2.2-1.9-1-4.2-2.3-9.6-4-15.9 1.1 5.7 2.4 11.7 3.8 17.8zM85.6 119.7c-.5-.6-1-1.2-1.4-1.8.3.5.5.9.8 1.4.2.2.4.3.6.4zM79.7 77.8C71.8 54.6 59.8 26.2 42 0h-3.8c24.6 35.7 38.4 75.6 45.4 101-1.5-8.1-2.8-15.9-3.9-23.2z"/><path d="M79.7 77.8c1 7.4 2.3 15.1 3.9 23.2 1 5 2 10.1 3.2 15.4 1.3 1.6 2.5 3.2 3.8 4.8 1.3-9.3 2.9-18.2 4.6-26.4.8-24.5-.5-59.6-10.6-94.8h-3.2c13.9 47.8 11.4 95.8 9.4 116.3-.1.7-.1 1.3-.2 1.9-1.4-6.1-2.7-12.1-3.8-17.8C77.4 52.3 78.2 17 79.5 0h-3.1c-1.1 14.4-1.8 41.4 3.3 77.8z"/><path d="M90.7 121.2c.6.7 1.2 1.5 1.7 2.2 4.4-7.4 8.7-14.2 13.1-20.4 10.2-22.5 23.2-58.2 24.6-97 0-.7-.4-1.3-1.1-1.5-.7-.2-1.4.1-1.8.6-.2.4-19.9 31.3-31.9 89.7-1.8 8.2-3.3 17-4.6 26.4zm3.5-2.4c8.4-57.1 25.4-93.2 32.4-106.4-3.3 48-23.7 90.2-32.4 106.4z"/><path d="M92.4 123.4c.3.4.6.7.9 1.1.2.2.3.5.3.7 3.5-2.2 7-4.1 10.6-5.8 14.7-11.5 41.6-35.8 57.1-70.3.3-.6.1-1.4-.4-1.8-.5-.5-1.3-.5-1.8-.2-.3.2-25.7 15.8-53.6 55.8-4.4 6.3-8.7 13.1-13.1 20.5zm63.5-70.2c-17.3 34.7-45.8 58.1-58 67.1 24-39.3 48.1-59.7 58-67.1zM93.7 128.8h-.4c-.6 0-1.2-.4-1.4-1-.3.4-.7.7-1.2.7H88c-1.2 0-2.7 0-4.6-.1-13.1 3.4-39.7 12.4-71.8 35.2-.6.4-.8 1.2-.5 1.8.2.6.8 1 1.4 1h.2c.5-.1 45.2-6.6 79.8-36.4.3-.2.5-.5.8-.7.2-.1.3-.3.4-.5zM19.5 162c31.2-21 56.2-28.6 67.1-31.1C61.8 150.7 32.8 159 19.5 162z"/><path d="M93.5 125.3c.1.4 0 .9-.3 1.2-.3.3-.7.5-1.1.5v.2c0 .2-.1.4-.2.5.2.6.8 1 1.4 1h2.2c6.9-.3 30.1-2.5 62-18.8.6-.3 1-1 .8-1.7s-.8-1.2-1.5-1.2c-.3 0-26.5 0-52.5 12.5-3.7 1.6-7.3 3.6-10.8 5.8zm6.1 0c18.8-10.5 38.8-13.8 49.5-14.8-22.9 10.7-40.6 13.9-49.5 14.8z"/><path d="M88 128.5h2.7c.5 0 1-.3 1.2-.7.1-.2.2-.3.2-.5v-.2H92c-.3 0-.5-.1-.8-.2-.1-.1-2.7-1.5-7-4.3C48.9 107.9 19.6 101.6 0 99v3.1c19.3 2.7 48 8.9 82.8 23.3-14.6-.4-48.1-2.9-82.8-16v3.3c35.2 13.1 69 15.4 83.4 15.8H88z"/><path d="M84.2 122.6c4.3 2.7 6.9 4.2 7 4.3.2.1.5.2.8.2h.1c.4 0 .8-.2 1.1-.5.3-.3.4-.8.3-1.2 0-.3-.1-.5-.3-.7-.3-.4-.6-.7-.9-1.1-.6-.8-1.2-1.5-1.7-2.2-1.3-1.6-2.5-3.2-3.8-4.8l-.2-.2c-3.8-4.8-7.6-9.4-11.4-13.7C42.5 64.3 13.6 42.9 0 33.9v3.7c15.7 10.6 48.3 35.5 84.1 80.3.5.6 1 1.2 1.4 1.8-.2-.1-.4-.3-.6-.4C68.5 108.8 29.2 81.2 0 40.7V46c29.8 39.8 68.6 66.7 84.2 76.6zM1125 823.5v-2.9c-.3.5-.5.9-.8 1.4.5.7.7 1.3.8 1.5zM1120.8 827.7c-6.6 10.3-16 21.3-29.2 32.1-19.5 15.9-44.7 28.9-74.7 38.5-21.4 6.9-36.2 8.4-53.4 9.7-.9.1-1.5.8-1.4 1.7.1.8.7 1.4 1.6 1.4h.1c17.4-1.3 32.4-2.8 54.1-9.8 30.4-9.8 55.9-23 75.8-39.1 14.6-11.9 24.6-24.1 31.4-35.4V825c-.1.2-.2.4-.4.5-.2.1-1.6 1.2-3.9 2.2z"/><path d="M1108.1 811.4c-5.8.6-8.2 4-8.5 6.9-.5 4.1 2.7 8.2 7.7 10 2.1.7 4 1 5.9 1 3.1 0 5.7-.8 7.7-1.7 2.3-1 3.7-2.1 3.8-2.2.2-.1.3-.3.4-.5v-1.5c-.1-.2-.4-.8-.8-1.5-2.1-3.4-7.6-11.4-16.2-10.5zm.2 14c-4.2-1.5-5.9-4.5-5.6-6.7s2.4-3.8 5.8-4.1c.3 0 .7-.1 1-.1 6.3 0 10.7 6.6 12.2 9.3-2.2 1.3-7.5 3.7-13.4 1.6zM1.6 730.4c.1 0 .3 0 .4-.1 9.8-2.6 14.7-8.2 17-13.7 4.8 12 18.5 13.1 18.7 13.1.8 0 1.5-.5 1.6-1.3 2-11.9-2.8-19.2-7.8-23.4 14.9-.8 19.3-15.9 19.3-16.1.2-.8-.2-1.6-.9-1.9-10.6-4-18.3-1.6-23.7 2.3 2.3-14.4-11-22-11.2-22-.7-.4-1.6-.2-2 .5-6.1 8.9-5.9 16.7-3.6 22.8-3.2-1.6-6.4-2.2-9.4-2.3v3.1c4.1.1 8.6 1.5 12.7 5.3.6.5 1.5.5 2.1 0 .6-.5.7-1.4.3-2.1-3.6-5.3-6.5-13.6-.2-23.7 3.4 2.4 12.2 10 7 22.7-.3.7 0 1.5.6 1.9s1.5.3 2-.3c4.3-4.7 11.7-9.5 23-5.8-1.5 3.9-7.1 14.5-21.2 12.1-.8-.1-1.5.3-1.7 1s.1 1.5.7 1.9c6 3.2 12.7 9.6 11.2 22-3.9-.7-14.2-3.6-15.8-15.8-.1-.8-.7-1.3-1.5-1.4-.8 0-1.4.5-1.6 1.3-1.5 8.1-6.5 13.6-14.9 16.2-.9-3.7-2.4-14 7-20.4.6-.4.8-1.2.6-1.9-.2-.6-.8-.9-1.4-.9h-.3c-3 .6-5.8.5-8.5-.3v3.2c1.4.4 2.8.6 4.1.6-2 2.2-3.3 4.6-4.1 6.9v14.9c.1.2.1.3.1.3.2.9.8 1.3 1.4 1.3zM1125 729.3V714c-2.5 7.2-.3 14.2 0 15.3zM1110.2 692.1c-.4.2-.6.6-.7 1s0 .8.2 1.2c5 7.7 10.4 11.1 15.3 12.4v-3.2c-4.3-1.3-8.2-4.4-11.8-9.4 2.2-1 6.6-2.7 11.8-2.5v-3.1c-8.1-.4-14.7 3.5-14.8 3.6zM1100.9 1431.3c-2-5.1-6.5-20.8 9.8-31.1 1.5 2.6 4.4 9.1 2.8 16.1-1.1 5-4.4 9.4-9.6 13.2 2.1-1.1 4.8-2.3 7.9-3.1 2.4-2.9 4-6.1 4.8-9.5 2.4-10.5-3.8-19.4-4.1-19.8-.5-.7-1.4-.9-2-.4-11.1 6.4-14.3 15-14.7 22.4 2.2 3.2 3.9 7.2 4.8 12.4 0 0 .2-.1.3-.2zM1106 1431.8c-1.5.8-2.7 1.6-3.6 2.2l.1.1c1.3-.7 2.4-1.5 3.5-2.3zM1100.3 1436.2c0 .1-.1.1-.1.2.8.8 1.7 1.6 2.5 2.4-.9-1.1-1.8-2-2.4-2.6zM1104.5 1436.2c1.5 1.8 3.3 4.1 4.8 7.1 3.4 1.7 6.9 2.6 10.5 2.6h.3c1.8 0 3.4-.3 5-.7v-3.2c-1.6.5-3.3.7-5.1.8-5.3 0-10.5-2.2-15.5-6.6z"/><path d="M1111.8 1426.4c-3.1.7-5.8 1.9-7.9 3.1-1.2.6-2.2 1.3-3 1.8-.1.1-.3.2-.4.3 0 .2.1.5.1.7v.2c.1 0 .2.1.3.2 0 0 .6.5 1.5 1.3.9-.6 2.1-1.4 3.6-2.2 4.5-2.3 11.4-4.6 19-1.9v-3.2c-4.8-1.5-9.3-1.2-13.2-.3z"/><path d="M1099.3 1432.3c.1 0 .2 0 .2.1.1 0 .1 0 .2-.1.3 0 .6 0 .9.1v-.2c0-.2-.1-.5-.1-.7-.9-5.2-2.6-9.2-4.8-12.4-8.9-12.9-25.7-11.5-25.9-11.4-.4 0-.8.3-1.1.6s-.4.8-.3 1.2c1.3 9.8 5 16.9 11.1 21.1 1.1.8 2.3 1.4 3.4 1.9 4.7-1.4 10.2-1.4 16.4-.2zm-27.5-21.6c5.3-.1 21.9 1.3 25.5 20.5-3 .4-10 .8-16-3.3-5-3.3-8.2-9.1-9.5-17.2zM1092 1434.6h.8-.8z"/><path d="M1102.5 1434.1c-1-.9-1.5-1.4-1.6-1.4-.1-.1-.2-.1-.3-.2-.3-.1-.6-.2-.9-.1-.1 0-.1 0-.2.1.3.1.6.3.8.6.2.4.3.8.2 1.2 0 .1-.3 1.4-1.1 3.4.2-.4.5-.8.8-1.2 0-.1.1-.1.1-.2.7.6 1.5 1.5 2.4 2.5 4.6 5.3 10.8 16.2 2 29.9-2.4-1.7-7.8-6.3-9.4-13.4-.8-3.9-.4-8 1.3-12.2-1.2 1.9-2.8 4-4.7 5.8-.3 2.4-.2 4.8.3 7.1 2.3 10.5 11.7 16 12.1 16.2.2.1.5.2.8.2.5 0 1-.2 1.3-.7 8.1-11.5 6.4-21.5 2.9-28.5-1.5-2.9-3.2-5.3-4.8-7.1l-2-2zM1093.6 1442.1c1.5-2.3 2.5-4.5 3.1-6.1-1.3 2-2.3 4.1-3.1 6.1z"/><path d="M1096.6 1443c1.3-2 2.2-3.9 2.8-5.5.8-2 1.1-3.3 1.1-3.4.1-.4 0-.8-.2-1.2-.2-.3-.5-.5-.8-.6-.1 0-.2-.1-.2-.1-6.2-1.3-11.7-1.2-16.4.1-2.7.8-5.1 1.9-7.2 3.5-8.7 6.4-9.7 17.2-9.8 17.7-.1.8.5 1.5 1.3 1.7 2.4.4 4.6.6 6.6.6 8.2 0 14-3.2 18-7.1 2-1.7 3.6-3.7 4.8-5.7zm-27.3 9.5c.6-2.9 2.5-9.8 8.3-14.1 3.8-2.8 8.6-4.1 14.4-3.9h.8c1.4.1 2.8.2 4.3.5l-.3.9c-.6 1.6-1.6 3.8-3.1 6.1-4 6-11.3 12.4-24.4 10.5zM8.6 573.2c0-3.9-3.3-7-7.4-7-.4 0-.8 0-1.2.1v3.2c.4-.1.8-.2 1.2-.2 2.3 0 4.3 1.8 4.3 3.9 0 1 0 1.9-4.3 1.9H0v3.1h1.2c2.2 0 7.4 0 7.4-5zM1097 2286.2c-2.1-.6-14.8-5.6-20.5-38.5-6.5-37.6-24.9-61.3-25.1-61.5-.5-.7-1.5-.8-2.2-.3s-.8 1.5-.3 2.2c.2.2 18.1 23.3 24.4 60.1 6.6 38.4 22.7 41 23.4 41.1.2 0 .5 0 .7-.1 11.2-3.7 20.4-1.4 27.4 2.8v-3.4c-7.2-4-16.5-6.1-27.8-2.4z"/><path d="M1113 2307.2c-14.3-3-15.9-14.3-16-14.8-.1-.6-.5-1.1-1-1.3-.2-.1-19.2-7.2-25.4-36-6.5-30.1-11.9-37.9-12.1-38.3-.5-.7-1.5-.9-2.2-.4s-.9 1.5-.4 2.2c.1.1 5.3 7.9 11.6 37.1 5.9 27.5 22.5 36.2 26.5 37.9.8 3.2 4.3 13.6 18.3 16.5 5.1 1.1 9.2.9 12.6.4v-3.2c-3.2.7-7 .9-11.9-.1z"/><path d="M1105.3 2296.3c-.6-.6-1.6-.5-2.2.2-.6.6-.5 1.6.1 2.2.2.2 6 5.1 18.8 5.1 1 0 2 .1 3 .2v-3.1c-1-.1-2-.2-3-.2-11.5-.1-16.7-4.4-16.7-4.4zM1111.4 1691.2c0 4.8 4.4 7.7 11.7 7.7.7 0 1.3 0 1.9-.1v-3.1c-.7.1-1.4.1-1.9.1-2.6 0-8.6-.4-8.6-4.6 0-3.5 3.8-6.4 8.6-6.4.7 0 1.3.1 1.9.2v-3.1c-.6-.1-1.3-.1-1.9-.1-6.4-.1-11.7 4.1-11.7 9.4zM8.6 256.5c0-3.3-3.4-5.9-7.6-5.9-.4 0-.7 0-1 .1v10.4h1c4.3 0 7.6-1.3 7.6-4.6zM1119.9 1856.6c-2.5-3.5-5.2-5.7-8.1-6.3-2.9-.6-5.8.2-8.7 2.4-4.6 3.5-6.5 7.7-5.6 12 1 4.2 4.7 7.9 10 10.1-4.5 1.6-7.6 3.8-9 6.7-1.4 2.7-1.3 5.8.2 9.2 2.3 5.1 5.8 8 10 8.2 3.8.2 7.8-2 11.2-5.8.1 4.1 1 7.2 2.9 9.3.6.7 1.4 1.3 2.2 1.8v-4c-1.9-2.3-2.5-6.6-1.6-12.5.1-.8-.3-1.5-1-1.7-.2-.1-.3-.1-.5-.1-.6 0-1.1.3-1.4.8-3 5.6-7.6 9.2-11.7 9-3-.1-5.5-2.3-7.3-6.3-1.1-2.6-1.2-4.7-.3-6.5 1.5-2.9 5.7-5.1 12.2-6.5.7-.2 1.2-.8 1.2-1.5s-.5-1.4-1.2-1.5c-6.7-1.4-11.9-5.2-12.9-9.4-.7-3 .8-6.1 4.4-8.8 2.2-1.7 4.2-2.3 6.2-1.8 2.9.7 5.8 3.7 8.5 8.9.3.6 1 1 1.8.8.7-.2 1.2-.8 1.2-1.5 0-4 .9-7.5 2.5-10v-4.8c-2.6 2.1-4.4 5.6-5.2 9.8z"/><path d="M1122.1 1875.2c.2 1.7 1.4 3.1 2.9 3.6v-8.2c-1.9.6-3.1 2.5-2.9 4.6zM6.8 1905.5c5.5-.2 9.6-2.4 11.3-6.2 1.7-3.7 1.1-8.6-1.5-13.4 4 .9 7.3.6 9.8-.7 2.5-1.4 4.2-3.9 4.9-7.5 1.4-6.7-.9-10.3-3.1-12.2-2.6-2.3-6.5-3.1-10.9-2.5 1.9-2.7 2.7-5.3 2.6-7.7-.2-2.8-1.7-5.4-4.5-7.6-4.4-3.5-8.9-4.4-12.7-2.5-1 .5-1.9 1.1-2.7 1.9v5.2c1-2 2.4-3.5 4.1-4.3 2.7-1.3 6-.6 9.4 2.2 2.1 1.7 3.2 3.4 3.3 5.3.2 2.7-1.5 5.7-4.9 9.2-.5.5-.6 1.3-.2 1.9.4.6 1.2.9 1.9.6 5.1-1.9 10-1.6 12.6.7 2.2 1.9 2.9 5 2 9.2-.5 2.7-1.7 4.4-3.4 5.4-2.5 1.4-6.4 1.1-11.4-.7-.7-.2-1.4 0-1.8.5-.4.6-.4 1.3 0 1.9 3.9 4.8 5.3 10.3 3.6 13.8-1.2 2.7-4.2 4.2-8.6 4.4-2.8.1-4.8-.6-6.1-2.1-.2-.2-.4-.5-.6-.8v4.4c1.7 1.1 3.7 1.7 6.2 1.7.3-.1.5-.1.7-.1z"/><path d="M2.5 1879c2.4-.3 4.1-2.5 3.8-4.9s-2.5-4.1-4.9-3.8c-.5.1-1 .2-1.4.4v7.8c.8.4 1.6.6 2.5.5zM1097.8 97c-.7 0-1.3.5-1.4 1.2-.2.7.2 1.4.8 1.7 9.2 5.1 18.6 9.3 27.9 12.8v-3.3c-7-2.6-14-5.7-20.9-9.2 4.6.2 11.7.6 20.9 1.9V99c-17.3-2.4-27.1-2-27.3-2zM1114.9 29.1c-.5.5-.6 1.3-.2 1.9 3.3 5.2 6.7 10.2 10.3 15v-5.3c-1.3-1.9-2.7-3.7-3.9-5.6 1.2.7 2.5 1.6 3.9 2.6V34c-5.2-3.4-8.1-5.1-8.3-5.1-.6-.4-1.3-.3-1.8.2zM1118.8 573.2c0 4.2 3.7 4.9 6.2 5V575c-3.1-.2-3.1-1-3.1-1.8 0-1.8 1.3-3.3 3.1-3.8v-3.2c-3.5.6-6.2 3.5-6.2 7zM1118.5 256.5c0 3 2.8 4.3 6.5 4.5v-10.4c-3.6.5-6.5 2.9-6.5 5.9zM13.6 781.1c-.9 0-1.6.7-1.6 1.6 0 .3-.2 16.6-12 37.9v2.9s0 .1.1.1c.2.4.2.9-.1 1.4v1.8c14.8-24.3 15.1-43.8 15.1-44.1 0-.9-.7-1.6-1.5-1.6z"/><path d="M.1 823.6s0-.1-.1-.1v1.5c.2-.4.3-.9.1-1.4zM13.4 1605.2c.9 0 1.6-.3 2.2-1.1.8-1 1-2.6.6-4.7-.9-5.8-5.8-14.8-16.2-24.9v4.4c8.2 8.4 12.2 15.9 13.1 20.8.2 1.3.1 2.1 0 2.4-.8-.1-2.7-1.2-4.3-2.1-2.3-1.3-5.2-2.9-8.8-4.3v3.4c2.9 1.2 5.3 2.5 7.3 3.7 2.5 1.2 4.6 2.4 6.1 2.4zM13.3 1437.2c.5-.6.5-1.5 0-2.1-4.4-4.7-8.9-7.2-13.2-8.5v3.2c3.2 1.1 6.6 3.1 9.9 6.3-1.6 1.5-5.2 4.4-9.9 5.8v3.2c7.9-1.9 13-7.6 13.2-7.9zM18.9 2312.5zM18 2312.2c.1.1.2.1.2.1-.1-.1-.3-.1-.4-.2-.1-.1-3.8-3.4-9.5-5.8-1.6.1-3.2.4-4.9.7-1.1.2-2.3.4-3.5.6v3.2c1.5-.2 2.8-.5 4.1-.7 5.2-1 8.9-1.7 14 2.1zM9.2 2299.7c2.6 1.7 5 3.6 6.8 5.8.3.4.4 1 .3 1.4 2.2 1.5 3.6 2.7 3.7 2.8.2.1.3.3.4.5-.1-.2-7.1-14.2-20.3-21.6v3.4c3.5 2.3 6.6 5 9.1 7.7zM18.9 2312.5c-.2 0-.3 0-.5-.1.2 0 .4.1.5.1zM20.3 2311.7zM19.9 2312.1c.1 0 .1 0 0 0 .1 0 0 0 0 0zM19.5 2312.4s-.1 0 0 0c-.1 0 0 0 0 0zM20.5 2311.2s0 .1 0 0c0 .1 0 0 0 0zM20.5 2310.7z"/><path d="M17.9 2312.1c.1.1.2.2.4.2.1 0 .1.1.2.1.2.1.3.1.5.1s.3 0 .5-.1h.1c.1-.1.3-.1.4-.2 0 0 .1 0 .1-.1l.1-.1c.1-.1.1-.2.2-.2.1-.1.1-.3.2-.4v-.1-.5c0-.2-.1-.3-.1-.4-.1-.2-.2-.3-.4-.5-.1-.1-1.5-1.3-3.7-2.8-.1.3-.3.6-.5.8-.3.2-.6.3-1 .3-.5 0-.9-.2-1.2-.6-1.4-1.8-3.3-3.3-5.4-4.7-2.4-.9-5.2-1.6-8.1-1.9v3.1c3.1.4 5.9 1.2 8.4 2.3 5.5 2.3 9.2 5.6 9.3 5.7z"/><path d="M13.6 2307.5c.3.4.8.6 1.2.6.3 0 .7-.1 1-.3s.4-.5.5-.8c.1-.5.1-1-.3-1.4-1.8-2.2-4.2-4.1-6.8-5.8-2.9-1.9-6.1-3.4-9.1-4.6v3.4c2.7 1.2 5.6 2.6 8.1 4.3 2 1.2 3.9 2.8 5.4 4.6zM9.8 1691.2c0-4.7-4.2-8.6-9.8-9.3v3.1c3.8.6 6.7 3.2 6.7 6.2 0 3.3-3.8 4.2-6.7 4.5v3.1c6.2-.5 9.8-3.3 9.8-7.6z"/></g><g><path d="M1111.2 2292.4c-.2.8.3 1.7 1.2 1.9.1 0 6.2 1.4 12.7 4.2v-3.4c-6.2-2.5-11.6-3.8-12.1-3.9-.8-.2-1.6.4-1.8 1.2z"/></g><g><path d="M1050.4 1546.6c-.9.1-1.5.8-1.4 1.7.1.9.8 1.5 1.7 1.4.3 0 31.5-2.8 57.5 15.1 6.9 4.8 12.4 9.5 16.8 13.9v-4.4c-4.1-4-9.1-8.1-15-12.1-27-18.5-58.3-15.7-59.6-15.6zM1107.2 1592.5c-1.1 0-2.3.1-3.6.2-14.4.8-36.1 1.9-44-18.9-.3-.8-1.2-1.2-2-.9-.8.3-1.2 1.2-.9 2 8.7 23 32.7 21.7 47.1 21 1.2-.1 2.4-.1 3.5-.2 7.1-.3 13 1.3 17.7 3.3v-3.4c-4.8-1.8-10.7-3.3-17.8-3.1z"/></g><path class="prefix__st0" d="M151.2 2104s-6.7-7.5-21.5-8.2c0 0 10 6.8 13.8 16.7M137.7 2117.5s-2.3-9.3-12.5-12.8c0 0 4.5 9.8 4 18M147 2052s-7.2 11.3-7.3 18.3c0 0 10.2-3.3 16-12.5M159.7 2061.5s-4.2 6.8-5.5 16c0 0 5.5-.5 12.8-9.3"/></g></svg>