<svg version="1.1" id="prefix__Layer_2" xmlns="http://www.w3.org/2000/svg" x="0" y="0" viewBox="0 0 1125 2436" xml:space="preserve"><style>.prefix__st0,.prefix__st1{fill:none;stroke:#000;stroke-width:3.3;stroke-linecap:round;stroke-linejoin:round;stroke-miterlimit:10}.prefix__st1{stroke-width:3.3829}</style><path d="M152.3 43.1c0-16.6-6.4-31.8-16.8-43.1H129c-8.5 3.3-31.2 14.7-32.6 41.5H90V0h-3.3v41.5h-6.4c-.7-25.1-20-37-30-41.5h-9.1C30.9 11.4 24.5 26.5 24.5 43.1c0 16.2 6.1 31.1 16.1 42.3.1.2.3.4.5.5 11.7 12.9 28.6 21 47.4 21 18.1 0 34.4-7.5 46-19.6H134.8c.8 0 1.5-.6 1.6-1.4v-.7c9.9-11.1 15.9-25.9 15.9-42.1zM44.6 1.3C50.1 3 76.1 13 77.1 41.5H27.8c.4-15.6 6.8-29.7 16.8-40.2zm-1.9 81.6c-9-10.3-14.5-23.6-14.9-38.1h49.3C76.2 75 48.3 81.9 42.7 82.9zm44.1 20.8c-16.2-.4-30.8-7.2-41.5-18 8.8-2.3 34.2-11.3 35.1-40.9h6.4v58.9zM133 2.1c9.6 10.4 15.6 24.2 16 39.4H99.7C101.5 12 130.2 2.9 133 2.1zM90.1 103.7V44.8h6.3c.3 29.6 24.6 39.2 34.3 41.8-10.6 10.2-24.9 16.7-40.6 17.1zm43.2-19.9c-7-1.6-33.3-9.6-33.6-39.1H149c-.4 15.1-6.3 28.8-15.7 39.1zM129.1 2436c.5-.2 1-.4 1.3-.5-10.5-10.1-24.7-16.5-40.4-16.9v17.4h-3.3v-17.4c-15.2.4-29.1 6.5-39.5 16.1.9.3 1.9.8 3.1 1.3h-9.1c.5-.5.9-1 1.4-1.4.1-.3.3-.5.6-.6 11.6-11.6 27.6-18.8 45.2-18.8 18.6 0 35.4 8 47.1 20.8h-6.4zM407.3 190.3c-3.7-1.1-7.6-.7-11 1.2-7 3.8-9.6 12.7-5.8 19.7 1.9 3.4 4.9 5.9 8.6 7 1.3.4 2.7.6 4.1.6 2.4 0 4.8-.6 6.9-1.8 3.4-1.9 5.9-4.9 7-8.6 1.1-3.7.7-7.6-1.2-11s-4.9-6-8.6-7.1zm6.6 17.1c-.8 2.9-2.7 5.2-5.4 6.7-2.6 1.4-5.6 1.8-8.5.9s-5.2-2.7-6.7-5.4c-3-5.4-1-12.2 4.4-15.2 2.6-1.4 5.6-1.8 8.5-.9 2.9.8 5.2 2.7 6.7 5.4 1.5 2.6 1.9 5.6 1 8.5z"/><path d="M438.9 175.3l-12.3-22.5c-1.2-2.1-3.1-3.6-5.4-4.3s-4.7-.4-6.9.7l-5.8 3.2-4.2-10.8c-.5-1.2-1.1-2.5-1.7-3.6L355.5 10.5c-1.6-4.4-5.3-7.4-9.9-8.3-4.6-.8-9.1.8-12.1 4.4L318.1 25c-5.1 6-12.2 9.9-19.9 10.9l-24.3 3.3c-4.6.6-8.4 3.5-10.2 7.8-1.8 4.3-1.2 9.1 1.6 12.8L348 168.6c.5 1 1.1 1.9 1.8 2.8l6.8 9.4-5.8 3.2c-4.4 2.4-6 7.9-3.6 12.2l12.3 22.5 5.4 9.9c.3.5.9.9 1.4.9.3 0 .5-.1.8-.2.8-.4 1.1-1.4.7-2.2l-4.6-8.4 15-8.2 9.6 13.2c4.4 6.1 11.4 9.4 18.5 9.4 3.7 0 7.5-.9 10.9-2.8 10-5.5 14.5-17.7 10.3-28.3l-5.9-15.2 15-8.2 4.6 8.4c.3.5.9.9 1.4.9.3 0 .5-.1.8-.2.8-.4 1.1-1.4.7-2.2l-5.2-10.2zM268 57.8c-2.1-2.8-2.5-6.3-1.2-9.5s4.2-5.4 7.6-5.8l24.3-3.3c8.6-1.1 16.4-5.4 22-12.1l15.5-18.3c1.9-2.2 4.5-3.4 7.3-3.4.6 0 1.1 0 1.7.2 3.4.6 6.1 2.9 7.3 6.1l43.8 118.4c-.5-.4-1-.8-1.5-1.1-.1-.1-.3-.2-.4-.3-.5-.4-1-.7-1.5-1-.1-.1-.2-.1-.3-.2-.5-.3-1-.6-1.4-.8-.1-.1-.3-.1-.4-.2-.5-.3-1.1-.5-1.7-.8-.1-.1-.2-.1-.4-.2l-1.5-.6c-.1 0-.2-.1-.3-.1-.6-.2-1.2-.4-1.8-.5-.1 0-.3-.1-.4-.1-.6-.1-1.2-.3-1.7-.4h-.1c-.6-.1-1.3-.2-1.9-.3h-.4c-.6-.1-1.3-.1-1.9-.1H376.4c-.6 0-1.3.1-1.9.1h-.3c-.6.1-1.2.2-1.7.3-.1 0-.2 0-.3.1-.6.1-1.3.3-1.9.4-.1 0-.2.1-.4.1-.6.2-1.2.3-1.7.5-.1 0-.1 0-.2.1-.6.2-1.2.5-1.8.7-.1.1-.3.1-.4.2l-1.8.9-4.4 2.4c-6.8 3.7-11.7 9.9-13.9 17.3-.1.5-.3 1-.4 1.5 0 .2-.1.3-.1.5-.1.3-.1.7-.2 1 0 .2-.1.4-.1.6 0 .3-.1.6-.1.9 0 .2 0 .4-.1.6 0 .3-.1.6-.1.9v3.4c0 .3 0 .5.1.8 0 .2 0 .4.1.6 0 .3.1.5.1.8v.4L268 57.8zm93.7 157.9l-11.5-21.1c-1.5-2.8-.5-6.3 2.3-7.8l6.2-3.4 4.9 6.8 12.7 17.4-14.6 8.1zm54 11.5c-8.6 4.7-19.4 2.3-25.2-5.6L380 207.3 364.6 186l-12.1-16.5c-.6-.8-1.1-1.7-1.6-2.6-3.4-6-4.2-12.9-2.3-19.5 1.9-6.6 6.2-12 12.3-15.3l4.4-2.4c.4-.2.9-.5 1.3-.7.1-.1.3-.1.4-.2.3-.1.6-.3.9-.4.2-.1.3-.1.5-.2.3-.1.6-.2 1-.3.1 0 .3-.1.4-.1.5-.1.9-.3 1.4-.4.1 0 .2 0 .3-.1.4-.1.7-.2 1.1-.2.2 0 .3-.1.5-.1.3-.1.6-.1.9-.1.2 0 .3 0 .5-.1.3 0 .7-.1 1-.1h3.8c.4 0 .8.1 1.2.1h.3c.5.1 1 .1 1.4.2.1 0 .3.1.4.1.4.1.7.2 1.1.2.2 0 .3.1.5.1.4.1.9.2 1.3.4h.1c.5.2.9.3 1.4.5.1.1.3.1.4.2.3.1.7.3 1 .4.1.1.3.1.4.2.4.2.9.4 1.3.7.1 0 .1.1.2.1.4.2.7.4 1.1.7.1.1.3.2.4.2.3.2.6.4 1 .7.1.1.2.1.3.2l1.2.9c.1.1.2.2.3.2.3.3.6.5.9.8l.3.3.9.9.2.2c.3.4.7.8 1 1.2.1.1.2.2.2.3.2.3.5.6.7 1 .1.1.2.2.3.4.3.4.6.9.8 1.3.6 1.1 1.2 2.2 1.6 3.4l7.7 19.8 9.2 23.8 6.4 16.5c3.3 9.4-.5 19.8-9.1 24.5zm4.9-43.8l-9.5-24.5-1.4-3.5 6.2-3.4c1.3-.7 2.9-.9 4.4-.5s2.7 1.4 3.4 2.7l11.5 21.1-14.6 8.1z"/><path d="M367.6 117.9c.3.6.9 1 1.5 1 .2 0 .4 0 .6-.1.8-.3 1.3-1.3.9-2.1l-37.7-94.1c-.3-.8-1.3-1.3-2.1-.9-.8.3-1.3 1.3-.9 2.1l37.7 94.1zM347.9 130.5c.3 0 .7-.1 1-.3.7-.5.9-1.6.4-2.3l-58.9-82.5c-.5-.7-1.6-.9-2.3-.4-.7.5-.9 1.6-.4 2.3l58.9 82.5c.3.5.8.7 1.3.7zM512.9 132.5c-3.7-1.1-7.6-.7-11 1.2s-5.9 4.9-7 8.6c-1.1 3.7-.7 7.6 1.2 11 2.6 4.8 7.6 7.5 12.7 7.5 2.3 0 4.7-.6 6.9-1.8 3.4-1.9 5.9-4.9 7-8.6 1.1-3.7.7-7.6-1.2-11-1.8-3.3-4.9-5.8-8.6-6.9zm6.7 17.1c-.8 2.9-2.7 5.2-5.4 6.7-5.4 3-12.2 1-15.2-4.4-1.4-2.6-1.8-5.6-.9-8.5.8-2.9 2.7-5.2 5.4-6.7 2.6-1.4 5.6-1.8 8.5-.9 2.9.8 5.2 2.7 6.7 5.4 1.4 2.5 1.7 5.5.9 8.4z"/><path d="M549.9 127.4l-5.4-9.9L532.2 95c-1.1-2.1-3.1-3.6-5.4-4.3-2.3-.7-4.8-.4-6.9.8l-5.8 3.2-4.1-10.9c-.5-1.2-1.1-2.5-1.7-3.6L478.6 0h-3.5l26.8 72.3-1.5-1.2c-.1-.1-.3-.2-.4-.3-.5-.4-1-.7-1.5-1-.1 0-.2-.1-.3-.2-.5-.3-1-.6-1.5-.8-.1-.1-.3-.1-.4-.2-.5-.3-1.1-.5-1.7-.8l-.4-.1-1.5-.6c-.1 0-.2-.1-.3-.1-.6-.2-1.2-.4-1.8-.5-.1 0-.3-.1-.4-.1-.6-.1-1.1-.3-1.7-.4h-.2c-.6-.1-1.2-.2-1.9-.3-.2 0-.3 0-.4-.1-.6-.1-1.3-.1-1.9-.1h-2.4c-.6 0-1.3.1-1.9.1h-.3c-.6.1-1.1.1-1.7.3-.1 0-.2 0-.3.1-.6.1-1.3.3-1.9.4-.1 0-.3.1-.4.1-.6.2-1.1.3-1.7.5-.1 0-.2.1-.2.1-.6.2-1.2.5-1.8.7-.1.1-.3.1-.4.2l-1.8.9-4.4 2.4c-6.8 3.7-11.7 9.9-13.8 17.3-.1.5-.3 1-.4 1.5 0 .2-.1.3-.1.5-.1.3-.1.7-.2 1 0 .2-.1.4-.1.6 0 .3-.1.6-.1.9 0 .2 0 .4-.1.6 0 .3-.1.6-.1.9v4.3c0 .2 0 .4.1.6 0 .3.1.5.1.8v.4L373.6 0h-3.9c.4.7.8 1.4 1.3 2l82.7 108.9c.5 1 1.1 1.9 1.8 2.8l6.8 9.4-5.8 3.2c-4.4 2.4-6 7.9-3.6 12.3l12.3 22.5 5.4 9.9c.3.5.9.9 1.5.9.3 0 .5-.1.8-.2.8-.4 1.1-1.4.7-2.2l-4.6-8.4 15-8.2 9.6 13.2c4.4 6.1 11.4 9.4 18.5 9.4 3.7 0 7.5-.9 10.9-2.8 10-5.5 14.5-17.7 10.3-28.3l-5.9-15.2 15-8.2 4.6 8.4c.3.5.9.9 1.5.9.3 0 .5-.1.8-.2.8-.9 1.1-1.9.6-2.7zm-82.6 30.5l-11.5-21.1c-1.5-2.8-.5-6.2 2.3-7.8l6.2-3.4 4 5.4 13.7 18.8-14.7 8.1zm62.9-12.7c3.5 9.1-.3 19.5-8.8 24.2-8.6 4.7-19.4 2.3-25.2-5.6l-10.5-14.3-14.9-20.4-12.7-17.4c-.6-.8-1.2-1.7-1.7-2.6-3.3-6-4.2-12.9-2.3-19.5 1.9-6.6 6.2-12 12.3-15.3l4.4-2.4c.4-.2.9-.5 1.3-.7.1-.1.3-.1.4-.2.3-.1.6-.3 1-.4.2-.1.3-.1.5-.2.3-.1.6-.2 1-.4.1 0 .3-.1.4-.1.5-.2.9-.3 1.4-.4.1 0 .2 0 .3-.1.4-.1.8-.2 1.1-.3.2 0 .3 0 .5-.1.3-.1.6-.1 1-.1.2 0 .3 0 .5-.1.4 0 .7-.1 1.1-.1h3.6c.4 0 .8.1 1.2.1h.3c.5.1 1 .1 1.5.2.1 0 .2 0 .4.1.4.1.8.2 1.1.3.1 0 .3.1.4.1.5.1.9.3 1.4.4.5.2.9.3 1.4.5.1 0 .2.1.4.2.4.2.7.3 1.1.5.1 0 .2.1.3.2.5.2.9.5 1.3.7.1 0 .1.1.1.1.4.2.8.5 1.1.7.1.1.2.2.3.2.3.2.7.5 1 .7.1.1.2.1.3.2.4.3.8.6 1.2 1l.2.2c.3.3.6.6.9.8l.3.3c.3.3.6.6.9 1l.2.2c.3.4.7.8 1 1.2.1.1.2.2.2.3.2.3.5.6.7 1 .1.1.2.3.3.4.3.4.6.9.8 1.3.6 1.1 1.2 2.3 1.6 3.4l7.7 19.8 9.2 23.8 6.5 16.6zm-4-19.5l-9.5-24.5-1.4-3.5 6.2-3.4c1.3-.7 2.9-.9 4.3-.5 1.5.4 2.7 1.4 3.4 2.7l11.5 21.1-14.5 8.1z"/><path d="M475.3 61c-.2.1-.4.1-.6.1-.7 0-1.3-.4-1.5-1L449.1 0h3.6l23.6 58.9c.3.9-.1 1.8-1 2.1zM478.6 2436h-3.5l-17-46.1c-1.2-3.3-3.9-5.5-7.3-6.1-.6-.1-1.2-.1-1.7-.1-2.8 0-5.4 1.2-7.3 3.4l-15.5 18.3c-5.6 6.6-13.4 10.9-22 12.1l-24.3 3.3c-3.4.5-6.3 2.6-7.6 5.8-1.3 3.2-.9 6.7 1.2 9.5h-3.9c-1.7-3.3-1.9-7.2-.4-10.8 1.8-4.3 5.6-7.2 10.2-7.8l24.3-3.3c7.8-1 14.9-4.9 19.9-10.9l15.5-18.3c3-3.6 7.5-5.2 12.1-4.4s8.3 3.9 9.9 8.3l17.4 47.1z"/><path d="M452.6 2436H449l-13.6-34c-.3-.8.1-1.8.9-2.1s1.8.1 2.2.9l14.1 35.2zM404.8 2436h-4.1l-7.5-10.5c-.5-.8-.3-1.8.4-2.3.7-.5 1.8-.4 2.3.4l8.9 12.4zM454.5 72.4c-.3.2-.6.3-1 .3-.5 0-1-.2-1.3-.7L400.8 0h4.1L455 70.1c.4.8.3 1.8-.5 2.3z"/><path class="prefix__st0" d="M679 154.9c-3.7 14.5-15.6 24-26.7 21.2-1.1-.3-2.2-.7-3.3-1.2-1.1-.7-3.5-2.3-4.6-3.4l-.2-.2c-4.8-5.1-7.2-13.3-6.1-22.2.2-1.4.5-2.9.8-4.4 1.3-5 3.6-9.5 6.4-13 4.7-5.7 10.9-9 17.2-8.7 1 .1 2.1.2 3.1.5 11.1 2.9 17.1 16.9 13.4 31.4z"/><path class="prefix__st0" d="M665.7 123.6c-1-.3-2-.4-3.1-.5-6.2-.3-12.5 3-17.2 8.7-2.9 3.5-5.2 7.9-6.4 13-.4 1.5-.7 2.9-.8 4.4-1.1 8.8 1.3 17 6.1 22.2l.2.2c.1.1.1.2.2.2.9.9 1.8 1.7 2.8 2.3l1.5.9c-2.6-1.1-12.5-6.1-13.2-6.6-5.7-4-9.1-11.7-9.1-20.4 0-.7 0-1.4.1-2 0-.7.1-1.4.2-2.2.2-1.4.5-2.8.8-4.2 1.5-6 4.4-11.1 8.1-14.8 5.3-5.4 12.1-8 18.6-6.4 3.2.3 10.7 4.9 11.2 5.2zM615.1 118.9l-1.1-.5-10.5-5.3c-5.1-2.6-11.3-.5-13.8 4.6-.7 1.5-1.1 3.1-1.1 4.6 0 3.8 2.1 7.4 5.7 9.2l13.8 6.9c-5 6.3-12.1 9.7-19.1 8.3-1.2-.2-2.3-.6-3.3-1.1-.5-.2-1-.5-1.5-.8-1.1-.6-2.2-1.4-3.1-2.3l-.3-.3c-5.9-5.6-8.8-15.7-6.6-26.2 2.7-13.3 12.3-22.8 22.5-22.8 1 0 2.1.1 3.1.3 9.5 2 15.9 12.9 15.3 25.4z"/><path class="prefix__st0" d="M573.9 116.1c-2.1 10.5.7 20.6 6.7 26.2 1 1 3.7 2.6 5 3.3-2.6-1-12.8-5.5-13.6-5.9-7.8-4.9-11.8-16.3-9.4-28.4 2.9-14.7 14.4-24.7 25.6-22.5 3.2.3 11.4 4.7 11.4 4.7-1-.2-2.1-.3-3.1-.3-10.3 0-19.9 9.6-22.6 22.9z"/><path class="prefix__st0" d="M633.1 128c-3 4.3-4.3 7.9-6.1 15.6-.2.7-.1 1.5-.1 2.2 0 .7-.1 1.4-.1 2l-18.5-9.3-.3-.2-13.8-6.9c-3.6-1.8-5.7-5.5-5.7-9.2 0-1.6.4-3.1 1.1-4.6 2.6-5.1 8.8-7.1 13.8-4.6l10.5 5.3 1.1.5 18.1 9.2z"/><path class="prefix__st0" d="M626.8 145.9v2.1h-.1c.1-.8.1-1.5.1-2.1zM628.7 82.7c3.7 14.5 15.6 24 26.7 21.2 1.1-.3 2.2-.7 3.3-1.2 1.1-.7 3.5-2.3 4.6-3.4l.2-.2c4.8-5.1 7.2-13.3 6.1-22.2-.2-1.4-.5-2.9-.8-4.4-1.3-5-3.6-9.5-6.4-13-4.7-5.7-10.9-9-17.2-8.7-1 .1-2.1.2-3.1.5-11.1 2.9-17.1 17-13.4 31.4z"/><path class="prefix__st0" d="M642 51.4c1-.3 2-.4 3.1-.5 6.2-.3 12.5 3 17.2 8.7 2.9 3.5 5.2 7.9 6.4 13 .4 1.5.7 2.9.8 4.4 1.1 8.8-1.3 17-6.1 22.2l-.2.2c-.1.1-.1.2-.2.2-.9.9-1.8 1.7-2.8 2.3l-1.5.9c2.6-1.1 12.5-6.1 13.2-6.6 5.7-4 9.1-11.7 9.1-20.4 0-.7 0-1.4-.1-2 0-.7-.1-1.4-.2-2.2-.2-1.4-.5-2.8-.8-4.2-1.5-6-4.4-11.1-8.1-14.8-5.3-5.4-12.1-8-18.6-6.4-3.2.4-10.7 4.9-11.2 5.2zM692.6 46.8l1.1-.5 10.5-5.3c5.1-2.6 11.3-.5 13.8 4.6.7 1.5 1.1 3.1 1.1 4.6 0 3.8-2.1 7.4-5.7 9.2l-13.8 6.9c5 6.3 12.1 9.7 19.1 8.3 1.2-.2 2.3-.6 3.3-1.1.5-.2 1-.5 1.5-.8 1.1-.6 2.2-1.4 3.1-2.3l.3-.3c5.9-5.6 8.8-15.7 6.6-26.2-2.7-13.3-12.3-22.8-22.5-22.8-1 0-2.1.1-3.1.3-9.5 2-15.9 12.8-15.3 25.4z"/><path class="prefix__st0" d="M733.8 43.9c2.1 10.5-.7 20.6-6.7 26.2-1 1-3.7 2.6-5 3.3 2.6-1 12.8-5.5 13.6-5.9 7.8-4.9 11.8-16.3 9.4-28.4-2.9-14.7-14.4-24.7-25.6-22.5-3.2.3-11.4 4.7-11.4 4.7 1-.2 2.1-.3 3.1-.3 10.2.1 19.9 9.6 22.6 22.9z"/><path class="prefix__st0" d="M674.6 55.9c3 4.3 4.3 7.9 6.1 15.6.2.7.1 1.5.1 2.2 0 .7.1 1.4.1 2l18.5-9.3.3-.2 13.8-6.9c3.6-1.8 5.7-5.5 5.7-9.2 0-1.6-.4-3.1-1.1-4.6-2.6-5.1-8.8-7.1-13.8-4.6l-10.5 5.3-1.1.5-18.1 9.2z"/><path class="prefix__st0" d="M680.9 73.7v2.1h.1c-.1-.7-.1-1.4-.1-2.1z"/><path d="M831.9 0h-4.8c15.1 13.6 23.3 33.9 22.2 55.7-1.5 28.6-18.1 53.9-45.7 69.5-41 23.1-69.5 16.6-78.9 9.9-2.5-1.8-3.5-3.5-3.3-4.4.2-.8 1.5-1.2 2-1.4 34.6-8.9 59-28.6 72.3-58.7 10.9-24.4 11.7-49.2 12.2-62.5.1-3.6.3-7.4.6-8.2h-3.4c-.3 1.5-.4 4-.5 8-.9 26.8-3.4 97.9-82 118.1-3.4.9-4.3 2.9-4.5 4-.5 2.5 1.2 5.2 4.7 7.7 4.8 3.4 14.1 6.8 27.2 6.8 14.3 0 33-4 55.2-16.5 28.6-16.1 45.8-42.4 47.4-72.2 1.1-21.4-6.5-41.6-20.7-55.8zM822.9 2428.4c-.6-.4-1.4-.8-2.1-1.1-4.3-11.7-9.8-25.6-12.1-27-1.6-1-3.9-.4-5.5.2-2.2.9-5.6 3-6.1 5.1-.3 1.1.3 2.4 1.8 5.5 2.6 5.4 7 14.5 6.4 23.8-.1.3-.2.6-.3 1h3.4c1.3-2.9 3.6-4.9 6.4-5.7.7-.2 1.5-.3 2.2-.3 1.4 0 2.8.4 3.8 1.1 2.1 1.5 4.2 3.2 6.1 4.9h4.8c-2.6-2.7-5.6-5.2-8.8-7.5zm-8.8-1.3c-2.1.6-4 1.7-5.5 3.2-.8-8.4-4.5-16.1-6.7-20.6-.6-1.3-1.3-2.7-1.5-3.4.5-.7 2.6-2.2 4.7-3 1.1-.4 1.7-.3 1.8-.3 1.4 1.5 6 12.7 10.1 23.6-.9.1-1.9.2-2.9.5z"/><path d="M821.7 2436h-4c-.2-.2-.3-.3-.3-.4-.6-.7-.4-1.8.3-2.3.7-.6 1.8-.4 2.3.3.2.2.8 1 1.7 2.4zM830.1 68.2c-9.6 40-41.1 58.7-41.5 58.9-.3.1-.5.2-.8.2-.6 0-1.1-.3-1.4-.8-.5-.8-.2-1.8.6-2.3.3-.2 30.6-18.2 39.9-56.8 9.5-39.5-6.9-64.2-9.2-67.4h4c4.8 7.4 17.3 31.4 8.4 68.2z"/><path class="prefix__st0" d="M988.2 28.8l-14.3 116.8c-.3 2.7-2.2 4.9-4.8 5.6-5 1.3-13.9 3.1-25.1 2.4-11.7-.8-19.9-1.9-24.6-2.8-2.9-.5-5-2.8-5.4-5.7L899.6 28.8h.1c1.6 4.1 20.8 7.3 44.2 7.3s42.6-3.2 44.2-7.3h.1z"/><path class="prefix__st0" d="M988.2 28.2c0 .2 0 .4-.1.6-1.6 4.1-20.8 7.3-44.2 7.3s-42.6-3.2-44.2-7.3c-.1-.2-.1-.4-.1-.6 0-4.3 19.8-7.9 44.3-7.9 24.5 0 44.3 3.6 44.3 7.9z"/><ellipse class="prefix__st0" cx="943.9" cy="79.3" rx="31.3" ry="5.2"/><path class="prefix__st0" d="M912.7 79.3s7 58.6 11.6 62.5c5.1 4.4 37.1 5.6 41.2 1.4 3.2-3.2 9.7-63.9 9.7-63.9M259.9 223.3l-1.1 3.3c-8.9 27.4-38.3 42.4-65.7 33.5-8.6-2.8-13.3-12-10.5-20.6 3.5-10.7-2-22.6-12.7-26.2-5.5-1.8-11.1-1.3-15.9 1.2-4.7 2.4-8.4 6.5-10.2 11.9l-.2.5c-2.8 8.6-12 13.3-20.6 10.5-27.4-8.9-42.4-38.3-33.5-65.7l1.1-3.3c6-18.6 26-28.8 44.6-22.7l101.9 33.1c18.6 5.9 28.8 25.9 22.8 44.5z"/><path class="prefix__st0" d="M197.5 246.7c-1.2-.4-1.9-1.7-1.5-2.9 5.9-18.1-3.8-37.8-21.6-43.8l-.4-.1c-8.8-2.8-18.1-2.1-26.3 2.1s-14.3 11.3-17.1 20.1l-.2.5c-.4 1.2-1.7 1.9-2.9 1.5-20-6.5-31-28-24.5-48l1.1-3.3c3.6-11.2 15.7-17.4 26.9-13.7L232.8 192c11.2 3.6 17.4 15.7 13.7 26.9l-1.1 3.3c-6.4 20-27.9 31-47.9 24.5zM182 242s-23.3 15.3-39.3-12.8M176 149.4l25.9 8.4c4.7 1.5 7.3 6.6 5.8 11.3l-43-14c1.5-4.7 6.6-7.2 11.3-5.7zM312.1 165.6l-22.7 70c-.2-.1-.5-.2-.7-.3l-16.7-5.4c-.3-.1-.6-.2-.9-.2l22.7-70.1c.6-1.9 2.7-3 4.6-2.3l11.5 3.7c1.8.7 2.8 2.7 2.2 4.6zM273.1 285.9L263 317.1c-2.9 9-9.2 15.9-17 19.9s-17.1 5-26.1 2.1c-18-5.8-27.8-25.1-22-43.1l.9-2.9 18.4 6-.9 2.9c-1.3 3.9-.8 8 .9 11.4s4.8 6.1 8.7 7.4c7.8 2.5 16.2-1.7 18.8-9.6l10.1-31.2c.3.2.6.3.9.4l16.7 5.4c.2 0 .4 0 .7.1z"/><path class="prefix__st0" d="M228 292.1l-1.3 4c-1 3-4.2 4.6-7.2 3.6l-23.7-7.7c-3-1-4.6-4.2-3.6-7.2l1.3-4c1-3 4.2-4.6 7.1-3.7l23.7 7.7c3 1.1 4.6 4.3 3.7 7.3zM291.2 240.3l-13.9 42.8c-.6 1.8-2.4 2.9-4.2 2.7-.3 0-.5-.1-.8-.2l-16.7-5.4c-.3-.1-.6-.2-.9-.4-1.5-.9-2.2-2.8-1.7-4.6l13.9-42.8c.6-1.8 2.3-2.9 4-2.7.3 0 .6.1.9.2l16.7 5.4c.3.1.5.2.7.3 1.8 1 2.6 2.9 2 4.7zM406.4 332c0 22.8-18.5 41.2-41.2 41.2-22.8 0-41.2-18.5-41.2-41.2 0-16.7 9.9-31.1 24.2-37.6 1.8-.8 3.6-1.5 5.5-2 3.7-1.1 7.5-1.6 11.5-1.6s7.9.6 11.5 1.6c1.9.6 3.7 1.2 5.5 2 14.3 6.5 24.2 20.9 24.2 37.6z"/><circle class="prefix__st0" cx="365.2" cy="332" r="27.8"/><path class="prefix__st0" d="M368.5 314.5h-3.8c-.2 0-.3 0-.5.1l-7.2 3.8c-.4.2-.6.7-.5 1.1l.9 3.4c.1.3.3.5.6.7.3.1.6.1.9 0l4.3-2.3v27.1c0 .6.4 1 1 1h4.3c.6 0 1-.4 1-1v-32.9c0-.6-.4-1-1-1zM376.7 292.4c-3.7-1.1-7.5-1.6-11.5-1.6s-7.9.6-11.5 1.6c-1.9.5-3.7 1.2-5.5 2l-33.5-36.9 24.2-19.3 26.2 37.6 11.6 16.6z"/><path class="prefix__st0" d="M415.6 257.5l-33.5 36.9c-1.8-.8-3.6-1.5-5.5-2l-11.5-16.5 26.2-37.6 24.3 19.2z"/><path d="M102.3 390.9L57.2 279.6l-.4-1c-.2-.4-.5-.8-.9-.9-.4-.2-.9-.2-1.3 0L0 302.3v3.6l54.4-24.6 44.3 109.3-55.3 25L0 329v7.4l41.1 82.2c.3.6.9.9 1.5.9.2 0 .5 0 .7-.2l58.2-26.3c.8-.3 1.1-1.2.8-2.1z"/><path d="M62.4 275.5l-7.1-15.8c-.4-.8-1.3-1.2-2.2-.8l-4.6 2.1-3.1 1.4L0 282.8v3.6l48.6-21.9 4.3-1.9 5.8 12.8L0 301.8v3.6l57.2-25.8 4.3-2c.4-.2.7-.5.9-.9.2-.4.2-.8 0-1.2z"/><path d="M49.3 262.2c-.3-.4-.5-.9-.8-1.3-3.7-5.3-10-8.2-16.4-7.3l-4.4-9.8-.6-1.4c-.2-.4-.5-.7-.9-.9s-.9-.1-1.3 0L10.5 248c-.8.4-1.2 1.4-.8 2.2l.6 1.4 4.1 9-12.5 5.6L0 262v7.7c.2.1.3.3.5.3.4.2.9.1 1.3 0l15.5-7c.8-.4 1.2-1.4.8-2.2l-4.7-10.5 11.3-5.1 4.9 10.8c.3.7 1.1 1.1 1.8.9 5.4-1.1 10.8 1 14 5.3L0 282.8v3.6l48.6-21.9c.4-.2.7-.5.8-1 .2-.4.1-.9-.1-1.3z"/><path d="M7.8 252.6c-.2 0-.4 0-.6-.1-.4-.2-.7-.5-.9-.9l-2.4-5.3c-.4-.8 0-1.8.8-2.2l21-9.5c.8-.4 1.8 0 2.2.8l2.4 5.3c.2.4.2.9 0 1.3s-.5.7-.9.9l-21 9.5c-.2.2-.4.2-.6.2zm-.3-6.1l1 2.3 18-8.1-1-2.3-18 8.1zM1108.2 259.7l7.5-3.4 2.6-1.2 6.3 14c.1.2.2.4.4.5V262l-4.4-9.7c-.2-.4-.5-.7-.9-.9s-.9-.1-1.3 0l-3 1.4-14.1-14.3c-.3-.3-.7-.5-1.2-.5s-.8.2-1.2.5l-5.5 5.4c-.6.6-.6 1.7 0 2.3l11.2 11.4-.6.3c-.4.2-.7.5-.9.9-.1.4-.1.9 0 1.3l6.6 14.6c-5.1 4.2-7.3 11.1-5.7 17.5l-4.5 2c-.8.4-1.2 1.4-.8 2.2l7.1 15.8c.2.4.5.7.9.9.2.1.4.1.6.1s.5 0 .7-.2l4.3-2 12.6 25.2V329l-9.4-18.8 9.4-4.2v-4.1l-16.8 7.6-5.8-12.8 4.4-2 18.2-8.2v-3.6l-17.8 8c-1.1-5.4 1.1-11 5.6-14.3.6-.5.9-1.3.5-2l-6.4-14.3 1.4-.6zm-11.2-14.6l3.1-3.1 12.1 12.3-4.3 1.9-10.9-11.1z"/><path class="prefix__st0" d="M779.8 308.5L776 310c-1.6.6-3.3.5-4.8-.1s-2.7-1.8-3.3-3.4c-1.2-3.2.3-6.8 3.5-8l3.5-1.4c.4 1.3.9 2.7 1.4 4 1.2 2.6 2.3 5.1 3.5 7.4zM797.3 288.3c0 .1.1.2.1.3l-.1-.3zM1055.7 187.4l.1.3c0-.2-.1-.3-.1-.3zM1089.4 180.9c1.2 3.2-.3 6.8-3.5 8l-3.6 1.4c-.7-2.5-1.5-5.2-2.5-7.8-.5-1.3-1.1-2.6-1.7-3.9l3.3-1.3c1.6-.6 3.3-.5 4.8.1 1.3.7 2.5 1.9 3.2 3.5zM1034.2 202.4c1.2 3.2-.4 6.8-3.7 8.1l-196.4 76.8c-3.3 1.3-7-.3-8.2-3.5-.6-1.6-.5-3.3.2-4.8s1.9-2.7 3.6-3.3L1026 199c3.3-1.3 7 .2 8.2 3.4z"/><path class="prefix__st0" d="M834.1 287.3l9-3.5c10.7 29.4 13.7 54.4 6.5 57.2-2.5 1-6-.9-9.9-5-7.3-7.6-16.3-22.7-24.1-41.5-.8-1.9-1.6-3.8-2.3-5.7-.8-2-1.5-3.9-2.2-5.8-6.9-19.1-10.6-36.3-10.4-46.8.1-5.7 1.4-9.4 3.9-10.4 7.2-2.8 21.9 17.6 34 46.4l-9 3.5c-1.6.6-2.9 1.9-3.6 3.3-.7 1.5-.8 3.2-.2 4.8 1.3 3.2 5 4.8 8.3 3.5z"/><path class="prefix__st0" d="M849.7 341l-13.8 5.4c-4.4 1.7-11.7-5.4-19.5-17.8-.4-.6-.8-1.2-1.1-1.9-.3-.5-.6-1.1-.9-1.6-.1-.2-.3-.5-.4-.7-.3-.5-.5-.9-.8-1.4-1.1-1.9-2.2-4-3.3-6.1-.3-.5-.6-1.1-.8-1.6l-1.5-3c-.3-.6-.6-1.3-1-2-.2-.4-.4-.8-.6-1.3-.4-.9-.9-1.9-1.3-2.9s-.9-2-1.3-3c-.5-1.1-.9-2.2-1.4-3.3 0-.1-.1-.2-.1-.3-.3-.8-.7-1.6-1-2.4l-.1-.2c-.4-.9-.8-1.9-1.1-2.9-.7-1.9-1.4-3.7-2.1-5.5 0-.1-.1-.2-.1-.3-.3-.7-.5-1.4-.7-2.1-.3-.7-.5-1.4-.7-2.1-.3-.7-.5-1.4-.7-2.2-.6-1.7-1.1-3.4-1.6-5l-.6-2.1c-.2-.7-.4-1.4-.6-2-.6-2-1.1-3.9-1.6-5.7-.4-1.7-.9-3.5-1.2-5.1-.3-1.5-.6-3-.9-4.4-.1-.5-.2-.9-.3-1.4-.1-.4-.1-.7-.2-1.1-.1-.4-.1-.7-.2-1-2-12.7-1.2-21.4 2.8-23l13.8-5.4c-2.5 1-3.8 4.7-3.9 10.4-.2 10.5 3.5 27.7 10.4 46.8.7 1.9 1.4 3.9 2.2 5.8s1.5 3.9 2.3 5.7c7.8 18.7 16.8 33.9 24.1 41.5 3.8 4.3 7.2 6.2 9.8 5.2z"/><path class="prefix__st0" d="M788 254.1c.1.3.1.7.2 1 .1.4.1.7.2 1.1.1.5.2.9.3 1.4.3 1.4.6 2.9.9 4.4l1.2 5.1c.5 1.9 1 3.8 1.6 5.7.2.7.4 1.4.6 2l.6 2.1c.5 1.6 1 3.3 1.6 5 .2.7.5 1.4.7 2.2.2.7.5 1.4.7 2.1s.5 1.4.7 2.1l.1.3c.7 1.8 1.4 3.7 2.1 5.5.4 1 .8 1.9 1.1 2.9l.1.2c.3.8.7 1.6 1 2.4 0 .1.1.2.1.3.5 1.1.9 2.2 1.4 3.3.4 1 .9 2 1.3 3s.9 1.9 1.3 2.9c.2.4.4.8.6 1.3.3.7.6 1.3 1 2l1.5 3c.3.5.5 1.1.8 1.6 1.1 2.1 2.2 4.2 3.3 6.1.3.5.5.9.8 1.4.1.2.3.5.4.7.3.5.6 1.1.9 1.6.4.6.8 1.3 1.1 1.9-.6 1.2-1.4 2-2.4 2.4-3.1 1.2-7.5-2-12.3-8.1-1.4-1.8-2.8-3.8-4.1-6-.2-.3-.4-.7-.6-1-.2-.4-.5-.8-.7-1.3-.3-.5-.6-1-.8-1.5-.3-.5-.6-1.1-.9-1.6-.3-.5-.5-1-.8-1.5s-.6-1.1-.8-1.6c-.2-.4-.4-.9-.7-1.3-.4-.9-.9-1.8-1.3-2.8-.6-1.3-1.2-2.7-1.8-4.1-.5-1.1-.9-2.2-1.4-3.4l-1.5-3.9v-.1c-.5-1.5-1-2.9-1.5-4.3-.1-.5-.3-.9-.4-1.4l-.6-2.1c-.2-.6-.3-1.2-.5-1.8-.2-.7-.4-1.3-.5-2-.3-1.1-.6-2.3-.8-3.4v-.2c-.1-.5-.2-1.1-.3-1.6-.1-.4-.2-.8-.2-1.2-.1-.5-.2-.9-.2-1.4v-.2c-.1-.4-.1-.9-.2-1.3-.2-1.4-.4-2.8-.5-4.1-.7-7.7.5-13 3.6-14.2 1-.5 2.4-.3 4 .4z"/><path class="prefix__st0" d="M797.6 316.9c1.4 2.2 2.8 4.2 4.1 6-.7.9-1.5 1.5-2.5 1.9-5.4 2.1-13.3-4.9-19.4-16.3-1.2-2.3-2.4-4.8-3.4-7.4-.5-1.3-1-2.7-1.4-4-4.6-14.1-3.8-26.6 2.1-28.9 1-.4 2-.5 3.1-.3.1 1.3.3 2.7.5 4.1.1.4.1.9.2 1.3v.2c.1.4.2.9.2 1.4.1.4.1.8.2 1.2.1.5.2 1.1.3 1.6v.2c.2 1.1.5 2.2.8 3.4.2.6.3 1.3.5 2 .2.6.3 1.2.5 1.8l.6 2.1c.1.5.3.9.4 1.4.4 1.4.9 2.9 1.5 4.3v.1c.5 1.3.9 2.6 1.5 3.9.5 1.2.9 2.3 1.4 3.4.6 1.4 1.2 2.8 1.8 4.1.4 1 .9 1.9 1.3 2.8.2.5.4.9.7 1.3.3.5.6 1.1.8 1.6.3.5.5 1 .8 1.5.3.6.6 1.1.9 1.6.3.5.6 1 .8 1.5.3.4.5.8.7 1.3.5.2.8.6 1 .9zM1044.2 198.5c.8 2 1.5 3.9 2.2 5.8 6.9 19.1 10.6 36.3 10.4 46.8-.1 5.7-1.4 9.4-3.9 10.4-7.2 2.8-21.9-17.6-34-46.5l11.6-4.5c3.3-1.3 5-4.9 3.7-8.1-1.2-3.2-4.9-4.7-8.2-3.5l-11.6 4.5c-10.7-29.4-13.7-54.4-6.5-57.2 2.5-1 6 .9 9.9 5 7.3 7.6 16.3 22.8 24.1 41.5.7 1.9 1.5 3.9 2.3 5.8z"/><path class="prefix__st0" d="M1058 193.1c.4 1 .7 1.9 1.1 2.9s.7 2 1.1 3l1.2 3.3c.4 1 .7 2.1 1 3.1s.7 2 1 3c.1.4.3.9.4 1.3l.6 2.1c.3 1.1.6 2.2 1 3.3.2.6.3 1.2.5 1.7.6 2.3 1.2 4.6 1.7 6.7l.3 1.5c.1.3.1.6.2.8.1.6.3 1.2.4 1.8.2.7.3 1.4.4 2.1 2.7 14.4 2.2 24.6-2.3 26.3l-13.8 5.4c2.5-1 3.8-4.7 3.9-10.4.2-10.5-3.5-27.7-10.4-46.8-.7-1.9-1.4-3.9-2.2-5.8-.8-2-1.5-3.9-2.3-5.8-7.8-18.7-16.8-33.9-24.1-41.5-4-4.1-7.4-6-9.9-5l13.8-5.4c4.1-1.6 10.6 4.3 17.7 15l.6.9.6.9c.3.4.5.8.8 1.2.8 1.2 1.5 2.5 2.3 3.9.9 1.5 1.7 3 2.6 4.6.9 1.7 1.8 3.5 2.8 5.3.3.6.6 1.3.9 1.9.3.6.6 1.3.9 1.9.7 1.6 1.5 3.1 2.2 4.8l.9 2.1c.3.7.6 1.3.9 2s.6 1.4.9 2c0 .1.1.2.1.3.7 1.9 1.5 3.7 2.2 5.6z"/><path class="prefix__st0" d="M1068.5 186.9c.5 1.2.9 2.3 1.3 3.5l1.5 4.2c.3 1 .6 2 .9 2.9l.9 3c.2.6.3 1.2.5 1.8s.3 1.2.4 1.8.3 1.1.4 1.7c.1.5.2 1 .3 1.4.1.4.2.8.2 1.2.5 2.6.8 5 1 7.2.7 7.7-.5 13-3.6 14.2-1 .4-2.1.3-3.3-.1-.1-.7-.3-1.4-.4-2.1-.1-.6-.2-1.2-.4-1.8-.1-.3-.1-.5-.2-.8l-.3-1.5c-.5-2.2-1.1-4.4-1.7-6.7-.2-.6-.3-1.2-.5-1.7-.3-1.1-.6-2.2-1-3.3l-.6-2.1c-.1-.4-.3-.9-.4-1.3-.3-1-.6-2-1-3-.3-1-.7-2.1-1-3.1l-1.2-3.3c-.4-1-.7-2-1.1-3s-.7-1.9-1.1-2.9c-.7-1.9-1.5-3.7-2.2-5.5l-.1-.3c-.3-.7-.6-1.4-.9-2-.3-.7-.6-1.4-.9-2l-.9-2.1c-.7-1.6-1.5-3.2-2.2-4.8-.3-.7-.6-1.3-.9-1.9-.3-.6-.6-1.3-.9-1.9-.9-1.8-1.8-3.6-2.8-5.3-.9-1.6-1.7-3.1-2.6-4.6-.8-1.3-1.6-2.6-2.3-3.9-.2-.4-.5-.8-.8-1.2l-.6-.9-.6-.9c.6-1.6 1.5-2.7 2.7-3.2 3.1-1.2 7.5 1.9 12.3 8.1.8 1 1.6 2.1 2.4 3.3.2.4.5.7.7 1.1l.6.9c.3.4.5.9.8 1.3.4.6.7 1.2 1.1 1.8.6 1 1.1 2 1.7 3 .3.5.6 1.1.9 1.7.3.6.6 1.2.9 1.7l.9 1.8c.2.5.4.9.7 1.4.6 1.4 1.3 2.8 1.9 4.3l.1.1c.3 1.3.9 2.5 1.4 3.8z"/><path class="prefix__st0" d="M1079.7 182.5c1 2.6 1.9 5.3 2.5 7.8 3.3 12.5 2.2 23-3.2 25.1-1 .4-2 .5-3.1.3-.2-2.2-.5-4.6-1-7.2-.1-.4-.1-.8-.2-1.2-.1-.5-.2-.9-.3-1.4-.1-.5-.2-1.1-.4-1.7-.1-.6-.3-1.2-.4-1.8-.2-.6-.3-1.2-.5-1.8l-.9-3c-.3-1-.6-1.9-.9-2.9-.4-1.4-.9-2.8-1.5-4.2-.4-1.1-.8-2.3-1.3-3.5-.5-1.3-1-2.6-1.5-3.8l-.1-.1c-.6-1.5-1.3-2.9-1.9-4.3-.2-.5-.4-.9-.7-1.4l-.9-1.8c-.3-.6-.6-1.2-.9-1.7-.3-.6-.6-1.1-.9-1.7-.6-1-1.1-2-1.7-3-.4-.6-.7-1.2-1.1-1.8-.3-.4-.5-.9-.8-1.3l-.6-.9c-.2-.4-.5-.7-.7-1.1-.8-1.2-1.6-2.3-2.4-3.3.7-.9 1.5-1.6 2.5-1.9 5.9-2.3 15 6.4 21.1 19.8.7 1.2 1.2 2.5 1.8 3.8zM140.5 525.9c-2 6 .5 12.5 6.1 15.5 1.3.7 2.7 1.4 4.3 2.2-3.3.5-6.9.8-10.3.8-6.7 0-12.9-1-17.7-2.1-5.6-1.3-9.4-6.4-9-12.1l3.5-57.1c.8-12.3 7-26.7 11-34.8 1.1-2.3 2-4.7 2.6-7.2v-.1c.6-2.5.8-5 .8-7.5 0-2.4-.3-4.7-.8-7-.9-4-2.5-7.8-4.7-11.3-2.4-3.7-3.8-8.4-3.8-13.5 0-12.2 8.3-22.1 18.5-22.1s18.5 9.9 18.5 22.1c0 4.1-1 8-2.6 11.3-2.1 4.3-3.6 8.8-4.3 13.5-.3 1.9-.4 3.9-.4 5.8v.3c0 2.8.3 5.6.9 8.4.6 2.8 1.4 5.5 2.6 8.2 2.4 5.6 5.5 13.7 7.4 21.9-.8 1.7-1.5 3.4-2 5l-20.6 59.8z"/><path class="prefix__st0" d="M130.9 431.1c.6-2.5.8-5 .8-7.5 0-2.4-.3-4.7-.8-7h21.6c-.3 1.9-.4 3.9-.4 5.8v.3c0 2.8.3 5.7.9 8.4h-22.1zM211.5 480.1l-13 61.6c-1.3 6.2-6.9 10.5-13.2 10.2-6-.3-13.5-1-20.4-3-5.2-1.4-9.9-3.3-14-5.3-1.5-.7-3-1.5-4.3-2.2-5.6-3-8.2-9.6-6.1-15.5l20.5-59.8c.6-1.7 1.3-3.3 2-5 5.2-11.3 14.1-22.3 20-28.9 1.9-2.1 3.5-4.4 4.9-6.9v-.1l23.6 6.5c-.2 3.1-.1 6.3.4 9.5 1.3 10.1 2.8 26.6-.4 38.9z"/><path class="prefix__st0" d="M229.9 391.8c-1.2 4.4-3.3 8.2-6.1 11.3-3.5 3.9-6.4 8.3-8.5 13.1-.9 2-1.6 4-2.2 6.1l-.1.3c-.8 3-1.3 6.1-1.6 9.2l-23.6-6.5c1.3-2.5 2.4-5.1 3.1-7.8.7-2.5 1.1-5.1 1.2-7.7.3-4.5-.3-9.1-1.7-13.5-1.5-4.7-1.6-10.1-.1-15.5 3.6-13 15.3-21.1 26.2-18.1 11 3.1 16.9 16.1 13.4 29.1z"/><path class="prefix__st0" d="M215.3 416.2c-.9 2-1.6 4-2.2 6.1l-.1.3c-.8 3-1.3 6.1-1.6 9.2l-23.6-6.5c1.3-2.5 2.4-5.1 3.1-7.8.7-2.5 1.1-5.1 1.2-7.7l23.2 6.4z"/><ellipse class="prefix__st0" cx="338.9" cy="488.6" rx="59" ry="60.7"/><circle class="prefix__st0" cx="347.5" cy="449.8" r="6.9"/><circle class="prefix__st0" cx="349.1" cy="477.7" r="6.9"/><circle class="prefix__st0" cx="318.3" cy="456.2" r="6.9"/><path class="prefix__st0" d="M194.8 85.9L193 74l-10.8-5.3c-2.4-1.2-2.4-4.5 0-5.7l10.7-5.3 1.7-11.9c.4-2.6 3.6-3.7 5.4-1.8l8.4 8.5 11.8-2.1c2.6-.5 4.6 2.3 3.4 4.6l-5.5 10.6 5.6 10.6c1.2 2.3-.7 5.1-3.3 4.6l-11.8-2-8.3 8.6c-1.9 2.1-5.1 1.1-5.5-1.5zM1043.6 60.5l8.3-8.6-2.4-11.7c-.5-2.6 2.1-4.6 4.5-3.5l10.8 5.2 10.4-5.9c2.3-1.3 5.1.6 4.7 3.2l-1.6 11.9 8.8 8.1c1.9 1.8 1 5-1.6 5.5l-11.8 2.1-5 10.9c-1.1 2.4-4.5 2.5-5.7.2l-5.6-10.6-11.9-1.3c-2.6-.4-3.7-3.6-1.9-5.5zM425.2 414.1l-1.8-11.8-10.8-5.3c-2.4-1.2-2.4-4.5 0-5.7l10.7-5.3 1.7-11.9c.4-2.6 3.6-3.7 5.4-1.8l8.4 8.5 11.8-2.1c2.6-.5 4.6 2.3 3.4 4.6l-5.5 10.6 5.6 10.6c1.2 2.3-.7 5.1-3.3 4.6l-11.8-2-8.3 8.6c-1.9 2-5.1 1-5.5-1.6z"/><circle class="prefix__st0" cx="42.8" cy="158.6" r="8.8"/><circle transform="rotate(-80.781 264.302 101.896)" class="prefix__st0" cx="264.3" cy="101.9" r="8.8"/><circle class="prefix__st0" cx="133.6" cy="332" r="8.8"/><circle class="prefix__st0" cx="252.6" cy="380.8" r="8.8"/><circle class="prefix__st0" cx="642" cy="227.9" r="8.8"/><circle class="prefix__st0" cx="865.9" cy="153.6" r="8.8"/><circle class="prefix__st0" cx="869.1" cy="226.3" r="8.8"/><circle class="prefix__st0" cx="1072.3" cy="121.7" r="8.8"/><path class="prefix__st0" d="M699 322.1s6.4-32.9 5.2-38.1-49.6-22.3-73-13.2c-4.4 1.7-.6 23.6-5.1 37.7-.1.1 47-4.8 72.9 13.6zM699 322.1s14.1 13.7 7.9 49.4-20.2 37.1-26.8 33.4"/><path class="prefix__st0" d="M626 308.6s-41.4 34.9-45.3 82.7c-3.8 47.8 29 83.2 68.5 77.2S697.3 419 683 406M678.2 419.1s8.2-23.4-14.4-33.8M677.8 345.6s-11.5 19.6-8.6 42.9M663.9 353.9s6.2 3.3 6.4 10.8M628 298.2s22.5-.5 36 3.9c0 0 3.4-15.5 1.8-19.6-1.6-4.1-24.2-8.4-36.9-3.9M702.4 308.1c17.3-.7 39.8 1.7 52 10.8 3.8 2.8-5.8 22.9-5.1 37.7 0 0-18.3-7.5-40-9.5"/><path class="prefix__st0" d="M750.1 346.1s-11.6-4.2-25-5.5c0 0 .9-15.8 3.6-19.3s20.6.9 25.9 5.8M749.2 356.6s12.2 17.6 6.8 49.2c-5.3 31.6-31.5 42.9-43.6 35.9-12.1-7.1-11-32 13.2-40.7"/><path class="prefix__st0" d="M652.3 468s8 29.9 47.2 33.2c39.3 3.3 52.3-29.4 54.5-43.5s-8.7-22.9-12-23.6M750.9 421.9s8.7 7.6 2.7 26.5M740.7 312.3s-20.3-106.9-20.8-108.9c-.5-2.1-25.2 43.7-40.7 69.5M1017.6 373.4l-21.5 88.2c-2.6 10.5-13.2 17-23.7 14.4l-80.7-19.6c-10.5-2.6-17-13.2-14.4-23.7l21.5-88.2c2.6-10.5 13.2-17 23.7-14.4h.1l2.3-9.3 80.4 19.6-2.3 9.3h.1c10.6 2.5 17.1 13.1 14.5 23.7z"/><path class="prefix__st0" d="M1016.4 330.5l-1.6 6.5c-.7 3-3.7 4.8-6.7 4.1l-86.2-21c-3-.7-4.8-3.7-4.1-6.7l1.6-6.5c.7-3 3.7-4.8 6.7-4.1l86.2 21c3 .7 4.9 3.7 4.1 6.7z"/><path transform="rotate(-76.332 947.056 404.85)" class="prefix__st0" d="M920.9 343.7h52.3V466h-52.3z"/><path class="prefix__st0" d="M1006.9 571.9l68.9-93.2c6.4-8.6 3.2-20.9-6.5-25.4l-14.2-6.6c-9.6-4.5-21 .9-23.6 11.2l-28.4 112.3c-.4 2.2 2.5 3.6 3.8 1.7zM1061.6 449.7s39.2-91.9 16.2-91.5c-23.1.5-16.2 91.5-16.2 91.5z"/><path class="prefix__st0" d="M1064.9 451.3s63.3-15.1 53.8-34.5c-9.6-19.5-53.8 34.5-53.8 34.5z"/><path class="prefix__st0" d="M1061.6 449.7s26.7-83 42.3-71.5c15.5 11.5-39 73-39 73l-3.3-1.5zM1029.8 464.9l7 3.2M1057.4 489.1l6.9 3.2M1035.2 486.4l6.9 3.2M1042.7 509l6.9 3.2M1019.5 511l6.9 3.3M1023.9 536.2l6.9 3.2M1009 548.6l6.9 3.2M1056.6 466.1l6.9 3.2M812.4 467.1l8.3-8.6-2.4-11.7c-.5-2.6 2.1-4.6 4.5-3.5l10.8 5.2 10.4-5.9c2.3-1.3 5.1.6 4.7 3.2l-1.6 11.9 8.8 8.1c1.9 1.8 1 5-1.6 5.5l-11.8 2.1-5 10.9c-1.1 2.4-4.5 2.5-5.7.2l-5.6-10.6-11.9-1.3c-2.6-.4-3.7-3.6-1.9-5.5z"/><circle class="prefix__st0" cx="892.9" cy="536.2" r="8.8"/><circle class="prefix__st0" cx="948.8" cy="512.2" r="8.8"/><circle class="prefix__st0" cx="815.3" cy="566.2" r="40.8"/><circle class="prefix__st0" cx="818.5" cy="557.2" r="23.6"/><path class="prefix__st0" d="M826 558.5c3.1-1.2 4.3-3.4 4.8-4.9 1.2-3.9-1-8.8-7.5-10.8-6-1.9-11.5.3-13 5-.7 2.2-.3 4.4 1.2 6.5-3.1.9-5.2 2.8-6.1 5.6-1.3 4.2 1.2 9.6 8.5 11.8 6.5 2 12.4-.2 14-5.4.9-2.7.2-5.4-1.9-7.8zm-5.9-4.7c-2.8-1.8-2.8-3-2.5-4 .4-1.2 1.5-2.1 3.8-1.5 2.5.8 2.4 2.5 2.2 3.4-.6 1.6-2.2 2-3.5 2.1zm-2.8 5.5c3.3 2.1 3.6 3.6 3.1 5.1-.5 1.7-2.4 2.4-4.7 1.7-1.2-.4-2.1-1-2.6-1.9-.4-.7-.5-1.6-.2-2.4.8-2.1 2.9-2.5 4.4-2.5zM1028.6 673.2c-4.8-1.2-8.6-5.1-9.6-10l-11.4-54.9c-1.5-7 3.1-13.9 10.1-15.4s13.9 3.1 15.4 10.1l5.6 26.8 43.9-58.4c4.3-5.7 12.5-6.9 18.2-2.6 5.7 4.3 6.9 12.5 2.6 18.2l-61.2 81.4c-3.1 4.1-8.2 6-13.2 4.9-.2-.1-.3-.1-.4-.1zM967.2 663.7c-5.1-5.8-11.4-10.6-18.7-14.2-7.3-3.6-15-5.7-22.7-6.2-24.3-1.8-48.4 10.9-59.9 34.1-15.1 30.5-2.6 67.5 27.9 82.5s67.5 2.6 82.5-27.9c11.5-23.2 7.1-50.1-9.1-68.3zm-67.3 83.9c-23.7-11.7-33.4-40.5-21.7-64.2s40.5-33.4 64.2-21.7 33.4 40.5 21.7 64.2c-11.8 23.7-40.5 33.4-64.2 21.7z"/><path class="prefix__st0" d="M972.7 652.5l-5.5 11.2c-5.1-5.8-11.4-10.6-18.7-14.2-7.3-3.6-15-5.7-22.7-6.2l5.5-11.1c1.3-2.7 4.6-3.8 7.3-2.5l31.6 15.6c2.7 1.3 3.8 4.6 2.5 7.2zM968.5 633.8l-4.2 8.5-19.7-9.8 4.2-8.5c.9-1.8 3-2.5 4.8-1.6l13.3 6.6c1.7.9 2.5 3.1 1.6 4.8zM937.8 668.6l-19.1 38.5-10.9-32.3M581.8 307.1l-2.8-28.7 5.6-26.6c-3-5.8-6.8-11.1-11.3-15.7l-26.3-8-23.7-14h-1.7c-8.9 0-17.4 1.6-25.3 4.6l-7.1 18.8-26 16-3.9-3c-5.4 9.8-8.4 20.9-8.4 32.8 0 4.3.4 8.5 1.2 12.5l7.3-14.7 23.6 14.7 4 31-17.4 3.2c12.3 13.1 29.7 21.6 49.1 22.4l-5-12.6 27-17.7 22.7 5.7-5.5 14.9c14.6-8.5 25.8-22 31.1-38.1l-7.2 2.5zm-43.3-12.6l-31.2-15 2.7-30.7 33-6.3 16 28.3-20.5 23.7z"/><path class="prefix__st0" d="M592.3 283.3c0 7.5-1.2 14.6-3.4 21.3l-7.1 2.5-2.8-28.7 5.6-26.6c4.9 9.5 7.7 20.2 7.7 31.5zM496.4 218.7l-7.1 18.8-26 16-3.9-3c8-14.5 21.1-25.9 37-31.8zM573.3 236.1l-26.3-8-23.7-14c19.7.5 37.4 8.8 50 22zM563.3 327.8l-5.5 14.9c-10.6 6.2-22.9 9.7-36.2 9.7-1 0-2 0-3-.1l-5-12.6 27-17.7 22.7 5.8zM487 326.8l-17.4 3.2c-8.8-9.4-15-21.2-17.4-34.2l7.3-14.7 23.6 14.7 3.9 31zM559 270.8l-20.5 23.7-31.2-15 2.7-30.7 33-6.3zM547 228.1l-4 14.4M489.3 237.5s12.3 4 20.7 11.3M463.3 253.5s-4.1 13.7-3.9 27.7M507.3 279.5s-10.3 9.1-24.3 16.4M538.5 294.5s3.2 14.3 2.2 27.7M487 326.8s10 9 26.7 13M579 278.5s-11.3-6.3-20-7.7M581.8 307.1s-8.1 14-18.5 20.7M548.5 26.3l12 .2 7-9.7c1.5-2.1 4.9-1.6 5.6.9l3.5 11.5 11.4 3.6c2.5.8 3 4.1.8 5.6l-9.8 6.8.1 12c0 2.6-3 4.1-5.1 2.5l-9.5-7.2-11.5 3.9c-2.5.8-4.9-1.6-4-4.1l3.9-11.3-7.1-9.7c-1.5-2 .1-5 2.7-5z"/><circle class="prefix__st0" cx="565.9" cy="171.9" r="8.8"/><path class="prefix__st0" d="M27.1 503.7l5.2-10.8-6-10.4c-1.3-2.3.6-5.1 3.2-4.7l11.9 1.6 8-8.9c1.8-2 5-1 5.5 1.6l2.2 11.8 10.9 4.9c2.4 1.1 2.5 4.4.2 5.7L57.7 500l-1.3 12c-.3 2.6-3.4 3.8-5.4 2l-8.7-8.3-11.7 2.5c-2.5.5-4.6-2.2-3.5-4.5zM655.6 568.7l7.3-9.5-3.7-11.4c-.8-2.5 1.6-4.9 4.1-4l11.3 4 9.7-7c2.1-1.5 5.1 0 5 2.7l-.3 12 9.7 7c2.1 1.5 1.6 4.9-1 5.6l-11.5 3.4-3.7 11.4c-.8 2.5-4.1 3-5.6.8l-6.8-9.9h-12c-2.6 0-4.1-3-2.5-5.1zM1034.7 763.6l-1.8-11.8-10.8-5.3c-2.4-1.2-2.4-4.5 0-5.7l10.7-5.3 1.7-11.9c.4-2.6 3.6-3.7 5.4-1.8l8.4 8.5 11.8-2.1c2.6-.5 4.6 2.3 3.4 4.6l-5.5 10.6 5.6 10.6c1.2 2.3-.7 5.1-3.3 4.6l-11.8-2-8.3 8.6c-1.9 2.1-5.2 1.1-5.5-1.6z"/><circle class="prefix__st0" cx="940" cy="579.1" r="8.8"/><circle class="prefix__st0" cx="517.9" cy="399.5" r="8.8"/><circle class="prefix__st0" cx="810.6" cy="385.5" r="8.8"/><circle class="prefix__st0" cx="387.4" cy="578.3" r="8.8"/><path d="M76 792.2c-2 0-3.9-.5-5.7-1.4-2.9-1.5-5-4.1-6-7.2L23.1 651.9c-.1-.4-.1-.9.1-1.3s.6-.7 1-.8l85.4-26.7c.9-.3 1.8.2 2.1 1.1l41.2 131.7c2 6.5-1.6 13.4-8 15.4l-65.1 20.4-.5-1.6.5 1.6c-1.4.3-2.6.5-3.8.5zM26.7 652.5l40.7 130.1c.7 2.3 2.3 4.2 4.4 5.3s4.5 1.3 6.8.6l65.1-20.4c4.7-1.5 7.4-6.5 5.9-11.2L109 626.7l-82.3 25.8z"/><path d="M24.7 653c-.7 0-1.4-.5-1.6-1.2l-2.7-8.6c-.1-.4-.1-.9.1-1.3s.6-.7 1-.8l85.4-26.7c.4-.1.9-.1 1.3.1s.7.6.8 1l2.7 8.6c.1.4.1.9-.1 1.3s-.6.7-1 .8L25.1 653h-.4zm-.7-9.2l1.7 5.5 82.3-25.7-1.7-5.5L24 643.8z"/><path d="M22 644.4c-.3 0-.5-.1-.8-.2-.4-.2-.7-.6-.8-1l-1.8-5.9c-7.6-24.4 6-50.5 30.4-58.1 11.8-3.7 24.4-2.6 35.4 3.2 11 5.7 19.1 15.4 22.8 27.3l1.8 5.9c.1.4.1.9-.1 1.3s-.6.7-1 .8l-85.4 26.7H22zm40.9-64c-4.3 0-8.7.7-12.9 2-22.7 7.1-35.4 31.3-28.3 54l1.3 4.3 82.3-25.7-1.3-4.3c-3.4-11-10.9-20-21.1-25.3-6.3-3.3-13.2-5-20-5zM25.2 649.8c-.7-.2-1.4 0-1.9.6-1 1.4-13.3 19.5-23.3 39.3v7.6c7.6-16.1 17.8-32.4 22.8-40.2-.7 17.8-3.9 71.7-18.4 81.8-1.4 1-2.9 1.5-4.4 1.5v3.3c2.2 0 4.3-.7 6.3-2.1 18.8-13 19.9-87 20-90.2 0-.7-.5-1.4-1.1-1.6zM1125 697.3c-6.7 14.2-11.3 28.4-8.7 36.6.9 2.9 2.8 4.8 5.6 5.9 1.1.4 2.1.6 3.1.6v3.3c-1.3 0-2.7-.3-4.2-.8-3.8-1.4-6.4-4-7.6-8-3.3-10.3 3.4-28.4 11.8-45.2v7.6z"/><path class="prefix__st0" d="M364.3 675.2l31.9-53.9M347.5 710.9s-28.1 41.9-28.9 41.4c-.7-.5 22.4-45.2 22.4-45.2l6.5 3.8zM375.6 656c8.8 5.2 20.1 2.3 25.2-6.5l8.2-13.8-19.8-2.7-11.9-16-8.2 13.8c-5.1 8.7-2.2 20 6.5 25.2z"/><path class="prefix__st0" d="M368.4 682.8l-15.8 26.8c-1 1.7-3.3 2.3-5 1.4l-6.5-3.8c-1.7-1.1-2.3-3.3-1.3-5.1l15.8-26.8c1-1.8 3.3-2.4 5.1-1.3l6.3 3.8c1.8.9 2.4 3.2 1.4 5zM180.4 607l-51.5-35.7M162.1 594.3c5.8-8.4 3.7-19.8-4.6-25.6l-13.2-9.1-4.1 19.6-16.9 10.7 13.2 9.1c8.3 5.7 19.8 3.7 25.6-4.7zM214.8 626.3l-4.3 6.2c-1.2 1.6-3.5 2-5.2.9l-3.5-2.4-17.8-12.5-4.2-2.9c-1.7-1.2-2.1-3.5-.9-5.2l4.2-6c1.2-1.7 3.5-2.1 5.2-.9l4.1 2.8 17.8 12.4 3.6 2.5c1.7 1.2 2.1 3.4 1 5.1z"/><g><path class="prefix__st0" d="M333.2 657.1c0 44-35.6 79.6-79.6 79.6-43.9 0-79.6-35.6-79.6-79.6 0-14 3.6-27.1 10-38.5l17.8 12.4 3.5 2.4c1.7 1.2 4 .8 5.2-.9 0 0 3.4 2.1 8.3 5.1 4.7 2.8 10.7 6.5 16.4 9.9 3.9 2.3 7.6 4.6 10.7 6.4 4.6 2.7 7.9 4.5 8 4.3s-2.7-2.7-6.9-6.1c-2.8-2.3-6.2-5-9.7-7.8-5.2-4.2-10.7-8.5-15-11.9-4.5-3.5-7.6-6-7.6-6 1.1-1.7.7-4-1-5.1l-3.6-2.5-17.8-12.4c14.6-17.6 36.6-28.8 61.3-28.8 44-.1 79.6 35.5 79.6 79.5z"/><path class="prefix__st0" d="M253.9 658.2c-.1.2-3.4-1.6-8-4.3-3.1-1.8-6.9-4-10.7-6.4-5.7-3.4-11.7-7.1-16.4-9.9-4.9-3-8.3-5.1-8.3-5.1l4.3-6.2s3.1 2.5 7.6 6c4.3 3.4 9.8 7.7 15 11.9 3.5 2.8 6.9 5.5 9.7 7.8 4.1 3.5 7 6 6.8 6.2z"/><path class="prefix__st0" d="M311.6 657.1c0 32-26 58-58 58s-58-26-58-58c0-9.4 2.2-18.3 6.2-26.1l3.5 2.4c1.7 1.2 4 .8 5.2-.9 0 0 3.4 2.1 8.3 5.1 4.7 2.8 10.7 6.5 16.4 9.9 3.9 2.3 7.6 4.6 10.7 6.4 4.6 2.7 7.9 4.5 8 4.3s-2.7-2.7-6.9-6.1c-2.8-2.3-6.2-5-9.7-7.8-5.2-4.2-10.7-8.5-15-11.9-4.5-3.5-7.6-6-7.6-6 1.1-1.7.7-4-1-5.1l-3.6-2.5c10.6-12 26.1-19.6 43.4-19.6 32.1-.1 58.1 25.9 58.1 57.9z"/><path class="prefix__st0" d="M293.4 657.1c0 22-17.8 39.8-39.8 39.8s-39.8-17.8-39.8-39.8c0-7.1 1.8-13.7 5.1-19.5 4.7 2.8 10.7 6.5 16.4 9.9 3.9 2.3 7.6 4.6 10.7 6.4 4.6 2.7 7.9 4.5 8 4.3s-2.7-2.7-6.9-6.1c-2.8-2.3-6.2-5-9.7-7.8-5.2-4.2-10.7-8.5-15-11.9 7.3-9.2 18.6-15.1 31.2-15.1 22-.1 39.8 17.8 39.8 39.8z"/><path class="prefix__st0" d="M274.4 657.1c0 11.5-9.3 20.7-20.7 20.7-11.5 0-20.7-9.3-20.7-20.7 0-3.5.8-6.7 2.3-9.6 3.9 2.3 7.6 4.6 10.7 6.4 4.6 2.7 7.9 4.5 8 4.3s-2.7-2.7-6.9-6.1c-2.8-2.3-6.2-5-9.7-7.8 3.8-4.8 9.7-7.9 16.3-7.9 11.4-.1 20.7 9.2 20.7 20.7z"/><path class="prefix__st0" d="M261.9 657.1c0 4.6-3.7 8.3-8.3 8.3-4.6 0-8.3-3.7-8.3-8.3 0-1.1.2-2.2.6-3.2 4.6 2.7 7.9 4.5 8 4.3s-2.7-2.7-6.9-6.1c1.5-2 3.9-3.3 6.6-3.3 4.6 0 8.3 3.7 8.3 8.3z"/></g><g><path class="prefix__st0" d="M440.1 628.8l19.1 8.6c2.8 1.3 6 1 8.6-.6l74-46c2.4-1.5 3.9-4 4.2-6.8l1.8-21.1c-16.7 15-35.8 31.5-51.5 43-24.8 18.1-44 24.1-54.7 22l-1.5.9zM555.9 555.5l9.5 15.3c2.1 3.3 6.4 4.3 9.8 2.3l24.2-15c3.3-2 4.3-6.3 2.3-9.7l-13.8-23.1c-.9 1.5-3.5 3.9-6.9 6.7-5.8 5.6-14.7 14-25.1 23.5zM615.9 561.4l5 8-154.2 95.8c-4 2.5-11.4 2.9-17.9 0-4.6-2-8.7-5.6-10.9-11.1-.3-.9.7-1.6 1.4-1.1 4.1 3 12.9 7.9 22.4 4.2l154.2-95.8z"/><path transform="rotate(-31.843 472.82 642.076)" class="prefix__st0" d="M469.5 635h6.6v14.1h-6.6z"/><path transform="rotate(-31.843 524.178 610.082)" class="prefix__st0" d="M520.9 603h6.6v14.1h-6.6z"/><path transform="rotate(-31.843 589.895 570.796)" class="prefix__st0" d="M586.6 565.1h6.6v11.5h-6.6z"/><path class="prefix__st0" d="M441.7 627.8c10.7 2.1 29.8-3.9 54.7-22 15.7-11.5 34.8-27.9 51.5-43 2.8-2.5 5.5-5 8.1-7.3 10.4-9.5 19.3-18 25-23.5 4.4-4.2 6.9-6.7 6.9-6.7s2.6-26.3-19.4-35.1-36.8-37.8-36.8-37.8-49.6-2.9-63.8 15.8l7.2 13.1s5.7 65.3-10.6 89.5c-16.4 24.2-34.7 35.5-31.9 48.8.9 4.3 4 7.2 9.1 8.2z"/><path class="prefix__st0" d="M460.4 576.6c42.1-16.7 34.4-99.1 34.4-99.1-4-.3-19.7 3.9-19.7 3.9M475.7 490.9s10.6-4 19.6-2.8M476 503.4s11.7-2 19.1-.7M475.9 519s11.9-1.4 17.8-.3M475 532.4s9.9-.8 16.1.7M472.9 547.5s7.1-.5 12.2 1.1M470.1 560.8s6 .8 7.4 2.6"/><path class="prefix__st0" d="M475 483.7s-15.4-17.6-20.5-9.9 20.5 10.9 20.5 10.9-32.2-7.3-32.1 3.9c0 11.2 32.1-2.7 32.1-2.7s-13.5 17.4-21.6 24.1M475.2 487.9c.4-.1-4.5 17.8-10.1 25.7"/></g><g><path class="prefix__st0" d="M464.5 811.4c31 33.6 68.5 32.6 86 29.8 6.3-1 11.3-5.8 12.6-12 3.7-17.7 7.1-56.1-22.4-88.1-28.8-31.2-67.9-31.2-86-29.2-6.3.7-11.6 5.2-13.2 11.4-4.4 17.1-8.6 53.9 23 88.1zM565 795.1s-36.5 7.5-49.4 45.5M488 712.9s-4.2 39.1-48.7 46.8M512.6 788.8s-14.8-12.3-27.2-27.7M500.9 756.2s-12.8 11-18.6 20.5M508.9 764.8s-12.8 11-18.6 20.5M517.7 774s-12.8 11-18.6 20.5"/></g><g><path d="M131.8 833.1c-9.7-11-23-16.5-36.4-14.9-18.6 2.2-34 14.6-41.8 33.5-7.6-18.3-22.6-30.5-41.8-33.5-3.9-.6-7.9-.6-11.8 0v3.4c2-.4 4-.5 6.1-.5 1.7 0 3.5.1 5.2.4 19.3 3 34.1 16 40.7 35.4.2.7.9 1.1 1.6 1.1.7 0 1.3-.5 1.6-1.1 6.8-20 22-33.2 40.6-35.4 12.4-1.4 24.6 3.6 33.6 13.8 11 12.5 15.1 30.1 10.9 46.9-16.5 65.8-78.8 101-86.6 105.1-4.8-2.9-30.5-19.4-53.6-46.6v5c25.1 28.6 52.3 44.7 52.7 44.9.3.1.5.2.8.2s.5-.1.7-.2c.2-.1 18-9.1 37.8-26.7 18.3-16.3 42-43.6 51.3-81 4.4-17.8.1-36.4-11.6-49.8zM1101.3 835.7c-10.9 12.5-14.4 29.9-9.4 46.4 1.4 4.7 3.1 9.2 4.9 13.6.4.1.7.4.9.7l14.2 23.7 13.1-53.5v13.9l-10.8 44.3c-.1.4-.3.7-.7 1 3.7 5.3 7.5 10.3 11.5 14.9v5c-10.9-12.4-21.3-27.1-29.1-43.9l-9.1 18.8c-.3.6-.8.9-1.5.9h-22.7c-.9 0-1.7-.7-1.7-1.6 0-.9.7-1.7 1.7-1.7h21.7l9.9-20.3c-2-4.8-3.9-9.7-5.4-14.8-5.3-17.7-1.6-36.2 10.1-49.6 7.3-8.3 16.6-13.6 26.2-15.2v3.4c-8.8 1.5-17.2 6.4-23.8 14z"/><path d="M93.7 905.3c0 .9-.7 1.7-1.7 1.7H59c-.6 0-1.1-.3-1.4-.8l-11.8-20.8-9.5 31.5c-.2.6-.8 1.1-1.4 1.2-.7.1-1.3-.3-1.6-.8L4.1 863.7 0 880.4v-13.9l1.9-7.8c.2-.7.7-1.2 1.4-1.2.7-.1 1.3.2 1.7.8L34.4 912l9.4-31.4c.2-.6.7-1.1 1.4-1.2.7-.1 1.3.3 1.6.8L60 903.7h32c1 0 1.7.7 1.7 1.6z"/></g><circle class="prefix__st0" cx="589.9" cy="696.9" r="23.4"/><g><path class="prefix__st0" d="M693.1 761.1l-19.4 51.1c-.8 2.8-10 .2-15.9-3.1-3.2-1.7-5.4-3.6-5-4.9l15.9-41.8 20.7 7.9 3.6-9.4.1.2zM695.9 753.7l-2.8 7.3-.1-.2 2-5.3c.2-.6.5-1.2.9-1.8zM784 694.1c-4.3 11.2-11 20.8-19.5 28.3l-119.9-45.7c-1.3-11.2 0-22.8 4.3-34 14.2-37.3 56-56.1 93.3-41.9 19.8 7.5 34.3 22.8 41.5 41 6.4 16.2 7 34.7.3 52.3z"/><path transform="rotate(-69.164 681.79 758.905)" class="prefix__st0" d="M673.9 747.9h15.7V770h-15.7z"/><path class="prefix__st0" d="M764.5 722.3c-6.3 5.6-13.6 9.6-21.3 12.5-7.2 2.7-14.9 4.5-22.7 5.7s-20.2 6-24.6 13.2c-.4.6-.7 1.2-.9 1.8l-20.7-7.9c4.4-11.4-7.7-25.1-12.7-32.2-5.2-7.4-15.3-24.5-17-38.8l119.9 45.7z"/><g><path class="prefix__st0" d="M657.7 809.1l-2.7 2c-3.3 3.1-16.5-15.5-13.4-17.9l21.4-16.1-10.3 27c-.4 1.3 1.8 3.2 5 5zM705 773.6l-23.4 17.5 4.8-12.7 4.2 5.6 12.6-9.4c.6-.4 1.2-.7 1.8-1zM811.4 770.2c-9.6 7.2-20.4 11.7-31.5 13.5l-36.6-48.8c7.8-2.9 15-6.9 21.3-12.5 8.4-7.5 15.2-17 19.5-28.3 6.7-17.6 6.1-36.1-.3-52.3 16.3 3.6 31.4 12.8 42.2 27.2 23.8 31.9 17.3 77.2-14.6 101.2z"/><path class="prefix__st0" d="M703.3 774.6l-12.6 9.5-4.2-5.7 6.6-17.3z"/><path class="prefix__st0" d="M703.3 774.6l-12.6 9.5-4.2-5.7 6.6-17.3z"/><path class="prefix__st0" d="M779.8 783.7c-16.1 2.7-32-1.6-47-8.1-7.2-3.2-20.3-5.7-27.8-2-.6.3-1.2.7-1.8 1.1L693 761.1l-.1-.2 2-5.3c.2-.6.6-1.3.9-1.8 4.4-7.1 16.8-12 24.6-13.2s15.5-2.9 22.7-5.7l36.7 48.8z"/></g></g><g><path class="prefix__st0" d="M385.4 890.1c-2.3 1.9-4.4 4.1-6.1 6.7-1.7 2.6-3 5.4-3.9 8.3l-59.8-41.4-14.8-10.2-107.5-74.4-7.7-27.2 199.8 138.2z"/><path class="prefix__st0" d="M421.1 888.9c1.4 1 1.8 2.9.8 4.3l-12.7 19.1-4.8 7.2-12.6 19c-1 1.5-3 1.9-4.4.9-11.2-7.8-15.7-21.8-12-34.3.8-2.9 2.1-5.6 3.9-8.3 1.7-2.6 3.8-4.9 6.1-6.7 10-8.1 24.5-9.1 35.7-1.2zM409.3 912.3l26.3 18.2c2 1.4 2.5 4.1 1.2 6.1s-4 2.5-6 1.1l-26.3-18.2 4.8-7.2zM300.8 853.5l14.8 10.2-40.2 60.6c-1.8-2.4-4.1-4.5-6.6-6.2-2.6-1.8-5.3-3.1-8.2-4l40.2-60.6zM394.9 711.8l2.9 28-72.3 108.9-14.8-10.2z"/><path class="prefix__st0" d="M227 926.1l-.1.1c-1 1.4-.6 3.4.8 4.3l44.7 30.9c1.5 1 3.5.6 4.4-.9 7.5-11.4 6.5-26.1-1.5-36.3-1.8-2.4-4.1-4.5-6.6-6.2-2.6-1.8-5.3-3.1-8.2-4-12.2-3.8-26 .7-33.5 12.1zM246.6 943.6l-17.7 26.7c-1.3 2-.8 4.7 1.2 6.1 2 1.4 4.6.8 6-1.1l17.7-26.7-7.2-5zM387 895.7c6.9-5.6 15.9-7.8 24.6-6M234.2 925.1c6.9-5.6 15.9-7.8 24.6-6"/></g><circle class="prefix__st0" cx="409" cy="848.1" r="8.8"/><circle class="prefix__st0" cx="228.2" cy="868" r="8.8"/><circle class="prefix__st0" cx="180.4" cy="896.9" r="8.8"/><g><path class="prefix__st0" d="M522.8 868.6L710.2 854c8.8-.7 16.1 6.8 15.2 15.5l-14.1 141.1c-.6 6.3-5.7 11.2-11.9 11.7l-139.8 10.8c-6.3.5-12-3.6-13.6-9.7l-35.7-137.2c-2.3-8.5 3.7-17 12.5-17.6z"/><path class="prefix__st0" d="M617.7 877.3c22-1.7 41.3 14.8 43 36.8l.7 8.6-79.8 6.2-.7-8.6c-1.7-22.1 14.8-41.3 36.8-43zM621.5 925.8l-1.9-24.3M617.7 877.3l.7 8.2M640.5 882.9l-4.7 6.9M653.6 896.2l-7 4.4M597.7 886.3l5.6 6M586.7 901.4l7.6 3.2M696.5 1014.2l-80.9 6.2M608.1 1020.8l-19 1.4"/></g><path class="prefix__st0" d="M458.8 999.8L457 988l-10.8-5.3c-2.4-1.2-2.4-4.5 0-5.7l10.7-5.3 1.7-11.9c.4-2.6 3.6-3.7 5.4-1.8l8.4 8.5 11.8-2.1c2.6-.5 4.6 2.3 3.4 4.6l-5.5 10.6 5.6 10.6c1.2 2.3-.7 5.1-3.3 4.6l-11.8-2-8.3 8.6c-1.9 2-5.1 1-5.5-1.6z"/><g><path class="prefix__st0" d="M825 963.9s-6.8-8.8-25.8-10c0 0-4.4-12.5 1.8-20.7 0 0 18.5 1.7 27.1-4.1"/><path class="prefix__st0" d="M840.1 947.7s-11.9.2-13.9-5.4c-2.1-5.7 6.7-8.6 6.7-8.6"/><path class="prefix__st0" d="M862.3 964.4s20.9 1.2 21.8-18.7-23-20.1-23-20.1 1.9-12-8.9-17.2c-10.9-5.1-15.8 8.6-15.8 8.6s-7.4-4.1-9.7 3.3c-2.3 7.4 6 14.7 13.4 15.3 0 0-4.2 14.8 9.1 15.8 0 0-9.3 3.6-5.4 10.2 0 0-7.8 0-6.7 5.9 0 0-9.4-7.6-16.4.1s-.3 24.9 14.6 18.5c0 0 14.9 8.4 26.2-.7 11.4-9 .8-21 .8-21z"/></g><g><path class="prefix__st0" d="M823.2 871.8s-9.9 4.9-14.9 23.3c0 0-13.2 1.8-20-5.9 0 0 5.4-17.8 1.4-27.4"/><path class="prefix__st0" d="M810.3 853.8s-2.1 11.7-8.1 12.6c-6 .9-7.1-8.2-7.1-8.2"/><path class="prefix__st0" d="M831.1 835.4s5.4-20.2-14-25.1c-19.3-4.9-24.3 18.5-24.3 18.5s-11.4-4.3-18.6 5.3 5.3 17.2 5.3 17.2-5.5 6.4 1.3 10.1c6.8 3.7 15.6-2.9 17.7-10.1 0 0 13.7 7.1 17.3-5.8 0 0 1.6 9.8 8.9 7.3 0 0-1.5 7.6 4.5 7.7 0 0-9.3 7.7-3.2 16.1 6.2 8.4 24.3 5.3 21-10.6 0 0 11.2-12.9 4.6-25.8-6.7-12.7-20.5-4.8-20.5-4.8z"/></g><g><path class="prefix__st0" d="M291.4 1438.7s-7.7 8-6.1 27c0 0-11.8 6.2-20.8 1.3 0 0-1-18.6-8-26.2"/><path class="prefix__st0" d="M273.1 1426.1s2 11.7-3.4 14.6c-5.3 2.9-9.4-5.3-9.4-5.3"/><path class="prefix__st0" d="M286.4 1401.7s-1.8-20.8-21.7-18.8-16.5 25.7-16.5 25.7-12.2-.2-15.7 11.3 10.8 14.4 10.8 14.4-3 7.9 4.7 9.1 13.7-8.1 13.2-15.5c0 0 15.3 2 14.3-11.3 0 0 4.9 8.7 10.9 3.8 0 0 1.2 7.7 6.8 5.8 0 0-6.2 10.4 2.5 16.2 8.7 5.8 24.7-3.3 16.2-17.2 0 0 6.2-16-4.5-25.8s-21 2.3-21 2.3z"/></g><g><path class="prefix__st0" d="M982.3 942.1c-2.6 1.4-5.7 1.7-8.5.9l-61.4-17c-2.9-.8-5.3-2.6-6.9-5.2-8.1-13.3-10.9-29.7-6.4-45.8 3.5-12.7 11-23.3 20.7-30.7 1.1-.9 2.2-1.7 3.4-2.4 3.4-2.3 7.1-4.2 10.9-5.6 1.3-.5 2.6-.9 3.9-1.3 11.1-3.4 23.4-3.6 35.4.3 9.5 3.1 17.7 8.5 24.1 15.4 1.1 1.1 2.1 2.3 3.1 3.5 2.6 3.2 4.8 6.7 6.6 10.4.6 1.1 1.1 2.2 1.6 3.4 4.6 10.9 6 23.2 3.2 35.4-3.9 17.4-15.2 31.1-29.7 38.7z"/><path class="prefix__st0" d="M1017.3 852.5c-.2-.4-.4-.8-.7-1.1-2.4-2.9-6.2-5-8.8-6.2 1.6-2.5 2.9-5.2 3.6-7.8 1-3.6.9-7.2-1-10.4-3.9-6.5-17.4-13.9-33.7-18.4l-.4-.1c-16.1-4.4-31.6-5-37.7-1.5-5.1 2.9-6.4 10.1-6.1 17.3-.2 0-.4-.1-.6-.1-2.9-.3-7.3-.4-10.8.8-.2.1-.3.1-.5.2-.5-10.7 1.7-22.7 12-28.6 13.6-7.9 39.3-1.8 46.9.3 7.5 2 32.9 9.9 41.3 23.9 6.5 11 2.3 22.7-3.5 31.7z"/><path class="prefix__st0" d="M938 834.9c-1.3.4-2.6.9-3.9 1.3a62.3 62.3 0 00-10.9 5.6c-1.2.8-2.3 1.6-3.4 2.4-3-4.8-2.2-12.2-1.6-16 .2-1.4 1.1-2.6 2.4-3.2.2-.1.3-.1.5-.2 3.6-1.2 7.9-1.1 10.8-.8.2 0 .4.1.6.1 1.6.4 2.9 1.7 3.2 3.3.8 3.8 2.3 7.5 2.3 7.5zM1017.3 855.8c-1.3 3.3-4.1 9.3-8.5 12.2-.5-1.1-1-2.3-1.6-3.4-1.8-3.7-4.1-7.2-6.6-10.4-1-1.2-2-2.4-3.1-3.5 1.1-.9 3.3-2.7 5.1-4.6 1.3-1.4 3.3-1.8 5.1-1 2.7 1.3 6.4 3.4 8.8 6.2.3.3.5.7.7 1.1.5 1.1.6 2.3.1 3.4zM976.4 842.9s28.8 12.7 29.9 44.7M1005.8 893.8c-.1 4.1-2.4 8.7-2.4 8.7"/></g><circle class="prefix__st0" cx="1066.3" cy="823.3" r="8.8"/><g><path class="prefix__st0" d="M520.7 1071.9s-8-16.4-28-8.3c-20 8-21.9 48-10.9 63.4s21.2 12.5 26.1 9.8c0 0 9.4 11.3 24.8 4 15.4-7.3 32.5-37.3 25.1-55.8-7.5-18.5-25.4-20.7-37.1-13.1z"/><path class="prefix__st0" d="M536.8 1050.3s-2.4-2.2-3.8-3c-1.5-.8-13.4 9.8-12.3 24.6l2.4-1.4s1.9-13.3 13.7-20.2z"/></g><g><path class="prefix__st0" d="M392.8 1011.4c18.7 21.3 23.4 49.7 14.7 73.5v.1c-.3.9-.7 1.8-1.1 2.7-2.9 6.8-6.9 13.2-12 18.9-1.6 1.8-3.4 3.5-5.2 5.1-1.9 1.6-3.8 3.1-5.8 4.5-5.4 3.8-52.4 29.2-94.1-14-28-29-25-75.2 3.6-100.3 28.6-25 73.3-20.8 99.9 9.5z"/><path class="prefix__st0" d="M387 1016.5c1.4 1.6 2.7 3.2 3.9 4.9 5.5 7.5 9.3 15.7 11.5 24.1 1.9 7.2 2.5 14.7 1.9 21.9-.4 5.3-1.5 10.5-3.3 15.5v.1l-.9 2.4c-.5 1.2-1 2.4-1.6 3.5-2.3 4.8-5.4 9.3-9 13.3-.7.8-1.4 1.5-2.1 2.2-.8.8-1.7 1.6-2.5 2.4-.8.7-1.6 1.3-2.4 2-.9.7-1.8 1.4-2.8 2-1.5 1-6.7 4-14.2 6.3-6.1 1.9-13.6 3.3-22.1 3.1-6.7-.2-13.9-1.4-21.4-4.3-7.4-2.9-14.9-7.4-22.4-14.1-1.5-1.4-3.1-2.9-4.6-4.4-1.6-1.7-3.1-3.4-4.4-5.1-5.9-7.6-9.9-16.1-11.9-24.9-1.7-7.5-2.1-15.2-1.1-22.7.9-7.1 3.1-14 6.4-20.4 2.9-5.5 6.6-10.6 11.1-15 .7-.7 1.4-1.4 2.2-2 .8-.7 1.7-1.4 2.5-2.1 5-3.9 10.5-6.9 16.4-8.9 6.7-2.4 13.9-3.4 21.1-3.3 7.5.1 15.2 1.7 22.4 4.5 8.3 3.2 16.3 8.2 23.2 14.9 1.4 1.1 2.8 2.5 4.1 4.1z"/><path class="prefix__st0" d="M406.4 1087.7c-1.7 7.3-4 27.3 6 39.3 5.1 6.1 13.1 15.4 21.8 25.4l5.8 6.7c4.1 4.7 8.3 9.4 12.3 13.9 3 3.4 5.9 6.6 8.6 9.6 9 10.1 15.4 17.3 15.4 17.3l-11 9.6-63.9-72.8c-11.7-13.4-27.5-14.1-36.2-12.6 6.1-2 16.4-5.7 24-12.4 8.7-7.6 14.4-17.2 17.2-24z"/><path transform="rotate(-41.271 431.74 1160.457)" class="prefix__st0" d="M424.6 1156h14.3v8.9h-14.3z"/><path class="prefix__st0" d="M460.9 1182.6l-10.9 9.5-8.5-9.7 10.8-9.5c3 3.4 5.9 6.7 8.6 9.7zM284 1024l12 2.2 21.8 3.9 21.5 3.9 22.4 4 22.6 4.1 18.1 3.3M277.6 1044.4l19.4 3.5 21.9 3.9 21.4 3.9 22.4 4.1 22.7 4.1 18.9 3.4M278.7 1067.1l19.4 3.5 21.9 4 21.4 3.9 22.4 4 22.7 4.1 12 2.2M290.6 1092.1l8.6 1.5 21.9 4 21.4 3.8 22.5 4.1 17.4 3.1M390.9 1021.3l-7.7-1.4-22.6-4.1-22.4-4-21.4-3.9-17-3"/><path class="prefix__st0" d="M316.2 996l.6 11.9 1 22.2 1.1 21.7 1.1 22.8 1.1 23 .9 18.1M337.2 992.7l1 19.1 1.1 22.2 1 21.7 1.1 22.8 1.1 22.9.9 18.7M359.7 997.2l.9 18.6 1.1 22.2 1 21.8 1.1 22.7 1.2 23 .5 11.4M387.3 1104.3l-.8-17.7-1.1-22.7-1.1-21.8-1.1-22.2-.4-7.8M295.1 1009l.9 17.2 1 21.7 1.1 22.7 1.1 23 .4 8"/></g><g><circle class="prefix__st0" cx="349.7" cy="1221.4" r="21.5"/><path class="prefix__st0" d="M355.4 1200.6l-11.3 41.6M342.2 1201.2s7.8 18.9-9.2 34M366.3 1208.3s-15.1 12.1-8.9 32.7"/></g><g><path class="prefix__st0" d="M1019.3 988.6s62.2 52.4 75.8 70.8c13.6 18.3 7.3 29.9 7.3 29.9s-120.6-39.4-171.7-69c0 0 2.1-41 29.9-52.3 0-.1 19.6 30.9 58.7 20.6z"/><path class="prefix__st0" d="M930.7 1020.2l-6.7 16.7s139 56.2 154.9 62.7 24.9-3.1 23.6-10.3M1025.4 993.9s-36.9 25.2-85.3-8M935.6 997.2s23.6 12.2 22.4 37M1020.5 996.6s-12.7 21.4-1.5 62.3M1012.4 999.7s-18.8 21.7-16.2 50.8M1093.7 1057.6s-33.2-11.6-44.8 13.3M1036.7 1003.6s-4.6 3.5-6.6 12M1048.5 1014.3s-4.6 3.5-6.6 12M1061.4 1025.5s-3.6 3.6-5.6 12.1"/></g><g><path class="prefix__st1" d="M753.5 980.7c17.1-11.1 39.3-5.1 52.1 19.2l120.8 227.9-16.9 11L750 1036.2c-17-21.6-13.6-44.3 3.5-55.5zM909.2 1239.1l17.6-11.5c2.6-1.7 6.1-.8 7.8 2 1.7 2.7 1 6.3-1.5 7.9l-17.4 11.3c-2.5 1.7-6 .8-7.9-1.8-1.8-2.7-1.2-6.2 1.4-7.9zM867 1115.7s-15.9 18.8-36 23.4"/></g><g><path class="prefix__st0" d="M1102.6 1400.3l-20.5 38.8c-3.8 7.2-12.8 10-20 6.2l-56.2-29.7c-7.2-3.8-10-12.8-6.2-20l20.5-38.8c3.8-7.2 12.8-10 20-6.2l56.2 29.7c7.2 3.8 10 12.8 6.2 20zM1094.6 1379.3l-54.2-28.6 13.6-17.6 47.5 25.1z"/><path class="prefix__st0" d="M1098.1 1354.8l-.7 1.3-39.3-20.8.7-1.3c1.9-3.6 6.3-4.9 9.9-3.1l26.4 13.9c3.5 2 4.9 6.4 3 10zM1062.1 1445.3l-13.6 17.6-47.5-25.2 7-21.1z"/><path class="prefix__st0" d="M1044.4 1460.7l-1.5 2.9c-1.4 2.7-4.8 3.7-7.5 2.3l-29.5-15.6c-2.7-1.4-3.7-4.8-2.3-7.5l1.5-2.9 39.3 20.8zM1074.1 1404c-12.3 13.3-32.5 12.3-32.5 12.3s-11.1-16.8-8.2-33.8c1.6-9.2 11.9-12.3 17.8-7.9 3.9 2.9 6.3 7.5 5.5 13 4.1-3.8 9.3-4.6 13.9-2.8 7.3 2.9 9.2 13 3.5 19.2zM1090.6 1386.4l-52.1-27.6M1064.5 1435.7l-52.1-27.6"/></g><g><circle class="prefix__st0" cx="934.5" cy="1123.6" r="26"/><path class="prefix__st0" d="M919.8 1102s24.7 17.1 6.6 46.3M948.2 1102s-13.2 19.3 3.9 40.7M927 1104.3l-5.3 4.3M934.2 1114.6l-6.2 2.9M936.5 1127.8l-6.8.8M934.4 1140.6l-6.6-1.7M948.1 1110.2l-6.8-1M946.7 1118.1l-6.7 1.4M949.2 1129.4l-6.3 2.7"/></g><g><path d="M185.5 1307c-8.3-6-17.6-10.1-27.5-12.2l4.1-34.5c.2-1.4-.1-2.8-.8-4l3.9-21c19.7 12.5 33.6 23.6 34.2 26.1.4 1.8-1.6 6.1-5.6 8.9-2.5 1.7-7.7 4.1-13.9.2-1.2-.7-2.5-1-3.9-.7-1.3.3-2.5 1.1-3.2 2.3-.7 1.2-1 2.6-.7 3.9s1.1 2.5 2.3 3.2c4 2.5 8.1 3.7 12.3 3.7 4.4 0 8.8-1.4 12.8-4.2 7-4.8 11.2-13 9.9-19.4-1.6-8-22.1-22.3-39.3-33.1-.2-2.6-1.5-5-3.6-6.5-1.9-1.4-4.2-1.9-6.6-1.5s-4.3 1.6-5.7 3.6c-2.5 3.5-2.1 8.3.8 11.2l-2.9 16-85.9-61.8c2.3-1.1 5.1-1.6 8.1-1.6 10.4 0 23.7 5.3 28.6 7.4.7.3 1.5.5 2.3.5 1.8 0 3.6-.9 4.7-2.4 1.9-2.6 1.3-6.2-1.3-8.1l-44.9-32.3c-2.2-1.6-5-1.8-7.4-.5s-3.8 3.7-3.8 6.4l.3 23c-.6 0-1.1.2-1.6.4L17 1192.9c-4.2-8.7-10-16.4-17-22.7v4.5c5.6 5.5 10.3 12 13.9 19.3l-5.2 2c-2.4-4.7-5.3-9.1-8.7-13.1v5.3c2.1 2.8 4 5.8 5.6 9l-5.6 2.1v3.5l8.4-3.2 8.3-3.1 35.7-13.4c.5-.2 1-.3 1.5-.2l8.4 5.5.1.1h.1l89.9 64.6 5.1 3.6c.2.1.4.3.6.6.1.1.1.2.2.2v.1c.4.7.6 1.5.5 2.3l-4.3 35.9-1 8.7v.1l-6.1 51-.2 1.8c-1.5-.8-3.2-1.3-5.1-1.3-.5 0-1.1.1-1.6.1l.3-2.9 2.3-19.7 4.6-38.6v-.2l3.5-28.8.2-1.6.3-2.4v-.4c0-.4-.3-.9-.7-1.1l-4.7-3.4-1.8-1.3-85.9-61.8-3.3-2.3-1.7-1.2h-.1c-.3-.2-.7-.3-1.1-.3-.1 0-.3.1-.4.1l-3.8 1.4-29.3 11.1L0 1210v3.5l10.3-3.9c2.1 7.9 2.5 16.1 1.3 24.2 0 .1 0 .3-.1.4l-11.5-2v3.4l11 1.9c-.9 4.2-2.2 8.4-3.9 12.3l-7-4.8v4l5.6 3.8c-1.6 3.2-3.5 6.3-5.6 9.2v5.3c.4-.4.7-.9 1.1-1.3 2.8-3.5 5.3-7.3 7.3-11.2l4.6 3.1c-3.4 6.5-7.8 12.4-13 17.5v4.5c5.6-5 10.3-10.8 14-17.1.6-1 1.2-2 1.7-3.1l19.8 13.4-.7 4.4c-9.8.5-19 5.4-24.7 13.4-4.9 6.8-6.8 14.8-5.9 22.5l-4.3-6v5.7l6.7 9.4c1.9 4.4 4.8 8.4 8.7 11.7l-6.5 9-6-4.3c-.9-.6-1.9-.9-3-.9v3.3h.2c.3 0 .6.1.9.3l7.3 5.3.8.6 10 7.2c.3.2.5.6.6 1s0 .8-.3 1.1c-.5.7-1.4.8-2.1.3L0 1344.6v4.1l15.5 11.2c.8.6 1.8.9 2.8.9 1.5 0 3-.7 3.9-2 .6-.8.9-1.8.9-2.8 0-.3 0-.5-.1-.8-.2-1.3-.9-2.4-1.9-3.1l-6.4-4.6 6.6-9.2c4.8 2.5 9.9 3.8 15 3.8 10 0 19.8-4.7 26.1-13.5 10.4-14.4 7.1-34.6-7.4-45-2.5-1.8-5.2-3.2-8.1-4.2l.7-4.5 100.2-7.3-3.1 25.6h-2.4c-23.8 0-46 11.3-60 30.8-11.5 16-16.1 35.6-12.9 55.1s13.8 36.6 29.8 48.1c13 9.4 28.1 13.9 43 13.9 23 0 45.7-10.7 60.1-30.7 23.9-33.3 16.3-79.6-16.8-103.4zm-17.5-74.1c.3-.3.5-.6.7-.9.3-.3.5-.7.7-1.1.1-.1.1-.3.2-.4.1-.2.2-.5.3-.7 22.2 14 35.4 25 36.5 30.1 1 5.2-2.6 11.9-8.6 16-6.7 4.6-14.6 4.8-21.5.4-.4-.3-.7-.7-.8-1.1s0-1 .2-1.4c.3-.4.7-.7 1.2-.8.1 0 .3-.1.4-.1.3 0 .7.1 1 .3 7.8 4.9 14.3 1.9 17.5-.3 4.7-3.2 7.7-8.6 7-12.3-1.5-5.9-27.3-22.8-34.8-27.7-.1.1-.1.1 0 0zm-110.5-52.1c-.4-.3-.8-.5-1.3-.7l-.3-23.6c0-1.5.7-2.7 2-3.4 1.3-.7 2.8-.6 4 .3l44.9 32.3c.5.4.9 1 1 1.6.1.7 0 1.3-.4 1.8-.7.9-2 1.3-3 .8-6.4-2.8-19.2-7.7-29.8-7.7-4.2 0-8.1.8-11.1 2.7l-6-4.1zm99.6 42.9c.9-1.2 2.1-2 3.6-2.2.3-.1.6-.1.9-.1 1.2 0 2.3.4 3.2 1 1.5 1.1 2.3 2.8 2.3 4.7 0 1.1-.4 2.1-1 3-.2.3-.5.6-.7.8 0 .1-.1.1-.2.2 0 0-.1.1-.2.1-.5-.3-1-.3-1.5-.1-.5.2-.9.7-1 1.2v.1h-.1c-.3 0-.6.1-.9.1h-.1c-.3 0-.6-.1-.9-.1h-.2l-.9-.3c-.1 0-.1-.1-.2-.1-.3-.1-.6-.3-.8-.5-.1-.1-.2-.1-.2-.2l-.1-.1c-2.3-1.9-2.7-5.2-1-7.5zm1.4 29.8l-1.6-1.2-1.7-1.2 3-16.1c.2.1.4.1.5.2.1 0 .2.1.2.1l1.2.3h.2c.3 0 .7.1 1 .1h.4l-3.2 17.8zm-99.4-55.2l80.1 57.6-89.6 6.5 9.5-64.1zm-44.6 56.6l-4.7-3.2c2.1-4.8 3.7-9.8 4.6-15 0-.1.1-.2.1-.3v-.3c.1-.6.2-1.2.3-1.9 1.3-8.7.8-17.4-1.5-25.9l5.2-2c1.7 6.1 2.5 12.2 2.5 18.5 0 3.4-.3 6.8-.7 10.1-1 7.2-2.9 13.8-5.8 20zm2.8 1.9c3.1-6.6 5.3-13.7 6.3-21.2 1.5-10.2.8-20.4-1.9-30.2l25.3-9.6-10.9 73.7-18.8-12.7zm-7.4 64.8c0-.2-.1-.4-.3-.6-3.8-9-2.9-19.6 3.2-28.1 5-7 13-11.4 21.5-12l-4.1 28c0 .3-.1.6-.1.9v.2c0 .6.1 1.2.3 1.7 0 .1 0 .1.1.2.1.3.2.6.4.8l-13.6 18.9c-3.2-2.8-5.7-6.3-7.4-10zm2.2 23.9l-.3-.2-.1-.1L19 1335l2-2.8 12.2-17 .1.1c.1.1.2.1.3.1l-21.5 30.1zm41.1-59.2c12.9 9.3 15.9 27.4 6.6 40.3-8.4 11.7-23.9 15.4-36.5 8.9l13.3-18.4 1-1.3h.1c.1 0 .3-.1.4-.1.2-.1.4-.1.6-.2.1-.1.3-.1.4-.2.2-.1.3-.2.5-.3.1-.1.2-.2.4-.2.1-.1.3-.2.5-.4l.3-.3.4-.4.3-.3c.1-.2.2-.3.3-.5.1-.1.1-.2.2-.3l.3-.6c0-.1.1-.2.1-.3.1-.3.2-.7.2-1l4.2-28c2.1.9 4.3 2.1 6.4 3.6zM46 1264l-1.3 9.1-5.5 37.1c-.2 1.3-1.3 2.4-2.7 2.4H36c-.5-.1-.9-.2-1.3-.5-.2-.1-.3-.3-.5-.4-.6-.6-.8-1.5-.7-2.3l17-114.9 2.1-.8 2.7 2 .7.5-10 67.8zm2.2 7.5l.9-5.8 94.3-6.8 3.6 2.6 1.5 1.1-.2 1.7-100.1 7.2zm108.4 35.4c3.9.9 7.8 2.2 11.4 3.9 3.7 1.7 7.2 3.7 10.5 6.1.1.1.2.2.3.2l-27.7 36 5.5-46.2zm-6.3 52.6l31.1-40.4c7.2 5.9 13 13.3 17 21.7l-46.8 20.4c-.1-.1-.2-.2-.2-.3l-.3.2v-.1l.2-.2.1-.1c-.2-.2-.3-.4-.5-.6l-.3-.3c-.1 0-.2-.1-.3-.3zm-17.1 1.7c-.7 1.1-1.2 2.3-1.4 3.7l-51-2.6c.9-11.3 4.8-22.1 11.4-31.3.8-1.1 1.6-2.2 2.5-3.2l38.5 33.4zm-36.3-35.9c6.3-6.8 14-12.2 22.7-15.6l17.6 47.8c-.6.3-1.2.8-1.8 1.2l-38.5-33.4zm34.7 42.9c0 .2 0 .3.1.5v.3c0 .1 0 .2.1.3 0 .1.1.3.1.4s0 .2.1.3c0 .1 0 .2.1.3l-45.9 22.3c-3.8-8.4-5.7-17.7-5.5-27l50.9 2.6zm1.9 5s0 .1.1.1c.1.1.1.2.2.3s.1.2.2.2c.1.2.2.3.4.4.1.1.2.2.2.3l.2.2.1.1.3.3.1.1.1.1c.2.2.4.3.6.5l.1.1s.1 0 .1.1c.1.1.3.2.4.3l-20.5 46.7c-3.4-1.6-6.7-3.5-9.8-5.8-7.9-5.7-14.3-13.1-18.7-21.7l45.9-22.3zm6.1 4.4c.3.1.5.1.8.2h.4c.1 0 .3 0 .4.1h.6l4.6 50.8c-9.3.6-18.6-.9-27.2-4.4l20.4-46.7zm5.4 0c.2 0 .3-.1.5-.1.2-.1.4-.1.6-.2.1 0 .2-.1.3-.1s.1-.1.2-.1.2-.1.2-.1c.2-.1.3-.1.4-.2h.1c.1 0 .2-.1.2-.1.5-.3.9-.5 1.3-.8l36.5 35.7c-9.7 9.4-22.3 15.4-35.7 17l-4.6-51zm6.2-4.2c.1-.1.1-.1.1-.2.1-.1.1-.2.2-.3.3-.4.5-.9.7-1.3l49.2 13.7c-2 6.4-4.9 12.4-8.9 17.9-1.5 2.1-3.1 4.1-4.9 6l-36.4-35.8zm2-5.1v-.5-.2-.3-.4-.6-.2-.2-.4c-.1-.4-.1-.8-.3-1.2l46.8-20.4c4.9 12.1 5.8 25.5 2.7 38.2l-49.2-13.8zm-11-8.8c4 0 7.3 3.3 7.3 7.3s-3.3 7.3-7.3 7.3-7.3-3.3-7.3-7.3v-.3c0-.3.1-.6.1-.9.1-.6.3-1.3.6-1.8 0-.1.1-.2.2-.3.1-.3.3-.5.5-.8.1-.1.2-.2.3-.4 0-.1.1-.1.2-.2.1-.2.3-.3.5-.5l.1-.1.2-.2c.1-.1.2-.1.2-.2.1-.1.2-.2.4-.3.2-.1.3-.2.5-.3.1-.1.2-.1.3-.1.2-.1.3-.2.5-.3.1-.1.2-.1.3-.1 0 0 .1 0 .1-.1.1 0 .2-.1.3-.1.5-.2 1.2-.3 2-.3zm-3-19.3l-1.2 10-15.3-41.7c6.4-2.2 13-3.3 19.7-3.3h1l-4.2 35zm60.5 68.1c-22.7 31.6-66.9 38.8-98.5 16.1-15.3-11-25.4-27.3-28.5-45.9-3-18.6 1.4-37.3 12.4-52.6 13.4-18.6 34.6-29.4 57.3-29.4h2l-.7 5.5c-8.1-.2-16.1 1.2-23.8 3.9-10.2 3.8-19.4 10.1-26.5 18.2l-.3.3v.1c-1.2 1.4-2.4 2.9-3.6 4.5-7.3 10.2-11.5 22.2-12.2 34.7 0 1.1-.1 2.1-.1 3.2 0 9.8 2.2 19.6 6.5 28.4 0 .1 0 .1.1.2v.1c4.7 9.6 11.8 18 20.5 24.3 3.7 2.7 7.7 5 11.9 6.8 8.2 3.6 17.1 5.5 26 5.5 1.9 0 3.8-.1 5.7-.3h.5c15.3-1.4 29.7-8.3 40.4-19.3 2.3-2.3 4.4-4.9 6.3-7.5 4.5-6.3 7.8-13.2 9.9-20.5 4-14.3 2.9-29.8-3-43.5-4.3-10-11.1-18.7-19.7-25.4l-.2-.2s-.1-.1-.2-.1l-1.5-1.2c-7.1-5.1-15-8.6-23.4-10.6l.7-5.5c4.7 1 9.2 2.5 13.5 4.5 4.3 1.9 8.5 4.3 12.4 7.2 31.6 22.6 38.9 66.9 16.1 98.5zM1124 1342c-.5.7-.3 1.6.3 2.1l.7.5v4.1l-2.6-1.9c-2.2-1.6-2.6-4.6-1.1-6.7.8-1 1.9-1.7 3.1-1.9.2 0 .4 0 .6-.1v3.3h-.1c-.4.1-.7.3-.9.6zM1033.1 1168.6c12.3-9.3 27-14.1 42.2-14.1 3.4 0 6.8.2 10.2.7 15.2 2.2 29 9.1 39.6 19.6v-4.5c-10.7-9.7-24.3-16.2-39.1-18.3-19.5-2.8-39 2.2-54.8 14-15.8 11.8-26 29.1-28.8 48.7-2.8 19.5 2.2 39 14 54.8s29.1 26.1 48.7 28.9c3.6.5 7.1.8 10.6.8 11.7 0 23.1-2.8 33.5-8.1l15.9 22.3v-5.7l-13-18.2c2.6-1.5 5.2-3.2 7.7-5.1 1.8-1.4 3.6-2.8 5.3-4.3v-4.5c-2.3 2.2-4.7 4.3-7.2 6.2-2.5 1.8-5 3.5-7.7 5l-3.2-4.5c6.8-3.8 13-8.8 18.1-14.8v-5.3c-.1.2-.3.4-.4.6l-39.7-32.1c0-.1.1-.2.1-.2.1-.1.2-.3.2-.4s.1-.2.1-.3c.1-.2.2-.5.3-.7 0-.1.1-.2.1-.3l12.4 2.2 26.9 18.2v-4l-18.9-12.8 18.9 3.4v-3.4l-25.6-4.5-4.3-2.9 29.8-11.3v-3.5l-21.7 8.2-12.3 4.6h-.1l-4.6 1.8c0-.2 0-.5-.1-.7v-.3c0-.2-.1-.5-.1-.7-.1-.3-.1-.5-.2-.8-.1-.2-.1-.5-.2-.7-.1-.4-.3-.7-.5-1.1l-.3-.6c-.3-.5-.6-1-.9-1.4l41.1-15.5v-3.5l-36.3 13.7 29.6-32.5c2.5 2.4 4.8 5 6.8 7.7v-5.3c-1.8-2.1-3.7-4.1-5.8-6-8.1-7.3-17.9-12.5-28.4-15.1-.1-.1-.3-.1-.4-.1h-.1c-1.8-.4-3.7-.8-5.7-1.1-12.4-1.8-24.9 0-36.2 5.2-.1 0-.1 0-.2.1-9.9 4.6-18.5 11.6-25 20.3 0 .1-.1.1-.1.1 0 .1-.1.1-.1.2-6.3 8.6-10.4 18.7-11.9 29.3-.7 4.6-.8 9.2-.5 13.7v.1c.7 10.8 4.2 21.3 10.1 30.5 0 .1 0 .1.1.2v.1s0 .1.1.1c8.4 12.9 21.1 22.5 35.8 26.9 3.2.9 6.4 1.7 9.6 2.1 3.1.4 6.2.7 9.3.7 4.5 0 9-.5 13.4-1.4 5.2-1.1 10.2-2.8 15-5.2l3.3 4.6c-12.8 6.5-27.3 8.9-41.8 6.8-18.7-2.7-35.2-12.5-46.5-27.6-11.3-15.1-16.1-33.7-13.4-52.4 2.4-18.8 12.2-35.3 27.3-46.6zm58.3 57.6zm0-60.8c9 2.4 17.3 6.8 24.4 12.9l-33.9 37.3-.8.3c-.4-.2-.7-.4-1.1-.6-.1 0-.2-.1-.2-.1h-.2l11.8-49.8zm-17 67.2c-.4 0-.8-.1-1.1-.3-.1 0-.3-.1-.4-.2-.1 0-.1 0-.2-.1-.1 0-.2-.1-.3-.1 0 0-.1 0-.1-.1 0 0-.1 0-.2-.1 0 0-.1 0-.1-.1-.1 0-.2-.1-.3-.2h-.1c-.1-.1-.2-.1-.3-.2-.1 0-.1-.1-.2-.1-.1-.1-.2-.1-.3-.2-.1-.1-.3-.2-.4-.3l-.1-.1c-.1 0-.1-.1-.2-.2l-.2-.2-.4-.4-.4-.6c-.1-.1-.1-.2-.2-.4-.1-.1-.1-.2-.2-.4 0-.1-.1-.1-.1-.2v-.1c0-.1-.1-.1-.1-.2s-.1-.3-.2-.4c-.1-.3-.2-.6-.2-.9-.1-.3-.1-.6-.1-.9 0-.5 0-1 .1-1.6 0-.2.1-.4.1-.6s.1-.4.2-.6c0-.1.1-.2.1-.3 0-.1 0-.1.1-.2v-.2c0-.1.1-.1.1-.2 0 0 0-.1.1-.1.1-.3.3-.5.4-.8.1-.1.1-.2.2-.4l.2-.2s0-.1.1-.1c0 0 0-.1.1-.1l.3-.3.1-.1.1-.1s0-.1.1-.1c.1-.1.2-.2.3-.2.1 0 .1-.1.2-.1.1-.1.3-.2.4-.3.2-.1.3-.2.5-.3.1-.1.2-.1.3-.2.1-.1.3-.1.4-.2 1-.4 2.1-.7 3.1-.7.4 0 .7 0 1.1.1.2 0 .4.1.7.1 1 .2 1.9.7 2.8 1.3.2.1.4.3.6.5l.1.1c.9.8 1.5 1.8 1.9 2.9 0 .1.1.2.1.4.3 1.1.5 2.2.3 3.4v.2l-.1.3c0 .1-.1.2-.1.3 0 .1 0 .1-.1.2 0 .1-.1.2-.1.3 0 .1-.1.3-.1.4 0 .1-.1.2-.1.2 0 .1-.1.1-.1.2-.1.1-.1.2-.2.3 0 0 0 .1-.1.1-.1.1-.1.2-.2.3-.1.1-.2.3-.2.4l-.3.3c-.3.3-.5.6-.8.9h-.1l-.1.1-.2.2c-.1 0-.1.1-.2.1-.1.1-.1.1-.2.1-.1.1-.3.2-.4.3-.1.1-.3.2-.4.2-.1.1-.3.1-.4.2-.1 0-.2.1-.3.1-.2.1-.3.1-.5.2s-.4.1-.6.2c-1.2.2-2.1.2-2.9.1zm2.6 7.7l-3.1-4.3v-.1c.5.1 1 .1 1.5.1h.6l1 4.3zm-1.6-77c2.9 0 5.9.2 8.8.6 1.4.2 2.7.4 4 .7l-11.9 49.6H1073.8c-.2 0-.5.1-.7.1-.3.1-.5.1-.7.2l-21.3-46.4c7.7-3.1 15.9-4.8 24.3-4.8zm-38.9 13.9c3.6-2.9 7.5-5.4 11.7-7.5l21.3 46.4c-.1.1-.3.2-.4.3-.1 0-.1.1-.2.1s-.1.1-.2.1c0 0-.1 0-.1.1-.1.1-.2.2-.3.2-.1 0-.1.1-.1.1l-.3.3-41-30.4c2.7-3.5 6-6.8 9.6-9.7zm-22.2 39.2c1.4-9.6 5-18.8 10.5-26.7l41 30.4s0 .1-.1.1c-.1.1-.1.2-.2.4-.1.1-.1.2-.2.4 0 .1-.1.2-.1.3-.1.2-.1.3-.2.5 0 .2-.1.3-.1.5 0 .1-.1.2-.1.3 0 .1 0 .2-.1.2v.2c-.1.2-.1.4-.1.7 0 .2 0 .4-.1.6l-50.9 3.5c-.1-3.8.1-7.7.7-11.4zm-.4 14.6l50.9-3.5c0 .2.1.3.1.5s.1.3.2.5.1.4.2.6c.1.1.1.3.2.4l-42.9 27.6c-4.8-7.9-7.8-16.9-8.7-26.1zm42 52.8c-12.8-4.3-23.9-12.7-31.6-23.9l42.9-27.6 3 4.2-14.3 47.3zm10.8 2.5c-2.5-.4-5.1-.9-7.5-1.6l13.6-44.8 6 8.4 8 37.6c-6.7 1.2-13.4 1.3-20.1.4zm23.2-1.1l-6.4-30.2 18.5 25.9c-3.9 1.9-7.9 3.3-12.1 4.3zm-8.1-38.2l-2.5-11.7h.2c.4-.2.8-.3 1.2-.6.1 0 .1-.1.2-.1l.9-.6c.1-.1.2-.1.3-.2l.2-.2c.1-.1.3-.2.4-.3l39.7 32c-4.9 5.8-10.9 10.6-17.5 14.2l-23.1-32.5z"/><path d="M62.5 1159.7l31 22.5c.3.2.6.3 1 .3.5 0 1-.2 1.3-.7.5-.7.4-1.8-.4-2.3l-31-22.5c-.7-.5-1.8-.4-2.3.4s-.3 1.7.4 2.3zM49.6 1290c.4.2 9.6 5.6 9.5 24.3 0 .9.7 1.7 1.6 1.7.9 0 1.6-.7 1.6-1.6.1-20.8-10.7-26.9-11.2-27.2-.8-.4-1.8-.1-2.2.6-.4.8-.1 1.8.7 2.2z"/></g><g><path class="prefix__st0" d="M724.2 1103.7L603 1178.8s-24.6-60.1 18.3-92.5c1.8-1.4 3.8-2.7 5.9-4 4.3-2.6 8.6-4.8 12.7-6.4 43.2-17.6 76 13.3 85 23 1.3 1.5 1 3.8-.7 4.8z"/><path class="prefix__st0" d="M639.9 1076c-4.1 1.7-8.4 3.8-12.7 6.4-2.1 1.3-4 2.6-5.9 4-1.6-3.2 1.3-8 6.5-10.7 4.9-2.6 10.1-2.4 12.1.3zM696.4 1121s-33.9-50.9-66.9-39.9M632.2 1160.8s-33-44.6-4.9-78.4"/><path class="prefix__st0" d="M603 1178.8l-38.6 42c-2.2 2.4-1.2 6.3 1.9 7.3 9 2.9 27.2 5.6 49.7-6.6 32.6-17.6 51.5-81 76.5-98.2"/></g><g><path class="prefix__st0" d="M399.4 1346.8c0 12.9-6.3 24.2-15.8 30.7l-.1.1-1.1.7c-5.1 3.2-11 5-17.4 5-19 0-34.3-16.3-34.3-36.5 0-14.5 8-27.1 19.6-33 4.5-2.3 9.5-3.5 14.8-3.5 18.9 0 34.3 16.3 34.3 36.5z"/><path class="prefix__st0" d="M534.3 1259.6c0 11.9-5.3 22.4-13.6 29.1l-5.9 3.8-131.1 85c9.5-6.5 15.8-17.8 15.8-30.7 0-20.2-15.4-36.5-34.4-36.5-5.3 0-10.3 1.3-14.8 3.5l-.2-.5 128.7-82.5c5.8-4.8 13.2-7.7 21.2-7.7 18.9 0 34.3 16.3 34.3 36.5z"/><path class="prefix__st0" d="M360.1 1383.3l57.8 17.9 141.5-94.9-44.7-13.8"/><path class="prefix__st0" d="M364.4 1349.4c-7.7-1.6-5.4-13.9 3.9-13.5 10.2.5 19.3 22-.6 29.3-14.9 5.4-28.8-12.6-24.3-27.3 4.6-15.1 26-25.2 41.9-7.7 17.7 19.5-1.2 58.7-32.7 50.5"/></g><g><path class="prefix__st0" d="M747.2 1136.4l-104.8 156.5M710.9 1190.6l49.9 2.9-17.6-51.2"/></g><path class="prefix__st0" d="M252.8 1304.7l9.5-7.3-.6-12c-.1-2.6 2.8-4.3 5-2.8l9.8 6.8 11.2-4.2c2.5-.9 4.9 1.4 4.2 3.9l-3.4 11.5 7.5 9.3c1.7 2.1.2 5.1-2.4 5.2l-12 .3-6.6 10c-1.4 2.2-4.8 1.8-5.7-.7l-4-11.3-11.6-3.1c-2.4-.7-3-4-.9-5.6z"/><circle class="prefix__st0" cx="274" cy="1189" r="8.8"/><circle class="prefix__st0" cx="45.5" cy="1080.8" r="8.8"/><circle class="prefix__st0" cx="746.6" cy="1233.1" r="8.8"/><g><path class="prefix__st0" d="M733.8 1535.8c-7.2 9.3-20.2 11.7-30.3 5.6l-13.1-8 16.3-28.7c1.8-3.1.7-7-2.4-8.8-1.5-.9-3.3-1-4.9-.6-1.6.4-3 1.5-3.9 3l-16.1 28.4-12.4-7.5c-9.4-5.7-13.5-17.1-9.9-27.4 13.1-37.6 44.4-124.5 63-155.4 39.7-66 119.7-114.5 140.9-126.5 2.4-1.4 5.3.3 5.4 3.1.4 23.7-.8 113.5-36.9 186.7-15.8 31.9-70.6 103.8-95.7 136.1z"/><path class="prefix__st0" d="M706.7 1504.8l-27.5 48.4-11.2-6.4 27.5-48.4c.9-1.5 2.3-2.6 3.9-3 1.6-.4 3.3-.3 4.9.6 3.1 1.8 4.1 5.7 2.4 8.8z"/><ellipse transform="rotate(-60.423 763.923 1387.357)" class="prefix__st0" cx="763.9" cy="1387.4" rx="83.9" ry="28.3"/></g><g><path class="prefix__st0" d="M257.3 1549.8l40.6 81.6c3 6 .5 13.3-5.5 16.3l-41.7 20.7c-6 3-13.3.5-16.3-5.5l-40.6-81.6c-3-6-.5-13.3 5.5-16.2l1.4-.7-6.2-12.4c-3.7.4-7.4-.3-10.7-2-3.2-1.7-6-4.4-7.7-7.9-4.5-9-.8-19.9 8.2-24.4l1-.5-3.6-7.3 26-12.9 3.6 7.3 1-.5c4.5-2.2 9.5-2.4 13.9-1 4.4 1.5 8.2 4.6 10.5 9.1 3.5 7.1 2 15.3-3.2 20.7l6.2 12.4 1.4-.7c6-2.9 13.3-.5 16.2 5.5z"/><path class="prefix__st0" d="M206.2 1484.5l5.3 10.6-33.4 16.6-5.3-10.6c-1.2-2.4-.2-5.4 2.2-6.6l24.5-12.2c2.5-1.2 5.5-.2 6.7 2.2zM209.1 1490.5l-25.9 12.9M233.5 1532.6l-23.8 11.8M290.1 1640.5l-43.5 21.6"/></g><g><path class="prefix__st0" d="M113.7 1540.1c4.6-2 7.6-6.4 7.9-11.4l2.6-56c.3-7.2-5.2-13.3-12.4-13.6-7.2-.3-13.3 5.2-13.6 12.4l-1.2 27.3-52.6-50.7c-5.2-5-13.4-4.8-18.4.3-5 5.2-4.8 13.4.3 18.4l73.3 70.7c3.7 3.5 9.1 4.6 13.8 2.7.1 0 .2-.1.3-.1z"/></g><path class="prefix__st0" d="M592.4 1485.2l11.9-1.1 5.9-10.4c1.3-2.3 4.7-2.1 5.7.3l4.7 11 11.7 2.4c2.6.5 3.5 3.8 1.5 5.5l-9 7.9 1.4 11.9c.3 2.6-2.5 4.4-4.8 3.1l-10.3-6.1-10.9 5c-2.4 1.1-5-1-4.4-3.6l2.7-11.7-8.1-8.8c-1.8-2-.6-5.1 2-5.4zM713.5 1308.8s7.5-10.5 2.3-19.6-16.3-8-18.7-2.5 2.5 10.4 8.2 12.8c5.7 2.4 8.2 9.3 8.2 9.3zM701.7 1323.7c-2.1-5.9-11.6-9.6-15.3-6.2s-.7 10.4 4.6 8.4c5.2-1.9 10.7-2.2 10.7-2.2zM848.4 1387.9s8.6-15.5 23.6-12.5c15.5 3 16.3 17.1 9.9 22.8-8 7.2-14.4-6.5-20.8-9.2-6.3-2.7-12.7-1.1-12.7-1.1z"/><g><path class="prefix__st0" d="M546.4 1490.9l29.7 68.9-199.8 86-29.7-68.9c-5.6-13.1-8.5-26.7-8.9-40.1-1.1-43.2 23.6-84.7 65.7-102.8 27.6-11.9 57.4-11.4 83.2-1.2 13.6 5.4 26.1 13.5 36.6 24.1 9.7 9.5 17.6 20.9 23.2 34z"/><path transform="rotate(-23.296 451.208 1544.866)" class="prefix__st0" d="M386.2 1503.8h130v82.3h-130z"/><ellipse transform="rotate(-23.296 455.305 1554.185)" class="prefix__st0" cx="455.3" cy="1554.2" rx="45.8" ry="8.6"/><path class="prefix__st0" d="M413.2 1572.3l52.8 66.5M413.2 1572.3l52.8 66.5M497.5 1536.7l12 83.4M472.9 1555.4l30.3 22.7M454.6 1623.8l16.9 12.6M445.3 1567.8l61.8 38.8M416.4 1576.4l77.8 50.3M444.9 1567.9l-4.4 37.6M506.4 1601.5l-1.7 21.1M472.9 1556.4l-14.3 71.5M498.1 1541.2l-16.1 91.2"/></g><g><path class="prefix__st0" d="M571.2 1322.4c6.9-4.5 16.2-2.5 20.7 4.5l5.9 9.1-25.1 16.2-5.9-9.1c-4.5-7-2.5-16.2 4.4-20.7z"/><path class="prefix__st0" d="M579 1348.1l17.5 55.8c1.1 3.4-.3 7-3.2 8.9-4.8 3.1-11.1.2-12-5.4l-8.7-55.3 6.4-4zM585.2 1344.1l29.4 45.7c2.3 3.6 1.3 8.5-2.3 10.8l-5.3 3.4c-4.3 2.8-10.2.7-11.7-4.2l-16.2-51.7 6.1-4z"/><path class="prefix__st0" d="M629.4 1389.5l-4 2.6c-3.6 2.3-8.5 1.3-10.8-2.3l-29.4-45.7 6.2-4 39.2 37.2c3.6 3.5 3.1 9.5-1.2 12.2zM644.4 1379.9l-1.4.9c-3 2-7 1.6-9.6-.9l-41.9-39.8 6.3-4.1 46.7 30.8c4.7 3.1 4.6 10-.1 13.1z"/></g><g><path class="prefix__st0" d="M617.3 1555.4L508.4 1719c-4.3 6.5 0 15.2 7.8 15.7l198.4 11.4c7.8.4 13.1-7.7 9.6-14.7l-89.4-175.1c-3.6-6.8-13.2-7.4-17.5-.9z"/><path class="prefix__st0" d="M521.9 1716.7l98.6-148.1c2.3-3.5 7.5-3.2 9.4.5l81 158.4c1.9 3.8-1 8.2-5.2 7.9-33.5-1.9-146.1-8.4-179.6-10.3-4.2-.2-6.5-4.9-4.2-8.4z"/><circle class="prefix__st0" cx="676.5" cy="1710.3" r="18"/><circle class="prefix__st0" cx="635.5" cy="1708.6" r="18"/><circle class="prefix__st0" cx="594.5" cy="1706.9" r="18"/><circle class="prefix__st0" cx="553.4" cy="1705.2" r="18"/><circle class="prefix__st0" cx="658.6" cy="1675.5" r="18"/><circle class="prefix__st0" cx="617.6" cy="1673.8" r="18"/><circle class="prefix__st0" cx="576.6" cy="1672" r="18"/><circle class="prefix__st0" cx="640.1" cy="1639.6" r="18"/><circle class="prefix__st0" cx="622.7" cy="1603.1" r="18"/><circle class="prefix__st0" cx="599.1" cy="1637.8" r="18"/></g><g><path class="prefix__st0" d="M796.9 1863.6c-12.4 20.9-64.4 1.3-62.3-18.3l46.4-206c.7 2.6 2.8 4.6 5.6 5.2 2.8.6 5.5-.4 7.2-2.4l-42.7 189.6c4.2 3.8 11.4 1.1 25.9-2.7 15.3-4 32.3 13.7 19.9 34.6z"/><path class="prefix__st0" d="M795.5 1638.8c-.3 1.3-.9 2.4-1.7 3.4-1.7 2-4.5 3-7.2 2.4-2.8-.6-4.8-2.7-5.6-5.2-.3-1.2-.4-2.4-.1-3.7 1.5-7.1 2.4-13.7 2.9-19.7.3-4 .4-7.7.3-11.2-.1-5.3-.5-10.1-1.1-14.1-.7-4.6-1.5-8.3-2.3-10.9-.9-3.3-1.7-5.1-1.7-5.1-1.7-3.8 0-8.2 3.8-9.9 3.8-1.7 8.2 0 9.9 3.8.2.4 1.4 3.2 2.7 8.3.8 2.9 1.6 6.6 2.2 10.9.7 4.8 1.3 10.4 1.4 16.7.1 3.5 0 7.2-.3 11.2-.4 7-1.4 14.7-3.2 23.1z"/><path class="prefix__st0" d="M797.7 1587.8l-14.7 2.9c-.7-4.6-1.5-8.3-2.3-10.9l14.7-2.9c.8 2.8 1.6 6.5 2.3 10.9zM798.8 1615.6l-15.1.3c.3-4 .4-7.7.3-11.2l15-.3c.1 3.6 0 7.3-.2 11.2z"/></g><g><path class="prefix__st0" d="M860.6 1716.3c3.6 6.4 4.5 13.7 2.9 20.4-1 4.1-2.9 8-5.6 11.4-.7.9-1.6 1.8-2.5 2.7-1.2 1.1-2.5 2.1-3.9 3.1-.5.3-1.1.7-1.6 1-2 1.2-4.2 2-6.3 2.6-4.7 1.3-9.7 1.4-14.3.2-1.5-.4-2.9-.8-4.3-1.4l-2-.9s-.1 0-.1-.1c-.7-.4-1.3-.7-1.9-1.1-3.8-2.4-7.1-5.8-9.5-9.9-7.7-13.6-2.9-30.8 10.6-38.5 6.2-3.5 13.2-4.4 19.6-3.1l1.5.3c7.2 1.8 13.5 6.4 17.4 13.3z"/><path class="prefix__st0" d="M876.2 1787.2l-11.1 6.3-13.9-25.1-1.7-.8-24.4-11.5c5.8 2.5 12.4 3 18.6 1.2 2.2-.6 4.3-1.5 6.3-2.6s3.9-2.5 5.5-4.1c4.1-3.8 6.8-8.7 8-14l-1.4 25.7 14.1 24.9zM823 1755.2z"/><path class="prefix__st0" d="M859.1 1796.9l22.3-12.7c1.6-.9 3.6-.3 4.5 1.2.9 1.6.3 3.6-1.2 4.5l-22.3 12.7c-1.6.9-3.6.3-4.5-1.2-.9-1.6-.3-3.6 1.2-4.5z"/><ellipse transform="rotate(-29.541 817.565 1736.705)" class="prefix__st0" cx="817.5" cy="1736.8" rx="4.3" ry="4.7"/><ellipse transform="rotate(-29.541 837 1742.331)" class="prefix__st0" cx="836.9" cy="1742.4" rx="4.3" ry="4.7"/><ellipse transform="rotate(-29.541 840.372 1723.796)" class="prefix__st0" cx="840.3" cy="1723.9" rx="4.3" ry="4.7"/><ellipse transform="rotate(-29.541 857.453 1729.216)" class="prefix__st0" cx="857.4" cy="1729.3" rx="4.3" ry="4.7"/><ellipse transform="rotate(-29.541 841.854 1707.117)" class="prefix__st0" cx="841.8" cy="1707.2" rx="4.3" ry="4.7"/><ellipse transform="rotate(-29.541 818.88 1717.516)" class="prefix__st0" cx="818.8" cy="1717.6" rx="4.3" ry="4.7"/><path class="prefix__st0" d="M857.9 1748c-.7.9-1.6 1.8-2.5 2.7-1.2 1.1-2.5 2.1-3.9 3.1-.5-.4-.9-.9-1.2-1.4-1.3-2.3-.6-5 1.5-6.2 2.1-1.3 4.8-.5 6.1 1.8zM828.8 1754c.7 1.1.8 2.4.5 3.6-1.5-.4-2.9-.8-4.3-1.4l-2-.9h-.1c-.7-.4-1.3-.7-1.9-1.1.3-.8.9-1.5 1.7-2 2.1-1.3 4.8-.5 6.1 1.8z"/></g><g><path d="M1076.9 1537.5c17.6 0 34.1 4.9 48.1 13.5v-3.8c-14.2-8.3-30.6-13-48.1-13-52.9 0-95.9 43-95.9 95.9s43 95.9 95.9 95.9c17.5 0 34-4.7 48.1-13v-3.8c-14 8.6-30.5 13.5-48.1 13.5-51 0-92.6-41.5-92.6-92.6s41.5-92.6 92.6-92.6zM47.8 1630.1c0 35.3-19.2 66.3-47.8 82.9v-3.8c26.6-16.3 44.5-45.6 44.5-79.1S26.6 1567.3 0 1551v-3.8c28.5 16.6 47.8 47.6 47.8 82.9z"/><path d="M1093.3 1630.1c0-9-7.3-16.4-16.4-16.4s-16.4 7.3-16.4 16.4c0 9 7.3 16.4 16.4 16.4s16.4-7.4 16.4-16.4zm-16.4 13.1c-7.2 0-13.1-5.9-13.1-13.1s5.9-13.1 13.1-13.1 13.1 5.9 13.1 13.1-5.9 13.1-13.1 13.1z"/><path d="M1076.9 1556.2c18.4 0 35.2 6.7 48.1 17.9v-4.3c-13.2-10.6-29.9-16.9-48.1-16.9-37.4 0-68.6 26.7-75.7 62 0 .1 0 .2-.1.3-.9 4.8-1.5 9.8-1.5 14.8 0 3.3.2 6.4.6 9.6 0 .2 0 .3.1.5 4.1 30.9 26.4 56.1 55.8 64.3h.1c.1.1.3.1.4.1 6.4 1.8 13.2 2.7 20.2 2.7 5 0 10-.5 14.7-1.4.2 0 .4 0 .6-.1 12.2-2.5 23.4-7.8 32.8-15.4v-4.3c-9.1 7.8-20.2 13.5-32.4 16.2-2.5-6.9-13.3-39.7 4.4-56.3 8.1-7.6 18.5-9.4 28-8.9v-3.4c-10.1-.5-21.3 1.6-30.2 9.9-19 17.8-8.5 50.9-5.4 59.3-4.1.7-8.2 1.1-12.5 1.1-6.1 0-12.1-.8-17.8-2.2 2.9-7.9 13.1-40.1-5.9-58.2-16.8-16-42.5-8.8-49.9-6.2-.2-2.4-.4-4.9-.4-7.4 0-4.6.5-9.1 1.3-13.5 47.4-18.1 84.4-17.1 107.2-13.1 5 .9 9.5 1.9 13.6 3.1v-3.4c-3.9-1-8.1-2-12.8-2.8-22.9-4.1-59.9-5.1-107.1 12.5 7.9-32.4 37.1-56.5 71.9-56.5zM1051 1646c17.4 16.6 7.4 48 4.9 54.9-27.2-8.1-47.9-31.4-52.1-60.1 5.7-2 31.3-9.9 47.2 5.2zM29.1 1630.1c0 4.1-.3 8.1-1 12.1v.2c-3.1 19.3-13.4 36.3-28.1 48.1v-4.3c12.7-10.9 21.6-26.1 24.6-43.2-3.3-1.4-13.3-5.3-24.6-5.8v-3.4c11.1.5 21 4.1 25.2 5.9.4-3.1.6-6.2.6-9.4 0-4.7-.5-9.3-1.3-13.7-2.2-1.3-10.6-6-24.5-9.9v-3.4c11.5 3.1 19.4 6.8 23.5 9-3.8-15-12.2-28.2-23.5-38v-4.3c13.9 11.1 23.9 27 27.6 45.1 0 .1 0 .2.1.3.9 4.7 1.4 9.6 1.4 14.7z"/></g><path class="prefix__st0" d="M902.9 1650.2l11.9-1.3 5.6-10.6c1.2-2.3 4.6-2.2 5.7.2l5 10.9 11.8 2.1c2.6.5 3.5 3.7 1.6 5.5l-8.8 8.1 1.6 11.9c.4 2.6-2.4 4.5-4.7 3.2l-10.4-5.9-10.8 5.2c-2.4 1.2-5-.9-4.5-3.5l2.4-11.7-8.3-8.6c-1.9-2-.7-5.2 1.9-5.5zM856 1873.9l11.5 3.2 9.2-7.7c2-1.7 5.1-.3 5.2 2.3l.6 12 10.2 6.3c2.2 1.4 1.9 4.7-.6 5.7l-11.2 4.2-2.9 11.6c-.6 2.6-3.9 3.3-5.6 1.2l-7.5-9.4-11.9.9c-2.6.2-4.3-2.7-2.9-4.9l6.6-10-4.5-11.1c-.9-2.4 1.3-5 3.8-4.3z"/><circle class="prefix__st0" cx="839" cy="1627.6" r="8.8"/><circle class="prefix__st0" cx="819.4" cy="1670.8" r="8.8"/><circle class="prefix__st0" cx="972.3" cy="1309.5" r="8.8"/><circle class="prefix__st0" cx="940" cy="1390.3" r="8.8"/><circle class="prefix__st0" cx="1020.7" cy="1493.2" r="8.8"/><circle class="prefix__st0" cx="933.6" cy="1758.5" r="8.8"/><circle class="prefix__st0" cx="719.3" cy="1619.4" r="8.8"/><g><path class="prefix__st0" d="M952.9 1835.6h112.3v32.7H952.9zM970.2 1818.2h77.7c9.6 0 17.3 7.8 17.3 17.3H952.9c0-9.5 7.8-17.3 17.3-17.3zM1047.9 1885.6h-77.7c-9.6 0-17.3-7.8-17.3-17.3h112.3c0 9.5-7.7 17.3-17.3 17.3zM971.1 1810.8h73.1v7.4h-73.1zM1041 1810.8h-17.3l-6-13.5c-1.3-3-4.3-4.9-7.5-4.9H985c-1.8 0-3.5-.8-4.7-1.9-1.2-1.2-2-2.9-2-4.7 0-3.7 3-6.7 6.7-6.7h36.6c3.3 0 6.2 1.9 7.5 4.9l11.9 26.8zM945.4 1836.4h-34M945.7 1851.9h-15M951.2 1879.5h-28.3"/></g><g><path class="prefix__st0" d="M190.1 1670.8l-30.4 45.7c-9.1 13.7-25.7 19.3-40.7 15.1-3.6-1-7.1-2.6-10.4-4.8-3.2-2.1-5.9-4.6-8.2-7.4-10-12.2-11.3-29.9-2.2-43.7l30.4-45.7 61.5 40.8zM109.1 1798.3c-3.5 5.2-21.1-.4-39.5-12.6s-30.4-26.3-27-31.5c3.2-4.8 18.7-.3 35.6 10.1-.9 1.1-1.8 2.2-2.9 3.2-.5.5-.9 1.1-1.2 1.8-1.1 2.7.4 5.9 3.2 7.1 2.9 1.2 6.1 0 7.1-2.8.5-1.3 1.1-2.6 1.8-3.9 16 11.4 26 23.8 22.9 28.6z"/><path class="prefix__st0" d="M119 1731.6c-1.4 1.2-2.8 2.4-4.1 3.6-2.4 2.1-4.7 4.3-6.9 6.5-1.1 1.1-2.2 2.2-3.3 3.4-3.5 3.7-6.8 7.5-9.9 11.5-2 2.6-3.9 5.3-5.6 8.1-.9 1.4-1.7 2.8-2.5 4.3l-.3.6c-.7 1.3-1.3 2.5-1.8 3.9-1.1 2.7-4.3 4-7.1 2.8-2.9-1.2-4.3-4.4-3.2-7.1.3-.7.7-1.3 1.2-1.8 1-1 2-2.1 2.9-3.2.1-.2.3-.4.4-.5 1-1.3 2-2.6 3-4 1.9-2.7 3.7-5.5 5.3-8.3 2.5-4.4 4.8-8.9 6.8-13.6.6-1.5 1.2-2.9 1.8-4.4 1.2-2.9 2.3-5.9 3.3-8.9.6-1.7 1.1-3.3 1.6-5 2.3 2.8 5 5.3 8.2 7.4 3.1 2.1 6.6 3.7 10.2 4.7z"/><path class="prefix__st0" d="M93.6 1737.8l-19-12.6c-22.6-15-27.7-47.1-11.4-71.6 14.7-22.2 42-30.6 63.7-21l-7.9 11.9c-15.3-5.4-33.8 1.2-44.2 16.8-12 18.1-8.7 41.6 7.5 52.3l16.5 10.9c-1 3-2.2 6-3.3 8.9-.6 1.5-1.2 2.9-1.9 4.4zM193.8 1740.2c-16.3 24.5-47.9 32.3-70.4 17.3l-18.7-12.4c1.1-1.1 2.2-2.3 3.3-3.4 2.2-2.2 4.6-4.4 6.9-6.5l16.1 10.7c16.1 10.7 39.1 4.7 51.1-13.4 10.4-15.6 9.3-35.3-1.6-47.3l7.9-11.9c17.3 16.4 20.1 44.8 5.4 66.9z"/><path class="prefix__st0" d="M164.1 1698.6s-8 11.6-10.9 16.5c-3 4.9-16 18-32.3 11"/></g><g><path class="prefix__st0" d="M439.4 1878.6l-14.4-16-9.2-10.3-7.5 7.3-12.3 11.8-12.5 12.1 9.5 9.2 35.9 34.5 67 64.6 4.6-19.5 19.6-3.9-80.7-89.8zm42.3 81.8l-36.1-32.6 12.2-11.8 31.3 37.2-7.4 7.2zM390.1 1823.7l-34.4 33.2-26.4-25.5-24.8-23.5-15.5-15c-.3-.3-.6-.6-1-.9-20.4-20.2-19-36.4-7.5-47.5 11.6-11.2 28.5-11.6 48.1 10.2l14.4 16.1 22.6 25.6 24.5 27.3z"/><path class="prefix__st0" d="M489.1 1953.2l-7.4 7.2-36.1-32.6 12.2-11.8zM563.5 2023.2l-14.5 14c-1.7 1.6-4.8 1.2-7-.9l-26.6-25.6-19.6-18.9 4.6-19.5 19.6-3.9 18.1 20.2 24.6 27.5c2.1 2.4 2.4 5.5.8 7.1zM363.7 1794.2l1.9 2.2-36.3 35-2.1-2c-18.6-17.9-14-29.9-3.4-40 10.5-10.2 22.7-14.4 39.9 4.8z"/><path class="prefix__st0" d="M538.2 1988.8l-22.8 21.9-19.5-18.9 4.5-19.4 19.6-3.9zM489.1 1953.2l-7.4 7.2-36.1-32.6 12.2-11.8z"/><g><path class="prefix__st0" d="M428.8 1927.2l-19.8 91-5.8 26.6-7.8 36.1c-.7 3-3 5-5.3 4.6l-19.8-3.5c-2.3-.4-3.8-3.1-3.3-6.2l5.2-36.5 3.8-26.9 17-119.6 35.8 34.4zM470.5 1736.6c-.1.4-.2.9-.3 1.3l-4.6 21.1-7.5 33.3-7.8 35.9-8.2 37.5-2.8 12.9-14.4-16-9.2-10.3-14.8-16.5 2.3-16.1 5.1-36.3 4.6-33.8 3-21.4c4.1-29.1 18.3-38.1 34.3-35.2 15.8 2.8 26 15.4 20.3 43.6z"/><path class="prefix__st0" d="M415.8 1852.3l-7.6 7.3-12.2 11.8-12.6 12.1-27.6-26.6 34.3-33.2 10.9 12.2z"/><path class="prefix__st0" d="M450.3 1828.2l-8.1 37.5-17.2-3.1-9.2-10.3-14.8-16.4 2.3-16.2zM408.9 1780.5l-.4 2.9 49.7 8.9.6-2.8c5.5-25.2-5-32.6-19.4-35.2-14.5-2.6-26.9.7-30.5 26.2zM376 2012.3l-3.8 26.9 31.1 5.6 5.7-26.6-14.6-13.6zM403.3 1984.2l-10.1-1.8 5.3-48.4 16.6 3z"/></g></g><g><path class="prefix__st0" d="M591.6 1856c-9.5 16.3-30.5 21.9-46.9 12.3-16.4-9.5-21.9-30.5-12.4-46.9 1.7-2.9 3.7-5.4 6-7.5 6.3-6 14.6-9.3 23.1-9.5 6-.1 12.2 1.4 17.8 4.7 16.4 9.6 21.9 30.6 12.4 46.9z"/><circle class="prefix__st0" cx="562" cy="1838.7" r="20"/><circle class="prefix__st0" cx="562" cy="1838.7" r="5.2"/><path class="prefix__st0" d="M561.4 1804.5c-8.5.1-16.8 3.5-23.1 9.5l-11.4-6.6c-8.9-5.2-11.9-16.6-6.7-25.5l.6-1 40.6 23.6z"/></g><g><path class="prefix__st0" d="M257.1 1818.3s-10.4 19.1-13.4 28.6M202.7 1797.9s-3.2 15.5-9.1 26.9M176.7 1809.6s12.2-5.3 23.3-1.2"/><path class="prefix__st0" d="M167.1 1782.3s-7.4 29.5-12.9 40.2c0 0 6.5 24.6 76.5 52.7"/><path class="prefix__st0" d="M272.8 1860.4c4.3 10.6.8 23.6-22.1 20.3s-60.3-27.5-96-3.9l-13.5 29.3s27.7-20.9 59.7-7.9 52.2 19.8 62.1 6c9.9-13.8 20.1-32.3 9.8-43.8s-53.1-15.1-82.8-38.3c-29.7-23.2-32.1-48.1-5.2-48.3 26.9-.2 78 24.2 72.8 43.1-2 7.3-11.2 7.9-21.5 5.2-16.5-4.2-35.9-16.9-33.4-24.2 4-11.9 33 .2 41.4 10.6 0 0-4.3 7.1-7.5 12.6M160 1831l4.1-9M166 1837.1l4.1-9M172.9 1843.3l4.2-9M181.4 1849.4l4.2-9M189.7 1855l4.2-9M198.1 1859.6l4.2-9M205.5 1863.8l4.2-9M213.2 1867.4l4.2-9M220.5 1870.7l4.1-8.9M240.1 1910.6l4.1-9M231 1908.4l4.2-9M221.8 1905.4l4.1-9M211.9 1902.1l4.2-9M201.7 1898.3l4.2-9M191.7 1894.8l4.2-9M182.2 1893.9l4.2-9M173.1 1893.8l4.1-9M163 1895.3l4.2-9M187.4 1806.2l4.1-9M178.6 1807.7l4.2-9M201.8 1829l2.8-6.1M212.1 1833.8l2.6-5.6M220.9 1838.7l2.8-6.1"/></g><path class="prefix__st0" d="M326.7 1692.2l9.5-7.3-.6-12c-.1-2.6 2.8-4.3 5-2.8l9.8 6.8 11.2-4.2c2.5-.9 4.9 1.4 4.2 3.9l-3.4 11.5 7.5 9.3c1.7 2.1.2 5.1-2.4 5.2l-12 .3-6.6 10c-1.4 2.2-4.8 1.8-5.7-.7l-4-11.3-11.6-3.1c-2.4-.7-3-4-.9-5.6zM224.7 1966.3l11.7 2.5 8.7-8.2c1.9-1.8 5.1-.6 5.3 2l1.2 11.9 10.5 5.7c2.3 1.3 2.2 4.6-.2 5.7l-10.9 4.9-2.2 11.8c-.5 2.6-3.7 3.5-5.5 1.5l-8-8.9-11.9 1.5c-2.6.3-4.5-2.5-3.2-4.7l6-10.4-5.1-10.8c-1-2.4 1.1-5.1 3.6-4.5z"/><circle class="prefix__st0" cx="302.8" cy="1860.8" r="8.8"/><circle class="prefix__st0" cx="527.7" cy="1908.4" r="8.8"/><circle class="prefix__st0" cx="305.8" cy="1502.7" r="8.8"/><circle class="prefix__st0" cx="512.7" cy="1399" r="8.8"/><circle class="prefix__st0" cx="73" cy="1574.1" r="8.8"/><g><path d="M49.6 1832.6C35.3 1817.9 16.2 1804 0 1802v3.2c15.1 2 33.5 15.5 47.2 29.6 12.1 12.4 17.6 24.2 16.4 35.1-.6 5-2.5 9.9-6 14.5-3.4 4.6-8.2 9-14.5 13.1-5.8 3.8-25.8 15.2-40.8 2.6-.8-.7-1.6-1.5-2.4-2.5v4.8l.3.3c5.8 4.9 12.2 6.6 18.3 6.6 5.8 0 11.4-1.5 16.1-3.4s8.4-4.1 10.4-5.5c13.3-8.8 20.7-18.8 21.9-29.9 1.3-12.1-4.5-24.8-17.3-37.9zM1104.1 1825.5c-.5 22.4 10.5 59.5 20.9 72.1v4.8c-11.7-10.3-24.8-51.7-24.2-76.9.2-9.7 2.4-16.1 6.5-19.2 5.1-3.9 11.1-5 17.7-4.2v3.2c-1.2-.2-2.5-.3-3.6-.3-4.5 0-8.5 1.2-12 3.8-3.3 2.4-5.1 8.2-5.3 16.7z"/><g><path d="M25.5 1889c-3.3 0-6.6-1-9.7-3-8.1-5.2-13.6-16.7-12.6-26.7.7-7.8 5-13.7 12-16.5 10.6-4.3 22.2 4.1 27.4 14.7 4.3 8.8 4.9 21.7-7.6 28.9-3.1 1.7-6.3 2.6-9.5 2.6zm-4.4-44.1c-1.6 0-3.1.3-4.7.9-7.5 3.1-9.6 9.2-10 13.8-.8 8.9 4 19.1 11.1 23.6 3.5 2.2 9.1 4.1 15.8.2 10.5-6.1 10.1-16.7 6.2-24.6-3.6-7.5-11-13.9-18.4-13.9zm-5.3-.6z"/></g></g><g><path transform="rotate(-28.055 656.274 1801.826)" class="prefix__st0" d="M648.7 1794.7h15.1v14.3h-15.1z"/><path transform="rotate(-28.055 661.36 1811.318)" class="prefix__st0" d="M646.6 1807.7h29.5v7.3h-29.5z"/><path transform="rotate(-28.055 687.153 1859.787)" class="prefix__st0" d="M666.4 1855.2h41.5v9.2h-41.5z"/><path transform="rotate(-28.055 691.356 1867.624)" class="prefix__st0" d="M675.1 1863.4h32.5v8.5h-32.5z"/><path class="prefix__st0" d="M761.4 1914.7l6.5 12.2-69.7 37.2-6.5-12.2c-1.2-2.3-.4-5.2 2-6.5l61.3-32.6c2.2-1.3 5.1-.4 6.4 1.9z"/><path transform="rotate(-28.055 736.442 1952.17)" class="prefix__st0" d="M692 1944.8h88.9v14.8H692z"/><path transform="rotate(-28.055 721.567 1924.327)" class="prefix__st0" d="M689 1918.8h65.1v11.1H689z"/><path class="prefix__st0" d="M738.3 1909l-39 20.8c-1.4-9.8-5.4-30.6-16.3-53l20.7-11.1c12.1 23.3 27 37.3 34.6 43.3zM657.6 1817.4l11.1-5.9c11.4-6.1 25.5-1.8 31.6 9.6 6.1 11.4 1.8 25.5-9.6 31.6l-11.1 5.9c-11.4 6.1-25.5 1.8-31.6-9.6-6.1-11.4-1.8-25.5 9.6-31.6z"/></g><g><path class="prefix__st0" d="M650.5 2016.5l-1.2 8.5-68.2-9.6 1.2-8.5c.4-2.6 2.8-4.5 5.5-4.1l58.6 8.2c2.6.4 4.5 2.8 4.1 5.5zM635 1954.7l-1 7-20.7-2.9 1-7c2.7 2.3 6.1 3.9 9.9 4.5 3.8.6 7.5 0 10.8-1.6z"/><path transform="rotate(-81.999 622.896 1964.906)" class="prefix__st0" d="M618.2 1959.5h9.4v10.9h-9.4z"/><path class="prefix__st0" d="M641 2010.3l-47.3-6.6c5.7-4.4 17.2-15.3 23.2-34.8l10.8 1.5c-.3 15.8 9.1 33 13.3 39.9zM646.1 1939.8c-1 6.8-5.3 12.3-11.1 14.9-3.3 1.5-7 2.1-10.8 1.6s-7.2-2.1-9.9-4.5c-4.8-4.2-7.5-10.6-6.6-17.4 1.5-10.6 11.3-18 21.9-16.5 10.6 1.5 18 11.3 16.5 21.9z"/></g><g><circle class="prefix__st0" cx="885.9" cy="1507.1" r="67.9"/><path class="prefix__st0" d="M818.1 1509.2s24.5-38.9 67.8-14.5c0 0 23.6-2.4 24.7-17.2 0 0-31.3-29.1-84.5-2.4"/><path class="prefix__st0" d="M849 1450.2s42.1-15.1 72.3 9.8c2.8 2.3 3.1 12.9-10.6 17.5M917.7 1447.2s8 4.3 5.1 14.5M885.9 1494.8s-4.4 42.4 37.5 69M856.7 1486.7s-12.8 49.5 40.5 87.3M831.7 1496s-9.4 31.3 23.6 71.8M944.8 1473.4s-12.8 40-53.2 50.5M953.8 1507.1s-11 35.5-46.6 43.4"/></g><g><path class="prefix__st0" d="M1057.7 2384.8c0 3.4 1.7 6.4 4.4 8.2l-47.7-29.7c-3.1-1.6-5.3-4.9-5.3-8.7 0-5.4 4.4-9.8 9.8-9.8 1.6 0 3.2.4 4.5 1.1l46.1 29.3c-.7-.1-1.4-.2-2.1-.2-5.3 0-9.7 4.4-9.7 9.8z"/><path class="prefix__st0" d="M1077.3 2384.8c0 5.4-4.4 9.8-9.8 9.8-2 0-3.9-.6-5.5-1.7-2.6-1.8-4.4-4.8-4.4-8.2 0-5.4 4.4-9.8 9.8-9.8.7 0 1.4.1 2.1.2 4.5 1.1 7.8 5 7.8 9.7zM947 2408.1c0 3.4 1.7 6.4 4.4 8.2l-47.7-29.7c-3.1-1.6-5.3-4.9-5.3-8.7 0-5.4 4.4-9.8 9.8-9.8 1.6 0 3.2.4 4.5 1.1l46.1 29.3c-.7-.1-1.4-.2-2.1-.2-5.3 0-9.7 4.4-9.7 9.8z"/><path class="prefix__st0" d="M966.7 2408.1c0 5.4-4.4 9.8-9.8 9.8-2 0-3.9-.6-5.5-1.7-2.6-1.8-4.4-4.8-4.4-8.2 0-5.4 4.4-9.8 9.8-9.8.7 0 1.4.1 2.1.2 4.5 1 7.8 5 7.8 9.7zM1010.3 2350.1s-96.3 9.8-93.3-28 125.3-7.1 109.7-71.5c-15.7-64.3-126-79.7-130.3-43.9-4.3 35.9 40.8 49.3 9.4 79.3-31.4 29.9-82-13.2-89.2 27.2-7.2 40.7 73.5 33.5 83.6 59.1"/></g><g><circle class="prefix__st0" cx="1072.9" cy="2194.7" r="28.3"/><circle class="prefix__st0" cx="1072.9" cy="2194.7" r="16.1"/><path class="prefix__st0" d="M1071.8 2155.9l3.3 80.7M1113.8 2194.6l-80.7 3.3"/></g><g><path class="prefix__st0" d="M536.7 2317.3c33.8 10.9 136.5 39.1 136.5 39.1 17.8 5.7 27.6 24.8 21.9 42.7-5.7 17.9-24.7 27.7-42.4 22 0 0-100-36.8-133.8-47.7-31.4-10.1-127.1-36.1-127.1-36.1-.3-.1-.6-.2-.8-.3-8.4-2.9-15-8.9-18.8-16.3l-.1-.2c-4-7.7-5-17-2.2-25.9 5.7-17.8 24.7-27.7 42.4-22 0 0 8.2 2.8 20.6 7.1 7.9 2.7 17.5 6 27.8 9.5 27.9 9.7 59.9 22.9 76 28.1z"/><path class="prefix__st0" d="M480.1 2345.7l6.4-31.2c1-4.8-1.2-9.1-5-9.5l-21.2-2.1c-3.7-.4-6.7 3.5-6.7 8.4l.3 31.8c0 2.9 2.2 5.4 4.9 5.6l15.3 1.5c2.8.3 5.4-1.7 6-4.5zM461.3 2320.5l16 1.6M460.5 2342.7l13.3 1.3"/><g><path class="prefix__st0" d="M591 2386.5l17.2-26.8c2.6-4.1 2.1-8.9-1.2-10.6l-19-9.6c-3.4-1.7-7.5.8-9.2 5.4l-11.1 29.8c-1 2.7.2 5.8 2.6 7l13.7 6.9c2.3 1.2 5.5.3 7-2.1zM582.5 2356.2l14.4 7.2M573.9 2376.6l11.9 6"/></g><path class="prefix__st0" d="M433 2279.8c7.9 2.7 17.5 6 27.8 9.5L391 2337c-8.4-2.9-15-8.9-18.8-16.3 18.5-12.2 44.4-29.6 60.8-40.9z"/></g><g><path class="prefix__st0" d="M755.3 2308.4s-6.8-13.9-23.8-7.1c-17 6.8-18.7 40.9-9.3 54s18.1 10.6 22.2 8.4c0 0 8 9.6 21.1 3.4s27.7-31.8 21.3-47.6c-6.3-15.7-21.6-17.6-31.5-11.1z"/><path class="prefix__st0" d="M769 2290s-2-1.9-3.3-2.5-11.5 8.4-10.5 20.9l2-1.2c.1 0 1.8-11.4 11.8-17.2z"/></g><g><path class="prefix__st0" d="M968.2 2008.5s-26-67.3-82-49.9-50.1 74.1-35.2 91.5c0 0 13.4-6.1 18-28.8 4.6-22.7 17.8-27 29.4-19 13.1 9 16.3 51.6-17.2 85.9l12.8 13.2c6.2 6.4 16.7 5.1 21.2-2.5l53-90.4zM851 2050.1s6.7 13.9 30.2 38.1"/><circle class="prefix__st0" cx="887.8" cy="2012.3" r="6.6"/><path class="prefix__st0" d="M878 1975.7s37.4-18 68.7 26.1M865 2043.7l27.3 4.5M868.2 2054.8l17 3"/></g><g><path class="prefix__st0" d="M1030.1 2142.7c-6.7 14.3-24.1 20.6-38.8 14.1l-10.5-4.6c-14.9-6.5-21.3-23.6-14.4-37.9 1.9-4 4-8.3 6.3-12.9 3.6-7.3 7.5-15.3 11.5-23.7 14.8-30.3 32-65.8 44.9-92.4 4.1-8.4 7.7-16 10.7-22.2.1-.1.2-.3.3-.6 3.2-5.1 26.3-36.5 47.3-27.2 20.2 8.9 13.9 43.5 10.7 55.8-.6 2.3-1.1 3.8-1.3 4.2-2.2 5.3-4.9 11.7-8 18.9-11.4 26-28.1 62.4-42.5 93.3-4 8.5-7.7 16.6-11.2 24-1.7 4-3.4 7.7-5 11.2z"/><path class="prefix__st0" d="M1040.2 1962.5c-.2.3-.3.5-.3.6-3 6.2-6.6 13.8-10.7 22.2-1.1 0-2.2-.3-3.2-.7l-.7-.3c-4.1-1.8-6-6.5-4.1-10.5l4.6-9.7c1.9-4 6.8-5.8 10.9-3.9l.7.3c1.1.4 2 1.1 2.8 2zM1107.5 2002.6l-4.6 9.7c-1.9 4-6.8 5.8-10.9 3.9l-.7-.3c-.9-.4-1.8-1-2.4-1.7 3.2-7.2 5.9-13.6 8-18.9.2-.5.7-2 1.3-4.2 1.5-.2 3.1 0 4.5.6l.7.3c4.2 1.9 6 6.6 4.1 10.6zM984.2 2077.7c-4.1 8.4-8 16.4-11.5 23.7-.5-.1-1-.3-1.5-.5l-.7-.3c-4.1-1.8-6-6.5-4.1-10.5l4.6-9.7c1.9-4 6.8-5.8 10.9-3.9l.7.3c.5.2 1.1.5 1.6.9zM1052.7 2118.9l-4.6 9.7c-1.9 4-6.8 5.8-10.9 3.9l-.7-.3c-.4-.2-.9-.4-1.3-.7 3.4-7.3 7.2-15.4 11.2-24 .5.1 1 .3 1.5.5l.7.3c4.1 1.9 6 6.6 4.1 10.6zM1080.3 1939.5s-14.7 2.1-24.1 14.5M1048.3 1965.2l-31 65.9"/><g><circle class="prefix__st0" cx="1073.4" cy="1985" r="2.5"/><circle class="prefix__st0" cx="1067" cy="1998.6" r="2.5"/><circle class="prefix__st0" cx="1061" cy="1979.2" r="2.5"/><circle class="prefix__st0" cx="1054.6" cy="1992.8" r="2.5"/></g><g><circle class="prefix__st0" cx="1018.2" cy="2102.1" r="2.5"/><circle class="prefix__st0" cx="1011.8" cy="2115.7" r="2.5"/><circle class="prefix__st0" cx="1005.8" cy="2096.3" r="2.5"/><circle class="prefix__st0" cx="999.4" cy="2109.9" r="2.5"/></g></g><g><path class="prefix__st0" d="M204.3 2250.7l-10.5 23.3c-5.3-6.3-10.7-13-16.2-20.2-68.9-90.4-70.3-171.8-70.3-180.8 0-.4.4-.7.8-.6 8 2.5 74.9 24.9 135.6 91.3l-11.6 25.6-27.8 61.4zM264 2187.9c73.4 96.3 70.8 173.4 70.3 181 0 .3-.3.6-.7.6-6.4-.4-62-6.7-133.6-88.3l11.7-25.9 27.5-60.8 10.8-23.8c4.8 5.5 9.4 11.2 14 17.2z"/><path class="prefix__st0" d="M232.2 2189.2l-27.8 61.4c-3.5-2.7-6.8-5.9-9.7-9.7-13.7-18-13.4-41.4.8-52.2 10-7.7 24.3-7 36.7.5zM246 2201.7c13.7 18 13.4 41.4-.8 52.2-9.2 7-21.9 7-33.4 1.3l27.5-60.8c2.4 2.2 4.6 4.6 6.7 7.3zM324.5 2063.3l-25.1 55.3c-5.7 12.6-19.7 18.9-32.7 15.3-1.4-.4-2.7-.9-4.1-1.5-1.3-.6-2.6-1.3-3.8-2.1-11.2-7.4-15.8-22-10-34.7l25.1-55.3 50.6 23zM195 2348.9l-25.1 55.3-50.6-22.9 25.1-55.3c5.7-12.6 19.7-18.9 32.7-15.3 1.4.4 2.7.9 4.1 1.5 1.3.6 2.6 1.3 3.8 2.1 11.2 7.3 15.8 22 10 34.6z"/><path class="prefix__st0" d="M266.7 2133.9l-16.7 36.8-10.8 23.8-27.5 60.8-11.7 25.9-15 33.1c-1.2-.8-2.5-1.5-3.8-2.1-1.3-.6-2.7-1.1-4.1-1.5l16.7-36.8 10.5-23.3 27.8-61.4 11.6-25.6 15.1-33.3c1.2.8 2.5 1.5 3.8 2.1 1.4.6 2.8 1.1 4.1 1.5zM119 2084.9s51.6 22 94 63.4M266.8 2237.5s-2.1 14.7-13.7 23.2-23.5 6.7-23.5 6.7"/></g><g><path class="prefix__st0" d="M160.7 1996.6s1.8-62.4-50.1-75.8-73.2 31.7-74.8 56.4-4.2 39.4-4.2 39.4l12.6 1.4s-.1 22 23 27.7c23.1 5.8 36.5-24.7 46.8-44.8 14.5-28.5 41.5 1.1 46.7-4.3z"/><circle class="prefix__st0" cx="76.1" cy="2010.8" r="13.4"/><path class="prefix__st0" d="M135.3 1988.7s-29 39.4-23.4 62.5c5.5 23.1 32.4 24 41 12.4 8.6-11.5 9.4-27.1 9.4-27.1s-31.5-1.6-54.4-23.9M98.2 2029.2s23 29.2 61 22.2"/></g><g><path class="prefix__st0" d="M600 2095.6l9.7 33.7 5.5 19.3 5.1 17.8 5.6 19.3 18.9 66.1-19.1 32.1-20.8-51.7-6.7-16.7-6.2-15.4-6.7-16.7-6.8-16.9-13.8-8.7-14-47.7z"/><path class="prefix__st0" d="M609.7 2129.3l5.5 19.3-23.2 51.5-6.7-16.7zM620.3 2166.4l5.6 19.3-21 46.5-6.7-16.7zM582.8 2100.7l-10.8-36.6M571.9 2063.7l-4.1-14M571.9 2063.7l.1.4 6.7 23.5-10.3-6-2.4-1.4-7.3-24.9z"/><path class="prefix__st0" d="M578.7 2049.8l-6.7 14.3 7.2 23.7 6.8-13.1z"/><g><path class="prefix__st0" d="M564.7 2106l-7.7-26.3-.1-.4-4.1-14"/><path class="prefix__st0" d="M543.7 2070.9l13.2 8.4 6.8 23.9-12.7-7.4z"/><path class="prefix__st0" d="M568.4 2081.6l2.5 8.7-6.7 13.1-7.2-23.7 5.4-11.7 3.6 12.2z"/></g></g><g><path class="prefix__st0" d="M735.4 2232.5c-.8 3.7-1.8 6.9-3 9.7-46.4-28.4-68.6-84.3-52-135.2 8.3-25.3 25.5-47 48.5-61.1 21.6-13.3 47.5-19.4 73.2-17.3-.5 3-1.5 6.2-2.9 9.7-49.1-3-94.5 26.5-109.4 71.8-15 45.7 4.5 96 45.6 122.4z"/><path class="prefix__st0" d="M798.1 2146.4c-.2 1.5-1.4 2.8-3 3.1-15.8 2.8-50.1 39-51.2 72.9-.2 5.4-.8 10.1-1.8 14.2-.8 3.5-1.9 6.7-3.2 9.4-7.7 16.7-21.4 20.2-22.1 20.4-2 .5-3.9-.8-4.4-2.7-.5-2 .7-4 2.7-4.5.6-.2 11.3-3 17.4-16.9 1.2-2.8 2.3-6 3-9.7.6-3.1 1-6.6 1.1-10.5.7-22.4 13.8-42.4 21.6-52.3 10-12.9 21.8-22.6 31.2-26.3-5.4-8.5-9.1-23.3-9.6-39.6-.4-12.6.8-36.5 13.5-55 2.6-3.8 4.5-7.3 5.9-10.6 1.5-3.5 2.4-6.7 2.9-9.7 2.5-13.9-4-21.9-4.4-22.4-1.3-1.6-1.1-3.9.5-5.2 1.5-1.3 3.9-1.1 5.2.4.5.6 9.6 11.5 5.8 29.6-.5 2.3-1.2 4.7-2.1 7.2-1.7 4.6-4.2 9.5-7.8 14.7-19.1 27.9-12.8 77.5-1.7 89 1.1 1.4 1.2 3.1.5 4.5zM860.2 2166.5L641.5 2095M641.5 2095l4.3 13.7-18.2-18.2 25.5-4.1zM810.8 2150.3l27.2-13.4 39.1 12.8-26.7 13.6zM810.7 2150.6l14 26.9 39.2 12.8-13.6-26.7z"/></g><path d="M53.7 2375.4c-2.1-1.4-4.3-2.9-6.7-4.5-3.4-2.3-6.7-4.7-10-7.1-3.2-2.4-6.4-4.9-9.6-7.4-3.3-2.7-6.4-5.3-9.2-7.8-4-3.6-7.5-7.1-10.7-10.4-1.3-1.4-2.5-2.7-3.6-4.1-1.3-1.5-2.4-3-3.5-4.5-.2-.2-.4-.5-.5-.7v5.5c.2.3.5.6.7.8.1.1.2.3.4.4l1.8 2.1c.2.2.3.4.5.5.3.3.5.6.8.9l-4.1 4.2v4.8l6.4-6.6c2.5 2.7 5.4 5.4 8.4 8.2L0 2365.2v4.7l17.3-17.7c.2.2.4.4.7.6.2.2.4.3.6.5.7.6 1.3 1.2 2 1.8l.1.1c.7.6 1.4 1.1 2.1 1.7.2.2.4.4.7.5.2.2.5.4.7.6l-24 24.7v6.2c2.8 2.1 5.6 3.9 8.5 5.4 4.3 2.3 8.5 4 12.6 4.9H21.6c2.8.6 5.5.9 8.1.9 5.3 0 10-1.4 13.9-4.2 9.3-6.6 10.8-18.5 10.9-19 0-.5-.3-1.1-.8-1.5zm-52.2 10.4l25.1-25.8c2.3 1.8 4.6 3.6 7 5.4L9 2390.7c-2.5-1.4-5-3-7.5-4.9zm19.5 9.9c-.1 0-.1 0-.2-.1-.6-.2-1.3-.4-2-.6-.1 0-.2-.1-.3-.1-.6-.2-1.1-.4-1.7-.6-.1 0-.3-.1-.5-.2-.7-.3-1.3-.5-2-.8-.1-.1-.2-.1-.3-.2-.6-.3-1.2-.5-1.8-.8-.1 0-.2-.1-.3-.1l24.3-24.9c1.2.9 2.5 1.8 3.7 2.7.1.1.3.2.4.3 1 .7 2.1 1.5 3.1 2.2L21 2395.7zm20.6-2.3c-4.4 3.1-10 4.2-16.7 3.2l21.4-22.1c1.6 1.1 3.2 2.1 4.7 3.1-.6 2.8-2.8 11-9.4 15.8zm30.3-313.2l-11.1-3.9c-.4-.1-.9-.1-1.3.1s-.7.5-.8.9l-15 42.3-4 11.4-11.7 33.2-4.1 11.4L0 2243.1v9.9l26.5-74.7 7.9 2.8L0 2278.2v9.9l46-129.8 4-11.4 22.9-64.6c.4-.9-.1-1.8-1-2.1zM35.5 2178l-8-2.8.2-.6 2.7-7.8 7.9 2.8-2.8 8.4zm4.1-11.5l-7.9-2.8 2.8-7.8 8 2.8-2.9 7.8zm3.8-10.9l-7.9-2.8 3-8.3 7.9 2.8-3 8.3zm4.1-11.4l-7.9-2.8 2.8-7.8 7.9 2.8-2.8 7.8zm3.9-10.9l-8-2.8.9-2.5 2.1-5.9 8 2.8-3 8.4zm4-11.4l-7.9-2.8 2.8-7.8 7.9 2.8-2.8 7.8zm6.4-18.1l-2.6 7.2-8-2.8 2.8-7.7.2-.6 7.9 2.8-.3 1.1zm1.5-4.2l-7.9-2.8 6-16.8 8 2.8-6.1 16.8zM1095.4 2336.5c-.8 4.1.5 9.9 3.6 16.4l22.5-23.1c-8.8-12.8-7.8-19.7-7.7-20 0-.1 0-.2.1-.3l11.1-31.4v9.9l-7.9 22.4v.4c0 1.7.6 7.9 7.9 18.1v5.5c-.2-.3-.5-.6-.7-.9-.2-.2-.3-.4-.5-.6-.1-.1-.2-.3-.4-.5l-22.9 23.5c.2.4.4.7.6 1.1l.3.6c.4.8.9 1.5 1.4 2.3.1.2.2.3.3.5l1.2 1.8c.2.3.3.5.5.7.1.2.3.4.4.6l19.6-20.2v4.8l-17.7 18.2c2.3 3.1 4.9 6.2 7.6 9l10-10.3v4.7l-7.7 7.9.7.7c.2.2.4.4.6.5.6.6 1.3 1.2 2 1.8.7.6 1.3 1.2 2 1.7.2.2.4.3.6.5.3.2.5.4.8.6l1.1-1.2v6.2c-.7-.5-1.3-1-2-1.5-3.1-2.4-6.2-5.2-9.2-8.2-3.6-3.7-7-7.6-10-11.8-2.6-3.6-4.9-7.2-6.7-10.8-3-5.8-6.3-14-4.9-20.8 0-.1 0-.1.1-.2l32.8-92.4v9.9l-29.5 83.9z"/><g><path class="prefix__st0" d="M115 2293.8c-1.1 1.7-3.6 2.3-6.9 2-6.6-.6-16.7-4.7-26.9-11.4-10.4-6.9-18.3-14.7-21.3-20.6-1.4-2.8-1.7-5.2-.7-6.8 3.3-5 18.4-.8 33.8 9.4 15.5 10.2 25.3 22.4 22 27.4z"/><path class="prefix__st0" d="M115 2293.8l-5.9 9-.3-.2c-3.3 5-18.4.8-33.8-9.4s-25.3-22.4-22-27.4l5.9-9 .3.2c-1.1 1.6-.8 4 .7 6.8 3 5.9 10.9 13.7 21.3 20.6 10.2 6.7 20.3 10.8 26.9 11.4 3.3.3 5.8-.3 6.9-2z"/></g><circle class="prefix__st0" cx="226.8" cy="2055.8" r="8.8"/><circle class="prefix__st0" cx="306.7" cy="1924.9" r="8.8"/><g><path class="prefix__st0" d="M338 2224.4l155.2 31.2-3 14.7-140.5-28.2c-8.1-1.7-13.3-9.6-11.7-17.7z"/><path transform="rotate(-78.644 417.066 2232.68)" class="prefix__st0" d="M409.7 2146.7h14.8v171.9h-14.8z"/><path class="prefix__st0" d="M470 2007.5L376.7 2217M501.4 2209.2c-55.5-4.8-108.1 1.1-108.1 1.1l15.4-33.8 10.9-23.9 55.2-121.3c17.1 30.8 23.9 73 26.4 108.5.6 8.5.9 16.6 1.1 24.1.6 26.6-.9 45.3-.9 45.3z"/><path class="prefix__st0" d="M502.3 2164c-40.1-5.5-77.7 6.5-93.5 12.6l10.9-23.9c31.5-12.5 66.1-13.2 81.6-12.8.5 8.5.8 16.6 1 24.1z"/></g><g><path class="prefix__st0" d="M174 979.8l32.4 2.2s-3.7 32.6 16.8 52.7l39.4 104.8-118.8 45.5-41.6-106.8s-2.2-33.9-22.3-49.2l23.1-22c.5-.5 1.3-.5 1.8 0 3.8 3.8 20 18.1 42.7 9.8 22.6-8.2 25-30.2 25.2-35.8 0-.7.6-1.3 1.3-1.2z"/><path class="prefix__st0" d="M206.3 982l41.3 16.9c1.3.5 1.9 1.9 1.5 3.2l-10.4 33.6c-.4 1.3-1.7 2.1-3 1.8l-12.6-2.7M79.9 1029l-19.2 41.8c-.3.7-.1 1.5.6 1.9l29.8 17.7c.7.4 1.5.2 1.9-.4l9.1-11.9M176.5 1067.9c1.6-2.9 1.9-6.1.7-9.3-1.9-5-7.8-9-16.1-5.8-4.5 1.7-7.8 4.9-9.2 7.1-.6.9-.5 2 .2 2.8l2.5 2.9c1 1.2 2.9 1.1 3.8-.2.9-1.3 2.7-3.2 4.9-4 2.6-1 4.2-.5 5 1.5 1 2.7-2 4.9-4.1 5.7l-.9.3c-2.2.8-3.3 3.3-2.5 5.5.8 2.2 3.3 3.3 5.5 2.5l.9-.3c1.1-.4 6.8-2.3 8.5 2.2.2.5.6 1.9 0 3.4-.6 1.3-1.9 2.4-3.9 3.2-2.6 1-5.7.9-7.2.6-1.5-.3-2.9.9-2.9 2.4l.1 4.1c0 1.1.8 2 1.9 2.3 2.4.5 6.8.5 11.3-1.2 10.2-3.9 12.3-12.2 10-18.3-1.4-3.9-4.6-6.5-8.5-7.4zM131.8 1106.4s27.5 22.1 75.1 26.1M154.1 1134.7s11.9 7.5 24.4 8.6"/></g><path class="prefix__st0" d="M530.7 2234.4l11.7-2.8 4.3-11.2c1-2.5 4.3-2.8 5.7-.5l6.2 10.2 12 .7c2.6.1 4 3.2 2.2 5.2l-7.8 9.1 3.1 11.6c.7 2.5-1.9 4.8-4.3 3.7l-11.1-4.6-10.1 6.5c-2.2 1.4-5.1-.3-4.9-2.9l1-11.9-9.3-7.6c-2-1.6-1.3-4.9 1.3-5.5zM234.5 2365.3l11.5 3.2 9.2-7.7c2-1.7 5.1-.3 5.2 2.3l.6 12 10.2 6.3c2.2 1.4 1.9 4.7-.6 5.7l-11.2 4.2-2.9 11.6c-.6 2.6-3.9 3.3-5.6 1.2l-7.5-9.4-11.9.9c-2.6.2-4.3-2.7-2.9-4.9l6.6-10-4.5-11.1c-.9-2.5 1.3-5 3.8-4.3zM832 2228l11.5 3.2 9.2-7.7c2-1.7 5.1-.3 5.2 2.3l.6 12 10.2 6.3c2.2 1.4 1.9 4.7-.6 5.7l-11.2 4.2-2.9 11.6c-.6 2.6-3.9 3.3-5.6 1.2l-7.5-9.4-11.9.9c-2.6.2-4.3-2.7-2.9-4.9l6.6-10-4.5-11.1c-1-2.5 1.2-5 3.8-4.3zM1078.1 2098.3l10.4-5.9 1-11.9c.2-2.6 3.4-3.8 5.3-2.1l8.8 8.1 11.7-2.7c2.6-.6 4.7 2 3.6 4.4l-5 10.9 6.2 10.3c1.4 2.3-.5 5.1-3.1 4.8l-11.9-1.4-7.9 9c-1.7 2-5 1.1-5.5-1.5l-2.4-11.7-11-4.7c-2.3-.9-2.5-4.3-.2-5.6z"/><circle class="prefix__st0" cx="817.5" cy="1933.6" r="8.8"/><circle class="prefix__st0" cx="696.8" cy="2025" r="8.8"/><circle class="prefix__st0" cx="657" cy="2049.7" r="8.8"/><circle class="prefix__st0" cx="661.4" cy="2210.8" r="8.8"/><circle class="prefix__st0" cx="646.3" cy="2308.4" r="8.8"/><circle class="prefix__st0" cx="930.7" cy="2150.6" r="8.8"/><circle class="prefix__st0" cx="325.4" cy="2158.2" r="8.8"/><circle class="prefix__st0" cx="376.7" cy="2134.9" r="8.8"/><circle class="prefix__st0" cx="85.6" cy="2194.7" r="8.8"/><circle class="prefix__st0" cx="1044.2" cy="2317.2" r="8.8"/><circle class="prefix__st0" cx="27.8" cy="2044.8" r="8.8"/><path class="prefix__st0" d="M65.1 2304.7l-42.2-29.3M74.2 2321.2l-25.9-16.5"/><circle class="prefix__st0" cx="524.2" cy="1178.7" r="8.8"/><circle class="prefix__st0" cx="709.9" cy="1042.3" r="8.8"/><circle class="prefix__st0" cx="609.4" cy="623.6" r="8.8"/><circle class="prefix__st0" cx="609.4" cy="784" r="8.8"/><path class="prefix__st0" d="M868.7 1307.3c4.7-13.7 13.7-20.8 18.3-14.4s-5 10.9-11.3 11.7c-6.4.9-7 2.7-7 2.7zM966.5 1067.1l-82.3-33.6M947.8 1071.9l-33.1-13.1"/></svg>