<svg xmlns="http://www.w3.org/2000/svg" x="0" y="0" viewBox="0 0 1125 2436" xml:space="preserve"><path d="M1 2265c22.45-5.5 45.41-9.5 67.24-16.84 36.73-12.36 72.71-26.94 109.07-40.4 12.05-4.46 24.31-8.36 36.91-12.67-35.3-27.88-70.94-56.48-107.12-84.4-17.12-13.21-35.21-25.18-53-37.51-4.05-2.81-8.68-4.77-13.42-7.32-1.28 2.5-2.25 4.38-3.21 6.25-11.66 23.02-23.31 46.04-34.98 69.05-.35.69-.99 1.23-1.49 1.85v-18c.79-1.43 1.71-2.79 2.34-4.29 7.18-17.04 14.16-34.17 21.55-51.12 2.17-4.97 5.37-9.52 8.29-14.14 2.53-4 6.36-5.01 10.9-4.18 7.74 1.42 14.45 4.85 20.47 9.86 20.23 16.85 40.6 33.53 60.77 50.46 29.38 24.67 59.68 48.09 91.96 68.89 11.46 7.39 11.97 20.9 1.26 29.31-1.25.98-2.95 1.52-4.53 1.92-13.53 3.43-27.25 6.21-40.59 10.25-55.47 16.8-110.84 33.98-166.24 51.02-2.07.64-4.11 1.34-6.17 2.01-.01-3.33-.01-6.67-.01-10z"/><path d="M1 2186c1.38-1.05 3.18-1.83 4.08-3.2 9.09-13.86 19.97-25.86 34.87-33.63 21.64-11.28 44.16-12.81 67.36-5.68 4.77 1.47 9.44 3.28 14.16 4.9.29.1.64-.02 1.27-.05.52-.82 1.15-1.76 1.73-2.74 4.38-7.36 9.63-8.75 17.21-4.8 3.85 2 4.86 4.6 2.98 8.57-2.97 6.27-7.2 8.73-14.53 7.86-2.48-.3-4.16-.26-5.8 2.27-16.49 25.37-40.48 38.34-70.1 41.5-16.03 1.71-31.92 1.47-47.28-4.7-1.4-.56-3.94 1.73-5.95 2.7v-13zm7.81 3.61c31.95 17.72 103.23-5.1 110.25-35.01-43.51-20.03-88.46-5.87-110.25 35.01zm120.8-38.99c4.12 1.16 7.41.8 8.96-3.89-5.35-2.93-6.92-2.26-8.96 3.89zM1126 2148c-.33.35-.8.64-.97 1.06-14.14 33.38-28.97 66.5-39.02 101.45-2.02 7.01-4.15 14.01-2.04 21.54.99 3.54 2.22 4.45 5.91 3.41 11.98-3.38 24.07-6.34 36.12-9.47v9c-11.43 3.6-22.87 7.15-34.28 10.82-5.31 1.71-10.21 1.57-14.36-2.6-4.34-4.36-6.14-9.62-4.21-15.55 7.17-21.97 13.79-44.16 22.01-65.74 8.94-23.47 19.42-46.36 29.26-69.49.37-.88 1.04-1.63 1.57-2.45.01 6.02.01 12.02.01 18.02z"/><path d="M1126 2201c-1.67.68-3.6 2.27-4.95 1.87-3.79-1.11-7.75-2.53-10.76-4.93-1.02-.81 0-5.2 1.1-7.45 1.9-3.9 5.19-6.51 9.94-5.96 1.59.18 3.11.96 4.67 1.47v15zm-1.16-8.52c-5.47-2.6-6.47-2.22-8.41 2.84 3.97 3.07 6.14.67 8.41-2.84zM447.56 2239.42c.16-47.64 23.2-80.46 64.88-94.86 16.02-5.54 32.21-10.85 48.67-14.79 18.46-4.42 35.55.13 51.05 11.31 22.02 15.88 40.82 34.24 50.31 60.51 12.01 33.24 8.23 64.37-12.79 92.84-18.82 25.49-43.66 41.77-75.52 46.07-16.31 2.2-31.9-1.15-46.81-7.61-21.3-9.24-40.17-22.46-57.35-37.83-17.39-15.59-21.77-36.74-22.44-55.64zm135.3-8.18c17.57-1.99 39.74-4.46 61.89-7.01 7.79-.9 9.32-3.01 7.6-10.88-4.53-20.71-14.81-38.22-31.09-51.67-13.26-10.95-29.69-12.93-46.19-12.87-7.26.03-10.46 3.71-11.06 11.02-.63 7.78-1.01 15.62-.85 23.42.25 11.81 1.13 23.61 1.64 35.43.55 12.76.5 12.76 18.06 12.56zm-29.03-1.35c-.51-19.26-.91-37.89-1.57-56.51-.16-4.47-.85-8.97-1.84-13.34-1.72-7.6-5.63-10.44-13.03-8.41-9.76 2.68-19.78 5.26-28.75 9.76-21.06 10.56-34.62 27.69-40.01 50.87-2.41 10.37.88 14.69 11.17 16.76 24.53 4.94 49.07 1.08 74.03.87zm1.11 12.35c-18.66 0-36.76-.36-54.83.17-7.4.22-14.84 1.96-22.1 3.7-7.65 1.83-9.52 5.87-7.21 13.48.29.95.62 1.9.97 2.83 12.12 31.99 35.43 50.67 68.65 57.36 3.49.7 7.27.53 10.84.11 3.47-.41 5.37-2.7 5.71-6.47 2.18-23.99.7-47.84-2.03-71.18zm28.45-5.04c-5.02.49-9.85.75-14.59 1.57-1.18.2-2.96 2.22-2.93 3.37.47 23.65 1.49 47.26 6.72 70.48.99 4.41 3.54 6.64 7.6 6.24 5.56-.54 11.44-1.01 16.48-3.15 22.59-9.58 39.6-25.45 50.63-47.47 2-3.99 3.61-8.26 4.73-12.58 1.8-6.93-1.17-10.91-8.23-11.75-4.63-.55-9.28-.9-13.91-1.43-15.56-1.74-31.11-3.53-46.5-5.28zM585.76 1111.59c21.6.14 42.4 4.11 62.17 12.96 36.41 16.29 55.03 44.97 58.02 84.19 2.57 33.67-7.01 64.27-24.87 92.47-3.08 4.87-7.17 9.21-11.29 13.29-47.89 47.35-124.77 59.24-184.33 28.43-33.17-17.16-54.79-43.15-59.34-81.15-7.92-66.12 31.97-124.39 96.57-140.5 20.63-5.15 41.53-9.82 63.07-9.69zm-8.45 12.69c-7.13.52-16.31.89-25.4 1.92-47.68 5.41-82.66 28.68-100.38 74.15-21.45 55.03-.55 107.28 52.34 133.52 29.26 14.52 59.55 16.43 90.31 6.13 41.35-13.85 72.71-39.52 88.95-80.83 4.37-11.11 6.42-23.54 7.36-35.53 3.55-45.41-17.87-77.02-61-91.71-16.27-5.53-33.03-7.79-52.18-7.65zM338.89 360.08c11.93-3.39 23.34-6.31 34.52-9.92 6.97-2.25 11.89-7.26 14.39-14.32 2.98-8.45.31-14.06-8.62-17.49-.73 1.58-1.45 3.2-2.22 4.8-3.15 6.56-8.73 9.34-15.66 9.88-3.3.26-4.98-1.39-5-4.72-.06-8.89 5.8-16.63 14.68-17.43 5.23-.47 11.06.39 15.92 2.37 8.77 3.56 12.13 12.05 9.27 21.12-3.57 11.32-11.54 18.67-22.5 22.43-8.17 2.81-16.68 4.6-25.04 6.86-2.87.78-5.73 1.62-9.21 2.61 8.15 11.32 14 22.95 11.73 36.95-2.32 14.36-13.66 21.41-24.6 29.36.77 1.52 1.48 2.96 2.22 4.37 9.58 18.19 7.93 30.84-7.45 44.65-5.7 5.11-6.91 8.76-3.9 16.03 6.21 14.99 3.2 24.18-9.99 35.14-3.64 3.03-4.55 5.41-2.61 9.92 3.79 8.82 3.65 18.31-.27 26.8-4.78 10.36-11.04 20.03-16.81 29.92-.53.91-2.28 1.75-3.28 1.57-.97-.17-2.24-1.6-2.44-2.65-2.33-12.28-4.61-24.57-2.32-37.18 1.54-8.48 5-15.97 11.53-21.62 3.36-2.9 3.67-5.5 1.36-8.94-.73-1.1-1.19-2.38-1.74-3.6-6.92-15.35-5.05-25.46 7.61-36.62 3.56-3.14 4.24-5.62 2.1-9.68-1.38-2.6-1.99-5.64-2.76-8.53-3.76-14.18-.16-25.99 11.46-35.18 2.2-1.74 4.35-3.56 6.63-5.43-6.61-11.77-15.02-22.81-12.28-37.26 2.7-14.24 12.7-22.89 25.05-30.4-3.28-2.65-6.1-4.87-8.86-7.16-6.15-5.1-12.7-9.81-18.31-15.45-7.9-7.95-11.72-17.79-9.78-29.17 1.5-8.83 7.76-14.54 16.7-14.04 5.41.3 11.2 1.99 15.89 4.68 7.16 4.11 9.05 13.85 5.42 21.3-1.4 2.87-3.46 3.4-6.13 1.88-5.85-3.34-9.83-7.93-9.91-15.07-.02-1.79 0-3.59 0-5.29-8.88-1.42-14.38 2.53-15.55 10.91-1.17 8.41 1.57 15.68 7.72 21.22 8.15 7.33 16.8 14.1 25.7 21.49.64-1.7 1.15-2.67 1.38-3.71 2.93-13.68 5.99-27.34 8.55-41.1.48-2.58-.29-6.1-1.84-8.19-2.61-3.54-6.14-6.47-9.58-9.3-2.29-1.89-4.93-3.53-7.67-4.65-22.42-9.13-29.4-27.04-28.11-49.49.24-4.22-.38-6.87-4.33-9.33-6.88-4.28-8.16-11.44-7.15-18.96.51-3.82 3.02-4.85 6.59-3.11 11.07 5.38 22.12 10.81 33.17 16.22 7.11 3.48 10.44 9.13 9.5 17.02-.51 4.29-1.56 8.52-2.13 12.81-1.08 8.07 1.08 11.77 8.7 14.64 3.39 1.28 6.98 2.03 10.99 3.17.77-3.14 1.68-5.81 1.97-8.54.11-1.09-.88-2.69-1.85-3.43-5.7-4.39-7.5-8.47-5.87-14.05 1.6-5.45 5.75-8.48 12.42-9.08 4.82-.43 11.38 3.39 13.48 7.86 2.59 5.52.38 13.17-5.74 15.04-7.18 2.19-6.58 7.52-7.83 13.3 8.01 1.09 15.5 1.74 22.69-1.96 3.67-1.89 5.29-5.18 4.92-9.12-1.59-17.05 7.54-21.72 22.33-22 11.33-.21 22.66-.46 33.99-.58 5.93-.07 7.23 1.86 5.11 7.35-2.26 5.85-5.71 10.44-12.23 12.17-1.47.39-2.92 1.95-3.78 3.34-1.56 2.54-2.65 5.37-3.98 8.05-9.04 18.22-23.48 27.91-44.04 28.5-9.67.28-19.27 1.38-27.91 6.6-3.22 1.94-5.12 4.24-5.86 8.05-2.51 12.92-5.38 25.76-8.07 38.65-.25 1.24-.26 2.54-.48 4.72zm-14.17 64.81c21.45-11.89 26.58-36.77 11.11-52.55-3.7 17.51-7.32 34.63-11.11 52.55zm-5.19-5.65c3.35-15.95 6.61-31.5 10.04-47.87-18.27 9.98-23.18 34.32-10.04 47.87zm119.34-168.17c-.3-.55-.6-1.11-.91-1.66-16.99-2.63-37.9.54-42.29 6.71 11.79 0 23.37.32 34.9-.23 2.84-.14 5.54-3.14 8.3-4.82zm-16 12.21c-9.38-2.02-28.38-1.08-31.71 2.19 6.16 1.99 11.88 3.86 17.62 5.68 10.38 3.28 10.39 3.26 14.09-7.87zm-109.03 213.3c13.12-7.4 16.79-25.23 7.29-34.66-2.43 11.55-4.82 22.91-7.29 34.66zm8.56-234.78c.33-.57.65-1.13.98-1.7-8.33-11.49-22.84-13.61-34.12-21.86-.45 5.29 1.25 8.76 4.87 10.54 9.31 4.58 18.83 8.71 28.27 13.02zm-7.55 199.45c-13.45 7.52-16.56 22.83-7.16 34.09 2.39-11.4 4.72-22.49 7.16-34.09zm-14.39-202.44c0 4.26-.22 7.23.11 10.15.12 1.11 1.38 2.86 2.3 2.99 6.51.91 13.07 1.47 21.31 2.32-1.45-2.93-1.83-5.39-3.13-6.05-6.33-3.23-12.91-5.97-20.59-9.41zm113.19 40.48c-7.33-2.32-14.43-4.66-21.61-6.73-1.04-.3-2.46.68-3.7 1.07.44 1.22.52 2.88 1.38 3.58 2.84 2.3 5.97 4.25 8.98 6.33 8.04 5.54 8.39 5.48 14.32-2.58.18-.26.24-.61.63-1.67zM309.35 497.8l-6.41 30.44c12.2-6.44 15.51-21.53 6.41-30.44zm89.44-205.16l.12-1.38c-4.74-3.27-9.4-6.67-14.3-9.68-1.02-.63-3.08-.11-4.37.5-.5.24-.53 2.3-.18 3.34.84 2.5 1.85 5 3.17 7.28.61 1.06 2.19 2.4 3.17 2.28 4.16-.51 8.26-1.52 12.39-2.34zm-97.54-34.33c.99 3.49 1.47 6.1 2.54 8.44.4.89 2.31 1.81 3.28 1.6 4.68-1.02 9.31-2.34 13.89-3.77.83-.26 1.92-1.57 1.85-2.3-.08-.76-1.35-1.89-2.2-1.99-6.05-.75-12.12-1.27-19.36-1.98zm2.07 237.56c-10.63 6.36-12.96 17.63-6.41 27.9.36-.68.79-1.19.91-1.77 1.81-8.42 3.56-16.85 5.5-26.13zm53.62-237.13c4.06.03 7.35-2.54 7.49-5.86.14-3.41-3.64-6.35-8.21-6.26-3.91.07-6.35 1.97-6.48 6.04-.12 3.39 3.16 6.05 7.2 6.08zm-6.28 43.29c10.77-2.69 12.15-4.94 9.49-16.22-2.28.86-5.77 1.14-6.32 2.56-1.67 4.23-2.17 8.9-3.17 13.66zm-6.2-1.03c1.2-5.75 2.2-10.55 3.17-15.21-6.79-3.28-8.14-2.4-11.23 6.17 2.63 2.96 5.03 5.64 8.06 9.04zm-36.75-26.15c3.02 2.46 4.98 4.39 7.27 5.79.94.58 2.93.54 3.82-.09 2.55-1.81 4.86-3.98 7.07-6.21.6-.61.98-2.25.58-2.84-.46-.69-1.99-1.23-2.85-1.01-4.91 1.19-9.76 2.64-15.89 4.36zm-8.88 272.92c-2.28 10.76-4.56 21.53-6.83 32.29 6.65-9.76 10.8-20.07 6.83-32.29zm-6.64.9c-.46-.05-.93-.11-1.39-.16-6.29 9.17-6.87 19.42-4.92 30.16 2.11-10 4.21-20 6.31-30zm85.33-252.83c-1.45-3.46-2.48-6.42-3.94-9.14-.43-.8-2.22-1.49-3.13-1.25-1.15.3-2.76 1.51-2.9 2.5-.39 2.83-.14 5.76-.14 9.07 3.68-.42 6.43-.75 10.11-1.18zm-53.91-10.17c2.33 1.25 4.3 2.31 6.51 3.5 1.21-1.89 2.2-3.38 3.12-4.9.76-1.24 1.44-2.53 2.12-3.73-3.59-3.63-5.37-2.86-11.75 5.13zm-.8 34.04c.58-.12 1.17-.25 1.75-.37 2.32-5.97.59-10.09-6.47-12.06 1.81 4.77 3.26 8.6 4.72 12.43zm39.62 4.77l1.26 1.26c5.46-.78 7.81-3.33 6.68-9.29l-7.94 8.03zM81.51 1864.23c.33 8.63-2.18 13.19-8.86 16.13-6.67 2.94-13.41 1.35-19.04-4.49-9.35-9.69-8.71-21.18 2.25-29.1 6.84-4.94 14.4-8.9 20.78-12.78-1.5-6.65-3.25-12.98-4.31-19.43-5.32-32.47-19.72-60.21-42.73-83.63-7.43-7.57-7.31-7.69-3.08-15.59-4.28-3.61-9.06-6.49-12.23-10.6-4.88-6.33-4.29-13.55.71-19.87 5.78-7.3 13.5-10.75 22.82-9.84 7.16.7 12.28 4.94 14.37 11.54 1.42 4.48.95 9.57.17 14.52.23.19.46.53.7.55 9.24.59 9.49.53 11.37 9.66 7.1 34.43 25.38 61.91 51.97 84.28 2.29 1.93 4.87 3.64 6.74 5.92 1.72 2.1 2.67 4.85 4.25 7.86 4.03-2.28 8.02-4.56 12.05-6.8 3.78-2.1 7.44-4.53 11.42-6.14 9.37-3.81 18.02-.32 22.68 8.73 4.71 9.14 2.76 20.09-5.33 24.89-3.44 2.04-8.15 1.92-13.01 2.94.42 1.27 1.06 3.93 2.14 6.41 18.19 41.79 40.81 81.27 63.54 120.67 29.06 50.37 58.38 100.58 87.36 150.99 2.66 4.63 4.63 10.05 5.35 15.32 2.4 17.55 2.7 35.21.46 52.84-.69 5.38-2.08 6.31-7.29 4.68-20.47-6.4-38.06-17.49-52.93-32.89-1.82-1.88-3.16-4.27-4.47-6.57-41.52-72.99-82.79-146.11-124.63-218.92-10.78-18.75-23.28-36.51-35.07-54.68-1.89-2.91-4.17-5.56-6.26-8.32-.64.55-1.26 1.13-1.89 1.72zm62.35-23.66l-1.9.54c.6 3.03.55 6.41 1.91 9.05 10.11 19.53 20.5 38.92 30.8 58.35.79 1.49 1.52 3 2.27 4.51-.28.13-.55.26-.83.39-12.07-19.92-24.13-39.84-36.21-59.77-3.37 4.79-5.59 10.9-9.85 13.17-4.13 2.21-10.37.48-16.39.48 10.73 20.03 21.12 39.44 31.52 58.85-1.85-1.02-2.87-2.5-3.8-4.02-10.69-17.49-21.54-34.88-31.94-52.54-2.81-4.76-6.74-6.33-12.06-7.55.48 1.28.67 2.04 1.02 2.71 9.31 17.51 18.26 35.22 28.02 52.46 42.52 75.11 85.27 150.1 127.97 225.11 1.22 2.15 2.67 4.26 4.41 6 12.51 12.57 26.89 22.31 43.68 28.3 1.83.65 3.7 1.17 6.86 2.17.17-11.62 1.03-22.41.32-33.1-.89-13.32-4.41-25.81-11.29-37.82-38.68-67.52-76.56-135.49-115.1-203.1-12.12-21.27-25.41-41.87-38.18-62.77-.32-.53-.81-.95-1.23-1.42zm-21.44-28.58c-2.55-3.25-4.2-6.2-6.61-8.3-26.62-23.23-45.35-51.69-56.79-85.04-.46-1.35-1.06-2.66-1.23-3.09-7.4 3.67-14.56 7.22-21.86 10.83.02.04.54 1.06 1.23 1.94 22.27 28.07 37.23 59.44 43.07 94.98.43 2.61 1.98 5.03 3.13 7.82 13.14-6.43 25.52-12.5 39.06-19.14zm-47.4 49.58c-3.06 1.52-5.52 2.94-8.15 3.93-1.02.38-2.41-.24-3.63-.41.34-1.31.47-2.74 1.11-3.89.43-.78 1.56-1.18 2.41-1.71 8.99-5.56 18.42-6.71 28.74-4 8.47 2.22 17.24 3.34 25.88 4.92 3.55.65 6.23-.58 7.75-3.9 3.58-7.84 7.44-15.57 10.54-23.59 3.35-8.68 8.82-15.22 17.07-19.32 1.5-.74 3.57-.32 5.38-.43-.81 1.59-1.35 3.44-2.52 4.7-1.4 1.51-3.35 2.51-5.01 3.69 4.36 7.78 9.68 8.09 14.25 1.28 2.65-3.94 3.03-8.1.67-12.26-2.83-4.98-7.15-8.72-12.93-7.61-6.42 1.23-12.95 3.29-18.72 6.34-18.1 9.55-35.93 19.63-53.74 29.73-7.23 4.1-14.32 8.51-21.13 13.25-6.11 4.26-7.67 9.65-5.65 16.65 1.11 3.84 3.04 7.86 7.37 7.7 3.46-.13 7.41-1.78 10.1-4.02 3.36-2.77 2.22-6.86.21-11.05zM30.08 1709.1c9.43 0 17.15-5.52 18.4-13.41.42-2.65-.56-6.65-2.43-8.31-5.87-5.21-16.87-4.11-22.43 1.47-3.51 3.52-5.86 11.28-4.1 14.7 2.37 4.6 6.85 5.35 10.56 5.55zm23.48.37c-3.16-2.15-5.66-2.82-8.72-.13-2.03 1.79-4.86 3.03-7.54 3.64-3.67.84-4.26 2.98-4.02 6.41 8.46-.1 15.11-3.2 20.28-9.92zM661.24 1761.39c-.29-5.38-.72-9.38-.6-13.35.04-1.31 1.51-2.58 2.32-3.87 1.27.85 3.33 1.44 3.7 2.58 8.72 27.25 16.48 54.69 11 83.76-1.04 5.53-2.8 11-4.9 16.23-16.83 42.08-63.31 74.22-108.61 72.85-47.99-1.44-84.53-24.01-108.32-65.82-13.37-23.49-13.51-49.14-8.33-74.87 2.19-10.89 5.82-21.51 9.18-32.13.67-2.13 3.11-3.7 4.74-5.53.96 2.23 2.68 4.44 2.77 6.71.7 17.72 2.84 35.19 7.79 52.25 12.46 42.92 38.94 64.25 83.7 65.88 11.81.43 24.1-.92 35.55-3.86 38.87-9.98 64.23-40.97 68.65-82.26.7-6.63.98-13.29 1.36-18.57zm-204.05 24.14c-9.6 32.57 9.35 77.44 42.81 101.6 39.17 28.27 85.05 29.2 123.64 2.49 35.23-24.38 54.32-69.89 44.15-106-.44 1.7-.56 3.44-.77 5.17-4.86 39.8-24.66 68.44-62.82 82.83-25.9 9.77-52.44 10.74-79.05 3.12-33.37-9.56-54.86-31.05-63.23-65.01-1.95-7.89-3.14-15.98-4.73-24.2zM249.83 1378.64c3.5 4.41 3.02 8.45.61 12.42-4.01 6.59-10.27 10.28-17.31 12.84-1.71.62-3.46 1.12-5.59 1.81.5 1.15.82 2.18 1.35 3.1 28.02 48.55-4.55 95.43-47.92 102.95-8.08 1.4-16.56.43-24.85.76-1.47.06-3.93.81-4.21 1.76-4.46 14.97-8.65 30.02-13.11 45.82 5.51 1.01 10.73 1.79 15.85 2.97 4.33 1 8.97 1.77 12.68 3.97 2.37 1.41 3.3 5.24 4.87 7.98-2.86 1.63-5.58 4.2-8.61 4.61-3.04.42-6.49-1-9.56-2.16-5.73-2.17-11.31-4.74-17.6-7.41-1.92 8.12-3.43 15.73-5.58 23.16-1.78 6.18-4.09 12.24-6.67 18.13-.69 1.56-3.25 2.31-4.95 3.43-.95-1.93-2.97-4.05-2.67-5.76 1.73-9.8 3.88-19.53 6.16-29.22.94-4 2.55-7.84 4.08-12.43-6.46-1.16-12.62-1.72-18.42-3.48-4.08-1.24-8.19-3.53-11.32-6.41-3.05-2.8-1.99-6.87 2.01-7.79 4.13-.94 8.9-1 12.96.12 6.16 1.71 11.94 4.78 18.37 7.48.99-3.57 1.94-6.55 2.62-9.59 2.56-11.37 4.97-22.78 7.58-34.14.65-2.86.28-4.38-2.84-5.62-38.89-15.5-53.85-50.44-38.33-89.46 6.46-16.24 16.96-29.31 31.68-38.89.96-.63 1.91-1.29 3.33-2.26-7.03-11.1-11.92-22.68-6.19-35.69 1.13-2.57 4.01-4.37 6.08-6.52.66.27 1.33.54 1.99.81 0 3.31.34 6.67-.07 9.93-.83 6.57-.05 12.63 4.24 17.92 4.13 5.09 8.4 8.39 16.03 7 10.95-1.98 21.59 1.24 31.37 6.2 7.84 3.99 15.1 9.1 22.8 13.38 2.61 1.45 5.77 2.56 8.71 2.62 10 .21 19.2-1.93 25.6-10.73 1.07-1.48 3.04-2.31 4.83-3.61zm-144.12 66.28c.61 4.44.88 8.97 1.9 13.32 5.53 23.56 22.14 35.65 44.25 41.24 38 9.6 69.32-11.46 73.54-49.52 1.87-16.86-2.61-32.13-15.07-44.3-11.55-11.28-25.67-17.79-41.37-20.7-4.81-.89-10.04-.94-14.85-.09-26.39 4.63-48.05 31.93-48.4 60.05zM950.35 938.45c13.1-3.4 25.33-6.49 37.47-9.89 1.02-.29 2.11-2.69 2.04-4.05-.23-4.81-1.5-9.62-1.35-14.4.2-6.07 1.03-12.2 2.38-18.12.46-2.03 3.3-4.83 5.1-4.87 1.72-.03 4.52 2.8 5.06 4.85 1.43 5.41 2.19 11.06 2.64 16.66.42 5.26.09 10.58.09 16.54 5.89-.99 11.05-2.3 16.27-2.62 6.6-.41 13.29-.33 19.87.25 1.86.16 4.76 2.69 4.89 4.32.13 1.69-2.2 4.72-4 5.23-7.97 2.25-16.11 3.9-24.23 5.55-3.56.72-7.23.92-11.71 1.45.56 4.47.63 8.78 1.7 12.83 4.47 16.88 9.14 33.71 13.93 50.5 2.38 8.32 5.91 16.38 7.57 24.82 1.15 5.82.69 12.22-.32 18.15-.95 5.62-6.28 6.7-9.31 1.93-3.23-5.08-6.27-10.75-7.52-16.56-6.12-28.49-11.61-57.11-17.35-85.68-.26-1.27-.7-2.51-1.29-4.56-10.39 2.28-20.66 4.22-30.75 6.85-8.85 2.3-17.51 5.34-26.24 8.12-7.64 2.44-11.22.09-10.14-7.87.64-4.7 2.55-9.71 5.32-13.57 10.62-14.81 20.31-30.09 27.17-47.04 6.51-16.07 9.15-32.65 6.63-49.91-3.3-22.61-13.41-33.54-42.09-28.77-16.56 2.76-27.06 13.02-32.55 28.99-2.5 7.28-6.39 14.12-10.11 20.9-.91 1.66-3.92 3.47-5.47 3.11-1.48-.35-3.23-3.43-3.26-5.33-.08-5.39-.81-11.47 1.32-16.07 12.04-26.08 32.06-43.88 59.95-50.92 26.82-6.77 46.87 9.49 48.97 37.95 1.5 20.3-2.56 39.96-8.79 58.96-5.22 15.91-12.58 31.12-19.03 46.62-.67 1.66-1.61 3.22-2.86 5.65zM1048.36 1946.54c-3.58-18.16-1.66-21.4 18.63-31.46.69-10.52 4.3-15.87 11.57-17.14 7.09-1.23 14.12 2.12 16.81 8.01 3.02 6.63 1.35 11.43-6.07 17.36 6.47 21.37 5.01 29.84-11.1 36.95 1.57 2.02 3.1 3.94 4.58 5.89 2.22 2.93 1.97 6.04-1.79 6.4-9.04.87-12.34 7.33-15.48 14.23-15.45 33.96-31.09 67.84-46.28 101.92-35.34 79.28-70.53 158.62-105.62 238.01-5.92 13.4-10.98 27.18-16.6 40.72-1.4 3.38-1.4 5.51 2.57 6.82 1.3.43 3 2.19 3 3.34s-1.69 2.76-3.01 3.36c-3.62 1.65-7.43 2.88-11.14 4.26-1.15 12.37-4.57 17.1-13.37 18.59-7.17 1.21-14.23-2.8-17.81-10.12-3.73-7.64-2.38-12.17 5.99-19.45-1.16-3.15-2.64-6.33-3.44-9.68-.53-2.23-.09-4.69-.09-7.05 2.19.19 4.37.38 7.42.65.54-.96 1.6-2.59 2.4-4.35 18.81-41.22 37.83-82.34 56.34-123.69 34.1-76.18 67.93-152.49 101.78-228.78 4.79-10.81 8.95-21.9 13.68-32.73 1.57-3.58 1.64-6.64-.61-9.78-.1-.13-.16-.29-.23-.44-4.83-9.2-5.56-12.63 6.45-11.52.47.06.96-.2 1.42-.32zm-.21 24.55c-5.32 11.16-10.92 22.28-15.99 33.64-31.5 70.6-63.1 141.16-94.22 211.92-20.52 46.66-40.3 93.64-60.39 140.49-.7 1.63-1.17 3.35-1.8 5.18 4 1.97 7.54 3.72 11.33 5.58.82-1.31 1.6-2.36 2.16-3.51 6.29-12.87 12.92-25.6 18.75-38.67 35.95-80.65 71.82-161.35 107.5-242.12 14.94-33.82 29.37-67.88 43.99-101.84.69-1.6 1.09-3.33 1.53-4.68-4.44-2.07-8.31-3.88-12.86-5.99zm37.69-32.6c-.57-3.44-1.02-6.9-1.73-10.32-.77-3.7-10.8-9.54-14.02-7.65-4.81 2.83-9.83 5.91-13.42 10.04-5.77 6.64-2.8 16.44 5.19 19.88 2.75 1.18 5.41 2.73 8.28 3.42 2.03.49 4.67.46 6.46-.46 5.92-3.02 9.35-7.89 9.24-14.91zm-40.63 14.16c5.26 9.21 20.53 16.32 30.71 14.58-3.87-7.88-19.95-15.66-30.71-14.58zm-169.34 443.92c.24-.42.47-.85.71-1.27 3.54.24 5.68-1.12 6.22-4.86.55-3.8-1.34-4.63-4.67-5.24-2.98-.54-6.2-1.82-8.45-3.76-2.75-2.37-4.52-1.88-6.74.22-2.39 2.26-2.73 5.16-.33 6.95 4.11 3.07 8.81 5.35 13.26 7.96zm206.61-478.47c6.66-.09 9.47-3.2 7.65-6.54-3.04-5.58-11.49-7.06-15.71-2.46-.83.91-.77 4.19.02 4.74 2.88 2.03 6.25 3.37 8.04 4.26zm-194.43 460.76c-6.6-3.02-13.54-6.19-20.1-9.2 3.04 9.41 11.08 13.1 20.1 9.2zM993.51 594.04c2.5 10.98 4.91 21.33 7.21 31.69 1.52 6.83 3.39 13.74.42 20.6-.77 1.79-2.41 4.27-3.86 4.41-1.5.15-4-1.79-4.75-3.42-1.92-4.17-3.76-8.56-4.46-13.05-1.74-11.18-2.81-22.47-4.2-33.71-.18-1.43-.62-2.83-1.06-4.8-7.25 1.91-14.07 4.02-21.03 5.41-3.81.76-7.89.57-11.8.27-1.28-.1-3.19-1.75-3.44-2.97-.24-1.2.94-3.53 2.07-4 4.21-1.78 8.57-3.58 13.04-4.31 6.51-1.06 13.17-1.21 20.3-1.79l-4.33-28.65c-1.52-10.02-1.56-9.48-11.64-10.24-8.89-.68-18.01-1.7-26.42-4.43-15.52-5.04-24.25-16.68-24.5-32.96-.19-12.24 2.06-24.49 2.79-36.77 1.14-19.28 1.72-38.6 2.96-57.87.37-5.72 1.97-11.4 3.38-17.01.32-1.27 2.45-3.2 3.29-2.99 1.41.35 3.31 2.05 3.49 3.4.84 6.05 2.02 12.25 1.47 18.25-1.53 16.75-4.68 33.38-5.58 50.14-.69 12.69.43 25.6 1.94 38.26 2.02 16.94 12.7 26.17 29.22 28.81 5.2.83 10.5 1.04 16.59 1.62-.72-8.27-1.55-15.64-1.97-23.02-1.03-17.79-2.01-35.59-2.69-53.4-.18-4.61.54-9.31 1.4-13.87.29-1.54 2.26-2.77 3.46-4.14 1.08 1.31 2.86 2.49 3.12 3.95.96 5.39 1.66 10.86 2.01 16.32 1.47 22.77 2.77 45.55 4.16 68.33.07 1.13.4 2.24.6 3.32 20.88-.03 40.47-17.56 42.44-37.88 1.92-19.9-2.24-39.14-6.56-58.33-2.96-13.16-6.47-26.21-8.98-39.46-.99-5.21-.21-10.84.38-16.21.19-1.7 2.11-3.98 3.72-4.5 1.12-.36 3.75 1.5 4.5 2.97 2.15 4.25 4.81 8.69 5.27 13.26 2.91 28.73 8.1 57.03 14.08 85.24 1.2 5.65 1.43 11.58 1.47 17.39.1 15.86-6.75 28.21-19.77 37.18-8.93 6.15-18.89 9.76-29.42 12-1.77.38-3.52.81-6.05 1.39 1.93 12.61 3.82 25.01 5.85 38.24 6.38-1.52 11.97-2.94 17.6-4.17 6.01-1.31 12.01-2.87 18.1-3.47 3.55-.35 8.87-.58 9.43 4.21.54 4.69-4.67 5.9-8.16 6.47-9.19 1.5-18.51 2.2-27.78 3.24-2.16.24-4.28.61-7.31 1.05zM116.41 224.87c-11.28.16-22.39 1.02-33.39.27-13.02-.89-24.58-6.76-35.83-13.14-1.86-1.06-4.81-1.57-6.73-.88-4.41 1.6-7.11.25-9.05-3.54-2.13-4.16-4.38-6.69-10.13-6.32-8.6.55-12.87-8.01-8.53-15.93 1.51-2.76 2.73-4.96.63-8.12-1.98-2.99.07-5.23 2.54-7.1 29.41-22.23 59.72-43.07 92.91-59.37 12.1-5.95 24.45-11.4 36.6-17.25 4.12-1.99 7.07-1.87 9.61 2.49.83 1.42 3.3 2.57 5.06 2.63 10.61.36 15.88 8.53 11.78 18.22-.75 1.78-.73 4.46.08 6.19 1.66 3.58 1.36 6.19-1.55 8.92-1.07 1.01-1.83 3.2-1.57 4.66 4.7 26.67-2.82 49.38-21.83 68.46-.34.35-.6.79-.86 1.21-.07.12-.04.3-.05.46 7.1 5.62 6.98 5.59 4.54 14.95-.48 1.84-.22 4.36.7 6 14.28 25.41 28.67 50.75 43.24 76 1.1 1.91 3.98 2.71 5.57 4.44 9.78 10.68 20.43 4.9 30.62 1.35 5.68-1.98 11.11-3.64 16.97-1.92 1.7.5 4.03 1.89 4.34 3.26.3 1.3-1.31 3.65-2.72 4.62-25.63 17.7-51.33 35.3-77.1 52.8-1.47 1-4.08 1.84-5.33 1.19-1.24-.65-1.92-3.28-2-5.07-.26-5.83 2.72-10.28 6.19-14.8 5.14-6.69 9.69-13.86 14.08-21.08.9-1.49.6-4.38-.21-6.15-14.14-30.86-36.13-56.84-53.58-85.66-.8-1.32-2.75-2.21-4.35-2.75-7.94-2.67-9.13-.41-10.65-9.04zm-96.96-49.38c6.4 9.8 12.44 19.06 19.06 29.2 20.38-10.78 40.87-20.27 59.92-32.06 21.63-13.38 42-28.79 62.82-43.46 1.29-.91 2.83-3.61 2.37-4.5-4.49-8.67-9.39-17.14-14.34-25.98-45.73 21.9-88.81 46.93-129.83 76.8zm31.97 31.48c1.31.79 2.68 1.68 4.12 2.46 30.17 16.28 63.82 11.35 88.62-13.01 8.72-8.57 15.27-18.48 18.23-30.48 2.21-8.95 2-17.9.24-26.74-18.36 12.42-35.85 25.21-54.29 36.45-18.41 11.21-37.76 20.86-56.92 31.32zm120.4 152.51l.96.96c22.58-15.46 45.17-30.92 67.75-46.38-.19-.37-.38-.73-.58-1.1-1.82.64-3.73 1.11-5.46 1.93-7.82 3.73-16.08 5.35-24.67 5.11-3.08-.09-5.08.72-7.09 3.27-1.48 1.88-4.46 2.52-6.65 3.9-1.76 1.11-3.76 2.22-4.9 3.86-5.32 7.58-10.37 15.36-15.54 23.05-1.23 1.82-2.55 3.6-3.82 5.4zm-33.99-124.56c16.29 24.83 32.49 49.51 48.69 74.19.64-.19 1.29-.38 1.93-.58-.4-1.61-.46-3.41-1.24-4.81-13.17-23.34-26.44-46.63-39.7-69.93-.56-.98-1.29-1.85-1.96-2.8-2.54 1.31-4.88 2.49-7.72 3.93zm-6.02-6.65c8 .21 11.41-2.62 13.23-10.26.32-1.34.06-3.84-.72-4.22-1.84-.91-4.53-1.76-6.19-1.04-4.55 1.97-8.84 4.61-13.01 7.32-1.09.71-1.9 2.66-1.85 4.01.03 1.02 1.45 2.49 2.56 2.89 2.31.83 4.84 1.08 5.98 1.3zm68.83 89.64c-2.91-2.31-4.47-4.46-6.27-4.68-1.27-.16-2.87 2.28-4.33 3.55 1.32 1.38 2.48 3.61 4.01 3.9 1.53.3 3.44-1.34 6.59-2.77zM23.61 194.78c-1.78-2.75-3.13-4.84-4.74-7.35-2.54 5.85-1.64 7.29 4.74 7.35zm142.43-81.11c1.4-6.18.08-8.02-5.08-7.98 1.6 2.51 3.08 4.83 5.08 7.98zM1028.09 1653.13c1.69 6.54 3.66 12.26 4.53 18.14.87 5.84.85 11.86.71 17.79-.04 1.58-1.76 4.17-3.03 4.39-1.36.23-3.84-1.45-4.54-2.91-2.55-5.34-5.11-10.8-6.62-16.48-1.53-5.73-1.83-11.8-2.78-18.54-5.84 1.71-11.36 3.29-16.85 4.95-5.4 1.64-10.76 2.12-16.14-.08-5.57-2.28-6.35-5.73-1.3-8.86 3.82-2.37 8.4-4.04 12.84-4.73 6.5-1.01 13.17-.87 20.21-1.24-1.42-14.05-2.36-27.53-8.64-39.81-.67-1.3-3.47-2.26-5.22-2.16-43.2 2.47-89.19-47.83-70.14-97.14 8.72-22.58 24.94-35.71 49.44-37.67 7.97-.64 16-1.46 23.95-1.13 27.26 1.12 47.77 13.96 58.76 38.8 11.23 25.4 7.62 49.9-10.43 71.55-7.94 9.52-18.04 16.26-29.59 20.72-2.63 1.01-4.04 2.17-4.12 5.28-.25 9.78 3.05 29.45 7.03 39.1 5.66-1.58 11.3-3.68 17.13-4.64 5.31-.87 10.84-.73 16.25-.54 1.43.05 3.67 1.71 3.93 2.96.25 1.21-1.24 3.56-2.55 4.18-4.31 2.04-8.78 4.01-13.4 5.09-6.1 1.39-12.42 1.94-19.43 2.98zm-29.53-174.03c-12.46-.53-24.1 3.19-35.01 9.33-21.04 11.82-30.25 40.73-20.11 62.66 17.85 38.6 70.88 47.29 99.95 16.38 20.25-21.53 18.26-55.77-4.32-74.83-11.65-9.83-25.23-13.84-40.51-13.54zM193.58 872.99c-9.33-4.2-18.75-6.43-28.66-6.4-5.83.01-11.69.77-17.47.34-4.01-.3-8.16-1.54-11.78-3.31-3.78-1.85-3.63-5.42.29-7.09 3.56-1.52 7.83-3.06 11.45-2.48 18.87 3.05 37.65 6.69 56.42 10.31 4.76.92 7.39 4.35 8.06 9.1 2.89 20.61 5.81 41.21 8.51 61.84.77 5.85-2.11 11.36-5.43 11.69-3.32.34-7.04-4.46-7.43-10.47-.35-5.3-.06-10.65.03-15.98.22-12.54-.32-24.96-5.7-37.75l-57.11 47.77c11.46 17.75 10.38 36.64 8.96 55.18-2.37 30.98-25.03 52.2-56.51 54.3-32.64 2.18-59.65-19.92-64.98-54.22-1.41-9.03-1.34-18.76.35-27.73 5.09-26.95 26.12-44.27 55.53-47.03 15.62-1.47 30.53.71 44.37 8.73 1.41.82 4.57.3 5.98-.8 11.82-9.21 23.51-18.57 35.04-28.14 6.77-5.6 13.15-11.66 20.08-17.86zm-50.21 98.14c-.54-4.62-.84-9.28-1.66-13.85-2.1-11.67-7.23-21.32-18.32-27.02-18.83-9.7-47.2-6.96-63.1 7.05-15.43 13.58-22.98 30.95-18.63 51.41 4.21 19.82 19.03 30.24 37.47 35.62 21.39 6.24 46.14-3.52 55.89-21.58 5.3-9.82 8.17-20.35 8.35-31.63zM558.03 1559.82c-13.37-.32-31.35-4.94-48.94-11.48-4.44-1.65-4.37-4.58-3.3-8.43 9.55-34.15 19.55-68.2 28.1-102.6 2.18-8.75 6.36-11.23 13.86-12.9 14.58-3.25 29.04-3.22 43.62-.35 3.66.72 5.77 2.54 6.97 6.16 11.23 33.81 22.58 67.58 33.96 101.35 1.08 3.22 1.09 5.84-2.21 7.71-18.37 10.41-43.29 20.97-72.06 20.54zm55.29-65.11c-3.01 2.96-5.45 5.38-7.91 7.79-17.58 17.27-37.74 29.63-62.83 31.98-8.59.81-17.28.75-25.93.7-3.08-.02-3.82 1.62-4.02 3.84-.12 1.36.2 3.78.93 4.04 5.07 1.84 10.29 3.24 15.55 4.81.74-2.24.89-3.88 1.74-5 1.19-1.59 2.89-3.85 4.38-3.86 1.48-.01 3.28 2.21 4.38 3.82.88 1.3.8 3.21 1.41 4.75.38.97 1.14 2.4 1.9 2.51 4.83.69 9.71 1.07 14.48 1.55.6-3.96.75-7.01 1.63-9.84.46-1.47 2.31-3.63 3.36-3.53 1.55.14 3.47 1.73 4.26 3.22 1.13 2.15 1.23 4.82 2.1 7.15.37 1 1.62 2.45 2.39 2.41 3.64-.21 7.64-.12 10.7-1.71 1.41-.73.97-5.05 1.36-7.74.12-.82-.08-1.83.33-2.45 1-1.54 2.15-3.9 3.46-4.06 1.37-.16 3.53 1.57 4.38 3.03 1.54 2.63 2.37 5.68 3.53 8.66 1.91-.53 3.32-1.07 4.77-1.29 4.55-.67 6.12-2.99 4.98-7.57-.64-2.54-.87-5.36-.49-7.93.27-1.8 1.89-3.4 2.91-5.09 1.57 1.21 3.76 2.1 4.6 3.7 1.71 3.29 2.7 6.96 4.12 10.84 3.08-1.49 5.73-2.53 8.08-4.03.98-.62 2.15-2.47 1.88-3.33-3.95-12.27-8.12-24.5-12.43-37.37zM561 1521.25c10.08-2.45 10.17-2.56 9.86-12.12-.02-.67-.26-1.45.01-1.98.89-1.77 1.95-3.44 2.95-5.15 1.68 1.1 3.67 1.93 4.94 3.38 1.35 1.54 2.02 3.67 2.97 5.52 9.91-4.68 10.18-5.17 8.49-15.14-.14-.82-.48-1.76-.22-2.46.59-1.58 1.16-3.85 2.36-4.34 1.22-.5 3.5.39 4.73 1.4 1.83 1.51 3.15 3.64 5.85 6.94 2.31-3 4.36-5.43 6.11-8.06.72-1.09 1.36-2.8 1.02-3.91-2.23-7.28-4.73-14.46-7.21-21.86-.84.52-1.37.68-1.65 1.04-19.91 25.04-45.06 40.54-77.56 42.83-1 .07-2.47 1.22-2.76 2.16-1.9 6.15-3.53 12.39-5.54 19.64 5.1-.45 9.54-.18 13.4-1.55 1.33-.47 1.21-5.04 1.75-7.74.07-.33.03-.75.22-.96 1.23-1.35 2.33-3.3 3.84-3.71.86-.23 2.93 1.86 3.54 3.29 1.07 2.53 1.43 5.35 2.07 7.97 9.74-.52 9.74-.52 10.6-9.15.02-.17-.03-.37.05-.49 1.29-2.04 2.59-4.08 3.89-6.11 1.6 1.84 3.41 3.54 4.73 5.57.86 1.3 1 3.08 1.56 4.99zm-2.71-31.39c4.14-.71 6.4-2.58 6.22-6.97-.09-2.29.13-4.76.94-6.88.62-1.63 2.22-3.77 3.63-3.97 1.38-.2 3.29 1.57 4.54 2.87 1.03 1.07 1.45 2.73 2.1 4.04 5.14-2.16 6.6-5.49 5.9-10.5-.44-3.19-1.52-7.91 2.96-8.84 1.79-.37 4.4 3.23 7.14 5.43 1.4-1.51 3.63-3.69 5.57-6.11 1.08-1.34 2.63-3.32 2.31-4.58-1.36-5.37-3.35-10.58-5.61-17.34-1.09 1.88-1.36 2.5-1.77 3.03-15.57 20.2-35.81 32.97-60.76 38.31-.94.2-2.21 1.08-2.45 1.91-1.99 6.61-3.77 13.28-5.62 19.94.6.37 1.19.73 1.79 1.1 1.17-1.48 2.68-2.81 3.42-4.48.93-2.1.85-4.68 1.92-6.67.82-1.51 2.82-3.42 4.17-3.32 1.38.09 3.02 2.2 3.82 3.79.92 1.83 1.04 4.06 1.51 6.08 6.49-1 6.46-1 7.23-6.82.24-1.81.35-3.76 1.15-5.33.67-1.31 2.18-2.91 3.44-3.01 1.25-.11 3.06 1.19 3.89 2.38 1.17 1.71 1.71 3.88 2.56 5.94zm33.81-59.76c-8.13-.78-14.66-1.55-21.22-1.91-1.32-.07-3.13 1.12-4.02 2.26-7.25 9.32-16.59 15.78-27.29 20.49-1.15.51-2.73 1.29-3.04 2.28-1.83 5.8-3.35 11.71-4.97 17.58.48.32.97.63 1.45.95 1.04-1.28 2.47-2.4 3.03-3.86.94-2.47.94-5.33 2.08-7.67.81-1.67 2.68-3.47 4.37-3.82.94-.19 2.72 2.3 3.66 3.87.79 1.32.92 3.04 1.37 4.71 4.35-.97 6.71-2.86 6.44-7.53-.17-2.93.34-6.03 1.22-8.84.44-1.41 2.27-3.03 3.7-3.29 1.13-.21 3.02 1.24 3.84 2.44 1.34 1.96 2.08 4.32 3.05 6.48 5.64-1.8 3.18-6.19 3.78-9.44.6-3.29-.66-8.1 3.78-8.67 2.35-.31 5.16 2.88 8.55 4.97 2.45-2.64 5.75-6.19 10.22-11zm-52.35 14.16c6.86-5.19 12.64-9.57 18.43-13.94-14.67-.29-17.21 1.62-18.43 13.94zM797.51 2152.99c2.96-16.1 5.92-32.21 9.03-49.15-4.73-.65-8.76-1.33-12.82-1.73-13.26-1.3-26.55-2.42-39.8-3.8-2.76-.29-5.68-.94-8.06-2.26-1.76-.98-3.92-3.41-3.79-5.01.13-1.51 2.92-3.74 4.74-3.96 3.87-.47 7.97-.34 11.8.42 14.05 2.78 28.03 5.93 42.04 8.9 1.93.41 3.89.61 6.64 1.03 1.35-8.42 2.64-16.52 4.09-25.54-7.46-.64-14.35-1.29-21.26-1.81-4.98-.37-10.01-.28-14.94-.93-3.15-.42-7.65-.91-7.37-5.16.31-4.59 5.03-4.4 8.32-4.3 4.63.13 9.26.99 13.84 1.82 7.16 1.29 14.27 2.82 22.03 4.37.72-8.04 1.21-15.49 2.13-22.88.54-4.41 1.45-8.84 2.84-13.05.45-1.35 2.99-2.77 4.54-2.74 1.08.03 2.77 2.37 3.01 3.86.41 2.55.21 5.31-.28 7.88-1.73 9.11-3.7 18.18-5.67 27.72 10.02 1.47 19.41 2.62 28.7 4.33 4.35.8 8.59 2.51 12.69 4.25 1.12.48 2.33 2.78 2.06 3.89-.27 1.1-2.39 2.54-3.63 2.48-3.96-.2-7.94-.79-11.81-1.68-9.52-2.19-18.98-4.63-28.98-7.09-1.41 8.86-2.68 16.86-4.07 25.54 3.77.54 7.13 1.16 10.52 1.49 13.6 1.31 27.22 2.39 40.8 3.9 3.19.35 6.5 1.61 9.26 3.26 3.56 2.13 3.05 5.95-.95 6.89-3.45.81-7.3.99-10.78.36-14.92-2.66-29.77-5.73-44.64-8.63-1.59-.31-3.21-.49-5.72-.87-1.8 14.75-3.55 29.02-5.32 43.5 10.15-2.11 19.15-4.79 28.32-5.64 9.19-.85 18.68-.79 27.8.53 11.09 1.6 20.15 7.74 26.57 17.14 7.58 11.1 6.41 23.64-2.9 33.33-13.15 13.69-35.88 17.25-51.84 6.42-10.07-6.84-18.65-15.96-27.48-24.5-2.83-2.74-4.63-3.47-8.4-1.82-16.25 7.12-33.1 12.41-50.9 13.74-16.81 1.26-30.04-5.21-38.51-19.95-8.05-14-4.39-29.24 9.11-38.09 12.83-8.41 26.63-10.03 40.98-4.03 12.05 5.04 21.94 13.19 31.05 22.33 1.84 1.84 3.07 4.29 4.59 6.45.8-.39 1.61-.8 2.42-1.21zm-7.14 4.27c-5.59-7.81-19.37-19.35-29.14-24.05-4.15-2-8.63-3.61-13.13-4.53-10.85-2.19-22 3.52-28.13 13.86-5.38 9.07-4.5 19.44 2.4 28.44 7.25 9.45 16.82 12.53 28.34 8.9 3.31-1.04 6.66-2.3 9.62-4.08 9.98-5.96 19.8-12.19 30.04-18.54zm18.59 11.29c9.32 10.23 17.65 19.72 28.61 26.36 13.99 8.48 30.8 5.66 41.52-6.79 6.99-8.12 7.4-16.76 1.2-25.58-9.07-12.92-23.77-17.95-38.23-11.65-11.08 4.82-21.42 11.34-33.1 17.66zM312.62 1174.49c3.13-10.93.67-21-.17-31.03-1.69-20.09-3.92-40.12-5.61-60.21-.31-3.68.94-7.48 1.38-11.23.27-2.26.58-4.56.48-6.82-.28-6.78-.92-13.56-1.06-20.34-.05-2.39-.11-4.06-2.69-5.1-1.61-.65-3.12-1.99-4.24-3.37-5.04-6.21-12.33-7.69-19.07-3.15-3.84 2.58-7.09 6.03-10.74 8.93-6.2 4.92-12.51 9.7-19.4 15.02.11.34.55 1.91 1.08 3.45 5.43 15.57 10.9 31.12 16.33 46.7 3.98 11.43.07 22.28-9.82 27.38-10.26 5.3-23.96 2.1-30.3-7.45-4.17-6.28-6.1-12.85-3.27-20.73 5.39-15.04 9.94-30.39 14.84-45.61.55-1.71 1.08-3.42 1.67-5.26-1.3-.81-2.3-1.38-3.23-2.04-3.3-2.31-5.08-5.37-3.91-9.44 1.26-4.4 4.38-7.1 8.83-7.86 4.15-.71 7.14 1.59 8.98 4.98.66 1.22-.09 3.21-.19 4.85-1.47-.33-3.01-.47-4.37-1.05-1.3-.56-2.54-2.37-3.55-2.19-1.31.23-2.36 1.89-3.53 2.93 1.05 1.02 1.97 2.7 3.18 2.94 4.55.92 9.03.25 12.61-2.93 4.21-3.74 8.69-7.37 12.13-11.77 7.83-10.04 16.92-14.96 29.34-9.33 8.26-9.58 10.43-10.05 21.29-4.44 7.73-16.28 21.12-17.08 36.37-12.95 3.66.99 7.56 1.18 11.37 1.53 2.61.24 5.15.58 6.26-3.15.36-1.2 3.34-1.63 6.06-2.82-.57-.74-1.32-2.63-2.42-2.86-1.21-.26-2.81.89-4.11 1.64-.46.27-.39 1.4-.86 1.73-1.21.86-2.58 1.5-3.88 2.23-.6-1.39-1.81-2.83-1.69-4.16.51-5.48 5.71-9.07 11.17-8.05 5.75 1.07 9.05 5.77 7.9 11.28-.1.49-.14 1.1-.45 1.41-5.74 5.84-1.92 11.68.05 17.43 4.44 12.92 9.03 25.78 13.52 38.68 3.99 11.45.1 22.28-9.77 27.4-10.08 5.23-23.57 2.28-30.01-6.99-4.4-6.34-6.56-13.04-3.6-21.12 4.85-13.29 8.84-26.89 13.17-40.37.55-1.7.97-3.45 1.67-5.97-9.77-.67-19.01-1.93-28.22-1.75-9.76.19-17.71 8.35-19.8 17.81-.63 2.86-2.48 6.01-4.74 7.78-2.5 1.96-2.87 3.72-2.21 6.33.2.81.47 1.65.43 2.46-.96 18.57 5.13 36.53 4.28 55.21-.85 18.61.11 37.31.34 55.97.03 2.65.32 5.32.7 7.95.6 4.15 1.47 7.82 7.37 6.59 1.47-.31 4.14 1.52 5.1 3.08 3.59 5.83 8.54 8.89 15.27 10.08 3.27.58 6.48 2.53 9.24 4.52 1.47 1.06 1.92 3.52 2.83 5.35-1.81.87-3.58 2.39-5.43 2.5-19.46 1.11-38.94 2-58.41 2.95-4.16.2-8.32.63-12.48.55-1.6-.03-4.28-.92-4.52-1.91-.37-1.5.41-4.12 1.63-5.04 3.27-2.45 6.84-4.8 10.65-6.14 4.44-1.56 8.14-3.92 9.38-8.22 1.64-5.7 4.87-7.94 10.85-6.79zm64.43-155.73l-1.03.09c-5.03 15.6-10.06 31.2-15.14 46.95h32.61c-5.66-16.22-11.05-31.63-16.44-47.04zm-146.14 91.95h32.57c-5.67-16.19-11.04-31.53-16.41-46.88-.37.06-.73.11-1.1.17-4.99 15.48-9.98 30.96-15.06 46.71zm114.6 82.76c.13-.4.25-.8.38-1.2-7.48-.81-12.46-5.07-16.55-10.78-1.81-2.53-18.78-1.88-20.76.56-.1.13-.19.28-.26.43-2.53 5.83-6.49 10.32-12.31 13.39 16.51-.81 33.01-1.61 49.5-2.4zm16.29-120.78c1.67 8.74 9.76 14.24 18.66 13.24 7.77-.87 13.1-6.37 13.04-13.24h-31.7zm-130.25 44.95c2.62 9.35 10.51 14.43 19.27 13.26 7.52-1.01 12.53-6.23 12.79-13.26h-32.06zm81.06-82.4c.98-1.52 3.05-3.45 3.47-5.69.58-3.13-3.27-6.8-6.16-6.49-3.64.39-4.99 2.96-5.06 6.27-.09 4.12 2.71 5.28 7.75 5.91zM888.72 1911.52c-4.51-13.18-8.59-26.53-13.65-39.51-4.78-12.26-14.08-19.46-27.41-21.23-5.61-.74-11.17-1.87-16.7-3.09-8.18-1.8-13.18-6.88-14.45-15.24-.95-6.25-1.47-12.57-2.47-18.82-1.03-6.4-3.75-8.48-10.24-8.41-16.75.17-29.25 17.03-24.58 33.12 1.34 4.6 4.14 7.58 9.08 8.02 3.81.33 7.65.45 11.46.73 12.47.92 20.5 9.03 21.43 21.49.69 9.25-1.47 17.98-5.61 26.08-4.08 7.99-8.69 15.74-13.47 23.35-5.44 8.65-10.55 17.38-12.66 27.53-.2.97-.34 2.13-.95 2.81-1.2 1.34-2.71 2.41-4.09 3.59-.99-1.55-2.95-3.2-2.8-4.63.52-4.72.93-9.79 2.99-13.93 3.24-6.51 8.01-12.23 11.7-18.54 4.94-8.45 10.03-16.88 13.99-25.8 3.89-8.75 3.7-18.15.9-27.43-1.41-4.67-4.23-7.49-9.14-7.92-3.81-.34-7.64-.5-11.46-.76-11.11-.75-16.58-5.82-18.23-16.85-2.92-19.62 14.15-39.36 34.02-39.37 9.77 0 15.79 5.27 16.48 15 .38 5.3-.09 10.65-.08 15.98.01 9.58 2.17 12.21 11.52 13.55 5.11.73 10.26 1.13 15.41 1.58 13.47 1.19 24.05 7.47 30.12 19.45 4.86 9.59 8.47 19.86 12.06 30.04 3.21 9.1 5.28 18.6 8.51 27.68 2.99 8.4 6.93 9.43 13.71 3.57 3.82-3.3 7.16-7.48 9.73-11.84 4.51-7.63 3.94-15.49-1.92-22.29-4-4.64-8.45-8.98-13.13-12.95-7.5-6.35-15.61-11.98-22.97-18.49-5.71-5.05-11.29-10.48-15.79-16.58-10.2-13.85-9.08-29.06 2.21-42.12 10.65-12.32 28.61-16.08 42.75-8.95 13.39 6.75 18.78 23.46 11.89 36.84-4.16 8.08-12.57 11.3-21.2 8.11-7.4-2.73-10.76-9.45-8.05-16.86.54-1.48 2.58-2.41 3.92-3.59.68 1.63 2.28 3.54 1.88 4.84-2.46 7.99 4.39 11.1 10.34 10.37 3.97-.49 6.27-2.88 7.23-6.62 1.69-6.59-.14-12.57-3.58-18.11-5.42-8.73-17.21-12.7-28.3-9.71-9.95 2.68-15.43 9.86-16.01 20.98-.45 8.71 1.93 16.7 7.71 23.13 6.21 6.92 13.01 13.33 19.77 19.73 7.13 6.76 14.97 12.82 21.69 19.94 15.39 16.31 13.28 38.43-4.46 52.31-10.89 8.52-22.47 6.81-29.91-4.8-3.4-5.31-5.87-11.2-9.02-16.69-3.47-6.06-6.86-12.21-10.93-17.85-4.58-6.34-11.25-9.78-19.03-10.86-6.6-.92-10.92 1.57-13.56 7.66-4.05 9.33-2.07 21.67 5.38 28.74 4.06 3.85 9 6.8 13.67 9.96 2.89 1.95 6.18 3.33 9.01 5.35 4.7 3.37 4.24 8.51-1.31 9.53-12.9 2.38-25.98 3.8-39.02 5.34-.99.12-2.22-1.81-3.34-2.79 1.28-1.06 2.47-2.85 3.87-3.05 7.09-.99 14.25-1.48 21.36-2.31 4.1-.48 8.17-1.3 13.74-2.2-5-2.97-8.79-5.2-12.55-7.48-10.31-6.25-17.89-14.81-19.58-26.98-.84-6.08-.58-12.77 1.1-18.63 3.07-10.72 12.69-15.23 23.36-11.86 11.51 3.64 19.7 11.63 26.07 21.51 3.68 5.71 6.71 11.83 10.03 17.77.57-.16 1.07-.35 1.56-.54zM573.99 254.12c1.07 24.26 2.12 47.96 3.2 72.43 7.32-.81 13.71-1.84 20.14-2.13 4.56-.21 9.37-.15 13.68 1.12 4.82 1.41 5.11 6.13.62 8.38-3.3 1.65-7.22 2.57-10.93 2.8-6.95.43-13.94.12-21.56.12.16 2.59.43 4.66.39 6.72-.2 9.26-.23 18.54-.86 27.78-.26 3.73-2.19 7.28-6.81 7.29-4.59.01-6.41-3.45-6.96-7.21-1.02-7.04-1.65-14.14-2.17-21.24-.3-4.1-.05-8.25-.05-13.19-6.27.47-12.5 1.13-18.75 1.34-3.27.11-6.68-.15-9.81-1.01-1.55-.43-3.49-2.51-3.67-4.02-.17-1.52 1.28-4.18 2.65-4.72 3.63-1.43 7.56-2.49 11.44-2.76 6.25-.44 12.56-.12 19.48-.12v-71.14c-6.55-.85-12.79-1.47-18.96-2.49-14.27-2.36-27.78-6.9-40.04-14.75-19.78-12.66-30.05-31.3-32.58-54.12-.75-6.73 1.2-13.83 2.41-20.67.29-1.64 2.61-2.93 4-4.37 1.51 1.5 3.84 2.75 4.4 4.55 2.07 6.67 4.19 13.42 5.16 20.31 4.54 32.17 24.46 49.93 54.29 58.17 20.45 5.65 40.64 3.65 60.2-4.35 22.13-9.05 34.29-25.33 36.08-49.47.89-11.94 2.76-23.82 4.47-35.68.26-1.8 2.01-3.4 3.07-5.08 1.38 1.45 3.41 2.65 4.05 4.37 5.46 14.84 7.27 29.94 3.52 45.61-5.09 21.29-17.16 36.82-36.74 46.59-13.48 6.71-27.88 9.79-43.36 10.94zM947.94 1202.98c3.09-16.95 5.53-33.25 9.15-49.28 3.61-16.01 2.99-13.56 17.04-11.44 3.57.54 4.94-.61 5.36-3.79.73-5.47 4.04-6.76 9.18-6.56 22.16.86 39.62 11.46 55.01 26.27 1.56 1.5 2.36 4.44 2.43 6.75.7 21.63 1.82 43.27 1.54 64.89-.4 30.95-1.84 61.89-2.91 92.83-.27 7.93-.7 8.51-8.15 10.04-22.41 4.58-44.93 8.08-67.91 5.37-3.79-.45-7.57-1.22-11.25-2.22-14-3.78-22.15-12.4-23.68-27.36-.96-9.4-3.24-18.68-5.02-27.99-1.64-8.58-1.05-16.9 2.45-24.95 2.23-5.13 3.14-10.3 2.36-16.04-.37-2.69 1.05-6.28 2.87-8.45 2.49-2.98 3.07-5.69 1.87-9.12-1.16-3.3-2.38-6.58-3.35-9.93-2.04-7.05 1.11-10.69 8.35-9.78 1.74.22 3.49.57 4.66.76zm57.76-62.22c-.29 2.26-.54 3.52-.59 4.79-1.13 27.64-2.23 55.28-3.36 82.91-.08 1.99-.08 4.06-.65 5.92-.3.99-1.78 2.24-2.71 2.23-.95-.02-2.45-1.31-2.68-2.28-.46-1.89-.3-3.96-.22-5.94 1.13-27.97 2.31-55.94 3.42-83.91.06-1.59-.05-4.46-.62-4.6-3.5-.87-7.17-1.55-10.73-1.34-1.02.06-2.34 3.2-2.7 5.09-5.48 28.85-4.18 58.09-4.74 87.22-.03 1.35 1.37 2.73 2.27 4.4h-17.66c.58 8.02.02 15.9 1.98 23.1 1.92 7.04 6.41 13.37 10.1 20.67-3.5-2.62-6.3-5-9.37-6.93-4.46-2.8-6.97-6.61-7.08-11.86-.25-11.13-.76-22.26-.54-33.39.21-10.73-8.52-19.33-19.17-17.61 1.21 3.66 2.45 7.24 3.57 10.87 1.68 5.41 1.68 10.44-2.92 14.73-1.03.96-1.81 3.04-1.56 4.39 1.3 6.91-.42 13.23-3.06 19.45-2.69 6.33-3.23 12.85-2 19.59 1.95 10.65 4.08 21.27 5.66 31.97 1.43 9.7 6.67 16.34 15.87 18.46 9.65 2.22 19.68 2.77 29.54 4.12 4.13.56 5.33-1.41 4.92-5.16-1.14-10.42-2.22-20.85-3.29-30.93 2.1 5.83 4.36 12.14 6.85 19.05 1.51-4.32 2.75-7.87 3.72-10.63v27.73c13.22-2.26 25.82-4.32 38.34-6.73.98-.19 2.04-2.76 2.13-4.29.59-9.65 1.01-19.3 1.31-28.96.18-5.94.03-11.9.03-18.87-7 1.65-13.73 3.23-21.38 5.02 3.07-1.84 5.29-3.28 7.61-4.55 4.84-2.66 11.76-4.09 14.06-8.15 2.54-4.48.68-11.36 1.08-17.18.24-3.46-.66-5.07-4.36-5.6-6.87-.99-13.66-2.53-20.14-3.78.58-1.4 1.4-2.5 1.44-3.64 1.1-28.31 2.14-56.61 3.08-84.93.04-1.25-.7-3.16-1.67-3.7-4.29-2.36-8.8-4.35-13.78-6.75zm21.78 11.98c-1.1 29.21-2.15 57.4-3.22 85.87h16.75c.15-1.65.38-2.96.36-4.26-.33-21.15-1.13-42.32-.84-63.46.13-9.6-6.19-12.99-13.05-18.15zm-51.25-3.79c-1.37-.24-3.22-.36-4.93-.92-4.72-1.56-7 .02-7.76 4.95-2.53 16.43-5.4 32.82-7.77 49.27-.28 1.93 1.14 4.77 2.69 6.16 4.76 4.26 7.56 9.16 7.56 15.65-.01 5.74 1.12 6.61 7.27 6.37.97-26.94 1.94-53.86 2.94-81.48zM789.63 1152.04c-15.02-1.78-30.07-3.38-45.04-5.53-2.67-.38-6.27-2.52-7.31-4.81-8.17-18.03-13.9-36.75-13.57-56.84.15-8.92 1.25-17.55 6.97-25.05 1.16-1.52 1.06-4.42.74-6.57-2.47-16.45-2.92-32.78 1.45-49.06 1.37-5.12 4.21-7.69 9.28-8.16 8.02-.74 15.91-1.24 22.89 4.24 1.32 1.04 3.79.7 5.75.81 24.25 1.3 48.5 2.61 72.75 3.82 5.95.3 9.12 3.24 11.09 8.87 5.98 17.03 8.6 34.16 3.91 51.97-.57 2.16-.48 4.67-.03 6.88 4.14 20.38 3.28 40.73.04 61.1-.88 5.52-3.68 8.81-9.42 10.05-19.59 4.24-39.29 7.27-59.5 8.28zm-26.36-63.34l.12-1.4c4.43 0 8.89.29 13.3-.07 7.27-.59 14.64-.97 21.71-2.6 8.06-1.85 13.15-7.55 15.16-15.69 1.51-6.13-.25-8.43-6.5-7.26-13.42 2.51-26.37.67-39.57-1.97-7.26-1.45-15.15-.59-22.64.29-2.68.32-6.46 3.34-7.2 5.87-2.5 8.54-5 17.36-5.41 26.17-.74 15.68 3.69 30.65 9.76 45.04.64 1.51 2.64 3.17 4.24 3.45 20.23 3.56 40.58 5.65 61.14 3.42 10.06-1.09 12.64-4.69 9.72-14.32-1.59-5.23-4-10.22-6.48-16.4 7.8 8.72 14.98 16.42 13.32 29.08 8.35-1.65 16.1-3.26 23.88-4.69 2.85-.52 4.39-1.77 4.55-4.83.72-14.27 1.85-28.53 2.18-42.8.13-5.66-1.44-11.37-2.18-16.65-11.52.95-22.11 1.75-32.68 2.78-1.19.12-2.63 1.33-3.3 2.44-3.96 6.48-9.81 10.3-16.89 12.45-2.65.81-5.36 1.43-8.45 2.24 2.72 2.85 5.13 5.37 8.06 8.44-12.56-4.56-24.2-8.77-35.84-12.99zm28.7-80.47c5.64 15.76 6.42 31.59 4.66 48.11 3.21-.31 5.65-.47 8.07-.78 11.87-1.51 15.01 1.11 15.55 13.02.01.28.32.55.53.88 2.71.58 4.88.62 4.98-3.22.51-18.83-1.62-37.23-9.01-54.72-.61-1.44-2.78-3.06-4.31-3.14-6.44-.35-12.92-.15-20.47-.15zm39.92 61.17c6-.94 11.2-1.84 16.43-2.52 2.8-.37 3.92-1.8 4.21-4.54 1.66-15.81.01-31.19-5.74-46.06-.44-1.14-1.39-2.71-2.34-2.91-6.87-1.44-13.8-2.57-21.7-3.98 7.89 19.75 9.86 39.14 9.14 60.01zm-40.58-27.54c.36-.08.73-.16 1.09-.23-1.85-9.77-3.73-19.53-5.55-29.31-.61-3.26-2.33-4.31-5.64-3.75-4.26.71-8.6 1.08-12.91 1.38-2.57.17-3.41 1.27-3.29 3.79.56 11.98.91 23.98 1.6 35.95.08 1.31 1.64 3.32 2.88 3.65 5.3 1.41 10.74 2.28 16.12 3.42 3.3.7 5.06-.31 5.12-3.92.07-3.66.38-7.32.58-10.98zm-31.06 9.23c-.53-13.9-1-27.84-1.61-41.79-.28-6.39-.88-6.86-7.41-6.92-1.32-.01-2.65.22-3.97.29-4.09.22-6.22 2.05-6.49 6.46-.72 12.27-1.84 24.51-2.64 36.77-.19 2.89.21 5.83.33 8.49 7.37-1.11 14.18-2.14 21.79-3.3zM839.72 1592.84c-3.02 13.99-5.85 28.02-9.17 41.93-.9 3.77-.16 5.99 2.51 8.71 9.31 9.52 18.37 19.29 27.25 29.21 1.56 1.74 2.99 5.12 2.3 6.9-.68 1.73-4.08 3.18-6.39 3.37-12.61 1-25.24 1.73-37.88 2.2-3.37.12-4.88 1.3-6.27 4.27-7.49 15.97-15.11 31.89-23.06 47.63-1.23 2.43-4.55 5.48-6.67 5.31-2.16-.17-4.94-3.63-5.88-6.22-5.81-16.12-11.32-32.36-16.59-48.66-1.15-3.57-2.73-4.91-6.46-5.32a813.372 813.372 0 01-38.08-5.17c-2.23-.36-5.35-2.36-5.88-4.21-.52-1.85 1.1-5.21 2.83-6.65 10.62-8.83 21.41-17.48 32.43-25.8 3.14-2.37 3.89-4.5 3.37-8.3-1.95-14.17-3.73-28.38-5.03-42.63-.75-8.15 3.39-10.64 10.3-6.35 10.6 6.58 21.21 13.23 31.2 20.68 5.28 3.94 8.94 4.54 14.8.94 10.32-6.35 21.34-11.61 32.22-17 4.99-2.5 7.8-.37 8.15 5.16zm-49.83 86.18c.01-.15.02-.29.02-.44 5.33 0 10.67-.1 15.99.04 3.1.08 4.94-1.02 5.89-4.08 2.97-9.53 6.28-18.97 9.04-28.56.5-1.75-.26-4.77-1.57-5.99-7.81-7.24-16.01-14.07-23.96-21.16-2.58-2.31-4.81-2.2-7.54-.32-9.47 6.49-19 12.92-28.6 19.23-2.92 1.92-3.88 4.17-3.02 7.56 2.33 9.2 4.59 18.42 6.69 27.67.67 2.97 2.23 4.06 5.15 4.24 7.32.47 14.61 1.19 21.91 1.81zm-24.27 4.48c5.84 15.33 11.38 29.86 16.92 44.4.65-.01 1.3-.01 1.95-.02 7.6-13.86 15.19-27.72 23.17-42.28-14.65-.73-27.71-1.38-42.04-2.1zm-11.98-90.04c-.46.3-.92.61-1.39.91.6 12.64 1.21 25.28 1.86 38.85 11.12-7.37 21.05-13.96 31.93-21.18-11.25-6.45-21.82-12.52-32.4-18.58zm77.43 2.76c-11.9 5.93-22.43 11.18-33.42 16.66 9.12 7.45 17.42 14.23 26.46 21.61 2.32-12.79 4.51-24.79 6.96-38.27zm-3.67 51.44c-3.6 10.62-6.84 20.21-10.36 30.59 11.76-1.03 22.64-1.98 35.01-3.06-8.81-9.84-16.48-18.4-24.65-27.53zm-104.71 21.36c11.92 2.34 22.38 4.39 33.59 6.59-2.22-10.57-4.21-20.06-6.41-30.6-9.17 8.09-17.66 15.6-27.18 24.01zM739.42 874.42c-.66 0-1.82-.01-2.99 0-8.98.06-12.88-2.91-14.34-11.86-2.19-13.46-4.22-26.96-5.96-40.49-2.98-23.12-5.69-46.27-8.49-69.4-1.1-9.09 2.17-13.76 11.29-14.68 15.57-1.58 31.19-2.57 46.78-3.95 7.46-.66 14.88-1.72 22.34-2.43 7.79-.74 11.32 1.76 12.71 9.33 6.29 34.22 12.48 68.45 18.64 102.69.47 2.61.66 5.3.63 7.95-.07 7.93-3.58 12.07-11.39 13.25-19.42 2.94-38.85 5.79-58.29 8.6-3.43.5-6.94.64-10.93.99zm63.66-81.17c-11.82 2.19-22.38 5.58-31.79 11.85-1.34.89-2.47 3.64-2.16 5.24 3.1 16.31 6.47 32.56 9.96 48.79.24 1.12 2.13 2.82 3.08 2.71 8.09-.95 16.17-2.1 24.19-3.51 4.28-.75 6.15-3.72 5.54-8.05-.88-6.26-2.3-12.49-2.66-18.78-.32-5.63-2.83-7.08-7.9-6.37-6.76.95-13.55 1.65-20.33 2.45-.1-.34-.19-.68-.29-1.03 8.69-2.5 17.37-5 26.41-7.6-1.31-8.38-2.63-16.71-4.05-25.7zm-84.52-.26c2.16 15.99 4.08 30.66 6.24 45.29.18 1.24 2.34 3.35 3.04 3.15 4.54-1.29 10.59-1.8 13.07-4.98 10.67-13.68 25.46-26.24 18.07-47-.05-.15-.06-.33-.06-.49.05-3.25-1.43-4.34-4.67-3.81-10.82 1.78-21.68 3.32-32.48 5.2-1.35.24-2.45 1.98-3.21 2.64zm81.31-20.06c-1.83-10.86-3.52-20.85-5.21-30.84-.47-2.79-1.76-4.7-4.96-4.31-9.53 1.16-19.06 2.34-29.32 3.61 1.05 12.34 2.05 24.16 3.11 36.58 12.47-1.73 24.09-3.34 36.38-5.04zm-37.56 40.8l-1.71-.45c-2.39 4.67-5.33 9.15-7.07 14.05-4.46 12.59-12.51 20.17-26.27 20.81-.27.01-.52.37-.99.72.65 9.53 8.94 4.06 13.66 6.86-4.14 1.2-7.87 2.28-13.3 3.86 2.63 2.68 4.52 6.25 6.36 6.22 12.22-.16 24.44-1.09 37.13-1.79-2.73-17.55-5.27-33.92-7.81-50.28zm-45.08-32.66c13.68-.75 26.69-1.46 40.4-2.22-2.05-12.62-3.92-24.2-5.93-36.59-11.34 1.58-22.19 2.93-32.96 4.68-3.16.51-5.23 2.72-4.76 6.49 1.1 8.9 2.1 17.81 3.25 27.64zm50.13 20.24c11.17-4.64 21.72-8.94 32.16-13.48 1.05-.46 2.04-2.34 2.02-3.54-.02-.94-1.69-2.7-2.54-2.65-11.23.66-22.44 1.58-34.39 2.49 1.02 6.4 1.94 12.18 2.75 17.18zM392.19 1649.31c9.02 12.75 9.12 28.24 13.04 42.56.87 3.2-.97 5.47-3.96 6.64-19.23 7.52-38.96 11.7-59.65 8.16-15.39-2.63-27.69-11.07-38.53-21.81-1.07-1.06-.89-3.39-1.29-5.13 1.75.29 3.5.58 5.25.89.14.02.24.22.36.34 20.52 21.13 45.04 24.77 72.25 16.46 4.62-1.41 9.18-3 13.75-4.55.93-.31 1.79-.82 3.45-1.59-2.71-11.23-5.13-22.58-8.29-33.71-1.41-4.98-6-7.35-10.94-8.54-1.93-.47-3.89-.83-6.31-1.34 5.46-2.01 10.45-3.88 15.48-5.67 3.42-1.21 4.25-3.25 2.57-6.51-5.56-10.77-9.98-22.31-16.79-32.22-16.51-24.03-40.95-31.2-68.78-28.78-18.53 1.62-34.58 9.1-48 22.23-27.17 26.59-20.2 77.82 14.86 93.26 7.92 3.49 15.74 7.27 23.4 11.31 17.8 9.39 26.39 26.83 23.11 46.74-.23 1.38-1.98 2.5-3.03 3.75-.9-1.37-2.41-2.66-2.61-4.12-.97-7.06-1.05-14.28-2.46-21.24-1.79-8.79-7.49-14.74-16.04-17.66-5.04-1.72-10.14-3.27-15.28-4.7-29.6-8.21-45.71-28.65-46.78-59.48-1.43-41.24 27.43-73.9 69.49-78.65 39.59-4.47 68.78 10.48 87.94 45.4 3.83 6.98 6.96 14.4 9.87 21.83 4.14 10.65 3.77 11.16-6.08 16.13zM757.04 381.52c-1.89 5.99-3.55 11.35-5.28 16.69-.46 1.42-.84 3.06-1.8 4.08-1.35 1.43-3.21 2.38-4.86 3.53-1.11-1.67-3.18-3.34-3.18-5.02-.05-10.15.07-20.32.73-30.45.39-5.99-.1-10.94-4.16-16.1-3.9-4.96-5.91-11.45-8.49-17.39-3-6.92-5.11-8.44-12.67-7.39-4.6.64-9.15 1.74-13.69 2.8-6.59 1.53-10.82-1.94-8.53-8.24 2.21-6.09 6.42-11.46 9.79-17.12.48-.8 1.19-1.46 2.5-3.04-5.56.7-10.07 1.49-14.61 1.79-4.4.29-9.58 1.36-12.03-3.66-2.28-4.66 1.46-8.11 3.9-11.61.47-.68.95-1.59 1.63-1.85 1.77-.68 3.65-1.06 5.49-1.56-.3 1.75-.22 3.71-1 5.22-1.19 2.27-2.99 4.22-4.12 7.14 24.02-1.49 47-6.67 69.37-14.63.07-.63.14-1.25.2-1.88-2.27-1.53-4.73-2.84-6.73-4.66-1.12-1.02-1.47-2.87-2.16-4.35 1.61-.26 3.22-.62 4.85-.72.57-.04 1.2.52 1.76.88 3.74 2.43 8.45 4.41 8.18 9.79-.28 5.53-5.32 6.73-9.4 8.45-3.15 1.33-6.46 2.3-11 3.89 4.24 1.13 7.22 1.85 10.15 2.72 26.35 7.81 52.76 15.43 78.99 23.63 7.06 2.21 13.81 5.78 20.27 9.48 5.66 3.25 9.01 8.64 8.2 15.47-1.39 11.65 5.1 18.75 13.65 24.78 2.31 1.63 5.02 2.73 7.14 4.55.97.83.95 2.8 1.38 4.26-1.47.39-2.95 1.08-4.42 1.06-1.04-.01-2.12-.89-3.09-1.52-12.44-8.03-26.32-11.93-40.76-14.17-5.24-.81-6.07.05-6.3 5.21-.24 5.32-.38 10.69-1.28 15.91-.35 2.04-2.49 4.99-4.14 5.23-1.66.24-4.55-1.98-5.47-3.83-2.5-5.05-4.4-10.42-6.2-15.77-.9-2.67-2.11-3.56-5-3.42-8.32.39-16.66.57-24.98.43-3.46-.06-4.85 1.15-5.09 4.4-.53 7.13-.91 14.3-1.88 21.37-.34 2.46-2.22 4.7-3.4 7.04-2.13-1.56-5.17-2.68-6.21-4.78-2.5-5.03-4.03-10.52-6.25-16.64zm9.19 8.32c.28-.09.56-.17.83-.26.12-1.31.3-2.62.36-3.94.54-11.3 3.12-22.09 8.55-32.05.72-1.33 2.96-1.83 4.5-2.71.23 1.76.94 3.62.57 5.24-.59 2.59-1.91 5.02-3.39 8.68 13.79-.66 26.37-1.26 38.95-1.86-3.88-4.56-7.86-7.58-11.28-11.14-1.28-1.33-1.24-3.92-1.8-5.93 1.95.6 4.14.82 5.81 1.86 5.3 3.33 9.97 8.29 15.69 10.18 10.28 3.41 21.15 5.05 30.8 7.21-.8-5.3-2.27-10.77-2.28-16.24 0-5.62-1.62-10.01-6.42-12.55-6-3.18-12.14-6.37-18.59-8.37-26.07-8.08-52.23-15.88-78.48-23.38-6.65-1.9-13.71-3.14-20.61-3.29-12.59-.27-26.24 12.18-27.81 24.91 2.06-.48 3.94-.84 5.78-1.35 4.01-1.1 7.94-2.57 12.01-3.34 7.9-1.5 13.3 1.5 16.39 8.86 1.16 2.75 1.57 5.84 2.9 8.49 3.03 6.03 5.52 12.65 9.84 17.64 8 9.25 15 18.68 16.78 31.13.13.77.6 1.48.9 2.21zm-17.6-22.64c-.38 7.39-.71 13.87-1.1 21.5 5.65-9.97 6.12-17.17 1.1-21.5zm65.91 1.65c1.76 4.94 3.25 9.11 4.73 13.27l1.23-.27v-13.86c-1.84.27-3.43.5-5.96.86zM822.41 1302.08c.55 22.17-5.62 42.12-16.78 60.67-9.35 15.53-20.95 29.26-33.99 41.73-3.64 3.48-4.23 6.35-2.1 10.78 3.91 8.09 7.52 16.34 10.81 24.71.89 2.26.14 5.16.14 7.77-2.62-.06-5.83.85-7.76-.33-11.1-6.76-22.95-10.38-35.94-10.84-2.03-.07-5.41-2.07-5.63-3.55-.29-1.99 1.37-4.94 3.1-6.43 6.95-5.96 14.17-11.61 21.45-17.17 2.81-2.15 3.33-4.24 2.22-7.65-6.56-20.21-11.17-40.79-11.01-62.21.14-20.42 5.4-39.33 17.53-55.8 7.48-10.17 16.11-19.49 24.25-29.17 4.07-4.83 8.05-9.75 12.42-14.29 1.55-1.61 4.2-3.17 6.22-3.03 1.67.12 4.1 2.52 4.59 4.35 5.38 19.93 10.78 39.91 10.48 60.46zm-9.04 1.87c-8.94 5.94-16.87 10.82-26.65 9.04-10.49-1.9-14.74-10.25-18.15-19.32-16.51 21.38-18.37 81.63-3.26 107.12 26.81-26.61 46.51-56.42 48.06-96.84zm-8-53.63c-.81-.18-1.63-.37-2.44-.55-8.98 10.65-17.99 21.26-26.87 31.99-.83 1.01-1.12 2.81-1.02 4.19.62 9.05 10.55 18.41 18.91 16.77 6.21-1.22 12.56-3.66 17.74-7.18 1.82-1.24.33-7.33.35-11.21 0-.33-.04-.67-.1-.99l-6.57-33.02zm-35.51 187.15c-3-8.5-5.47-15.5-8.15-23.13-5.88 5.19-11.3 9.96-17.48 15.4 8.73 2.63 16.55 4.99 25.63 7.73zM127.51 478.6c-5.9 2.12-11.11 4.37-16.54 5.81-3.75 1-7.87 1.5-11.69 1.08-4.15-.45-5.32-4.08-2.19-6.78 2.9-2.5 6.57-4.58 10.25-5.62 6.04-1.7 12.35-2.4 19.13-3.63-.71-7.11-1.78-14-1.97-20.91-.15-5.56.52-11.2 1.38-16.71.23-1.46 2.36-3.35 3.88-3.64 1.05-.2 3.28 1.8 3.72 3.21 1.42 4.56 2.64 9.25 3.23 13.98.86 6.9 1.1 13.88 1.64 21.33 6.84-1.16 13.13-2.57 19.5-3.17 3.69-.35 7.57.29 11.22 1.13 1.36.31 3.19 2.48 3.16 3.76-.03 1.3-1.88 3.16-3.33 3.69-2.76 1-5.78 1.41-8.73 1.73-5.62.61-11.27.99-16.91 1.47-2.49.21-3.92 1.07-3.53 4.09 1.47 11.38 2.74 22.79 4.22 35.38 2.1-2.28 3.39-3.87 4.88-5.26 11.02-10.3 33.05-10.51 44.36-.45 6.21 5.52 8.32 12.58 6.26 20.38-1.73 6.55-4.31 12.93-7.01 19.17-3.9 9.01-8.33 17.79-12.34 26.76a48.58 48.58 0 00-3.1 9.47c-2.93 13.72.62 21.38 12.8 28.21.58.33 1.26.54 1.74.97 2.08 1.84 6.11 4.27 5.78 5.52-1.15 4.36-5.54 2.76-8.48 2.25-4.53-.78-9.19-1.95-13.26-4.01-8.48-4.3-12.71-11.85-10.74-21.09 2.45-11.51 6.07-22.81 9.73-34.03 3.15-9.64 7.37-18.94 10.56-28.57 3.8-11.44 1.56-16.02-8.52-19.52-11.72-4.07-21.57-.74-25.32 8.77-3.72 9.45-3.2 19.27-1.92 29.09.3 2.31.66 4.62.99 6.92.48 3.39.26 6.73-3.8 7.47-4.42.81-5.79-2.56-6.34-6.04-1.52-9.7-2.81-19.45-4.29-29.16-2.5-16.46-5.07-32.92-7.62-49.37-.15-.95-.41-1.9-.8-3.68z"/><path d="M626.27 167.21c.51 16.01-6.07 28.82-19.15 37.43-22.58 14.87-47.18 19.11-72.82 9.09-42.01-16.42-39.97-65.41-20.14-88.96 16.59-19.69 42.69-27.99 66.09-20.49 27.36 8.77 43.56 28.94 45.72 56.93.16 2.01.21 4.01.3 6zm-61.61 39.97c.07-.29.14-.59.22-.88 2.16-.11 4.33-.13 6.48-.36 15.25-1.62 28.8-8.03 38.1-19.67 12.91-16.17 9.2-40.01-6.43-53.67-4.01-3.5-8.04-7.03-12.39-10.08-21.25-14.88-45.49-12.16-63.9 6.18-19.85 19.77-17.8 61.93 16.66 73.64 6.84 2.33 14.16 3.26 21.26 4.84zM405.13 2068.52c13.05 5.11 24.21.72 34.8-5.93 1.51-.95 2.47-3.58 2.74-5.56.48-3.6.52-7.32.27-10.95-.71-10.27-1.66-20.52-2.53-31-.55-.2-1.32-.5-2.1-.76-9.23-2.98-13.57-10.1-11.09-18.2 2.26-7.38 11.27-11.27 19.87-8.63 5.49 1.68 8.77 5.34 9.62 10.98.87 5.78-.88 10.74-6.06 13.71-2.8 1.6-3.63 3.53-3.41 6.45.7 9.3 1.09 18.62 2.06 27.89 1.41 13.47-3.44 24.08-13.69 32.56-5.62 4.65-12.36 6.19-19.21 5.59-8.75-.76-17.44-2.49-26.08-4.16-7.19-1.39-14.2-3.97-21.43-4.76-6.64-.73-13.48.17-20.22.45-2.48.1-4.94.68-7.41.7-7.5.08-8.24-1.06-5.19-8.08.85-1.95 2.35-3.59 3.36-5.48 2.15-4.01 5.5-7.94 6-12.18 1.63-13.85 2.2-27.83 3.19-41.93-1.12-.41-2.19-.8-3.26-1.19-6.98-2.53-10.59-7.78-9.88-14.39.77-7.17 6.82-13.19 14.52-14.45 5.84-.96 12.58 3.16 15.07 9.22 2.44 5.93.54 13.66-5.23 17.27-3.74 2.35-5.04 5.08-5.27 9.18-.59 10.81-1.4 21.6-2.25 32.4-.28 3.59-.97 7.15-1.54 11.16 13.13-1.18 25.29 2.3 37.39 5.93 3.98 1.2 6.17.06 6.95-3.81.59-2.91 1.19-5.89 1.17-8.84-.08-11.49-.53-22.98-.55-34.47-.01-3.12-.78-4.58-3.88-5.75-7.6-2.88-10.99-10.37-8.46-17.36 2.6-7.17 10.72-10.91 19.05-8.76 6.99 1.8 11.44 8.89 10.13 16.16-.79 4.43-3.23 7.74-7.34 9.45-2.57 1.06-3.48 2.5-3.39 5.24.46 15.11-1.16 30.33 2.86 45.24.6 2.14.3 4.56.42 7.06zm-54.71-65.89c5.02.11 9.41-4.07 9.43-8.98.02-3.92-3.26-7.54-6.99-7.72-5.98-.28-11.11 3.86-11.13 9-.01 4.37 3.63 7.59 8.69 7.7zm100.24-2.06c-.14-4.96-3.68-7.66-9.77-7.44-5.2.18-8.16 2.98-7.99 7.54.16 4.36 4.41 7.93 9.32 7.84 4.94-.09 8.57-3.5 8.44-7.94zm-44.18-1.52c-.01-5.03-3.23-7.91-8.8-7.87-5.27.04-8.78 3.03-8.78 7.48 0 4.35 4.23 7.9 9.25 7.77 5-.13 8.35-3.09 8.33-7.38zM1065.9 176.86c2.72 68.88-61.47 112.26-120.04 105.56-19.19-2.2-37.1-7.79-53.5-18.05-31.08-19.45-45.49-47.81-44.01-84.12 1.39-33.95 15.14-62.54 39.95-85.57 29.87-27.73 64.68-31.93 102.44-20.22 4.76 1.48 9.41 3.39 13.94 5.47 42.05 19.29 61.86 50.73 61.22 96.93zm-5.97-2.6c.04-40.14-16.11-67.61-51.88-85.83-10.41-5.3-21.84-9.29-33.27-11.77-28.59-6.2-55.07-.8-77.82 18.36-26.16 22.04-40.84 50.22-42.62 84.48-1.85 35.65 12.51 63.19 43.61 81.12 8.57 4.94 17.96 8.89 27.44 11.77 61.35 18.65 137.01-19.51 134.54-98.13zM301.81 1852.64c-4.03 15.05-10.58 28.18-9.43 43.19.39 5.12.13 10.32-.23 15.46-.15 2.25-.78 4.81-2.09 6.54-1.48 1.94-3.99 4.26-6.05 4.25-1.98-.01-4.72-2.36-5.8-4.39-8.15-15.25-12.16-31.55-12.16-48.94 0-14.13-.42-28.28-1.24-42.39-.38-6.44-2.39-12.76-3.28-19.19-2.28-16.36 7.15-29.7 23.3-33.33 5.32-1.2 10.22.28 14.01 3.67 9.54 8.54 20.93 11.66 33.23 13.41 14.99 2.14 19.03 7.61 19.42 22.72.38 14.88-2.65 29.16-6.85 43.25-5.53 18.56-10.15 37.27-11.64 56.66-.29 3.85-.36 8.76-5.47 9.52-4.92.74-7.24-3.61-8.35-7.24-2.51-8.19-4.66-16.58-5.97-25.04-.91-5.86.08-11.98-.22-17.96-.41-7.87-4.11-14.16-11.18-20.19zm24.77 61.64c.95-7.53 1.29-15.19 2.97-22.55 3.59-15.74 8.29-31.23 11.72-47 2.07-9.53 3.26-19.37 3.64-29.12.33-8.73-3.83-14.35-11.42-16.17-13.72-3.28-26.7-8.09-38.92-15.19-5.89-3.42-11.81-1.99-17.38 1.78-8.95 6.07-9.28 15.06-7.86 24.15 3.07 19.68 3.83 39.41 3.11 59.29-.53 14.75 3.09 28.74 9.54 42 .58 1.19 1.39 2.28 2.09 3.41.53-.11 1.07-.23 1.6-.34.2-4.92.83-9.86.54-14.74-.96-16.04 2.7-31.47 5.88-46.96.9-4.36 2.9-8.39 7.87-9.39 4.85-.98 8.83 1.48 11.09 5.24 3.21 5.34 6.46 11.06 7.77 17.04 1.39 6.36.9 13.23.57 19.85-.5 10.19 1.02 19.81 7.19 28.7zM370.32 1391.37c-2.57 18.34-1.9 36.28 6.83 53.17.8 1.56.44 5.25-.66 5.96-2.88 1.86-4.48-.91-5.47-3.23-6.56-15.47-18.16-26.49-31.47-36.06-5.14-3.7-10.08-7.66-15.21-11.38-17.49-12.68-23.8-29.7-20.02-50.77 1.06-5.9 1.78-11.86 2.76-17.78 2.05-12.32 2-24.54-1.47-36.65-.68-2.39-1.45-4.91-1.33-7.32.07-1.39 1.61-3.22 2.95-3.82.71-.32 3.02 1.28 3.54 2.48 1.32 3.03 2.2 6.29 2.97 9.52 2.06 8.69 7.09 15.38 14.04 20.66 6.23 4.73 12.54 9.4 19.09 13.68 17.06 11.15 24.88 26.73 23.49 47.06-.32 4.81-.04 9.65-.04 14.48zm-57.02-30.26c.11 14.65 11 25.99 24.8 25.83 11.77-.14 20.93-9.07 20.85-20.34-.1-14.22-11.29-27.64-22.98-27.56-13.16.11-22.76 9.45-22.67 22.07zm19.31 32.86l27.7 22.83v-34.25c-7.97 8.39-16.98 11.65-27.7 11.42zm-15.31-75.29c-.67 7.38-1.28 14.14-1.88 20.76 6.15-2.59 11.93-5.03 17.78-7.49-5.11-4.26-10.18-8.5-15.9-13.27zM605.25 939.46c-.53 11.34-4.72 24.37-12.27 36.27-3.79 5.97-7.86 8-11.65 6.48-3.94-1.58-5.69-6.6-4.49-13.1 1.09-5.88 3.97-10.57 9.33-13.47 6.08-3.29 12.38-6.27 11.82-14.9-.66-10.2-2.98-19.59-12.55-25.21-16.26-9.55-42.95-.89-50.77 16.29-2.6 5.72-2.67 11.55.5 16.81 3.5 5.81 7.34 11.57 11.92 16.54 8.46 9.17 17.65 17.66 26.4 26.58 8.62 8.79 13.95 18.87 12.77 31.78-2.18 23.67-24.11 38-46.6 30.19-19.61-6.81-24.67-29.58-9.13-44.16 4.83-4.53 12.05-6.57 18.32-9.43 1.01-.46 2.8.78 4.22 1.23-1.08 1.04-1.99 2.4-3.26 3.07-2.34 1.23-4.99 1.88-7.34 3.1-8.89 4.61-12.08 11.19-10.39 21.02 1.82 10.56 11.19 19.32 21.85 20.39 9.53.96 17.95-4.76 22.14-15.24 3.88-9.71 3.8-19.49-1.92-28.29-4.6-7.06-10.11-13.62-15.78-19.88-6.25-6.9-13.15-13.22-19.77-19.79-.35-.35-.68-.74-1.01-1.11-9.41-10.63-17.03-22.02-10.8-36.96 6.69-16.05 19.52-24.69 36.5-26.42 6.44-.66 13.42.23 19.64 2.1 15.09 4.53 22.54 16.31 22.32 36.11zm-10.29 19.94c-10.39 3.02-13.23 7.77-9.55 15.13 3.38-5.36 6.46-10.25 9.55-15.13zM369.36 836.13c-20.68-1.62-39.13 4.06-55.82 16.33-4.9 3.61-10.51 6.33-16.04 8.96-1.49.71-3.86-.43-5.82-.72.42-1.82.23-4.29 1.36-5.33 4.72-4.34 9.65-8.51 14.9-12.19 2.32-1.63 3.39-2.98 3.41-5.86.22-31.8-7.06-61.7-21.99-89.8-1.61-3.02-3.34-3.7-6.61-3.63-5.62.11-11.28-.43-16.85-1.16-1.36-.18-2.49-2.18-3.72-3.34 1.19-1.2 2.24-3.22 3.59-3.46 6.03-1.06 12.23-2.62 18.23-2.17 20.51 1.56 39.17-4.14 57.37-12.65 4.17-1.95 8.71-3.23 13.21-4.24 1.52-.34 3.45 1.1 5.19 1.72-.72 1.72-.96 4.28-2.24 5.03-5.56 3.22-11.29 6.22-17.23 8.65-3.1 1.27-4.33 2.5-4.24 6.02.84 31.07 10.22 59.55 25.93 86.09.79 1.33 3.39 1.97 5.25 2.2 7.21.9 14.49 1.28 21.67 2.39 1.51.23 2.69 2.7 4.01 4.13-1.54 1-3.04 2.79-4.64 2.88-6.28.35-12.61.15-18.92.15zm-73.16-94.05c13.23 30.91 20.9 62.27 24.16 94.76 11.24-3.19 21.73-6.16 32.54-9.22-12.95-29.13-21.26-59.38-26.13-91.02-10.26 1.84-20.01 3.59-30.57 5.48zM727.94 472.22c21.51 5.83 39.98 14.17 47.65 36.06 4.4 12.56 7.61 25.53 11.28 38.34 1.7 5.92 3.18 11.91 4.84 17.85 1.08 3.84.21 6.36-3.92 7.68-17.77 5.67-35.52 11.44-53.23 17.29-3.91 1.29-5.87-.21-7.33-3.69-6.37-15.21-12.58-30.5-19.39-45.52-8.26-18.21-6.37-35.33 4.34-51.77 2.81-4.31 5.88-8.52 9.32-12.34 1.72-1.9 4.55-2.8 6.44-3.9zm-1.27 13.59c-9.4 12.27-16.33 24.23-14.42 39.23 2.65 20.81 13.41 38.73 20.69 58.33 8.14-2.65 15.62-5.09 23.38-7.62-9.92-30.09-19.59-59.43-29.65-89.94zm58.52 80.57c-.18-1.5-.17-2.67-.47-3.75-3.22-11.54-5.98-23.24-9.9-34.54-2.81-8.1-6.5-16.08-11.01-23.37-6.8-10.97-17.95-16.11-31-20.28 10.04 30.46 19.69 59.74 29.47 89.39 7.98-2.59 15.37-5 22.91-7.45zM574.03 476.74c-4.04-.35-5.85 1.23-6.18 5.25-.48 5.97 1.54 10.44 6.78 13.34 1.89 1.04 3.85 1.97 5.85 2.8 5.5 2.27 6.47 3.58 3.89 9.04-3.03 6.41-6.96 12.4-10.53 18.56-2.96 5.12-5.83 10.3-9.01 15.29-.89 1.4-2.72 2.21-4.12 3.28-.6-1.56-2.14-3.56-1.65-4.61 2.64-5.65 5.57-11.19 8.81-16.53 3.66-6.03 7.75-11.79 12.08-18.31-11-4.59-19.27-9.95-18.4-22.51-.57-.05-1.15-.1-1.72-.14-1.2 2.75-3.29 5.44-3.45 8.25-.69 12.15-5.28 22.88-10.51 33.59-2.23 4.55-2.83 9.87-4.58 14.69-.66 1.81-2.48 3.19-3.77 4.77-.76-1.96-2.51-4.17-2.1-5.85 1.51-6.27 3.07-12.69 5.85-18.45 4.46-9.25 8.07-18.54 8.77-28.92.64-9.49 6.8-14.88 15.19-17.93 3.73-1.36 7.66-2.33 11.58-2.99 3.94-.66 5.88 1.44 4.76 5.25-3.99 13.54 1.27 12.86 10.58 14.33 4.08.64 8.15 1.3 13.8 2.21-6.69-6.57-5.92-14.06-7.02-21.27-2.64-17.27-11.66-30.96-26-40.95-5.4-3.76-11.56-3.62-16.24.67-5.8 5.33-10.84 11.57-15.75 17.77-2.97 3.75-4.91 8.31-7.63 12.28-3.55 5.19-9.01 6.72-14.91 6.34-1.4-.09-2.67-2.18-4-3.35 1.5-.75 3.03-2.21 4.5-2.14 9.03.4 9.61.27 13.06-8.36 3.75-9.38 8.51-18.09 15.9-25.13 12.55-11.96 25.07-11.3 35.88 2.27 5.18 6.5 9.83 13.44 14.41 20.39 4.96 7.53 7.21 15.88 7.65 24.99.19 4.02 1.75 8.71 4.29 11.75 6.68 8.01 9.78 17.14 11.86 27.1 1.68 8.08 4.72 15.86 6.86 23.86.47 1.74-.32 3.81-.54 5.73-1.83-.93-4.66-1.41-5.31-2.86-2.74-6.21-4.86-12.7-7.15-19.11-.45-1.25-.66-2.58-.97-3.87-4.38-18.12-6.37-19.9-24.82-22.33-1.98-.26-3.96-.58-5.9-1.04-7.47-1.77-10.33-5.55-10.09-13.17.03-1.29 0-2.59 0-3.98zM552.62 1980.96c-2.41.14-3.89.25-5.37.32-11.44.56-18.72-5.88-19.32-17.37-.08-1.51 1.2-3.08 1.84-4.63 1.37 1.1 3.39 1.91 4.01 3.34 3.15 7.18 6.94 9.55 14.53 7.45 7.53-2.09 14.79-5.12 22.3-7.26 5.89-1.68 11.93-3.16 18-3.76 9.42-.93 16.02 3.41 20.6 11.87 6.48 11.96 8.98 25 11.75 38.01 1.6 7.49 3.29 14.96 4.59 22.51.53 3.11 3.26 7.97-1.59 8.99-5.16 1.09-4.13-4.52-4.78-7.55-2.91-13.5-5.29-27.13-8.39-40.58-3.22-13.96-12.24-20.18-26.33-18.45-5.92.73-11.78 2.18-17.6 3.54-6.23 1.45-9.33 7.65-6.68 13.72 2.06 4.72 5.13 9.02 6.97 13.81 3.14 8.18 5.87 16.54 8.31 24.96.69 2.38.24 5.34-.46 7.82-1.26 4.49-4.63 6.82-9.3 6.92-3.67.08-9.9-4.12-10.51-7.36-.24-1.26.77-2.95 1.62-4.14.47-.66 1.8-.73 2.74-1.04 8.44-2.77 10.3-6.15 6.45-14.19-3.58-7.48-7.96-14.61-12.28-21.71-2.84-4.73-4.31-9.36-1.1-15.22zM174.23 1105.31c-.47-3.12-1.19-6.23-1.29-9.37-.04-1.35 1.2-2.74 1.85-4.1 1.36.71 3.23 1.06 4 2.18 8.21 11.86 1.94 28.35-12.25 30.94-5.87 1.07-12.28.35-18.28-.59-17.98-2.83-26.57 5.75-23.48 23.8 1.03 6.05 2.25 12.2 2.17 18.28-.2 14.78-9.93 23.85-24.72 23.33-5.79-.2-11.59-1.23-17.32-2.22-15.61-2.68-26.17 7.06-24.34 22.91.55 4.77 2 9.44 2.89 14.18 1.84 9.8-3.51 19.78-12.59 23.69-6.29 2.71-12.98 1.58-17.35-3.44-1.15-1.33-1.1-3.7-1.6-5.59 1.81-.06 3.68-.41 5.43-.1 2.9.51 5.75 2.19 8.57 2.07 7.61-.33 12.8-7.53 11.23-15.12-.98-4.72-3.05-9.31-3.36-14.05-.37-5.7-.36-11.76 1.19-17.18 3.14-10.95 13.6-17.05 24.9-15.43 3.77.54 7.43 2.44 11.16 2.52 5.69.12 11.82.37 17-1.53 10.98-4.03 15.27-14.87 10.87-25.74-3.28-8.1-4.28-16.02-.9-24.24 5-12.2 14.97-17.24 27.74-14.03 4.03 1.01 8.04 2.29 12.14 2.88 10.85 1.58 16.12-3.14 16.34-14.05zM205.23 1146.23c-.45-2.96-1.19-5.91-1.23-8.87-.02-1.5 1.21-3.03 1.87-4.54 1.42.89 3.41 1.43 4.18 2.71 8.55 14.13-.3 30.6-17 31.19-5.92.21-11.9-1.11-17.84-1.86-12.24-1.53-20.29 5.43-20.02 17.93.1 4.78 1.52 9.52 2.09 14.3.45 3.79.91 7.64.69 11.43-.82 13.8-9.99 22.51-23.81 22.24-6.12-.12-12.26-1.2-18.32-2.22-15.41-2.61-25.91 6.9-24.3 22.52.51 4.94 2.04 9.77 2.95 14.68 1.81 9.78-3.59 19.78-12.68 23.65-6.43 2.74-13.53 1.35-17.68-3.89-1-1.26-.79-3.47-1.13-5.24 1.67-.09 3.39-.48 4.99-.2 1.59.28 3.02 1.41 4.6 1.87 8.59 2.5 17.24-5.06 15.73-13.85-.62-3.59-2.31-7.04-2.65-10.64-.59-6.22-1.58-12.7-.49-18.72 2.35-12.93 13.82-20.22 26.78-18.03 3.6.61 7.1 1.79 10.66 2.64 6.44 1.54 12.61.64 18.37-2.54 9.35-5.15 13.02-14.71 9.08-24.63-2.93-7.36-4.37-14.62-1.9-22.37 4.39-13.74 15.19-19.74 29.15-16.14 3.87 1 7.72 2.18 11.66 2.74 10.83 1.52 16.05-3.2 16.25-14.16zM199.53 733.82c-.05 28.11-24.84 51.04-55.19 51.05-30.35 0-54.36-22.92-54.24-51.79.12-30.41 25.31-55.82 55.26-55.77 28.76.06 54.22 26.61 54.17 56.51zm-6.3-.28c-.07-25.78-23.57-50.08-48.24-49.9-26.65.19-48.61 22.58-48.66 49.62-.05 25.27 21.18 45.35 47.99 45.38 27 .02 48.98-20.25 48.91-45.1zM550.98 1691.9c-4.15-2.54-7.68-4.15-10.48-6.6-1.96-1.71-2.91-4.56-4.32-6.89 2.81-.01 6.17-1 8.3.2 4.13 2.32 7.56 5.88 11.74 9.31l58.74-44.75c-.11-.41-.23-.82-.34-1.23-4.04.21-8.08.34-12.11.65-5.19.4-10.17-1.65-9.43-4.15 1.34-4.53 5.4-5.2 9.34-4.77 6.61.73 13.25 1.58 19.69 3.14 1.9.46 4.45 3.43 4.51 5.32.23 6.79-.24 13.63-.93 20.41-.36 3.58-2.26 6.58-6.7 7.42-5.25-7.28 1.93-14.3.43-22.14-19.37 15.81-38.39 31.33-57.38 46.83 3.71 8.22 12.43 14.58 7.52 25.23-5.01-1.79-5.78-6.05-7.37-9.8-1.54-3.61-3.39-7.09-5.36-11.18-6.6 5.36-12.45 10.28-18.5 14.93-3.15 2.42-6.51 4.67-10.07 6.39-1.62.79-3.94.13-5.94.12.4-1.95.15-4.51 1.31-5.72 3.9-4.06 8.19-7.77 12.54-11.35 4.48-3.71 9.21-7.1 14.81-11.37zM959.18 724.38c-2.23-.32-4.44-.35-6.47-.98-5.4-1.67-7.27-6.42-4.74-11.51 3.86-7.77 22.06-18.05 30.72-17.36 6.05.48 8.9 5.44 5.37 10.64-2.56 3.76-1.76 6.38-.01 9.91 10.12 20.44 20.05 40.98 29.95 61.53 1.29 2.68 2.51 5.54 2.98 8.44.29 1.78-.93 3.8-1.48 5.72-1.8-.51-3.98-.55-5.3-1.64-2.15-1.77-3.94-4.08-5.53-6.4-12.23-17.86-24.46-35.73-36.47-53.74-2.32-3.49-4.38-6.35-9.02-4.61zm43.67 45.69c.45-.26.9-.53 1.36-.79-9.18-18.46-18.36-36.93-27.62-55.55-3.26 1.63-5.7 2.85-8.41 4.21 11.71 17.62 23.19 34.87 34.67 52.13zm-46.82-54.71c5.35 2.05 18.04-5.97 20.65-13.05-9.04-.23-18.32 5.63-20.65 13.05z"/><path d="M493.74 426.8c5.26.32 9.59.66 13.92.79 1.64.05 3.35-.76 4.93-.51 1.22.2 3 1.3 3.18 2.25.18.99-1.07 3.04-2.05 3.3-7.91 2.1-15.86 2.55-23.26-1.7-4.1-2.35-4.64-6.39-1.84-10.26.58-.8 1.23-1.62 2.02-2.2 10.79-7.98 22.78-10.95 35.82-7.46 7.65 2.05 10.22 8.39 6.25 15.23-2.9 4.99-6.85 9.39-10.41 13.98-4.48 5.78-9.52 11.2-13.47 17.32-5.73 8.87-3.53 14.08 6.7 16.98 5.11 1.45 10.45 2.07 15.63 3.29 8.46 1.99 12.32 6.54 10.95 15.01-.87 5.35-3.38 10.71-6.28 15.38-2.58 4.16-6.62 7.43-10.13 10.98-4.66 4.72-8.07 10.05-9.7 16.6-.41 1.65-2.46 2.89-3.75 4.32-.72-1.93-2.55-4.33-1.97-5.69 2.52-5.88 5.28-11.77 8.85-17.04 2.85-4.21 7.54-7.17 10.45-11.36 3.16-4.55 5.81-9.67 7.54-14.92 1.54-4.68-.61-7.16-5.47-8.19-2.43-.51-4.95-.59-7.42-.96-3.94-.59-7.99-.88-11.79-1.98-12.19-3.55-16.29-12.29-10.27-23.46 3.83-7.12 9.16-13.44 13.89-20.07 3.09-4.33 6.4-8.51 9.45-12.87 1.39-1.99 1.62-3.94-1.22-5.26-7.17-3.3-24.23.82-30.55 8.5zM346.99 1613c3.37 1.51 9.27 3.96 14.92 6.87 1.14.59 1.35 2.97 1.98 4.52-1.61.51-3.19 1.14-4.83 1.46-.74.15-1.6-.33-2.41-.52-9.76-2.35-18.36-.13-26.14 6.19-1.4 1.14-3.77 1.09-5.68 1.59-.05-2.12-.83-4.57-.03-6.29 3.76-8.06 9.81-13.29 22.19-13.82zM69.11 1968.48c.04 5.89-3.71 9.5-9.82 9.44-6.23-.06-10.47-3.98-10.45-9.67.02-6 4.46-10.79 10.12-10.92 6.02-.13 10.11 4.35 10.15 11.15zm-5.48-.42c-2.14-1.78-3.53-3.75-4.48-3.55-1.29.27-2.25 2.18-3.35 3.39 1.17 1.03 2.21 2.56 3.56 2.92.84.22 2.15-1.32 4.27-2.76zM478.89 1622.43c.06 5.62-3.57 9.16-9.43 9.19-5.94.03-10.26-3.74-10.4-9.07-.15-5.89 4.32-10.74 9.97-10.81 5.91-.07 9.79 4.13 9.86 10.69zm-4.98-.44c-2.26-1.8-3.88-3.95-4.88-3.69-1.44.36-2.43 2.48-3.62 3.85 1.42 1.03 2.73 2.51 4.3 2.9.83.2 2.14-1.49 4.2-3.06zM248.89 806.47c.04 5.61-3.61 9.13-9.48 9.14-5.94.01-10.24-3.78-10.36-9.12-.12-5.89 4.37-10.72 10.02-10.76 5.91-.03 9.78 4.19 9.82 10.74zm-9.59 4.21c1.5-2.04 3.17-3.36 2.96-4.23-.39-1.61-1.87-2.96-2.9-4.42-1.32 1.41-3.1 2.64-3.74 4.3-.27.7 1.89 2.32 3.68 4.35zM1012.89 1412.76c-.09 5.54-3.88 8.98-9.76 8.85-5.97-.14-10.11-4-10.07-9.39.04-5.93 4.61-10.58 10.3-10.48 5.85.1 9.63 4.47 9.53 11.02zm-15.2-.81c2.53 1.59 3.9 3.11 5.2 3.07 1.21-.04 3.47-2.03 3.31-2.69-.38-1.58-1.77-3.86-3.01-4.03-1.28-.18-2.87 1.79-5.5 3.65zM696.89 1408.58c-.01 5.58-3.72 9.08-9.58 9.04-5.96-.05-10.2-3.86-10.26-9.22-.06-5.9 4.46-10.67 10.13-10.66 5.89.01 9.72 4.28 9.71 10.84zm-5.02-.25c-2.13-1.95-3.58-4.2-4.66-4.03-1.42.22-2.55 2.34-3.8 3.64 1.35 1.1 2.55 2.67 4.09 3.13.85.25 2.26-1.35 4.37-2.74zM1114.89 1064.66c-.04 5.56-3.79 9.04-9.66 8.95-5.96-.09-10.16-3.92-10.17-9.3-.02-5.92 4.53-10.62 10.21-10.57 5.86.05 9.67 4.37 9.62 10.92zm-8.83-5.14c-.62 0-1.24-.01-1.86-.01-.93 1.52-2.73 3.16-2.54 4.51.18 1.23 2.4 2.52 3.97 3.02.55.18 2.63-1.94 2.58-2.93-.07-1.56-1.37-3.06-2.15-4.59zM868.88 292.31c.11 5.65-3.45 9.21-9.31 9.3-5.93.1-10.31-3.63-10.51-8.95-.22-5.87 4.23-10.8 9.85-10.92 5.94-.13 9.84 4.02 9.97 10.57zm-9.46 4.6c1.51-2.35 3.06-3.74 2.82-4.63-.44-1.58-1.97-2.85-3.05-4.26-1.26 1.3-3.29 2.47-3.53 3.93-.18 1.14 1.89 2.63 3.76 4.96zM102.89 618.44c.05 5.62-3.58 9.15-9.44 9.18-5.94.03-10.26-3.75-10.39-9.09-.14-5.89 4.34-10.73 9.99-10.79 5.91-.06 9.78 4.15 9.84 10.7zm-5.07.27c-1.98-2.1-3.24-4.45-4.4-4.41-1.37.05-2.67 2.17-4 3.4 1.26 1.18 2.36 2.83 3.85 3.36.87.31 2.38-1.16 4.55-2.35zM466.89 356.47c.04 5.61-3.61 9.13-9.48 9.14-5.94.01-10.24-3.77-10.36-9.12-.13-5.89 4.37-10.72 10.02-10.76 5.91-.04 9.77 4.19 9.82 10.74zm-4.98-.48c-2.26-1.8-3.88-3.95-4.88-3.69-1.44.36-2.43 2.48-3.62 3.85 1.42 1.03 2.73 2.51 4.3 2.9.83.2 2.14-1.49 4.2-3.06zM406.88 2142.35c.09 5.64-3.49 9.19-9.35 9.26-5.94.07-10.29-3.67-10.48-8.99-.2-5.88 4.26-10.78 9.89-10.88 5.94-.11 9.84 4.05 9.94 10.61zm-5.01.01c-2.12-1.96-3.55-4.21-4.64-4.06-1.42.2-2.56 2.32-3.82 3.62 1.34 1.11 2.54 2.68 4.07 3.15.86.26 2.27-1.33 4.39-2.71zM920.89 2044.55c0 5.59-3.69 9.09-9.55 9.06-5.95-.03-10.21-3.84-10.28-9.19-.08-5.9 4.44-10.68 10.1-10.68 5.89-.01 9.73 4.26 9.73 10.81zm-10.05 4.1c1.72-1.89 3.64-3.23 3.43-3.91-.54-1.73-2.03-3.15-3.14-4.7-1.24 1.31-3.08 2.47-3.5 4-.26.95 1.65 2.49 3.21 4.61zM1074.89 2142.55c0 5.59-3.69 9.09-9.55 9.06-5.95-.03-10.21-3.84-10.28-9.19-.08-5.9 4.44-10.68 10.1-10.68 5.89-.01 9.73 4.26 9.73 10.81zm-9.68 4.13c1.54-2.01 3.25-3.31 3.05-4.18-.37-1.62-1.84-3-2.85-4.47-1.34 1.39-3.13 2.6-3.79 4.26-.28.69 1.85 2.34 3.59 4.39zM456.89 1388.5c.03 5.6-3.64 9.12-9.5 9.12-5.95 0-10.23-3.8-10.33-9.14-.11-5.9 4.39-10.71 10.05-10.73 5.9-.04 9.75 4.19 9.78 10.75zm-5.08.26c-1.95-2.12-3.17-4.48-4.35-4.46-1.35.02-2.68 2.15-4.02 3.36 1.25 1.19 2.32 2.85 3.8 3.4.87.32 2.39-1.14 4.57-2.3zM74.89 1372.76c-.09 5.54-3.89 8.98-9.76 8.85-5.97-.14-10.11-4-10.07-9.39.04-5.93 4.61-10.58 10.3-10.48 5.85.1 9.63 4.47 9.53 11.02zm-5.04-.26c-2.06-2.02-3.43-4.32-4.54-4.2-1.4.15-2.6 2.26-3.89 3.53 1.31 1.14 2.47 2.74 3.99 3.24.85.27 2.3-1.27 4.44-2.57zM1088.89 320.58c-.01 5.58-3.71 9.08-9.58 9.04-5.95-.04-10.2-3.86-10.26-9.22-.06-5.9 4.46-10.67 10.13-10.66 5.89.01 9.72 4.28 9.71 10.84zm-10.05 4.07c1.72-1.89 3.64-3.24 3.43-3.91-.54-1.73-2.03-3.15-3.14-4.7-1.24 1.31-3.08 2.47-3.5 4-.26.95 1.65 2.49 3.21 4.61zM727.18 1999.61c-5.96-.11-10.14-3.96-10.13-9.34.01-5.93 4.56-10.6 10.25-10.53 5.86.07 9.66 4.42 9.58 10.97-.06 5.54-3.83 9.01-9.7 8.9zm.24-4.7c1.51-2.35 3.06-3.74 2.82-4.63-.44-1.58-1.97-2.85-3.05-4.26-1.26 1.3-3.29 2.47-3.53 3.93-.18 1.14 1.89 2.63 3.76 4.96zM96.89 272.65c-.04 5.57-3.79 9.04-9.65 8.96-5.96-.08-10.16-3.92-10.18-9.29-.02-5.92 4.52-10.63 10.2-10.58 5.87.05 9.68 4.36 9.63 10.91zm-9.77 4.02c1.59-1.98 3.39-3.4 3.15-4.1-.59-1.69-2.14-3.04-3.3-4.53-1.19 1.37-2.99 2.6-3.33 4.16-.22.96 1.79 2.41 3.48 4.47zM1098.88 674.34c.1 5.65-3.48 9.19-9.34 9.27-5.93.08-10.3-3.66-10.48-8.98-.2-5.88 4.25-10.78 9.88-10.89 5.93-.11 9.83 4.05 9.94 10.6zm-5.02.12c-2.08-2-3.47-4.29-4.57-4.16-1.41.17-2.59 2.28-3.87 3.56 1.32 1.13 2.49 2.72 4.01 3.21.85.27 2.29-1.29 4.43-2.61zM64.89 344.5c.03 5.6-3.64 9.12-9.5 9.11-5.94 0-10.23-3.8-10.33-9.14-.11-5.9 4.39-10.7 10.05-10.73 5.9-.03 9.75 4.21 9.78 10.76zm-4.99-.41c-2.23-1.85-3.8-4.02-4.83-3.79-1.44.32-2.47 2.44-3.67 3.79 1.4 1.05 2.68 2.55 4.25 2.96.84.22 2.17-1.44 4.25-2.96zM996.89 1904.53c.01 5.59-3.67 9.1-9.53 9.08-5.95-.02-10.22-3.82-10.3-9.17-.09-5.9 4.42-10.69 10.08-10.7 5.89-.02 9.74 4.24 9.75 10.79zm-5.03-.14c-2.11-1.97-3.53-4.24-4.62-4.09-1.42.2-2.57 2.31-3.83 3.6 1.33 1.12 2.52 2.69 4.06 3.17.85.26 2.27-1.32 4.39-2.68zM722.89 246.67c-.05 5.56-3.8 9.03-9.67 8.94-5.96-.09-10.15-3.93-10.16-9.31-.01-5.92 4.54-10.62 10.21-10.57 5.87.06 9.67 4.39 9.62 10.94zm-9.68 4.01c1.54-2.01 3.25-3.31 3.05-4.18-.37-1.62-1.84-3-2.85-4.47-1.34 1.39-3.13 2.6-3.79 4.26-.28.69 1.85 2.34 3.59 4.39zM58.89 748.67c-.05 5.56-3.81 9.03-9.68 8.93-5.96-.09-10.15-3.94-10.15-9.31-.01-5.92 4.54-10.62 10.22-10.56 5.87.07 9.67 4.39 9.61 10.94zm-5.06 0c-1.99-2.09-3.26-4.43-4.42-4.37-1.38.06-2.66 2.19-3.98 3.42 1.27 1.17 2.38 2.81 3.87 3.34.86.31 2.36-1.18 4.53-2.39zM416.89 1872.76c-.09 5.54-3.88 8.99-9.76 8.85-5.97-.14-10.11-4-10.07-9.39.04-5.93 4.61-10.58 10.3-10.48 5.85.1 9.63 4.47 9.53 11.02zm-5.01-.45c-2.14-1.94-3.6-4.18-4.68-4.01-1.42.23-2.54 2.35-3.79 3.65 1.35 1.1 2.56 2.66 4.11 3.11.85.26 2.24-1.34 4.36-2.75zM833.33 483.61c-5.95-.03-10.21-3.84-10.28-9.19-.08-5.9 4.44-10.68 10.1-10.68 5.89 0 9.73 4.26 9.73 10.81.01 5.59-3.68 9.09-9.55 9.06zm.81-14.07l-1.84-.06c-.96 1.5-2.79 3.09-2.63 4.46.14 1.23 2.33 2.58 3.88 3.11.57.19 2.71-1.87 2.67-2.85-.05-1.58-1.32-3.11-2.08-4.66zM858.89 566.45c.05 5.62-3.59 9.14-9.46 9.16-5.94.02-10.25-3.76-10.37-9.1-.14-5.89 4.35-10.73 10-10.78 5.91-.04 9.77 4.17 9.83 10.72zm-4.99-.33c-2.22-1.86-3.77-4.04-4.81-3.82-1.43.31-2.48 2.43-3.69 3.78 1.39 1.05 2.66 2.56 4.23 2.98.85.22 2.19-1.44 4.27-2.94zM225.57 211.61c-5.94.09-10.31-3.64-10.51-8.96-.22-5.88 4.23-10.8 9.86-10.91 5.93-.12 9.84 4.02 9.96 10.58.11 5.65-3.45 9.2-9.31 9.29zm4.29-9.2c-2.1-1.98-3.51-4.25-4.6-4.11-1.41.19-2.57 2.3-3.84 3.59 1.33 1.12 2.51 2.7 4.04 3.18.85.26 2.28-1.31 4.4-2.66zM246.89 1288.51c.02 5.6-3.65 9.11-9.51 9.1-5.95-.01-10.23-3.8-10.32-9.15-.1-5.9 4.4-10.7 10.06-10.72 5.9-.03 9.74 4.21 9.77 10.77zm-9.59 4.17c1.5-2.04 3.17-3.36 2.96-4.23-.38-1.61-1.87-2.96-2.9-4.42-1.32 1.41-3.1 2.64-3.74 4.3-.27.7 1.89 2.32 3.68 4.35zM246.88 2264.34c.1 5.64-3.48 9.2-9.34 9.27-5.94.08-10.3-3.66-10.48-8.99-.2-5.88 4.25-10.78 9.88-10.89 5.93-.1 9.83 4.06 9.94 10.61zm-9.67 4.34c1.54-2.01 3.25-3.31 3.05-4.18-.37-1.62-1.84-3-2.85-4.48-1.34 1.39-3.13 2.6-3.79 4.26-.28.7 1.85 2.35 3.59 4.4zM172.89 1716.74c-.08 5.55-3.87 8.99-9.75 8.86-5.97-.13-10.12-3.99-10.08-9.38.04-5.93 4.6-10.58 10.29-10.49 5.85.1 9.63 4.47 9.54 11.01zm-5.07-.02c-1.97-2.11-3.22-4.46-4.38-4.42-1.37.04-2.67 2.16-4 3.38 1.26 1.18 2.34 2.84 3.83 3.37.86.32 2.38-1.14 4.55-2.33zM876.89 1270.73c-.08 5.55-3.86 9-9.74 8.87-5.97-.13-10.12-3.98-10.09-9.37.03-5.93 4.59-10.59 10.28-10.5 5.85.1 9.64 4.46 9.55 11zm-15.2-.78c2.54 1.59 3.9 3.11 5.2 3.07 1.21-.04 3.47-2.03 3.31-2.69-.38-1.58-1.77-3.86-3.01-4.03-1.28-.18-2.87 1.79-5.5 3.65zM410.89 656.55c0 5.59-3.69 9.09-9.55 9.06-5.95-.03-10.21-3.84-10.28-9.19-.08-5.9 4.44-10.68 10.1-10.68 5.89-.01 9.73 4.26 9.73 10.81zm-8.75-5.01l-1.84-.06c-.96 1.5-2.79 3.09-2.63 4.46.14 1.23 2.33 2.58 3.88 3.11.56.19 2.71-1.87 2.67-2.85-.05-1.58-1.32-3.11-2.08-4.66zM776.7 181.59c-5.96-.36-9.9-4.37-9.63-9.81.3-5.98 4.97-10.34 10.73-10.02 5.74.32 9.43 4.95 9.09 11.43-.29 5.42-4.33 8.75-10.19 8.4zm5.2-9.48c-2.22-1.86-3.77-4.04-4.81-3.82-1.43.31-2.48 2.43-3.69 3.78 1.39 1.05 2.66 2.56 4.23 2.98.85.23 2.19-1.43 4.27-2.94zM1091.34 1265.61c-5.95-.03-10.21-3.84-10.28-9.19-.08-5.9 4.44-10.68 10.1-10.68 5.89 0 9.73 4.26 9.73 10.81 0 5.59-3.69 9.09-9.55 9.06zm4.47-8.85c-1.95-2.12-3.17-4.48-4.35-4.46-1.36.02-2.68 2.15-4.02 3.36 1.25 1.19 2.32 2.85 3.8 3.4.87.32 2.39-1.14 4.57-2.3zM361.22 2283.61c-5.96-.09-10.16-3.93-10.17-9.3-.01-5.92 4.53-10.62 10.21-10.57 5.87.05 9.68 4.38 9.62 10.93-.04 5.56-3.79 9.03-9.66 8.94zm-5.53-9.66c2.54 1.59 3.9 3.11 5.2 3.07 1.21-.04 3.47-2.03 3.31-2.69-.38-1.58-1.77-3.86-3.01-4.03-1.28-.18-2.87 1.79-5.5 3.65zM410.89 776.56c0 5.59-3.7 9.08-9.57 9.05-5.95-.04-10.2-3.85-10.27-9.21-.07-5.9 4.45-10.67 10.11-10.67 5.9.01 9.73 4.28 9.73 10.83zm-9.97 4.09c1.69-1.92 3.58-3.28 3.36-3.96-.56-1.72-2.07-3.12-3.2-4.65-1.22 1.33-3.05 2.5-3.45 4.05-.24.95 1.69 2.46 3.29 4.56zM320.89 1498.8c-.11 5.53-3.92 8.96-9.8 8.81-5.97-.16-10.09-4.04-10.03-9.43.07-5.93 4.65-10.56 10.34-10.44 5.84.12 9.61 4.52 9.49 11.06zm-5.04-.3c-2.06-2.02-3.43-4.32-4.54-4.2-1.4.15-2.6 2.26-3.89 3.53 1.31 1.14 2.47 2.74 3.99 3.24.85.27 2.3-1.27 4.44-2.57zM746.89 668.72c-.07 5.55-3.85 9-9.72 8.89-5.96-.12-10.13-3.98-10.11-9.36.02-5.93 4.58-10.59 10.27-10.51 5.85.08 9.64 4.43 9.56 10.98zm-8.64-5.14c-.61-.04-1.21-.09-1.82-.13-1.01 1.47-2.69 2.89-2.79 4.41-.07 1.05 1.96 2.95 3.24 3.14 1.03.15 3.25-1.65 3.32-2.69.12-1.53-1.22-3.15-1.95-4.73zM863.58 1517.61c-5.94.1-10.31-3.62-10.52-8.94-.23-5.87 4.22-10.8 9.84-10.93 5.93-.13 9.84 4.01 9.98 10.56.12 5.66-3.44 9.22-9.3 9.31zm4.24-8.9c-1.98-2.1-3.24-4.45-4.4-4.41-1.37.05-2.67 2.17-4 3.4 1.26 1.18 2.36 2.83 3.85 3.36.87.31 2.38-1.16 4.55-2.35zM300.89 666.74c-.08 5.55-3.87 8.99-9.75 8.86-5.96-.13-10.12-3.99-10.08-9.38.04-5.93 4.6-10.58 10.29-10.49 5.85.1 9.63 4.47 9.54 11.01zm-5.07-.02c-1.97-2.11-3.22-4.46-4.38-4.42-1.37.04-2.67 2.16-4 3.38 1.26 1.18 2.34 2.84 3.83 3.37.86.32 2.38-1.14 4.55-2.33zM362.89 162.67c-.05 5.56-3.81 9.03-9.68 8.93-5.96-.09-10.15-3.94-10.15-9.31-.01-5.92 4.54-10.62 10.22-10.56 5.87.07 9.67 4.39 9.61 10.94zm-5.07.05c-1.97-2.11-3.22-4.46-4.38-4.42-1.37.04-2.67 2.16-4 3.38 1.26 1.18 2.34 2.84 3.83 3.37.86.32 2.38-1.14 4.55-2.33zM244.88 427.27c-.32 5.39-4.41 8.7-10.27 8.31-5.97-.4-9.86-4.44-9.54-9.89.35-5.98 5.04-10.3 10.81-9.93 5.71.36 9.39 5.05 9 11.51zm-5-.96c-2.14-1.94-3.6-4.18-4.68-4.01-1.42.23-2.54 2.35-3.79 3.65 1.35 1.1 2.57 2.66 4.11 3.11.85.25 2.24-1.34 4.36-2.75zM470.89 1518.73c-.08 5.55-3.86 9-9.73 8.88-5.96-.12-10.12-3.98-10.1-9.37.03-5.93 4.59-10.59 10.28-10.5 5.85.08 9.64 4.44 9.55 10.99zm-5.02-.37c-2.12-1.96-3.56-4.22-4.64-4.06-1.42.21-2.56 2.32-3.82 3.62 1.34 1.11 2.54 2.68 4.07 3.15.86.26 2.27-1.33 4.39-2.71zM416.89 550.44c.05 5.62-3.58 9.15-9.44 9.18-5.94.03-10.26-3.75-10.39-9.09-.14-5.89 4.34-10.73 9.99-10.79 5.91-.06 9.78 4.15 9.84 10.7zm-8.83-4.92c-.62 0-1.24-.01-1.86-.01-.93 1.52-2.73 3.16-2.54 4.52.17 1.23 2.4 2.51 3.97 3.02.55.18 2.63-1.94 2.58-2.93-.07-1.57-1.37-3.07-2.15-4.6zM738.89 1748.39c.07 5.63-3.53 9.18-9.39 9.23-5.94.05-10.28-3.71-10.44-9.04-.17-5.88 4.29-10.76 9.93-10.84 5.93-.09 9.81 4.09 9.9 10.65zm-5.03.02c-2.1-1.98-3.51-4.25-4.61-4.11-1.41.19-2.57 2.3-3.84 3.59 1.33 1.12 2.51 2.7 4.04 3.18.86.26 2.29-1.31 4.41-2.66zM896.89 660.74c-.08 5.55-3.87 8.99-9.75 8.86-5.96-.13-10.12-3.99-10.08-9.38.04-5.93 4.6-10.58 10.29-10.49 5.85.1 9.63 4.47 9.54 11.01zm-5.01-.43c-2.14-1.94-3.6-4.18-4.68-4.01-1.42.23-2.54 2.35-3.79 3.65 1.35 1.1 2.57 2.66 4.11 3.11.85.25 2.24-1.34 4.36-2.75zM398.88 1146.33c.1 5.65-3.47 9.2-9.33 9.28-5.94.08-10.3-3.65-10.49-8.97-.21-5.88 4.24-10.79 9.87-10.9 5.93-.12 9.84 4.04 9.95 10.59zm-5.01.03c-2.12-1.96-3.56-4.22-4.64-4.06-1.42.21-2.56 2.32-3.82 3.62 1.34 1.11 2.54 2.68 4.07 3.15.86.26 2.27-1.33 4.39-2.71zM1017.24 1783.61c-5.96-.08-10.16-3.92-10.18-9.29-.02-5.92 4.52-10.63 10.2-10.58 5.87.05 9.68 4.36 9.63 10.91-.04 5.56-3.79 9.04-9.65 8.96zm-.4-4.96c1.72-1.89 3.64-3.23 3.43-3.91-.54-1.73-2.03-3.15-3.14-4.7-1.24 1.31-3.08 2.47-3.5 4-.26.95 1.65 2.49 3.21 4.61zM1092.89 832.45c.05 5.62-3.59 9.14-9.45 9.16-5.94.02-10.25-3.76-10.38-9.1-.14-5.89 4.35-10.73 10-10.78 5.91-.05 9.77 4.17 9.83 10.72zm-9.97 4.2c1.69-1.92 3.58-3.28 3.36-3.96-.56-1.72-2.07-3.12-3.2-4.65-1.22 1.33-3.05 2.5-3.45 4.05-.24.95 1.69 2.46 3.29 4.56zM701.57 1537.61c-5.94.09-10.31-3.64-10.51-8.96-.22-5.88 4.22-10.8 9.86-10.91 5.93-.12 9.84 4.02 9.96 10.58.11 5.65-3.45 9.2-9.31 9.29zm4.29-9.22c-2.11-1.97-3.53-4.24-4.62-4.09-1.42.2-2.57 2.31-3.83 3.6 1.33 1.12 2.52 2.69 4.06 3.17.85.26 2.27-1.32 4.39-2.68zM40.89 526.8c-.11 5.53-3.92 8.96-9.8 8.81-5.96-.16-10.09-4.04-10.03-9.43.07-5.93 4.65-10.56 10.34-10.43 5.84.11 9.61 4.51 9.49 11.05zm-5.07-.08c-1.97-2.11-3.22-4.46-4.38-4.42-1.37.04-2.67 2.16-4 3.38 1.26 1.18 2.34 2.84 3.83 3.37.86.32 2.38-1.14 4.55-2.33zM791.24 2295.61c-5.96-.08-10.16-3.92-10.18-9.29-.02-5.92 4.52-10.63 10.2-10.58 5.87.05 9.68 4.36 9.63 10.91-.04 5.56-3.79 9.04-9.65 8.96zm4.62-9.2c-2.1-1.98-3.51-4.25-4.6-4.11-1.41.19-2.57 2.3-3.84 3.59 1.33 1.12 2.51 2.7 4.04 3.18.85.26 2.28-1.31 4.4-2.66zM756.89 72.54c.01 5.59-3.67 9.1-9.54 9.08-5.95-.02-10.22-3.83-10.3-9.18-.09-5.9 4.43-10.69 10.09-10.7 5.9-.01 9.74 4.24 9.75 10.8zm-5.02-.18c-2.12-1.96-3.56-4.22-4.64-4.06-1.42.21-2.56 2.32-3.82 3.62 1.34 1.11 2.54 2.68 4.07 3.15.86.26 2.27-1.33 4.39-2.71zM968.89 342.44c.05 5.62-3.58 9.15-9.44 9.18-5.94.03-10.26-3.75-10.39-9.09-.14-5.89 4.34-10.73 9.99-10.79 5.91-.06 9.78 4.15 9.84 10.7zm-15.2-.49c2.53 1.59 3.89 3.11 5.2 3.07 1.2-.04 3.47-2.03 3.31-2.69-.38-1.58-1.77-3.86-3.01-4.03-1.28-.18-2.87 1.79-5.5 3.65zM74.89 860.48c.03 5.61-3.62 9.13-9.48 9.13-5.94.01-10.24-3.78-10.35-9.13-.12-5.89 4.38-10.72 10.03-10.75 5.9-.03 9.76 4.2 9.8 10.75zm-5.08.28c-1.95-2.12-3.17-4.48-4.35-4.46-1.36.02-2.68 2.15-4.02 3.36 1.25 1.19 2.32 2.85 3.8 3.4.87.32 2.39-1.14 4.57-2.3zM1010.89 2308.5c.03 5.6-3.64 9.12-9.5 9.12-5.95 0-10.23-3.8-10.33-9.14-.11-5.9 4.39-10.71 10.05-10.73 5.9-.04 9.75 4.19 9.78 10.75zm-9.47 4.41c1.51-2.35 3.06-3.74 2.82-4.63-.44-1.58-1.97-2.85-3.05-4.26-1.26 1.3-3.29 2.47-3.53 3.93-.18 1.14 1.89 2.63 3.76 4.96zM72.89 2330.54c.01 5.59-3.68 9.1-9.54 9.07-5.95-.03-10.21-3.83-10.29-9.18-.09-5.9 4.43-10.69 10.09-10.69 5.89-.01 9.73 4.25 9.74 10.8zm-8.79-5.01l-1.85-.03c-.95 1.51-2.76 3.12-2.58 4.48.16 1.23 2.37 2.55 3.92 3.07.56.18 2.67-1.9 2.63-2.89-.07-1.57-1.35-3.09-2.12-4.63zM682.89 866.4c.07 5.63-3.54 9.17-9.4 9.22-5.94.05-10.27-3.71-10.43-9.05-.17-5.88 4.3-10.76 9.94-10.83 5.92-.08 9.8 4.1 9.89 10.66zm-8.87-4.89c-.62.01-1.24.01-1.87.02-.92 1.53-2.7 3.19-2.49 4.54.19 1.23 2.44 2.48 4.02 2.97.54.17 2.59-1.97 2.53-2.97-.09-1.56-1.4-3.05-2.19-4.56zM64.89 1108.76c-.09 5.54-3.88 8.98-9.76 8.85-5.97-.14-10.11-4-10.07-9.39.04-5.93 4.61-10.58 10.3-10.48 5.85.1 9.63 4.47 9.53 11.02zm-9.97 3.89c1.69-1.92 3.58-3.28 3.36-3.96-.56-1.72-2.07-3.12-3.2-4.65-1.22 1.33-3.05 2.5-3.45 4.05-.24.95 1.69 2.46 3.29 4.56zM449.57 887.61c-5.93.09-10.31-3.64-10.51-8.96-.22-5.87 4.23-10.8 9.86-10.91 5.93-.12 9.84 4.02 9.96 10.58.11 5.65-3.45 9.2-9.31 9.29zm.76-14.01l-1.79-.18c-1.04 1.44-2.75 2.82-2.88 4.35-.09 1.05 1.88 3.01 3.15 3.22 1.05.17 3.33-1.57 3.42-2.6.13-1.53-1.2-3.19-1.9-4.79zM552.89 64.44c.05 5.62-3.58 9.15-9.44 9.18-5.94.03-10.26-3.75-10.39-9.09-.14-5.89 4.34-10.73 9.99-10.79 5.91-.06 9.78 4.15 9.84 10.7zm-5.03-.05c-2.11-1.97-3.53-4.24-4.62-4.09-1.42.2-2.57 2.31-3.83 3.6 1.33 1.12 2.52 2.69 4.06 3.17.85.26 2.27-1.32 4.39-2.68zM186.89 2348.54c.01 5.59-3.68 9.1-9.54 9.07-5.95-.03-10.21-3.83-10.29-9.18-.09-5.9 4.43-10.68 10.09-10.69 5.89-.01 9.73 4.25 9.74 10.8zm-8.79-5.01l-1.85-.03c-.95 1.51-2.76 3.12-2.58 4.48.16 1.23 2.37 2.55 3.92 3.07.56.18 2.67-1.9 2.63-2.89-.07-1.57-1.35-3.09-2.12-4.63zM381.16 69.61c-5.96-.12-10.13-3.98-10.1-9.36.02-5.93 4.58-10.59 10.27-10.51 5.86.09 9.65 4.44 9.56 10.99-.08 5.54-3.85 8.99-9.73 8.88zm1.14-14.02l-1.8-.15c-1.03 1.45-2.73 2.85-2.84 4.37-.08 1.05 1.91 2.99 3.19 3.19 1.04.16 3.3-1.6 3.38-2.64.11-1.53-1.22-3.17-1.93-4.77zM52.89 58.73c-.08 5.55-3.86 8.99-9.74 8.87-5.96-.12-10.12-3.99-10.09-9.37.03-5.93 4.59-10.59 10.28-10.5 5.85.1 9.64 4.46 9.55 11zm-4.98-.7c-2.25-1.82-3.84-3.98-4.86-3.73-1.44.35-2.45 2.47-3.64 3.83 1.41 1.04 2.71 2.53 4.28 2.92.83.21 2.15-1.47 4.22-3.02zM838.89 948.8c-.11 5.53-3.92 8.96-9.8 8.81-5.96-.16-10.09-4.04-10.03-9.43.07-5.93 4.65-10.56 10.34-10.43 5.84.11 9.61 4.51 9.49 11.05zm-8.56-5.2c-.6-.06-1.2-.11-1.79-.17-1.04 1.44-2.75 2.82-2.88 4.34-.09 1.05 1.88 3.01 3.15 3.22 1.05.17 3.33-1.57 3.42-2.6.13-1.53-1.2-3.19-1.9-4.79zM336.89 954.65c-.04 5.57-3.78 9.04-9.65 8.96-5.96-.08-10.16-3.92-10.18-9.29-.02-5.92 4.52-10.63 10.2-10.58 5.87.05 9.68 4.36 9.63 10.91zm-5.08.11c-1.95-2.12-3.17-4.48-4.35-4.46-1.36.02-2.68 2.15-4.02 3.36 1.25 1.19 2.32 2.85 3.8 3.4.87.32 2.39-1.14 4.57-2.3zM716.89 2362.44c.05 5.62-3.58 9.15-9.44 9.18-5.94.03-10.26-3.75-10.39-9.08-.15-5.89 4.34-10.74 9.98-10.79 5.91-.07 9.79 4.13 9.85 10.69zm-5.03-.03c-2.1-1.98-3.51-4.25-4.61-4.11-1.41.19-2.57 2.3-3.84 3.59 1.33 1.12 2.51 2.7 4.04 3.18.86.26 2.29-1.31 4.41-2.66zM1116.89 1570.63c-.03 5.57-3.77 9.05-9.63 8.98-5.96-.07-10.17-3.9-10.2-9.27-.03-5.91 4.51-10.64 10.18-10.6 5.87.03 9.69 4.34 9.65 10.89zm-5.01-.32c-2.14-1.94-3.6-4.18-4.68-4.01-1.42.23-2.54 2.35-3.79 3.65 1.35 1.1 2.57 2.66 4.11 3.11.85.25 2.24-1.34 4.36-2.75zM664.88 392.36c.09 5.64-3.5 9.18-9.36 9.25-5.94.07-10.29-3.68-10.46-9.01-.19-5.88 4.27-10.77 9.91-10.87 5.92-.09 9.81 4.08 9.91 10.63zm-9.76 4.31c1.59-1.98 3.39-3.4 3.15-4.1-.59-1.69-2.14-3.04-3.3-4.53-1.19 1.37-2.99 2.6-3.33 4.16-.22.96 1.79 2.41 3.48 4.47zM467.57 1001.61c-5.93.09-10.31-3.64-10.51-8.96-.22-5.87 4.23-10.8 9.86-10.91 5.93-.12 9.84 4.02 9.96 10.58.11 5.65-3.45 9.2-9.31 9.29zm.68-14.03c-.61-.04-1.21-.08-1.82-.13-1.01 1.46-2.69 2.88-2.78 4.4-.07 1.05 1.96 2.95 3.24 3.14 1.03.15 3.25-1.65 3.32-2.69.11-1.52-1.23-3.14-1.96-4.72zM952.89 1070.53c.01 5.59-3.67 9.1-9.53 9.08-5.95-.02-10.22-3.82-10.3-9.17-.09-5.9 4.42-10.69 10.08-10.7 5.89-.02 9.74 4.24 9.75 10.79zm-9.68 4.15c1.54-2.01 3.25-3.31 3.05-4.18-.37-1.62-1.84-3-2.85-4.47-1.34 1.39-3.13 2.6-3.79 4.26-.28.69 1.85 2.34 3.59 4.39zM684.89 1008.6c-.02 5.58-3.74 9.06-9.6 9.01-5.96-.06-10.19-3.88-10.23-9.24-.05-5.91 4.48-10.65 10.15-10.63 5.88.02 9.7 4.31 9.68 10.86zm-5.01-.29c-2.14-1.94-3.6-4.18-4.68-4.01-1.42.23-2.54 2.35-3.79 3.65 1.35 1.1 2.57 2.66 4.11 3.11.85.25 2.24-1.34 4.36-2.75zM878.88 50.37c.09 5.64-3.5 9.18-9.36 9.25-5.94.07-10.29-3.68-10.46-9.01-.19-5.88 4.27-10.77 9.91-10.87 5.92-.1 9.82 4.07 9.91 10.63zm-4.97-.38c-2.26-1.8-3.88-3.95-4.88-3.69-1.44.36-2.43 2.48-3.62 3.85 1.42 1.03 2.73 2.51 4.3 2.9.83.2 2.14-1.49 4.2-3.06zM486.89 2364.67c-.05 5.56-3.8 9.03-9.67 8.94-5.96-.09-10.15-3.93-10.16-9.31-.01-5.92 4.54-10.62 10.22-10.57 5.86.06 9.67 4.39 9.61 10.94zm-4.98-.68c-2.26-1.8-3.88-3.95-4.88-3.69-1.44.36-2.43 2.48-3.62 3.85 1.42 1.03 2.73 2.51 4.3 2.9.83.2 2.14-1.49 4.2-3.06zM185.18 1027.61c-5.96-.11-10.14-3.96-10.13-9.34.01-5.93 4.56-10.6 10.25-10.53 5.86.07 9.66 4.42 9.58 10.97-.06 5.55-3.82 9-9.7 8.9zm4.64-8.9c-1.98-2.1-3.24-4.45-4.4-4.41-1.37.05-2.67 2.17-4 3.39 1.26 1.18 2.36 2.83 3.85 3.36.87.32 2.38-1.15 4.55-2.34zM313.49 2383.62c-5.94.05-10.28-3.71-10.43-9.04-.17-5.88 4.3-10.76 9.94-10.84 5.92-.08 9.8 4.1 9.89 10.66.07 5.62-3.54 9.17-9.4 9.22zm4.35-9.07c-2.05-2.04-3.39-4.35-4.51-4.25-1.4.13-2.62 2.24-3.92 3.5 1.3 1.15 2.44 2.76 3.96 3.26.86.29 2.33-1.23 4.47-2.51zM262.88 40.31c.11 5.65-3.45 9.21-9.31 9.3-5.93.1-10.31-3.63-10.51-8.95-.22-5.87 4.23-10.8 9.85-10.92 5.94-.13 9.84 4.02 9.97 10.57zm-8.78-4.78l-1.85-.03c-.95 1.51-2.76 3.12-2.58 4.48.16 1.23 2.37 2.55 3.92 3.07.56.18 2.67-1.9 2.63-2.89-.07-1.57-1.35-3.09-2.12-4.63zM648.89 36.76c-.09 5.54-3.88 8.98-9.76 8.85-5.96-.14-10.11-4.01-10.07-9.39.04-5.93 4.61-10.58 10.3-10.48 5.85.1 9.63 4.47 9.53 11.02zm-5.05-.21c-2.04-2.04-3.38-4.35-4.51-4.25-1.4.12-2.62 2.24-3.92 3.5 1.3 1.15 2.44 2.76 3.96 3.26.86.29 2.33-1.23 4.47-2.51zM561.54 835.75c.06 5.11-4.23 9.71-9.22 9.91-4.78.19-9.03-3.87-9.04-8.64 0-5.08 4.4-9.17 9.79-9.11 4.92.05 8.42 3.29 8.47 7.84zM589.03 646.9c4.92.03 8.44 3.26 8.51 7.8.09 5.31-4.52 10.04-9.68 9.95-4.62-.08-8.55-4.02-8.59-8.6-.03-5.06 4.37-9.19 9.76-9.15zM571.54 654.62c.13 5.1-4.09 9.75-9.1 10.02-4.77.26-9.08-3.74-9.16-8.51-.08-4.88 4.01-9 9.17-9.23 5.14-.22 8.97 3.03 9.09 7.72zM619.52 715.36c-.31 5.18-4.85 9.48-9.81 9.3-4.82-.18-8.77-4.52-8.4-9.25.39-5.09 4.99-8.85 10.38-8.49 4.85.33 8.1 3.83 7.83 8.44zM561.94 728.66c-4.61-.04-8.58-3.94-8.66-8.52-.08-5.06 4.29-9.24 9.67-9.23 5.13 0 8.73 3.45 8.57 8.22-.16 5.16-4.6 9.57-9.58 9.53zM534.95 664.66c-4.61-.03-8.59-3.94-8.67-8.51-.09-5.06 4.28-9.24 9.67-9.24 5.13 0 8.73 3.45 8.58 8.22-.17 5.15-4.6 9.56-9.58 9.53zM610.88 644.9c4.93-.03 8.5 3.13 8.66 7.65.18 5.29-4.35 10.09-9.52 10.1-4.61.01-8.62-3.87-8.73-8.45-.14-5.05 4.21-9.26 9.59-9.3zM571.53 738.9c-.04 5.14-4.37 9.65-9.37 9.75-4.8.1-8.97-4.03-8.88-8.79.09-5.08 4.55-9.1 9.95-8.96 4.9.12 8.34 3.43 8.3 8zM610.85 577.9c4.93-.04 8.51 3.1 8.68 7.63.2 5.29-4.32 10.1-9.49 10.13-4.6.02-8.63-3.84-8.76-8.42-.15-5.06 4.19-9.29 9.57-9.34zM562.18 642.66c-4.6.1-8.68-3.69-8.9-8.28-.24-5.04 4.06-9.36 9.43-9.48 5.14-.11 8.84 3.24 8.82 7.98-.02 5.14-4.35 9.66-9.35 9.78zM562.85 689.9c4.93-.04 8.51 3.1 8.68 7.63.2 5.29-4.32 10.1-9.49 10.13-4.6.02-8.63-3.84-8.76-8.42-.15-5.06 4.19-9.29 9.57-9.34zM610.19 640.66c-4.6.11-8.69-3.68-8.91-8.27-.25-5.04 4.05-9.37 9.42-9.49 5.14-.12 8.85 3.23 8.83 7.97-.01 5.13-4.34 9.67-9.34 9.79zM609.91 704.66c-4.61-.05-8.57-3.97-8.63-8.55-.07-5.06 4.31-9.22 9.7-9.21 5.13.01 8.72 3.48 8.54 8.25-.18 5.17-4.63 9.56-9.61 9.51zM540.19 738.9c4.91.11 8.36 3.4 8.35 7.96-.01 5.33-4.69 9.99-9.83 9.79-4.62-.17-8.49-4.19-8.42-8.76.06-5.07 4.51-9.1 9.9-8.99zM609.63 683.66c-4.62-.22-8.46-4.28-8.35-8.83.12-5.08 4.6-9.08 9.99-8.92 5.1.15 8.57 3.73 8.24 8.54-.36 5.18-4.93 9.44-9.88 9.21zM610.88 600.9c4.93-.03 8.5 3.13 8.66 7.65.18 5.29-4.35 10.09-9.52 10.1-4.61.01-8.62-3.87-8.73-8.45-.14-5.05 4.21-9.26 9.59-9.3zM533.19 834.66c-4.6.11-8.69-3.68-8.91-8.27-.25-5.04 4.05-9.36 9.42-9.49 5.14-.12 8.85 3.24 8.83 7.97-.01 5.14-4.34 9.67-9.34 9.79zM561.9 619.66c-4.61-.06-8.57-3.99-8.62-8.56-.06-5.07 4.33-9.21 9.72-9.19 5.13.02 8.71 3.49 8.53 8.27-.2 5.15-4.65 9.54-9.63 9.48zM523.93 755.9c4.92-.01 8.49 3.18 8.61 7.7.15 5.3-4.41 10.08-9.58 10.05-4.61-.02-8.59-3.92-8.68-8.5-.1-5.05 4.26-9.24 9.65-9.25zM571.53 677.01c-.1 5.16-4.47 9.61-9.47 9.65-4.8.03-8.93-4.15-8.78-8.9.16-5.08 4.67-9.04 10.05-8.86 4.9.17 8.29 3.52 8.2 8.11zM530.53 806.9c-.04 5.14-4.37 9.65-9.37 9.75-4.8.1-8.97-4.03-8.88-8.79.09-5.08 4.55-9.1 9.95-8.96 4.9.12 8.33 3.43 8.3 8zM518.81 776.9c5.14-.07 8.8 3.32 8.73 8.08-.08 5.16-4.44 9.62-9.44 9.68-4.6.05-8.64-3.79-8.81-8.37-.19-5.06 4.14-9.32 9.52-9.39zM612.76 762.42c-.11 4.65-4.12 8.51-8.79 8.45-5.07-.06-9.48-4.59-9.48-9.74 0-4.64 3.96-8.15 9.01-7.98 5.16.17 9.38 4.39 9.26 9.27zM588.76 836.27c-.13 4.65-4.15 8.5-8.82 8.43-5.05-.08-9.47-4.66-9.44-9.79.03-4.67 3.94-8.09 9.05-7.91 5.21.19 9.35 4.36 9.21 9.27zM617.72 804.89c.07 4.63-3.81 8.62-8.51 8.74-5.01.13-9.62-4.31-9.79-9.44-.16-4.68 3.62-8.24 8.74-8.22 5.21 0 9.48 3.99 9.56 8.92zM587.07 754.96c-5.05.09-9.61-4.34-9.76-9.47-.13-4.58 3.82-8.25 8.84-8.21 5.13.04 9.48 4.18 9.51 9.04.04 4.62-3.88 8.56-8.59 8.64zM609.73 773.85c5.3.05 9.37 3.94 9.36 8.97 0 4.8-3.7 8.53-8.51 8.59-5.11.06-9.54-4.3-9.63-9.48-.08-4.77 3.56-8.12 8.78-8.08zM598.22 832.31c-5.16 0-9.45-4.35-9.46-9.59-.01-4.62 3.39-7.82 8.41-7.92 5.52-.11 9.81 3.9 9.73 9.11-.08 4.8-3.8 8.4-8.68 8.4zM510.2 640.05c-4.66-.02-8.23-3.58-8.24-8.2-.01-4.8 4.02-8.69 9.04-8.71 4.7-.02 8.12 3.13 8.19 7.55.08 5.11-4.02 9.38-8.99 9.36zM510.11 704.05c-4.66-.07-8.18-3.66-8.15-8.29.03-4.8 4.12-8.65 9.13-8.62 4.71.03 8.07 3.21 8.1 7.64.03 5.12-4.1 9.34-9.08 9.27zM519.19 608.95c-.06 5.12-4.28 9.26-9.25 9.09-4.64-.16-8.1-3.83-7.98-8.46.13-4.78 4.31-8.58 9.31-8.44 4.7.12 7.97 3.35 7.92 7.81zM501.96 674.6c.12-4.78 4.3-8.58 9.29-8.46 4.7.12 7.99 3.34 7.94 7.8-.05 5.12-4.26 9.27-9.23 9.11-4.65-.16-8.12-3.82-8-8.45zM519.19 653.05c-.12 5.12-4.37 9.22-9.35 8.99-4.63-.21-8.05-3.93-7.87-8.56.18-4.77 4.42-8.53 9.4-8.35 4.69.18 7.92 3.45 7.82 7.92zM519.19 585.71c.07 5.12-4.04 9.37-9.01 9.33-4.66-.04-8.21-3.6-8.21-8.23 0-4.8 4.05-8.68 9.06-8.68 4.7.01 8.1 3.16 8.16 7.58zM510.11 724.05c-4.66-.07-8.18-3.66-8.15-8.29.03-4.8 4.12-8.65 9.13-8.62 4.71.03 8.07 3.2 8.1 7.64.03 5.12-4.1 9.34-9.08 9.27zM68.62 2190.31c-13.54.03-23.15-8.21-23.77-18.6-.72-12.04 8.48-22.48 20.95-23.75 13.2-1.35 22.35 4.69 25.66 16.85 1.87 6.88-.61 12.53-5.19 17.3-5.3 5.53-12.05 8.14-17.65 8.2zm16.63-21.75c-.06-9.01-6.11-14.48-16.04-14.5-10.09-.02-18.09 7.05-18.18 16.06-.08 7.83 6.93 14.06 15.7 13.97 10.47-.12 18.58-6.92 18.52-15.53zM563.12 1246.63c-10.7-.12-20.59-9.06-21.81-19.71-1.31-11.46 11.93-22.09 24.63-19.33 4.65 1.01 9.25 2.89 13.48 5.12 6.94 3.66 9.33 10.98 6.69 18.43-3.21 9.06-12.93 15.6-22.99 15.49zm-1.37-7.68c4.63-.24 8.95-2.49 11.75-7.43 2.92-5.15-.12-9.15-2.34-13.4-1.62-3.1-4.01-3.65-7.07-2.74-6.21 1.84-9.31 6.49-11.22 12.29-2.45 7.38.31 11.33 8.88 11.28zM219.65 2056.46c18.9 30.85 37.81 61.7 56.49 92.19-5.16-3.13-10.99-6.54-14.36-12.74-14.01-25.69-27.94-51.43-41.89-77.15-.3-.56-.51-1.17-.76-1.75.17-.19.35-.37.52-.55zM249.84 2041.28c2.06 3.41 4.12 6.8 6.17 10.22 12.99 21.71 25.87 43.48 39.01 65.1 3.53 5.8 3.63 11.81 3.18 17.52-16.28-30.54-32.72-61.37-49.16-92.19.27-.23.53-.44.8-.65zM287.72 2156.04c2.54.65 5.08 1.3 8.03 2.06.91-2.98 1.77-5.79 2.63-8.6.4-.06.81-.12 1.21-.19.32 4.18.9 8.37.73 12.53-.03.71-3.8 2.33-4.88 1.75-3.12-1.68-5.74-4.27-8.56-6.51.29-.35.57-.7.84-1.04zM74.42 167.8c.06 7.18-4.94 12.25-12.2 12.36-6.9.1-11.63-4.52-11.75-11.49-.14-7.65 4.7-12.04 13.29-12.07 6.49-.01 10.6 4.31 10.66 11.2zm-6.27.17c-.13-3.15-1.26-5.25-4.75-5.07-3.59.18-6.68.99-6.6 5.54.06 3.61 1.86 5.65 5.53 5.46 3.67-.2 5.73-2.23 5.82-5.93zM118.14 147.16c-6.79-.05-11.83-4.98-11.83-11.56.01-6.39 6.02-11.81 13.03-11.73 6.18.07 11.53 5.53 11.33 11.58-.21 6.46-5.89 11.76-12.53 11.71zm-1.57-5.93c4.98-.66 7.92-2.34 7.43-5.99-.25-1.88-2.99-4.68-4.79-4.82-2.95-.23-6.71 1.26-6.31 5.2.22 2.15 2.6 4.07 3.67 5.61zM735.01 774.98c-6.44-.01-11.42-4.97-11.4-11.34.02-6.41 6.32-12.07 13.46-11.97 7.56.1 9.13 4.93 10.1 13.4.6 5.28-5.6 9.92-12.16 9.91zm-1.53-6.26c5.28-.01 8.95-3.1 8.06-6.11-.55-1.87-2.9-4.03-4.81-4.48-3.28-.77-7.37 2.87-6.64 5.67.55 2.12 2.6 3.84 3.39 4.92zM898.3 234.34c3.66-16.23 7.08-32.52 11.14-48.64 1.1-4.37.21-6.46-3.25-8.99-9.01-6.57-17.73-13.54-26.39-20.57-1.45-1.17-2.81-3.52-2.68-5.2.09-1.09 2.86-2.51 4.61-2.83 12.77-2.32 25.56-4.56 38.41-6.44 4.03-.59 6.23-2.11 8.19-5.82 7.24-13.67 14.93-27.11 22.66-40.52 3.17-5.5 4.95-5.42 8.27-.14 8.52 13.52 16.9 27.12 25.57 40.54 1.04 1.6 3.45 3.01 5.37 3.24 13.88 1.66 27.81 2.91 41.7 4.55 2.06.24 3.95 1.85 5.92 2.83-1.07 1.91-1.75 4.27-3.29 5.67-8.89 8.04-17.88 15.97-27.08 23.66-2.71 2.27-3.25 4.08-2.26 7.55 4.46 15.51 8.57 31.12 12.55 46.75.6 2.34-.17 5.04-.31 7.57-2.5-.35-5.28-.11-7.44-1.15-15.89-7.66-31.73-15.45-47.42-23.51-3.25-1.67-5.49-1.5-8.62.19-15.97 8.61-32.05 17-48.2 25.27-4.69 2.39-6.95.87-7.45-4.01zm62.15-89.76c0-.14-.01-.28-.01-.43-8.96.63-17.94 1.07-26.87 2.03-1.85.2-4.37 1.9-5.08 3.55-3.46 8.09-6.34 16.44-9.6 24.63-1.07 2.69-.43 4.26 1.94 5.76 11.4 7.18 22.65 14.59 34.15 21.61 1.54.94 4.71.94 6.18-.04 11.07-7.38 21.96-15.03 32.7-22.87 1.21-.89 2.1-3.88 1.54-5.26-3.45-8.64-7.18-17.19-11.24-25.56-.78-1.61-3.4-3.13-5.27-3.26-6.12-.42-12.29-.16-18.44-.16zm-8.08 63.13c-12.74-8.17-24.33-15.61-36.95-23.7-3.46 15.9-6.81 31.26-10.15 46.62.6.34 1.2.67 1.79 1.01 14.83-7.83 29.65-15.66 45.31-23.93zm47.05-24.96c-12.06 8.49-23.23 16.35-35.22 24.79 16.07 7.97 31.27 15.5 46.48 23.04.47-.45.94-.89 1.41-1.34-4.18-15.32-8.36-30.65-12.67-46.49zm-21.01-43.8c.25-.57.5-1.15.75-1.72-7.73-12.32-15.45-24.64-24.04-38.34-7.94 14.3-15.13 27.24-22.25 40.06h45.54zm49.65 11.26c-.12-.54-.25-1.07-.37-1.61-12.38-1.23-24.76-2.45-37.89-3.75 4.33 9.86 8.14 18.57 12.24 27.91 9.05-7.84 17.54-15.2 26.02-22.55zm-141.23 2.67c-.12.44-.24.88-.35 1.32 8.55 6.58 17.11 13.16 25.99 19.99 3.47-9.32 6.6-17.75 10.12-27.2-12.67 2.09-24.21 3.99-35.76 5.89z"/><path d="M1048.57 164.45c1.72 20.24-.09 40.04-7.33 59.18-5.58 14.76-15.48 25.65-29.98 31.82-29.55 12.59-59.78 13.13-90.37 4.13-.61-.18-1.16-.57-2.92-1.45 6.72.83 12.16 1.7 17.63 2.14 20.26 1.64 40.23-.35 59.91-5.33 21.33-5.39 35.69-18.22 42.89-39.27 5.7-16.65 9.18-33.66 10.17-51.22zM872.49 142.24c-.57 3.71-.81 7.51-1.75 11.12-4.33 16.55-5.25 33.16-1.21 49.87 4.02 16.6 12.85 30.14 26.26 40.75 2.64 2.09 4.86 4.71 7.27 7.08-.39.64-.78 1.29-1.17 1.93-3.4-1.57-7.24-2.57-10.12-4.81-19.74-15.43-29.7-36.23-30.35-60.89-.31-11.98 2.11-24.07 3.91-36.02.52-3.44 3.2-6.55 4.89-9.82.77.26 1.52.53 2.27.79zM875.92 132.47c13.29-36.16 61.41-60.15 96.47-47.59-19.19 2.44-37.91 2.2-54.78 11.19-16.8 8.94-29.87 21.97-41.69 36.4zM994.31 90.22c6.14 2.84 11.95 4.88 17.09 8.02 16.77 10.24 29.59 24.1 36.51 42.75 1.23 3.31.91 7.2 1.3 10.82-.79.27-1.58.55-2.38.82-5.75-12.34-10.24-25.54-20.65-34.84-10.23-9.14-20.74-17.98-31.87-27.57zM348.27 1362.9c-.05 6.88-5.45 12.08-12.58 12.12-7 .04-12.77-5.66-12.79-12.62-.02-6.74 5.45-12.25 11.98-12.07 7.73.22 13.44 5.58 13.39 12.57zm-14.93-7c-1.39 2.22-3.78 4.37-3.96 6.69-.29 3.7 2.42 6 6.29 6.17 3.62.15 6.52-2.79 6.34-6.14-.17-3.06-3.9-6.04-8.67-6.72zM732.28 525.38c.59 1.36 1.26 2.7 1.77 4.09 1.8 4.99 3.74 9.95 5.18 15.05.36 1.26-.97 3-1.52 4.52-1.38-.88-3.49-1.44-4.02-2.68-2.08-4.87-3.86-9.9-5.31-14.99-.39-1.37.76-3.17 1.2-4.77.89-.42 1.8-.82 2.7-1.22zM751.28 523.71c.79-1.06 1.44-2.76 2.27-2.85 1.18-.13 3.22.61 3.61 1.52 2.07 4.88 3.89 9.89 5.42 14.96.27.89-.97 2.76-1.99 3.33-.67.37-2.87-.49-3.22-1.3-2.16-5.01-4-10.17-6.09-15.66zM143.75 686.49c5.09 1.13 9.01 1.86 12.84 2.91 3.66 1 4.72 3.59 3.12 6.95-4.36 9.17-8.81 18.29-13.32 27.39-1.41 2.85-3.29 2.59-4.82.09-5.13-8.37-10.21-16.78-15.21-25.23-1.8-3.04-.87-5.69 2.32-6.93 5.21-2.02 10.57-3.65 15.07-5.18zm.05 31.77c3.4-8.25 6.4-15.53 9.51-23.1-7.43-2.7-13.97-2.07-20.72 1.73 3.71 7.06 7.22 13.75 11.21 21.37zM115.1 732.88c-14.57.69-15.57-.63-12.54-12.1 2.08-7.86 6.2-14.27 12.77-19.09 4.24-3.1 6.3-2.83 8.81 1.63 4.09 7.24 8.08 14.54 11.93 21.9 2.19 4.19 1.34 5.63-3.44 6.12-6.77.7-13.57 1.2-17.53 1.54zm-7.24-6.22h23.11c-4.19-6.92-7.99-13.2-11.94-19.72-7 5.01-10 11.51-11.17 19.72zM168.77 728.87c-5.14 0-8.96-.03-12.78.01-3.53.04-5.17-1.24-3.45-4.84 3.72-7.78 7.48-15.54 11.27-23.29 1.94-3.95 4.63-4.2 8.04-1.65 7.69 5.77 12.19 13.4 13.79 22.84.66 3.88-.64 6.15-4.78 6.35-4.46.21-8.93.43-12.09.58zm10.42-6.78c-1.41-7.35-4.43-12.89-10.49-17.14-3.74 6.37-7.3 12.42-11.4 19.42 7.92-.83 14.72-1.54 21.89-2.28zM146.28 774.34c-4.92-.93-8.86-1.53-12.71-2.45-4.03-.97-5.61-3.39-3.49-7.37 4.21-7.9 8.45-15.79 12.69-23.68 1.45-2.69 3.2-2.75 4.91-.33 5.36 7.59 10.68 15.2 15.95 22.86 1.98 2.87 1.03 5.3-2 6.36-5.28 1.84-10.71 3.24-15.35 4.61zm-10.09-8.16c7.69 1.82 14.31 1.87 21.1-1.75-3.96-6.8-7.67-13.17-11.97-20.55-3.25 7.93-6.05 14.77-9.13 22.3zM128.08 736.78c9.34-.4 9.52-.21 6.15 8.44-2.23 5.72-4.56 11.41-6.89 17.09-1.55 3.78-4.06 4.46-7.53 2.33-7.46-4.58-12.91-10.9-16.34-18.92-1.89-4.43-.71-6.46 4.27-7.04 6.77-.78 13.56-1.28 20.34-1.9zm2.19 5.06c-7.25 1.03-13.42 1.9-21.41 3.03 4.71 5.34 8.47 9.59 12.86 14.56l8.55-17.59zM169.87 734.59c3.66 0 7.32.09 10.98-.02 4.31-.14 6.39 2.09 5.88 6.11-1.18 9.27-6.1 16.42-13.57 21.83-2.46 1.78-4.84 1.13-6.36-1.48-4.19-7.19-8.31-14.42-12.36-21.68-1.44-2.58-.08-3.79 2.47-3.84 4.32-.09 8.65-.03 12.98-.03-.02-.3-.02-.59-.02-.89zm1.2 21.67c5.02-4.48 8.33-9.1 9.15-15.89-7.28-.43-14.01-.83-22.04-1.31 4.78 6.37 8.62 11.5 12.89 17.2zM76.27 2168.77c-.02 4.56-4.04 8.44-8.71 8.41-4.94-.03-8.99-4.03-8.91-8.79.08-4.81 4.07-8.65 9.05-8.72 4.6-.07 8.6 4.18 8.57 9.1z"/></svg>